<svg xmlns="http://www.w3.org/2000/svg" xmlns:xlink="http://www.w3.org/1999/xlink" width="324" height="324" viewBox="0 0 324 324">
  <defs>
    <style>
      .cls-1 {
        opacity: 0;
      }

      .cls-2 {
        fill: none;
      }

      .cls-3 {
        fill: url(#Degradado_sin_nombre_65);
      }

      .cls-4 {
        fill: url(#Degradado_sin_nombre_65-2);
      }

      .cls-5 {
        fill: url(#Degradado_sin_nombre_65-3);
      }

      .cls-6 {
        fill: url(#Degradado_sin_nombre_65-4);
      }

      .cls-7 {
        fill: url(#Degradado_sin_nombre_65-5);
      }

      .cls-8 {
        fill: url(#Degradado_sin_nombre_65-6);
      }

      .cls-9 {
        fill: url(#Degradado_sin_nombre_65-7);
      }

      .cls-10 {
        fill: url(#Degradado_sin_nombre_65-8);
      }

      .cls-11 {
        fill: url(#Degradado_sin_nombre_65-9);
      }

      .cls-12 {
        fill: url(#Degradado_sin_nombre_65-10);
      }

      .cls-13 {
        fill: url(#Degradado_sin_nombre_65-11);
      }

      .cls-14 {
        fill: url(#Degradado_sin_nombre_65-12);
      }

      .cls-15 {
        fill: url(#Degradado_sin_nombre_65-13);
      }

      .cls-16 {
        fill: url(#Degradado_sin_nombre_65-14);
      }

      .cls-17 {
        fill: url(#Degradado_sin_nombre_65-15);
      }

      .cls-18 {
        fill: url(#Degradado_sin_nombre_65-16);
      }

      .cls-19 {
        fill: url(#Degradado_sin_nombre_65-17);
      }

      .cls-20 {
        fill: url(#Degradado_sin_nombre_65-18);
      }

      .cls-21 {
        fill: url(#Degradado_sin_nombre_65-19);
      }

      .cls-22 {
        fill: url(#Degradado_sin_nombre_65-20);
      }

      .cls-23 {
        fill: url(#Degradado_sin_nombre_65-21);
      }

      .cls-24 {
        fill: url(#Degradado_sin_nombre_65-22);
      }

      .cls-25 {
        fill: url(#Degradado_sin_nombre_65-23);
      }

      .cls-26 {
        fill: url(#Degradado_sin_nombre_65-24);
      }

      .cls-27 {
        fill: url(#Degradado_sin_nombre_65-25);
      }

      .cls-28 {
        fill: url(#Degradado_sin_nombre_65-26);
      }

      .cls-29 {
        fill: url(#Degradado_sin_nombre_65-27);
      }

      .cls-30 {
        fill: url(#Degradado_sin_nombre_65-28);
      }

      .cls-31 {
        fill: url(#Degradado_sin_nombre_65-29);
      }

      .cls-32 {
        fill: url(#Degradado_sin_nombre_65-30);
      }

      .cls-33 {
        fill: url(#Degradado_sin_nombre_65-31);
      }

      .cls-34 {
        fill: url(#Degradado_sin_nombre_65-32);
      }

      .cls-35 {
        fill: url(#Degradado_sin_nombre_65-33);
      }

      .cls-36 {
        fill: url(#Degradado_sin_nombre_65-34);
      }

      .cls-37 {
        fill: url(#Degradado_sin_nombre_65-35);
      }

      .cls-38 {
        fill: url(#Degradado_sin_nombre_65-36);
      }

      .cls-39 {
        fill: url(#Degradado_sin_nombre_65-37);
      }

      .cls-40 {
        fill: url(#Degradado_sin_nombre_65-38);
      }

      .cls-41 {
        fill: url(#Degradado_sin_nombre_65-39);
      }

      .cls-42 {
        fill: url(#Degradado_sin_nombre_65-40);
      }

      .cls-43 {
        fill: url(#Degradado_sin_nombre_65-41);
      }

      .cls-44 {
        fill: url(#Degradado_sin_nombre_65-42);
      }

      .cls-45 {
        fill: url(#Degradado_sin_nombre_65-43);
      }

      .cls-46 {
        fill: url(#Degradado_sin_nombre_65-44);
      }

      .cls-47 {
        fill: url(#Degradado_sin_nombre_65-45);
      }

      .cls-48 {
        fill: url(#Degradado_sin_nombre_65-46);
      }

      .cls-49 {
        fill: url(#Degradado_sin_nombre_65-47);
      }

      .cls-50 {
        fill: url(#Degradado_sin_nombre_65-48);
      }
    </style>
    <linearGradient id="Degradado_sin_nombre_65" data-name="Degradado sin nombre 65" x1="150.17" y1="197.78" x2="150.23" y2="197.78" gradientUnits="userSpaceOnUse">
      <stop offset="0.05" stop-color="#947f41"/>
      <stop offset="0.21" stop-color="#d8bb62"/>
      <stop offset="0.49" stop-color="#dec36b"/>
      <stop offset="0.74" stop-color="#c5a95a"/>
      <stop offset="0.98" stop-color="#7a6734"/>
    </linearGradient>
    <linearGradient id="Degradado_sin_nombre_65-2" x1="159.99" y1="170.43" x2="161.37" y2="170.43" xlink:href="#Degradado_sin_nombre_65"/>
    <linearGradient id="Degradado_sin_nombre_65-3" x1="132.17" y1="154.89" x2="132.22" y2="154.89" xlink:href="#Degradado_sin_nombre_65"/>
    <linearGradient id="Degradado_sin_nombre_65-4" x1="181" y1="189.82" x2="182.25" y2="189.82" xlink:href="#Degradado_sin_nombre_65"/>
    <linearGradient id="Degradado_sin_nombre_65-5" x1="174.82" y1="189.82" x2="175.52" y2="189.82" xlink:href="#Degradado_sin_nombre_65"/>
    <linearGradient id="Degradado_sin_nombre_65-6" x1="172.79" y1="187.98" x2="173.47" y2="187.98" xlink:href="#Degradado_sin_nombre_65"/>
    <linearGradient id="Degradado_sin_nombre_65-7" x1="177.94" y1="190.61" x2="178.57" y2="190.61" xlink:href="#Degradado_sin_nombre_65"/>
    <linearGradient id="Degradado_sin_nombre_65-8" x1="170.67" y1="150.73" x2="171.73" y2="150.73" xlink:href="#Degradado_sin_nombre_65"/>
    <linearGradient id="Degradado_sin_nombre_65-9" x1="174.15" y1="148.78" x2="175.23" y2="148.78" xlink:href="#Degradado_sin_nombre_65"/>
    <linearGradient id="Degradado_sin_nombre_65-10" x1="179.85" y1="147.5" x2="180.52" y2="147.5" xlink:href="#Degradado_sin_nombre_65"/>
    <linearGradient id="Degradado_sin_nombre_65-11" x1="182.62" y1="149.82" x2="183.32" y2="149.82" xlink:href="#Degradado_sin_nombre_65"/>
    <linearGradient id="Degradado_sin_nombre_65-12" x1="194.27" y1="168.79" x2="195.74" y2="168.79" xlink:href="#Degradado_sin_nombre_65"/>
    <linearGradient id="Degradado_sin_nombre_65-13" x1="151.68" y1="196.71" x2="157.47" y2="196.71" xlink:href="#Degradado_sin_nombre_65"/>
    <linearGradient id="Degradado_sin_nombre_65-14" x1="158.69" y1="194.76" x2="160.47" y2="194.76" xlink:href="#Degradado_sin_nombre_65"/>
    <linearGradient id="Degradado_sin_nombre_65-15" x1="154.17" y1="191.15" x2="154.74" y2="191.15" xlink:href="#Degradado_sin_nombre_65"/>
    <linearGradient id="Degradado_sin_nombre_65-16" x1="175.68" y1="202.17" x2="179.88" y2="202.17" xlink:href="#Degradado_sin_nombre_65"/>
    <linearGradient id="Degradado_sin_nombre_65-17" x1="132.14" y1="154.87" x2="132.17" y2="154.87" xlink:href="#Degradado_sin_nombre_65"/>
    <linearGradient id="Degradado_sin_nombre_65-18" x1="132.09" y1="154.63" x2="132.29" y2="154.63" xlink:href="#Degradado_sin_nombre_65"/>
    <linearGradient id="Degradado_sin_nombre_65-19" x1="31.24" y1="162.75" x2="291.99" y2="162.75" xlink:href="#Degradado_sin_nombre_65"/>
    <linearGradient id="Degradado_sin_nombre_65-20" x1="279.65" y1="130.46" x2="279.92" y2="130.46" xlink:href="#Degradado_sin_nombre_65"/>
    <linearGradient id="Degradado_sin_nombre_65-21" x1="211.64" y1="240.68" x2="211.87" y2="240.68" xlink:href="#Degradado_sin_nombre_65"/>
    <linearGradient id="Degradado_sin_nombre_65-22" x1="266.98" y1="114.43" x2="267.23" y2="114.43" xlink:href="#Degradado_sin_nombre_65"/>
    <linearGradient id="Degradado_sin_nombre_65-23" x1="267.26" y1="114.76" x2="267.51" y2="114.76" xlink:href="#Degradado_sin_nombre_65"/>
    <linearGradient id="Degradado_sin_nombre_65-24" x1="267.83" y1="115.38" x2="268.13" y2="115.38" xlink:href="#Degradado_sin_nombre_65"/>
    <linearGradient id="Degradado_sin_nombre_65-25" x1="235.69" y1="136.35" x2="235.87" y2="136.35" xlink:href="#Degradado_sin_nombre_65"/>
    <linearGradient id="Degradado_sin_nombre_65-26" x1="130.26" y1="157.48" x2="130.72" y2="157.48" xlink:href="#Degradado_sin_nombre_65"/>
    <linearGradient id="Degradado_sin_nombre_65-27" x1="187.51" y1="164.97" x2="187.87" y2="164.97" xlink:href="#Degradado_sin_nombre_65"/>
    <linearGradient id="Degradado_sin_nombre_65-28" x1="188.8" y1="163.83" x2="189.09" y2="163.83" xlink:href="#Degradado_sin_nombre_65"/>
    <linearGradient id="Degradado_sin_nombre_65-29" x1="195.43" y1="195.84" x2="199.15" y2="195.84" xlink:href="#Degradado_sin_nombre_65"/>
    <linearGradient id="Degradado_sin_nombre_65-30" x1="200.1" y1="194.62" x2="200.79" y2="194.62" xlink:href="#Degradado_sin_nombre_65"/>
    <linearGradient id="Degradado_sin_nombre_65-31" x1="193.79" y1="194.47" x2="194.17" y2="194.47" xlink:href="#Degradado_sin_nombre_65"/>
    <linearGradient id="Degradado_sin_nombre_65-32" x1="193.42" y1="241.37" x2="193.64" y2="241.37" xlink:href="#Degradado_sin_nombre_65"/>
    <linearGradient id="Degradado_sin_nombre_65-33" x1="156.75" y1="200.74" x2="157.91" y2="200.74" xlink:href="#Degradado_sin_nombre_65"/>
    <linearGradient id="Degradado_sin_nombre_65-34" x1="156.87" y1="199.86" x2="156.9" y2="199.86" xlink:href="#Degradado_sin_nombre_65"/>
    <linearGradient id="Degradado_sin_nombre_65-35" x1="151.74" y1="200.22" x2="152.34" y2="200.22" xlink:href="#Degradado_sin_nombre_65"/>
    <linearGradient id="Degradado_sin_nombre_65-36" x1="148.58" y1="194.7" x2="150.68" y2="194.7" xlink:href="#Degradado_sin_nombre_65"/>
    <linearGradient id="Degradado_sin_nombre_65-37" x1="151.68" y1="201.03" x2="152.01" y2="201.03" xlink:href="#Degradado_sin_nombre_65"/>
    <linearGradient id="Degradado_sin_nombre_65-38" x1="156.7" y1="199.76" x2="156.87" y2="199.76" xlink:href="#Degradado_sin_nombre_65"/>
    <linearGradient id="Degradado_sin_nombre_65-39" x1="89.56" y1="72.87" x2="89.96" y2="72.87" xlink:href="#Degradado_sin_nombre_65"/>
    <linearGradient id="Degradado_sin_nombre_65-40" x1="163.87" y1="134.61" x2="164.25" y2="134.61" xlink:href="#Degradado_sin_nombre_65"/>
    <linearGradient id="Degradado_sin_nombre_65-41" x1="75.13" y1="92.7" x2="75.28" y2="92.7" xlink:href="#Degradado_sin_nombre_65"/>
    <linearGradient id="Degradado_sin_nombre_65-42" x1="45.79" y1="228.14" x2="46.01" y2="228.14" xlink:href="#Degradado_sin_nombre_65"/>
    <linearGradient id="Degradado_sin_nombre_65-43" x1="73.12" y1="94.58" x2="73.7" y2="94.58" xlink:href="#Degradado_sin_nombre_65"/>
    <linearGradient id="Degradado_sin_nombre_65-44" x1="181.31" y1="200.62" x2="181.96" y2="200.62" xlink:href="#Degradado_sin_nombre_65"/>
    <linearGradient id="Degradado_sin_nombre_65-45" x1="177.65" y1="197.78" x2="177.94" y2="197.78" xlink:href="#Degradado_sin_nombre_65"/>
    <linearGradient id="Degradado_sin_nombre_65-46" x1="165.68" y1="140.2" x2="166.04" y2="140.2" xlink:href="#Degradado_sin_nombre_65"/>
    <linearGradient id="Degradado_sin_nombre_65-47" x1="76.41" y1="51.2" x2="76.66" y2="51.2" xlink:href="#Degradado_sin_nombre_65"/>
    <linearGradient id="Degradado_sin_nombre_65-48" x1="55.23" y1="183.05" x2="55.52" y2="183.05" xlink:href="#Degradado_sin_nombre_65"/>
  </defs>
  <title>EL CABALLO</title>
  <g id="Capa_2" data-name="Capa 2">
    <g id="Capa_2-2" data-name="Capa 2">
      <g>
        <g id="Capa_1-2" data-name="Capa 1-2">
          <g class="cls-1">
            <rect class="cls-2" width="324" height="324"/>
          </g>
        </g>
        <g>
          <path class="cls-3" d="M150.21,197.76l0,0h.06Z"/>
          <path class="cls-4" d="M161.15,170.88a.54.54,0,0,0,.22-.46v-.06a.61.61,0,0,0-.42-.56.63.63,0,0,0-.32-.08.7.7,0,0,0-.63.63.71.71,0,0,0,.63.79A.6.6,0,0,0,161.15,170.88Z"/>
          <path class="cls-5" d="M132.17,154.89h0Z"/>
          <path class="cls-6" d="M181.44,190.38a1.2,1.2,0,0,0,.28,0h.07a.52.52,0,0,0,.46-.52.61.61,0,0,0-.58-.57h-.08a.35.35,0,0,0-.18,0,.48.48,0,0,0-.38.37C180.93,190.06,181.13,190.26,181.44,190.38Z"/>
          <path class="cls-7" d="M175.06,190.14l.06,0a.31.31,0,0,0,.33-.22.47.47,0,0,0,.06-.09.24.24,0,0,0-.21-.32h0a.43.43,0,0,0-.12-.05c-.2,0-.37.14-.34.35A.4.4,0,0,0,175.06,190.14Z"/>
          <path class="cls-8" d="M173.15,188.31c.24-.05.37-.19.29-.41a.48.48,0,0,0-.29-.25h-.07a.32.32,0,0,0-.29.35C172.79,188.24,173,188.31,173.15,188.31Z"/>
          <path class="cls-9" d="M178.21,190.88a.46.46,0,0,0,.14-.07h0a.21.21,0,0,0,.2-.22.25.25,0,0,0-.1-.21l0,0a.23.23,0,0,0-.18,0l-.07,0c-.14,0-.26.15-.23.28S178.06,190.92,178.21,190.88Z"/>
          <path class="cls-10" d="M171.3,151.19h0a.49.49,0,0,0,.4-.46.48.48,0,0,0-.46-.51h-.2a.49.49,0,0,0-.4.56h0a.46.46,0,0,0,.5.43Z"/>
          <path class="cls-11" d="M174.66,149.29h0a.47.47,0,0,0,.44-.31.85.85,0,0,0,.09-.14.47.47,0,0,0-.32-.54l-.08,0a.36.36,0,0,0-.25,0c-.2,0-.35.08-.41.38A.47.47,0,0,0,174.66,149.29Z"/>
          <path class="cls-12" d="M180.12,147.8c.12,0,.22-.06.26-.13a.23.23,0,0,0,.14-.15.31.31,0,0,0-.23-.32l-.08,0,0,0c-.24,0-.34.18-.34.34A.25.25,0,0,0,180.12,147.8Z"/>
          <path class="cls-13" d="M182.9,150.13a.34.34,0,0,0,.25-.07c.09,0,.13-.14.17-.24s-.07-.27-.22-.26a.39.39,0,0,0-.17,0,.29.29,0,0,0-.3.25.17.17,0,0,0,0,.07A.29.29,0,0,0,182.9,150.13Z"/>
          <path class="cls-14" d="M194.93,169.53a.66.66,0,0,0,.61-.32.83.83,0,0,0,.17-.27.7.7,0,0,0-.47-.87.57.57,0,0,0-.32,0,.41.41,0,0,0-.11,0,.65.65,0,0,0-.53.75v0A.66.66,0,0,0,194.93,169.53Z"/>
          <path class="cls-15" d="M152.43,195.28c0,.16.17.31.22.47a.64.64,0,0,1-.11.27.92.92,0,0,1-.2.1h0a1,1,0,0,0-.6,1.22c.14.62.61.78,1.13.84.12,0,.26,0,.38,0a.88.88,0,0,1,.2.09.55.55,0,0,1,.06.26v0a1,1,0,0,0,1,.91,1,1,0,0,0,1.09-.84l0-.09.15-.26.07-.06a.5.5,0,0,1,.34-.05,1,1,0,0,0,1.16-.74v0a.52.52,0,0,0-.08-.73,2,2,0,0,1-.6-1.31.8.8,0,0,0,0-.43c0-.05,0-.1,0-.15s-.19-.27-.32-.41h0a.76.76,0,0,0-.11-.14,1,1,0,0,0-1.33,0l-.18.14a.7.7,0,0,1-.52-.15,1.07,1.07,0,0,0-1.27-.07A1.08,1.08,0,0,0,152.43,195.28Zm1.91.74h0l.13,0c.28,0,.42.22.42.53v0s0,0,0,.06a.41.41,0,0,1-.53.24l-.29-.18h0l0,0v-.44A.47.47,0,0,1,154.34,196Zm-.94-1.22v0h0v0Z"/>
          <path class="cls-16" d="M160.47,194.56l-.13-.07s0-.07,0-.09a.33.33,0,0,0-.4-.1l.07.09c-.29,0-.43.15-.6.24s-.51.3-.75.46l.1.16Z"/>
          <path class="cls-17" d="M154.31,191.83c0-.07.05-.13.07-.2a.39.39,0,0,0,.13.28.74.74,0,0,0,.13-.7,3,3,0,0,0,.09-.43.3.3,0,0,0-.19-.36h-.37C154.22,190.87,154.26,191.35,154.31,191.83Z"/>
          <path class="cls-18" d="M176.32,201.27c0,.31-.2.39-.33.58-1.09,1.52,1.06,1.12,1.23,2,.06.33.48.4.85.23s.58-.58.9-.84a.84.84,0,0,0,.88-.55,0,0,0,0,1,0,0,.13.13,0,0,1,0-.06.62.62,0,0,0-.15-.5c-.05-.11-.11-.23-.19-.37a8.9,8.9,0,0,0-1.93-1.42,2.58,2.58,0,0,0-.81,0C176.42,200.26,176.37,200.49,176.32,201.27Zm1.75.66a.13.13,0,0,1,0,.06s0,0,0,0,0,.06-.14.05a.2.2,0,0,1-.15-.31l0-.06h0C178,201.7,178,201.8,178.07,201.93Z"/>
          <path class="cls-19" d="M132.17,154.87v0l0,0Z"/>
          <path class="cls-20" d="M132.28,154.49c0-.1-.19-.12-.19,0a1.1,1.1,0,0,0,.08.4A.35.35,0,0,0,132.28,154.49Z"/>
          <path class="cls-21" d="M290.37,152.34c0-.07,0-.12,0-.16s0-.22.05-.33a13.11,13.11,0,0,0,.5-3.12c0-.3.09-.61.14-.91a34.83,34.83,0,0,0,.68-4.17c.08-.46.15-.91.23-1.38-4.11,4.32-8.06,8.48-11.36,13.5-.29-.43-.06-.94-.06-1.4a92.92,92.92,0,0,0,.32-9.58c0-1.52.39-3,0-4.52h0v0h.05a10.59,10.59,0,0,0-.11-3.37l0,0v0s0,0,0,0v-.54h0a9.28,9.28,0,0,0-.37-3.36.47.47,0,0,0,0,.17l0-.11s0-.06,0-.09a3.76,3.76,0,0,0-.26-1.45l0,0a.61.61,0,0,0-.23-.64l-.11.14,0-.06a.53.53,0,0,0,.09-.11.64.64,0,0,1-.21-.25l0-.08a.65.65,0,0,1,0-.34,1.42,1.42,0,0,0-.31-.83h.06a1.65,1.65,0,0,0-.51-1,.49.49,0,0,1,0,.34s0-.07-.05-.1a.44.44,0,0,0,0-.2l.07-.06a11.86,11.86,0,0,0-1.61-2.52l-.09,0a0,0,0,0,1,0,0l0-.06.07,0a10.6,10.6,0,0,0-1.68-2.2l-.08.07s0,0,0,0h0s0-.07,0-.11h.07a.4.4,0,0,0-.28-.33h0l-.28-.34v0l.28.3h0l-.27-.28,0-.06a2.56,2.56,0,0,0-.84-1,1.85,1.85,0,0,1,0,.23h0a1.85,1.85,0,0,0,0-.23,4.57,4.57,0,0,0-1.17-1.23,11.56,11.56,0,0,0-2.51-2.62.56.56,0,0,0,0,.12l-.05-.05,0,0s-.05,0-.08-.06l0,0a.35.35,0,0,0,.13.08.5.5,0,1,0-.24-.19h0a.94.94,0,0,1-.06-.15,12.22,12.22,0,0,0-2.14-2.29l-.25-.23s0,0,.08,0a.35.35,0,0,0-.26-.26v.16l-.14-.15v-.07l-.25-.28-.25-.3h-.11l.11,0-4.17-4.49a.06.06,0,0,0,0,0,28.93,28.93,0,0,1-4.91-7.89l0,0a.42.42,0,0,1,0-.1l0,0a.31.31,0,0,0,0-.19h0a2.52,2.52,0,0,0-.44-1.35l0,.1a.57.57,0,0,1,0-.14v-.06a.17.17,0,0,0,0-.19h0a21.27,21.27,0,0,0-.65-3h0v0h0a3.78,3.78,0,0,0,0-.55h0a.34.34,0,0,1,0-.1h0a1.81,1.81,0,0,0-.16-1.21.62.62,0,0,0,0-.13c.06-2.46.17-4.92.41-7.38,0,0,0,0,0,0h0s0,0,.06,0c.11-.42.21-.84.38-1.52a12.47,12.47,0,0,0-2.38,1.77,31.38,31.38,0,0,0-4.75,4.89h0a31.58,31.58,0,0,0-2.14,3.1,18.23,18.23,0,0,0-2.63,9.65,11.1,11.1,0,0,1,.13,2.16,1.51,1.51,0,0,1-.63-.18v0l-.3-.27h0l0,0h0c-1.88-1.86-4-3.55-6-5.23l0,0h0l0,0-4.09-3.58.05.19-.19-.16c1.81,7.15,3.55,14,4,21s-.45,13.73-1.41,20.61a1.2,1.2,0,0,0-.15-.3.53.53,0,0,1-.06.1h0a.43.43,0,0,1,0-.07,7.61,7.61,0,0,0-.68-2.52h0l-.07-.28,0-.33a.31.31,0,0,1-.07-.09l-.09-.36a.23.23,0,0,0,0-.11v0l.06,0a12.55,12.55,0,0,0-1-3.7h0v-.05c-.62-3.31-1.5-6.57-2.4-9.81h-.08l-.09-.37c0,.13,0,.26,0,.39H232c-.07.9-.16,1.79-.21,2.69,0,.24,0,.48,0,.72a118.37,118.37,0,0,0-.37,15.53,58.72,58.72,0,0,0,1.92,13.12,55.63,55.63,0,0,1,1.86,10.39,15.65,15.65,0,0,1-.61,6.73,4.4,4.4,0,0,1-4,3.15,20.33,20.33,0,0,1-4.41-.15,18.58,18.58,0,0,1-5.66-2.05v0l0,0v0a9.61,9.61,0,0,0-1.76-1.27l-.05,0h0l.05,0-3.6-3.63,0,0h0l0,0-2.92-3.72h0l0,0h0a6.4,6.4,0,0,0-1.05-1.63h0a8.57,8.57,0,0,0-1.08-1.88v.06l0,0,0-.07a47.71,47.71,0,0,0-2.72-5.27h0a1.83,1.83,0,0,0-.56-1.22.69.69,0,0,0,0,.1h0a.25.25,0,0,0,0-.09,15.52,15.52,0,0,0-1.82-3.16h0a22,22,0,0,0-3.05-4.76h0a3.52,3.52,0,0,0-.9-1.22l0,0a18.06,18.06,0,0,0-3.15-3.5v0l-.21-.21a25.26,25.26,0,0,0-5.27-4.4l-.07,0h0l.07,0c-.55-.37-1.11-.69-1.67-1l0,0a4.69,4.69,0,0,0-1.74-1h0l0,0h0a5.11,5.11,0,0,0-2.08-1h0l-.08,0a2.67,2.67,0,0,0-1.41-.68.08.08,0,0,1,0,0,1.47,1.47,0,0,0-.85-.33h0a1,1,0,0,0-.61-.3l0,.06-.5-.18a1.18,1.18,0,0,0-.91-.34,54.17,54.17,0,0,0-6.82-1.86,16.29,16.29,0,0,0-2.79-.49c-.73-.11-1.47-.21-2.22-.29a30.42,30.42,0,0,0-6.4-.28q-.93,0-1.86.06a24.36,24.36,0,0,0-3.72.32c-.71.08-1.43.18-2.14.3l-.17,0a1.42,1.42,0,0,0-.45.08l-.67.12a1.93,1.93,0,0,0-.67.12l-.59.11a1.46,1.46,0,0,0-.58.11l-.56.11a1.76,1.76,0,0,0-.68.14l-1.75.37c-.47.08-.94.18-1.4.29l-1.63.34a1.87,1.87,0,0,0-.7.15l-.85.17a1.38,1.38,0,0,0-.2,0l-.63.13-.9.17a17.94,17.94,0,0,0-1.93.28,15.67,15.67,0,0,1-1.81.09,24.75,24.75,0,0,1-2.69-.35c-1-.26-2.06-.55-3.08-.87a8,8,0,0,0-1.79-.59l-.26-.1a8.54,8.54,0,0,0-2.65-1s0,0,0,0l-.2-.08a1.13,1.13,0,0,0-.56-.24l-.08,0h0a.77.77,0,0,0-.64-.27l-.18-.08L122,125.41l-.19-.12h0a8.94,8.94,0,0,0-2-1.34h0l-4.33-3.29a1.17,1.17,0,0,0-.6-.54h0l-.2-.17a62.08,62.08,0,0,1-6-6.44l-3.07-4.91s0,0,0,.05l0-.06,0,0-.14-.19-.06-.11h0v0l.23.3a.37.37,0,0,0-.19-.34h0a2.4,2.4,0,0,0-.59-1.19.61.61,0,0,0-.27-.61l-.09,0v0l.06,0-2-5.61a6.28,6.28,0,0,0-.47-2l-.06-.28a.2.2,0,0,0,0-.15h0v0a8.81,8.81,0,0,0-.39-2.6l-.06-.66a4.79,4.79,0,0,0-.09-1.07c0-.25,0-.5,0-.76a20.82,20.82,0,0,0-.27-4.39.43.43,0,0,0,0,.11c0-.21,0-.42,0-.63h0a5.9,5.9,0,0,0-.17-2.4v0h0a27.75,27.75,0,0,0-.24-5.07v-.1h0a10.54,10.54,0,0,0-.1-3.12s0,.08,0,.12h0a.81.81,0,0,0,0-.11,10.12,10.12,0,0,0-.08-3l0,0v0h0a.28.28,0,0,0,0-.22l0,0V74a.56.56,0,0,1,0-.08v-.19l0,0c0-.59.11-1.19.11-1.78a10.54,10.54,0,0,1-.11-3.63.62.62,0,0,0-.22-.1s0,0,0,0a2.71,2.71,0,0,0,0-.29h0l.08-1.14a.48.48,0,0,1,.42,0,1.92,1.92,0,0,0,0-.89h0a2,2,0,0,1,0,.92c-.14,1.21.3,2.4.1,3.61A13.17,13.17,0,0,1,101,72q1,13.11,2.38,26.16a22.66,22.66,0,0,0,4.11,11.35c6.69,9.11,15,16.06,25.94,19.57,4,1.27,8,2.2,12.16,1.77l.76-.08.19,0a15,15,0,0,0,4-1.05l-.14,0,.09,0-8.21-2.18c.39-.09.8-.15,1.2-.23a54.82,54.82,0,0,0,6.84-1.14c.59-.13,1.18-.28,1.76-.45a2.75,2.75,0,0,0,1.54-.74l.14-.07h-.07a2,2,0,0,0,.2-.21l-4.2-.26a9.09,9.09,0,0,1-4-1.26,33.55,33.55,0,0,0-4.68-2.25l-.41-.19h0c-.35-.3-.84-.43-1.11-.84l.65,0c1,.11,2,.17,2.94.19l1,.06q.47,0,.93.06l.8.05a1.67,1.67,0,0,0,1,.06l.26,0-.15-.07a1.5,1.5,0,0,0,.35-.26,21.35,21.35,0,0,1-3.24-.79l-.56-.21a40.13,40.13,0,0,1-3.55-1.88l-.1-.07a7.88,7.88,0,0,0-2-1.83l-.22-.19a.33.33,0,0,0-.17-.14,1.07,1.07,0,0,0-.16-.14.25.25,0,0,0-.2-.14l-.4-.26a36.19,36.19,0,0,0-6-3.45,6.49,6.49,0,0,1-3.52-3,1.06,1.06,0,0,1-.22-.18v0a.85.85,0,0,0,.2.17.81.81,0,0,1,.66,0,.66.66,0,0,1,.15.14l.57.21.06,0,.82.28a3.84,3.84,0,0,0,.94.25,8.72,8.72,0,0,0,.89.16,4.81,4.81,0,0,0,3-.13l0,0h.08l-.16-.09a1.08,1.08,0,0,0-.74-.35,31,31,0,0,1-3-1.62,16.4,16.4,0,0,1-2.59-2.26c-.15-.18-.3-.36-.43-.55a1.2,1.2,0,0,0-.26-.4c-.06-.09-.11-.19-.16-.28s.07-.39.32-.41a23.52,23.52,0,0,1,5.05,1.59c.08.14.2.21.29.12l.09,0-.05-.08h0c.1-.18,0-.35-.22-.47v-.06a25.16,25.16,0,0,0-4.2-5.69h0a2.08,2.08,0,0,0-.91-.92h0l0,0a.31.31,0,0,0-.25-.23l0,0-.06-.06a.23.23,0,0,0-.18-.17h0a5.21,5.21,0,0,0-2-1.36l-.12-.05a12.39,12.39,0,0,0-1.26-.64l0,0a6.34,6.34,0,0,1-2.39-2.94l0,0a.67.67,0,0,0-.18-.56v0a0,0,0,0,1,0,0s0,0,0,0h0a10.58,10.58,0,0,0-.14-1.48c0-.28,0-.57-.06-.86a5.6,5.6,0,0,1,.12-.59l.11-.19c1.51,2.18,3,4.32,5.58,5.8a.3.3,0,0,0,.11.06l.27.16a.78.78,0,0,1,0-.14h0c.08-.06,0-.16,0-.21h0a14.69,14.69,0,0,0-1.13-2.79l-.07,0v0l0,0a1.75,1.75,0,0,0-.43-1s0,0,0,0a5.05,5.05,0,0,0-.53-1.4c-1.27-3.12-2.84-6.09-4.34-9.1a3,3,0,0,1-.73-1.1,1.05,1.05,0,0,1-.05-.19,1.63,1.63,0,0,1,1,.93l4.54,4.7.08-.06,0,0h0c.21.22.32.1.35-.13a.7.7,0,0,0-.26-.64h0a.42.42,0,0,0,0-.25.63.63,0,0,0-.22-.63.44.44,0,0,0,0,.16h0a.44.44,0,0,1,0-.16c-.24-.72-.46-1.44-.74-2.14a27.57,27.57,0,0,0-2.62-5.58c-.28-.47-.57-.93-.89-1.39h0a5.58,5.58,0,0,0-1.73-2.18l0,0c-.38-.42-.78-.83-1.21-1.22a23.36,23.36,0,0,0,2.73.22l.65.06v-.1l.3-.05a2.62,2.62,0,0,0,1.63-.56l-.26-.07.06,0c-.71-.21-1.45-.39-2.14-.65l-.34-.13a1.46,1.46,0,0,0-.41-.16c-.15-.07-.29-.15-.43-.23l-.12-.07a5.29,5.29,0,0,1-1.21-1c-.21-.48-.59-.93-.16-1.45a1.89,1.89,0,0,1,.8-.25l.57,0,2.79.16,2.41.35.16,0,1.37.2,0,0h0a17.06,17.06,0,0,0-4.19-5c2.83.26,5.4.74,8.11-.2l-.7-.41c-.43-.23-.84-.48-1.25-.73-1.58-1-3.12-2.16-4.61-3.34-.34-.3-.69-.6-1-.91l0,0-.76-.74a0,0,0,0,0,0,0l-.1-.1a33.09,33.09,0,0,0-3.3-3.89l0,.1-.07-.08v0h0a.4.4,0,0,0-.29-.33.41.41,0,0,0-.3-.32h0a10.25,10.25,0,0,0-1.85-1.93q-1.57-1.56-3.29-3a1.32,1.32,0,0,0-.85-.66l-.74-.57a19.5,19.5,0,0,0-3.52-2.36l-.08-.06c-.29-.18-.59-.35-.88-.51a4.36,4.36,0,0,0-1.44-.73l-.43-.18a.68.68,0,0,0-.52-.2l-.11,0-.06,0a13.61,13.61,0,0,0-1.45-.46l-.24-.07a.53.53,0,0,0-.12,0l-.06,0a18.3,18.3,0,0,0-2.93-.58c-.81-.14-1.62-.27-2.43-.37a10.75,10.75,0,0,0-2.82-.31l-.83-.09-.21,0L91,37.18c0-.42.42-.67.5-1.06l0,0h0l0,0,2.72-4.35c.25-.39.38-.59.37-.71l.18-.29c-.41,0-.79.07-1.18.12a4.06,4.06,0,0,0-.7.08,18.62,18.62,0,0,0-3.74.94,10.1,10.1,0,0,0-2.1.93,15.28,15.28,0,0,0-4.13,3.29,2.2,2.2,0,0,1-.25.17,6.68,6.68,0,0,0,2.61.82.77.77,0,0,1,.31.22,14.88,14.88,0,0,1-2.1.18c-.71-.09-.8-.16-1.26-.85v0a.12.12,0,0,0-.08-.11l0,0c0-.06-.18-.06-.27-.06v0h-.1l0,.67.09,0a.43.43,0,0,1-.17.19l-.71,0h0l-.35,0a7.83,7.83,0,0,0-1.08-.3,2.55,2.55,0,0,0-1.13-.13,7.51,7.51,0,0,0-1.57.07l-.4,0-.36,0a26.63,26.63,0,0,1-4.19.07,3.64,3.64,0,0,1-1.71-.43,3,3,0,0,1-.62-.55A4.15,4.15,0,0,0,68.71,35a3.44,3.44,0,0,0,.57,1.84A6,6,0,0,0,70.86,39a2.26,2.26,0,0,1-1.14.58,21.85,21.85,0,0,0-5.4,2.81l-.17.12a19.49,19.49,0,0,0-2,1.63c-.87.84-1.85,1.54-2.73,2.38a2.34,2.34,0,0,1-1.75.67H54.53a6.27,6.27,0,0,0-1.37,0c-1.62,0-3.24,0-4.86,0-2.53,0-4.39,1.43-5.89,3.37a2,2,0,0,0-.36,1,17.86,17.86,0,0,0,.12,6.6,6.2,6.2,0,0,0,6,5.13,38.6,38.6,0,0,0,5.89,0c.28,0,.54,0,.8,0h.35a7.42,7.42,0,0,1,.84.1h0a9.87,9.87,0,0,1,5,2.79A22.54,22.54,0,0,1,63,68.36a26.4,26.4,0,0,0,2.84,3.14,7.72,7.72,0,0,0,5,2.19l.41,0a1.77,1.77,0,0,1,1.5,1.48,15.66,15.66,0,0,1,.12,8.21A33.37,33.37,0,0,1,68,94.52c-2,3-4,6-6.09,9a74.52,74.52,0,0,0-5.78,9.38c-3.76,7.79-4.46,16.08-3.5,24.49A68.81,68.81,0,0,0,59.05,159a2.09,2.09,0,0,1,0,2.08,89.35,89.35,0,0,1-5.79,9.56,41.24,41.24,0,0,1-10.75,10.93c-1.38.93-2.67,2-4,3a27.41,27.41,0,0,0-5.29,5.36,9,9,0,0,0-.46,10.73,104.62,104.62,0,0,1,8.54,18.14A24.74,24.74,0,0,1,43,225a26.58,26.58,0,0,1,.26,6.73c-.31,2.14-.78,4.27-1.16,6.4-.2,1.1-.37,2.23-.56,3.36a4.6,4.6,0,0,0,1.19,0,.82.82,0,0,0,.7-.67,23.15,23.15,0,0,0,.7-2.24c.11-.22.22-.43.34-.64a.41.41,0,0,1,0,.09c-.08,1.3-.14,2.37-.21,3.44a13.66,13.66,0,0,0,4.08-1.38l.13-.07a13.92,13.92,0,0,0,1.89-1.23l.06-.05a1.26,1.26,0,0,0,.24-.22,5,5,0,0,0,.5-.53,2.27,2.27,0,0,0,.74-1V237a.84.84,0,0,0,.3-.84,4.62,4.62,0,0,0,.16-2.39l-.08.1v0l0,0a4.42,4.42,0,0,0-.71-2.79h0a10.78,10.78,0,0,1-1-2.51c0,.06-.06.09-.09.14v0a.5.5,0,0,0,.1-.14,12.21,12.21,0,0,0-.15-2.7,7.17,7.17,0,0,0-.06-2.77l-.1.28V223l0-.05a.3.3,0,0,0,0-.26,5.49,5.49,0,0,0,0-1.94c0-.08,0-.16,0-.23a60.47,60.47,0,0,0-.09-7.85h-.1c.18-2,.35-4.1.44-6.13,0-.08-.07-.17-.12-.25a.16.16,0,0,1,0-.07.26.26,0,0,0,0-.21,1.42,1.42,0,0,0-.23-1.2h0a.36.36,0,0,0-.17-.33c-.08-.27-.17-.53-.27-.79.15-.6-.23-1.05-.44-1.51a23,23,0,0,0-2.89-4.55s0-.05,0-.07h0a.35.35,0,0,0-.22-.25l-.07.07v0s0,0,0,0h0l.07-.07a1.14,1.14,0,0,0-.6-.62.41.41,0,0,0-.05.09l-.06-.05.09-.15a7.81,7.81,0,0,0-5.21-2.19,1.73,1.73,0,0,1,1.3-.19A8.42,8.42,0,0,1,49,197.55a1.3,1.3,0,0,0,1.68.5c4.38-1.35,8.77-2.64,13.15-3.93a2.75,2.75,0,0,1,.36-.15,3.3,3.3,0,0,0,.62-.15,4,4,0,0,1,.6,0,1.35,1.35,0,0,1,.13.89q.16,9.38.3,18.74c0,2.63.24,5.26,0,7.87-.83,11.24-1.79,22.44-2.68,33.64a13.36,13.36,0,0,1-.68,3.37q-1.6,4.56-3.14,9.14a7.09,7.09,0,0,1-1,1.93,45.51,45.51,0,0,0-3.72,5.88,4.49,4.49,0,0,0-.73,2,19.45,19.45,0,0,1,2.16,0,1.83,1.83,0,0,0,1.85-1l.09-.15c.37-.51.75-1,1.14-1.52a7.17,7.17,0,0,1,.67-.68c0,1.21-.65,2.12-.73,3.31,2.45-.24,4.84-.47,7.23-.68a1.06,1.06,0,0,0,.84-.56v0a1.47,1.47,0,0,0,.1-.13,8.68,8.68,0,0,0,.46-.85,11,11,0,0,0,.92-2.29,1.74,1.74,0,0,0,.16-.75,6.55,6.55,0,0,0,.06-1.66,5,5,0,0,0-.14-1.21,9.09,9.09,0,0,1,.44-3.94l.18-.64a18.5,18.5,0,0,0,.89-3l.54-1.83c.11-.38.23-.75.33-1.13.2-.69.41-1.38.61-2.07a14.94,14.94,0,0,0,.89-2.9l.21-.7a5.55,5.55,0,0,0,.47-1.48c0-.14.09-.28.13-.42a10.9,10.9,0,0,0,.84-2.49s0,0,0-.05a.88.88,0,0,0,0-.15,1.64,1.64,0,0,0,.26-.77c.22-.66.45-1.31.68-2l2.38-6.37c.08-.19.17-.39.26-.58a1.59,1.59,0,0,0,.56-1.13c.27-.5.55-1,.86-1.48a9.56,9.56,0,0,0,1.7-3.62,28.7,28.7,0,0,0,.89-5.28h0a44.06,44.06,0,0,0,.68-7.16l0-.07a.37.37,0,0,0,0-.29.2.2,0,0,1-.06-.07v0l0,0c0-.15.05-.32.07-.5a.13.13,0,0,1,.06,0v-.31a.07.07,0,0,0-.08.08v-.11h.07c.21-.46,0-1,.09-1.43.59-1.79.35-3.67.59-5.49h0v-.3h0v0l0,0a20.14,20.14,0,0,0,.54-4l.09-.5c.35-.32.29-.76.34-1.24h0c0-.27.06-.54.08-.78h0a.29.29,0,0,0,0-.09l0,0c.37-.22.3-.58.3-.93h0a1.91,1.91,0,0,0,.1-.52h0a1.56,1.56,0,0,0,.36-1.16c.1-.28.21-.56.32-.83a.25.25,0,0,0,0-.07,23.64,23.64,0,0,1,1.91-3.71,10.86,10.86,0,0,0,1.31-1.85,110.43,110.43,0,0,1,10.48-12.07,4.6,4.6,0,0,1,2.33-1.28,39,39,0,0,1,18.84.45,12.09,12.09,0,0,0,3.44.4,4.43,4.43,0,0,0,2.77-1,.84.84,0,0,0,.38-.34q.18-.2.36-.42a4.74,4.74,0,0,0,.39-.6,3.73,3.73,0,0,0,.51-2.13h-.09a1.72,1.72,0,0,0-.2-1.11c-.15-.26-.35-.38-.61-.2a1.11,1.11,0,0,0-.34.11,2,2,0,0,1-1.46.19,2,2,0,0,1-1.11-.89,2.55,2.55,0,0,1,.69-2.44.91.91,0,0,1-.24-.2,2.22,2.22,0,0,1,.49-.3,4.1,4.1,0,0,1,.86-.27,4.2,4.2,0,0,1,5,3.3,6.14,6.14,0,0,1-.22,2.89c-.2.46-.41.91-.64,1.35a4,4,0,0,1-.22.34,7.66,7.66,0,0,1-1.53,1.73,8.31,8.31,0,0,1-2,1.17.3.3,0,0,1,0,.08q-.34.15-.69.27a44.69,44.69,0,0,1,4.7,2.46,4.65,4.65,0,0,0,1.25.6,4.71,4.71,0,0,0,3.19-.17,4,4,0,0,0,2.24-1.92,10.12,10.12,0,0,0,1-2.34h0c.78-1.69,1.56-3.37,2.43-5.09l0,0a3,3,0,0,0,.59-1.12h0l0,0a.26.26,0,0,0,.07-.21v0c0-.09.09-.18.14-.26.34-.64.71-1.26,1.09-1.88h0a.18.18,0,0,0,.1-.17s0,0,0,0h0s0,0,0,0a.41.41,0,0,0,.27-.38s0,0,0,0l.25-.36a18.34,18.34,0,0,0,1.39-1.92,31.7,31.7,0,0,1,2.6-2.95,11.3,11.3,0,0,1,6.73-3.44,1.93,1.93,0,0,0,.84-.3,4.72,4.72,0,0,1,2-.77,2,2,0,0,0,.9-.32c.51,0,.63-.44.66-.91l.12-.33c0-.11.08-.22.12-.33a8.78,8.78,0,0,1,.82-1.26,3.44,3.44,0,0,1,.27-.27,4,4,0,0,1,1.16-.68.56.56,0,0,0,.18-.07,4,4,0,0,1,4.25,1.18,10.73,10.73,0,0,1,.84,1.05,15,15,0,0,0,6.33,5.44c.12,0,.12.11.12.34a4.21,4.21,0,0,1-.5,0,16.15,16.15,0,0,0-5.34-.86,4.31,4.31,0,0,0-3,1,4,4,0,0,0-.71.71l.37-.1h0a.34.34,0,0,0,.44-.13l0,0h0l.1,0c3.25-.9,5.1-.76,7.27.47-.36.22-.77.35-1.12.6l-.61.3a11.16,11.16,0,0,0-1.87,1.07,32.62,32.62,0,0,0-4.95,3.66,7.9,7.9,0,0,1-1.48,1,5.77,5.77,0,0,1-.56.27l-.24.09-.31.11a1.77,1.77,0,0,0-1.1.24l-.14,0h-.21a12,12,0,0,1-2.81-.45l-.14-.06v0h-.06a6.42,6.42,0,0,1-.68-.37.55.55,0,0,0-.11-.1s0,0,0,.05h0s0,0,0-.05l-.27-.22,0,.05-.12-.09a.53.53,0,0,0,.06-.1,1.61,1.61,0,0,0-.66-.61l-.26-.26h0l-.19-.24a4.8,4.8,0,0,0-.77-1.29l0,0a1,1,0,0,0-.27-.65,1.06,1.06,0,0,1,0,.19v0a.5.5,0,0,0,0-.12,2.34,2.34,0,0,0-.24-1.19H152v0H152l.07-1.79h0c.08-.25.36-.5.15-.79l-.07-.05a0,0,0,0,1,0,0h0c-.21-.15-.48,0-.7.12a4.33,4.33,0,0,0-1,.52,8.38,8.38,0,0,0-2.63,2.07,25,25,0,0,0-5.05,8c-3.62,8.84-4.27,17.75-.62,26.75a72.94,72.94,0,0,0,20,28c2.5,2.19,5.08,4.3,7.48,6.59a2.22,2.22,0,0,1,.89,1.5,31.76,31.76,0,0,1-.35,9.18,12.11,12.11,0,0,1-3.17,6.41,11.36,11.36,0,0,0-1.39,1.78,62.38,62.38,0,0,0-7.73,17A3.39,3.39,0,0,0,158,279a1.83,1.83,0,0,1-.15,2c-1.59,2.86-3.13,5.74-4.67,8.63a2.9,2.9,0,0,0-.57,1.27,1.55,1.55,0,0,0,.84.56c1.16.45,1.42.43,2-.48l.09-.08c.61-.93,1.17-1.89,1.75-2.83l.62-1.16c.09-.12.17-.25.27-.36a5.93,5.93,0,0,1-.84,2.34c-.19.55-.38,1.12-.57,1.69-.37,1.09-.38,1.11.7,1.41a23.06,23.06,0,0,0,2.64.63,15.19,15.19,0,0,0,4.71.27l.59-.07.39-.05a2.24,2.24,0,0,0,1.29-.59l.22-.13v-.1a2.32,2.32,0,0,0,.53-1.3.71.71,0,0,1,.15-.08l.13-1.49h0v0h0a14.49,14.49,0,0,0,.42-5.93,5.3,5.3,0,0,1,.28-2.62c.81-2.2,1.58-4.43,2.37-6.64a.27.27,0,0,0,0-.09h0s0,.06,0,.08a9.18,9.18,0,0,0,1.07-2.71h0a1.16,1.16,0,0,0,.35-.84l0,0h0l0,0a1.16,1.16,0,0,0,.38-.89l0,0v0h0a42.07,42.07,0,0,0,2-4.73l0,0,0-.05a.19.19,0,0,0,.08-.19l0,0v0a3.26,3.26,0,0,0,.68-1.53h0l.69-1.49,1.75-3.45c.21-.41.44-.81.67-1.21h0a27,27,0,0,0,1.81-3l.41-.6a3.9,3.9,0,0,0,.79-1.1l0-.05a.23.23,0,0,0,.14-.16l0,0a.4.4,0,0,0,.14-.26.05.05,0,0,1,0,0,.31.31,0,0,0,.21-.27l0,0a.65.65,0,0,0,.05-.31.26.26,0,0,1-.17-.14.37.37,0,0,0,.15.13.29.29,0,0,0-.22-.34.38.38,0,0,0-.25-.34.65.65,0,0,0-.36-.54,1.57,1.57,0,0,0,0,.23l0,0a1.25,1.25,0,0,1,0-.21.18.18,0,0,0-.1,0h0a.18.18,0,0,1,.1,0,1,1,0,0,0-.51-.67,6.78,6.78,0,0,0-1.14-1.57h0a17.79,17.79,0,0,0-2.46-3.28h0a4.1,4.1,0,0,0-1.09-1.52h0v0h0l-.32-.59a.52.52,0,0,1-.28-.63h-.39s0,0,0-.05c.45-.1.65.19.84.5l.49.34c3.34,2.51,6.5,5.25,9.95,7.62a9.57,9.57,0,0,1,2.17,2.09,4.66,4.66,0,0,1,1,3.81c-.2,1.05-.39,2.09-.64,3.11q-1.35,5.36-2.72,10.69a4.65,4.65,0,0,0,.14,3,2.68,2.68,0,0,1-.17,2.4c-2.25,4.67-4.44,9.36-6.64,14.06a.89.89,0,0,0-.08.17,1.4,1.4,0,0,0,.81,1.81c.51.27.79.31,1.09,0,.21-.1.39-.35.65-.8.65-1.11,1.29-2.24,1.93-3.37l0-.07.44-.7h0c-.35,1.48-.59,2.71-.93,3.91-.48,1.67-.66,1.72,1.31,1.8,3.1.12,6.17,0,9-1.75l.05.06a10.3,10.3,0,0,0,.21,2.93,2.26,2.26,0,0,0,2,1.85c.84,0,1.49-.58,1.93-1.69a9.77,9.77,0,0,0,.42-4c0-.18,0-.36,0-.54,0-2,.11-3.94,0-5.88a24.83,24.83,0,0,0-.22-4.48l0,0v-.24l-.07,0h0a.52.52,0,0,1,.11-.07,7.18,7.18,0,0,0-.12-2.53.53.53,0,0,0-.06.1v0h0c0-1.78,0-3.56-.07-5.36l-.11-.14v0l0,0-.31-.42-.07.38a.33.33,0,0,0-.12.22,14.43,14.43,0,0,0-.51,2.52,3.87,3.87,0,0,1-.5,1.94c0-.1,0-.21,0-.31.06-.51.11-1,.16-1.53l.11,0,.18-2.05h.06a.78.78,0,0,1,0-.22l.09-.45a1.16,1.16,0,0,1,.18-.27c0-.18.08-.38.13-.56l0-.18c.05-.14.1-.28.16-.43h.1a1.88,1.88,0,0,1,.07-.58v0a9.84,9.84,0,0,0,.45-1.52l.15-.41a44,44,0,0,1,3.17-5.22c1.25-2,2.67-3.89,3.77-6h0a1.72,1.72,0,0,0,.61-.91l0,0h0l0,0a.13.13,0,0,0,.08-.17s0,0,0,0a.49.49,0,0,0,.25-.37s0,0,0,0v0a.65.65,0,0,0,.34-.54h0v0a.69.69,0,0,0,.34-.56h0V252h0s0,0,0,.06a78.16,78.16,0,0,0,5.15-8.62,2.08,2.08,0,0,0-.33-2.62l-.22-.3h0a.32.32,0,0,0-.24-.33h0l-.12,0h0l.12,0a1,1,0,0,0-.57-.65h0a3.46,3.46,0,0,0-1.06-1h-.11l-.06-.07-.08-.06.25,0a7.27,7.27,0,0,0-1.83-1.58h-.11a3.93,3.93,0,0,0-1-.82s0,.09,0,.13h0a1.34,1.34,0,0,0,0-.2,19.85,19.85,0,0,0-3.47-2.43l0,0,0,0a2.48,2.48,0,0,0-1.11-.89h0v0h0a.43.43,0,0,1,0,0l-.07-.07a.28.28,0,0,0-.1-.09l-.13-.13,0,0a3.65,3.65,0,0,0-1.11-1h0L197,227.49l-.05,0h0l.05,0a1.13,1.13,0,0,0-.53-.68s0,0,0,.07l-.08-.11h.1a1.52,1.52,0,0,0-.61-.84l-.05.09v0l.06-.11-.26-.36a.09.09,0,0,0,0,.05.14.14,0,0,0-.08,0l0,0a.18.18,0,0,1,.13,0,2.34,2.34,0,0,0-.73-1l-.06.05h0l.1-.08a.54.54,0,0,0-.16-.26h-.07a1,1,0,0,0-.43-.58l0,0v0l.05-.08h-.06a.64.64,0,0,0-.3-.45l0,0h0L194,223a22,22,0,0,0-1.28-2.27l-.08,0a22.69,22.69,0,0,1-1.43-4.48,5.56,5.56,0,0,1,.26-3.3,3.06,3.06,0,0,1,.51-.63,11.74,11.74,0,0,0,1.32-1.11c1.41-1.18,2.79-2.41,4.11-3.7.5-.47,1-1,1.45-1.45.33-.33.66-.67,1-1h0c.69-.73,1.36-1.48,2-2.24a16.7,16.7,0,0,0,2.6-3.15c.18-.23.35-.47.52-.71a28.51,28.51,0,0,0,3.07-4.41c.35-.59.69-1.19,1-1.79a18.88,18.88,0,0,0,2-4.68c.09-.25.19-.51.27-.76.21-.74.37-1.49.51-2.25a6.55,6.55,0,0,0,.34-2.24,4.44,4.44,0,0,1,.09-1l.37.34a27,27,0,0,0,9.57,8.61,43.69,43.69,0,0,0,14.63,5c6.91,1.08,13.85,1.5,20.76.24,12.06-2.21,21-8.3,26.87-18.13a22.61,22.61,0,0,0,2.4-4.6c.12-.26.23-.53.34-.79a16.46,16.46,0,0,0,.84-2,14.93,14.93,0,0,0,1-4.37,1.45,1.45,0,0,0,.07-1.22c0-.28,0-.55,0-.82.1-1.58.19-3.15.28-4.72a.13.13,0,0,1,0-.06v-.06a10.89,10.89,0,0,0,.39-3.08c0-.16,0-.32.07-.48h0c0-.18.06-.37.1-.57v0A6.43,6.43,0,0,0,290.37,152.34Zm-134.59,27a1.5,1.5,0,0,1,.69.13c-.41.5-.85.54-1.69.15l.28-.11C155.3,179.44,155.54,179.36,155.78,179.31Zm-114,19.28c.08-.26.21-.51.3-.77a5.89,5.89,0,0,1,.47-.85v0h0a3.42,3.42,0,0,1-.25,2.31.47.47,0,0,1,0,.1.62.62,0,0,1-.39,0l-.06.13a.25.25,0,0,1-.11-.12l0,0a1.35,1.35,0,0,1,0-.53Zm197.88-12c-.63-.07-1.25-.15-1.88-.24-.47-.08-1-.15-1.42-.25h0a47.29,47.29,0,0,1-8-2.35l-.35-.14v0a1.1,1.1,0,0,0-.84-.36H227l-.09,0,.15,0c-1.92-1-3.82-2.13-5.66-3.32l-.08,0a12.8,12.8,0,0,0-1.92-1.61l-.06,0,0,0,.06,0a29.17,29.17,0,0,1-3.65-4.2.26.26,0,0,1-.21-.29.41.41,0,0,1-.13-.23,2.44,2.44,0,0,1-.84-1.33l-.3-.29,0,0v0h0a.21.21,0,0,0,0-.06l.05,0,0,0,.31.3h.19a1.6,1.6,0,0,1,.28.4,50.3,50.3,0,0,0,14.69,9.61,40.37,40.37,0,0,0,9.68,2.69,2.42,2.42,0,0,0,.75.1c.76.1,1.52.19,2.28.24a22.45,22.45,0,0,0,7.11-.56l.32-.07.48-.14a19.47,19.47,0,0,0,6.07-2.88l.54-.38.05,0h0l.14-.11a.31.31,0,0,0,0,.1,20.71,20.71,0,0,0,5.22-5.05.42.42,0,0,0,0-.1,1.1,1.1,0,0,0,.45-.57l0,0a.22.22,0,0,0,.08-.2v-.12l0,0v.16a.47.47,0,0,0,.31-.39h0a.68.68,0,0,0,.35-.52l-.08,0,0,0h0v-.05h0v.09a.33.33,0,0,0,.28-.34h-.12l0,0h.13a5.79,5.79,0,0,0,1.07-1.68h0a1.85,1.85,0,0,0,.55-.85.38.38,0,0,0,.09-.27s0,0,0,0l0,0,0,0a.71.71,0,0,0,.32-.58.67.67,0,0,0,.32-.58l0,0a.29.29,0,0,0,.18-.22v0c.06-.16.11-.33.17-.49v-.05h0v0a.84.84,0,0,0,.33-.67h0v0a.59.59,0,0,0,.29-.59h0a.63.63,0,0,0,.29-.59.3.3,0,0,0,.09-.24V167h0v.09a.74.74,0,0,0,.29-.65h0a.33.33,0,0,0,.07-.23v0a1.14,1.14,0,0,0,.29-.88v0h0a1.19,1.19,0,0,0,.35-.84h0c.35-.32.32-.78.43-1.19a13.26,13.26,0,0,0,1-3.32l-.1,0v0l.1,0a2.82,2.82,0,0,0,.09-.57h0V159a.5.5,0,0,0,.08-.26h0a1.22,1.22,0,0,0,.27-.92l-.09-.1h0l.09.11a.32.32,0,0,0,.05-.25,15.66,15.66,0,0,0,.55-4.86h0a31.66,31.66,0,0,0-.32-4.86h0a39.94,39.94,0,0,0-.54-5.77h-.08V142h.16a21.51,21.51,0,0,0-.84-5.52h0l0-.5a1,1,0,0,0-.18.1h0a.75.75,0,0,1,.15-.09.71.71,0,0,0-.17-.68l0,0a16,16,0,0,0-1.48-5h0a1.42,1.42,0,0,0-.31-.84l0,0a3.63,3.63,0,0,0-.76-1.58l-.1.09h0l.1-.1a.8.8,0,0,0-.29-.57h0a2.45,2.45,0,0,0-.84-1.28l-.09.14,0,0,.1-.15a12,12,0,0,0-1.73-2.16s0,0,0,.08v0l0,0,0,0a.1.1,0,0,1,.08,0,19.94,19.94,0,0,0-2.42-2.93h-.06l-.24-.31-.06.06,0-.07,0,0a22.13,22.13,0,0,0-2.25-3h0l0,0h0l0,0v0h0l0-.06,0,0a39.74,39.74,0,0,1-3.37-6l-.07-.18v0h0c0-.13-.07-.27-.1-.4-.08-.47-.15-.94-.21-1.42-.27-.25-.23-.61-.28-.93h.06c0-.24,0-.51.08-.7a.56.56,0,0,1,0-.12l.27,1.26a13.42,13.42,0,0,0,5,7,13.33,13.33,0,0,1,3,3.37A63.36,63.36,0,0,1,274.38,145a30.92,30.92,0,0,1-.45,12.74,80.12,80.12,0,0,1-4.66,14.66,36.27,36.27,0,0,1-2.23,4.11,20.77,20.77,0,0,1-13,9.74l-3.91.59c-.71.06-1.42.1-2.14.13a14.69,14.69,0,0,0-2.89.05c-.53,0-1.05,0-1.57-.06ZM45.13,51.13l.91-.5a3.91,3.91,0,0,1,.44-.26l.38-.13a2.69,2.69,0,0,1,2.67.57c.88.79.84,1.49-.11,2.18a7.35,7.35,0,0,1-.62.42c-.31-.31,0-.74-.08-1.1.06-1.06,0-1.49-.56-1.5a1.52,1.52,0,0,0-.56,0c-.24.06-.47.15-.7.23a.2.2,0,0,0-.11,0,13.49,13.49,0,0,0-1.84.77c-.08.07-.17.12-.26.19h-.06c-.24-.55.38-.53.45-.84h0l.09-.08Zm61-7.43a1.79,1.79,0,0,1,.65,0,1.88,1.88,0,0,1,.52.38l.13.12a4.3,4.3,0,0,1-.24,6.07,10.24,10.24,0,0,1-2.12,1.43c-.1.09-.1.18-.29.27a1.51,1.51,0,0,1-.37.15.39.39,0,0,1-.12-.25h-.06l0,0h0l.27-.22.09,0,.06-.08.42-.32a14.73,14.73,0,0,0,2-3.09c.21-.6.33-1.29-.19-1.69a.77.77,0,0,0-.85-.09,3,3,0,0,0-.75.4c-.36.23-.71.48-1.06.73l-.07,0q-.6.44-1.2.9a49.56,49.56,0,0,1-4.28,2.91l1.79.84c-.43.29-.9.19-1.36.27h-.08a1.13,1.13,0,0,0-.24.08c-.06.72.6,1.23.75,2.05l0,.07-.37-.18a.82.82,0,0,0-.06-.19l-.43-.06-.15-.07h0l-.42-.2c-.17-.15-.33-.3-.47-.23l-.19-.09c-.34.29-.12.69-.33,1a.16.16,0,0,1-.09,0l-.38-.14a1.2,1.2,0,0,1-.21-.17,6.41,6.41,0,0,0-1.76-1.12,1.8,1.8,0,0,0-1.46-.42h-.12a7.08,7.08,0,0,0-1.22,0l-.9-.12a.85.85,0,0,0-.41-.12A1.79,1.79,0,0,1,89,50.88a6.49,6.49,0,0,1,.76,0l.37,0a8.68,8.68,0,0,0,2.69,0,16.21,16.21,0,0,0,3-.5A14.57,14.57,0,0,0,99.67,49l.77-.42,0,0,.1-.06a.33.33,0,0,0,.22-.16l0,0h0l0,0a.68.68,0,0,0,.53-.3h0a9.56,9.56,0,0,0,2.31-1.68l0,0v0l-.17-.05a7.67,7.67,0,0,0-2.29-.69c-.37-.1-.74-.2-1.11-.28a19.06,19.06,0,0,0-2.48-.6l-3.37-.16,0,0-.72,0-.45,0a2.25,2.25,0,0,0-1.36,0l-.94.06h-.7v.05l-1.68.09h-.76l-.06,0-1.08.05c.56-.16,1.13-.29,1.7-.4h.24l.07-.06,1-.17h.83A2.68,2.68,0,0,1,91.48,44c.44,0,.89-.07,1.34-.08.21,0,.43,0,.64,0l.07,0,.59-.06a36.78,36.78,0,0,1,7.11.36l.24,0a8.33,8.33,0,0,0,2.63.12,4.49,4.49,0,0,0,2-.62Zm29.07,74.78a.57.57,0,0,1,.22.43.28.28,0,0,1,0,.09.61.61,0,0,1-.57.66,3.78,3.78,0,0,1-.89.08,39.62,39.62,0,0,1-4.68-.56,1.86,1.86,0,0,0-.34-.06c-.43-.08-.86-.17-1.28-.27a4.45,4.45,0,0,0-1.18-.3c-.44-.11-.87-.24-1.3-.38h0c-.44-.14-.87-.29-1.3-.45a1.82,1.82,0,0,0-.39-.14l-.49-.19a1.35,1.35,0,0,0-.58-.24l-.2-.08-3.71-1.94c-.31-.19-.62-.38-.93-.59a.21.21,0,0,0,0-.08.62.62,0,0,1-.24-.08l-.15-.1a.8.8,0,0,1-.18-.19.46.46,0,0,1-.35-.31.35.35,0,0,1-.24-.15l-.24-.22a.34.34,0,0,1-.31-.28,2,2,0,0,1-.84-.68,2.15,2.15,0,0,1-.24-.18l-.15-.14a2.61,2.61,0,0,1-.24-.23,3.48,3.48,0,0,1-.54-.83,2.61,2.61,0,0,1,1.06.86h0c.89.67,1.83,1.28,2.78,1.87h0s0,0,0,0l.55.32v0l.1,0a37,37,0,0,0,4.27,2.14v0a.18.18,0,0,0,.2.08l0,0,.94.38h0l.54.22.66.17a1.61,1.61,0,0,0,.49.13c.31.08.62.17.93.24a2,2,0,0,0,.91.17l.8.15a1,1,0,0,0,.56.09l.59.06a18.13,18.13,0,0,0,3.89.24h.28q.54,0,1.08.06A4.47,4.47,0,0,1,135.19,118.48Zm-31.33-7a58,58,0,0,1,5.14,8.82c.17,0,.24.15.17.31l-.08,0,0,0c-.2-.1-.39-.21-.58-.32l-.09-.07h0a20.8,20.8,0,0,1-1.68-1.29c-.77-.71-1.49-1.47-2.26-2.17,0-.06-.09-.12-.14-.17h.08a.27.27,0,0,0-.25-.26s0,0,0,.06l0,0v-.08a.23.23,0,0,0-.17-.13h0l0,0a.81.81,0,0,0-.35-.5v.07h0a.28.28,0,0,1,0-.09h.05a.93.93,0,0,0-.58-.61c0-.06-.09-.12-.13-.19a5.86,5.86,0,0,0-.72-1.26c-.17-.3-.36-.59-.53-.89a1.58,1.58,0,0,1,0-2,1.1,1.1,0,0,1,.38-.29,1.13,1.13,0,0,1,1.09.28A3.51,3.51,0,0,1,103.86,111.52Zm64.84,23.83c.74-.15,1,.28,1.32.84.24.4,1,.57.84,1.13a3.87,3.87,0,0,1-1.3,2l-.09,0a2.79,2.79,0,0,1-2.43-.79c.16-.25.55-.1.73-.37-.16-.11-.35-.08-.45-.33s.16-.29.35-.33h0a.39.39,0,0,0,.21,0c.14,0,.28,0,.35-.05a.29.29,0,0,0,.16-.11c-.44-.37-.93-.05-1.24-.43.33-.21.93.17,1.07-.45-.41-.51-1,.36-1.37-.27a1.64,1.64,0,0,0-.16.28v-.06a1.81,1.81,0,0,1,.17-.29A.57.57,0,0,1,167,136,4.17,4.17,0,0,1,168.7,135.35Zm29.18,98.15a3.31,3.31,0,0,1,0-.54c.38,0,.6.31.85.57,1.17.92,1.69,2.45,2.85,3.44a.75.75,0,0,1-.21,1.16,1.41,1.41,0,0,1-.22.06c-.63.09-.8-.45-1.07-.85l0,0v0a.41.41,0,0,0,0-.16h0l-.05-.12.09,0a4.78,4.78,0,0,0-1.43-2.5l0,.06-.25-.32h-.05l-.06-.09h.14a1.22,1.22,0,0,0-.5-.68h-.14s0,0,0-.05Zm-10.22,38.13c.14.41.5.76.37,1.27-.43-.1-.39-.5-.44-.83-.2-.32-.37-.65-.17-.95C187.57,271.25,187.59,271.46,187.66,271.63Zm-31-91.14s0,0,0,0a.22.22,0,0,1,0,.25l-.73.23,0,0c-.22-.06-.49-.07-.56-.35a2.47,2.47,0,0,1,.69-.29A1.31,1.31,0,0,1,156.65,180.49Zm-35.54-74.82c.72.29,1.45.57,2.19.83l.07,0,.33.15.13.07a1.05,1.05,0,0,1,.32,1.45.83.83,0,0,1-.33.32,2.6,2.6,0,0,1-1.26-.43h0a7.12,7.12,0,0,0-2.3-1.35l-.13-.07a2.6,2.6,0,0,0-1-.55l-.51-.29a19,19,0,0,1-2.54-1.69,7.31,7.31,0,0,1-.93-.46c-.19-.13-.36-.26-.55-.38h0l-3.06-2.5-.11-.1a1.08,1.08,0,0,0-.57-.56l0,0a.29.29,0,0,0-.23-.26l-.07-.08c-.63-.84-1.25-1.72-1.88-2.54h0c-.11-.28-.21-.56-.32-.85l-.25-.32c0-.07-.05-.14-.08-.2a2.44,2.44,0,0,0-.4-1.08v-.06h0a1.47,1.47,0,0,0,.05-.29,1.74,1.74,0,0,1,.61,1v0a20.73,20.73,0,0,0,8,8l.52.4,1.3.56C119.06,104.87,120.07,105.29,121.11,105.67ZM112,109.21a.56.56,0,0,1-.65.46h-.09l-.07,0a1.63,1.63,0,0,1-.21-.78.64.64,0,0,0-.16.17v0a.53.53,0,0,1,.29-.39,1.63,1.63,0,0,1,.48,0A.55.55,0,0,1,112,109.21ZM164.61,279.3c-.13-.11-.16-.28-.06-.54s.19-.45.3-.68a.84.84,0,0,1,.38-.31,1.92,1.92,0,0,1-.11,1.19c-.07.15-.15.29-.21.44A.76.76,0,0,0,164.61,279.3Zm1.08.56a2.28,2.28,0,0,1-.3-.36l-.4-.07h0l-.06,0,.39.07.91-1.11.15-.14a.75.75,0,0,1-.09.15h.37a1.36,1.36,0,0,1-.28.65C166.18,279.32,166.07,279.88,165.69,279.86Zm-6.07-55h0l0,0h0Zm.3.35,0,0a.34.34,0,0,0-.21-.3l0,0h0s0,0,0,0a1.3,1.3,0,0,0-.56-.91l0,.05h0s0,0,0,0a.7.7,0,0,0-.29-.61h0s0-.05,0-.07a3,3,0,0,1,.23-1.56,1.18,1.18,0,0,1,.28-.2,1.22,1.22,0,0,1,1.4.23,3.25,3.25,0,0,1,.63.84,29.61,29.61,0,0,1,2.68,8.72l-3.73-5.43,0,0A.87.87,0,0,0,159.92,225.19Zm-12.83-46.83.81-.71a2.85,2.85,0,0,1,.31-.12h.07a2.33,2.33,0,0,1,1.05,0,2.06,2.06,0,0,1-.52,4.06,2.35,2.35,0,0,1-1.38-.52,1.67,1.67,0,0,1-.23-.23.17.17,0,0,1,0-.07,3.32,3.32,0,0,1-.17-2.28Zm9.85,3.27a.39.39,0,0,1,.2.16.2.2,0,0,1,0,.19c-.55.58-1.35.55-2.09.7a4.07,4.07,0,0,1,.7-.68,3.74,3.74,0,0,1,.85-.36h.31Zm32.55-10,.06,0a4,4,0,0,0-1.76-1,3.31,3.31,0,0,0-1.4-.64l-.09,0s0,0,0,0c-.4-.43-1.12-.31-1.54-.81,2.34-.79,4.48-1.77,7-1.27l-.24-.22.4-.1a4.7,4.7,0,0,0-1-.38,1.86,1.86,0,0,0-.59-.15,9.26,9.26,0,0,0-3.59.31l-.58.19c-.4.08-.81.16-1.23.22-.24,0-.48,0-.73,0l2.31-1.76v0h0a.24.24,0,0,0,0,.08,2.06,2.06,0,0,0,1-.8h-.06l0,0h0a.34.34,0,0,1,.08-.09l.12-.11a.43.43,0,0,1,.16-.05,2.18,2.18,0,0,0,.93-.85l.29-.31a.2.2,0,0,0,0-.11h0a.27.27,0,0,1,0,.09l2.24-2.45.07,0a.31.31,0,0,0,.32-.22s0-.06,0-.09a4.34,4.34,0,0,1,3-.71c.28.07.54.15.8.24a3.9,3.9,0,0,1,2.26,2.55,1.8,1.8,0,0,0,.6,1,1.43,1.43,0,0,0,.79.4l.14,0a5.87,5.87,0,0,1,4.63,5A6.27,6.27,0,0,1,198,176.7c-.49,0-1-.06-1.46-.11a6.69,6.69,0,0,1-.77-.2.61.61,0,0,0-.43-.17,4.41,4.41,0,0,1-.58-.28,2.29,2.29,0,0,0-.59-.38l-.08-.06a.28.28,0,0,0-.25-.23l-.29-.17h0a1.08,1.08,0,0,0-.59-.56h0a2.81,2.81,0,0,0-1.12-1,.33.33,0,0,0-.29-.28l0,0s0,0,0,0l0,0h0l0,0a4.93,4.93,0,0,0-1.44-1.29h0a.65.65,0,0,0-.54-.35h0l0,0ZM63.87,49.53a.67.67,0,0,1,0-.37.8.8,0,0,1,.13-.22,1.2,1.2,0,0,1,.48-.19,2,2,0,0,0,.51-.26.11.11,0,0,0-.06,0h0l.07,0a.84.84,0,0,0,.27,0l0,0h.26v-.05h0v.05l1.21-.13h0a2.75,2.75,0,0,0-.63,3.06c-.07.11-.21.15-.43.13l-.12-.09a.31.31,0,0,0-.21-.16h0L65.19,51l-.26-.16v0l-.84-.91h0A1.25,1.25,0,0,1,63.87,49.53Zm6-1.05-.14-.18h0l.15.17a.28.28,0,0,1,.14-.23,17.19,17.19,0,0,1,2.83.14,6.06,6.06,0,0,1-2.78,3.67.24.24,0,0,1,0-.15c0-.09.11-.18.15-.27l.09-.11a2,2,0,0,0,.08-2.38l0,0A.83.83,0,0,0,69.91,48.48Zm3.92,48.4.32-.6,0,0v-.12a.82.82,0,0,1,.71-.26c.39,0,.82.15,1.14-.12,0,0,0,0,.06,0,0,.33.43.53.43.86,0,.56.15,1-.47,1.4-.47.33-.78.49-1.12.43a.71.71,0,0,1-.18-.08l0,0-.09,0,.15-.06a2,2,0,0,1-1-1.2.75.75,0,0,1-.06-.13v0a1.34,1.34,0,0,0,.07.18.48.48,0,0,0,0-.29l-.06,0v0Zm7.71-19.29h.09l.84.19h0c.89.1,1.78.16,2.68.18a10.61,10.61,0,0,0,3.59-.24q.38-.08.75-.18a.86.86,0,0,0,.23-.06l.53-.17a1.59,1.59,0,0,0,.87-.32h0a2,2,0,0,0,1-.47v0h0a4.31,4.31,0,0,0,.47-.26A.79.79,0,0,0,93,76l.19-.13A4,4,0,0,0,95,73.7a.67.67,0,0,1,.16.19,4,4,0,0,1-1.78,3.63,8,8,0,0,1-3.81,1.27,20.13,20.13,0,0,1-2.18.15,30.84,30.84,0,0,1-5.16-.64v0l-.78-.22a1.47,1.47,0,0,0-.42-.13L81,78l-.32-.08-.73-.26h-.1l-.39-.2.2-.2-.16-.09,2,.46ZM93.86,94.08h0c-.84.25-.13.43,0,.53l0,0v0a.13.13,0,0,1,0,.06,1.16,1.16,0,0,1-.63.85c-.58.17-.86,0-1.48-.53s-.25-1.1.08-1.63c0-.06,0-.11,0-.17a1.66,1.66,0,0,1,.65-.37,3.34,3.34,0,0,1,.88.22A1.19,1.19,0,0,1,93.86,94.08ZM82.92,99.85a5.89,5.89,0,0,1-.58.24h-.65a.72.72,0,0,1-.26-.24l-.09-.1,0,0c-.35-.47-.84-.9-.31-1.53.27-.09.29-.3.29-.51h0l.3-.26a2.6,2.6,0,0,1,1.12.12,1.48,1.48,0,0,1,.4.35A1.4,1.4,0,0,1,82.92,99.85Zm.31-3.18,0,0c0-.05,0-.11,0-.16l.06.08c.23-1.33.59-1.7,1.75-1.68l.11.08,0,0,.09.07A1.73,1.73,0,0,1,86,96.21c-.11.88-.69,1.31-1.8,1.24a1,1,0,0,1-.6-.28A4.26,4.26,0,0,1,83.23,96.67Zm6-15.12.18-.07h0c.18,0,.38.08.48.27a1.86,1.86,0,0,1-.39.1q-.42.16-.84.3a5.07,5.07,0,0,0-.76.22,17.67,17.67,0,0,1-1.92.4,13.51,13.51,0,0,1-3.3-.14,7.38,7.38,0,0,1-.78-.3L81,81.8v0l-.06,0a1.11,1.11,0,0,0-.76-.57l-.3-.27a5.31,5.31,0,0,0-1-1.07h0l.25-.18a23.1,23.1,0,0,0,8,1.85h.17C88,81.57,88.57,81.58,89.19,81.55Zm-4.85,17h0A1.27,1.27,0,0,1,85,98.4a.69.69,0,0,1,.22.4v.11a.51.51,0,0,1-.56.45h-.1a.44.44,0,0,1-.16-.06Zm3.34,1.62h0a2,2,0,0,1-.65-.07l-.29-.08-.1,0a.65.65,0,0,1-.41-.82L86.08,99a.79.79,0,0,1,.29-.12,1.58,1.58,0,0,0,.37-.11,1.61,1.61,0,0,0-.29-.09.82.82,0,0,1-.47-.2.73.73,0,0,1,.6-.71l.12-.09a1.2,1.2,0,0,1,.65-.19,2.41,2.41,0,0,1,1.3,1.09A2.66,2.66,0,0,1,87.68,100.15ZM96,97.86l-.15.13a1.32,1.32,0,0,1-.45.21,2.27,2.27,0,0,1-1.59-1,.28.28,0,0,0,0,.09.75.75,0,0,1,0-.16.26.26,0,0,0,0-.15l0,0v0a.18.18,0,0,1,.07,0c.14-.35.28-.7.4-1a1,1,0,0,1,.31-.18c.49-.11,1,.18,1.49-.16l.08,0c0,.29.33.47.4.75C96.65,96.94,96.71,97.42,96,97.86Zm-.3-3.51a.41.41,0,0,1,0,.11.5.5,0,0,1-.36.42c-.47-.15-.5-.49-.42-.92a.68.68,0,0,1,.54,0A.59.59,0,0,1,95.74,94.35Zm-12.5,7.05h0a4.4,4.4,0,0,1,.38-.94,2,2,0,0,1,1.34-.41h.11a1.24,1.24,0,0,1,1,1.42c0,.32-.48.81-.9,1.09-.89.22-1.36-.09-2-1.17h0ZM95.7,92.85a.82.82,0,0,1-.43-.24c-.06-.07,0-.21-.24-.07-.82.45-1.21.13-1.21-.85h0c-.1-.73.53-1,1-1.33a.9.9,0,0,1,.27-.1,1.83,1.83,0,0,1,1.38,1.5A1.2,1.2,0,0,1,95.7,92.85ZM76.41,94.32l.06,0h.31c-.35-.7.23-.78.6-1a1.31,1.31,0,0,1,1.37.58l.09.09a.93.93,0,0,1,0,1.31c-.34.48-.58.72-.9.78L77.34,96l-.06,0c-.84-.28-.6-1.06-.84-1.61h0Zm4.29-20,.31,0,.23,0h.42a4.07,4.07,0,0,0,1.21,0c.6,0,1.19-.08,1.78-.14a11.5,11.5,0,0,0,2.92-.41l.6-.17.09,0a8.67,8.67,0,0,0,1.13-.47l.16-.06h0c.14-.07.27-.15.4-.23A5.07,5.07,0,0,0,92,70.93a1.83,1.83,0,0,1,.13-.16l.23-.3h0l0,0,0,0a3.22,3.22,0,0,0,1-2h0v0l0,0h0c.52-.62.36-1.38.44-2.09h0a3.94,3.94,0,0,0,0-.84,4,4,0,0,0-2.84-3.54l-.08,0c-.11,0-.21,0-.32-.05a3.47,3.47,0,0,0-.45-.06,7.73,7.73,0,0,0-1.52,0h-.57l-.07.08a8.19,8.19,0,0,0-1.11.28.84.84,0,0,1,.09-.19,1.86,1.86,0,0,1,.45-.39,2.54,2.54,0,0,1,.37-.1l.22-.13a1.28,1.28,0,0,1,.27,0,7.39,7.39,0,0,1,2.69,0,2.87,2.87,0,0,0,.69.16,5.44,5.44,0,0,1,3.76,3.83A6.53,6.53,0,0,1,95,70a9,9,0,0,1-5.64,4.84,3.3,3.3,0,0,0-.62.15,12.8,12.8,0,0,1-1.9.25,9.2,9.2,0,0,0-1.39,0L84,75.21c-1-.39-2.21-.11-3.28-.37l-1.43-.06-1.23-.2a2.5,2.5,0,0,0-1.3-.21,2.13,2.13,0,0,1-.51-.14,1.25,1.25,0,0,1,.33-.16A37.26,37.26,0,0,0,80.7,74.32Zm-6,20.23a1.38,1.38,0,0,1,.72-.35.48.48,0,0,1,.3.48.44.44,0,0,1-.2.43h-.59v0h0v0L74.76,95a.39.39,0,0,1-.09-.24.06.06,0,0,1,0,0,1.11,1.11,0,0,1,0-.19Zm19.37,29.08v-.08a.26.26,0,0,0-.07-.25l-.06.08v0l0,0a26.76,26.76,0,0,0-1.82-3.48l0-.06c-.7-1.62-1.4-3.28-2.09-5,.07-.72.34-1.32,1.16-1.41a.83.83,0,0,1,.27,0c.48.13.88.63,1.15,1.49a40.11,40.11,0,0,1,1.57,8,4.76,4.76,0,0,1-.06.64l-.1,0v.08Zm6.71-2-.2-.22v-.21a5.87,5.87,0,0,0-1.45-1.57h0l-.08,0h0l.07,0a2.59,2.59,0,0,0-.84-.93h0c-.63-1-1.26-2-1.88-3a5.85,5.85,0,0,1-.39-.84,1.39,1.39,0,0,1,.24-1.68h0a1.26,1.26,0,0,1,.62-.31c.45,0,.84.31,1.25,1a13.11,13.11,0,0,1,1,2.17c.65,1.83,1.22,3.7,1.83,5.55v0c.41,0,.32.35.41.63-.21-.06-.31-.41-.54-.46ZM98.7,95.14a1.61,1.61,0,0,1-.57.59,3.07,3.07,0,0,1-.91-.12,1,1,0,0,1-.73-.61,1.55,1.55,0,0,0-.06-.86h0s0-.07,0-.1h0v-.26a1.12,1.12,0,0,1,0-.13l.2-.19A4.3,4.3,0,0,1,97.5,93a1,1,0,0,1,1,.33C99.37,94.17,99.37,94.17,98.7,95.14ZM75.24,90.65a2.13,2.13,0,0,1,1.28,1.23A1.22,1.22,0,0,1,75.86,93l0,0,0,0a2,2,0,0,1-.74.2c-.9-.25-1.19-.59-1.19-1.28S74.28,90.91,75.24,90.65Zm-5.58,16.44v0l.08,0,.64.23a4.47,4.47,0,0,0,2.06-.28.65.65,0,0,0,.45-.2l.11-.07a1.27,1.27,0,0,0,.8-.55h0a.1.1,0,0,0,0,0h0l.25-.26a.89.89,0,0,0,.42-.53l0-.05a.65.65,0,0,0,.36-.51c.31-.39.52-.28.86.42a7.58,7.58,0,0,0,1.32,2,4.76,4.76,0,0,0,2.16,1.3,4.69,4.69,0,0,0,1.05.13,2,2,0,0,0,2-1.22q.15-.27.3-.6a1.72,1.72,0,0,0,.1-.42,3.37,3.37,0,0,0,.21-.31c.09-.2.09-.43.41-.47.63,0,.41.78.64,1.18s.45.88.65,1.34a6.88,6.88,0,0,0,1.88,1.47,3.58,3.58,0,0,0,3.52-.39,4.31,4.31,0,0,0,1.06-.85,2.48,2.48,0,0,1,.7-1.13l.09-.31c0-.23-.05-.5.15-.67.17,0,.08,0,.17.24s.18.36.26.54a2.89,2.89,0,0,0,2.52,2,3.33,3.33,0,0,0,1.86-.49.56.56,0,0,0,.5-.34h0l0,0h.08l0,0a.25.25,0,0,0,.16-.14l.08-.07.06-.06v0a.54.54,0,0,0,.33-.47H98l0,0h0c.34-.24.33-.72.6-1l.17.06c.62.3.05.92-.14,1.29A3.85,3.85,0,0,1,95.16,110H95a3.08,3.08,0,0,1-2.81-2.22l-.22-.08-.63,1a5,5,0,0,1-.9.87,4.45,4.45,0,0,1-3.53.73l0-.15c-.86,0-1.47-.63-2.18-1a1.9,1.9,0,0,1-.19-.21l-.48-.75c-.31-.18-.29-.67-.75-.75a.35.35,0,0,0,0,.08c-.13,0-.18.12-.24.2a4,4,0,0,1-2,1.66,4.62,4.62,0,0,1-1.49,0c-.12,0-.23,0-.35-.08l-2-.93a7.05,7.05,0,0,1-.61-.47l-.11-.1a5,5,0,0,1-.45-.48l0,0-.26-.33H75.7c-.13-.24-.13-.6-.48-.65,0-.06-.08-.11-.12-.18a7.16,7.16,0,0,1-2.85,1.67h-.06a3.44,3.44,0,0,1-2.61-.29l-.36,0-.14,0a6.52,6.52,0,0,1-1.75-1.8,1.37,1.37,0,0,1-.38-.71A6.4,6.4,0,0,0,69.66,107.09Zm6.28,16.21H75.6l-.07.06h0a27,27,0,0,1,.32-6.71c.06-.28.12-.56.19-.84.36-1.13.72-2.26,1.09-3.39l.06-.11h0l.08-.1a3.42,3.42,0,0,1,.87-.64,1.52,1.52,0,0,1,.2-.06,1,1,0,0,1,1.11.9,3.28,3.28,0,0,1-.09,1.49A70.41,70.41,0,0,1,75.94,123.3Zm-6.51-3.65h0a4.68,4.68,0,0,0-.11-2.49c0,.07,0,.14,0,.22v-.08s0-.1,0-.14a.28.28,0,0,0,0-.25h0a34.31,34.31,0,0,1,.28-4.75,1,1,0,0,0,.15-.39,2.3,2.3,0,0,1,1.13-1.55,1.22,1.22,0,0,1,.37,0c.7.2,1,.69.84,1.68a18.86,18.86,0,0,1-1.4,5,17.06,17.06,0,0,0-.84,2.4,2.13,2.13,0,0,1-.37,1.25A1.43,1.43,0,0,1,69.43,119.65Zm13.72-1.22v-.09A5.3,5.3,0,0,0,83,115.9h0v-.55l0,0h0c0-.33.06-.72.06-1.09a.24.24,0,0,0,0-.08h0a1.94,1.94,0,0,1,.88-1,1,1,0,0,1,.25-.06h0a1.27,1.27,0,0,1,1.11,1.42,26,26,0,0,1-.84,6.57,7.07,7.07,0,0,1-.78,2.55,2.61,2.61,0,0,0-.26-1,3.45,3.45,0,0,0-.16-1.8h0A15.79,15.79,0,0,0,83.15,118.43Zm24-27.37a.49.49,0,0,1-.55.43.77.77,0,0,1-.23-.06.72.72,0,0,1-.1-1,.53.53,0,0,1,.41-.09h.06a.54.54,0,0,1,.42.62S107.17,91,107.17,91.06ZM105.26,76.5a.39.39,0,0,1-.14-.49,2.16,2.16,0,0,1,.21-.29.55.55,0,0,1,.18,0c.25.05.46.21.35.66a.44.44,0,0,1-.46.18A.24.24,0,0,1,105.26,76.5Zm4.24,6.31a5,5,0,0,1-.38-.52.64.64,0,0,1,.42.19c.72.76,1.47,1.49,2.21,2.24a33.06,33.06,0,0,1,3.37,2.77,7.82,7.82,0,0,1,.91,1,.53.53,0,0,1,.09.68s0,0,0,0a.65.65,0,0,1-.09.08c-.29.16-.55-.07-.75-.25a31,31,0,0,1-3.53-3.72l-1.2-1.2c-.13-.16-.25-.33-.38-.5v-.19a5.37,5.37,0,0,1-.56-.51Zm-5.36-18.38a.56.56,0,0,1,.59-.52h0a.56.56,0,0,1,.44.57h0v.06a.52.52,0,0,1-.54.45c-.28-.07-.53-.18-.51-.52Zm11,10.91a.52.52,0,0,1,0,.75,4.11,4.11,0,0,1-.62,0l-.06,0v0h0c-1.11-1.31-2.44-2.41-3.4-3.76l-.26-.09-.2-.22v0l-.29-.31-.75-1a2.21,2.21,0,0,1-.84-1l-.39-.36c-.16-.22-.34-.43-.49-.65l3.06,3a29.68,29.68,0,0,1,3.36,2.78A6.42,6.42,0,0,1,115.19,75.34Zm-8.9-19.15a.59.59,0,0,1,.51.51h0c-.08.36-.24.54-.46.59a.25.25,0,0,1-.12,0h0a.54.54,0,0,1-.43-.63.5.5,0,0,1,.45-.47Zm-28.63-6a2.83,2.83,0,0,1-.84,1.55.87.87,0,0,1-.22.33l-.39.28c-.25-.42.19-.63.19-1a.47.47,0,0,1,.25-.38l.1-.53a.13.13,0,0,0,0-.06s0,.09,0,.13a.59.59,0,0,0,.06-.84c0,.06,0,.12,0,.17a1.56,1.56,0,0,1,0-.24c0-.12.06-.24.08-.37h0a2.45,2.45,0,0,1,.81,0C77.94,49.47,77.74,49.85,77.66,50.15Zm-16.2,65.07v0s0,0,.06,0a4.5,4.5,0,0,0,.49-1.75h0a.5.5,0,0,0,0-.13,30.79,30.79,0,0,0,1.32-3.46,3.12,3.12,0,0,1,1.15-1.62,1.12,1.12,0,0,1,.74.06,1.19,1.19,0,0,1,.74,1.19,2.93,2.93,0,0,1-.33,1.15,41.64,41.64,0,0,1-4.38,7,.85.85,0,0,1-.46.3l0,0a.26.26,0,0,0-.05-.09h0a1.09,1.09,0,0,1,.06.11.28.28,0,0,0,0-.25v0a8.24,8.24,0,0,0,.69-2.43ZM108.72,60v0a13.47,13.47,0,0,1,1.78,2,10.74,10.74,0,0,0,3.22,2.66,2.11,2.11,0,0,1,.69.57.43.43,0,0,1,.06.41l0,0a.33.33,0,0,1-.21.14.38.38,0,0,1-.25-.08,12.09,12.09,0,0,1-3.23-2.86c-.23-.2-.44-.42-.65-.64a19,19,0,0,1-1.39-1.94l-.18-.21a.21.21,0,0,1,0-.06l-.36-.51a3.09,3.09,0,0,1-.26-.68C108.19,59.18,108.66,59.45,108.72,60Zm-10-3.52c.28-.09.56-.18.84-.29a5.51,5.51,0,0,0,2-1s0,0,0,0l.33.05a.31.31,0,0,1-.14.07,5.48,5.48,0,0,1-2.36,1.88l-.67.22a8.94,8.94,0,0,1-4.43-.29,14,14,0,0,0,3.3-.36A4.35,4.35,0,0,0,98.73,56.5ZM71.92,93.44a.85.85,0,0,1,.36-.23l.15,0a2.79,2.79,0,0,1,1.17.47,1.55,1.55,0,0,1-.11,2.08,1.17,1.17,0,0,1-.34.2,3.17,3.17,0,0,1-1.26-.19s0,0,0,0l0,0a.23.23,0,0,0-.06-.16h0c-.36-.56-.67-1.07,0-1.65A.89.89,0,0,0,71.92,93.44Zm91.21,43a1.72,1.72,0,0,1-.55-.06l-.06,0a.13.13,0,0,0-.1,0,.41.41,0,0,0-.26.07c.08.39.77,0,.67.68a.48.48,0,0,1-.16.08h-.24l-.22,0a.92.92,0,0,0-.77.17c.45.36,1.07,0,1.46.42-.38.26-1,0-1.22.51.4.41,1-.61,1.35.15l0,.08a2.72,2.72,0,0,1-1.11.74,8.25,8.25,0,0,1-.92.22l-.48,0a.71.71,0,0,1-.28-.18l-.19-.21c0-.73-1-.89-1.06-1.57l0,.12v0a1.92,1.92,0,0,1,0-.22c.22-.47.6-.86.81-1.34a2.16,2.16,0,0,1,1.69-.72,3,3,0,0,1,1.68,1.11c0,.06.05.14.08.21ZM196.58,187a.68.68,0,0,1-.17-.09l-.77-1s0,.08,0,.11l0,0v-.08l-.25-.36h0a1.53,1.53,0,0,1,.16-.25,2.32,2.32,0,0,1,.39-.12.4.4,0,0,1,.12.11c-.07.21.09.33.3.42a.35.35,0,0,0,0,.08C196.23,186.23,196.78,186.57,196.58,187Zm-6.31,85.6a1.46,1.46,0,0,1-.15-.55c.08-.47.2-.92.31-1.38l0-.07v0l0,.07h.06a2.82,2.82,0,0,1-.12,1.95ZM79.9,217.7c.06.56-.47.76-.92.65l-.13,0h0c-.47-.76,0-1.37.33-2h0c.06-.8.12-1.6.19-2.41l-.08,0h0l.07,0a3,3,0,0,0,.11-.75l0-.07a.45.45,0,0,1,.28-.07,2.94,2.94,0,0,1,.27,1.6C80.11,215.62,79.8,216.64,79.9,217.7Zm-3.17,9.85a1,1,0,0,1,0,.24.63.63,0,0,1-.58.44h0l-.22-.11a.89.89,0,0,1-.22-1.25,2.15,2.15,0,0,0,.29-1.38h0a21,21,0,0,0,.61-2.57,1.36,1.36,0,0,1,.25.72C77,225,76.58,226.22,76.73,227.55ZM65.1,264.33a4.54,4.54,0,0,1-.17,1.62l0,.06a.19.19,0,0,1,0,.08,2.46,2.46,0,0,1-.42.7c-.37-.42,0-.94,0-1.39h0a.64.64,0,0,0,.3-.62l0,0,.19-.36Zm97.92-115a1.09,1.09,0,0,0,0,.18A1.09,1.09,0,0,1,163,149.32ZM160,153.44c.32.23.31.42.2.59a1.45,1.45,0,0,1-1.32-.75v.15h-.07l-.5-.36a.61.61,0,0,1-.15-.17l.12.1a.6.6,0,0,1,.28-.29,3.73,3.73,0,0,1,.56.2,1.62,1.62,0,0,1,.2.18,2.65,2.65,0,0,1,.54.25ZM67.49,235.2c.14-.66-.08-1.35.17-2v0a3.65,3.65,0,0,1,.49,2.07v0a.29.29,0,0,1,0,.16c-.11.14-.27,0-.65-.24h0Zm93.08-82.3-.71-.7a1.43,1.43,0,0,1-.24-.19,2.44,2.44,0,0,1-.23-.33c.67,0,1,.54,1.5.68,0,.17.22.32.09.51a.1.1,0,0,1,0,0,.3.3,0,0,1-.19.1ZM72.82,236.53a.49.49,0,0,1-.13.12.51.51,0,0,1-.44-.22.45.45,0,0,1,0-.11l.33-.58a3.64,3.64,0,0,1,.49-.55,1.16,1.16,0,0,0,.29-.25l.24-.18A4.68,4.68,0,0,1,72.82,236.53Zm-3.62-.83,0-.06-.33-.58v0h0l.12-.82,0,0h0l0-.16.22-.4a2.73,2.73,0,0,1,0,1.85s0,.1-.08.14l0,.06s0,0,0,.07l0,0Zm62.92-76.48h0l0-.05h0A.12.12,0,0,1,132.12,159.22Zm.39-7.36.23-.1.08,0c.85-.07,1.31.71,2,1.08.47.28.39,1,.18,1.53a9.71,9.71,0,0,1-.59,1.1l-.07.06c-.43,0-.18-.63-.38-.59s-.15.37-.33.49a1.13,1.13,0,0,1-.24-.89c0-.17.08-.49-.3-.38l-.06-.08c-.07.6-.14,1.12-.2,1.63h-.26c-.08-.27.19-.7-.3-.79a1.14,1.14,0,0,1,0,.73.54.54,0,0,1-.24-.16,3.2,3.2,0,0,1-.5-.54,4.09,4.09,0,0,1-.36-.8,1.52,1.52,0,0,1,0-.21,2.5,2.5,0,0,1,.42-1.17A5.55,5.55,0,0,1,132.51,151.86Zm3.26,7.34v0h0v0h-.09l-.08,0h.27c-.11-.1-.19-.25-.31-.3-.5-.25-.38-.64-.27-1a.33.33,0,0,1,.12-.2h0a.18.18,0,0,1,.09,0h0a2,2,0,0,1,.54,0,2.3,2.3,0,0,1,.45,0c-.18-.29-.54-.24-.78-.29s-.48-.05-.57-.32l1.38-.21c-.39-.72-.91-.08-1.39-.13v-.06a1.57,1.57,0,0,1,.49-.7,3.5,3.5,0,0,1,1.52-.39h0c.93,0,1,1.06,1.64,1.52.39.29.11.84-.33,1.28s-.46.92-.91,1.16A2.69,2.69,0,0,1,135.77,159.2Zm8.75-11.76a1.47,1.47,0,0,1-.92-.43.61.61,0,0,1-.07-.1h0a1.68,1.68,0,0,1,.22-1.36.88.88,0,0,1,.28-.17h0a1,1,0,0,1,.39-.07,1.07,1.07,0,0,1,.05,2.14ZM133.38,158.3h-.24l-.08,0H133c-.38-.12-.48-.51-.39-1h0l0-.05a1.36,1.36,0,0,1,.86-.32.69.69,0,0,1,.5.8v0a.62.62,0,0,1-.58.58Zm-38.72-2.88s0,.08,0,.12a3.19,3.19,0,0,1-.39.56,1.05,1.05,0,0,1-.57.22l-.44,0h0v0a1.73,1.73,0,0,1-.89-1h0c.06-.44.41-.73.61-1.09a1.34,1.34,0,0,1,.71-.21,1.23,1.23,0,0,1,1,1.26A1.1,1.1,0,0,1,94.66,155.42ZM70,189.28a17.14,17.14,0,0,0-.09-3.92h0a4.15,4.15,0,0,0-.13-2v-.08l0-.86h-.16l.15,0a1,1,0,0,0-.18-.94l-.06,0h0l.1,0a.48.48,0,0,0,0-.29.31.31,0,0,0-.12.07h0l.08-.06a1.83,1.83,0,0,0-.17-1.28h0a10.52,10.52,0,0,0-.42-3.06.3.3,0,0,0,0-.33,1.17,1.17,0,0,0-.22-.87v-.07a.28.28,0,0,0-.06-.25v0a6.71,6.71,0,0,0-.41-2.13l0,.06v0a.22.22,0,0,1,.05-.08,4,4,0,0,0-.46-1.85h0v0a10.6,10.6,0,0,0-.51-2.6l-.17,0c0-.06,0-.12-.08-.19a.85.85,0,0,0-.25-.78v-.27h0c0-.15,0-.38.06-.53a4.23,4.23,0,0,1,.65,1.29,26.38,26.38,0,0,1,2.92,10.38,46,46,0,0,1,0,10.09,14.53,14.53,0,0,1-.6,4c0-.11,0-.23,0-.34C69.87,191.29,69.94,190.31,70,189.28Zm.51,46.38a2.16,2.16,0,0,1,.47-2.22,3.29,3.29,0,0,1-.31,2l-.06.13S70.55,235.65,70.51,235.66ZM74.63,150a1.15,1.15,0,0,1,.41-.08,1.24,1.24,0,0,1,1,1.24,1.26,1.26,0,0,1-1.13,1c-.66-.46-1-.76-1-1.06v-.08C73.92,150.67,74.17,150.38,74.63,150ZM73,217.3a.5.5,0,0,1-.11.45,1.12,1.12,0,0,1-.74.25h0l-.15-.11a.93.93,0,0,1-.11-1.31,2.37,2.37,0,0,0,.23-2.29,2.61,2.61,0,0,0-.06.27v-.08a1.18,1.18,0,0,1,0-.2v-.54c.11-.37,0-.82.24-1.13.46.29.41.82.48,1.26C73,215,72.73,216.16,73,217.3Zm2.49-33.48v-.28a2.53,2.53,0,0,0,0,.28Zm.38,10.25a8.27,8.27,0,0,1-.15,1.72c-.11-.38.07-.87-.25-1.18q0-.3.09-.6c0-.34,0-.69-.07-1h0c.06-.59.12-1.19.17-1.79a17.89,17.89,0,0,0-.15-3.58,14,14,0,0,0,0-4.52,2,2,0,0,0,0,.24c0-.08,0-.16,0-.23l0,0a.3.3,0,0,0,0-.26l-.08-.09v-.08l.07.09c0-.27,0-.55,0-.82h0a10.69,10.69,0,0,0,0-3.7l0,.06v-.14a.33.33,0,0,0,0-.24h0l0,0,.15-2.72-.08.05h0l.07,0v-.56l.06,0c0-.31.09-.61.09-.93h0l.57-4.19c0-.29,0-.52-.09-.83,0-.12,0-.24,0-.36C77.79,177,76.71,185.56,75.87,194.07Zm-4.26,33.48,0,.13h0a.7.7,0,0,1,0-.14,11.26,11.26,0,0,0,.48-4.12h0c0-.29.08-.57.09-.85,0,0,0-.06.08-.08l.08,0a3.11,3.11,0,0,1,.51,1.7,19.63,19.63,0,0,0,.14,3,.66.66,0,0,1-.34.76A1.62,1.62,0,0,1,71.61,227.55Zm-.18,8.59-.07,0,0,0c-.06-.32.17-.59.26-.89h0a1.83,1.83,0,0,0,.33-.49,1.29,1.29,0,0,1,.18-.16,1.62,1.62,0,0,1-.39,1.57A.68.68,0,0,1,71.43,236.14Zm25-74.64a2.23,2.23,0,0,1,0,.23.83.83,0,0,1-.24.29,1.31,1.31,0,0,0-.71.24.45.45,0,0,0-.19.15c-.29.27-.49.63-.76.93a.77.77,0,0,1-.18.18c-.34.2-.7.08-1.6-.27h0l0,0c-.21-.63-.81-.62-1.3-.78-.18-.16-.36-.32-.53-.49a3.53,3.53,0,0,1,1.31-4.35.86.86,0,0,1,.14.26c-.18.45-.46.88-.15,1.41.44-.4.19-1.33,1-1.44a3.18,3.18,0,0,0,.08.33.3.3,0,0,1,.08-.08h0s0,.05-.06.06a4.44,4.44,0,0,0,0,1.36c0,.22,0,.42.2.56s.27-.05.32-.21l-.17-.22v0l.2.25.13-2-.23-.06c0,.09-.05.18-.07.26l0-.06a1.42,1.42,0,0,0,0-.22l0-.21a.24.24,0,0,1,.23,0l0,0a.83.83,0,0,0,.23.14c.27.68,0,1.49.58,2.42,0-.09,0-.17,0-.25s0,0,0,.06a1.47,1.47,0,0,0-.19-1.68.42.42,0,0,0,0,.1c-.07-.21-.14-.42-.19-.63a.53.53,0,0,0,.27-.21.93.93,0,0,1,.39.21A3.88,3.88,0,0,1,96.48,161.5ZM129,159.28l0,0a1.34,1.34,0,0,1-.23-.13,3.08,3.08,0,0,1-.43-.38l0,0a3.41,3.41,0,0,1-.54-.8.59.59,0,0,1,0-.17,13.16,13.16,0,0,1,.84-1.68,1.45,1.45,0,0,1,.17-.26v0a1.57,1.57,0,0,1,.84-.35,2,2,0,0,1,1.68.84c0,.07,0,.14.07.22a.71.71,0,0,0-.56.1c.49.31,1,.61,0,.79v.23c.23.08.51,0,.69.24-.19.29-.6,0-.79.29.19.21.55.09.78.22a1.29,1.29,0,0,1-.6.74A2,2,0,0,1,129,159.28Zm-39.47-5.83a1.05,1.05,0,0,0-.35.08l.4.19a1.18,1.18,0,0,0,.41.19l.85.41a.62.62,0,0,1,0,.2.83.83,0,0,1-.29.22,1.18,1.18,0,0,1-.26,0l-.5,0a1.88,1.88,0,0,0-.82,0h-.71a3.68,3.68,0,0,0,2,.39,2.27,2.27,0,0,0,.45,0h.07c.14,0,.24.08.3.28-.32.37-.88.23-1.3.4a2.49,2.49,0,0,0-1.13.33c.83.49,1.54-.18,2.26-.1a.73.73,0,0,1,.18.14.67.67,0,0,0,0,.24A4.23,4.23,0,0,1,89,157.82a1.26,1.26,0,0,0-.66.15,4.1,4.1,0,0,1-.86.05h-.23c-.61-.14-.76-.77-1-1.29v.1s0-.06,0-.1a6.52,6.52,0,0,0-.87-.57,3.23,3.23,0,0,1-.25-.29h0l0-.1h0c0-.69,0-1.42.68-1.87a1,1,0,0,0,.41-.86,1.73,1.73,0,0,1,.89-1,5,5,0,0,1,.66-.11,3.38,3.38,0,0,1,.73.08A6.8,6.8,0,0,1,91,153.44C90.5,153.84,89.93,153,89.48,153.45Zm29.55,19c-.61-.14-.87-.63-.73-1.4a1.42,1.42,0,0,1,.16-.36,1.12,1.12,0,0,1,.76-.26,1.16,1.16,0,0,1,1,1.24,1.06,1.06,0,0,1-.59.78A1,1,0,0,1,119,172.42Zm12.35-10.64a4,4,0,0,1,.67-2.41c.25,0,.26.19.26.39a.75.75,0,0,0,.09.25l.08-.17c.08.08.21,0,.44-.37h0l.12,0c.2.4-.09.89.2,1.29a1.07,1.07,0,0,0,.12-.27.82.82,0,0,0,.19.1c0-.49.08-1,.09-1.43l.47.1a2,2,0,0,1,1.07,2.38c-.12.79-1,.92-1.53,1.45-.23.28-.71,0-1.07-.26l-.12-.09v-.08a.62.62,0,0,0-.49-.27A2.58,2.58,0,0,1,131.38,161.78Zm-39.27-9.46,0,0h0l0,0h0ZM68.53,213.37a4.65,4.65,0,0,1,.65,2.12,9,9,0,0,0,.32,2.37.66.66,0,0,1-.1.7,2.69,2.69,0,0,1-.93.15v.07h0v-.06a.75.75,0,0,1-.24-.84c.7-1.32.23-2.61,0-3.91a2.66,2.66,0,0,1,.1-.49A.87.87,0,0,1,68.53,213.37Zm58.5-72a3.08,3.08,0,0,1,.7.74,3.18,3.18,0,0,1-.82,4.42,5.21,5.21,0,0,1-5,.31,13.8,13.8,0,0,1-2-1.37v0l0,0v0h0l0,0h0l-.5-.67a.22.22,0,0,0,0,.08l0-.05s0,0,0-.08a.24.24,0,0,0-.05-.2.29.29,0,0,0-.2-.29h0a4.66,4.66,0,0,1-.2-2.34,2,2,0,0,1,.32-.52l0,0c.31.72.53,1.4.85,2a3.34,3.34,0,0,0,2.46,1.94,2.76,2.76,0,0,0,2.33-.37c.48-.31.85-.74.24-1.32a1.89,1.89,0,0,1-.53-1.19l-.06,0h0l.06,0v-.29a.36.36,0,0,1,0-.09s0,.05.06.07l.31-.56h0l.32-.3h0l0,0h0a3.27,3.27,0,0,1,.87-.17A1.52,1.52,0,0,1,127,141.38Zm-31.47,10a6.64,6.64,0,0,1-.55.73l-.06.07a1.22,1.22,0,0,1-.28.2l-.07,0-.21-.3a.09.09,0,0,0,0,0h.31l.15-1.37h-.18l-.21.53-.06-.19c0,.23-.07.41-.1.57s-.08.19-.11.29a2.65,2.65,0,0,1-.55.3c-.09-.05-.15-.16-.15-.36a9.43,9.43,0,0,0,0-1.68l-.16.16,0-.3a2,2,0,0,0-.31,1.85c0,.32,0,.41-.21.45-.19-.11-.23-.4-.36-.56s0-.25-.07-.38a2.91,2.91,0,0,0-.21-1.54l0,.05h0c-.72,1,.13,1.7,0,2.43h-.19c-.62-.23-.85-.89-1.3-1.31v0l.06,0-.06-.3a.76.76,0,0,1-.09-.09.66.66,0,0,0-.13-.49s0-.06,0-.08v-1.21a1.5,1.5,0,0,1,.15-.85l.06,0a.94.94,0,0,0,.72-.2c.43,0,.52-.5.75-.77a2.27,2.27,0,0,1,.68-.56.44.44,0,0,1,.17,0c.36,0,.79,0,1,.31.55,1,2.1.68,2.33,2A4.87,4.87,0,0,1,95.56,151.37ZM68.13,228h0v-.33h0a1.09,1.09,0,0,0,0-.17,2.11,2.11,0,0,0,.29-1.55c-.06-.84-.16-1.67-.26-2.51a.41.41,0,0,1,.26-.16c.49.38.48,1,.63,1.53.23,1,.08,2.07.41,3.09a.63.63,0,0,1-.14.55,3.34,3.34,0,0,1-.88.13l-.31-.29-.12.07h0a.57.57,0,0,1,.13-.08A1.31,1.31,0,0,0,68.13,228Zm7.42-9.89,0,0c0-.31,0-.67,0-1a3.12,3.12,0,0,0,.26-.66,2.89,2.89,0,0,0,.27-1.59c0-.41.07-.83.12-1.24a.31.31,0,0,0,.11-.22l-.1.13h0l.1-.13a3.33,3.33,0,0,1,.16-.4.58.58,0,0,1,.38.48c.24,1.43-.3,2.81-.09,4.21a.44.44,0,0,1-.15.4A3.4,3.4,0,0,1,75.55,218.15Zm6.63-27.1c-.32,1.21-.6,2.43-.89,3.65l-.17,1-.21.9-.16-.19,0,0c.07-1.08.14-2.16.22-3.24,0-.23,0-.46.07-.7h0v-.17l.12-1c0,.2,0,.41,0,.62a6.31,6.31,0,0,0,.41-2.69h-.07c.09-1.28.56-2.5.59-3.8,0,0,0-.05,0-.08l0,0a25,25,0,0,0,.75-3.64c.08-.24.14-.49.22-.73a3.89,3.89,0,0,0,.63-1.6c0-.12.11-.23.17-.35s0-.07.05-.1.15-.34.23-.5a.65.65,0,0,0,.2-.36c.06-.12.13-.23.2-.35a.6.6,0,0,0,.06-.11l.32-.55L86,175.5a23.81,23.81,0,0,1,3.18-3.17l.66-.68a3.87,3.87,0,0,1,.7-.43l0,0a5.39,5.39,0,0,1-1.19,1.57C85.83,178.43,83.86,184.69,82.18,191.05Zm78.88-38.77v0Zm.23-.36-.22-.19v.18h0v-.2l0-.08c-.07-.11-.16-.22-.23-.34l-.33-.87a.41.41,0,0,1,.22-.06h0c.2.22.42.43.6.66.6.75.72,1,.23,1.15A.88.88,0,0,1,161.29,151.92Zm.81-1.95c.37.23.5.71.85.95a1.19,1.19,0,0,1,.08.2,2.15,2.15,0,0,1-.14.26A1.19,1.19,0,0,1,162.1,150Zm1.36-.45a5.46,5.46,0,0,1,.35.78,1.33,1.33,0,0,1,.18.53c-.56,0-.61-.46-.73-.89A.82.82,0,0,1,163.46,149.52Zm-.44.31v0h0Zm-64.24,2.34c.76-.07,1.84-.36,1.84,1.06,0,.32.46.33.69.51a1.57,1.57,0,0,1,.42.35,1.38,1.38,0,0,1-.23,1.94c-.22.25-.51.36-.61.78v0a1.69,1.69,0,0,1-.57,1L100,158a1.82,1.82,0,0,1-.3.11,5.89,5.89,0,0,1-2-.37s0,0,0,0l0,0a0,0,0,0,0,0,0,.43.43,0,0,0-.22-.09,3.25,3.25,0,0,0-1.42-1h0a1.64,1.64,0,0,1,0-.38s0,0,.06,0,.15,0,.17-.08l.59.27c0,.08.24.11.35.13a.26.26,0,0,0,.23-.08,4.41,4.41,0,0,0,.42-.24,3.82,3.82,0,0,1-1.58-.44v0c-.06-.36.1-.49.32-.54l.13,0a2.83,2.83,0,0,0,1.9-.18,2.81,2.81,0,0,0-.56-.18,1.38,1.38,0,0,0-1.35-.1,3.44,3.44,0,0,0-.45,0,.6.6,0,0,1-.2,0c-.09-.38.25-.47.46-.65.59-.06,1.25.07,1.78-.44l0,0,0,0a1.66,1.66,0,0,0-1,0c-.34.07-.66.21-1,.3a.59.59,0,0,1-.36-.13,2.46,2.46,0,0,1,.22-.52,4.82,4.82,0,0,1,1.64-1.06A8.86,8.86,0,0,1,98.78,152.17ZM65.83,183v0l0-.08A.49.49,0,0,0,65.83,183ZM55.6,186.44a1.49,1.49,0,0,1,.53-1.31.74.74,0,0,1,.26,0h.06a.73.73,0,0,1,.61.83c0,.59-.43.75-.92.75A.88.88,0,0,1,55.6,186.44Zm.78-2.76c0-.41,0-.82-.07-1.3a2.85,2.85,0,0,0-.24,1.34l-.22.07-.36-.18h0s0,0,0,0v0l-.29.28h0a3.73,3.73,0,0,1-1.08-1.6A.42.42,0,0,0,54,182v0a1,1,0,0,1,0-.17L54,182l.14-1a1.29,1.29,0,0,1,.16-.17c.29-.07.58-.13.7-.48l.06,0v0a.62.62,0,0,0,.14-.14,1.42,1.42,0,0,0,.29-.31.31.31,0,0,1,.16-.12,2.28,2.28,0,0,1,.58,0,1.52,1.52,0,0,1,.54.41c.29.38.84.21,1.13.67a2.48,2.48,0,0,1-.75,2.94.38.38,0,0,1-.41,0A.72.72,0,0,0,56.38,183.68ZM52,188a5.56,5.56,0,0,1-1.34-1.48.77.77,0,0,1,0-1,5.53,5.53,0,0,0,.78-1.32,1.81,1.81,0,0,1,1.53-.36,10.17,10.17,0,0,1,1.46.77h0l0,.09c-.23.12-.58,0-.8.15l0,0a.23.23,0,0,0-.13.11l.44.15c.2.06.38.12.26.39,0,0,0,0-.06,0-.36.11-.81-.15-1.1.18a.48.48,0,0,0-.16.13c.41.34,1,0,1.36.34-.26.35-.77.09-1.07.33h-.24a.49.49,0,0,0,.13.15s0,0,0,.07h.1a1.07,1.07,0,0,0,.62.09.2.2,0,0,0-.06-.09,2,2,0,0,1,.71.22h0a2.85,2.85,0,0,1-1.13.74A2.61,2.61,0,0,1,52,188Zm13.49-7.84,0,.07v0l0-.09Zm-8.13,7.55-.2-.1A.62.62,0,0,1,57.32,187.66Zm9.07,2a1.85,1.85,0,0,0,0-.23l-.06,0h0c0-.5.09-1,.09-1.5a1.08,1.08,0,0,1-.18-.33c0-.25,0-.49,0-.73a4.57,4.57,0,0,0,0-.52c0-.9-.12-1.81-.12-2.72-.07-.33,0-.69-.25-1a.09.09,0,0,0,0,.05,7.59,7.59,0,0,0-.41-2.72v-.09a.31.31,0,0,0-.09-.22l0,0v-.07l.1.11a1.81,1.81,0,0,0-.2-1.29c0,.11,0,.22,0,.33l0-.18a.76.76,0,0,0,0-.15,3.2,3.2,0,0,0-.26-1.47l-.06,0h0L65,177A21.68,21.68,0,0,0,63.79,172l0,0v0h0a.45.45,0,0,0,0-.28.64.64,0,0,0-.21-.65l0,.07,0-.09h.06a8.44,8.44,0,0,0-.78-2.74,1.18,1.18,0,0,0-.27-.9l0,0h0l0,0a4.74,4.74,0,0,0-.71-2.06l0-.11s0,0,0-.06v-.53l-.51-1h-.05l0,0a.19.19,0,0,0,.12,0c-.09-.38-.18-.81-.26-1.22-.18-.08-.26-.23-.19-.35a3.78,3.78,0,0,1,.83,1.44,48.19,48.19,0,0,1,4.81,22.71,10.27,10.27,0,0,1-.1,3.41Zm-3,75.19v0a1.94,1.94,0,0,1,.09,1.84.74.74,0,0,1-.44-1A6.91,6.91,0,0,1,63.34,264.85Zm2.38,2.32c-.31-.09-.21-.37-.12-.59s.19-.32.3-.48a1,1,0,0,1,.13-.32,1,1,0,0,1,.2-.11c.31.36-.06.75-.07,1.12C66.08,267,66,267.26,65.72,267.17Zm93.77-112a.32.32,0,0,0-.14,0h0a.6.6,0,0,0-.57-.29h0v-.07a.9.9,0,0,1-.64-.2,1.92,1.92,0,0,1-.22-.18l.05-.05a1.27,1.27,0,0,1,1,.06l.08.06.23,0h.14l.21,0,.18-.12h0v0l-.14.1s.07,0,.1.06C159.71,155,159.64,155.16,159.49,155.19Zm29.29,67.75a5.08,5.08,0,0,0-.73-1.27l0,0-.18-.34a15.12,15.12,0,0,0-1.2-2.46h0a.22.22,0,0,0-.06-.19l-.07,0,0,0,.09,0a4.4,4.4,0,0,0-.73-1.64v0a5.45,5.45,0,0,0-.56-1.52,2.2,2.2,0,0,1,.11-2.11,1,1,0,0,1,.34-.15,1.26,1.26,0,0,1,1.53.64,3.52,3.52,0,0,1,.37.84,42.9,42.9,0,0,1,1.59,8.41c0,.15,0,.31,0,.47a2.83,2.83,0,0,1-.23-.28Zm-29.3-38.13a3.39,3.39,0,0,1-.94,1.12c-.07,0-.15-.05-.21-.21h0a.68.68,0,0,0,.07-.27v0h0c.37-.27.43-.86.83-1.09C159.55,184.3,159.62,184.55,159.48,184.81Zm-1-1.18c.12.05.12.22.1.4-.17.34-.54.53-.76.8l-1,.7h0a.13.13,0,0,1-.06-.07,3,3,0,0,1,.11-.4v0a2.2,2.2,0,0,1,.3-.31,1.34,1.34,0,0,0,.07-.27h0C157.69,184.22,157.94,183.72,158.52,183.63Zm8.09,15.11,0,0,.22-.14a1.24,1.24,0,0,1,.39-.09h0a1,1,0,0,1,1,1,1.09,1.09,0,0,1-.82,1l-.58,0-.05,0h0l-.5-.62v-.53h-.11s0-.05,0-.08h0a.31.31,0,0,0,.06-.19h.07s0,0,0-.06a.71.71,0,0,1,.1-.14ZM149,185.8a1,1,0,0,1,.52.91v.06a1,1,0,0,1-.62.83l-.89-.06-.05-.06-.27-.32h0C147.72,185.86,147.79,185.74,149,185.8Zm26.88,40.09h0a.41.41,0,0,0-.23-.4s0,.07,0,.1,0-.06,0-.1l-3.28-6.19h-.08v0h0a.68.68,0,0,0-.24-.63.45.45,0,0,0,0-.28H172v0h0c.05-.3.1-.59.14-.89a1.22,1.22,0,0,1,.48-.42,1.12,1.12,0,0,1,1.37.3,2.55,2.55,0,0,1,.57.84,29.74,29.74,0,0,1,2,8.87c-.14-.16-.28-.35-.41-.53l0,0a.61.61,0,0,0-.3-.59l-.06.1,0,0Zm8.65,4a2.36,2.36,0,0,1-.36-.26v-.2a.44.44,0,0,0-.25-.08c-.73-1.15-1.45-2.28-2.16-3.42a.43.43,0,0,1-.12,0l0,0,.12.06a.69.69,0,0,0-.34-.6h0a.69.69,0,0,0-.31-.6v.06c-.11-.23-.22-.47-.32-.7s-.18-.46-.25-.7c-.49-1.58-1.22-3.12-1.07-4.86a1.08,1.08,0,0,1,0-.18h0l.78-.71.07,0h0l.1,0a1.21,1.21,0,0,1,.77.18,4.79,4.79,0,0,1,.36.41,4.22,4.22,0,0,1,.63,1.36,77.8,77.8,0,0,1,2.39,10.31Zm-3.13-4.56h0l0,0h.06Zm-27.5-36.79c.24.08.57.24.71.15a1.38,1.38,0,0,1,1.78.27,3,3,0,0,1,1,2,10.06,10.06,0,0,1-.22,1.81c1.31-.74,2.78-1.46,3.79-.31.18.2.4.41.61.64a.51.51,0,0,0,.41.48,2,2,0,0,1,.23,2.19c-.64,1.34-1.42,1.93-3.57,2,1.59,1.11,2.3,2.46,1.52,4.21a2.75,2.75,0,0,1-.64.83,9,9,0,0,1-1.16.66,2.93,2.93,0,0,1-.73.12,2.6,2.6,0,0,1-.56,0,5.75,5.75,0,0,1-1.24-.61c-.16-.11-.32-.24-.48-.36l-.07-.09h0a4.15,4.15,0,0,0-.7-1.43,2.65,2.65,0,0,1-.11-.3.36.36,0,0,1,0,.11l0,0s0,.08,0,.12a3.29,3.29,0,0,1-2.3,2.5,4,4,0,0,1-1.19,0h-.06c-.91-.36-1.41-1.32-2-1.89s-.26-2,.34-2.82c.23-.3.6-.48.83-.88l.12-.09h-.06l.06-.09-1.31-.09h-.08a3.55,3.55,0,0,1-2-1.93,1.27,1.27,0,0,0-.13-.19.17.17,0,0,0,0-.07l.12.17c.06-.34,0-.68,0-1a1.58,1.58,0,0,1,.41-.49.45.45,0,0,0,.11-.19c.26-.32.15-.87.36-1.3a2.41,2.41,0,0,1,.77-.45,2.71,2.71,0,0,1,2.59.18l.64.37a1,1,0,0,0,0-.14l.13,0v0c0,.11.11.23.14.18s.07-.33-.11-.45a0,0,0,0,1,0,0,2.33,2.33,0,0,0,0-.28.66.66,0,0,0-.16-.67,4.12,4.12,0,0,1,.67-2.13,2.63,2.63,0,0,1,.53-.47A1,1,0,0,1,153.89,188.53Zm39,84.66c-.32-.24-.19-.5-.16-.75a4.46,4.46,0,0,1,.48-.61l.12.12A2.93,2.93,0,0,1,193,273Zm2.43-31.32a.79.79,0,0,1,.21.27.75.75,0,0,1-.14.81l0,0a.24.24,0,0,1-.08.06c-.35.22-.73.07-1.38-.56h0c0-.24.11-.47-.11-.66l-.15.09v0l.11-.06-.14-.29-.23-.28a.46.46,0,0,1-.07.07h0l.1-.1a14.59,14.59,0,0,0-1.77-2.14c-.24-.28-.53-.51-.44-.91a4.1,4.1,0,0,1,1.6,1.13C193.72,240.06,194.28,241.17,195.31,241.87Zm-4.15,30.59c0-.16.07-.32.11-.47a.65.65,0,0,0,0-.13,4.84,4.84,0,0,1,.75-1.42h0a3.54,3.54,0,0,1-.3,2.26.83.83,0,0,1-.13.18C191.32,272.84,191.17,272.69,191.16,272.46Zm2.53,1.42-.1,0a2.09,2.09,0,0,1,1-1.77h0l.06,0a3.71,3.71,0,0,1-.66,1.57.48.48,0,0,1-.29.27ZM187.6,200l-.18-.1s0,0,0-.05l.09.05a1.94,1.94,0,0,1,.15-1,1,1,0,0,1,1.78.68h0a1.05,1.05,0,0,1-1,1A2.26,2.26,0,0,1,187.6,200Zm8.77-15.41c.1-.05.25,0,.48.2a2.79,2.79,0,0,1,.61.8.32.32,0,0,1-.48,0A1.16,1.16,0,0,1,196.37,184.55Zm2.35-4a1.28,1.28,0,0,1,.24-.11,4.39,4.39,0,0,1,1.45.28v0a2.41,2.41,0,0,1-1.16.13A1.09,1.09,0,0,1,198.72,180.51Zm-1-27.73a1,1,0,0,0-.28.18.54.54,0,0,1-.47-.32c.24-.27.46-.54.7-.8v-.05l0,0v.08c.2-.05.4-.32.59-.12-.08.34-.48.6-.5,1Zm1.5,2.06-.21.09c-.17,0-.36,0-.46-.1.35-.59.8-1,1.48-.82C199.91,154.39,199.47,154.52,199.26,154.84Zm.37,1c-.21,0-.42,0-.46-.13-.1-.42.27-.45.54-.58a1.4,1.4,0,0,1,.43-.16l.21,0h.51l.06.1a2.43,2.43,0,0,1-1.06.67Zm-3.69-4.15c.32-.36.64-.79.95-1.21.06-.09.11-.2.17-.3l.14-.14a.15.15,0,0,1,.16,0,3.31,3.31,0,0,1-1,2.06.31.31,0,0,1-.16.12h0l-.1,0c-.12-.05-.19-.24-.22-.48h0v0l0,0Zm-.52-1.62a.62.62,0,0,0,.3-.3l.07-.07a5.44,5.44,0,0,1-.38,1.83.41.41,0,0,1-.27.17c-.25,0-.22-.29-.18-.45.1-.35.24-.7.36-1.05A1.13,1.13,0,0,1,195.42,150.1Zm-37.67,32.81-.12.19s0,0,0,0a4.82,4.82,0,0,1-.44.35l-.13.06-.34-.38a2.44,2.44,0,0,0-.51.35l0,0a2.59,2.59,0,0,1,.47-.32c.25-.2.43-.47.76-.54S157.79,182.76,157.75,182.91Zm13.13,46.82h0a.74.74,0,0,0-.37-.53.22.22,0,0,1-.11,0h0l.1,0a3.4,3.4,0,0,0-.76-1l0,0c-.05-.23-.1-.45-.34-.56v0h0a.65.65,0,0,0-.29-.6l0,.06v0l0,0s-.07-.07-.11-.1v0a.37.37,0,0,0,.12.13.44.44,0,0,0-.22-.4.34.34,0,0,0,0,.16l0,0a.45.45,0,0,1,0-.11.2.2,0,0,0-.08-.21h0a4.9,4.9,0,0,0-.71-1.64.45.45,0,0,1,0,.11v0a.45.45,0,0,0,0-.11c-.35-1-.81-2,0-2.89a1.08,1.08,0,0,1,.18-.11,1.06,1.06,0,0,1,1.34.37,4.19,4.19,0,0,1,.68,1,62.46,62.46,0,0,1,3.59,9.43,1.16,1.16,0,0,1,.31.65c-.19.28-.38-.07-.58-.08h0a1.4,1.4,0,0,1-.06-.28,29.64,29.64,0,0,1-2.16-2.33A1.53,1.53,0,0,0,170.88,229.73Zm19.38,13.07c1,.64,1.48,1.75,2.59,2.25a.76.76,0,0,1,.29.93.83.83,0,0,1-.49.54,1.7,1.7,0,0,1-1-.34l-.06,0a2.18,2.18,0,0,0-.72-1.54c-.54-.56-1.1-1.13-1.68-1.68-.31-.29-.69-.54-.69-1A3.7,3.7,0,0,1,190.26,242.8Zm9.1-59c-.39-.21-.91-.25-1.22-.58.39-.39.52-.31,1.15.17.09.08.21.13.27.24s-.06.11-.17.17l.05.06h0Zm.76-1.24-.49-.1-1.26-.62h0v0h0c.07-.24.18-.43.4-.44l.08,0a4.6,4.6,0,0,1,2.06,1.19v0h-.11l-.19,0Zm-2.2-28.78v-.44l0,0h0l0,0a3,3,0,0,0,1-.77h0l.05,0,.53-.21h0C199.28,153.22,199,153.43,197.92,153.74ZM55.67,191.22a.49.49,0,0,0-.24.19l-.06,0a.37.37,0,0,1,.19-.16c-.38-.35-1-.43-1.26-.95,0,0,0,0,0,0a3.8,3.8,0,0,1,.75-2.18l-.09-.11a.85.85,0,0,1,.5-.19c.17.31.29.16.4,0l.11,0,.12,0c.07.5-.14,1,.23,1.5.5-.22.16-.78.5-1,.27.22-.09.77.53.84.27-.47-.14-.94,0-1.4l.13.1a1.72,1.72,0,0,1,.69,1c.2.59.38,1.36,0,1.74-.11.12-.24.22-.36.34a1,1,0,0,0-.39.36,6.44,6.44,0,0,1-.8.57.23.23,0,0,1-.14,0,3.66,3.66,0,0,1-.44-.13ZM60.48,188a3.79,3.79,0,0,1-1.73-.46l-.16-.1h0l-.28-.28a.85.85,0,0,1-.25-.33v0a.72.72,0,0,0,.25.34l.56-.54c-.48-.33-.51-.49-.24-.55a.62.62,0,0,0,.19,0c.15,0,.32,0,.48,0s.41,0,.31-.38l-1.52-.06a.57.57,0,0,1,0,.13h0s0-.07,0-.11,0-.06,0-.08c.35-.42,1-.22,1.56-.55a1.38,1.38,0,0,0-1.14.12.29.29,0,0,1-.41-.06,0,0,0,0,1,0,0c.07-.18.15-.36.23-.54l.1-.09.9-.49.29-.09a1.43,1.43,0,0,0,.58-.12h.12v0l.27,0a.46.46,0,0,1,.18.13,8.46,8.46,0,0,1,1.38,1.66l0,.07a.66.66,0,0,1-.11.67,7.72,7.72,0,0,0-.77,1.23,1.08,1.08,0,0,1-.68.5Zm117.11,8.16c2,.18,2.37.66,2.24,3L180,199s0,.07,0,.1c.34-.14.69-.26,1-.37a1.89,1.89,0,0,1,1.05,0,1.74,1.74,0,0,1,.27.14,3.42,3.42,0,0,1,1.1,1.52c.42,1-.56,2.1-2.41,2.65l0,0c.87.79,1.35,1.61.9,2.69a2,2,0,0,1-.59.77,2.66,2.66,0,0,1-1.92.52h0a.39.39,0,0,0-.14-.05h-.08l-.09,0h.11l-.8-.6h0a2.19,2.19,0,0,0-.51-1,1.22,1.22,0,0,0-.07.17c-.05-.11-.1-.21-.14-.31a2.6,2.6,0,0,1-1.81,1.86l-.17,0a2.87,2.87,0,0,1-1.4-.84,1.38,1.38,0,0,0-.41-.18h-.17s0,0,0,0h.09l-.24-.48c0-.05,0-.1,0-.15a2.83,2.83,0,0,1,1.17-2.53c-2.15-.28-3-1.49-2.08-3l-.1,0v-.24h.11v-.25a3.51,3.51,0,0,1,.27-.4l.06-.05c.74-.51,1.4-.45,2.63.21l.06-.14.36.18a2.48,2.48,0,0,1,.41-2.8.78.78,0,0,1,.15-.1A9.26,9.26,0,0,1,177.59,196.14Zm18.74,40c1,.92,1.47,2.24,2.52,3.15a.64.64,0,0,1,.22.54,1.91,1.91,0,0,0-.13.36.8.8,0,0,1-.15.17c-1.06.22-1.1.17-1.34-.87a.89.89,0,0,0-.24-.53l0,.18V239c-.47-1.31-1.62-2.22-2.21-3.61l.05-.08a.43.43,0,0,1,.16,0C195.65,235.44,196,235.84,196.33,236.16Zm2-51.26a2,2,0,0,1-1.09-1.25h0a1.35,1.35,0,0,1,.73.14c.31.54,1,.85,1.24,1.57a3.41,3.41,0,0,1-.46-.1A3.83,3.83,0,0,1,198.35,184.9ZM75.73,49.31a4.86,4.86,0,0,1-3.79,4.36l-.24.06h0l-.16,0h0a1.66,1.66,0,0,1-.74.24l-.5,0-.22-.07v-.1l.71-.21.64-.16.36-.27v0a.54.54,0,0,0,.5-.33l.72-.74V52h0V52a5.31,5.31,0,0,0,1.29-2.58c.2-.36.47-.34,1.31-.21A.6.6,0,0,1,75.73,49.31ZM65,65.61c.91-.22,1.83-.44,2.69-.74a4.74,4.74,0,0,0,2.21-1.14,5.51,5.51,0,0,0,.75-.7.52.52,0,0,0,.2-.24l.23-.31.06,0s0-.07,0-.1a3.13,3.13,0,0,0,.22-.36l.07-.08-.06,0,0-.06,0,0v0a.35.35,0,0,0,0-.08c-.5,3.54-2.15,4.54-6.46,3.86ZM66.63,267.7c-.22-.11-.18-.3-.1-.5a3.84,3.84,0,0,1,.84-1l0,0,0,0a.14.14,0,0,0,0,.06h.18a3.09,3.09,0,0,1-.57,1.36.86.86,0,0,1-.13.2A.39.39,0,0,1,66.63,267.7ZM173.29,165.4a17,17,0,0,1-3.46-2.92h-.07l0,0h.09l-1.93-2.9,0,0,0-.07h0a13.46,13.46,0,0,1-1.28-7.19,5.9,5.9,0,0,1,.23-.85,1.5,1.5,0,0,1,.1-.32,10.84,10.84,0,0,1,1.32-1.71l.07-.05a4.71,4.71,0,0,1,1.51-.5l.17,0h0a1.54,1.54,0,0,0,.3,0,1.69,1.69,0,0,0,1.69-1.52,4,4,0,0,1,.23-.34,1.72,1.72,0,0,0,.37-.48,7.34,7.34,0,0,1,1.22-1.15l.85-.56a8.21,8.21,0,0,1,1.57-.64l.46-.11a7.34,7.34,0,0,1,6.05,1.37,7.1,7.1,0,0,1,1.83,2.38,1.67,1.67,0,0,0,.68.78.67.67,0,0,0,.58.22h0a1.55,1.55,0,0,0,.31,0,4.21,4.21,0,0,1,3.79,4.21,14.55,14.55,0,0,1-2.49,8.14l-.14.08a11.54,11.54,0,0,1-6.19,4.68s0,0,0-.08c-.21,0-.43.14-.45.31l0,0a1.16,1.16,0,0,1,.65-.5,11.16,11.16,0,0,0,1.73-2.16l0,0c1.66-2.52,2.31-6.19,1.38-7.82,0-.05,0-.1,0-.15l0,.06a.41.41,0,0,0-.05-.09c-.06.13-.09.26-.14.4a29.22,29.22,0,0,0-1.11,3.31,8.26,8.26,0,0,1-1.91,3.14H181c0-.36.07-.7.07-1.05l0,.06a1.29,1.29,0,0,0,0-.19v.12c.72-2,.6-5.44-.3-6.67a.14.14,0,0,0,0,.06s0,0,0,0c-.6,2.25-.7,4.61-1.77,6.86a2.14,2.14,0,0,1-.1.22c-.08.15-.17.3-.26.45s-.25.09-.34-.06v-.07h0a3.35,3.35,0,0,0-.16-1.88,1.33,1.33,0,0,1,0,.19l0-.39a.19.19,0,0,0,0-.08l0,0a7.38,7.38,0,0,0-.09-2.39l-.07,0v-.05l0,0a2.26,2.26,0,0,0,0-.26h0a7.59,7.59,0,0,0-.27-3.48,2.29,2.29,0,0,0-.1.23c0-.08,0-.16,0-.23a5.22,5.22,0,0,0-.62,2.71c-.08,1-.12,2-.18,3s-.12,2-.2,3.23h0a1.69,1.69,0,0,1-.17-.29,1.25,1.25,0,0,0-.22-.41.64.64,0,0,0,0-.07v0h0v0a1.68,1.68,0,0,0-.27-.86s0,0,0,.05h0l0-.06a1,1,0,0,0-.21-.93h0l-.35-4c0-.23,0-.54-.29-.54,0-.14,0-.28-.07-.41-.1.2-.18.41-.26.62a.24.24,0,0,0,0,.09c-.9,2.39-.54,4.84,0,7.3a3.07,3.07,0,0,1-.42-.28l-.49-.53a1,1,0,0,0-.53-.64c-.88-1.71-1.1-3.65-1.8-5.71,0,.09,0,.2-.07.3v0c-1,1.68,0,5.8,2.14,8.56a4,4,0,0,1,.84.69.61.61,0,0,1-.17.25s0,0,0,0h0v0l-.34-.07-.34-.16ZM160.82,278.58a3.27,3.27,0,0,1-.09-2.18c.54,1.23.6,1.64.25,2.29Zm-1.15.28a2.65,2.65,0,0,1-.35-1.26h0a.41.41,0,0,1,.1-.13,1.72,1.72,0,0,1,.52,1.55A.29.29,0,0,1,159.67,278.86Zm2.77-.25s-.23,0-.23-.1a1.9,1.9,0,0,1,0-1.35,1.81,1.81,0,0,1,.3-.32v1.63h0Zm.86-.28c.13-.47.32-.91.49-1.37l.2-.33a.28.28,0,0,1,0-.13,3.45,3.45,0,0,1,0,1.24.62.62,0,0,0-.11.46c0,.14-.1.28-.16.42a.41.41,0,0,1-.27.3C163.21,278.85,163.23,278.54,163.3,278.33Zm25.89-5.65c-.13,0-.23,0-.21-.05a2.6,2.6,0,0,1,0-1.86A2.81,2.81,0,0,1,189.19,272.68Zm-24.08-136,.06,0a.57.57,0,0,1,.22.07.67.67,0,0,1,.19.14h0a1,1,0,0,1,.22.59h0a.52.52,0,0,1,0,.11.84.84,0,0,1-.54.59,1.22,1.22,0,0,1-.33,0h-.12a.6.6,0,0,1-.47-.71A.7.7,0,0,1,165.11,136.71ZM164,139.43c0,.25-.09.51.18.76l.44-.89h0a.9.9,0,0,0,.23,0c0,.46.08.93.08,1.55a1.21,1.21,0,0,0,.33-1.6c.43-.09.86-.19,1.21.31a3,3,0,0,1,.59,2,3.62,3.62,0,0,1-1.92,1.85H165c-.31-.21-.55-.53-.84-.61-1-.3-1.19-1-1.2-1.92a.31.31,0,0,0,.05-.21.69.69,0,0,0,0-.25l0,0a.69.69,0,0,1,0,.25c.34-.34.46-.83.85-1.12Zm-49.54-82c1.07.94,2.57,1.17,3.78,2.11l0,0a1,1,0,0,1-.75.29,3.66,3.66,0,0,1-.55-.21l-.27-.16a15.31,15.31,0,0,1-1.41-.83l-.5-.35-.22-.17c-.46-.35-.9-.72-1.34-1.1A15.83,15.83,0,0,1,111,54.63C112.12,55.6,113.32,56.49,114.41,57.44Zm-6.29-5.18a.82.82,0,0,1-.33-.13l-.2-.34,0-.06a.87.87,0,0,1,.07-.17.87.87,0,0,1,.58-.42.49.49,0,0,1,.39.53C108.68,52,108.45,52.2,108.12,52.26ZM82.48,42.47a10.78,10.78,0,0,1-5-.48l-2-.81h-.16l-.63-.31a.42.42,0,0,1-.11-.22l-.36,0-.19-.12.09-.09.45.09v.06h.31a17.79,17.79,0,0,1,2.59.84l1.06.23a2.08,2.08,0,0,0,.56.13C80.23,42,81.34,42.29,82.48,42.47ZM64.54,46.56l.94-.51a10,10,0,0,1,1.29-.48l.67-.19a10.35,10.35,0,0,1,3.42-.23l.31,0a10.6,10.6,0,0,1,2.38.58c1.07.38,2.13.76,3.17,1.22a5.77,5.77,0,0,1-.58.08,4.18,4.18,0,0,0-.71.09A7.44,7.44,0,0,1,73.67,47a10.32,10.32,0,0,0-2.29-.78,3.2,3.2,0,0,0-2-.06,5.61,5.61,0,0,0-.59.06h0a1.39,1.39,0,0,0-.67.13l-.93.17-.43.08c-.33.07-.65.15-1,.24l-.81.14,0,.08-.78.21a1.52,1.52,0,0,1-.78.36.64.64,0,0,1-.28-.15,1.51,1.51,0,0,1,.78-.5c.22-.15.45-.28.67-.41ZM61.13,63v-.14a11.62,11.62,0,0,0,2.35,0h.06a8.8,8.8,0,0,0,2.12-.46,7.67,7.67,0,0,0,.9-.36v0l0,0,0,.15a.85.85,0,0,0,.68-.46l0,0c.2-.13.4-.28.6-.44l.68-.46.29-.41.1-.09h0l.22-.12a5.35,5.35,0,0,1-3.59,3,3.44,3.44,0,0,0-.55.15A6.49,6.49,0,0,1,61.13,63Zm-3.8,58.45a4.64,4.64,0,0,0,.44-.23,4.85,4.85,0,0,1,.75-.29c.1,0,.23-.1.34-.13a.83.83,0,0,1,.21.06.71.71,0,0,1,.1.46c0,.58.52-.34,1-.06a1.18,1.18,0,0,0-.55,1.15v.05a12.82,12.82,0,0,0,.55,1.49c.13.41.27.47.41.39s.28-.06.4,0c-.18.57-.39,1.12.38,1.56.17,0,.26-.11.35-.26a.59.59,0,0,0,0-.08c.12-.21.24-.43.55-.39s.17.43.07.65c-.35.66-.69,1.31.37,1.73a.54.54,0,0,0,.16-.1c.16-.05.27-.24.37-.4l.19-.35a.56.56,0,0,1,.24-.13.94.94,0,0,1-.17.84.82.82,0,0,0,.33,1.27c.53.31.58-.08.72-.37a.53.53,0,0,1,.28-.16c.19.34-.09.77,0,1s.3.38.52.49.34,0,.4-.14.23-.43.31-.54.07-.41.29-.46c.25.4,0,.79,0,1.13,0,0,0,0,0,.07a.63.63,0,0,0,.52.72c.29.07.38-.1.44-.29l.07-.11c.27-.35.26-.93.77-1.17a3.53,3.53,0,0,1-.17,1.33c-.08.3-.18.6.23.73a.5.5,0,0,0,.17,0c.46.16.48-.35.64-.6a2.25,2.25,0,0,0,.19-.57,1.47,1.47,0,0,1,0-.21v0a1,1,0,0,0,0,.24.44.44,0,0,1,.18.18.44.44,0,0,1-.08.1h0c.21.42-.5,1.17.39,1.32a.44.44,0,0,0,.34,0l.19-.08.06,0c.36-.21.32-.57.35-.92a.21.21,0,0,0,0-.2c.13-.23.33-.47.33-.66v-.17s0-.05.06-.07a7,7,0,0,1,.12,1.94.44.44,0,0,0,.4.5.32.32,0,0,0,.31-.17c.14-.07.17-.23.22-.37a7.2,7.2,0,0,1,.49-1.76,7.1,7.1,0,0,1,.18,1.84c0,.26,0,.53.37.53s.68,0,.81-.36a.66.66,0,0,0,.16-.36c0-.26-.08-.6.21-.78a1.93,1.93,0,0,1,.18.78c.06.31.3.57.59.49a.77.77,0,0,0,.56-.38,1.12,1.12,0,0,0,.12-.5c0-.36.06-.75.07-1.13.42.42.33,1,.55,1.47l.24,0a.48.48,0,0,0,.23,0c.48-.15,1.07-.34.77-1.06h0v0c0-.13,0-.28,0-.45a1.24,1.24,0,0,1,0-.38c.22.1.25.33.34.51a6.28,6.28,0,0,1,.25.73,1.32,1.32,0,0,0,.42-.16.52.52,0,0,0,.39-.4,4,4,0,0,0,.05-.6,1.08,1.08,0,0,1-.18-.24,1.05,1.05,0,0,1,0-.4l.08.08c.44.11.07,1.07.76.84a1,1,0,0,0,.32-.18.5.5,0,0,0,.21-.27c.16-.38-.1-.75-.1-1.11a.62.62,0,0,1,0-.27c.43.06.35.83.88.7l0,0c.16,0,.17-.2.17-.36l.07-1-.13-.17s.09,0,.14,0v.08a.07.07,0,0,1,.06,0,1.38,1.38,0,0,0,.21.21c.1.16.2.26.32-.19,0-.16.06-.3.18-.34a.47.47,0,0,0,.17,0l.26,0a2.79,2.79,0,0,1,.37.14l.15.08h0a2.77,2.77,0,0,1,.75,1,5.21,5.21,0,0,1-.21,5.46,5,5,0,0,1-3.36,2.28,2,2,0,0,0-.74.06,4.85,4.85,0,0,1-.66,0,9.38,9.38,0,0,1-1.06-.18h0a1.47,1.47,0,0,0-.27,0,.4.4,0,0,0-.45.28,4.43,4.43,0,0,1-1.22,1.81,3.37,3.37,0,0,1-.49.3l-1.48.94-.73.32a10.58,10.58,0,0,1-1.23.44,12.54,12.54,0,0,1-4.19.2,30.07,30.07,0,0,1-3.08-.89l-.1,0a.33.33,0,0,0-.31-.18l-.49-.3a3,3,0,0,1-.3-.19l-2-1.93h0a22.27,22.27,0,0,1-1.35-2.67,1.29,1.29,0,0,1,0-.19A2.29,2.29,0,0,0,58,130.51l-.37,0-.07,0h0l-2.16-1.65,0-.05h0c-1.41-2.31-1.05-4.25.89-6.55A6.19,6.19,0,0,1,57.33,121.42Zm-12.76,77.9.27.34a2.06,2.06,0,0,1-.38.56.91.91,0,0,1-.22.22l-.35-.1a1.7,1.7,0,0,1-.12-.38,1.3,1.3,0,0,0,.22-.19.53.53,0,0,0,.23,0Zm4.33,27.75c0,.63.36,1.39-.32,2-.1,0-.15-.19-.11-.45V228h0l.25-.62C48.77,227.3,48.83,227.19,48.9,227.07Zm-2.68,2a1.2,1.2,0,0,1-.25-.55.62.62,0,0,1-.16-.66.53.53,0,0,0,0-.25v-.31h0v-.45c0-.06,0-.11,0-.17l0,0C46.22,227.36,46.74,228.09,46.22,229Zm1-1.38h0l.1-.35a1.47,1.47,0,0,1,.4,1.4,1,1,0,0,1-.45.11,1.22,1.22,0,0,1-.06-.26h0Zm-2.16,1.68h0c-.16-.56-.76-1.06-.31-1.68a3.38,3.38,0,0,1,.51,1.69h-.24Zm-1.35-29.43c-.13-.08-.31,0-.47,0-.28-.63.15-1.06.49-1.57C44.12,198.91,43.4,199.4,43.71,199.89Zm.74-.66h0l.16-.2Zm-3.47,0a.21.21,0,0,1-.14,0c-.33-.09-.21-.5-.16-.79a1.34,1.34,0,0,1,.27-1.08A3.07,3.07,0,0,1,41,199.24Zm-1.2-.11a.22.22,0,0,1-.06.16c-.75-.07-.53-.73-.64-1.19l0,0c0-.3.07-.66.12-1.12A3.32,3.32,0,0,1,39.78,199.13Zm22.33,67.53a.35.35,0,0,1-.37-.36,6.24,6.24,0,0,1,0-1.88A2.7,2.7,0,0,1,62.11,266.66Zm17.08-38.37a.66.66,0,0,1-.27-.06,1.14,1.14,0,0,1-.42-.32v-.43l.08-.07c.9-1.12.79-2.48.84-3.8h0a3.72,3.72,0,0,0,.08-.57s0,0,0-.05v0a.69.69,0,0,1,.23-.13,1.75,1.75,0,0,1,.38,1.2c.15,1.2-.31,2.36-.17,3.57a.88.88,0,0,1-.06.27.7.7,0,0,1-.35.33Zm97.52-57.6a10.38,10.38,0,0,0-5.2,7.57,6.68,6.68,0,0,0,.2,4.17c.07-.14.13-.28.19-.42l.14.22a6.33,6.33,0,0,0,.63-2.59h0a21.82,21.82,0,0,1,1.74-3.77l.05-.07c.29-.16.38-.57.77-.65-.59,2.82-.84,5.38.05,8a1.16,1.16,0,0,0,0-.18c.06.12.1.25.16.37a7.22,7.22,0,0,0,.43-2.84l0,0,.11-.84v0a2,2,0,0,0,.3-1.22l.78-2.36h0a1.27,1.27,0,0,0,.36-.71.54.54,0,0,0,.07-.13h.06c.68,3,.19,6,.83,8.81l.06-.22c0,.1,0,.19.05.17.2,0,.21-.15.21-.29h0a.27.27,0,0,0,.05-.23v0a4.94,4.94,0,0,0,.4-2.28c.11-1.58.14-3.17.25-4.76,0-.37-.1-.78.11-1.08a22.62,22.62,0,0,1,1.26,6.49h0c-.06.09-.09.09-.05.29s-.16.53.18.59c.19,0,.3-.19.35-.38a1.89,1.89,0,0,0,.32-1.14h-.1a.64.64,0,0,0,0-.07h0a7,7,0,0,0,.29-3.37c-.07-1-.21-1.94-.35-3.13,2.16,1.83,2.28,4.52,3.09,7,.05-.14.09-.29.13-.43,0,0,.06.11.1.17.74-2.45-.34-6.25-2.23-8.34l-.31-.09h0a3.82,3.82,0,0,0,.38.11,3.2,3.2,0,0,0-1.68-1.37h0a.53.53,0,0,0-.06-.24h-.28a.37.37,0,0,0,.34.25l0,.05,0,0s0,0,0,0a.44.44,0,0,1-.15-.05l-.1-.07a.54.54,0,0,1-.09-.12.37.37,0,0,0-.2-.07h0A.7.7,0,0,0,180,171h-.17l-.27-.11h-.24a2.73,2.73,0,0,1-.61-.32,1.91,1.91,0,0,1,1.93.22l0,0c5.72,1,9.47,4.38,11.76,9.56a6.62,6.62,0,0,1,.52,3.11,5.46,5.46,0,0,1-.09.79,5,5,0,0,1-5.9,4h-.12a.6.6,0,0,0-.83.17,1.15,1.15,0,0,0-.48.56,8.75,8.75,0,0,1-4.27,3.81,12.94,12.94,0,0,1-3.6.67,8.52,8.52,0,0,1-.87-.08l-2.26-.66-.23-.11a.34.34,0,0,0-.28-.18s0,0,.05.07l-.06,0s0,0,0,0a.26.26,0,0,0-.19-.09h0a3.41,3.41,0,0,0-1.21-1c0,.05,0,.09,0,.14h0s0,0,0-.06l0,0,0,0,.05,0a9.21,9.21,0,0,0-1.42-1.57,2,2,0,0,0-2.72-1.55,6.47,6.47,0,0,1-.88,0l-.49-.08a2.87,2.87,0,0,1-.51-.23,16.19,16.19,0,0,1-1.89-1.19l-.06.08,0,0,.07-.1a5.52,5.52,0,0,1-1.4-4,19.6,19.6,0,0,1,.56-2.55c0-.11.09-.21.14-.32a1.49,1.49,0,0,0,.31-.66.54.54,0,0,1,.05-.11,6.1,6.1,0,0,0,.88-1.47v0l0,0,1-1.44h0a1,1,0,0,0,.37-.43l.11-.12a9.82,9.82,0,0,0,1.3-1.28l.32-.27a3.17,3.17,0,0,0,.58-.46A13.3,13.3,0,0,1,176.71,170.69ZM197.54,199h0c0-.16.08-.4-.18-.4,0,0,0,0-.06.08l-.05-.08a4,4,0,0,1-1.56,1.4,4.3,4.3,0,0,1-.88,0l-.07,0-.57-.6a.55.55,0,0,1-.22,0h0a.83.83,0,0,0,.22,0,2,2,0,0,1-.46-2l0-.05c.3-.25.73-.43.68-.84,0-.2-.42-.1-.66-.09l0,0h0l-.25-.11-.07,0a2,2,0,0,1-1-1.72s0,0,0-.07v0a.38.38,0,0,0,.25-.32h-.14v0h.11a1.19,1.19,0,0,0,.15-.55,2.19,2.19,0,0,1,.27-.39,2.53,2.53,0,0,1,.94-.4,3.93,3.93,0,0,1,1.28.37l0-.15a.33.33,0,0,0,.26,0c-.09-1.41.08-2.14,1.48-2.41l.16,0v0h.09l.31,0c1-.07,1.41.7,1.41,2.45.11,0,.22-.06.33-.09a0,0,0,0,0,0,0,3.23,3.23,0,0,1,1.44-.23,1,1,0,0,1,.34.16,3.32,3.32,0,0,1,1,1.27c.37.78-.46,1.78-2,2.36l0,0c1.1,1.53,1.06,2.31-.12,3.07a3.29,3.29,0,0,1-.64.3C198.68,200.18,198.34,199.93,197.54,199ZM266,170.55h0v0Zm-14.77,3.83a27.47,27.47,0,0,1-5.75,2.21,12.64,12.64,0,0,1-1.36.43,3.71,3.71,0,0,1-.67,0,.67.67,0,0,1-.3.18l-.48.07h-.12c-.4,0-.8.08-1.2.1h0a19.57,19.57,0,0,0,2.18-.68v0a3.6,3.6,0,0,0,.85-.31,5.5,5.5,0,0,1,.58-.16l.12-.06h0l.24-.13.25-.12a4.31,4.31,0,0,0,.74-.38l.5-.27.09-.05.21-.12a.23.23,0,0,0,.17-.1h0l1-.58a8.58,8.58,0,0,0,2.34-1.66l.42-.35a2.33,2.33,0,0,0,.51-.43c.34-.3.67-.61,1-.92a13.6,13.6,0,0,0,1.93-2.08c.24-.29.47-.58.7-.88a.87.87,0,0,0,.09-.11c.17-.23.33-.47.5-.71a8.58,8.58,0,0,0,1.57-2.5h0l0,0,0,0a2.17,2.17,0,0,0,.64-1.21v0a.53.53,0,0,0,.24-.47l.06-.05a.44.44,0,0,0,.09-.27l0,0,.19-.4a14,14,0,0,0,1.6-4.3v0h0v0a7.24,7.24,0,0,0,.75-2.89l0-.14h.06a7,7,0,0,0,.48-2.69l-.05,0a20.93,20.93,0,0,0,.25-7c0-.34-.05-.69-.08-1a3.18,3.18,0,0,0-.16-1.59c-.08-.64-.18-1.29-.29-1.93a29.4,29.4,0,0,0-1-4.56c-.13-.51-.27-1-.41-1.51v0a29.88,29.88,0,0,0-1.83-5.53l-.06.05v0a.18.18,0,0,1,.07-.05,1.76,1.76,0,0,0-.47-1h0a3.58,3.58,0,0,0-.6-1.47h0v0h0a1.68,1.68,0,0,0-.47-1l-.06-.12c-.07-.17-.15-.34-.23-.51a.53.53,0,0,0,0-.25c-.32-.24-.37-.64-.58-1a1.63,1.63,0,0,1,.1-.29,2.5,2.5,0,0,1,.75,1,33,33,0,0,1,6.86,12.61,31.77,31.77,0,0,1,.92,8.41A59.92,59.92,0,0,1,262,160.78a21.36,21.36,0,0,1-10.53,13.47Zm-13.08-1.94.41-.31.21-.28.33-.32a1.17,1.17,0,0,0,.46-.42l.12-.12a1.06,1.06,0,0,0,.54-.56h0a5.55,5.55,0,0,0,1.51-1.62l.25-.27.18-.23a4.44,4.44,0,0,0,1-1.28v0l0,0v0a.65.65,0,0,0,.35-.5l.44-.64a21.77,21.77,0,0,0,3.34-6.43v0h0v0a11.11,11.11,0,0,0,1-3.17c.06-.22.12-.44.17-.66a9.52,9.52,0,0,0,.72-3.69h0a26.46,26.46,0,0,0,.34-5.69l-.1-.2V146l.11.22a3.69,3.69,0,0,0-.12-2.13h0a10.72,10.72,0,0,0-.37-3.33h0v-.05l0,0a3.85,3.85,0,0,0-.24-1.81l-.06,0v0a.11.11,0,0,0,.06,0,14.83,14.83,0,0,0-.67-3.36l0,0v0l0,0a12.85,12.85,0,0,0-.73-3.36h0a1.11,1.11,0,0,0-.23-.88s0-.06,0-.08a.39.39,0,0,0-.05-.28l0,0a.29.29,0,0,0-.11-.19l-.06-.09a3.31,3.31,0,0,0-.48-1.87h0a.27.27,0,0,0-.09-.12h0l0-.13.1.05a3.36,3.36,0,0,0-.48-1.58l0,.16a.74.74,0,0,0,0-.14,3.15,3.15,0,0,0-.33-1.12h0l0-.1.1,0c-.07-.26-.14-.55-.22-.85a8.62,8.62,0,0,1-.64-1.57l-.06-.1.14-.13a21.56,21.56,0,0,1,1.11,2.12,58,58,0,0,1,6,14.3c2,7.66.85,14.92-2.58,21.87a26.91,26.91,0,0,1-7.57,9.49c-.27.22-.54.42-.82.62a18.93,18.93,0,0,1-2,1.18l-.11.11c-.35.18-.7.34-1.06.5a1.28,1.28,0,0,1-.26.2l-.19,0a.49.49,0,0,1-.28.21h0c-.06,0-.12-.06-.17-.14.14-.18.28-.34.55-.29C237.63,172.91,237.87,172.67,238.12,172.44Zm16.38-50h0v0h0Zm-1.69-3a1.42,1.42,0,0,1-.79,1.07c-1.38.09-1.56-.08-1.94-1.52.48-.62.75-1,1-1.06a1.46,1.46,0,0,1,.51,0,1.45,1.45,0,0,1,1.17,1.52h0Zm2.57,3.91s0,0,0,.06A.07.07,0,0,1,255.38,123.37Zm-8.19,7.9a.65.65,0,0,1,0,.13h0S247.18,131.31,247.19,131.27Zm8.21-7.82,0,0ZM253.16,106a1.52,1.52,0,0,1-1.29-.58h-.06a4.27,4.27,0,0,1,0-1.47l0,0h0v0h0v0l.92-.54s0,0,0,0h0l.55.08a1.26,1.26,0,0,1,.79,1.36h0A1.22,1.22,0,0,1,253.16,106ZM241,115.44h.07a.6.6,0,0,1,.61.6.68.68,0,0,1-.31.57c-.35,0-.66,0-.74-.51a.53.53,0,0,1,.33-.66Zm22.21,59.43h.05a.05.05,0,0,0,0,0,.16.16,0,0,1,0,.07h-.1Zm7.91-22.17Zm-1.87-17.35,0,0,0,0ZM166.7,134a2.68,2.68,0,0,1-.72,1.24,1.15,1.15,0,0,1-.87-.09h-.28a1.28,1.28,0,0,1-.59.42,1.89,1.89,0,0,1-.41-.1,1,1,0,0,1-.28-.32,2.32,2.32,0,0,1-.78-1.81,1.19,1.19,0,0,1,.33-1l.18-.15a.72.72,0,0,1,.24-.14l0,0a2.06,2.06,0,0,1,1.33-.73C166,131.62,167.05,133.05,166.7,134Zm-51.84-11.75a5.18,5.18,0,0,1,2.38,4.93,5,5,0,0,1-3.43,4.4,7.2,7.2,0,0,1-.92.25.77.77,0,0,0-.23.06l-.24.06a5.19,5.19,0,0,1-.82,3.4.19.19,0,0,0-.07.13,16.33,16.33,0,0,1-1.36,1.77c-.13.15-.28.29-.42.44s-.18.18-.28.26l0,0a10.49,10.49,0,0,1-4.67,2.34h0l-.11,0a.86.86,0,0,0-.27,0,8.39,8.39,0,0,1-1,.13l-3.43-.27a7.69,7.69,0,0,1-1.88-.83l-1.4-1.1h0l0,0-.53-.55a9.81,9.81,0,0,1-.69-.85.7.7,0,0,0-.08-.1c-.25-.42-.48-.87-1.19-.69a10.37,10.37,0,0,1-3.6,0l-.51-.17a6,6,0,0,1-2.3-2.08c0-.12-.1-.25-.14-.38a11.6,11.6,0,0,1-.1-3.38,5.8,5.8,0,0,1,2.12-3.13c.2.52.45,1,.68.47.09-.1.14-.28.28-.37.17.3,0,.54,0,.77s.05.65.24.65c.93-.13.69,1.11,1.43,1.15.09,0,.27,0,.27-.08a2,2,0,0,1,.15-.32h0c.13-.21.21-.09.19.39,0,.65.39.86.92,1a.46.46,0,0,0,.16-.18c.09,0,.15-.14.19-.34s.08-.36.11-.54l.08,0c.36,0,.36.3.36.55-.08.79,0,1.4,1,1.4a.49.49,0,0,0,.14-.19c.16-.14.12-.42.11-.67a.58.58,0,0,1,.17-.29h0a.45.45,0,0,1,.18-.1c.11.82.17,1.2.37,1.41a.32.32,0,0,0,.1.1h0a.78.78,0,0,0,.48.17l.38.07a.52.52,0,0,0,.11-.35c0-.19,0-.44.07-.62a.3.3,0,0,1,.06-.11.58.58,0,0,1,.34.55c.07.74.48.91,1.17.68a1.7,1.7,0,0,1,0-.22c.2-.26-.06-.7,0-1,0,0,.08-.08.15-.12.32.24.3.6.41.92s.27.66.72.58c.23,0,.3-.17.31-.31a.66.66,0,0,0,.08-.34,3.89,3.89,0,0,1,.1-1.4c.32.36.25.79.43,1.33s.32.58.57.49a.58.58,0,0,0,.29-.06l0-.17.05-.05,0,.23c.37-.14.3-.35.1-.6l-.06.36s0-.08,0-.12l0-.21h0a.51.51,0,0,0,0-.3.58.58,0,0,1-.14-.12v0a.38.38,0,0,0,.16.14c.07-.23,0-.51.18-.72a1.12,1.12,0,0,1,.11.25,1.39,1.39,0,0,0,.1.33,1.57,1.57,0,0,1,0,.53c.15.47.48.42.84.26a.24.24,0,0,0,.11-.08,1.27,1.27,0,0,1,.28,0c-.06-.61-.12-1.14-.17-1.68-.14-.21-.32-.46-.16-.65a4.59,4.59,0,0,1,1,1.64c.09.2.23.34.47.27l.07,0,0,0h0c.79-.31-.06-.95-.06-1.45h0c0-.28-.09-.57-.17-1a1.9,1.9,0,0,1,.68.85,11.83,11.83,0,0,1,.53,1.07l.16-.06c.21.17.45,0,.72-.11a1.62,1.62,0,0,0-.22-1.45l-.06-.2c.34-.16.29.12.54.31s.29.63.68.52c.58,0,.87-.29.61-1-.11-.28-.23-.56-.37-.84l-.25-.17-.12-.1c0-.11-.07-.22-.11-.34a.09.09,0,0,1,0,0l0,0a1.17,1.17,0,0,1,.84.77c.3.45.58.63.88.46a.86.86,0,0,0,.44-.31.84.84,0,0,0,.14-1.07c-.29-.22-.74-.5-.34-.84,0,0,0,0,0,0,.31.24.5.67.88.71s.4-.16.44-.47-.17-.59-.34-.85a.2.2,0,0,1,0-.07c.31-.2.48.34.76.2l0,0a1.42,1.42,0,0,0,.25-.31.56.56,0,0,0,0-.08.43.43,0,0,0,0-.07h0a.81.81,0,0,0-.14-.85c-.28-.17-.68-.28-.72-.76a1.09,1.09,0,0,1,1.06.55.39.39,0,0,0,.15-.06.38.38,0,0,0,.09-.52l0,0c0-.33-.27-.58-.5-.84l-.11-.19a1.6,1.6,0,0,0,.53-.09c.59-.43.93-.63,1.28-.62l.18,0A2.67,2.67,0,0,1,114.86,122.25Zm-14.43,58.41a25.27,25.27,0,0,0-4.51,2.24,3.11,3.11,0,0,0-.38.25,29.13,29.13,0,0,0-7.08,6.71l-.55.71h0c-.13.27-.26.49-.47.87h-.06l-.09,0c0-.42,0-.68.3-.84l.21-.63,1.38-3.35c0-.09.09-.17.13-.26a.8.8,0,0,0,.35-.54h0a.91.91,0,0,0,.3-.57l0-.06h0a.7.7,0,0,0,.34-.55h0a.56.56,0,0,1,0-.08,4.06,4.06,0,0,0,.64-.95c.19-.26.37-.51.57-.77h0a.63.63,0,0,0,.35-.44l.13-.15a.39.39,0,0,0,.2-.22h0a1.41,1.41,0,0,0,.61-.62h0l.94-.84h0a2.52,2.52,0,0,0,.76-.58c.23-.14.46-.29.69-.41l.15-.07a10.84,10.84,0,0,1,2.09-.83l.08,0a16.81,16.81,0,0,1,3.6-.56,13.68,13.68,0,0,1,1.57,0h.06a16.39,16.39,0,0,1,4.44.8,2.08,2.08,0,0,0,0,.23.8.8,0,0,1-.26.09,3.08,3.08,0,0,0-1.5.2l-.3,0a1.26,1.26,0,0,0-.94.19c-.19,0-.38.07-.57.12A16.47,16.47,0,0,0,100.43,180.66ZM120.59,91l0,0v0s0,0,0,0A.25.25,0,0,0,120.59,91ZM118,50.21l0,0,0,0Zm64.28,200.28h0a.38.38,0,0,1-.17-.12h0A.43.43,0,0,0,182.27,250.49Zm13.28-24.84,0-.05S195.58,225.65,195.55,225.65Z"/>
          <path class="cls-22" d="M279.91,130.8a.74.74,0,0,0-.24-.67A.61.61,0,0,0,279.91,130.8Z"/>
          <path class="cls-23" d="M211.86,240.83v0a.27.27,0,0,0-.23-.29Z"/>
          <path class="cls-24" d="M267,114.28l.25.3A.3.3,0,0,0,267,114.28Z"/>
          <path class="cls-25" d="M267.26,114.62l.25.28A.26.26,0,0,0,267.26,114.62Z"/>
          <path class="cls-26" d="M267.83,115.25l.3.27A.31.31,0,0,0,267.83,115.25Z"/>
          <path class="cls-27" d="M235.7,136.15a.42.42,0,0,0,.16.41A.39.39,0,0,0,235.7,136.15Z"/>
          <path class="cls-28" d="M130.72,157.37c-.18,0-.45-.05-.45.09s.26.15.45.15Z"/>
          <path class="cls-29" d="M187.87,164.84a.45.45,0,0,0-.36.25A.38.38,0,0,0,187.87,164.84Z"/>
          <path class="cls-30" d="M189.09,163.67l-.29.31A.37.37,0,0,0,189.09,163.67Z"/>
          <path class="cls-31" d="M198.69,195.46h-.14v0h.14c-.09-.4.22-.88-.26-1.18v.05a.5.5,0,0,0-.58-.18,6.15,6.15,0,0,0-.71.18.66.66,0,0,0-.65-.12.56.56,0,0,0-.41.14,14,14,0,0,1-.64,1.78c-.11.15,1.46,1.47,1.78,1.47a1.18,1.18,0,0,0,.36-.17l.13-.09a6.46,6.46,0,0,0,.79-.65.25.25,0,0,1,.12,0s.14,0,.14,0C199.36,196.19,199.23,195.81,198.69,195.46Z"/>
          <path class="cls-32" d="M200.79,194.48s-.15-.18-.15-.18c-.27.09-.54.17-.54.63C200.41,194.84,200.68,194.81,200.79,194.48Z"/>
          <path class="cls-33" d="M194.17,194.63v-.32a2.32,2.32,0,0,0-.38.06C193.77,194.63,194,194.56,194.17,194.63Z"/>
          <path class="cls-34" d="M193.42,241.23l.22.28A.28.28,0,0,0,193.42,241.23Z"/>
          <path class="cls-35" d="M156.9,199.89a1.74,1.74,0,0,0,0,.39l-.2-.17c.29.59.44,1.16,1.09,1.49-.06-.18-.1-.31-.14-.42a.84.84,0,0,0,.21.11A2,2,0,0,0,156.9,199.89Z"/>
          <path class="cls-36" d="M156.9,199.86l0,0s0,0,0,0h0l0,0s0,0,0,0Z"/>
          <path class="cls-37" d="M151.74,200.79H152c.4-.29.39-.67.23-1.13Z"/>
          <path class="cls-38" d="M150.23,194.64l-.58-.1h0c-.29-.3-.6-.5-1-.19,0,0,0,.05,0,.08a.38.38,0,0,0-.1,0l.18.11a.73.73,0,0,0,.55.27,2.44,2.44,0,0,0,.81.11l.1,0h0c.11.17.32.37.43.1S150.48,194.69,150.23,194.64Z"/>
          <path class="cls-39" d="M151.81,201.28c.2,0,.2-.3.2-.49a1.22,1.22,0,0,1-.27,0C151.67,201,151.62,201.26,151.81,201.28Z"/>
          <path class="cls-40" d="M156.7,199.75l.17.09C156.85,199.76,156.89,199.59,156.7,199.75Z"/>
          <path class="cls-41" d="M90,72.76l-.4.23A.46.46,0,0,0,90,72.76Z"/>
          <path class="cls-42" d="M164.1,135.18h.15c-.11-.37.17-.8-.25-1.14-.27.4,0,.78,0,1.14Z"/>
          <path class="cls-43" d="M75.26,92.68c0-.14-.13,0-.13,0v.12h.08S75.31,92.81,75.26,92.68Z"/>
          <path class="cls-44" d="M46,228.47a.67.67,0,0,0-.16-.66A.66.66,0,0,0,46,228.47Z"/>
          <path class="cls-45" d="M73.12,94.68a.64.64,0,0,0,.58-.2C73.49,94.5,73.24,94.43,73.12,94.68Z"/>
          <path class="cls-46" d="M181.86,200.46c-.22-.13-.41.15-.55.35h.38C181.88,200.72,182.08,200.6,181.86,200.46Z"/>
          <path class="cls-47" d="M177.94,197.53c-.34,0-.28.29-.29.51A.56.56,0,0,0,177.94,197.53Z"/>
          <path class="cls-48" d="M166,140.34c0-.2.08-.57-.17-.5s-.22.48,0,.72C165.92,140.49,166,140.53,166,140.34Z"/>
          <path class="cls-49" d="M76.41,51.4l.25-.39A.48.48,0,0,0,76.41,51.4Z"/>
          <path class="cls-50" d="M55.39,182.5a.84.84,0,0,0,.08,1.09A1.77,1.77,0,0,0,55.39,182.5Z"/>
        </g>
      </g>
    </g>
  </g>
</svg>
