<svg xmlns="http://www.w3.org/2000/svg" xmlns:xlink="http://www.w3.org/1999/xlink" width="324" height="324" viewBox="0 0 324 324">
  <defs>
    <style>
      .cls-1 {
        opacity: 0;
      }

      .cls-2 {
        fill: none;
      }

      .cls-3 {
        fill: url(#Degradado_sin_nombre_34);
      }

      .cls-4 {
        fill: url(#Degradado_sin_nombre_34-2);
      }

      .cls-5 {
        fill: url(#Degradado_sin_nombre_34-3);
      }

      .cls-6 {
        fill: url(#Degradado_sin_nombre_34-4);
      }

      .cls-7 {
        fill: url(#Degradado_sin_nombre_34-5);
      }

      .cls-8 {
        fill: url(#Degradado_sin_nombre_34-6);
      }

      .cls-9 {
        fill: url(#Degradado_sin_nombre_34-7);
      }

      .cls-10 {
        fill: url(#Degradado_sin_nombre_34-8);
      }

      .cls-11 {
        fill: url(#Degradado_sin_nombre_34-9);
      }

      .cls-12 {
        fill: url(#Degradado_sin_nombre_34-10);
      }

      .cls-13 {
        fill: url(#Degradado_sin_nombre_34-11);
      }

      .cls-14 {
        fill: url(#Degradado_sin_nombre_34-12);
      }

      .cls-15 {
        fill: url(#Degradado_sin_nombre_34-13);
      }

      .cls-16 {
        fill: url(#Degradado_sin_nombre_34-14);
      }

      .cls-17 {
        fill: url(#Degradado_sin_nombre_34-15);
      }

      .cls-18 {
        fill: url(#Degradado_sin_nombre_34-16);
      }

      .cls-19 {
        fill: url(#Degradado_sin_nombre_34-17);
      }

      .cls-20 {
        fill: url(#Degradado_sin_nombre_34-18);
      }

      .cls-21 {
        fill: url(#Degradado_sin_nombre_34-19);
      }

      .cls-22 {
        fill: url(#Degradado_sin_nombre_34-20);
      }

      .cls-23 {
        fill: url(#Degradado_sin_nombre_34-21);
      }

      .cls-24 {
        fill: url(#Degradado_sin_nombre_34-22);
      }

      .cls-25 {
        fill: url(#Degradado_sin_nombre_34-23);
      }

      .cls-26 {
        fill: url(#Degradado_sin_nombre_34-24);
      }

      .cls-27 {
        fill: url(#Degradado_sin_nombre_34-25);
      }

      .cls-28 {
        fill: url(#Degradado_sin_nombre_34-26);
      }

      .cls-29 {
        fill: url(#Degradado_sin_nombre_34-27);
      }

      .cls-30 {
        fill: url(#Degradado_sin_nombre_34-28);
      }

      .cls-31 {
        fill: url(#Degradado_sin_nombre_34-29);
      }

      .cls-32 {
        fill: url(#Degradado_sin_nombre_34-30);
      }

      .cls-33 {
        fill: url(#Degradado_sin_nombre_34-31);
      }
    </style>
    <linearGradient id="Degradado_sin_nombre_34" data-name="Degradado sin nombre 34" x1="95.04" y1="302.18" x2="95.85" y2="302.18" gradientTransform="translate(-6 -94)" gradientUnits="userSpaceOnUse">
      <stop offset="0.05" stop-color="#957e41"/>
      <stop offset="0.21" stop-color="#d8bc63"/>
      <stop offset="0.49" stop-color="#dfc46b"/>
      <stop offset="0.74" stop-color="#c6a95a"/>
      <stop offset="0.98" stop-color="#7a6834"/>
    </linearGradient>
    <linearGradient id="Degradado_sin_nombre_34-2" x1="92.34" y1="257.28" x2="93.57" y2="257.28" xlink:href="#Degradado_sin_nombre_34"/>
    <linearGradient id="Degradado_sin_nombre_34-3" x1="206.6" y1="315.29" x2="207.39" y2="315.29" xlink:href="#Degradado_sin_nombre_34"/>
    <linearGradient id="Degradado_sin_nombre_34-4" x1="207.69" y1="310.68" x2="209.08" y2="310.68" xlink:href="#Degradado_sin_nombre_34"/>
    <linearGradient id="Degradado_sin_nombre_34-5" x1="204.34" y1="307.62" x2="204.68" y2="307.62" xlink:href="#Degradado_sin_nombre_34"/>
    <linearGradient id="Degradado_sin_nombre_34-6" x1="252.69" y1="216.65" x2="254.1" y2="216.65" xlink:href="#Degradado_sin_nombre_34"/>
    <linearGradient id="Degradado_sin_nombre_34-7" x1="259.24" y1="221.47" x2="260.25" y2="221.47" xlink:href="#Degradado_sin_nombre_34"/>
    <linearGradient id="Degradado_sin_nombre_34-8" x1="255.25" y1="221.5" x2="255.54" y2="221.5" xlink:href="#Degradado_sin_nombre_34"/>
    <linearGradient id="Degradado_sin_nombre_34-9" x1="186.44" y1="318.07" x2="190.95" y2="318.07" xlink:href="#Degradado_sin_nombre_34"/>
    <linearGradient id="Degradado_sin_nombre_34-10" x1="183.77" y1="316.54" x2="185.7" y2="316.54" xlink:href="#Degradado_sin_nombre_34"/>
    <linearGradient id="Degradado_sin_nombre_34-11" x1="186.34" y1="321.26" x2="186.74" y2="321.26" xlink:href="#Degradado_sin_nombre_34"/>
    <linearGradient id="Degradado_sin_nombre_34-12" x1="37.89" y1="274.89" x2="298.9" y2="274.89" xlink:href="#Degradado_sin_nombre_34"/>
    <linearGradient id="Degradado_sin_nombre_34-13" x1="190.26" y1="321.26" x2="191.43" y2="321.26" xlink:href="#Degradado_sin_nombre_34"/>
    <linearGradient id="Degradado_sin_nombre_34-14" x1="191.8" y1="316.5" x2="193.31" y2="316.5" xlink:href="#Degradado_sin_nombre_34"/>
    <linearGradient id="Degradado_sin_nombre_34-15" x1="188.31" y1="313.68" x2="188.78" y2="313.68" xlink:href="#Degradado_sin_nombre_34"/>
    <linearGradient id="Degradado_sin_nombre_34-16" x1="79.49" y1="281.05" x2="81.09" y2="281.05" xlink:href="#Degradado_sin_nombre_34"/>
    <linearGradient id="Degradado_sin_nombre_34-17" x1="96.5" y1="254.95" x2="97.72" y2="254.95" xlink:href="#Degradado_sin_nombre_34"/>
    <linearGradient id="Degradado_sin_nombre_34-18" x1="106.77" y1="256.17" x2="107.5" y2="256.17" xlink:href="#Degradado_sin_nombre_34"/>
    <linearGradient id="Degradado_sin_nombre_34-19" x1="103.45" y1="253.39" x2="104.07" y2="253.39" xlink:href="#Degradado_sin_nombre_34"/>
    <linearGradient id="Degradado_sin_nombre_34-20" x1="100.18" y1="262.01" x2="100.41" y2="262.01" xlink:href="#Degradado_sin_nombre_34"/>
    <linearGradient id="Degradado_sin_nombre_34-21" x1="202.32" y1="312.08" x2="206.9" y2="312.08" xlink:href="#Degradado_sin_nombre_34"/>
    <linearGradient id="Degradado_sin_nombre_34-22" x1="202.32" y1="315.3" x2="202.81" y2="315.3" xlink:href="#Degradado_sin_nombre_34"/>
    <linearGradient id="Degradado_sin_nombre_34-23" x1="199.95" y1="310.48" x2="201.56" y2="310.48" xlink:href="#Degradado_sin_nombre_34"/>
    <linearGradient id="Degradado_sin_nombre_34-24" x1="285.87" y1="215.24" x2="286.17" y2="215.24" xlink:href="#Degradado_sin_nombre_34"/>
    <linearGradient id="Degradado_sin_nombre_34-25" x1="104.98" y1="304.36" x2="106.24" y2="304.36" xlink:href="#Degradado_sin_nombre_34"/>
    <linearGradient id="Degradado_sin_nombre_34-26" x1="97.44" y1="304.38" x2="98.27" y2="304.38" xlink:href="#Degradado_sin_nombre_34"/>
    <linearGradient id="Degradado_sin_nombre_34-27" x1="101.25" y1="305.34" x2="101.94" y2="305.34" xlink:href="#Degradado_sin_nombre_34"/>
    <linearGradient id="Degradado_sin_nombre_34-28" x1="120.79" y1="278.97" x2="122.56" y2="278.97" xlink:href="#Degradado_sin_nombre_34"/>
    <linearGradient id="Degradado_sin_nombre_34-29" x1="255.28" y1="218.28" x2="259.79" y2="218.28" xlink:href="#Degradado_sin_nombre_34"/>
    <linearGradient id="Degradado_sin_nombre_34-30" x1="260.29" y1="216.89" x2="262.02" y2="216.89" xlink:href="#Degradado_sin_nombre_34"/>
    <linearGradient id="Degradado_sin_nombre_34-31" x1="257.15" y1="213.68" x2="257.62" y2="213.68" xlink:href="#Degradado_sin_nombre_34"/>
  </defs>
  <title>LA CABRA</title>
  <g id="Capa_2" data-name="Capa 2">
    <g id="Capa_1-2" data-name="Capa 1">
      <g id="Capa_1-2-2" data-name="Capa 1-2">
        <g>
          <g class="cls-1">
            <rect class="cls-2" width="324" height="324"/>
          </g>
          <g id="Capa_1-2-2-2" data-name="Capa 1-2-2">
            <g>
              <path class="cls-3" d="M89,208.16v.06h0a.21.21,0,0,0,0,.11.43.43,0,0,0,.44.26c.24,0,.32-.23.32-.44a.08.08,0,0,0,0-.07h0c0-.24-.22-.31-.42-.31h-.07a.39.39,0,0,0-.15.06.43.43,0,0,0-.09.1v.13Z"/>
              <path class="cls-4" d="M87,162.66h-.16a.62.62,0,0,0-.47.39.39.39,0,0,0-.06.3v.08a.6.6,0,0,0,.71.46h.13a.58.58,0,0,0,.34-.57C87.53,162.93,87.36,162.66,87,162.66Z"/>
              <path class="cls-5" d="M201.38,221.79a3.11,3.11,0,0,0-.79-1C200.74,221,200.61,221.65,201.38,221.79Z"/>
              <path class="cls-6" d="M201.69,217l1.39-.54C202.57,216.3,202.24,216.58,201.69,217Z"/>
              <path class="cls-7" d="M198.47,214.18h0a.9.9,0,0,0,.14-.79.53.53,0,0,0-.08-.32v.05h0a1,1,0,0,0,0,1Z"/>
              <path class="cls-8" d="M246.69,122.46c.54.32.9.54,1.41.32C247.63,122.83,247.35,122.29,246.69,122.46Z"/>
              <path class="cls-9" d="M253.26,126.84a5.07,5.07,0,0,0,.77,1.08l-.14.14H254a.26.26,0,0,0,.13-.1c.06,0,.1.1.17.14a1.09,1.09,0,0,0-.14-.23v-.07h0A2.68,2.68,0,0,0,253.26,126.84Z"/>
              <path class="cls-10" d="M249.25,127.9c.35-.17.28-.54.28-.81A1.33,1.33,0,0,0,249.25,127.9Z"/>
              <path class="cls-11" d="M181.82,225.45a1.13,1.13,0,0,0,.48.71.43.43,0,0,0,.41.07h0a.81.81,0,0,0,.84-.78h0a.86.86,0,0,1,.29-.21.47.47,0,0,0,.6-.13h0a1.57,1.57,0,0,0,.24-.21.54.54,0,0,0,.09-.72,1.75,1.75,0,0,0-.2-.35c-.11-.15-.39-.22-.47-.38s.09-.28.13-.39a.69.69,0,0,0,.06-.4.43.43,0,0,0,0-.16h0c-.54-1.24-1.7.2-2.43-.54-.18-.18-.67.07-.84.44a.55.55,0,0,0-.07.44.91.91,0,0,1,.1.29v.07a.43.43,0,0,1,0,.16.16.16,0,0,1-.05.1,2.7,2.7,0,0,0-.27.39C179.9,225.1,181.13,225.06,181.82,225.45ZM183,223.7V224c0,.11-.07.16-.24.16a.3.3,0,0,1-.3-.28.29.29,0,0,1,0-.09.41.41,0,0,1,.34-.18A.25.25,0,0,1,183,223.7Z"/>
              <path class="cls-12" d="M178,222.2c0,.06.09.1.13.15a1.28,1.28,0,0,0-.34.07,3.53,3.53,0,0,0,1.93.45,8.31,8.31,0,0,0-.94-.48A1.76,1.76,0,0,0,178,222.2Z"/>
              <path class="cls-13" d="M180.74,226.75c-.1.37-.44.6-.39,1C180.74,227.53,180.74,227.16,180.74,226.75Z"/>
              <path class="cls-14" d="M290.22,118.42l.54-.62a9.85,9.85,0,0,0,1.44-2,4,4,0,0,0,.54-1.31c0-.14.12-.28.16-.42l-.21.1a9.17,9.17,0,0,1-4.63-1l-.78-.35h-.1l-.76-.33a.54.54,0,0,0-.2-.1c-.47-.22-.93-.46-1.39-.71h0a25.52,25.52,0,0,1-2.36-1.43,9.12,9.12,0,0,0-1-.58,1.69,1.69,0,0,0-.58-.26h0a.39.39,0,0,0-.23-.07h0a1,1,0,0,0-.79-.25,9.5,9.5,0,0,0-2.12-.36,18,18,0,0,1-2.19-.2,5.87,5.87,0,0,0-.72-.08c-.71-.1-1.42-.22-2.12-.35a.53.53,0,0,1-.19-.23A9.27,9.27,0,0,0,274,106h0a17.21,17.21,0,0,0,1.74-2.8,11.3,11.3,0,0,0,1.15-3h0a3.38,3.38,0,0,0,.17-.54l.09-.21a14.27,14.27,0,0,0,.46-1.67,25,25,0,0,0,.54-2.54,1.55,1.55,0,0,0,0-.23l.09-.54c.06-.45.11-.9.14-1.36a28.44,28.44,0,0,0-.2-7,3.41,3.41,0,0,0-.1-.64c-.13-.79-.3-1.57-.5-2.35-.06-.25-.13-.54-.2-.77a.31.31,0,0,0-.05-.21,1.35,1.35,0,0,1-.11-.34q-.15-.5-.33-1A19.11,19.11,0,0,0,266,69a26.45,26.45,0,0,0-16.15-1.41c-7,1.53-12.5,5.44-17,10.88-.24.27-.35.75-.87.77h0l-.43-.57c-.14-.2-.28-.42-.44-.62s-.18-.24-.28-.35a20,20,0,0,0-28.2-2.7h0l-.23.2a13.57,13.57,0,0,0-1.13,1l-.54.5a3.39,3.39,0,0,0-1,1l-.61.63A15.54,15.54,0,0,0,198,79.51c-.36.42-.69.84-1,1.27a1.16,1.16,0,0,0-.29.37,29.7,29.7,0,0,0-5.74,13.55,31.63,31.63,0,0,0-.09,10.09,1.19,1.19,0,0,0,.43,1.29.4.4,0,0,1,.06-.26h0a2.08,2.08,0,0,0,.07-.5,21.44,21.44,0,0,1,.45-2.52c.07-.27.14-.54.22-.82v-.1c.12-.41.24-.81.37-1.22s.34-.94.54-1.39A23.74,23.74,0,0,1,194,97a2.22,2.22,0,0,0,.34-.69l.3-.54L196,93.57c.25-.36.54-.72.79-1.08h0A26.15,26.15,0,0,1,200,89.11a18.36,18.36,0,0,1,2.83-1.85h.08a.38.38,0,0,0,.26-.14,9.86,9.86,0,0,1,1.68-.43c.44-.06.9-.1,1.36-.12h0c.29-.1.34-.36.41-.69.26-1.11.54-2.21.81-3.31v-.1c.22-.91.45-1.84.67-2.76a11.89,11.89,0,0,1,.77-3,17.93,17.93,0,0,1-.5,3.93h-.05c.12,1.21-.4,2.37-.3,3.58h0a10,10,0,0,1-.15,1.08,2.31,2.31,0,0,0-.17,1.35.8.8,0,0,0,.24.7,2.35,2.35,0,0,0,.6.73l.39.38a8.06,8.06,0,0,1,.67.9.31.31,0,0,0,.16.24l.12.22a7.8,7.8,0,0,0,1,1.86v.06a2.44,2.44,0,0,0,.35-.37l.23-.38a6.8,6.8,0,0,0,.47-.83l.06-.1a71.89,71.89,0,0,0,3.56-7.27l.09-.22c.7-1.7,1.35-3.43,1.93-5.18-.08-.66.35-1.22.41-1.87a4.63,4.63,0,0,1,0,1.89,22.17,22.17,0,0,1-.11,2.7l-.07.09v.48a24.5,24.5,0,0,1-.46,2.56,29.1,29.1,0,0,1-4.59,10.66l-.12.15a3.5,3.5,0,0,0-.37.49.87.87,0,0,0-.1.85c.45,1,.5,2.11.94,3.09l.12.43a1.21,1.21,0,0,0,.27.95l.09.34.21-.17c.41,0,.7-.47,1-.71a2.35,2.35,0,0,0,.3-.33h0l1-.81c1.26-1,2.5-2,3.7-3.14l-.25.24a.28.28,0,0,0,.25-.26h0a1.08,1.08,0,0,0,.65-.57h-.06c.48-.46,1-.91,1.43-1.37l.64-.64q.52-.55,1.08-1.08l.72-1a3.19,3.19,0,0,1-.49,1.58,16.57,16.57,0,0,1-3.09,5.47,16.82,16.82,0,0,1-2.7,2.7h0a16.91,16.91,0,0,1-3.24,2c-.35.17-.71.3-.71.75-.28.73.28,1.65.34,2.5a2.3,2.3,0,0,0,.11.57.57.57,0,0,0,.08.13v.24l.28-.14h.1l.15-.12h.07l-.18.15a.27.27,0,0,0,.28-.2l.16-.08a.62.62,0,0,0,.43-.22l.62-.33a.62.62,0,0,0,.28-.17l.31-.16a.93.93,0,0,0,.41-.23h0l.41-.24a5.5,5.5,0,0,0,.83-.52l1-.63h.08l.32-.22a2.1,2.1,0,0,0,.91-.64c.3-.21.62-.43.91-.67a12.37,12.37,0,0,0,2.38-2l.54-.48a4,4,0,0,0,.85-.79l.28-.27a.82.82,0,0,1,.12-.2l.11-.12.21-.33a1.9,1.9,0,0,1,.4-.35,1.55,1.55,0,0,1-.54,1.31,25.49,25.49,0,0,1-5.69,7.76,14.71,14.71,0,0,1-4,2.76c-1.08.47-1.28.54-1.25,1.38a1.43,1.43,0,0,0,0,.65c0,.06-.11.11-.17.19a7.49,7.49,0,0,0-1-.34,6.14,6.14,0,0,0-1.2-.14,29,29,0,0,0-12.83,2.33,9.5,9.5,0,0,1-6.06.54,3.55,3.55,0,0,0-1.7-.28v.06h0c.66,1.28,1.41,2.52,2.19,3.75l.83,1.39a.32.32,0,0,0,.08.21h0a1.28,1.28,0,0,0,.45.64l.11.16a.17.17,0,0,0,0,.1h0a.35.35,0,0,0,.22.32.28.28,0,0,0,.16.23h0a3.26,3.26,0,0,0,.84,1.23h0a2,2,0,0,0,.61.89h0a.38.38,0,0,0,.18.25c0,.09.11.17.17.26a3.48,3.48,0,0,0,.59.88l.23.33.06.07a2.68,2.68,0,0,0,.92,1.08l.27.27a.31.31,0,0,0,.16.16l.19.16a2,2,0,0,0,1.08.87h0a2.62,2.62,0,0,0,1.58.84h0a6.8,6.8,0,0,0,2.38.69h.09a9.55,9.55,0,0,0,2.94.59h0a5.26,5.26,0,0,0,2.46.2h0l.87.06h0l1.62.06a.71.71,0,0,1,.65.27c-.06.28-.11.54-.18.76a15.74,15.74,0,0,1-4.46,6.4,39,39,0,0,1-8.76,5.89,96.92,96.92,0,0,1-16.2,6.48,3.14,3.14,0,0,0-1.08.32c-4,1.17-8,2.16-12,3-.29.07-.67.19-.88.07a2.34,2.34,0,0,0-2.29.13h-.07c.2.24.54.15.74.29l-1.26.58c.54.78.82,1.2,1.15,1.33a.24.24,0,0,0,0,.12.91.91,0,0,0,.82-.22h.11a.33.33,0,0,0,.21-.09l.31-.15c.38-.08.74-.45,1.18-.22v.11c-.25.59-.87.81-1.33,1.2-.12.07-.22.14-.25.26a.44.44,0,0,0-.08.11H170v.09a.7.7,0,0,0,.84.42,3.07,3.07,0,0,0,.54-.22h0v.15l1.62-.28c-.17.64-1,.62-1.32,1.21h.11a1,1,0,0,0,1-.18l.09.08a2.15,2.15,0,0,0,.9-.17h0c-.13.49-.9.54-.72.92.5,1.2-.49,1.62-1.08,2.16A9,9,0,0,1,157.39,152c.1-.74,0-1-.8-1.23-7.24-1.69-14.31-3.89-21.37-6.06a62.14,62.14,0,0,0-8.17-1.93,25.08,25.08,0,0,0-2.7-.39l-1-.1h0a6.41,6.41,0,0,0-1.24-.09l-1.24-.11a2.86,2.86,0,0,0-1,0h-.13a60,60,0,0,0-7.22.08l-2,.13h.06c-6.35.43-12.68.87-19.06,1.57a103,103,0,0,0-12.22,2,19.48,19.48,0,0,1-7.83.17,53.1,53.1,0,0,1-12.11-3.81A101.45,101.45,0,0,0,48.52,138a12.89,12.89,0,0,0-5.5-.82,7.66,7.66,0,0,1-5.4-1.44,22.29,22.29,0,0,1-3.24-2.82l-.31-.33c-.3-.32-.59-.66-.86-1s-.31-.58-.72-.66l-.15-.16a.61.61,0,0,1-.07.35,3,3,0,0,0-.31,1.24,20.9,20.9,0,0,0,.21,5.12,8.49,8.49,0,0,0,.65,2.43,3.92,3.92,0,0,0,.59,1.15,5,5,0,0,0,.5.71,6,6,0,0,0,1.7,1.75h0l.38.34a8.61,8.61,0,0,0,1.86,1.43l.54.35a4.7,4.7,0,0,0,.85.54l.35.23a.32.32,0,0,0,.34.21h0l.34.19a6.4,6.4,0,0,0,1,.6l1,.54.14.07.54.29a1.77,1.77,0,0,0,.49.26l.85.42a2.11,2.11,0,0,0,.34.16l.67.3a1,1,0,0,0,.28.13l.41.19c.3.36.92.26,1.08.8h0c-4.38.58-7.62-1.79-11.25-3.52l.36.84a2.83,2.83,0,0,0,.31.74c.4,1,.79,1.86,1.12,2.78a5.18,5.18,0,0,0,.54,1,2.1,2.1,0,0,0,.83,1,5,5,0,0,0,1,.75l.29.19h.05l.41.19h0l1,.45a6.92,6.92,0,0,0,1.82.59c.38.1.78.18,1.17.26a8.65,8.65,0,0,0,2.31.38l1.69.2a11.32,11.32,0,0,0,3.18.17h0a2.69,2.69,0,0,0,.69.06.22.22,0,0,1,.16,0c-2.37,1.86-5.16,2-10.75.78l.54.54h0a52.62,52.62,0,0,0,3.86,3.9l1.27,1.25A4,4,0,0,0,50,164.73a4.93,4.93,0,0,0,1,.23,6.22,6.22,0,0,0,3-.1l.2-.05a3.4,3.4,0,0,0,1.75-.27l.58-.12a1,1,0,0,0,.87-.19l.82-.21a4.73,4.73,0,0,0,.82-.22l.48-.13a2.21,2.21,0,0,0,.5-.15,4.5,4.5,0,0,0,1.35-.36c2.56-.88,5-1.79,7.6-2.7a3.42,3.42,0,0,1,.59-.33,2.78,2.78,0,0,1,.9-.19,2.93,2.93,0,0,1-1.33.82l-1.9,1.33q-1.09.75-2.16,1.53h0l-.49.34a5.85,5.85,0,0,0-.54.45l-.2.15A9.94,9.94,0,0,0,61.33,168a27.66,27.66,0,0,0-1.22,2.92,48.77,48.77,0,0,0-2.52,11.82c-.24,2.27-.39,4.54-.41,6.81v.18a40.63,40.63,0,0,0,2.87,16.2c.17.42.32.84.45,1.27l.19.65a12.77,12.77,0,0,1,.25,4.77,12.38,12.38,0,0,1-4.4,7.72,27.4,27.4,0,0,1-7.94,4.71c-1.39.54-2.85,1-4.26,1.55a9.18,9.18,0,0,0-6.45,8.56,27.69,27.69,0,0,0,1.71,10.4c.59,1.87,1.3,3.7,1.73,5.63.77,3.55,1.29,7.15,1.78,10.75A45.64,45.64,0,0,0,46,274.13c.62,1.47,1.08,3,1.62,4.55a3.48,3.48,0,0,1,.12,2,19.67,19.67,0,0,0-.12,9.31,5.23,5.23,0,0,0,3,3.57l.39.13a7.63,7.63,0,0,0,2.61.76,18.35,18.35,0,0,0,2.86.37H58a8.29,8.29,0,0,0,1.57-.1v-.26a.85.85,0,0,0,.09-.44l-.09-1.55v-2h.1c1,1.34,1.83,2.47,2.65,3.6a1.25,1.25,0,0,0,.26.3.63.63,0,0,0,.77.16c1-.39,2-.69,3-1.12l.84-.29v-.08h0l-.29-.59c-1-2-2-4-3-5.94a8,8,0,0,0-.61-1.2,4.84,4.84,0,0,1-.34-.73.7.7,0,0,0-.06-.19,4.74,4.74,0,0,1-.15-.57v-1.45a9.11,9.11,0,0,0,.08-2.39c-.7-2.45-1.29-4.94-2.16-7.34h0c-.06-.22-.13-.43-.19-.64a4.79,4.79,0,0,0-.32-1.12l-.1-.34v0a1,1,0,0,0-.27-.84q-.43-1.54-.9-3.09-.33-1.16-.69-2.31c-.45-1.45-.89-2.89-1.35-4.34-.1-.34-.2-.67-.32-1-.17-.57-.37-1.14-.54-1.72a2.57,2.57,0,0,0-.34-1c-.06-.17-.11-.34-.18-.54h0v-.12a.49.49,0,0,0-.11-.35c-.06-.19-.13-.39-.2-.58a4,4,0,0,0-.33-.93c-.2-.59-.4-1.17-.61-1.74a11.06,11.06,0,0,1-.54-2,14.09,14.09,0,0,1,0-3.67,11.61,11.61,0,0,1,.49-1.93,3,3,0,0,0,.45-1.08l.07-.15a.65.65,0,0,0,.22-.36l.12-.19a.31.31,0,0,0,.17-.23c0-.05.1-.11.16-.16A5.2,5.2,0,0,1,58,240.87a3.53,3.53,0,0,1,.65,0l2.45-.07c1.62,0,3.24-.08,4.9-.15l2.24-.13h.37l3.86-.22h.47a5.15,5.15,0,0,0,2.49-.24h.54a3.71,3.71,0,0,0,.94-.05h0a6.64,6.64,0,0,0,2.66-.21h.38a9.59,9.59,0,0,0,1.77-.13h0a1.62,1.62,0,0,0,1.18-.17l.54-.06a19.94,19.94,0,0,0,3.18-.33h0A62,62,0,0,0,94.5,238l.29-.05a2.47,2.47,0,0,0,1.44-.26h.08a23.07,23.07,0,0,0,4.52-.91h0a1.69,1.69,0,0,0,1.12-.27l.75-.2a22.47,22.47,0,0,0,2.32-.58l.73-.18.19-.06a.7.7,0,0,0,.63-.2h0l.63-.2a6,6,0,0,0,1.11-.46h0a10.65,10.65,0,0,0,4.32-2.88h0a13.7,13.7,0,0,0,2.76-3h0a26.08,26.08,0,0,0,2.41-3.64h-.08l.27-.59h0a4,4,0,0,0,.8-1.41l.1-.15.21-.4a.58.58,0,0,0,.13-.23l.21-.38a6.37,6.37,0,0,0,.93-1.62c.15-.24.29-.49.43-.73a8.66,8.66,0,0,0,1-1.58l.36-.59a.36.36,0,0,0,.07-.1c.44-.66.88-1.31,1.33-2a2.93,2.93,0,0,1,.19-.26h0a1.93,1.93,0,0,0,.68-.86h0a.41.41,0,0,0,.28-.3h0l1.42-1.54.37-.32h0a.81.81,0,0,0,.54-.51c.27-.23.54-.45.82-.66a3.28,3.28,0,0,0,.87-.66c.43-.3.86-.6,1.31-.87l2-1.08.22-.1h0a13.32,13.32,0,0,1,8.08-.71l.72.21a.7.7,0,0,0,.39.15c.2.07.39.15.57.23a6.81,6.81,0,0,0,.94.46,11.68,11.68,0,0,1,3.1,2.49h0a49.24,49.24,0,0,0-7.31-1.55,9.4,9.4,0,0,0-8.59,3.1l-.38.47a14.52,14.52,0,0,0-1.28,1.54,38,38,0,0,0-2.28,3.17c-2.28,3.43-4.42,7-6.45,10.55l-.06.08-.19.35a16.86,16.86,0,0,1-6.81,6.48,35.14,35.14,0,0,1-4.41,2A83,83,0,0,1,98.13,240l-.4.08c-1,.19-1.94.38-2.91.54l-.69.12c-2,.31-4,.54-6.06.72s-4.32.3-6.48.59a4,4,0,0,0-2,.78,4.19,4.19,0,0,0-1.66,2.73,2.87,2.87,0,0,0,.33,2.3,3.5,3.5,0,0,0,.29.54,7.94,7.94,0,0,0,1.34,1.77c.23.28.48.57.73.84s.58.61.88.91h0l.25.28a.27.27,0,0,0,.11.1c1.08,1.13,2.21,2.22,3.39,3.24l1,.92c.82.75,1.64,1.48,2.47,2.2,3.24,2.88,6.51,5.75,9.8,8.57a2.52,2.52,0,0,0,.35.3l.41.37a.23.23,0,0,0,.11.11,18.41,18.41,0,0,1,4.53,6.63l.48,1.39v.16a17.09,17.09,0,0,1,.59,1.88c.23,1,.54,2,.85,3a2.91,2.91,0,0,0,.39,1.15c.18.48.37.94.54,1.41h0a36.89,36.89,0,0,0,1.76,3.28l.54,1.18a7.33,7.33,0,0,0,.74,1.58,7.53,7.53,0,0,0,.69,1.24.77.77,0,0,0,.82.54,8.54,8.54,0,0,0,2.2-.06c1-.1,1-.1.8-1.08l-.15-.7c-.06-.24-.11-.49-.17-.72l-.48-2.23v-.08c-.09-.39-.18-.78-.26-1.18a26.1,26.1,0,0,1,2.16,2.42,2,2,0,0,1,.22.29l.07.11c.54.82,1,1.9,1.86,1.91,1,0,2-.89,3-1.35.48-.22.54-.47.36-.95-.34-.79-.58-1.62-.88-2.41l-.64-1.71a1.24,1.24,0,0,0-.27-.76c-.09-.25-.17-.54-.26-.78V282a28.84,28.84,0,0,1-1.08-4.28,9.9,9.9,0,0,0-.14-1.22,10.48,10.48,0,0,1-.07-1.48v-.32a2.61,2.61,0,0,0-.31-1.45,5.25,5.25,0,0,0-.42-1,29.24,29.24,0,0,1-2.44-5.52v-.14a30.58,30.58,0,0,1-1-4.51,3.08,3.08,0,0,0-.06-.61,30.57,30.57,0,0,1-.21-3.58,14.32,14.32,0,0,0,.09-2.27v-.1a8.24,8.24,0,0,1,.2-1.32,2.41,2.41,0,0,0,.14-.59,8.56,8.56,0,0,1,3.46-4.64c.38-.26.79-.49,1.19-.72.84-.44,1.71-.84,2.6-1.21,2-.73,4-1.39,6-1.94l.61-.2.63-.2c.72-.22,1.43-.46,2.13-.73a12.79,12.79,0,0,0,1.8-.73l.38-.15a10.05,10.05,0,0,0,1.16-.64,1.75,1.75,0,0,0,.29-.18l.27-.18.07-.05h0a9.11,9.11,0,0,0,2.34-2.57,9.83,9.83,0,0,0,1-2.27c.22-.6.41-1.21.57-1.82a.74.74,0,0,1,.08-.39,1.73,1.73,0,0,0,.11-.6c.11-.46.21-.94.28-1.42a4.61,4.61,0,0,0,.16-1.23,34.38,34.38,0,0,0,.26-4.42v-1.62a3.53,3.53,0,0,1,0-.65,4.22,4.22,0,0,1,2.43-3.09,1.22,1.22,0,0,1,.38.07,7,7,0,0,1,3,0,7.12,7.12,0,0,0,1.43.29l.07-.08h0c.61.16,1.22.34,1.81.54a1.29,1.29,0,0,0,.66.21H149c1.91.79,3.72,1.65,5.58,2.57.51.3,1,.62,1.53.95s1.31.93,2,1.35,1.11.74,1.69,1.08a3.91,3.91,0,0,0,1,.6c.54.28,1.08.54,1.62.8h.1a22.25,22.25,0,0,0,4,1.52c.31.1.61.2.92.28a5.61,5.61,0,0,0,1.71.45c.26.07.54.11.8.17a9.86,9.86,0,0,0,2.8.49l.92.1a11.29,11.29,0,0,0,3.18.21h0a6.24,6.24,0,0,1,1.18.45,2.05,2.05,0,0,1,.67,1c0,.13.11.25.16.38a6.15,6.15,0,0,0,.54,1.3l.13.29a1.44,1.44,0,0,0,.31.74l.08.19a.74.74,0,0,0,.17.42c.09.17.16.35.24.54a9.39,9.39,0,0,0,.64,1.5l.66,1.56a14,14,0,0,0,.59,1.38l.4.9a2.66,2.66,0,0,0,.38.9l.18.45a1.06,1.06,0,0,0,.27.61l.11.24a.78.78,0,0,0,.15.38l.09.2a.24.24,0,0,0,.07.18c.14.29.26.59.38.88s.14.36.22.54l3.64,8.38a8.29,8.29,0,0,0,.62,1.4l.7,1.58c.27.7.57,1.4.9,2.08a2.83,2.83,0,0,1,.16.36c.19.4.36.8.54,1.21.51,1.28,1,2.53,1.65,3.78l.64,1.45c.82,2.22,1.85,4.38,2.87,6.55h0a1.09,1.09,0,0,1,.08.15,1.59,1.59,0,0,0,.41.89l.06.13h0l.09.19a.8.8,0,0,0,.11.25h0v.1a22.23,22.23,0,0,0,1.79,3.71.24.24,0,0,1,0-.12c0,.1.09.17.13.26a1.41,1.41,0,0,0,.26.5l.08.16a.3.3,0,0,0,.16.33h0l.13.27h0c.07.14.17.28.25.43,1.27,2.4,2.62,4.77,4.1,7.06a3.14,3.14,0,0,0,.46.77c.46.79.67,1.81,1.4,2.28a.7.7,0,0,0,.66.26,13.35,13.35,0,0,0,3,.05c.58,0,.93-.16,1-.81a4.78,4.78,0,0,1,.19-1,2.74,2.74,0,0,1,.38-1l1.08,2.16a1,1,0,0,0,1,.74h1.31a2,2,0,0,0,.84,0h2.7a3.35,3.35,0,0,0-.56-1.79,7,7,0,0,1-.44-1,1.38,1.38,0,0,0-.08-.27,7,7,0,0,1-.35-1.88h0a6.49,6.49,0,0,1,0-1.08,3.3,3.3,0,0,0,0-.77,1.1,1.1,0,0,0-.1-.47,3.09,3.09,0,0,0-.66-1.08c-2-2.57-4-5.19-6.06-7.78a4.12,4.12,0,0,1-.44-.65c-.09-.19-.16-.38-.24-.57a2.6,2.6,0,0,1-.13-.36c-.15-.83-.28-1.66-.4-2.5a5.06,5.06,0,0,0-.1-.68q-.44-3.13-.62-6.3a5.59,5.59,0,0,0-.06-1.08v-2.7a24.64,24.64,0,0,1,.54-3.63,24.93,24.93,0,0,0,.58-3.73,12,12,0,0,0,.12-2.67,19.94,19.94,0,0,0-.16-2.32q-.28-2.94-.72-5.84a2.81,2.81,0,0,0-.12-.82c-.4-2.52-.86-5.05-1.43-7.53a4.81,4.81,0,0,0-.26-.84,2,2,0,0,0-.6-1.08,5.55,5.55,0,0,1-.86-2.42,7.33,7.33,0,0,1,.14-1.93,9.73,9.73,0,0,1,.85-2.25,7.32,7.32,0,0,1,.59-.9,22.9,22.9,0,0,1,3.89-4c1.37-1.2,2.89-2.16,4.16-3.49h0l.15-.12a7.81,7.81,0,0,0,2-1.82h0l.16-.16a6.6,6.6,0,0,0,1.62-2c.16-.26.32-.54.45-.79a1,1,0,0,1,.1-.29,2.87,2.87,0,0,0,.1-2.74,6.61,6.61,0,0,0-.63-1.21,5,5,0,0,0-3.61-2.83,2.78,2.78,0,0,0-.91,0,1.69,1.69,0,0,0-.8.19,1.88,1.88,0,0,0-1,2v.06a1.19,1.19,0,0,0,.1.32h0a3.8,3.8,0,0,0,.78,1.52l.35.58c-2.35,0-3.57-1.08-3.63-3.29a4.72,4.72,0,0,1,.09-1.24,1.52,1.52,0,0,0,.15-.6.58.58,0,0,1,.07-.21,6,6,0,0,1,2.25-2.53,4.53,4.53,0,0,1,.6-.26c.33-.12.67-.22,1-.31a17.13,17.13,0,0,1,2.86-.21c3.28.14,4.86,1.29,5.89,4.17a2.82,2.82,0,0,1,.09.57,32,32,0,0,1-.19,9.81,8.66,8.66,0,0,0-.18,2.78,5.06,5.06,0,0,0,.39,1.88,9.56,9.56,0,0,0,.39,1,4,4,0,0,0,.31.62,8.09,8.09,0,0,0,.5.79.64.64,0,0,1,.27.18.43.43,0,0,1-.06.41.7.7,0,0,1-.47-.32,8.27,8.27,0,0,1-3.52-3.13,12.45,12.45,0,0,1-1-2.35c-.06-.24-.09-.5-.13-.75v-1.62a.69.69,0,0,0-.13.11v-.2a1,1,0,0,1-.1.29,1.22,1.22,0,0,0-.34,1h0a45.55,45.55,0,0,0-2.16,10c0,.09-.08.17-.12.26a12.34,12.34,0,0,1-1.37-4.13,17.45,17.45,0,0,1,.06-1.77v-.12c.16-.19.27-.47.15-.62s0-.11,0-.17l-.09.1c-.21-.1-.39.16-.49.37l.06,0h0l-.06,0a3.59,3.59,0,0,0-.68.87c-.17.21-.33.43-.49.65a1.27,1.27,0,0,0-.13.19,12.6,12.6,0,0,0-1.89,4.61,3.38,3.38,0,0,0,1,3,6.93,6.93,0,0,0,1.74,1.2l.25.11.28.12a1.73,1.73,0,0,0,.31.14,9.71,9.71,0,0,0,3.31.35l.21.08v.11a29.15,29.15,0,0,1-5.3,2.65c-1.08.4-1.08.41-.88,1.6l.19,1a.67.67,0,0,0,0,.2c.06.38.13.76.2,1.13a2.54,2.54,0,0,0,.09.54c.21,1.18.41,2.37.58,3.56a42.88,42.88,0,0,0,1.41,6.92c.06.25.15.49.22.73s.15.54.24.78a31.81,31.81,0,0,0,1.74,4.39l.12.29.83,1.76a2.47,2.47,0,0,0,.3.61c.11.23.22.45.32.69a7.73,7.73,0,0,0,.62,1.34c.78,1.75,1.56,3.49,2.31,5.26a2.84,2.84,0,0,0,.49,1.19l.17.41a.61.61,0,0,0,.17.39c0,.11.1.21.13.33v.09l.07.05h0s0-.06-.08-.07a.43.43,0,0,0,.2.37l.11.27.07.15a4.55,4.55,0,0,0,.41,1q1,2.29,2,4.53c.05.12.09.21.15.33.42.88.84,1.77,1.27,2.66a.87.87,0,0,0,.07.17c.23.49.47,1,.71,1.46a.2.2,0,0,0,0,.11q.21.45.45.9a3.91,3.91,0,0,0,.43.9l.3.62a7.83,7.83,0,0,0,.49,1l.58,1.2.06.11c.17.34.33.7.51,1l.08.15c.32.68.65,1.35,1,2,0,.06.06.11.08.16l.69,1.45a2.57,2.57,0,0,0,.38.78v.11a.31.31,0,0,1,.06.13.19.19,0,0,0,.05.1.67.67,0,0,0,.3.45h.05c.54.44,1.19.25,1.81.16h0a6.51,6.51,0,0,0,1.17.08,7.89,7.89,0,0,0,1.88-.11c.49,0,.7-.2.7-.7a8,8,0,0,1,.12-2,.48.48,0,0,1,.31.07l1.76,1.69h0l.31.3a6,6,0,0,0,.45.43l.06.05a.58.58,0,0,0,.33.14h0a14,14,0,0,0,3.29.16c.23,0,.32-.11.33-.27h.13l-.54-1.23a1.56,1.56,0,0,0-.14-.33c-.91-2.07-1.82-4.12-2.74-6.12q-.13-.25-.24-.51a7.66,7.66,0,0,1-.28-1.9v-.07a5.57,5.57,0,0,0,0-1,3.79,3.79,0,0,0-.36-1.66l-.06-.15h0a5.53,5.53,0,0,0-.8-1.34,42.6,42.6,0,0,0-4.82-6.06,5.58,5.58,0,0,1-1.52-3.33l-.07-.47a1,1,0,0,0-.11-.73,6.69,6.69,0,0,0-.14-1,20.58,20.58,0,0,0-.3-2.21c-.13-.87-.25-1.75-.37-2.63s-.27-2-.47-3.09c-.24-1.76-.54-3.52-.8-5.28-.19-1.17-.34-2.36-.54-3.53A17.33,17.33,0,0,0,231,247h0v-.08a1.42,1.42,0,0,0-.14-1,6.15,6.15,0,0,0-.13-.86v-.37c-.54-4-1-7.9-1.49-11.85-.07-.73-.17-1.48-.26-2.21-.31-2.53-.61-5-.93-7.6-.16-1.25-.32-2.49-.47-3.74a8.14,8.14,0,0,0-.17-1.29c-.09-.79-.19-1.58-.29-2.36v-.14c-.22-1.7-.43-3.39-.65-5.05a19.81,19.81,0,0,0-.43-3.51h0l-.15-1.08a41.33,41.33,0,0,0-.64-4.56,15.14,15.14,0,0,1,.49-6.06v0a12.48,12.48,0,0,1,.59-1.62c.22-.46.43-.91.62-1.39.11-.28.25-.54.38-.84a1.49,1.49,0,0,0,.39-.78h0a.11.11,0,0,0,0-.08c.72-1.44,1.48-2.87,2.26-4.28a3.62,3.62,0,0,0,.79-1.37h0l.33-.54c0-.08.1-.15.14-.23l.63-1a3.43,3.43,0,0,0,.69-1.12c.62-1,1.27-1.95,1.93-2.9a2.77,2.77,0,0,0,.47-.9,2.23,2.23,0,0,0,.07-1.77,3.13,3.13,0,0,0-.19-.54l-.23-.5a3,3,0,0,0-.4-.92,24.75,24.75,0,0,0-8.49-9.93,13.1,13.1,0,0,1-3.64-3.63,23.34,23.34,0,0,1-2.53-5.4,6,6,0,0,0-.37-1.25,23.35,23.35,0,0,1-.83-6.05,6,6,0,0,1-.1-3c0,1,.38,2,.38,3a28.55,28.55,0,0,0,1.29,3.78,2.2,2.2,0,0,0,.48,1.08c.1.22.22.45.33.68a5.64,5.64,0,0,0,.38.73c.1.19.19.39.3.58s.16.25.23.38a3.83,3.83,0,0,0,.28.42c.21.34.41.68.64,1a24,24,0,0,0,2.92,3.88,10,10,0,0,0,.65.78l.08.09a6.69,6.69,0,0,0,1,1.12h0a19.69,19.69,0,0,0,1.85,2l1.3,1.45a2.85,2.85,0,0,0,.23.26l.72.81h0l.29.32h0l1.49,1.68.08.1,1.89,2.16c.07.09.14.16.21.24l.71.81a4,4,0,0,0,.57.65l.79.9a12.05,12.05,0,0,0,1.33,1.53h0a2.67,2.67,0,0,0,.57.64c.42.47.84.93,1.28,1.38a19,19,0,0,0,2.87,2.59l.17.14c.41.34.85.67,1.29,1a4.51,4.51,0,0,0,.54.35c.36.23.73.47,1.08.67a9,9,0,0,0,2.27,1c.28.1.56.22.87.31a10,10,0,0,0,3,.65h.25v.06a15.76,15.76,0,0,0,3.76,0,7,7,0,0,0,4.23-1.7,4.2,4.2,0,0,0,.54-.48,4.67,4.67,0,0,0,1.12-1.35l.13-.23v-.1a7.41,7.41,0,0,0,.8-2.08l.07-.27a14.09,14.09,0,0,0,.49-3v-1a14,14,0,0,0-.18-2.42c-.05-.37-.08-.74-.12-1.11V170c-.06-.41-.09-.84-.12-1.25a22.19,22.19,0,0,1,1.32-7.7,4.08,4.08,0,0,0,.22-.54c.1-.27.2-.54.31-.81s.16-.42.25-.63.08-.19.11-.28l.3-.77a.9.9,0,0,0,.17-.47c1-2.47,1.93-4.94,2.88-7.43a2.78,2.78,0,0,0,.4-1l.06-.14h-.06a1.25,1.25,0,0,0-.07-.26l-1,.74v-.06l-.35.23-.3.26h-.27a.09.09,0,0,1,0-.07h0a.38.38,0,0,1,0-.15.21.21,0,0,1,.23-.09,12.15,12.15,0,0,0,1.17-3.42v-.76a4.07,4.07,0,0,0-.81-2.27l.18-.14a8.69,8.69,0,0,1,1-.37,5,5,0,0,0,.67-.14c.27,0,.51-.12.79-.15H271a1,1,0,0,0,.34-.12c.64-.06.62-.64.7-1.15v-.35a5,5,0,0,1,.07-.54c-.34-.38-.44.18-.93.1a1,1,0,0,1-.57-.27v-.86a.75.75,0,0,1,.38-.25c.51,0,.89.38,1.33.54V139h0c0-1.12.1-2.23.16-3.35a6.64,6.64,0,0,0,.14-2.22c.12-1.84.21-3.67.27-5.51.06-1,.09-1.93.07-2.89.07-.54.42-.54.94-.54a25,25,0,0,0,3.24,0h.26a23.46,23.46,0,0,0,2.38-.31,1.72,1.72,0,0,0,.84-.15l.24-.05h0a.61.61,0,0,0,.27,0v0c.46-.11.91-.22,1.36-.36a2.82,2.82,0,0,0,.8-.28,16.89,16.89,0,0,0,2.37-1.08l.28-.15a13.38,13.38,0,0,0,1.43-.92,3.07,3.07,0,0,0,.89-.71c.17-.15.35-.28.54-.43a2.76,2.76,0,0,0,.3-.29c.24-.23.49-.46.71-.7A6.42,6.42,0,0,0,290.22,118.42Zm-8.29,2.33a3.62,3.62,0,0,1-1.14-.7,13.26,13.26,0,0,1-1.16-1.21,7.47,7.47,0,0,0-1.83-1.43,3,3,0,0,0-1.8-.74h-.27a4.91,4.91,0,0,0,1.51,1.08h0l.89.87a9.93,9.93,0,0,1,1.08,1.62,1.64,1.64,0,0,0,.5.64c.07.07.12.15.2.22l.3.24a.5.5,0,0,0,.27.07h.07a.74.74,0,0,0,.43.28h-.07a9.16,9.16,0,0,1-1.14.22h-.44a1.57,1.57,0,0,1-.83-.67,2.72,2.72,0,0,0-.54-.72,8.36,8.36,0,0,0-1.83-1.83,1.92,1.92,0,0,0-.35-.23,8.47,8.47,0,0,0-1.74-.91,1.57,1.57,0,0,0,.09.23H274l.5,1.11a4.53,4.53,0,0,1,.28,1.14v.31a2.7,2.7,0,0,1-.08.41,3.31,3.31,0,0,1-1.55,2,.17.17,0,0,1-.13-.07v-7.93a20.48,20.48,0,0,1,4.11.81h0l1.19.31h0V116h.21l1.66.45.74.19,1.37.35a6.94,6.94,0,0,0,2.63.49v0a7.73,7.73,0,0,0,1.44.08h1a1.32,1.32,0,0,0,.73.18.32.32,0,0,1,.37.24,2,2,0,0,1-2,.78c-.95-.06-1.87-.19-2.81-.34a3.41,3.41,0,0,0-.54-.1l-.54-.09-1.08-.21a2.88,2.88,0,0,0,.5,1.08.67.67,0,0,0,.13.21,2.61,2.61,0,0,0,.44.37,2.94,2.94,0,0,0,1.73.59,4.84,4.84,0,0,1-1.49.54,6.07,6.07,0,0,1-.95,0Zm-18.71,56a2.72,2.72,0,0,1-.08.47,9.44,9.44,0,0,1-.44,1.74,1.28,1.28,0,0,1-.2.26.25.25,0,0,1-.14-.13c0-.11,0-.23-.05-.35a.8.8,0,0,0-.12-.48.54.54,0,0,0-.54-.42c-.73-.07-1,.59-1.31,1.08l-.18.35a4,4,0,0,0-.71,1.49v0l-.06.13c-.06.12-.13.24-.2.36a2.9,2.9,0,0,1-2,1.26,8.47,8.47,0,0,1-1.13-.07,3.21,3.21,0,0,1-.83-.36c-.34-.24-.27-.49-.16-.77a2.7,2.7,0,0,0-.34-3,4.89,4.89,0,0,0-1.17-1h-.06a5.39,5.39,0,0,0-2.19-.75c-.54,0-.8.24-.79.68h0a1.71,1.71,0,0,0,0,.32c.2.8.59,1.19,1.18,1.2a.91.91,0,0,0,.72-.12l.2-.07c.26-.1.47-.29.75-.26a.06.06,0,0,1,.06,0c-.19,1.56-1.52,2.37-2.76,1.67a12.65,12.65,0,0,1-1.36-.94l-.15-.14a3.42,3.42,0,0,1-.65-1.2,1.85,1.85,0,0,1,.06-.81l.24-.58.19-.25,1.38-1A2.71,2.71,0,0,1,251,175a8.18,8.18,0,0,1,1.4,0,1.18,1.18,0,0,1,.31.08c1.13.27,2.25.51,3.4.68a6.54,6.54,0,0,0,4.26-.56,2.54,2.54,0,0,1,1.51-.23h.41c1,.37,1.08.54.93,1.51a.65.65,0,0,1,0,.34Zm-24.67,103a1.28,1.28,0,0,1,.07.28,5.71,5.71,0,0,1,0,1.75.24.24,0,0,1-.33.1,1.56,1.56,0,0,1-.17-.37,3.3,3.3,0,0,1,.09-1.17Zm-28.62,4.32c0,.25.06.68-.3.68a.27.27,0,0,1-.29-.15h0v-.34a8.72,8.72,0,0,1-.17-2.16l.11-.24a4.38,4.38,0,0,1,.65,2.2ZM186.87,245.7c-.16-.94-.46-1.87-.6-2.92a.16.16,0,0,1,.14-.16h0a2,2,0,0,1,.72,1.22c.19.46.36.93.54,1.4a1.55,1.55,0,0,0,.14.43c.12.33.23.67.35,1v.1a.59.59,0,0,1-.44.71h0c-.4.11-.78-.08-.78-.48a1.31,1.31,0,0,0,0-.28A5.11,5.11,0,0,0,186.87,245.7ZM136,235.11v.26a7.2,7.2,0,0,1-2.85,4.55h0a52.15,52.15,0,0,0,3-8,12.72,12.72,0,0,1-.12,3ZM50.76,141.93h.09a.63.63,0,0,1,.19.24l.15.29a4.36,4.36,0,0,0,.88,1.4,6.33,6.33,0,0,0,.47.56,2.09,2.09,0,0,0,.29.31,10.79,10.79,0,0,0,2.77,2,16.55,16.55,0,0,0,4.86,1.75h.19a12.4,12.4,0,0,0,1.69.36h0a14.92,14.92,0,0,1-10.5-4,6.2,6.2,0,0,1-1.48-2.27c-.09-.23-.09-.54.12-.63A.35.35,0,0,1,50.76,141.93Zm13.12,10.38.22-.08c.45-.1.89-.21,1.33-.33a14.77,14.77,0,0,1-7.9,1.46,10.57,10.57,0,0,1-3.38-.71,7.28,7.28,0,0,1-1.94-1.14c-.13-.1-.33-.21-.48-.32a.38.38,0,0,1,0-.54c.26-.32.54-.08.75.11h0l.18.17.28.19a4.15,4.15,0,0,0,.43.3,9.89,9.89,0,0,0,4.86,1.34,5.6,5.6,0,0,0,2.08,0c.42,0,.84,0,1.26-.11h1.08a2,2,0,0,1,.45-.21l.43-.08a1.88,1.88,0,0,1,.33-.05Zm50.45-8a1.44,1.44,0,0,1,1.49.23,1.33,1.33,0,0,1,.4.84h0a1.36,1.36,0,0,1-1.26,1.29h-.12a1.23,1.23,0,0,1-1-.54,1.56,1.56,0,0,1,.07-1.65l.06,0a1.83,1.83,0,0,1,.32-.14Zm-7,135.41a8.07,8.07,0,0,1,1.62,1.35l.11.13a.32.32,0,0,1,0,.35h0c-.22.27-.45.08-.61-.1a7.62,7.62,0,0,1-1.18-1.74Zm-5.86-13.21-.19.1a2.44,2.44,0,0,1-.54,0,.52.52,0,0,1-.28-.3,7.18,7.18,0,0,0-.32-.81,1.37,1.37,0,0,0-.3-.54,19.17,19.17,0,0,1-1-1.9,7,7,0,0,1-.21-.88v-.41h.17c.54.29.61.78.81,1.21a5.87,5.87,0,0,0,.85,1.45l.08.11a6.81,6.81,0,0,0,.93.93.46.46,0,0,1,.12.12.64.64,0,0,1-.07.9ZM268,140.23a1,1,0,0,1-.29.67,2.08,2.08,0,0,1-.43.19h-.11a.72.72,0,0,1-.7-.71v-.13a.67.67,0,0,1,.52-.64.76.76,0,0,1,1,.62Zm-59.6,145c-.34.1-.42-.24-.5-.43a4.07,4.07,0,0,1-.38-1.88,5,5,0,0,1,1,1.7C208.63,284.83,208.73,285.12,208.38,285.21Zm-3.88.21a.94.94,0,0,1,.06-.29h.18l1.15,1h0a.27.27,0,0,1,.07.08c.06.29,0,.51-.3.57a1.27,1.27,0,0,1-.28-.24,8,8,0,0,1-.88-1.13Zm-92.15-6.14h0l-.12-1.55a.43.43,0,0,0,0-.16l-.06-.85h0a4.67,4.67,0,0,1,.58,1.08c0,.17.07.34.08.54,0,.49.3,1-.07,1.48h0a.37.37,0,0,1-.28-.09A2.54,2.54,0,0,0,112.35,279.28Zm-4.8-17.15c.11.11.23.21.35.31a.29.29,0,0,1,.1.12,2,2,0,0,1-.12.8s0,.07-.09.09a.86.86,0,0,1-.24.11,2.44,2.44,0,0,1-.7-.2.83.83,0,0,1-.07-.13,7.2,7.2,0,0,0-.42-1.29.14.14,0,0,1,0-.09,8.57,8.57,0,0,1-.93-2.9,2.74,2.74,0,0,1,.09-.39.56.56,0,0,1,.43.28l.07.11c.07.16.12.35.2.54a19.2,19.2,0,0,0,1,2.16.93.93,0,0,0,.32.5Zm3,15.72a2.72,2.72,0,0,1,1,2.21C110.74,279.52,110.75,278.67,110.57,277.85Zm-8.86-17a.52.52,0,0,1,.1-.26,1.76,1.76,0,0,1,.3.24l.23.28c.25.38.42.81.65,1.19.35.54.51,1.33,1.24,1.62l.32.28h0a.73.73,0,0,1,0,1,.76.76,0,0,1-.49.22h-.14a.47.47,0,0,1-.37-.31C103.05,263.57,101.89,262.4,101.71,260.82Zm6.93,17.51a4.18,4.18,0,0,1,.69.57,5.42,5.42,0,0,1,.85,1.34c.09.22.09.54-.13.63s-.37-.08-.46-.26a9,9,0,0,1-1-2.29h.06Zm7.29-.93h0a5.71,5.71,0,0,1,0,1.75,1.68,1.68,0,0,1-.22.42.35.35,0,0,1-.14.06h-.15a2.85,2.85,0,0,1,.23-1.77A2,2,0,0,1,115.93,277.4Zm-1.55,2.23-.23-.29a2.05,2.05,0,0,1,0-1.54l.23-.45c.13.88.48,1.53,0,2.28Zm-2.64-17.25-.14.28a.85.85,0,0,1-.24.22c-.39.26-1,.18-1-.25-.21-1.62-1.28-3-1-4.64l.16-.16c.07.12.14.24.2.36.22.63.43,1.24.67,1.85a3,3,0,0,0,.73,1.42h0l.62.81v.11Zm15.12-23.89h0a52.44,52.44,0,0,0,2.86-7.9,15.34,15.34,0,0,1-.12,3h0a1.09,1.09,0,0,1,0,.36,7,7,0,0,1-2.74,4.54ZM52.48,257a2.66,2.66,0,0,1,.07-.39c.08-.28,0-.63.46-.83.29.37.18.73.2,1.08s0,.44,0,.68a5.8,5.8,0,0,0,.54,2.69.65.65,0,0,1,.07.41v.09a.74.74,0,0,1-.93.46c-.31-.1-.58-.38-.49-.67.34-1.13-.07-2.28.06-3.4Zm118.05-91.1h.05c.26-.09.54-.17.79-.24a1.78,1.78,0,0,0,.33-.09,8.79,8.79,0,0,1,1-.15,13,13,0,0,1,3.58.31l-.06-.12a2.5,2.5,0,0,0,.54.07l.49.08a.73.73,0,0,1-.32.54c-.25.18-.5.34-.54.65a.43.43,0,0,0,0,.16h0c.32.18.67,0,1,0a2.08,2.08,0,0,1,.61,0,.72.72,0,0,1,.21.12.48.48,0,0,1-.08.18A4.53,4.53,0,0,1,177,168h0a2.32,2.32,0,0,0-.59.34.87.87,0,0,0-.33,1.16h0v.1h.11a.19.19,0,0,0,.15,0,2.11,2.11,0,0,0,.5-.1l.21.22a2.66,2.66,0,0,0-1.21,1.37,1.89,1.89,0,0,0-.13,1,.62.62,0,0,0,.07.23.74.74,0,0,0,0,.21h.38v-.09a4.66,4.66,0,0,1,1.37-.65.25.25,0,0,1,.08.18,5.4,5.4,0,0,1-.74.62l-.1.07h0a2.59,2.59,0,0,0-.5.37l-.14.13a.14.14,0,0,0-.05.08,2.08,2.08,0,0,0-.28,2.34l.13-.06,1.16-.54c.23-.08.47-.14.71-.2a.37.37,0,0,1,.2.12,4.11,4.11,0,0,0,.08.6,1.61,1.61,0,0,1-.24.28c-.28.22-.54.44-.84.64a4.29,4.29,0,0,0-.69.49.54.54,0,0,0-.24.69,3.24,3.24,0,0,0,.12.62,2.38,2.38,0,0,0,.24.74v.11h.08a1.77,1.77,0,0,0,.7-.24l.7-.41a2.94,2.94,0,0,1,.95-.31.42.42,0,0,1,.18.11c-.08.36-.41.54-.62.79a3,3,0,0,1-.61.44c-.57.46-.83.67-.89.94a.94.94,0,0,0,.16.81l.14.33.16.37a.52.52,0,0,0,.16.31v0h.07a.38.38,0,0,0,.15,0,3.33,3.33,0,0,0,.62-.38l.16-.14.41-.28a.25.25,0,0,0,.17-.11l.32-.14a.33.33,0,0,1,.24.12c0,.14-.12.27-.18.4l-1.21,1.22c-.62.64-.13,1,.28,1.57a.46.46,0,0,0,.28.21l.08.12c.8-.33,1.27-1.18,2.16-1.55a.73.73,0,0,1-.12.87,14.12,14.12,0,0,1-1,1.3c-.54.54-.34.92.15,1.43a.57.57,0,0,0,.32.21l.11.11a14,14,0,0,0,1.17-1,.34.34,0,0,0,.09-.08l.49-.37.79-.39a.17.17,0,0,1,0-.1,3.72,3.72,0,0,1,.58-.24l.08.08a11.38,11.38,0,0,1-.84,1.25l-.13.17c-.25.32-.54.64-.82.94l-.41.42-.08.08a.6.6,0,0,0,.08.84h0c.23.26.36.51.75.28a1.68,1.68,0,0,0,.38-.23l.29-.2a3.83,3.83,0,0,0,.73-.54c.44-.29.89-.59,1.36-.86a17.53,17.53,0,0,1-2.11,2.74,8.63,8.63,0,0,0,.84.87.45.45,0,0,0,.6.22h0a.4.4,0,0,0,.16-.13c.06-.06.1-.12.16-.17l.63-.57.81-.8.5-.44.05-.1.78-.76.05.07a11.17,11.17,0,0,1-.49,1.37l-.07.09a6.88,6.88,0,0,1-1,1.84c-.27.34-.72.76-.07,1.24a.71.71,0,0,0,.54.17c.24,0,.43-.2.86-.7.75-.86,1.47-1.74,2.29-2.56h.07a8.7,8.7,0,0,1-.54,1.85c-.06.09-.08.19-.13.28a8.17,8.17,0,0,1-1.08,1.82v.15H188s0,.09.08.09l.37.2a4.71,4.71,0,0,0,.58.32c.78.38.75.06,1.53-1.12a.37.37,0,0,1,0-.11c.12-.17.23-.34.35-.5a2.06,2.06,0,0,1,.12-.35,5.8,5.8,0,0,1,.75-.89h0l-.88,2.91c-.1.31-.36.72.13.84a1.36,1.36,0,0,0,.93.4h0a.86.86,0,0,0,.32,0c.33-.11.49-.42.68-.69a11.5,11.5,0,0,1,1.48-2.45,3,3,0,0,1,0,.67v.24a13.7,13.7,0,0,1-.35,1.54,1,1,0,0,1-.11.3c0,.1-.12.37-.19.54h0a.25.25,0,0,0,.19.27,3.38,3.38,0,0,0,1.75.21.61.61,0,0,0,.57-.49,9.13,9.13,0,0,0,.45-1c0-.13.06-.26.1-.38v-.06a2.93,2.93,0,0,1,.51-.87,1.32,1.32,0,0,1,.23.88v.35c-.06.27-.15.54-.22.84-.21,1-.16,1.08,1.08.79h.05c.17-.06.29-.22.44-.48h0c.06-.11.13-.22.2-.36a4.52,4.52,0,0,1,.23-.5l.1-.12v-.08a6,6,0,0,1,.57-.94,2.5,2.5,0,0,1-.12,1.48,4.11,4.11,0,0,1-.21.42,1.09,1.09,0,0,0,.07.3V196a.45.45,0,0,0,.24.19c.27.13.67,0,1,0h0a.76.76,0,0,0,.44-.13c.32-.13.39-.39.51-1.08.09-.48.16-1,.25-1.49a.41.41,0,0,1,.07-.11c.18-.09.33.19.47.38a.86.86,0,0,1,.06.23,6.93,6.93,0,0,0,.08,1.82c.54.13.73-.22.92-.57a2.65,2.65,0,0,0,.46-.92,2.19,2.19,0,0,1,.61-1h0c0,.54.06,1.13.09,1.75.39-.11.46-.38.54-.65h0c.28-.4.22-1,.86-1.29v.1c-.06.62,0,1.13.67,1.24l.11.06a.19.19,0,0,1,.12.07.61.61,0,0,0,.07.1h.07a.3.3,0,0,0-.1-.07,11.8,11.8,0,0,1,.36,3.35,9.22,9.22,0,0,1-4.93,7.21,9,9,0,0,1-10.09-1.48,3.9,3.9,0,0,0-1.17-1,2.91,2.91,0,0,1-.33.37l-.35.32a5,5,0,0,1-2.1,1.08l-.88.19c-.57.08-1.14.13-1.72.18a19.15,19.15,0,0,1-5.7-.4l-1-.26c-.38-.11-.75-.24-1.11-.37h-.14l-.54-.21-.22-.12a18.51,18.51,0,0,1-7.77-6.79,13.83,13.83,0,0,1-2-4.68l-.09-.48a6.46,6.46,0,0,0-.11-.75c0-.41-.09-.81-.12-1.23s0-.65,0-1v-.17a13.91,13.91,0,0,1,1.18-5,2.07,2.07,0,0,0,.26-.93.85.85,0,0,0-.07-.68,2,2,0,0,0-.73-1.11,11.51,11.51,0,0,1-3.37-6.14,6.58,6.58,0,0,1,1.08-5.18,9.85,9.85,0,0,1,4.86-3.41Zm8.57-10.08c.49.31.54.85.73,1.27a10.79,10.79,0,0,0,5.4,5.55,2,2,0,0,0,.33.15,9.81,9.81,0,0,0,1.08.37,1.4,1.4,0,0,0,.35.1,10.35,10.35,0,0,0,2.6.33h.29a10.35,10.35,0,0,0,2.08-.23l.38-.1a1.71,1.71,0,0,1,.77.18.43.43,0,0,1,.11.12c.43.49.16.93-.07,1.39a8.28,8.28,0,0,0-.73,5.88l.07.25c0,.09,0,.18.08.26a1.05,1.05,0,0,0,.18.54c0,.09.08.18.12.28a2.76,2.76,0,0,0,.68,1.27,8.14,8.14,0,0,0,6.53,3.66,5.33,5.33,0,0,0,2.21-.23l.22-.05c.38-.09.75-.25,1.12-.32h.28a.63.63,0,0,1,.27.14,1.35,1.35,0,0,1,.21.73.52.52,0,0,1-.32.33c-1.71.41-1.62,1.5-1.48,2.65a3.48,3.48,0,0,0,.07.54v.2a4.8,4.8,0,0,0,.12.66.55.55,0,0,1-.12.24c-.93-1-.75-2.28-.75-3.49h-.3a1.09,1.09,0,0,0-.62,0h-.23c-5.18-.15-8.64-3-9.72-7.06h0a11.53,11.53,0,0,1-.24-4.53l.28-1.35h0v-.16a6.46,6.46,0,0,1-.88,0h-1.31a11.48,11.48,0,0,1-6.66-2.92L180.9,161a8.76,8.76,0,0,1-.94-1.52c-.17-.43-.37-.86-.54-1.29a2.64,2.64,0,0,0-.14-.48,2.6,2.6,0,0,1-.11-.79h-.08a6.8,6.8,0,0,1-.13-1ZM228,181.35a6.14,6.14,0,0,1-2.21,3.17,1.49,1.49,0,0,1-.77.34l-.31-.08a.35.35,0,0,1-.14-.13.78.78,0,0,0-.22-.26.41.41,0,0,0-.54-.19,4.59,4.59,0,0,0-.8.24,1.84,1.84,0,0,1-.93.06,1.72,1.72,0,0,1-1.21-.95,2.18,2.18,0,0,1,0-1.51v-.1a.41.41,0,0,0-.28-.47.8.8,0,0,0-.3-.33l-.06-.07a1.4,1.4,0,0,1-.15-.49v-.27a2.7,2.7,0,0,1,.15-.75,1.39,1.39,0,0,1,.12-.28,6.7,6.7,0,0,1,.6-.87c1.27-1.27,2.92-1.44,4.6-1.44a2,2,0,0,1-.75.64,2.09,2.09,0,0,0-1.31,1.36l1.71-1a1.47,1.47,0,0,1,1-.05,1.32,1.32,0,0,1-.16.51.45.45,0,0,1-.1.14c-.32.46-.88.78-1.21,1.23-.13.19-.36.32-.45.54a3,3,0,0,0-.28.44l.28-.12a.44.44,0,0,0,.06.16c1.24-.51,1.82-1.75,2.83-2.39v-.15h0v.12h0a2.13,2.13,0,0,1-.34,1.28,1.88,1.88,0,0,1-.16.23,2.2,2.2,0,0,1-.2.23,1,1,0,0,0-.9,1.07l0,.15a2.92,2.92,0,0,0-.14.31l.22-.11a1,1,0,1,0,1.36-1.31c.2-.39.35-.82.86-.9a3.93,3.93,0,0,1,0,2.07Zm-23.08,80v.16a5,5,0,0,0,.17,1.39,2.9,2.9,0,0,0,.26.75h0c0,.1.1.21.14.31.22.28.07.58-.15.81a.59.59,0,0,1-.67.19l-.16-.07a.86.86,0,0,1-.25-.65v-4.13a.7.7,0,0,1,.24-.41.44.44,0,0,1,.21.07c.06.24.1.46.14.69a4.82,4.82,0,0,0,0,.93Zm-7.34,3.57a.36.36,0,0,1-.18.07.54.54,0,0,1-.66-.38v0c-.11-1.59-1-3.1-.59-5h.09a3.24,3.24,0,0,1,.59,1.42,4.69,4.69,0,0,0,.74,2.52c.26.33.6.61.36,1a1.9,1.9,0,0,1-.38.37Zm-19.12-36.45a3.11,3.11,0,0,1-.35-.54,2.4,2.4,0,0,1,1.3-2.88c-1.21-.12-2.16-.34-2.64-1.2a2.86,2.86,0,0,1,.07-1.76,1.31,1.31,0,0,1,.09-.28,5,5,0,0,1,.36-.73,2.25,2.25,0,0,1,.57-.54c.67-.35,1.42-.22,2.73.45,0-.11-.08-.22-.11-.33h.08a2.64,2.64,0,0,1,.45-2.48l.11-.14.1-.08a1.27,1.27,0,0,1,.74-.34,2.57,2.57,0,0,0,1.17.06,2.57,2.57,0,0,1,.91.25l.58.54A3.82,3.82,0,0,1,185,220a2.87,2.87,0,0,0-.07.77l.81-.37a3.78,3.78,0,0,1,.88-.22,2.79,2.79,0,0,1,1.24.46l.07.07a5.38,5.38,0,0,1,1,1.4.11.11,0,0,0,0,.08,1.56,1.56,0,0,1-.16,1.12,2.45,2.45,0,0,1-1.44,1.33,3.53,3.53,0,0,1-.54.13H186c.37.48.81.85,1.12,1.26a1.88,1.88,0,0,1,.27,1.53v.09a2.06,2.06,0,0,1-.12.35h0v.09a3.08,3.08,0,0,1-2.19,1.35c-.94-.08-1.56-.57-2.16-1.86a1.71,1.71,0,0,0-.09-.3h0a.09.09,0,0,1,0-.07,5.58,5.58,0,0,1-.61,1.16l-.12.15a1.7,1.7,0,0,1-.22.24h0a2.32,2.32,0,0,1-1.54.61,3,3,0,0,1-1.24-.6A.63.63,0,0,0,178.43,228.42ZM65.62,223.68a.85.85,0,0,0,.16-.17l.36-.35h0l.54-.62v-.06a13.14,13.14,0,0,0,1-1.43,1.4,1.4,0,0,0,.31-.51l.21-.19h0a.75.75,0,0,0,.32-.61h0c.23-.45.45-.9.67-1.37a.8.8,0,0,1,.17-.15,6,6,0,0,1-1.16,4.7l-.36.43a6,6,0,0,1-3.84,2h0c0-.45.48-.49.69-.74s.65-.6,1-.92Zm2.74-43.48c.2-.08.4-.17.6-.23a11,11,0,0,1,1.08-.31,1.53,1.53,0,0,0,.85-.32l.06-.06a2.45,2.45,0,0,0,.54-1.08,4.81,4.81,0,0,1,3.78-3.53h.06q.33,0,.66-.06h.83l.44.07.21.07a6,6,0,0,1,3.1,2.4,4.61,4.61,0,0,0,.81,1l.7.87a8.89,8.89,0,0,0,1.62,1.68l.54.54a2.59,2.59,0,0,0,.87.74l.16.13a2.71,2.71,0,0,0,1.2.88h.07a.59.59,0,0,0,.48.23h.07l.11.06c.47.37,1.15.45,1.57,1h-.15a6.69,6.69,0,0,1-2.47-.38,14.06,14.06,0,0,0-6-.49,4.79,4.79,0,0,0-1.56.48h-.08a4.77,4.77,0,0,0-1.59,1.34l.34-.08a1.55,1.55,0,0,0-.19.36,11.67,11.67,0,0,1,3.6-1.42h.61a26.54,26.54,0,0,1,3.67.5l.81.23a2.62,2.62,0,0,0,.46.19l.43.16a.89.89,0,0,1,.3.24.8.8,0,0,1-.15.17,33.08,33.08,0,0,0-6.54,3.86l-.45.34c-1.27,1-2.5,2-3.74,2.95a7.06,7.06,0,0,1-1.78,1.08L74,194h-.09a9.53,9.53,0,0,1-1.27.34H70a7.57,7.57,0,0,1-2.26-.82,7.17,7.17,0,0,1-2.92-2.7.13.13,0,0,0-.06-.17h0a6.47,6.47,0,0,1-.7-1.8,2.68,2.68,0,0,1-.07-.27,7.53,7.53,0,0,1-.12-2,7.33,7.33,0,0,1,4-6.22ZM72.25,153h0a.54.54,0,0,1-.56.51h-.1a.54.54,0,0,1-.45-.57.57.57,0,0,1,.58-.54h.1a.62.62,0,0,1,.41.38.36.36,0,0,1,0,.25Zm5.88,10.09h0a.38.38,0,0,1-.16.5c-.24.11-.38-.11-.44-.27a4.25,4.25,0,0,1-.36-2,6.36,6.36,0,0,1,.54.87h0a5.6,5.6,0,0,1,.4,1ZM76,162.6A1.64,1.64,0,0,1,77,164a.7.7,0,0,1-.24.13c-.75-.27-.69-.92-.75-1.52Zm55.08-3a3.37,3.37,0,0,1,.12,1,1.3,1.3,0,0,1-2.51-.32v-.08a1.31,1.31,0,0,1,.07-.44v-.08a1.47,1.47,0,0,1,.66-.69h0l.22,0a2.06,2.06,0,0,1,1.44.73ZM207,285.21c.13.23.25.51,0,.68s-.46-.06-.59-.29a11.83,11.83,0,0,1-1-2.2,1.75,1.75,0,0,1,.81.6A4.85,4.85,0,0,1,207,285.21ZM151.69,207.9l-.06-.23a1.5,1.5,0,0,1,0-.3h0a1.27,1.27,0,0,1,2.52-.21,2.93,2.93,0,0,1-.24,1,1.27,1.27,0,0,1-.76.49,3.51,3.51,0,0,1-.85-.14A1.31,1.31,0,0,1,151.69,207.9ZM86.11,189.57l.75-.43a2.22,2.22,0,0,0,.85-.4h0a15.92,15.92,0,0,1,5.75-1.44,12.26,12.26,0,0,0-4,4v0a15.55,15.55,0,0,0-2,6.57v.14a4,4,0,0,0,0,2.09,1.73,1.73,0,0,0,.07.64c.07.21.07.42.33.42h0l.08.15c0-.07.06-.13.09-.19a.4.4,0,0,0,.21-.28,9.93,9.93,0,0,0,.26-1,19.21,19.21,0,0,1,.73-2.7l.1-.27c.1-.23.19-.47.28-.71a17.28,17.28,0,0,1,1.28-2.4,7.91,7.91,0,0,1,.94-1.14.52.52,0,0,1,.21.41,5.47,5.47,0,0,1-.13.81,14.63,14.63,0,0,0-.46,5.27,3.58,3.58,0,0,0,0,.86A3.72,3.72,0,0,0,92,202.5l.09-.16a1.58,1.58,0,0,0,.47-1.44,26.35,26.35,0,0,1,1-5.51,8.4,8.4,0,0,1,1.15-2.53,1.37,1.37,0,0,1,.21-.15,4,4,0,0,0,.11.58,5.59,5.59,0,0,0,.16,1.15c.09.78.14,1.56.17,2.34a22.68,22.68,0,0,0,.28,5.2c0,.49.12,1,.22,1.48a.17.17,0,0,0,0-.1h0L96,203a3.16,3.16,0,0,0,.2-.54v-.1a20.44,20.44,0,0,0,.44-4.2,22.2,22.2,0,0,0,.14-2.7c0-.94,0-1.87.09-2.81.54-.1.47.31.54.54h0c.1.29.18.6.27.9.21,1,.43,2,.65,2.95.08.57.15,1.14.18,1.71a8.06,8.06,0,0,0,.11,1.39c0,.51.07,1,.11,1.62a2.58,2.58,0,0,0,.19-.37v.18a7.89,7.89,0,0,0,.69-1.47,13.77,13.77,0,0,0,.18-5.68v-.17c-.11-.76-.24-1.54-.42-2.4a4.44,4.44,0,0,1,1.15.92l.39.48.36.58a15.48,15.48,0,0,1,1.18,3,15,15,0,0,0,.67,2.64,5.86,5.86,0,0,0,.43.87v-.13c0,.06.07.12.12.18a11.44,11.44,0,0,0,.13-1.55,10.82,10.82,0,0,0-1.58-6.84,8,8,0,0,0-2.35-2.82h0a3,3,0,0,0-1.52-1v-.08l-.58-.38h-.38a10,10,0,0,0-1.08-.4,2,2,0,0,1,2.08.19c.62-.14,1.15.25,1.73.27v.1h.31v-.06c.28.09.56.17.83.28l2.91,1.27.28.15.19.12h0l.18.09a1.51,1.51,0,0,0,.74.46v.08l.89.63.08.06a.49.49,0,0,0,.14.11l.12.09.08.08.09.09.09.07.28.16h0a14.09,14.09,0,0,0,1.78,1.76,12.11,12.11,0,0,1,1,1.26,1,1,0,0,0,.33.44c.11.14.2.31.31.46a1.57,1.57,0,0,0,.28.44c.14.22.28.46.42.7a1.29,1.29,0,0,0,.19.32c.21.38.41.78.61,1.19s.37.92.54,1.39a8.85,8.85,0,0,1,.27,1,5.43,5.43,0,0,0,.15,1.39v.92a4.53,4.53,0,0,1-.09.74h0c-.08.26-.14.51-.21.77a1.21,1.21,0,0,1-.11.32c0,.11,0,0,0,.09a4.28,4.28,0,0,1-.2.44v.08a4.86,4.86,0,0,1-.33.54h0a6.09,6.09,0,0,1-6,2.58,1.42,1.42,0,0,0-.5-.05.66.66,0,0,0-.68.18H105a1.44,1.44,0,0,0-.6.69,2,2,0,0,0-.17.27,10.82,10.82,0,0,0-.65,1c-.08.11-.17.2-.25.31a1.22,1.22,0,0,0-.28.32,10.29,10.29,0,0,1-7.56,3.52c-3.84.14-6.64-1.7-8.81-4.73-.23-.31-.42-.66-.64-1a1.21,1.21,0,0,0-1.28-.57c-5.11.59-8.43-3.24-7.06-8.21a17.82,17.82,0,0,1,5-8.1.91.91,0,0,0,.21-.18c.28-.25.57-.5.87-.73l.37-.3Zm115,55.21a.65.65,0,0,1-.64.29.6.6,0,0,1-.62-.54c.08-1.12-.58-2.12-.58-3.24a2.51,2.51,0,0,1,.14-1.48A1.8,1.8,0,0,1,200,241a6.43,6.43,0,0,0,.64,2.22,2.45,2.45,0,0,0,.49.7c.07.15.14.3.2.46a.57.57,0,0,1-.1.42Zm-7.24-4.13a.32.32,0,0,1,.16-.09.54.54,0,0,1,.33.39c.16.79.32,1.57.51,2.36.1.47.17,1,.68,1.26h0a1.72,1.72,0,0,1,.17.71h0a.52.52,0,0,1-.06.16.68.68,0,0,1-.31.22c-.44.17-.94,0-.94-.45.07-1.52-.83-3-.48-4.56ZM72,203h-.08v.07a4.88,4.88,0,0,1-2.16,2c.49-.93.92-1.93,2.3-2.19Zm-1.48-1.3h.17c-.31.88-.49,1-2,1.62a7.76,7.76,0,0,1,1.85-1.62Zm50.2.6.38.32a.53.53,0,0,1-.13.2,5.17,5.17,0,0,1-1.5-.54h0a.35.35,0,0,1-.16-.46h0l.07-.08a.86.86,0,0,1,.39,0h.1a5,5,0,0,1,.76.47Zm-.54-3a.24.24,0,0,1-.07-.18.09.09,0,0,1,0-.07.32.32,0,0,1,.39-.25h.3c.23.15.47.07.82.21h.12a3.84,3.84,0,0,1,.88.5,1.13,1.13,0,0,0-.26,0l-1.87-.12h-.08l-.2-.1Zm.62,5.45-.27.05a4.94,4.94,0,0,1-1.91-1.35c-.1-.15-.26-.3-.1-.51s.36-.13.54,0a10.34,10.34,0,0,1,1.76,1.8Zm-3.39-.32c-.12-.16,0-.28.06-.4h0a.25.25,0,0,1,.34,0h0a4.82,4.82,0,0,1,1.14,1.62l-.08.07a3.86,3.86,0,0,1-1.47-1.31Zm.27,2.22a.53.53,0,0,1-.12.14,6.73,6.73,0,0,1-1.28-1.62.34.34,0,0,1,.1-.38h0a.49.49,0,0,1,.41.1,5.42,5.42,0,0,1,.89,1.74ZM157,192.59c-1.17,1.4-3.78,1.81-5.89.8a4.74,4.74,0,0,1-3-4.79,1.07,1.07,0,0,1,.37-.68.86.86,0,0,1,.13.14,17.86,17.86,0,0,0,.86,2,3.27,3.27,0,0,0,1,1.23,3,3,0,0,0,2.7.72h0a.85.85,0,0,0,.31-.09c.1,0,.22,0,.31-.08a1.88,1.88,0,0,0,1-.71c.33-.54-.23-.71-.42-1a1.43,1.43,0,0,1-.23-1.43c1-1.37,2.21-1.28,3.24.33l.09.15a3.16,3.16,0,0,1,.21,2.16,1.71,1.71,0,0,1-.13.38.77.77,0,0,1-.15.36h0a2.81,2.81,0,0,1-.4.51Zm-40.65-30.44a3,3,0,0,1-.3,2.09v.07a.22.22,0,0,1-.32,0,.6.6,0,0,1-.19-.37c.24-.62.54-1.21.79-1.82Zm3.38,2a3.93,3.93,0,0,1-1.42,1.82h-.11s0-.07-.06-.07a3,3,0,0,1,1.6-1.75Zm.48,3.47a3.48,3.48,0,0,1,1.7-.62,3.21,3.21,0,0,1-1.43,1.17.46.46,0,0,1-.41-.07c-.16-.2-.05-.37.14-.48Zm-.41-.91a1,1,0,0,0-.22.14h-.36l-.08-.08v-.09a3.18,3.18,0,0,1,2.31-1.5,5.56,5.56,0,0,1-1.64,1.53Zm-2-3.68.41-.37h.22a4.85,4.85,0,0,1-.16.63,4.57,4.57,0,0,1-.74,1.33c-.14.22-.31.42-.59.22s-.17-.39-.08-.57Zm2.75,6.14a.54.54,0,0,1,.41-.42,5,5,0,0,1,1.71-.36v.13a4.32,4.32,0,0,1-1.55.8c-.2.08-.51.05-.58-.16ZM135,184.47a1.13,1.13,0,0,1,.16-.54,2.85,2.85,0,0,1,.66-.59,2.07,2.07,0,0,1,.42-.08,2.59,2.59,0,0,1,1,.5l.12.19a4,4,0,0,1,0,1.19,1.26,1.26,0,0,1-2.38-.65Zm-14.85,16.38-.2-.08a1.69,1.69,0,0,1-.12-.28v-.07a.3.3,0,0,1,.23-.26h.11l.25.06h0c.38.15.76.31,1.14.49h.08l.38.17a.32.32,0,0,0,.22.12h0l.41.18h0a3.14,3.14,0,0,1-2.5-.33ZM73,204.34a3.22,3.22,0,0,1-1.48,1.46,19.08,19.08,0,0,1,1-1.82.41.41,0,0,1,.38-.12l.11,0a1.43,1.43,0,0,1,.08.22A.45.45,0,0,1,73,204.34Zm-3.43-5.05c.08.37-.27.37-.47.45a3.86,3.86,0,0,1-1.62.14h0a.57.57,0,0,1,.15-.16,3.33,3.33,0,0,1,.54-.35l.77-.29a1,1,0,0,1,.24-.05.41.41,0,0,1,.3.09.4.4,0,0,1,.09.2Zm-.77-1.5H69a.36.36,0,0,1,.29.25.26.26,0,0,1-.07.3.72.72,0,0,1-.43.1,2.81,2.81,0,0,1-1.71-.27h0l.86-.2Zm-1.15,3.88a5.27,5.27,0,0,1,2.47-1h0a.54.54,0,0,1,0,.18v.08c-.06.19-.31.28-.49.35a10.39,10.39,0,0,1-2.4.72,2.86,2.86,0,0,1,.42-.29Zm101.21,13.87a5.89,5.89,0,0,1-7.12-1.91,2.22,2.22,0,0,1-.15-.23,5.9,5.9,0,0,1-.6-2v-.44c.09-.31.1-.7.54-.69.28.65.47,1.18.7,1.62a2.87,2.87,0,0,0,.2.39,3.58,3.58,0,0,0,1.79,1.66,2.22,2.22,0,0,0,1.71.22,2.65,2.65,0,0,0,1.12-.4.68.68,0,0,0,.34-.26h0c.35-.33.54-.64.07-1a.88.88,0,0,1-.22-.21,1.51,1.51,0,0,1-.26-1.62c.82-.88,1.08-1,2.25-.54a1.48,1.48,0,0,1,.21.13,3.08,3.08,0,0,1,.74.94,3.25,3.25,0,0,1-1.33,4.37ZM148.32,169.1a3.16,3.16,0,0,1-.54,3.35,3.66,3.66,0,0,1-1.48,1,5.73,5.73,0,0,1-7-2.82c0-.1-.1-.21-.14-.31a8.19,8.19,0,0,1-.23-.85,2.64,2.64,0,0,1,.07-1,1.43,1.43,0,0,1,.45-.58c.07.17.14.33.2.49a7.42,7.42,0,0,0,.54,1.3l.08.18a3.51,3.51,0,0,0,1.44,1.56,2.46,2.46,0,0,0,2.39.4,2.56,2.56,0,0,0,.46-.11l.1-.06a.65.65,0,0,0,.22-.11,1.84,1.84,0,0,0,.69-.64c.24-.54-.31-.69-.5-1a1.42,1.42,0,0,1-.3-.91,4.61,4.61,0,0,1,.16-.64,1.37,1.37,0,0,1,.26-.37,1.06,1.06,0,0,1,.21-.16,2.57,2.57,0,0,1,.92-.31,1.41,1.41,0,0,1,.7.19h.07a2,2,0,0,1,.34.26,1.7,1.7,0,0,1,.22.24ZM109,178.37a5.32,5.32,0,0,1,.36-.47l.57-.66c.09-.13.2-.22.29-.34a10.87,10.87,0,0,1,3-2.22h0l.35-.07a6.75,6.75,0,0,1,3.41.54,5.07,5.07,0,0,1,.54.36,8.26,8.26,0,0,1,1.34,1.67c.06.13.11.27.18.42a.14.14,0,0,0,0,.09l.09.21a1.64,1.64,0,0,0,.1.38,3.17,3.17,0,0,0,.12.41,1.3,1.3,0,0,0,.14.32.67.67,0,0,0,.1.23v-.07h0v.08a1,1,0,0,0,.83.29h0a6.54,6.54,0,0,1,1.13.31,2.52,2.52,0,0,0,.54.21,7.71,7.71,0,0,1,2,1.28l.46.43.37.44a5,5,0,0,1,.39.54,7.32,7.32,0,0,1,.87,1.72,9.49,9.49,0,0,1,.35,3.63,7.78,7.78,0,0,1-8.1,6.4,7.09,7.09,0,0,1-3.38-1.19,17.23,17.23,0,0,1-2.89-2.43,22.73,22.73,0,0,0-8.07-5.15,1.73,1.73,0,0,1-1-.54.62.62,0,0,1,.36-.16c.31-.08.61-.18.91-.27a23.19,23.19,0,0,0,3-.95,10.45,10.45,0,0,1,3.15-.27H112a3.87,3.87,0,0,0-2.4-.84h-.12a3.38,3.38,0,0,0-1.55,0,10.13,10.13,0,0,0-2.32.45,13.26,13.26,0,0,1-1.41.37h-.44l-.23.09a11.84,11.84,0,0,1-1.46.15c.26-.18.51-.33.75-.48h0l.07-.07c.48-.32,1-.62,1.38-.94a25.7,25.7,0,0,0,3-2.28,9.94,9.94,0,0,0,1.55-1.56ZM71.5,226.59h-.06c-.21-.07-.45-.07-.6-.28.33-.21.66-.44,1-.68l.46-.4c.15-.15.31-.29.45-.44a2.33,2.33,0,0,0,.31-.32c.1-.1.21-.2.3-.31s.18-.29.29-.43l.24-.36a23.87,23.87,0,0,0,1.77-3h0a6.87,6.87,0,0,1-.1,3.37,3,3,0,0,1-1.91,2.16,11.72,11.72,0,0,1-1.14.37Zm5.67,1.55h0l1.24-.82a7.17,7.17,0,0,0,1.49-1.08l.41-.38h0a7.55,7.55,0,0,0,.54-.59,0,0,0,0,0,0-.05,3.27,3.27,0,0,0,.35-.48h0l.13-.12c.19-.3.38-.65.57-1l.09.13a2.35,2.35,0,0,1-.91,3.19h0a7.92,7.92,0,0,1-3.89,1.22ZM191,242.53a15.09,15.09,0,0,0,.79,2.44.31.31,0,0,1,.09.11v.12a.57.57,0,0,1-.14.57.71.71,0,0,1-.54.17c-.34-.06-.46-.32-.46-.67a10.9,10.9,0,0,0-.34-2.48v-.12a.24.24,0,0,1,0-.12,7.31,7.31,0,0,1-.17-1.62A3.48,3.48,0,0,1,191,242.53Zm8.94,21c.15-1.43-.46-2.78-.22-4.2v-.24c0-.07.07-.15.1-.23a.79.79,0,0,1,.17-.14,1.42,1.42,0,0,1,.13.12,7.62,7.62,0,0,1,.33,2,4.16,4.16,0,0,0,.72,2.23c.38.39.08.82-.38,1h-.09c-.48,0-.67-.1-.76-.39a.29.29,0,0,1,0-.13ZM89.91,157a3.83,3.83,0,0,0,.73-.54c.16-.1.33-.21.5-.3l1.37-.61.62-.19a18,18,0,0,1,3.44-.24,3.91,3.91,0,0,1,.58.1l1.82.54a9.33,9.33,0,0,1,1.76,1,11.88,11.88,0,0,1,1.3,1.35,1.64,1.64,0,0,0,.59.83h0a6.57,6.57,0,0,0,1.15,1.83h0a2.55,2.55,0,0,0,1.52.2h.34a4.91,4.91,0,0,1,.5.17l1.79,1.08h0a2,2,0,0,0,.68.83h.05l.07.06v.08a.4.4,0,0,0-.12-.1.45.45,0,0,0,.25.38v-.08h0a1.66,1.66,0,0,0,.37.82h0a.69.69,0,0,0,.15.54,1,1,0,0,0,.07.45,25.6,25.6,0,0,1-.27,4.1,2.57,2.57,0,0,1-.14.61,32.67,32.67,0,0,1-1.49,4.41l-.22.38a1.22,1.22,0,0,0-.37.6h0c0,.07-.07.15-.09.23l-.15.22a1.92,1.92,0,0,0-.49.73h0l-2.51,2.79-.54.44-.13.1c-.34.25-.67.5-1,.72a1.18,1.18,0,0,0-.45.28c-.29.16-.58.32-.88.47l-.43.18c-.28.12-.54.24-.83.35a.85.85,0,0,1-.47.09l-.21-.2h-.07a9.82,9.82,0,0,0,.9-.81l.08-.08c.22-.23.46-.47.66-.71a.86.86,0,0,0,.43-.54v-.06h0l.14-.22a13.1,13.1,0,0,0,2.28-5.55,14,14,0,0,0,.14-4.23c0-.25-.09-.54-.38-.54a.42.42,0,0,0-.38.24.45.45,0,0,0-.18.31c-.16.58-.27,1.18-.41,1.76a12.73,12.73,0,0,1-3,6.17l-.06.11-.39.38a.17.17,0,0,1-.1,0,17.38,17.38,0,0,0,.88-6.86c-.06-.91-.2-1.81-.33-2.7h0a.36.36,0,0,0-.41-.31h0a.44.44,0,0,0-.23.17.67.67,0,0,0-.28.63v1.65h0a1.45,1.45,0,0,0-.24,1.23l.1-.15h0a.12.12,0,0,1-.07.1v.66h0a1.71,1.71,0,0,0-.29,1.23h0l-.09.29h0l-.09.31a.74.74,0,0,0-.1.35c-.07.21-.13.42-.21.64a1.42,1.42,0,0,0-.08.18,7,7,0,0,1-.29.76v.09l-.15.4a.63.63,0,0,0-.16.35,1.6,1.6,0,0,1-.36.46.22.22,0,0,1-.16,0,47.33,47.33,0,0,1-.6-6.94v-.63a4.74,4.74,0,0,0-.09-1.19,2.42,2.42,0,0,0-.18-1.38,1.25,1.25,0,0,0-.08-.54.34.34,0,0,1-.07.24l-.09-.13-.12.24h0l-.09.49a.6.6,0,0,1,0,.19c0,.1,0,.21-.08.31a.9.9,0,0,1-.14.2,3.05,3.05,0,0,0-.11,1.31v.07a19.88,19.88,0,0,0-.28,5h0v.44c0,.22,0,.43,0,.65a13.84,13.84,0,0,1-.21,2c-1.43-3.2-1.46-6.39-1.89-9.42h0a3.53,3.53,0,0,0-.71,2l-.09.05v.3h0v.3c-.06.33-.11.66-.14,1a11.25,11.25,0,0,0,.34,4.79,3.17,3.17,0,0,0,.13.67.88.88,0,0,1-.06.71c-2.79-2.26-2.8-5.64-4-8.64a1,1,0,0,1-.08.29l-.06-.1a4,4,0,0,0-.2,2.82,2.51,2.51,0,0,0,.1.86h0a1,1,0,0,0,.15.79c.06.29.14.58.22.87a10.28,10.28,0,0,0,3,5.62h-.2l.46.54a1.77,1.77,0,0,1-1-.16h0a1.5,1.5,0,0,1-.48-.3A17.06,17.06,0,0,1,81.26,167a7.85,7.85,0,0,1,.4-2.84v-.12a8.68,8.68,0,0,1,.9-1.77l.26-.27a1.58,1.58,0,0,0,.23-.22,4,4,0,0,1,.54-.38,5.72,5.72,0,0,1,2.57-.58.87.87,0,0,0,1-.54,1.47,1.47,0,0,0,.34-.51,8.66,8.66,0,0,1,2.41-3ZM74,163a3.16,3.16,0,0,1,.63.33,3.75,3.75,0,0,1,.79.85l.06.1a1.41,1.41,0,0,1,.12.73h0c-.18.14-.37,0-.54-.11A5.17,5.17,0,0,1,74,163Zm130.78,54.23c-.5,1.15-1.35,1.62-2.91,1.53l.16.13-.35.06a2.31,2.31,0,0,1,1.57,2.84,1.28,1.28,0,0,1-.11.31,2.5,2.5,0,0,1-.6.77c-.3.15-.54.33-.86.47a2.35,2.35,0,0,1-.54.1,1.92,1.92,0,0,1-1.5-.48l-.06-.06-.25-.25,0-.08a4.42,4.42,0,0,1-.64-1.24c-.54,1.36-1.29,2.22-2.65,2.08a2.63,2.63,0,0,1-.78-.3c-.23-.31-.44-.67-.86-.78a2.49,2.49,0,0,1-.29-.59,1.92,1.92,0,0,1-.15-.48,3.29,3.29,0,0,1,1.08-2.16h0l.31-.28a2.84,2.84,0,0,1-2.44-.91h0a2.32,2.32,0,0,1-.29-.54l-.09-.41a6.53,6.53,0,0,1,.2-.76.73.73,0,0,0,.32-.8,7.43,7.43,0,0,1,.4-.73,2.14,2.14,0,0,1,.32-.2.75.75,0,0,0,.32-.13,2.46,2.46,0,0,1,.86-.14,3.63,3.63,0,0,1,1,.33h0c.1.19.25.45.46.36l.08.08v-.09h0c.25-.21.08-.5-.11-.72a2.47,2.47,0,0,1,.75-2.24l.37-.27a1.17,1.17,0,0,1,.63-.12c2.23.13,2.78.54,2.79,2.57v.69l.15-.07c.12.09.26,0,.36-.16l.15-.07a.93.93,0,0,0,.33-.12,2.43,2.43,0,0,1,.74-.18,2.52,2.52,0,0,1,1,.3.91.91,0,0,1,.21.18l.44.48a.49.49,0,0,0,.41.54,2.63,2.63,0,0,1,.21.41,4.18,4.18,0,0,1,0,1l-.11.12Zm59.63-66.56.46.25-.17.14a11.31,11.31,0,0,1-1.52.29h-2.6a.74.74,0,0,1-.26-.1v-1l-.1.07c.07-.22.16-.44.25-.65l.36-.81a7.15,7.15,0,0,1,.5-.84l.26-.41.43-.54a2.43,2.43,0,0,1,.25-.2c.42,2.22.74,2.92,2.1,3.73Zm-9.3,17.95a1.21,1.21,0,0,1-.07-.5.64.64,0,0,1-.15-.13v-.24l-.11-.29a.27.27,0,0,0,0-.18c-.06-.18-.12-.36-.2-.54l-.27-.83a1.5,1.5,0,0,0-.25-.79c-.64-2.07-1.19-4.18-1.69-6.29a.62.62,0,0,0-.06-.26v-.16a4,4,0,0,0-.08-.41,3,3,0,0,0-.18-1.11c0-.4-.06-.81-.06-1.21l.21-2a1.51,1.51,0,0,1,.2-.45.39.39,0,0,1,.72.17v.17h0a.35.35,0,0,0,.08.26,3.31,3.31,0,0,1,0,.63c.07.65.15,1.28.23,1.93s.13,1,.2,1.56c.44,3.24,1,6.42,1.77,9.6h0a.87.87,0,0,1,0,.28h0c.06.28.12.58.19.87a18,18,0,0,0,.58,2.81h0c-.36-.94-.73-1.91-1.08-2.87Zm-2.52-1.36a108.57,108.57,0,0,1-3.92-11.48,3,3,0,0,1-.11-2l.11-.12.17.18a6.05,6.05,0,0,1,.7,1.21v.08h0a1.51,1.51,0,0,1,.07.56h0a2.94,2.94,0,0,1,0,.42v1.32l.16.23a17.65,17.65,0,0,0,.46,2.16v.07c.2.75.42,1.47.68,2.19l.36,1.13a3.15,3.15,0,0,0,.13.61,4.22,4.22,0,0,0,.26.67c.36.9.64,1.83.93,2.77Zm-4.17-15.41h0a.82.82,0,0,1-.84-.82h0a.33.33,0,0,1,0-.14l.39-.51a.75.75,0,0,1,.3-.09l.57.18a.74.74,0,0,1,.27.57h0a.75.75,0,0,1-.69.8Zm-6.06-11.34h0a2,2,0,0,1,1.23-.86h.18a4.87,4.87,0,0,1,1.2.15,1.94,1.94,0,0,1,.58.4l.12.14a2,2,0,0,1,.54,1.34,2.1,2.1,0,0,1-4,.54,3.14,3.14,0,0,1,.2-1.74ZM253,118.15a1.4,1.4,0,0,0,.54.54,1.25,1.25,0,0,1,.09.12,4.07,4.07,0,0,1,.12,2.19,1.78,1.78,0,0,0,.77-.3,4,4,0,0,1,.67-.2h.48c1,0,1.16,1.08,1.83,1.53l.05-.07h0V122c.1.31.19.62.3.93h0v.28l-.28.62h0a3.58,3.58,0,0,1-2.46,1.25l.06.06a.86.86,0,0,0-.24.11,2.55,2.55,0,0,1,.9.62,2.45,2.45,0,0,1,.54,1.4v.09a2.21,2.21,0,0,1-.25.91,1.82,1.82,0,0,1-.31.47,1.2,1.2,0,0,0-.23.22,2.66,2.66,0,0,1-.63.42,4.26,4.26,0,0,1-1.81.1,3.57,3.57,0,0,1-1.47-1.74,4.45,4.45,0,0,1-2,1.82,6.49,6.49,0,0,1-1.08,0,1.06,1.06,0,0,1-.33-.18,5,5,0,0,1-.5-.42,5.21,5.21,0,0,1-.67-1c-.25-.82.1-1.73,1.08-2.87-1.21,0-2.29-.4-2.59-1.65a3.22,3.22,0,0,1,0-.76,2.44,2.44,0,0,0,.54-1.34,3.42,3.42,0,0,1,.36-.4.81.81,0,0,1,.19-.18,4.89,4.89,0,0,1,1.52-.3h0a3,3,0,0,0,1.08.44l.22.14c-.09-1.08-.22-2.09.6-2.87l.13-.1a3.49,3.49,0,0,1,2.58-.07,1.13,1.13,0,0,1,.21.12Zm-17.09,6.41.26.19.44.41h0a.48.48,0,0,0,.64.2h0l.12-.09a1.42,1.42,0,0,0,.35-.11,4.08,4.08,0,0,1,1.25.3l.14.12a4,4,0,0,1,.37.35l.07.08h0a5.53,5.53,0,0,1,1.2,3.24v.35a22.34,22.34,0,0,1-.68,3.72h0a.63.63,0,0,1-.4.47.38.38,0,0,1-.35-.3v-.65a4.86,4.86,0,0,1,0-.54,2.45,2.45,0,0,0-.54-1.7v.12h0c-.31,1.13.2,2.3-.34,3.28a.41.41,0,0,1-.07.11,1.3,1.3,0,0,1-.41-.32,3.36,3.36,0,0,1-.37-.7c-.14-.38-.21-.79-.35-1.08-.23-.54-.28-1.08-.54-1.62-.1-.2-.2-.39-.31-.58a1.47,1.47,0,0,1-.06.27c-.36.23-.24.5-.17.76a1.47,1.47,0,0,0,.08.3,3,3,0,0,0,.22.88,13.08,13.08,0,0,0,.71,2,.78.78,0,0,1,.12.63c-.34.18-.54,0-.76-.27a6.8,6.8,0,0,1-.73-1.25l-.26-.6a3.93,3.93,0,0,0-1-1.62,1.39,1.39,0,0,0-.09.92,2.9,2.9,0,0,0,.54,1.15,13.35,13.35,0,0,1,.89,1.56c.12.31,0,.42-.2.46a2.38,2.38,0,0,1-1.26-.54A7.86,7.86,0,0,1,231,129v-.19a2,2,0,0,1,.15-.68.81.81,0,0,1,.59-.39l.26-.07a.78.78,0,0,0,.51-.84,5.5,5.5,0,0,1,.09-.91,2.07,2.07,0,0,1,.4-1,1.84,1.84,0,0,1,.48-.44,3.73,3.73,0,0,1,1.4-.33H235a.64.64,0,0,0,.6.26h.08a.55.55,0,0,1,.18.16Zm-2.42,28,.36-.16a.81.81,0,0,0,.64-.28h0a.86.86,0,0,0,.58-.34v-.06a3.27,3.27,0,0,0,.69-.79,5.53,5.53,0,0,0,1.29-3.37,2,2,0,0,0-.12-1.31,5.41,5.41,0,0,0-.32-1c0-.23,0-.43.3-.54h0a16,16,0,0,1,2.7,2.29l.07.08h0a1.77,1.77,0,0,0,.85,1V148h0l.1.09.44.61a.17.17,0,0,0,.08.14h0l.56.91h0a.14.14,0,0,0,.06.11,1.76,1.76,0,0,0,.34.63l.22.39c.24.77.32,1.13.06,1.4l-.36.19a9.6,9.6,0,0,1-8.64,0Zm18.87-1.26c.08-1.12.32-1.26,1.37-.74a.77.77,0,0,1-.21,1.06l0,0a.7.7,0,0,1-.35.12H253a.82.82,0,0,1-.7-.44Zm3.69-.47a.83.83,0,0,1,.29-.48h.08a.39.39,0,0,1,.14-.08h.5a.81.81,0,0,1,.29.29.71.71,0,0,1,.16.39.78.78,0,0,1-.32.72.8.8,0,0,1-.37.11h-.1a.79.79,0,0,1-.68-.87Zm3.18-8.1c-.47-1.58-.21-2.16,1.28-3.08h1a2.06,2.06,0,1,1-.91,4,2.11,2.11,0,0,1-1.34-1Zm-50.7,29.7a2.5,2.5,0,0,1-1.9-.09c-.12-.09-.23-.19-.34-.29a2.42,2.42,0,0,1-.35-1.81c0-.31.17-.59-.15-.81-.75-.51-.54-1.19-.33-1.81a4.69,4.69,0,0,1,1.82-2,11.56,11.56,0,0,1,2.07-.65,4.53,4.53,0,0,1,1.42.08.43.43,0,0,1-.08.27c-.09.07-.2.1-.26.2h0a1.6,1.6,0,0,0-1.19.85h-.08s-.12.09,0,.1.1,0,.11,0a5.49,5.49,0,0,0,.89-.4c.47,0,1-.54,1.3,0,.09.28-.17.48-.33.69l-.32.43-.09.08a2.21,2.21,0,0,0-.78.74h-.06c-.27.13-.64.43-.54.62l.14.12a.89.89,0,0,0-.08.17l.27-.14.13-.07a5.6,5.6,0,0,0,2-1.86.72.72,0,0,1,.56-.38h.07a1.79,1.79,0,0,1-.29,1.1,4.79,4.79,0,0,0-.88,1.08,2.78,2.78,0,0,0-.51.88,1.71,1.71,0,0,0,.9-.54,2,2,0,0,0,.47-.65,4.13,4.13,0,0,1,.78-1.08l.24-.11a3.61,3.61,0,0,1,0,2.25,6.41,6.41,0,0,1-.75,1.56V171a6.17,6.17,0,0,1-1.22,1.33c-.54.45-1.11.74-1.67,0-.31-.33-.64-.1-1,0Zm20.8-34.79a1.09,1.09,0,0,1,.79-1,3.15,3.15,0,0,1,1,.24h.08a1.13,1.13,0,0,1,.21.35.24.24,0,0,1,0,.12v.11a1.31,1.31,0,0,1,0,.28,1.08,1.08,0,0,1-1.15.92h-.07a1,1,0,0,1-.79-1Zm5.57,3a1,1,0,0,1,.28-.68h0a.8.8,0,0,1,.27-.18h.83l.19.13a1.18,1.18,0,0,1,.35,1,1,1,0,0,1-.95.8,1.07,1.07,0,0,1-1-1.1Zm-10.8-5.27a2.22,2.22,0,0,1,1.69-.23,1.7,1.7,0,0,1,.59.6,2.47,2.47,0,0,1,.1.29.74.74,0,0,1,0,.21.54.54,0,0,1,0,.18,1.48,1.48,0,0,1-1.37,1.5,1.53,1.53,0,0,1-1.52-1.46,1.63,1.63,0,0,1,.51-1.13Zm32.79,30.56a.38.38,0,0,1,0-.15l-.06-.54a1.07,1.07,0,0,1-.21-.41v-.2a.68.68,0,0,1,0-.4c-.09-.26-.16-.54-.24-.79a2.43,2.43,0,0,1-.08-.54,1.18,1.18,0,0,0-.08-.49,13.48,13.48,0,0,0-.32-2.1c-.13-.88-.27-1.77-.4-2.64l-.19-1.62a5.89,5.89,0,0,1,.26-1.82c.18-.31.31-.67.66-.8h.27a65.12,65.12,0,0,0,.35,8.15v1h.07c.16,1.71.32,3.42.42,5.15-.1-.58-.26-1.21-.43-1.85ZM225,143.17a3.37,3.37,0,0,0-1.51-1.59,8.21,8.21,0,0,1-1.62-1.12,4.37,4.37,0,0,1-1.46-2.19,4,4,0,0,1,1.16-3.62,1,1,0,0,1,.1.21.24.24,0,0,0,0,.12,2.43,2.43,0,0,0-.08.47,1.17,1.17,0,0,0-.13.44,3,3,0,0,0,.38,2c0,.07.09.14.14.21l.21.27.15.15a3,3,0,0,0,1,.69,2.21,2.21,0,0,0,.75.25l.27.1.58.11a2.36,2.36,0,0,0,1.23.18l.71.07a3.9,3.9,0,0,0,1.55.23c.56.12,1.11.26,1.66.43.71.26,1.39.54,2.08.87a15,15,0,0,1,2.47,1.62,8.12,8.12,0,0,0-1.29.16h-.21a3.13,3.13,0,0,0-.72.27,1,1,0,0,0-.4.24,4.13,4.13,0,0,0-1.21,2.12,6.54,6.54,0,0,0,0,4.61h0l-.1.11a3.14,3.14,0,0,1-1.16-.91,25.38,25.38,0,0,1-4.53-6.53Zm43.36-11.41-1,1a9,9,0,0,1-.72.65h-.1a.55.55,0,0,1-.28.07.59.59,0,0,1-.36-.13,2.28,2.28,0,0,1,.24-.61c.71-1,.94-1.29.94-1.76a1.74,1.74,0,0,0,.09-.75.66.66,0,0,0-.17.12.51.51,0,0,0,0-.24l-1,2a5.57,5.57,0,0,1-.54.63c-.2.15-.42.31-.68.15v-.08a1.22,1.22,0,0,1,0-.6,2.36,2.36,0,0,1,.1-.46,2.77,2.77,0,0,0,.11-.48c.08-.34.16-.67.25-1a4,4,0,0,0,.22-.89,3.51,3.51,0,0,0,0-1.12l-.12.15v-.06c-.09.13-.18.28-.26.42a10.26,10.26,0,0,0-1.08,3.46,9.18,9.18,0,0,1-.31.88h0l-.15-.1a3.13,3.13,0,0,1-.29-1.88c.07-.4.14-.8.18-1.2a3.87,3.87,0,0,0,0-1.66,1.21,1.21,0,0,0-.24.35.38.38,0,0,0-.09.15.08.08,0,0,0,0,.07,1.76,1.76,0,0,0-.24,1c-.08,1,.19,2-.33,3h0a5.23,5.23,0,0,1-1.08-1.43,6.55,6.55,0,0,1-.54-1.5,5.06,5.06,0,0,1-.1-.68,8.84,8.84,0,0,1,.26-3v-.06a.25.25,0,0,1,.05-.19c.09-.3.19-.59.3-.88l.09-.2a1.45,1.45,0,0,1,.91-.71,1.12,1.12,0,0,1,.54.12l.11.07a.59.59,0,0,0,.68-.19,1.13,1.13,0,0,0,.43-.51,2.64,2.64,0,0,1,.23-.35l.14-.15a3.5,3.5,0,0,1,1.08-.65,1.57,1.57,0,0,1,.61,0l.47.1v0a5.32,5.32,0,0,1,.83.49,1.7,1.7,0,0,1,.41.59,6.61,6.61,0,0,0,.3.85.83.83,0,0,0,.54.58,1.71,1.71,0,0,0,.64.2c.43,0,.51.54.7,1a4.55,4.55,0,0,1-.3,3.66A14.32,14.32,0,0,1,268.31,131.76ZM255.19,74.41l.88-.76a2.58,2.58,0,0,1,.86-.34l.09.11c-.43.4-.86.8-1.28,1.24l-.07.06a.08.08,0,0,1-.06.08,33.2,33.2,0,0,0-2.3,2.73l-.05.07c-.47.64-.92,1.29-1.34,2l-.29.51a4,4,0,0,0-.45.77,31.67,31.67,0,0,0-1.56,3.21,2.43,2.43,0,0,0-.16.37c-.05.13-.16.36-.23.54a1.28,1.28,0,0,0-.18.54.53.53,0,0,0,0,.61,1.26,1.26,0,0,0,.26.5c.17.25.33.54.48.78a2.2,2.2,0,0,0,.44.79l.16.3.44-.28a9.09,9.09,0,0,0,1.73-1h0a1.29,1.29,0,0,0,.93-.51h.06a.78.78,0,0,0,.47-.23l.74-.36A15.4,15.4,0,0,0,257.35,85h0a.62.62,0,0,0,.61-.22h0a1.1,1.1,0,0,0,.83-.27h.1a3.87,3.87,0,0,0,2-.54h.11l1.08-.06c.45-.42,1-.19,1.54-.33h.23a5.88,5.88,0,0,1-1.62.77A37.29,37.29,0,0,0,255.24,88,12.24,12.24,0,0,0,252,91a2.75,2.75,0,0,0-.72,1.55,3.07,3.07,0,0,0,.16,1.59,7.9,7.9,0,0,0,1.08-.32c.31-.13.61-.31.91-.46v-.07h.25a.86.86,0,0,0,.68-.31h0a.27.27,0,0,0,.23-.07h0a4.41,4.41,0,0,0,1.83-.3V92.5h0l-.09.2a1.14,1.14,0,0,0,.93-.24l-.06-.07h.29v.09h4.38v-.13h0v.06a15.06,15.06,0,0,1,3.32,1.17c.21.13.41.28.61.43v0a61.28,61.28,0,0,0-6.64,0,25.11,25.11,0,0,0-6.26,1c-1.34.42-1.34.43-1.44,1.87l-.11,1.8a.36.36,0,0,0,.14.23h.12a.69.69,0,0,0,.49,0,13.72,13.72,0,0,1,3.24-.6,1,1,0,0,0,.88-.17h.12l5-.09h.31l1.24,0,.33,0a1.9,1.9,0,0,0,1.15.21h.31a.38.38,0,0,1,0,.15,6.47,6.47,0,0,1-2.4.63c-3.34.68-6.72,1.31-10.09,1.94-.83.15-1.57.37-1.62,1.38-.06.67-.5.9-1.14,1-1.93.34-3.84.82-5.78,1.13l-.54.12a1,1,0,0,0-.45.17h0a.39.39,0,0,1-.1.08,3.66,3.66,0,0,0-1.08.84,29.35,29.35,0,0,1-3,2.76,1.8,1.8,0,0,0-.5.41,31.52,31.52,0,0,1-8,4.41,15.71,15.71,0,0,1-5.4.87.5.5,0,0,1-.19-.13l1.45-1,.82-.45a1.67,1.67,0,0,0,.69-.38l1.11-.64c1.89-1,3.78-2.09,5.68-3.12a24.11,24.11,0,0,0,4.32-2.75h0a.32.32,0,0,0,.18-.18l.09-.08h0a1.31,1.31,0,0,0,.78-.6,16.51,16.51,0,0,0,1.55-1.58l.39-.38a2.45,2.45,0,0,0,.42-.54l.12-.12h0a1.1,1.1,0,0,0,.14-1.3,1.41,1.41,0,0,0,0-.29,50.8,50.8,0,0,0-1.41-6.45.63.63,0,0,0-.07-.22c-.24-.85-.51-1.68-.8-2.51l-.07-.18c-.17-.48-.33-1-.51-1.45a1,1,0,0,1-.06-.83,3.28,3.28,0,0,0,.62-.72c.28-.28.57-.54.87-.79l.42-.34.54-.43h0l2.1-1.24h0a7.13,7.13,0,0,1,.69-.29,2.73,2.73,0,0,0,1.37-.37,1.2,1.2,0,0,0,.79-.7,2.83,2.83,0,0,0,.45-.86l.07-.14c.23-.44.48-.86.74-1.29a.26.26,0,0,0,.08-.13l.29-.46a1.34,1.34,0,0,0,.37-.54,4.73,4.73,0,0,1,.35-.49,1.84,1.84,0,0,0,.54-.73c.33-.42.66-.82,1-1.2h0a3.67,3.67,0,0,0,1.12-1.2l.06,0a2.87,2.87,0,0,0,1-.85h0A8.58,8.58,0,0,0,254,75.23c.33-.26.67-.51,1-.75a.66.66,0,0,1,.33-.12ZM52,281.63h0c-.3,0-.46-.35-.46-.65a10.67,10.67,0,0,0,0-1.13v-2a4.87,4.87,0,0,1,.67,1.42,6.41,6.41,0,0,1,.18,1.23,2.44,2.44,0,0,1,0,.54v.15C52.28,281.44,52.17,281.63,52,281.63Zm-3.24-24.69a5,5,0,0,1,.31-1.42.78.78,0,0,1,.24.3c.11.32.09.64.17.95.11.51.14,1,.22,1.59a1,1,0,0,0,.06.35,2.66,2.66,0,0,0,.29.77c.39,1,.27,1.26-.74,1.29a.62.62,0,0,1-.32-.54,27.87,27.87,0,0,0-.26-3.29Zm5.23,24.54c-.51,0-.37-.54-.37-.84a5.72,5.72,0,0,1,.39-1.92h.13a.81.81,0,0,0,.07.4c.05.43.09.86.14,1.29v.68a.47.47,0,0,1-.19.34.46.46,0,0,1-.2.05Zm2.1-.18c-.09.23-.28.48-.54.4a.46.46,0,0,1-.25-.6c.07-.34.15-.68.24-1a1.23,1.23,0,0,1,.14-.42c0-.15.15-.45.24-.67s.31-.72.48-1.08a.45.45,0,0,1,.14.26v.65a6,6,0,0,1-.15,1.34l-.09.24v.2c-.07.23-.14.45-.22.67Zm-6.21-1.62a9.15,9.15,0,0,1,.82,1.66l.06.32a.4.4,0,0,1-.25.31.4.4,0,0,1-.53-.2v0a11.34,11.34,0,0,1-.4-1.29c.07-.25,0-.58.28-.77Zm8.52,0a4.82,4.82,0,0,1-.35,2,1.85,1.85,0,0,1-.19.37.36.36,0,0,1-.41.15c-.27-.09-.29-.37-.21-.63a5,5,0,0,1,1.19-1.95h0ZM236.16,164a20.12,20.12,0,0,0,.06,3.64v.07C235.75,166.35,235.53,165.19,236.16,164Zm-37.72-14.76c1.73-.62,3.28-.06,4.83.65-.66.38-1.37.07-2.3.59h.17l-.15.12a7.5,7.5,0,0,1,2.36.2l.14.11v.11a1.63,1.63,0,0,1-.51.43,2.52,2.52,0,0,0-.59.24,7.55,7.55,0,0,1-1,.35,3,3,0,0,0-.81.39h.15a1.37,1.37,0,0,0-.17.23,8.15,8.15,0,0,0,3-.76l.54-.18a.81.81,0,0,1,0,.31c-.22.54-.76.72-1.18,1h0a2.87,2.87,0,0,0-1.13.6,1.52,1.52,0,0,0-.41.39,1.61,1.61,0,0,0,.69,0c.51,0,.85-.42,1.27-.67a2,2,0,0,0,.27-.22,2,2,0,0,1,.62-.26.76.76,0,0,1,.23.13,3.08,3.08,0,0,1-.82,1.84,6.12,6.12,0,0,1-3.19,1.91,1.41,1.41,0,0,1-.95,0,.41.41,0,0,1-.14-.15,1.54,1.54,0,0,0-.35-.59c-.13-.49-.54-.38-.89-.45-1-.19-1.62-.65-1.79-1.3v-.84a3.32,3.32,0,0,1,.34-.8.83.83,0,0,0,.22-1.15h0l-.09-.1a1,1,0,0,1,0-.34,3.42,3.42,0,0,1,1.35-1.67,1.34,1.34,0,0,1,.27-.13ZM67.7,151.2V151l.36-.42a.43.43,0,0,1,.16,0,.55.55,0,0,1,.54.47v.11a.6.6,0,0,1-.58.54.49.49,0,0,1-.49-.49Zm5.12,13.2c.54.09.91.54,1.35.82a6,6,0,0,1,.59.64V166c-1.17-.12-1.51-1-2.24-1.79l.15.07Zm.08,1.92.22.13a4.54,4.54,0,0,1,.48.39.77.77,0,0,1,.19.34.34.34,0,0,1-.11.18.35.35,0,0,1-.41,0,10.14,10.14,0,0,1-2-1.53.79.79,0,0,1,.43-.07A5.2,5.2,0,0,1,72.9,166.32Zm-1.43,1.32c.42.09.78.18,1.13.29a1.74,1.74,0,0,1,.54.54h0c-.09.25-.41.2-.64.09a4.52,4.52,0,0,1-1.54-.91,4.17,4.17,0,0,1,.5,0ZM60.16,280.76a10.57,10.57,0,0,1-.93,2v.07a.43.43,0,0,1-.58.14h0a.24.24,0,0,1-.11-.13v-.09h0v-.14a.84.84,0,0,1,.13-.27,7.41,7.41,0,0,1,1.22-1.62C60.11,280.51,60.11,280.6,60.16,280.76Zm62.34-44a57.59,57.59,0,0,0,3-7.83c0,.8,0,1.61-.11,2.41a8.49,8.49,0,0,0-.16,1,6.83,6.83,0,0,1-2.7,4.44Zm88.56,46.11.22-.15a3.5,3.5,0,0,1,.14.46c0,.33.06.67.07,1s-.19.5-.42.45H211a.38.38,0,0,1-.16-.37,2.16,2.16,0,0,1,.2-1.39ZM204.66,245a.49.49,0,0,1-.22-.41c0-1.41-.75-2.66-.64-4v-.07a3.06,3.06,0,0,1,.07-.54.33.33,0,0,1,.15-.16h0l.08.09a2.57,2.57,0,0,1,.32.85,7.86,7.86,0,0,0,.31,1.44,4,4,0,0,0,.88,1.81l0,.08a.68.68,0,0,1,.12.22.55.55,0,0,1,0,.4,1.25,1.25,0,0,1-1.12.34Zm28.08-85.2a.92.92,0,0,1,.09.23,9.64,9.64,0,0,0,.09,1.7,4.82,4.82,0,0,0,0,.76h0c.1,1.08.21,2.16.29,3.16-.69-1.79-1.31-3.78-.47-5.83Zm-167.33-11a1.77,1.77,0,0,1,.45.18.46.46,0,0,1,.08.34h0a.54.54,0,0,1-.54.5h0a.54.54,0,0,1-.54-.54h0A.52.52,0,0,1,65,149,.56.56,0,0,1,65.41,148.84Zm-4.74,8.84a8.09,8.09,0,0,1-5-1,.62.62,0,0,1-.3-.3.31.31,0,0,1,0-.19c.12-.22.33-.2.54-.17l.31.14a.56.56,0,0,0,.45.22h0l.4.15a6.76,6.76,0,0,0,3.55.54,22.74,22.74,0,0,0,5.16-1.12,9.34,9.34,0,0,1,1.87-.87l.24-.2.8-.39h0A14.72,14.72,0,0,1,60.67,157.68Zm-1.08,65.88a.44.44,0,0,1,.37-.26,45.46,45.46,0,0,0,4.86-4.23.33.33,0,0,1,.07-.13l.12-.1.12-.08h0l.09-.07c.25-.11.38-.59.72-.38a8.61,8.61,0,0,1-3,4h0a9.22,9.22,0,0,1-4.11,1.77l.63-.48ZM45.2,261c0-1.43-.68-2.74-.54-4.15a.66.66,0,0,1,.25-.6,1.84,1.84,0,0,1,.46,1.15,6.34,6.34,0,0,0,.82,2.6v.08a1.6,1.6,0,0,1,.23.3h0a.94.94,0,0,1,.15.54.67.67,0,0,1-.47.54.64.64,0,0,1-.85-.31A.44.44,0,0,1,45.2,261Zm85.17-21.7.22-.54a20.85,20.85,0,0,0,1.86-4.69c.14-.41.27-.83.42-1.24a3.15,3.15,0,0,0,.26-.84c.08-.22.15-.44.22-.66h0C133.56,234.46,133.14,237.29,130.37,239.3Zm82.52,43.12v2.05a.43.43,0,0,1,0,.16.3.3,0,0,1-.24.09c-.32,0-.32-.29-.32-.54a4.88,4.88,0,0,1,.59-1.87S212.87,282.42,212.89,282.42Zm.25-86.07a.74.74,0,0,1-.13-.12,6.13,6.13,0,0,1-1.26-2.88,19.5,19.5,0,0,1,.07-3.15,1.58,1.58,0,0,1,.09-.42,2,2,0,0,0,.18-.48,5.63,5.63,0,0,1,.19-.54H212c-2.08-.07-4.23.28-5.89-1.29a8.44,8.44,0,0,1-.75-.72h0l-.26-.27a8.74,8.74,0,0,1-1.49-2.44.92.92,0,0,1,.09-.23,4.58,4.58,0,0,1,.82.63h0a3.92,3.92,0,0,0,1.2,1.33,6,6,0,0,0,.54.46,2.79,2.79,0,0,0,1.9,1,1.46,1.46,0,0,0,1.15.22h1.82a3.67,3.67,0,0,0,1.23-.23,5.35,5.35,0,0,1,.87-.17.71.71,0,0,1,.54.54.55.55,0,0,1-.12.32c-.11.13-.21.26-.31.4a1.26,1.26,0,0,0-.48.75v.05a6.79,6.79,0,0,0,.07,4.6,4.23,4.23,0,0,0,.66,1.43,3.42,3.42,0,0,0,.88.9l.11.07a2.5,2.5,0,0,0,.35.21,4,4,0,0,0,1.69.54,13.51,13.51,0,0,0,2.38,0h0a.89.89,0,0,0,.86-.17c.21,0,.41-.07.62-.08h1.15v.3a8.34,8.34,0,0,1-6.8.61,4.2,4.2,0,0,1-1.62-1.13Zm18.36,66.8a2.67,2.67,0,0,0,.41.89l.06.11a1.31,1.31,0,0,1,0,.28.7.7,0,0,1-.41.48c-.54.1-.87,0-1-.44h0c.13-1.48-.27-3,.13-4.51a.51.51,0,0,1,.09-.16.28.28,0,0,1,.28,0,4.19,4.19,0,0,1,.2,1.41c0,.38.06.78.09,1.18A2.42,2.42,0,0,0,231.5,263.15Zm1.43,17.94.21-.2a3.77,3.77,0,0,1,1.27,2.23v.12h-.16a4.72,4.72,0,0,1-1.32-2.16Zm-17.05-38a2.58,2.58,0,0,1,.08-1.43.83.83,0,0,1,.08-.12.69.69,0,0,1,.18.16,3.64,3.64,0,0,1,.38,1.24,1.6,1.6,0,0,0,.05.21,5.29,5.29,0,0,0,.13.54,4.07,4.07,0,0,0,.51,1.44v.06l.09.12.21.27h0a.63.63,0,0,1,.19.49h0a.74.74,0,0,1,0,.21v.1a.52.52,0,0,1-.12.17.75.75,0,0,1-.3.2h-.06a.33.33,0,0,1-.14,0H217a.75.75,0,0,1-.54-.8c.09-1-.54-1.88-.54-2.88Zm10.38,15.78a.34.34,0,0,1,.12-.12.42.42,0,0,1,.18.11,2.78,2.78,0,0,1,.29,1.3v.3a2.54,2.54,0,0,0,0,.39v.23a4.37,4.37,0,0,0,.23.86,1,1,0,0,0,.21.6v.09l.36.6h0v.08a1.72,1.72,0,0,1-.23.58,1,1,0,0,1-.27.19,1.09,1.09,0,0,1-.24.07h-.29a.62.62,0,0,1-.38-.51q0-.33,0-.66h0c.06-1.44-.4-2.76,0-4.11ZM220.75,245h0c0-1.43-.59-2.78-.54-4.49h.11a30,30,0,0,1,1.17,3.42c.12.4.26.79.42,1.18a.73.73,0,0,1-.72.45.49.49,0,0,1-.41-.36V245Zm4.19,0a1,1,0,0,1-.95-.51v-.08c.08-1.18-.54-2.23-.54-3.4,0-.44-.19-.91.25-1.28h0c.4.37.37.89.5,1.37.27,1,.27,2,1,2.76a.74.74,0,0,1,.18.65.71.71,0,0,1-.44.54Zm9.42,38.28a.36.36,0,0,0,.07-.1h0l-.06.06Zm2.82-1.46a.2.2,0,0,1-.16.12h-.29a.33.33,0,0,1-.15-.29c-.1-.83-.18-1.66-.28-2.5a3,3,0,0,1,.88,1.67Zm-1.29.38a.41.41,0,0,1-.15.14h-.06a.35.35,0,0,1-.4-.27,5.42,5.42,0,0,1-.47-1.89l.23.19a5.81,5.81,0,0,1,.75,1.27,3.13,3.13,0,0,1,.1.6Zm-4,.29.18-.17a5.52,5.52,0,0,1,1.28,1.08.42.42,0,0,1,.09.14.62.62,0,0,1,0,.27l-.09.1h0a.27.27,0,0,1-.39,0,5.38,5.38,0,0,1-1.11-1.36Zm8.35-2.85a6.77,6.77,0,0,1,0,2,.54.54,0,0,1-.1.16l-.07,0h0a.66.66,0,0,1-.28,0,.34.34,0,0,1-.09-.08,3.69,3.69,0,0,1,0-.47,6.6,6.6,0,0,1,.15-.87,3.12,3.12,0,0,1,.34-.77Zm-11.1-35.75a.35.35,0,0,1,.08.13.39.39,0,0,0,.06.15h0a.69.69,0,0,1,0,.35.86.86,0,0,1-.1.16h0c0,.07-.11.1-.16.15a1.15,1.15,0,0,1-.31.11.66.66,0,0,1-.66-.22h0a.92.92,0,0,1-.09-.23v-.07c0-1.28-.68-2.43-.61-3.71a1.45,1.45,0,0,1,.16-1h.14a3,3,0,0,1,.4,1.08,12.51,12.51,0,0,0,.51,2.07,1,1,0,0,0,.38.65,3.52,3.52,0,0,0,.15.42Zm-6.58,15.89.13-.2a2.88,2.88,0,0,1,.36.61.54.54,0,0,1,0,.18q.15.7.36,1.38a5.14,5.14,0,0,0,.54,1.41q.26.56.54,1.11a.6.6,0,0,1-.15.31.76.76,0,0,1-.64.36.62.62,0,0,1-.65-.54c0-1.47-.87-2.87-.54-4.6Zm16.41-92.56c.13,1.35-.1,2.65,0,3.91a4,4,0,0,1-.05-3.86Zm-26.46-49.51h.24l.71.15a4.21,4.21,0,0,1,3,2.45,7.9,7.9,0,0,1,.1,2.7v.18a1.1,1.1,0,0,0-.27.69l-.22.44a2.55,2.55,0,0,1-2,1.49,51.13,51.13,0,0,0-5.65.77.49.49,0,0,1-.23-.08c.54-1.08,1.62-1.08,2.54-1.42l.47-.06a4,4,0,0,0,1.19,0h.89a.1.1,0,0,0,.08-.07h0a1,1,0,0,0,.94-.24c.26-.07.54-.13.57-.43v-.08a.49.49,0,0,0-.35-.62h0a2.76,2.76,0,0,0-.49-.07h-.16a2.87,2.87,0,0,0-1,.09c-1.67.28-3.36.6-5,.85a4.7,4.7,0,0,1-3.46-.88.39.39,0,0,1,.19-.12,17,17,0,0,0,2,0,10.46,10.46,0,0,0,4-.8h0l.39-.14L213,122h.22a3.13,3.13,0,0,0,1.36-.12,2.77,2.77,0,0,0-1.08-.44l-.31-.08a5.11,5.11,0,0,0-2.09-.27,7.54,7.54,0,0,0-1.5.13l-.73.14a2.07,2.07,0,0,0-.42.08c-.77.15-1.54.3-2.32.38a6.94,6.94,0,0,1-4.68-1c.34-.21.76-.07,1.14-.07a3.5,3.5,0,0,0,1.12-.1,9.53,9.53,0,0,0,1.19-.2H205a1,1,0,0,0,.8-.16l.46-.08a9.07,9.07,0,0,0,2.48-.47l.89-.15a3.54,3.54,0,0,0,1.92-.31l.59-.11a9.36,9.36,0,0,0-5.31-.48c-.51.11-1,.2-1.54.26s-1.08.06-1.59.08a12.81,12.81,0,0,1-3.88-.68,3.68,3.68,0,0,1-2.44-1.82,6.53,6.53,0,0,0,2,1.15,8,8,0,0,0,4.21.35h.16l.2-.08h.35c.31-.07.62-.11.93-.16a4.94,4.94,0,0,0,1-.16,19.65,19.65,0,0,1,3.91-.1h.32a18.36,18.36,0,0,1,2,.22Zm-75.9,31V149a3.26,3.26,0,0,1-1.56,2.44,4.67,4.67,0,0,1-1.52.57,3.36,3.36,0,0,0-.71.08c-2.56.13-5.32-1.55-5.85-4a2.49,2.49,0,0,1,.38-2.08h0a8.86,8.86,0,0,1,.44.87,1.18,1.18,0,0,0,.23.54l.06.15a.69.69,0,0,0,.2.47c.06.13.12.24.19.37a2.6,2.6,0,0,0,.91,1l.2.15h0a2.92,2.92,0,0,0,2.7.54,2.53,2.53,0,0,0,.82-.37c.69-.44.72-.66.2-1.37h0a1.69,1.69,0,0,1-.3-.48,2.34,2.34,0,0,1,.18-1.38,2.39,2.39,0,0,1,.13-.21l.13-.11a1.55,1.55,0,0,1,.22-.12,2,2,0,0,1,1.16-.11,2.45,2.45,0,0,1,.54.18l.1.06a3.51,3.51,0,0,1,1,1.46A3.32,3.32,0,0,1,136.57,148.75Z"/>
              <path class="cls-15" d="M184.23,226.53c.27.51.37,1.14,1.08,1.47v-.2h.1a1.06,1.06,0,0,0-.16-.34A1.76,1.76,0,0,0,184.23,226.53Z"/>
              <path class="cls-16" d="M187.31,222.14h-.15v-.07l-.17.09a2.17,2.17,0,0,0-1.23.77A1.83,1.83,0,0,0,187.31,222.14Z"/>
              <path class="cls-17" d="M182.4,220.26c.34-.23.34-.58.38-.92s-.12-.26-.32-.2h0v.1A1.38,1.38,0,0,0,182.4,220.26Z"/>
              <path class="cls-18" d="M73.54,187.42h0a.59.59,0,0,0,.6.48h.16a.94.94,0,0,0,.36-.11.76.76,0,0,0,.43-.71h0a.54.54,0,0,0,0-.18.8.8,0,0,0-1.59.18h0v.11a.54.54,0,0,0,0,.18Z"/>
              <path class="cls-19" d="M90.51,161.13a.62.62,0,0,0,.7.5h0a.6.6,0,0,0,.48-.54.41.41,0,0,0,0-.22.6.6,0,0,0-.6-.61.57.57,0,0,0-.57.42.56.56,0,0,0,0,.28A1,1,0,0,0,90.51,161.13Z"/>
              <path class="cls-20" d="M100.79,162.33a.31.31,0,0,0,.38.23h0a.4.4,0,0,0,.33-.43.35.35,0,0,0-.1-.21.35.35,0,0,0-.31-.15H101l-.09.07h0a.11.11,0,0,0-.06.07.31.31,0,0,0,0,.19h0v.06A.3.3,0,0,0,100.79,162.33Z"/>
              <path class="cls-21" d="M97.45,159.34c0,.21,0,.37.27.41s.3-.16.35-.34v-.06h0a.31.31,0,0,0-.22-.3.29.29,0,0,0-.37.15.33.33,0,0,0,0,.14h0Z"/>
              <path class="cls-22" d="M94.42,167.66a.82.82,0,0,0-.19.71A.68.68,0,0,0,94.42,167.66Z"/>
              <path class="cls-23" d="M200.82,218.65a.62.62,0,0,0-.1-.71,1.23,1.23,0,0,1-.45-1.23.67.67,0,0,0-.41-.72h0a1.1,1.1,0,0,0-.57,0,3.13,3.13,0,0,0-.54.19h-.45a.91.91,0,0,1-.23-.17c-.54-.06-1.08.05-1.14.69v.38a3.53,3.53,0,0,1-.22.72l-.14.12-.06.05a.65.65,0,0,0,0,.9.12.12,0,0,1,.08.11h.14a6.67,6.67,0,0,1,1.46,1,1,1,0,0,1,.1.11.58.58,0,0,0,.25.09.6.6,0,0,0,.7-.32v-.09h0v0h0v.13a3.92,3.92,0,0,1,1.14-.84A.83.83,0,0,0,200.82,218.65Zm-2.2-1.08h.1a.3.3,0,0,1,.23.32.28.28,0,0,1-.31.22.25.25,0,0,1-.28-.19h0a.17.17,0,0,1,0-.1A.39.39,0,0,1,198.62,217.57Z"/>
              <path class="cls-24" d="M196.45,222c.15-.54.51-.77.28-1.39C196.48,221,196.12,221.34,196.45,222Z"/>
              <path class="cls-25" d="M194.73,216.36c-.09,0-.11-.11-.28-.11s-.39-.23-.48,0,.18.33.33.33h.33l.93.24a2.63,2.63,0,0,0-.82-.45Z"/>
              <path class="cls-26" d="M280.17,121.35l-.3-.23A.32.32,0,0,0,280.17,121.35Z"/>
              <path class="cls-27" d="M99,210.6v.08l.08.12.09.07.11.07h0l.23.09h0a.92.92,0,0,0,.27-.08.58.58,0,0,0,.37-.54.66.66,0,0,0-.57-.73.73.73,0,0,0-.33.08h0l-.12.08a.65.65,0,0,0-.2.45h0v.19A.35.35,0,0,0,99,210.6Z"/>
              <path class="cls-28" d="M91.8,210.78h.14a.38.38,0,0,0,.33-.33.17.17,0,0,0,0-.1h0v-.11a.37.37,0,0,0-.12-.2H92.1a.3.3,0,0,0-.16,0h-.06a.42.42,0,0,0-.38.43h0A.38.38,0,0,0,91.8,210.78Z"/>
              <path class="cls-29" d="M95.61,211.68a.34.34,0,0,0,.32-.35h0v-.05a.34.34,0,0,0-.39-.27h0a.36.36,0,0,0-.28.35A.36.36,0,0,0,95.61,211.68Z"/>
              <path class="cls-30" d="M115,185.48a0,0,0,0,1,0,.05.76.76,0,0,0,.63.26.7.7,0,0,0,.62-.26.78.78,0,0,0,.25-.54v-.1h0a.81.81,0,0,0-.8-.75h-.11a.85.85,0,0,0-.83.85h0a.84.84,0,0,0,.14.41A.39.39,0,0,0,115,185.48Z"/>
              <path class="cls-31" d="M251.29,122.29l-.25-.09c-.73-.22-1.18,0-1.18.79a1.38,1.38,0,0,1-.3,1c-.84,1.27.41,1.24,1.08,1.65a.83.83,0,0,1,.19.26c.06.1.13.2.2.3s.08.13.17.16a.41.41,0,0,0,.54-.06.8.8,0,0,0,.4-.27,2.77,2.77,0,0,1,.31-.45l.08-.07h.05a1.19,1.19,0,0,1,.25-.13h0a1.71,1.71,0,0,1,.32,0h0c.33-.15.63-.3.54-.62a1.27,1.27,0,0,0-.31-.72l-.1-.1a1.1,1.1,0,0,1-.21-.66h0v-.07a.76.76,0,0,1,.06-.2c.07-.18-.07-.35-.24-.5a.76.76,0,0,0-1-.29.1.1,0,0,0-.05,0,.5.5,0,0,1-.2.08Zm.18,2a.26.26,0,0,1-.21-.14.24.24,0,0,1,.1-.22h.06a.22.22,0,0,1,.27.16h-.05a.45.45,0,0,1,0,.23h-.15Z"/>
              <path class="cls-32" d="M255.87,122.54a.6.6,0,0,0,0-.19l-.51.31a2.59,2.59,0,0,0-1.08.77,2.68,2.68,0,0,0,1.73-.93Z"/>
              <path class="cls-33" d="M251.15,119.71c0,.13.11.28.23.26s.18-.2.24-.27c0-.24-.06-.33-.27-.31S251.14,119.58,251.15,119.71Z"/>
            </g>
          </g>
        </g>
      </g>
    </g>
  </g>
</svg>
