<svg xmlns="http://www.w3.org/2000/svg" xmlns:xlink="http://www.w3.org/1999/xlink" width="324" height="324" viewBox="0 0 324 324">
  <defs>
    <style>
      .cls-1 {
        opacity: 0;
      }

      .cls-2 {
        fill: none;
      }

      .cls-3 {
        fill: url(#Degradado_sin_nombre_34);
      }

      .cls-4 {
        fill: url(#Degradado_sin_nombre_34-2);
      }

      .cls-5 {
        fill: url(#Degradado_sin_nombre_34-3);
      }

      .cls-6 {
        fill: url(#Degradado_sin_nombre_34-4);
      }

      .cls-7 {
        fill: url(#Degradado_sin_nombre_34-5);
      }

      .cls-8 {
        fill: url(#Degradado_sin_nombre_34-6);
      }

      .cls-9 {
        fill: url(#Degradado_sin_nombre_34-7);
      }

      .cls-10 {
        fill: url(#Degradado_sin_nombre_34-8);
      }

      .cls-11 {
        fill: url(#Degradado_sin_nombre_34-9);
      }

      .cls-12 {
        fill: url(#Degradado_sin_nombre_34-10);
      }

      .cls-13 {
        fill: url(#Degradado_sin_nombre_34-11);
      }

      .cls-14 {
        fill: url(#Degradado_sin_nombre_34-12);
      }

      .cls-15 {
        fill: url(#Degradado_sin_nombre_34-13);
      }

      .cls-16 {
        fill: url(#Degradado_sin_nombre_34-14);
      }

      .cls-17 {
        fill: url(#Degradado_sin_nombre_34-15);
      }

      .cls-18 {
        fill: url(#Degradado_sin_nombre_34-16);
      }

      .cls-19 {
        fill: url(#Degradado_sin_nombre_34-17);
      }

      .cls-20 {
        fill: url(#Degradado_sin_nombre_34-18);
      }

      .cls-21 {
        fill: url(#Degradado_sin_nombre_34-19);
      }

      .cls-22 {
        fill: url(#Degradado_sin_nombre_34-20);
      }

      .cls-23 {
        fill: url(#Degradado_sin_nombre_34-21);
      }

      .cls-24 {
        fill: url(#Degradado_sin_nombre_34-22);
      }

      .cls-25 {
        fill: url(#Degradado_sin_nombre_34-23);
      }

      .cls-26 {
        fill: url(#Degradado_sin_nombre_34-24);
      }

      .cls-27 {
        fill: url(#Degradado_sin_nombre_34-25);
      }

      .cls-28 {
        fill: url(#Degradado_sin_nombre_34-26);
      }

      .cls-29 {
        fill: url(#Degradado_sin_nombre_34-27);
      }

      .cls-30 {
        fill: url(#Degradado_sin_nombre_34-28);
      }

      .cls-31 {
        fill: url(#Degradado_sin_nombre_34-29);
      }

      .cls-32 {
        fill: url(#Degradado_sin_nombre_34-30);
      }

      .cls-33 {
        fill: url(#Degradado_sin_nombre_34-31);
      }

      .cls-34 {
        fill: url(#Degradado_sin_nombre_34-32);
      }

      .cls-35 {
        fill: url(#Degradado_sin_nombre_34-33);
      }

      .cls-36 {
        fill: url(#Degradado_sin_nombre_34-34);
      }

      .cls-37 {
        fill: url(#Degradado_sin_nombre_34-35);
      }

      .cls-38 {
        fill: url(#Degradado_sin_nombre_34-36);
      }

      .cls-39 {
        fill: url(#Degradado_sin_nombre_34-37);
      }

      .cls-40 {
        fill: url(#Degradado_sin_nombre_34-38);
      }

      .cls-41 {
        fill: url(#Degradado_sin_nombre_34-39);
      }

      .cls-42 {
        fill: url(#Degradado_sin_nombre_34-40);
      }

      .cls-43 {
        fill: url(#Degradado_sin_nombre_34-41);
      }

      .cls-44 {
        fill: url(#Degradado_sin_nombre_34-42);
      }

      .cls-45 {
        fill: url(#Degradado_sin_nombre_34-43);
      }

      .cls-46 {
        fill: url(#Degradado_sin_nombre_34-44);
      }

      .cls-47 {
        fill: url(#Degradado_sin_nombre_34-45);
      }
    </style>
    <linearGradient id="Degradado_sin_nombre_34" data-name="Degradado sin nombre 34" x1="254.52" y1="-6.78" x2="255.74" y2="-6.78" gradientTransform="matrix(1, 0, 0, -1, -6.01, 229.98)" gradientUnits="userSpaceOnUse">
      <stop offset="0.05" stop-color="#957e41"/>
      <stop offset="0.21" stop-color="#d8bc63"/>
      <stop offset="0.49" stop-color="#dfc46b"/>
      <stop offset="0.74" stop-color="#c6a95a"/>
      <stop offset="0.98" stop-color="#7a6834"/>
    </linearGradient>
    <linearGradient id="Degradado_sin_nombre_34-2" x1="249.31" y1="-6.98" x2="250.13" y2="-6.98" xlink:href="#Degradado_sin_nombre_34"/>
    <linearGradient id="Degradado_sin_nombre_34-3" x1="247.57" y1="-5.39" x2="248.11" y2="-5.39" xlink:href="#Degradado_sin_nombre_34"/>
    <linearGradient id="Degradado_sin_nombre_34-4" x1="254.72" y1="26.69" x2="255.51" y2="26.69" xlink:href="#Degradado_sin_nombre_34"/>
    <linearGradient id="Degradado_sin_nombre_34-5" x1="236.32" y1="8.75" x2="237.79" y2="8.75" xlink:href="#Degradado_sin_nombre_34"/>
    <linearGradient id="Degradado_sin_nombre_34-6" x1="215.87" y1="65.52" x2="219.37" y2="65.52" xlink:href="#Degradado_sin_nombre_34"/>
    <linearGradient id="Degradado_sin_nombre_34-7" x1="214.49" y1="54.21" x2="219.97" y2="54.21" xlink:href="#Degradado_sin_nombre_34"/>
    <linearGradient id="Degradado_sin_nombre_34-8" x1="132.86" y1="82.51" x2="133.76" y2="82.51" xlink:href="#Degradado_sin_nombre_34"/>
    <linearGradient id="Degradado_sin_nombre_34-9" x1="125.97" y1="64.82" x2="126.97" y2="64.82" xlink:href="#Degradado_sin_nombre_34"/>
    <linearGradient id="Degradado_sin_nombre_34-10" x1="156.29" y1="-10.03" x2="156.63" y2="-10.03" xlink:href="#Degradado_sin_nombre_34"/>
    <linearGradient id="Degradado_sin_nombre_34-11" x1="132.51" y1="69.73" x2="132.89" y2="69.73" xlink:href="#Degradado_sin_nombre_34"/>
    <linearGradient id="Degradado_sin_nombre_34-12" x1="133.5" y1="70.43" x2="133.86" y2="70.43" xlink:href="#Degradado_sin_nombre_34"/>
    <linearGradient id="Degradado_sin_nombre_34-13" x1="108.84" y1="-26.55" x2="109.89" y2="-26.55" xlink:href="#Degradado_sin_nombre_34"/>
    <linearGradient id="Degradado_sin_nombre_34-14" x1="38.19" y1="28.86" x2="297.95" y2="28.86" xlink:href="#Degradado_sin_nombre_34"/>
    <linearGradient id="Degradado_sin_nombre_34-15" x1="107.51" y1="-28.37" x2="107.99" y2="-28.37" xlink:href="#Degradado_sin_nombre_34"/>
    <linearGradient id="Degradado_sin_nombre_34-16" x1="160.93" y1="-27.86" x2="161.16" y2="-27.86" xlink:href="#Degradado_sin_nombre_34"/>
    <linearGradient id="Degradado_sin_nombre_34-17" x1="189.48" y1="26.46" x2="189.69" y2="26.46" xlink:href="#Degradado_sin_nombre_34"/>
    <linearGradient id="Degradado_sin_nombre_34-18" x1="189.77" y1="25.9" x2="189.99" y2="25.9" xlink:href="#Degradado_sin_nombre_34"/>
    <linearGradient id="Degradado_sin_nombre_34-19" x1="215.59" y1="22.98" x2="215.81" y2="22.98" xlink:href="#Degradado_sin_nombre_34"/>
    <linearGradient id="Degradado_sin_nombre_34-20" x1="291.34" y1="69.91" x2="291.45" y2="69.91" xlink:href="#Degradado_sin_nombre_34"/>
    <linearGradient id="Degradado_sin_nombre_34-21" x1="150.78" y1="102.11" x2="151.11" y2="102.11" xlink:href="#Degradado_sin_nombre_34"/>
    <linearGradient id="Degradado_sin_nombre_34-22" x1="120.56" y1="42.72" x2="120.77" y2="42.72" xlink:href="#Degradado_sin_nombre_34"/>
    <linearGradient id="Degradado_sin_nombre_34-23" x1="64.05" y1="52.71" x2="64.39" y2="52.71" xlink:href="#Degradado_sin_nombre_34"/>
    <linearGradient id="Degradado_sin_nombre_34-24" x1="158.7" y1="-2.11" x2="159.24" y2="-2.11" xlink:href="#Degradado_sin_nombre_34"/>
    <linearGradient id="Degradado_sin_nombre_34-25" x1="247.99" y1="-5.62" x2="248.37" y2="-5.62" xlink:href="#Degradado_sin_nombre_34"/>
    <linearGradient id="Degradado_sin_nombre_34-26" x1="252.46" y1="-7.71" x2="252.67" y2="-7.71" xlink:href="#Degradado_sin_nombre_34"/>
    <linearGradient id="Degradado_sin_nombre_34-27" x1="254.71" y1="4.96" x2="254.88" y2="4.96" xlink:href="#Degradado_sin_nombre_34"/>
    <linearGradient id="Degradado_sin_nombre_34-28" x1="265" y1="11.19" x2="266.48" y2="11.19" xlink:href="#Degradado_sin_nombre_34"/>
    <linearGradient id="Degradado_sin_nombre_34-29" x1="185.18" y1="93.3" x2="185.72" y2="93.3" xlink:href="#Degradado_sin_nombre_34"/>
    <linearGradient id="Degradado_sin_nombre_34-30" x1="185.52" y1="92" x2="185.71" y2="92" xlink:href="#Degradado_sin_nombre_34"/>
    <linearGradient id="Degradado_sin_nombre_34-31" x1="247.6" y1="27.21" x2="248.75" y2="27.21" xlink:href="#Degradado_sin_nombre_34"/>
    <linearGradient id="Degradado_sin_nombre_34-32" x1="244.78" y1="25.52" x2="245.97" y2="25.52" xlink:href="#Degradado_sin_nombre_34"/>
    <linearGradient id="Degradado_sin_nombre_34-33" x1="252.81" y1="28.4" x2="253.17" y2="28.4" xlink:href="#Degradado_sin_nombre_34"/>
    <linearGradient id="Degradado_sin_nombre_34-34" x1="212.77" y1="66.23" x2="215.86" y2="66.23" xlink:href="#Degradado_sin_nombre_34"/>
    <linearGradient id="Degradado_sin_nombre_34-35" x1="217.53" y1="64.61" x2="218.53" y2="64.61" xlink:href="#Degradado_sin_nombre_34"/>
    <linearGradient id="Degradado_sin_nombre_34-36" x1="218.57" y1="65.43" x2="218.78" y2="65.43" xlink:href="#Degradado_sin_nombre_34"/>
    <linearGradient id="Degradado_sin_nombre_34-37" x1="216.66" y1="53.68" x2="217.75" y2="53.68" xlink:href="#Degradado_sin_nombre_34"/>
    <linearGradient id="Degradado_sin_nombre_34-38" x1="126.85" y1="78.11" x2="128.14" y2="78.11" xlink:href="#Degradado_sin_nombre_34"/>
    <linearGradient id="Degradado_sin_nombre_34-39" x1="219.83" y1="59.75" x2="226.59" y2="59.75" xlink:href="#Degradado_sin_nombre_34"/>
    <linearGradient id="Degradado_sin_nombre_34-40" x1="206.92" y1="58.75" x2="213.81" y2="58.75" xlink:href="#Degradado_sin_nombre_34"/>
    <linearGradient id="Degradado_sin_nombre_34-41" x1="91.58" y1="86.69" x2="91.81" y2="86.69" xlink:href="#Degradado_sin_nombre_34"/>
    <linearGradient id="Degradado_sin_nombre_34-42" x1="132.86" y1="69.53" x2="133.26" y2="69.53" xlink:href="#Degradado_sin_nombre_34"/>
    <linearGradient id="Degradado_sin_nombre_34-43" x1="134.82" y1="73.41" x2="135.1" y2="73.41" xlink:href="#Degradado_sin_nombre_34"/>
    <linearGradient id="Degradado_sin_nombre_34-44" x1="134.77" y1="71.14" x2="135.1" y2="71.14" xlink:href="#Degradado_sin_nombre_34"/>
    <linearGradient id="Degradado_sin_nombre_34-45" x1="133.98" y1="70.17" x2="134.19" y2="70.17" xlink:href="#Degradado_sin_nombre_34"/>
  </defs>
  <title>EL CERDO</title>
  <g id="Capa_2" data-name="Capa 2">
    <g id="Capa_1-2" data-name="Capa 1">
      <g>
        <g class="cls-1">
          <rect class="cls-2" width="324" height="324"/>
        </g>
        <g id="Capa_1-2-2" data-name="Capa 1-2">
          <g>
            <path class="cls-3" d="M248.53,236.83a.38.38,0,0,0,.43.29.35.35,0,0,0,.3.19h0a.42.42,0,1,0,0-.83.42.42,0,0,0-.34-.26h-.07a.38.38,0,0,0-.29.46v0A.28.28,0,0,0,248.53,236.83Z"/>
            <path class="cls-4" d="M243.57,237.14a.2.2,0,0,0,.16-.07.24.24,0,0,0,.19.25c.07,0,.17-.07.19-.13v-.09a.18.18,0,0,0-.18-.17h0a.52.52,0,0,0-.16.06.28.28,0,0,0,0-.13.24.24,0,0,0-.22-.25h0c-.13,0-.3.1-.24.26A.39.39,0,0,0,243.57,237.14Z"/>
            <path class="cls-5" d="M241.83,235.65c.14,0,.27-.12.27-.39,0,0-.18-.17-.28-.15a.44.44,0,0,0-.26.29C241.55,235.54,241.69,235.64,241.83,235.65Z"/>
            <path class="cls-6" d="M248.87,203.44a.22.22,0,0,0,.24-.09.24.24,0,0,0,0,.12v.09a.18.18,0,0,0,.25,0h0c.1,0,.1-.14.1-.21v-.06a.18.18,0,0,0-.26-.06h0c0-.15-.05-.21-.2-.25a.25.25,0,0,0-.22.12v.06a.19.19,0,0,0,.08.26Z"/>
            <path class="cls-7" d="M230.74,221.65a.56.56,0,0,0,.55.26h0a.49.49,0,0,0,.45-.54v0h0a.61.61,0,0,0-.46-.56.48.48,0,0,0-.44-.22h-.13a.52.52,0,0,0-.43.6h0a.2.2,0,0,0,0,.11A.53.53,0,0,0,230.74,221.65Z"/>
            <path class="cls-8" d="M211.11,165.49c-.1-1.84-.38-2.91-.86-3.4h0a3.2,3.2,0,0,0-.32-.57c-.15,1.78.23,5.32.77,6.24h0c0,.14.07.24.29.22s.21-.37.21-.46v-.28l-.46.25h0l.44-.25c0-.61,0-1.15-.05-1.65a3.85,3.85,0,0,0,.83-.73V165h.63a.31.31,0,0,0,0-.19h0a.39.39,0,0,1,.21-.38c.74-1.54.79-2.1.15-3.31-.06.28-.09.53-.14.8a3.58,3.58,0,0,0-.25-.92C212.61,162.57,211.82,163.93,211.11,165.49Z"/>
            <path class="cls-9" d="M209,178.11a.69.69,0,0,0,.31.3,13.46,13.46,0,0,1,1.75-4.53.35.35,0,0,0-.14-.34h0l.12-.17c1.5,1.35,1.66,3.38,2.66,5v-.44q.15.32.33.63c.15-1.71-.74-3.08-1.44-4.49v0a.94.94,0,0,0-.61-.54l-.07-.09-.16-.13a1.21,1.21,0,0,0-1.68.35h0a9,9,0,0,0-1.42,3.35,1.29,1.29,0,0,0,.37,1.39C208.93,178.26,209,178.19,209,178.11Z"/>
            <path class="cls-10" d="M127.41,147.41a.28.28,0,0,0-.23-.31.28.28,0,0,0-.32.21.31.31,0,0,0,.24.36s.06,0,.08,0a.16.16,0,0,0,.11,0v.06h0a.24.24,0,0,0,.29.17.28.28,0,0,0,.19-.31.19.19,0,0,0-.27-.19h-.07Z"/>
            <path class="cls-11" d="M120.28,165.42a.33.33,0,0,0,.14,0h0a.25.25,0,0,0,.28.19l0,0c.11,0,.16-.19.22-.24a.29.29,0,0,0-.29-.32h0a.32.32,0,0,0-.3-.3c-.24,0-.29.17-.36.31S120,165.38,120.28,165.42Z"/>
            <path class="cls-12" d="M150.46,240.52c.08-.42.32-.71,0-1A.85.85,0,0,0,150.46,240.52Z"/>
            <path class="cls-13" d="M126.63,160.06c0,.07-.13,0-.13.19s.21.2.26.2a.12.12,0,0,0,.12-.13v0a.22.22,0,0,0-.22-.22Z"/>
            <path class="cls-14" d="M127.62,159.35a.13.13,0,0,0-.13.13c0,.12,0,.28.22.28s.14-.12.14-.18a.53.53,0,0,0-.16-.2A.11.11,0,0,0,127.62,159.35Z"/>
            <path class="cls-15" d="M103.1,257a2.21,2.21,0,0,0,.78-.93c-.47,0-.68.46-1,.62Z"/>
            <path class="cls-16" d="M291.45,146.41l.48-.2a20.74,20.74,0,0,0-2.06-.53,13.56,13.56,0,0,0-2.2-.22,8.78,8.78,0,0,0-8.7,5.73c-.14.44-.39.86-.52,1.31a1.36,1.36,0,0,1-1.5,1.11,9.12,9.12,0,0,0-4.61,1.25,4.86,4.86,0,0,0-2.69,4.19,49,49,0,0,1-.92,7.13,20,20,0,0,1-2,6.16c-.77,1.31-1.44,1.53-2.36.76l-.12-.11h0a20.5,20.5,0,0,0-2.58-2.77h0a6.7,6.7,0,0,0-1.76-1.84h0a62.57,62.57,0,0,0-5-5.19h0a4,4,0,0,0-1.08-1.12,8.34,8.34,0,0,0-1.57-1.57h-.06a10.73,10.73,0,0,0-1.74-1.76h0a1.34,1.34,0,0,0-.57-.56h0a1,1,0,0,0-.55-.55h0a20,20,0,0,0-2.32-2.19,2.27,2.27,0,0,0-.92-.79h0v-.07a16.71,16.71,0,0,0-2.19-1.93c-1.38-1.27-2.82-2.47-4.3-3.62h0l-.92-.7-.12-.09-.12-.09v0a29.62,29.62,0,0,0-3.87-2.63c-1.14-.73-2.3-1.43-3.47-2.1a34.74,34.74,0,0,0-11.27-3.87c-3.92-.54-7.87-.68-11.81-.92a101.61,101.61,0,0,1-15.25-1.85,42.4,42.4,0,0,1-12.66-4.61c-.32-.19-.63-.38-.92-.59a1.58,1.58,0,0,0-.76-.51h0l-.3-.18L177,130c-.33-.21-.66-.43-1-.61a30.91,30.91,0,0,0-23.3-3.42c-2.66.63-5.24,1.47-7.82,2.32a2.29,2.29,0,0,1-.55.31c.14-.12.29-.23.44-.34a.45.45,0,0,0,0-.23h0a.35.35,0,0,1,.32-.29,5.32,5.32,0,0,0,1.26-1.2,1.27,1.27,0,0,1-.49-.06h0a1.24,1.24,0,0,0,.47.06,6.35,6.35,0,0,0,1.42-1.46,3.38,3.38,0,0,0-.13-.42h0a3.38,3.38,0,0,1,.13.42c1-.92,1.76-2,2.68-3a1.35,1.35,0,0,0,.18-1.69A1.15,1.15,0,0,0,150,120a1.25,1.25,0,0,0-1.39-.3,21,21,0,0,1-2.46.6,8.9,8.9,0,0,1-6-.75,29.61,29.61,0,0,0-12.29-3.29,10.5,10.5,0,0,0-6.71,1.74c-1.09.75-2.18,1.47-3.25,2.24-2.08,1.44-4.13,3-6.37,4.41a20.49,20.49,0,0,1-5,2.44,6.17,6.17,0,0,1-2.66.34h0a1,1,0,0,1-.2-.16h0a.9.9,0,0,0,.19.15l.74-.38a4.11,4.11,0,0,1,.15-.46h0a3.16,3.16,0,0,0-.17.52,40.74,40.74,0,0,0,6.7-4.4,2.08,2.08,0,0,1-.61,0h.06a1.69,1.69,0,0,0,.55,0l.25-.23A4.93,4.93,0,0,0,113,121.2a1.75,1.75,0,0,1-.29-.26h0a1.2,1.2,0,0,0,.29.26,4.45,4.45,0,0,0,1.21-1.12,3.87,3.87,0,0,0-.34-.21h0l.34.21c.74-.68.92-.84.51-1.17h0l-.09-.07-.27-.21h0l-.11-.08a.66.66,0,0,0-.17-.12,10,10,0,0,0-1.63-1.19,44,44,0,0,0-11.07-4,61.57,61.57,0,0,0-23.66-.56,2.43,2.43,0,0,1-2-.41,14.88,14.88,0,0,0-4-2,10.93,10.93,0,0,0-5.4-.68c-3.9.65-7.79,1.29-11.67,2a3.17,3.17,0,0,1-2.16-.29,32,32,0,0,1-5.7-3,.5.5,0,0,0-.19-.13.66.66,0,0,0-.89.27l0,.05a4.5,4.5,0,0,0-.49,1,11.08,11.08,0,0,0-.13,6.12,7.81,7.81,0,0,0,3,4c.86.7,1.75,1.38,2.64,2h0c.43.32.84.62,1.27.92h0c1.62,1.11,3.24,2.13,4.82,3.05l.21.11a.27.27,0,0,0,.22.12,2.77,2.77,0,0,1,.37.22.2.2,0,0,0,.09.07,1.17,1.17,0,0,1,.3.4l-3.16,4.34c4.88,2.85,8.78,6.37,10,12.26a1.64,1.64,0,0,0-.53-.74h0a8.6,8.6,0,0,0-1.44-2.26h0a.84.84,0,0,0-.34-.52h0a1,1,0,0,0-.46-.58h0a12,12,0,0,0-2.36-2.77h0a2.3,2.3,0,0,0-.93-.82h0a1.21,1.21,0,0,0-.58-.51h0a2.38,2.38,0,0,0-.78-.63,15.21,15.21,0,0,0-3-1.85c-.32-.15-.59-.24-.84.14a20.1,20.1,0,0,0-1.84,2.64,21.25,21.25,0,0,1,3,2.19c-1.71,2.44-2.76,5-1.77,8l-.24-.15-.78-.81h0a2.58,2.58,0,0,0-.71-1,.7.7,0,0,0-.07.1c-.14-.18-.28-.35-.43-.52-.73,2.07-1.45,4-2.09,6a2,2,0,0,1-1.32,1.46,5.22,5.22,0,0,0-2.68,2,3.42,3.42,0,0,1,.64,0,1.75,1.75,0,0,0-.23.24,10.48,10.48,0,0,1,4.67,1.29c.22.16.44.33.64.5l.06.06c.22.19.42.39.62.6a2.86,2.86,0,0,0,.92.81,1.57,1.57,0,0,0,1.44.59c0-.08-.1-.15-.19-.21h.06a.37.37,0,0,1,.13.17,1.24,1.24,0,0,0,.85,0,1.61,1.61,0,0,0,1.14-.3h-.05V156h0v.21h.82a10.84,10.84,0,0,1,3.22,1.3,18,18,0,0,1,4.27,4.8l.08.11a.56.56,0,0,1-.26.73.47.47,0,0,1-.63-.14l-.15-.2a9.64,9.64,0,0,0-1-1.47,11,11,0,0,0-.74-.92h0L60.6,160h0a.79.79,0,0,0-.58-.5h0c-.11-.09-.22-.16-.33-.24s-.2-.18-.31-.25a5.21,5.21,0,0,0-4.27-.92l-1.38.3a2.59,2.59,0,0,1-2.17-.27,3.18,3.18,0,0,1-.62-.7.2.2,0,0,0,0,.11h0a.21.21,0,0,1,0-.11.63.63,0,0,0-.35-.51.36.36,0,0,0-.24-.31,1.79,1.79,0,0,0-.86-1.08v.06l-.07-.06h0a.3.3,0,0,0-.26-.24l-.09-.1a.25.25,0,0,0-.16-.14,7.75,7.75,0,0,0-5.2-2,5.46,5.46,0,0,0-4.39,1.84,1.86,1.86,0,0,1-1.54.7,4.46,4.46,0,0,0-4.39,3A14.74,14.74,0,0,0,33,169.27a29,29,0,0,0,8,11.48,2,2,0,0,0,.7.64l.16.14a10,10,0,0,0,1.27,1.07l.21.18.29.2A5.44,5.44,0,0,0,47.48,184a.72.72,0,0,1,.17-.22h.21a.59.59,0,0,0-.35.23c1.13,0,2.29-.05,3.36,0a6.33,6.33,0,0,0,3.11-.69h0a3.27,3.27,0,0,0,1-.24,1.33,1.33,0,0,1,.34.22,1.53,1.53,0,0,0,.37.16,1.89,1.89,0,0,0,1.7-.1,1.23,1.23,0,0,1,.25.48,17.4,17.4,0,0,0,7.91,10.28,16.69,16.69,0,0,0,5.23,2.27h0a1.53,1.53,0,0,0,.75.26,8.62,8.62,0,0,1,4.79,5.63,23.12,23.12,0,0,0,11,14,5.52,5.52,0,0,0,1.34.7l.4.18h0a18,18,0,0,0,6.21,2.11h.11a5,5,0,0,0,1.27.2h0a1,1,0,0,0,.82.16v-.09h0v.09h.31a2.63,2.63,0,0,0,1.72.21h.51a5.69,5.69,0,0,1,.83-.08h.11c-.31.07-.65,0-.92.09a18.9,18.9,0,0,0,4.87.07.74.74,0,0,1,0-.21h0a.67.67,0,0,0,0,.2h.28a.74.74,0,0,1,0-.21h0a.52.52,0,0,0,0,.21h1.54c2-.09,4-.49,5.94-.74-.19.08-.38.14-.57.2a44,44,0,0,1-7.38,2.34A20.51,20.51,0,0,1,97,222,36.76,36.76,0,0,1,85.33,218c-.34-.18-.69-.33-1.06-.51a1.82,1.82,0,0,0,.16,1.08c1.56,5,3.07,10,4.61,15a8,8,0,0,1-.09,5.26,74.46,74.46,0,0,0-2.63,8.62c-1.33,5.62-1.41,11.37-1.75,17.1a5,5,0,0,0,.35,2.21,4.64,4.64,0,0,1,.25,2.09,59.35,59.35,0,0,0,.11,7.89,24.13,24.13,0,0,0,.67,4.47c.07.27.15.63.46.63h.12c.26.28.71.16,1.75-.13,0-.12.08-.24.12-.35h0a1.14,1.14,0,0,1-.12.37h0a.7.7,0,0,0,.78-.6h0c.27-1.42.88-2.72,1-4.15h0l.09-.09c0,.55.13,1.08.13,1.6.1,1.35.14,1.92.58,2.06.11.36.42.46.87.31a6.52,6.52,0,0,0,1.53-.5h0a7.21,7.21,0,0,0,2.49-.68.33.33,0,0,0,.25-.08h0a11.12,11.12,0,0,0,2.14-.51c.54-.12.71-.44.54-.93a35.53,35.53,0,0,0-1.12-3.68l-.16.12h0l.16-.12a6.34,6.34,0,0,0-.62-2.31h0a.25.25,0,0,0-.06-.16h0a9.69,9.69,0,0,0-.33-1.49,4.75,4.75,0,0,1,0-3.4c.43-1.33,1.07-2.57,1.46-3.91h0a1.74,1.74,0,0,0,.5-.87h-.44v-.07h.41l.29-.62h0a3.12,3.12,0,0,0,.77-1.12h0l1.72-1.9a.44.44,0,0,1,.47-.41h0a1.11,1.11,0,0,1-.15-.43h0a1.25,1.25,0,0,0,.15.46,2.59,2.59,0,0,0,1.1-1.12l-.27-.27v-.08h0c.37-.16.58-.61,1-.61a5.23,5.23,0,0,1,0-.56h0a3.53,3.53,0,0,0,0,.65,4.7,4.7,0,0,0,.92-1.07,1.06,1.06,0,0,0-.5,0l.06-.08a1,1,0,0,1,.43,0,3.87,3.87,0,0,0,1.07-1.37h0a2,2,0,0,0,.72-.92,1.26,1.26,0,0,0-.16-.33h0a1.26,1.26,0,0,1,.16.33,3.5,3.5,0,0,0,.81-1.14h0a.84.84,0,0,0,.6-.71,1.18,1.18,0,0,0-.23-.27h0a1.13,1.13,0,0,1,.22.27,1.65,1.65,0,0,0,.55-.86A.31.31,0,0,1,108,250h0a.31.31,0,0,0,.34.1,16.17,16.17,0,0,0,2.47-5.58c.08-.35,0-.92.44-1l.56.32a1,1,0,0,0,.27.17l1.07.68.46.28c.71.43,1.42.83,2.14,1.23.23.14.47.27.71.39.65.35,1.32.68,2,1a32.15,32.15,0,0,0,3.55,1.57h0a.35.35,0,0,0,.35.17h0l.27.07h0a2.36,2.36,0,0,0,1.17.47.09.09,0,0,1,0-.07h0a.06.06,0,0,0,0,.06.39.39,0,0,0,.26.06h0a7.37,7.37,0,0,0,2.56.81,1.15,1.15,0,0,0,.82.23h0c.53.42,1.19.2,1.76.42a.2.2,0,0,0-.06-.14h0s0,.11.07.15a7.76,7.76,0,0,0,2.54.3h0a8.66,8.66,0,0,0,4.29-.13c-.31-.27-.8,0-1.16-.1a3.22,3.22,0,0,0,.81-.11.49.49,0,0,1,.32.12,5.61,5.61,0,0,0,1.16-.06v.25c-.27,5.65-.21,11.3,0,16.94a26.39,26.39,0,0,0,4.61,14,6.4,6.4,0,0,1,.72,1.52q1.47,4.25,3,8.51a1.36,1.36,0,0,0,.69.92c.3.31.75.24,1.15.29h.15a.55.55,0,0,0,.55-.54c0-1.08.73-1.84.74-2.91h0c.27-.22.12-.63.34-.93.25,1.27.49,2.47.75,3.69.08.37.09.8.62.8h0a.92.92,0,0,0,.92.28v-.06h.7a15.88,15.88,0,0,0,4.61-.45c.81-.3.85-.38.56-1.22-.52-1.47-1-2.93-1.58-4.38a8.12,8.12,0,0,1-.69-3.4h0a6.89,6.89,0,0,0-.11-4.07h-.27a.14.14,0,0,0,0-.09h.29a3,3,0,0,0-.27-1.6h0a4.46,4.46,0,0,0-.33-1.69,5.22,5.22,0,0,1-.43-.39v-.12a3.31,3.31,0,0,0,.44.4,11.07,11.07,0,0,0-.65-2.53h0v-.5h0a2.74,2.74,0,0,0-.23-1.57v-.15a46.74,46.74,0,0,1-.25-8.11v-.15a2.35,2.35,0,0,0,.16-1.31h-.28a1.57,1.57,0,0,1-.05-.37.6.6,0,0,1,.07-.34.19.19,0,0,1,.07.12,2.53,2.53,0,0,1,0,.55h.26l.53-2.25-.08-.08A.62.62,0,0,0,154,260a3.79,3.79,0,0,0-.34-.18h0a1.63,1.63,0,0,1,.48.17.36.36,0,0,0,.07-.22l-.06-.12a4.78,4.78,0,0,0,.7-1.58.67.67,0,0,1-.25-.35h0a.59.59,0,0,0,.28.36V258l.23-.31a.37.37,0,0,0,.1-.23l.17-.27v-.09h0l.2-.26h0l-.19.24v.09l.24-.33,1.7-2h-.09a1.8,1.8,0,0,0-.7.36h-.1l.1-.1h0a2,2,0,0,1,.67-.35h0l.09.06.26-.26h0a13.51,13.51,0,0,0,2.2-1.49c-.15,0-.34,0-.41-.17h0c.07.16.26.17.41.17A.28.28,0,0,0,160,253a2,2,0,0,0,.8-.54.55.55,0,0,0-.35-.2h0a.63.63,0,0,1,.36.21,5.77,5.77,0,0,0,1.74-1.1.37.37,0,0,0,.27-.13v-.1a7.7,7.7,0,0,0,1.51-1h.12l.58-.33.19-.63h0l-.19.63a22.48,22.48,0,0,0,3.31-2.34l-.07-.08a.32.32,0,0,0,.29-.25.86.86,0,0,0,0-.32h0a.87.87,0,0,1,.07.42A2.89,2.89,0,0,0,170,246l-.22-.2h0l.21.19a2.14,2.14,0,0,0,1.38-.92h0a3.66,3.66,0,0,0,1.38-1.12l-.26-.29h0l.24.28a4.44,4.44,0,0,0,1.36-1.15v0a26.8,26.8,0,0,0,4.72-4.68h0a18.53,18.53,0,0,0,3.14-3.81c-.17,0-.34-.07-.49-.08a3.12,3.12,0,0,1,.52.08,22.84,22.84,0,0,0,2.76-4.79h0a4.7,4.7,0,0,0,.8-1.78,1.51,1.51,0,0,1-.35-.2v-.07a1.06,1.06,0,0,0,.39.24,18.22,18.22,0,0,0,1.74-7.07.33.33,0,0,1,0-.14,9,9,0,0,0,.1-3.28.46.46,0,0,0-.36.06h0a.49.49,0,0,1,.36-.07v-.39h-.31l-.07-.2v-.09l.1.28h.28a25.45,25.45,0,0,0-2-9.22,1.11,1.11,0,0,0-.26.07h0a.77.77,0,0,1,.26-.07,2.22,2.22,0,0,0-.55-1.14h0l-.08-.28-.2-.33a1.34,1.34,0,0,0-.33-.78.65.65,0,0,0-.35-.55l-.15-.07v-.06a.51.51,0,0,1,.17.07l-.07-.29-.22-.3a.38.38,0,0,0-.09-.25l-.21-.31c.09-.33-.56-.61-.21-.93a14,14,0,0,1,3.62,4.75,27.22,27.22,0,0,1,2,16.94A28.24,28.24,0,0,1,183.21,236a60.14,60.14,0,0,1-23.46,19.15,6.1,6.1,0,0,0-.87.47,2.4,2.4,0,0,0-1,2.35,2.43,2.43,0,0,0,1.63,2,2.61,2.61,0,0,0,1.18.38,6.33,6.33,0,0,0,1-.07v0a3.58,3.58,0,0,0,2-.27h0v-.17h0v.18a14.54,14.54,0,0,0,2.55-.14h0a5.45,5.45,0,0,0,2.3-.25c-.41-.11-.92.06-1.32-.11h0c.38.15.93,0,1.31.1a.33.33,0,0,0,.24,0h0a16.86,16.86,0,0,0,4.25-.37l.58.11a.36.36,0,0,0,.25.06h0a1.63,1.63,0,0,0,.85.31h.09a.09.09,0,0,1-.1,0,2.46,2.46,0,0,0,1.18.46v-.08h.32a14.25,14.25,0,0,0,3,.78h0a2.25,2.25,0,0,0,1.46.24h.08l-.07.07c.43.32.92.19,1.43.26h0a3.22,3.22,0,0,0,1.65.18h.15c.21-.1.53.08.71-.11h0c-.17.22-.51,0-.73.13h-.14a4.77,4.77,0,0,0,2.34.15.7.7,0,0,1,.09-.24h0c0,.07,0,.15-.08.22h.82v-.18h0v.22h.56v-.06a3.55,3.55,0,0,0,1.3,0,1.17,1.17,0,0,1-.1-.26h.08a.85.85,0,0,0,.09.24h.28a3.08,3.08,0,0,0,1.75-.25h0l.67-.1h0a.91.91,0,0,0,.92-.25A.72.72,0,0,1,192,261H192a.71.71,0,0,0,.44.15,1.57,1.57,0,0,0,1.17-.29,1.35,1.35,0,0,1-.33-.19h0a1.05,1.05,0,0,0,.34.2h.12l.08-.07a.91.91,0,0,0,.81-.27v-.28h.06a.11.11,0,0,0,0,.08v.28l.56-.1.12-.08h0l.11-.07v.07a10.61,10.61,0,0,0,2.91-1.26c-.58,1.15-1.11,2.15-1.59,3.17a22.73,22.73,0,0,0-2,5,12.74,12.74,0,0,1-2,4.48c-1.65,2.51-1.85,5.42-2.37,8.25a1.69,1.69,0,0,0,.44.12.41.41,0,0,0,.33.25.92.92,0,0,0,1.11-.31c.18-.27.38-.53.56-.78a.86.86,0,0,0-.55,0h0a.88.88,0,0,1,.53,0,1.21,1.21,0,0,0,.54-.83h0a1,1,0,0,0,.54-.6h0l.75-.88a28.49,28.49,0,0,0-.22,2.91h.38c.06.31.29.35.92.35,1.2-.06,2.39-.19,3.58-.3v-.05h.81a.43.43,0,0,0,0-.16h0a.34.34,0,0,1,0,.2,1.6,1.6,0,0,0,.92,0h.73a.54.54,0,0,1,0-.18h0v.18h.29a.48.48,0,0,1,.12-.22h0a.48.48,0,0,0-.12.22c1-.11,1-.11,1.13-1.42h0a7.23,7.23,0,0,0,.49-2,1.48,1.48,0,0,0-.28-.28h0a1.38,1.38,0,0,1,.3.29.92.92,0,0,0,.18-.86h0a2.13,2.13,0,0,1,1.1-1.35,2.51,2.51,0,0,0,1.12-1h0c1.21-1.28,1.45-3,2.1-4.52h0a.28.28,0,0,0,0-.25h-.23l-.06-.06h.24a3.06,3.06,0,0,0-.1-.51h0l.15.57a3.94,3.94,0,0,0,.51-1.4,2.18,2.18,0,0,1-.43.22.33.33,0,0,1,0-.12l.33-.2v0h0a4,4,0,0,0,.49-1.32h0a27.64,27.64,0,0,1,2.38-4.62l-.19-.24h0l.18.25,1.08-1a3.59,3.59,0,0,0-.08-.35h0a3.28,3.28,0,0,0,.09.37,13.34,13.34,0,0,0,1.9-1.35h.17a14,14,0,0,0,2.46-1.55l-.37-.26h0l.33.23a6,6,0,0,0,1.64-1.14h0a9.18,9.18,0,0,0,2.1-1.73h0a3.21,3.21,0,0,0,1.38-3.1l.12-.12c-.22-1.12-1.2-1.69-1.85-2.43h0l-.54-.57h0a1.08,1.08,0,0,0-.48-.51l-.12-.13a.35.35,0,0,0-.18-.18l-1.65-1.69c-.39-.38-.74-.78-1.11-1.16a2.44,2.44,0,0,0-.62-.7.88.88,0,0,0,0-.23,1.86,1.86,0,0,0-.66-.73H215a1,1,0,0,0-.37-.41,1.34,1.34,0,0,1,.07-.18.36.36,0,0,1-.29-.29l-.12.06a2.4,2.4,0,0,0-.84-1l-.23-.28a11.38,11.38,0,0,0-1.62-2.22h0c-.36-.51-.72-1-1.06-1.54l-1.84-3.24-.07.06h0l.07-.06a4.39,4.39,0,0,0-.65-1.32H208v0h.13a3,3,0,0,0-.59-1.45h0a1.24,1.24,0,0,0-.32-.8h0a1.55,1.55,0,0,0-.3-.82h0a8,8,0,0,0-.58-2.25h0l-.08-.27h0a42.87,42.87,0,0,1-.47-5.87h0v-.29a1.75,1.75,0,0,1-.27-.16h0a1.17,1.17,0,0,0,.27.15,9.37,9.37,0,0,0,0-1.06c-.08-.12-.14-.41-.23-.44h0c.09,0,.15.32.23.44a1.94,1.94,0,0,0,.17-1.19h0l.72-3.68h0l0-.42.16-.39.83-2.6a2.33,2.33,0,0,0-.06-.53h0a1.24,1.24,0,0,1,.06.54c.35-.29.38-.74.52-1.12h0c.17-.39.36-.77.53-1.16a1.87,1.87,0,0,0-.2-.29h0a2,2,0,0,1,.19.28,4.82,4.82,0,0,0,.83-1.42h0l.22-.28a2.26,2.26,0,0,0,.11-.22h0a.38.38,0,0,0,.21-.31l-.29-.24h0l.28.23a2.67,2.67,0,0,0,.82-1.09h0c.62-.62,1.24-1.23,1.85-1.85h-.22l-.1-.06.1.06v-.23h0v.22h.22a24.17,24.17,0,0,1,5.6-3.22.36.36,0,0,0-.13-.19h.12a.24.24,0,0,1,.09.16l3.85-.93h.09l-.13-.13.14.12.46-.05h.55a.42.42,0,0,0-.26-.21.33.33,0,0,1,.33.18l3.81-.07-1.21.29a26.25,26.25,0,0,0-8.4,3.53c-4.2,2.77-6.86,6.62-7.19,11.71-.54,8.3.92,16.13,5.4,23.23a25.63,25.63,0,0,0,7.22,7.45l.18.12c.31.22.63.43.92.62l.46.28.55.31a3,3,0,0,0,.85.44l.35.17a18.73,18.73,0,0,0,5.22,2.07v-.5h0v.05a1.16,1.16,0,0,0,.83.23v.06a10.11,10.11,0,0,0,3.73.69h.05a1.85,1.85,0,0,0,1.36.21h0a4.42,4.42,0,0,0,2,.24,1,1,0,0,1,.49.09c-.74,2.6-1.47,5.15-2.16,7.72a104.84,104.84,0,0,0-2.76,10.94,14,14,0,0,1-.84,3c-.93,2.12-1.85,4.23-2.66,6.37a12,12,0,0,0-1,3.94h.4a.44.44,0,0,0,.27.38,1.32,1.32,0,0,0,1.55-.24,4.07,4.07,0,0,0,.53-.65c.66-1.07,1.29-2.16,2-3.23a1.35,1.35,0,0,0-.24-.46l.06-.11a1.14,1.14,0,0,1,.19.4,1,1,0,0,0,.27-.28c-.36,1.27-.74,2.56-1.13,3.94l.53-.05v.22a30.63,30.63,0,0,0,4.07-.37v0l.83-.05a1,1,0,0,1-.13-.22h.05a.5.5,0,0,0,.11.17h2a1.83,1.83,0,0,0,2-1.4c.26-.79.62-1.55.92-2.33-.09,0-.17-.12-.26-.22v-.05c.11.11.21.25.32.27a.12.12,0,0,0,0-.16,14.28,14.28,0,0,0,1.52-5.43c0-.57.44-.79.76-1.12l.24-.24.28-.27v-.26h.05a.79.79,0,0,0,.08-.26h0a.89.89,0,0,0-.08.26v.35a2.48,2.48,0,0,0,.82-.79,3.11,3.11,0,0,0-.07-.44h0a3.11,3.11,0,0,1,.07.44l.34-.28a.28.28,0,0,1,0-.13l.11-.17h.11A1.81,1.81,0,0,0,250,269a.28.28,0,0,0,.24-.28,1.58,1.58,0,0,1-.3-.28h0a1.58,1.58,0,0,0,.3.28,4.56,4.56,0,0,0,.56-1.1,11.82,11.82,0,0,1,1.51-3.5L252,264h0l.35.08a.9.9,0,0,0,.33-.52h0a8.36,8.36,0,0,0,1.08-1.73l-.37-.12h0l.35.11a2.51,2.51,0,0,0,.2-.29c0-.09.09-.18.15-.27a1,1,0,0,1-.37-.1h0a1.08,1.08,0,0,0,.36.11,3.55,3.55,0,0,0,.74-1.14h0a.66.66,0,0,0,.29-.52h0a1.13,1.13,0,0,0,.44-.63.79.79,0,0,1-.35-.1h0a.62.62,0,0,0,.39.14l.57-.86v-.75h0v.79a2,2,0,0,0,.55-.84h-.08a7.15,7.15,0,0,0,1.13-1.71,2.39,2.39,0,0,0,.77-1.18,1.9,1.9,0,0,0-.55.11v0l.47-.11-.24-.25h0l.28.29a3.76,3.76,0,0,0,.92-1.37l-.09-.1-.24-.11h0l.23.1h0l.09.1a1.42,1.42,0,0,0,.49-.85h0A9.18,9.18,0,0,0,261,250.5a.94.94,0,0,1-.44-.05h0a.9.9,0,0,0,.43.05.26.26,0,0,0,.18-.29h0a32.11,32.11,0,0,0,1.89-3.13h0a1.94,1.94,0,0,0,.53-.92c-.13-.06-.28-.28-.22-.28a.2.2,0,0,1,.15,0,.17.17,0,0,0-.14,0c-.05,0,.08.19.2.26h0a27,27,0,0,0,2.65-4.61l-.32-.13h0l.31.15a2.4,2.4,0,0,0,.58-1.06.9.9,0,0,0-.26-.22h0a1,1,0,0,1,.29.25,3.47,3.47,0,0,0,.79-1.49h0a8.45,8.45,0,0,0,1-2h0a10.37,10.37,0,0,0,1.28-2.61.81.81,0,0,1-.26-.53h0a.77.77,0,0,0,.26.51,4.32,4.32,0,0,0,.64-1.61h0a2.91,2.91,0,0,0,.5-1.17h0a3.72,3.72,0,0,0,.49-1.46l-.37-.13h0a2,2,0,0,0,.35.08,2.08,2.08,0,0,0,.27-1.07h0a1.27,1.27,0,0,0,.25-.8h0a1,1,0,0,0,.19-.92.65.65,0,0,1-.26-.42.53.53,0,0,0,.26.37v-.82h-.29a3.09,3.09,0,0,0,0,.43,2.41,2.41,0,0,1,0-.38h-.05v-.08h.33v-.56c-.21-.09-.23-.18-.08-.29v-.27h0v-.57h0a19,19,0,0,0-.11-2v-.16a9.48,9.48,0,0,1,.17,2.19v.85c-.21.09-.19.18,0,.27a.45.45,0,0,0,0-.28h0c.43-1.21.11-2.44.11-3.69a.48.48,0,0,1-.31-.08h0a.48.48,0,0,0,.31.08v-.28h0a.42.42,0,0,0,0-.27h0a7.89,7.89,0,0,0-.27-3.13h0a2.94,2.94,0,0,0-.1-2.2h0l-.14-2.54a9.08,9.08,0,0,0-.31-3.11h0v-.26c-.24.12-.21.21,0,.27a.55.55,0,0,1-.2.2h0a1.34,1.34,0,0,0,.11-.14.28.28,0,0,1-.14-.11h0s0-.09.14-.15v-1.35c-.29-3.28-.61-6.55-.92-9.84a2.43,2.43,0,0,0-.17-.52.41.41,0,0,1-.22.13h0a.53.53,0,0,0,.2-.13.26.26,0,0,0,0-.21,6.57,6.57,0,0,0-.34-2.53h-.06a25.2,25.2,0,0,0-.53-5.27c-.27-1.33-.11-2.71-.61-4h-.13v-.06l.16.08v-.58a3.26,3.26,0,0,1-.34-.76h0a3,3,0,0,0,.34.78,24.78,24.78,0,0,0-.71-5.06h0l-.06-.55-.2.13h0l.2-.13v-.59h0a3.9,3.9,0,0,0,1.89-1.74.68.68,0,0,1-.27-.13,1.07,1.07,0,0,0,.22.1.29.29,0,0,0,.08-.14.35.35,0,0,1,.09-.26.31.31,0,0,0,0,.21l.23-.36h0a1.56,1.56,0,0,0,.52-1.11,1.09,1.09,0,0,1-.31-.08h0a0,0,0,0,1,0-.05,1.37,1.37,0,0,0,.36.11.71.71,0,0,0,.24-.57h0a.41.41,0,0,0,0-.22h0a1,1,0,0,0,.2-.92h0a.48.48,0,0,0,.18-.52h0a15.67,15.67,0,0,0,.26-4.27,13.36,13.36,0,0,0-.17-5.08h-.07a1.06,1.06,0,0,0-.12.2h0a1,1,0,0,1,.1-.17l-.12-.06h0l.12.06h.07a9.76,9.76,0,0,0-.11-2.23l-.24-.08h0l.26.07v-1.29h0l.47-1.72h0a1.33,1.33,0,0,0,.57-.53h0l.8-.38h0a3.46,3.46,0,0,0,1.13-.31,1.09,1.09,0,0,0-.07-.24h0a.61.61,0,0,1,0,.19h.57c0-.06.05-.12.07-.18h0a.48.48,0,0,1-.09.21h.4a19.24,19.24,0,0,0-.44,2.63,12.75,12.75,0,0,0,.11,3,5,5,0,0,0,1.58,3.06,2.55,2.55,0,0,0,1.38,1l0-.06h0a.26.26,0,0,0,.28.17h0a.48.48,0,0,0,.26.07h0a7.22,7.22,0,0,0,5.37,0v-.18h0v.22a.32.32,0,0,0,.27-.22h0a2.39,2.39,0,0,0,1.77-1.16c-.05-.14-.18-.26-.23-.39h0c.05.13.18.25.23.39a.58.58,0,0,0,.24-.6h0c.39-.41.21-.92.21-1.38l-.25-.16h0l.28.18v-1.48c-.11.1-.22.21-.32.32h0a2.65,2.65,0,0,1,.29-.29,4.78,4.78,0,0,0-.65-2.53.84.84,0,0,1-.15.18h0a.84.84,0,0,0,.15-.18l-.26-.34v.06a.25.25,0,0,0,0-.17h0V160a.18.18,0,0,0-.09.06h0a.28.28,0,0,1,.11-.08.75.75,0,0,0-.25-.6h0a.54.54,0,0,0,0-.22l-.14-.07V159l.17.07a.64.64,0,0,0-.25-.56h0l-.05-.23h-.16a0,0,0,0,0,0-.05h.18c-.22-.35-.24-.82-.57-1.13h0a.8.8,0,0,0-.3-.53,1,1,0,0,0,0,.25h0a1.13,1.13,0,0,1,0-.26.62.62,0,0,0-.29-.53h0a.7.7,0,0,0-.07-.23h0v-2.1a5.64,5.64,0,0,0,.52-2,.35.35,0,0,0,.24-.29l.06-.23h0a3.6,3.6,0,0,0,.77-1.18h0l1.36-1.2.3-.27a.43.43,0,0,0,.21-.09,1.37,1.37,0,0,1-.3-.19h0a2,2,0,0,0,.31.19A2.06,2.06,0,0,0,288,148h0a19.61,19.61,0,0,1,3.38-1.25h0c.23-.1.56-.06.57-.23S291.67,146.41,291.45,146.41Zm-.18.15v-.09h.07A.22.22,0,0,0,291.27,146.56Zm-6.88,21.21h0v-.19h0v.19Zm-12.55,1.58a1,1,0,0,0,.15-.46,1,1,0,0,1-.13.5Zm7.17-7.26a1.73,1.73,0,0,1,.16.87v.12h0V163a1.62,1.62,0,0,0-.16-.84h0Zm2,1.17a2.86,2.86,0,0,1-.92.1,2.48,2.48,0,0,1-.54-.06,2.14,2.14,0,0,1,0-1.85c.18-.36.25-.8.69-.85a7,7,0,0,1,1.22,1.72.57.57,0,0,1,.07.22.63.63,0,0,1-.47.75H281ZM56.24,139.14a2.17,2.17,0,0,1-.4,1.78.74.74,0,0,1-.26-.92A1.92,1.92,0,0,1,56.24,139.14Zm-6-20.83a.4.4,0,0,1,.24-.07l.25.06c.26.16.62.1.81.39.92,0,1.79.58,2.76.45h0a6.62,6.62,0,0,0,5.22-1.49,4,4,0,0,1,2.89-.86c.51,0,1,.1,1.52.15l.45.12a11.11,11.11,0,0,1,3.22,1.63l-2.68,2.15-1.66,1.3c-1.79,1.44-1.92,1.53-4.17,1.33a.58.58,0,0,0,.18-.17h0l.29-.1h0a.23.23,0,0,0,.21-.18h.06a.64.64,0,0,0,.52-.31l-.13-.22.15.22a.83.83,0,0,0,.57-.29h0l1.19-.67a2.31,2.31,0,0,0-.52-.12l.22-.13v-.29A12,12,0,0,1,50.2,118.31Zm5.53,28.81a5.33,5.33,0,0,0,3.53-2.51,23.83,23.83,0,0,0,2.17,3.76,15.5,15.5,0,0,1-5.66-1.23Zm72.7-23.77a30.16,30.16,0,0,1,4.45-.4h.24l-.25,0a21.55,21.55,0,0,0,3.09.38l.58.15a2.13,2.13,0,0,0,.51.14l.33.08-2.76.08a27.68,27.68,0,0,0-5.74.66,3.47,3.47,0,0,0-2.14,1.46,34.11,34.11,0,0,1-3.82,4.15l-1.53,1.49H122a1.58,1.58,0,0,0-.24.39c.77-.35,1.66-.05,2.41-.51l-.55-.11h0l.55.08a4.71,4.71,0,0,1,.92,0c-.68.64-1.55.84-2.16,1.52l.5.12a1.12,1.12,0,0,0-.2.18l4.27.41h.15l.41.11-2,.56v.18h0v-.21a1.17,1.17,0,0,0-1,.29,1.27,1.27,0,0,0,1,.19v-.11h0v.09a6.93,6.93,0,0,1,.78.1,13.11,13.11,0,0,0,4.05.23v-.21h0a.17.17,0,0,1,0,.1h0a.33.33,0,0,1,0,.24,1.2,1.2,0,0,0,.74-.29h0a1.21,1.21,0,0,1-.76.32,21.19,21.19,0,0,1-6.46,1.13,18,18,0,0,1-9.14-2.77l-.94-.69-.1-.06v-.11c-.18-.21-.47-.37-.53-.63a23,23,0,0,0,4.73-2.17h0a.6.6,0,0,0,.53-.32v-.26h0v.26c.23,0,.46,0,.61-.27h0a12.31,12.31,0,0,0,3-1.85v-.09a5.54,5.54,0,0,0,1.53-1.15,9.56,9.56,0,0,1,4.22-2.89Zm60.13,133a3.91,3.91,0,0,0-.34-.49v.27h0v0a1.13,1.13,0,0,0,0-.26c-.14-.73-.27-1.45-.4-2.17h0a18.5,18.5,0,0,1,.21-4.38,33.62,33.62,0,0,1,1.24,6v.57a.54.54,0,0,1-.42.48.61.61,0,0,1-.27,0Zm-54.35-14.2h0l.07.09h.28v0h0v.05l.44.19a1.14,1.14,0,0,1,.4.77,1.18,1.18,0,0,1-1.13,1.2,1.13,1.13,0,0,1-.51-.16,1.08,1.08,0,0,1,0-1.49,2.75,2.75,0,0,1,.53-.44.17.17,0,0,0-.06-.17Zm-11.45-115h0v.05A0,0,0,0,1,122.76,127.1Zm8.44,7.6a.55.55,0,0,1,.17,0h0a.71.71,0,0,0-.26.16ZM198.81,269v0h-.1ZM164.9,141.57a.55.55,0,0,1-.29-.09h0A.48.48,0,0,0,164.9,141.57Zm63.74,65.07a.7.7,0,0,1,.6,0,1.1,1.1,0,0,0,.6.24l.18.15a.91.91,0,0,1-.39.53l-.18-.11A.88.88,0,0,0,229,207Zm-57.87-47.51h0a.29.29,0,0,0-.11-.19h0a.36.36,0,0,1,.15.19ZM165,181.89h0Zm33.74,88.82a.25.25,0,0,0,0-.17,1,1,0,0,0-.2-.45V270a.78.78,0,0,1,.23.47,1.66,1.66,0,0,0,.15-.33c.06.59.1,1.18.11,1.78,0,.17-.11.25-.27.28v-1.49Zm31.7-65.6a1.62,1.62,0,0,0-.1-.18.51.51,0,0,0-.17-.24.61.61,0,0,1-.07-.14,1.54,1.54,0,0,1,.19-.17c.75.59,1,.92.8,1.32-.15-.2-.3-.39-.43-.59ZM99.61,210.9a1.34,1.34,0,0,1-1.35.83,1.36,1.36,0,0,1-.35-.07l-.41-.27c-.2-.66-.41-1.3-.62-2h0l.06-.06a.39.39,0,0,0-.07-.52h0v-.3c-.17.08-.22.14-.13.21-.09-.07-.05-.14.11-.22a.61.61,0,0,0,0-.19.33.33,0,0,1,.12,0,14.42,14.42,0,0,1,1-4.15c.07.62.13,1.16.22,1.75a5.29,5.29,0,0,0,1.23,2.77A1.74,1.74,0,0,1,99.61,210.9ZM262.07,233l-.17-.07a1.41,1.41,0,0,1-.47-.79h.19c.08.07.16.13.25.11-.1.24.41.35.2.7ZM155.15,242.3c0,.56-.13,1-.85,1-.43,0-.5.29-.67.57-.6,1-1.23,1.27-2,.92q-.21-.15-.45-.36a1.1,1.1,0,0,0-.35-.26c-.15-.16-.23-.36-.51-.36h0a1.75,1.75,0,0,1-.51-.14,2.07,2.07,0,0,1-.58-2.49c.16-.48.39-.93.59-1.4h0a.32.32,0,0,0,.23-.31l-.27-.26h0a3.44,3.44,0,0,0,.27.27c.29-.11.3-.62.75-.51.39.57-.37,1.12,0,1.68.42-.47.2-1.37.88-1.67,0,.75.07,1.49.07,2.23a2.65,2.65,0,0,0,.29-.52,3.66,3.66,0,0,0,.18.92,1.82,1.82,0,0,0,.35-1.84,2,2,0,0,1,0-1.18l.11.06h0c.2,1.69.2,1.69.65,2.26h0a1.59,1.59,0,0,0,.25.33,1.49,1.49,0,0,0,0-1.39,2.48,2.48,0,0,1-.21-1.2v-.1h-.27a0,0,0,0,0,0-.05h.26v.13l.37.2A4.44,4.44,0,0,1,155.15,242.3ZM123.49,147l.43-.07-.11.08h-.32Zm30-8.67,0,.08a1.36,1.36,0,0,1-.41,1.84,6.82,6.82,0,0,1-5.46,1.44v-.16a22.33,22.33,0,0,0,3.8-2.9c.92-.71,1.31-.84,2-.3Zm89.88,29a3.43,3.43,0,0,1-.93,5.79,6.09,6.09,0,0,1-5.74-.63l-1-.92-.06.07-.06-.08h0c-.72-1.23-1.25-2.45-.62-3.84.28.66.49,1.22.7,1.69a3.65,3.65,0,0,0,1.76,1.85,3,3,0,0,0,2,.6.61.61,0,0,1,0-.27h.06a1.35,1.35,0,0,0-.05.29l.54-.06v-.31h0v.28h.3a1.78,1.78,0,0,0,1.09-.54.77.77,0,0,1-.18-.4h0a.83.83,0,0,0,.18.42c.68-.61.68-.61,0-1.16a.46.46,0,0,0-.08.13h0l.07-.11h0c-.19-.27-.38-.55-.58-.82v.18h0v-.18l.31-1.37-.21-.35,0-.06a4.18,4.18,0,0,1,.25.41l.74-.59a.55.55,0,0,0,.25-.07H243l.09.07C243.31,167.24,243.4,167.27,243.4,167.33Zm-42.08,85.36a1.64,1.64,0,0,0-.22-.14h0l.16.09-.08-5h.08c0-.05,0-.09.07-.12a31,31,0,0,1,1.3,5.38,5.35,5.35,0,0,1,0,1,.49.49,0,0,1-.43.48.58.58,0,0,1-.32,0c-.26-.51-.27-1.13-.52-1.64ZM154.76,235a2.33,2.33,0,0,1,.36-.08l-.36.12Zm58-80.24a.25.25,0,0,0,.24,0h.08l-.08.07,1.49.44h0a3.9,3.9,0,0,1,1.84,4.28,8.31,8.31,0,0,1-.92,2.49c-1.08,1.92-2.16,3.85-3.27,5.76-.48.81-.92,1.15-1.42,1l-.34-.19h0c-.92-1.09-1.41-2.53-2.64-3.38a1.1,1.1,0,0,0-.5-.52h-.05a.93.93,0,0,0-.37-.46L205.37,162v.27h0V162a.76.76,0,0,0-.28-.63,1.7,1.7,0,0,1,0,.45h0a1.48,1.48,0,0,0,0-.42,12.42,12.42,0,0,1-.38-3.21.45.45,0,0,0-.25-.22h0a.44.44,0,0,1,.27.23.74.74,0,0,0,.21-.65h0l.86-1.33v0a6.78,6.78,0,0,1,3.24-1.18c1.24-.14,2.49-.24,3.73-.31h0ZM241.88,167a.24.24,0,0,1-.14-.12h0A.53.53,0,0,0,241.88,167Zm19,66.3a1.19,1.19,0,0,1-.13-.25.28.28,0,0,1,.07-.39,3.76,3.76,0,0,1,.58,1.08,2.88,2.88,0,0,1-.52-.4Zm2.48-5h0l.76.16a1.48,1.48,0,0,1-.69.08.8.8,0,0,1-.07-.2Zm1.49-3.91a4.77,4.77,0,0,1-4.87.47,13.33,13.33,0,0,1-2.63-2,13.37,13.37,0,0,0-3.41-2.3,16.81,16.81,0,0,0-2.55-1.08l.42-.33a.81.81,0,0,0-.92.18h-.08l.67-.3h.18v.1a1.1,1.1,0,0,0,.92-.29.44.44,0,0,1-.4-.15h0c.06.1.18.16.4.16a.32.32,0,0,0,.23-.06h0a.64.64,0,0,0,.59-.26.54.54,0,0,0-.18,0,.54.54,0,0,1,.18,0,.39.39,0,0,0,.23-.07h0a17.54,17.54,0,0,1,3.69-.42,4.53,4.53,0,0,0-1-.36c-1.77-.69-3.46.08-5.39.47.43-.36.92-.67,1.33-1a10.29,10.29,0,0,0,2.43-2.28h0a2.32,2.32,0,0,0,.92-1.13h0l.27-.3h0l.48-.51h0a4.93,4.93,0,0,1,1.85-1c0-.12.07-.16.18-.19-.06,0-.12.07-.12.17a5.51,5.51,0,0,1,1.94.19,3.31,3.31,0,0,1,1.48,1.75,1.82,1.82,0,0,0,.68.93,1.17,1.17,0,0,0,.87.43,4.85,4.85,0,0,1,1.47.51,5,5,0,0,1,2.43,3.69,4.89,4.89,0,0,1-2.3,5.11Zm-34.77,9,.1-.21a.53.53,0,0,1,.11-.23.64.64,0,0,1-.21.47Zm-3.55-4.64h.08a0,0,0,0,1,0,0h-.17Zm.12.2h0a.92.92,0,0,0,.23-.09v-.2h.08v.18h.44a1.54,1.54,0,0,1-.75.21Zm1.72,2.29v-.1l.08.07Zm-1.07-1.57a.76.76,0,0,0,.3,0h.21a2.24,2.24,0,0,1-.5.22l.24-.21a.66.66,0,0,1-.28,0Zm.31,1.2a.4.4,0,0,1-.13-.16l.15-.07a.34.34,0,0,0,.08.09H228a1,1,0,0,0,.24,0,2.57,2.57,0,0,0,.06.4c-.07,0-.11-.14-.26,0s0,.2,0,.29c-.33-.34-.64-.14-.92,0,.14-.25.38-.36.5-.57Zm.44.54h.22l0,.08v.31a2.07,2.07,0,0,0,.53-.28c0,.09,0,.21-.3.37s-.31.23-.47.31l.13-.23v-.32h0a.29.29,0,0,0-.07-.25Zm1.76,1.1.16.12v.08a.6.6,0,0,0-.16-.22Zm12.86-23.87a5.1,5.1,0,0,0-.08-.67c-.86,1.23-.92,3.3-.17,6.45l-.13.14h0l-.13-.11-.43-.42h0c-1-1.48-1.15-3.3-2-4.78v.23c-.06-.21-.13-.43-.2-.64-.76,2.14.24,5.1,2.22,7.24l.09.14h0c.16.18.32.35.5.52a3.39,3.39,0,0,1-1.84-.74l-2.4-2.26H238l-.92-1.33h0a14.6,14.6,0,0,1-1.59-4.43h0l.22-2.77h0c.28-.5.55-.92.81-1.42-.05-.1-.1-.19-.14-.29h0c0,.1.09.2.14.3a2.27,2.27,0,0,0,.86-.6h0a2.08,2.08,0,0,0,1.09-.3l-.14-.13h0l.14.13a1,1,0,0,0,1.24-.64,6.33,6.33,0,0,1,4.54-3.54h0l1.4-.07h0l1.68.35V199h.07a.52.52,0,0,0,.45.21,6.77,6.77,0,0,1,.92.58,6.5,6.5,0,0,1,1.49,1.85,1.31,1.31,0,0,0,.52.55.62.62,0,0,0,.66.37c.92-.16,1.54.42,2.27.75a3.46,3.46,0,0,1,1.13,2.43c.3,4.2-2.34,9.55-6.79,11.23h0a8,8,0,0,0,2.84-6.25c0-.3-.23-.5-.15-.87,0,.3.15.58.15.87a2.78,2.78,0,0,0-.16-2.42.64.64,0,0,0-.31.23,1.06,1.06,0,0,0-.07-.46c-.67.93-.64,2.08-1,3.1A8.42,8.42,0,0,1,248,213.8a10,10,0,0,0-.32-6l-.08.49a7.06,7.06,0,0,0-.29-.81c-.46,2.09-.43,4.29-1.59,6.45v-.13l-.23-.11h0l.23.1c0-2-.36-3.93-.48-5.9A1.2,1.2,0,0,0,245,207a1.13,1.13,0,0,0-.3.52,2.84,2.84,0,0,0-.1-.57c-.69,2.27-.41,4.61-.53,7a16.14,16.14,0,0,1-1.17-5.53,2,2,0,0,0-.28.31Zm-27.91-36.37a1.86,1.86,0,0,1-.28-.21l-.14-.11a2.19,2.19,0,0,1-.44-2.6,1.54,1.54,0,0,0-.42.07h0a1.54,1.54,0,0,1,.42-.07l.22-.28a1.19,1.19,0,0,1-.37-.06h0a.76.76,0,0,0,.33.05l.22-.34h0a19.72,19.72,0,0,0,2.52-1.95h0l2.45-1.49a0,0,0,0,1,0-.05,8.16,8.16,0,0,1,3.77-.75h.15a.3.3,0,0,0,.21.07,1.24,1.24,0,0,0,.86.23.18.18,0,0,1,.05.07h0a2.75,2.75,0,0,0,1,.45l.24.12a1.92,1.92,0,0,1,1.2,1.53c.09.8.13,1.6.2,2.39h0c0,.8,0,1.61-.05,2.4a3.41,3.41,0,0,1-3.15,3.24,8,8,0,0,1-2.39,0,16.58,16.58,0,0,1-5.54-2c-.2-.12-.4-.26-.6-.4A2.57,2.57,0,0,1,214.74,172.36Zm31,26.24a.85.85,0,0,0-.19-.14h0A.45.45,0,0,1,245.73,198.6Zm-13,5.58v-.05c0-.08-.08-.08-.08-.25a1.53,1.53,0,0,0-.07-.29,1.75,1.75,0,0,1,.4,1.07h0A.55.55,0,0,0,232.69,204.18Zm30.2,3.6c0-.18.13-.27.4-.33a1.07,1.07,0,0,1,.43-.06,1.77,1.77,0,0,1-.83.39Zm-29-19.25a1.48,1.48,0,0,1,.76-1.92h0a2,2,0,0,1,.55.14,1.13,1.13,0,0,1,.2,1.58,1.1,1.1,0,0,1-1,.43A1.22,1.22,0,0,1,233.91,188.53Zm25.29,15h0a.21.21,0,0,1,.33.09,2.4,2.4,0,0,1-.28.79,2.38,2.38,0,0,0,.24-.74c-.09-.18-.18-.19-.29-.14Zm1.25,1-.11.19h-.07c.13-.29.27-.59.41-.92h0a.34.34,0,0,0,.22-.29l-.23.28-.06-.05.24-.3a.8.8,0,0,1,.08-.28,2.07,2.07,0,0,1-.48,1.37Zm2.18,2.07h0l.55-.17a1.1,1.1,0,0,1-.67.47.77.77,0,0,1,.12-.28Zm-1.56-1.3c0-.15.27-.27.4-.38a2.87,2.87,0,0,1,.34-.62h0a2.77,2.77,0,0,0-.31.62h.05a.17.17,0,0,0,0,.1h0c-.22.27-.35.31-.48.28Zm.92.41c.32-.27.68-.5,1-.75a5.54,5.54,0,0,1-.57.71.31.31,0,0,0-.06.13c-.21,0-.43.25-.61.27,0-.1.07-.21.24-.37Zm-26.53-.6h0ZM258.39,189a1.17,1.17,0,0,1-1.05,1.14,1.26,1.26,0,0,1-.62-.2l-.15-.22h.05l-.05-.28h-.1a.45.45,0,0,0,0-.23h0v-.26h.09c.66-.7.92-.92,1.36-.78a1.12,1.12,0,0,1,.49.83Zm-40.63-27.81a1.1,1.1,0,0,0,0,.51c.33-.45.63-.92.92-1.4l.07-.11a.6.6,0,0,1,.68-.14.51.51,0,0,1,.07.72.49.49,0,0,1-.14.11c-1,.84-1.94,1.85-2.91,2.77l.48-.75a3.6,3.6,0,0,0,.83-1.14,1.1,1.1,0,0,1,0-.51Zm1.94,18.15,0-.05a.8.8,0,0,0-.33-.3l-.2-.19a.26.26,0,0,0-.15-.14l-.07-.08h0a.32.32,0,0,0-.28-.25l-.13-.18a1.33,1.33,0,0,0-.26-.27l-.11-.12h0a.23.23,0,0,0-.13-.17.08.08,0,0,0-.07,0,.82.82,0,0,0-.38-.42l-.16-.19a.28.28,0,0,0-.14-.18c-.24-.28-.46-.57-.68-.86h0l.2-.22a34.87,34.87,0,0,1,3.87,2.76.67.67,0,0,1,.25.91.65.65,0,0,1-.15.18A.79.79,0,0,1,219.7,179.3ZM245.24,212h0a.43.43,0,0,0,.09-.26v0h0C245.31,211.83,245.36,212,245.24,212ZM229.05,155h0a1.16,1.16,0,0,1-1.19,1.12h0a1.3,1.3,0,0,1-.33-.07,1.83,1.83,0,0,1-.28-1.42L228,154h.46A1.24,1.24,0,0,1,229.05,155Zm-24.24,20.14a7.25,7.25,0,0,1-4.83,2,4.58,4.58,0,0,1-3.09-.92h-.06a1.51,1.51,0,0,1-.23-.21,10.37,10.37,0,0,1-1.33-2.36s-.06.1-.07.15h0l.06-.12a.22.22,0,0,0,0-.22,3.41,3.41,0,0,0-.3-1.7,6.65,6.65,0,0,0,.17-1.94,2,2,0,0,1-.3.14h0a2.49,2.49,0,0,0,.33-.16.33.33,0,0,0,0-.24,1.25,1.25,0,0,0-.21-.3h0a1.42,1.42,0,0,1,.25.34,7.29,7.29,0,0,1,1.65-2.61c-.11-.06-.24-.12-.26-.22h0c0,.09.15.16.26.21a.66.66,0,0,0,.48-.33h-.05a2.73,2.73,0,0,0,.46-.5l.12-.06a2.67,2.67,0,0,1-.5.56l2.59-.88h0l.75-.08h.54a1,1,0,0,0,.86.21h0a.39.39,0,0,0,.25.06h0l1.55.73a13,13,0,0,1,1.85,1.28L209,170.7a2.06,2.06,0,0,1-.68.93C207.13,172.76,206,173.93,204.81,175.09Zm-7.95-8.64h0a.49.49,0,0,0,.17.06h0l-.17,0Zm7.32,11.75a.61.61,0,0,1,.47-.3.58.58,0,0,0-.46.3v.27h-.07v-.29h0Zm-.42.38h0a.8.8,0,0,0,.43-.1h0a.81.81,0,0,1-.45.11Zm-8.89-6.09a3.47,3.47,0,0,0,.08-.79h0a3.56,3.56,0,0,1-.08.8Zm5-6.91v-.09h0a1,1,0,0,1,0,.1Zm3.92,14.7a.53.53,0,0,1-.66.08,4.15,4.15,0,0,1,.23-.76h0a2,2,0,0,0,.92-1.1.92.92,0,0,0,.64-.56h0l1-.93v-.24a1.06,1.06,0,0,1-.13-.39h0a.94.94,0,0,0,.13.4,1.18,1.18,0,0,0,.32-.27A36.57,36.57,0,0,1,204,180.2Zm.39-15.78-2-1.52c-.19-.15-.38-.3-.56-.47-.52-.44-.18-.92.31-1.24v-.1h0v.09a.37.37,0,0,0,.23.05l.18.17A13.06,13.06,0,0,1,205,165Zm27.34,39.66V204h0Zm3.05-36.2a3,3,0,0,1,.11-.4v.1A.52.52,0,0,1,234.56,168Zm-82.68,69.18v.06a1.75,1.75,0,0,1-.71-.13h0a1.17,1.17,0,0,1,.31-1.62h0l0-.05a1.1,1.1,0,0,1,1.19-.25,1.15,1.15,0,0,1,.37.78,1.13,1.13,0,0,1,0,.26,1.08,1.08,0,0,1-1.18,1Zm-3.08-2.92.22.22c.13.2-.08.27-.25.33l-.17-.07a1.18,1.18,0,0,0-1.33-.09l.46.13a3,3,0,0,0,1.11.5c.12.22.16.41-.29.46a8.84,8.84,0,0,0-2,.26,4.66,4.66,0,0,0,.49.16,3.52,3.52,0,0,0-.42.15,7,7,0,0,0,2.58.15c0,.1-.07.19-.11.29v0l-2.36.49a1.5,1.5,0,0,0,.58.21.76.76,0,0,0-.19.12c.5.43.86.1,1.23,0h0a5.75,5.75,0,0,0,.84-.22c0,.29-.26.5-.42.68a4.19,4.19,0,0,1-3.69,1.24h-.21a.29.29,0,0,1-.12-.23,1.29,1.29,0,0,0-.67-1,3.3,3.3,0,0,0-.51-.31,3.12,3.12,0,0,1-.35-.25h0c-.09-.17-.16-.33-.23-.49a.48.48,0,0,1-.17,0H143c0-.46,0-1,.4-1.28a2.68,2.68,0,0,0,.92-1.8l.82-.59a.31.31,0,0,0,.26-.07.17.17,0,0,0-.16-.08.37.37,0,0,1,.21.08h1.63c.54.3,1.15.68,1.73,1.06Zm-.62,3a5.13,5.13,0,0,1,.87-.26h0a4.09,4.09,0,0,0-.75.31h0Zm-5.53-14.76a1.44,1.44,0,0,1,.18.25,3.93,3.93,0,0,1,.81.18,1.12,1.12,0,0,1-.14,1.58,1.14,1.14,0,0,1-.64.26,1.2,1.2,0,0,1-.64-.16,1.83,1.83,0,0,1-.13-.16h0a4.91,4.91,0,0,1-.1-.77h0a2.5,2.5,0,0,1,.82-.92.55.55,0,0,0-.17-.23Zm5.46,7.88h0a.77.77,0,0,1,.25-.1V230h0v-.27l-.25-.24h0a3.33,3.33,0,0,0,.26.24c.11-.35.21-.71.3-1.07a.24.24,0,0,1,0-.12h0v.18c.48-.16,1.18.12,1.29-.7l-.38-.19h0l.37.18.61-.83h0a2,2,0,0,1,1.51.11l.13.1c.21.2.26.53.69.6h.25a1.78,1.78,0,0,1,1.34,2.12A4.89,4.89,0,0,1,153,233h-.22l-.14.08c0-.57.56-1.12,0-2a3.67,3.67,0,0,1-.53,1.85H152a.33.33,0,0,1,0-.14,19.23,19.23,0,0,1-.08-2.15,2.6,2.6,0,0,0-.34.76,6.08,6.08,0,0,0-.12-.93,3,3,0,0,0-.25,2.28c.06.36,0,.47-.22.43-.35-.63-.05-1.46-.48-2.22a.77.77,0,0,0-.21.23,1.22,1.22,0,0,0-.3-.5,1.29,1.29,0,0,0,0,1.26c.13.41.4.85.13,1.32a4.33,4.33,0,0,1-1.68-3.12.86.86,0,0,0-.28.11Zm2.32,2.77a.49.49,0,0,1,0,.17c0,.1-.09.18-.22.11.15,0,.16-.22.23-.34Zm1.6,5.81h0l.2-.1Zm55.1-54.85h0a.4.4,0,0,0-.2-.29h0a1.36,1.36,0,0,0-.34-.77.48.48,0,0,0-.18.07h.17a8.53,8.53,0,0,1,.92-5.71c.39-.75.77-1.49,1.17-2.24h0a3.14,3.14,0,0,0,.76-1.11l.06.05a5.74,5.74,0,0,0,1-1.49c-.21-.07-.4.1-.62.11h0c.2,0,.38-.17.57-.13h0c.38-.3.53-.81.92-1.07h.05a45,45,0,0,1,3.95,5.81,8.31,8.31,0,0,1,1.16,4.3,4.3,4.3,0,0,1-1.31,3,2.4,2.4,0,0,1-1.84.82,17.11,17.11,0,0,0-2.77.17h-.42a4,4,0,0,1-3-1.2h0Zm17.46,34.78,1.13-1.4h0a6.68,6.68,0,0,1,.93-.55,8.44,8.44,0,0,0,2.06-.79c.5-.37.4-1.26.79-1.85a4.54,4.54,0,0,1,2-1.5,1.13,1.13,0,0,0,0-.26h.08a.74.74,0,0,1,0,.21,4.87,4.87,0,0,1,2.24.2l.26.17a7.28,7.28,0,0,1,1,1,16.39,16.39,0,0,0,3.91,3.75,1.85,1.85,0,0,0,.33.21l.45.22c.33.3.82.38,1.2.68-.92.24-1.56-.24-2.25-.13h-.06c-2.45-.74-4.72-.32-5.63,1.17a5,5,0,0,1,.63-.38.51.51,0,0,0-.2.12.57.57,0,0,0-.16.35c.12.23.32.07.47,0a2.85,2.85,0,0,0,.33-.25l-.28-.3h0l.29.31a7,7,0,0,1,5.53.06c-.07.09-.13.18-.21.18a27.09,27.09,0,0,0-6.53,4.61,6.4,6.4,0,0,1-2.51,1.51,5.15,5.15,0,0,1-5.69-2.15,2.19,2.19,0,0,0-.32-.58c-.07-.15-.16-.29-.22-.45a5.82,5.82,0,0,1,.41-4.1l-.11-.18v-.08l.17.15Zm3.85,14.27.08-.12a.71.71,0,0,0,.29,0l.74-.62.06,0-.05.08h.17c-.34.05-.51.22-.27.56-.46-.2-.66.18-.92.42l.24-.4a.62.62,0,0,1-.33,0Zm1.07,0h.12l-.08.08s0-.11,0-.13Zm4-.17v-.81a.8.8,0,0,1-.15.17h0a.83.83,0,0,0,.19-.23v.92a.2.2,0,0,1,0-.11Zm9.2-7.87a.38.38,0,0,1-.14.21Zm18.45,7.18v-.19l.08,0v.36ZM164.58,195a5.28,5.28,0,0,1-1.78,5.84,4.19,4.19,0,0,1-.33.26l-.3.3h0c1.38,1.84,1.07,3.91.62,5.7a10.51,10.51,0,0,1-8.15,7.92,8.3,8.3,0,0,1-6-.92,1.27,1.27,0,0,0-1.75.14,7.94,7.94,0,0,1-1.29.84,5,5,0,0,1-6.46-.93,6.83,6.83,0,0,1-.74-5.35l-.37-.05v-.07l.31.06.31-.57c0-.13,0-.38.07-.38h0l.23.33h0c.38.27.47.09.47-.33,0-.14,0-.37.15-.38a2,2,0,0,0,.19.52,1.3,1.3,0,0,0,.38.46c.11.17.24.29.34.21.71-.55.86.37,1.3.37a5.29,5.29,0,0,1,.79.17l-.36-1.26a1,1,0,0,1,.26.16,7,7,0,0,0,.43.63l.12.13a.88.88,0,0,1,.05.15,1,1,0,0,0,1.29.42c.16-.32,0-.5-.07-.72s-.12-.5.15-.59a.31.31,0,0,1,.32.06h0a1.12,1.12,0,0,0,.59.75c.26.4.5.39,1.4.27l-.26-.92c-.27-.27-.35-.53-.08-.8a6.09,6.09,0,0,0,.8,1.07l.12.17c.33.48.65.35,1.11.12s0-.65,0-.83-.31-.35,0-.56a9.28,9.28,0,0,0,.92.86.66.66,0,0,0,.79-.06c.35-.24.16-.44,0-.71s-.56-.49-.47-.93c.28-.05.44.19.66.28l.06.13.34.35.24.25h.17a.23.23,0,0,0,.31,0s0,0,0,0h.1l.11-.13a.22.22,0,0,0,.18-.27h0l-.06-.19h-.26a.61.61,0,0,0,.07-.1h.2l-.77-1.2h0a.23.23,0,0,0-.06-.12h0l-.06-.15.09.06v-.43h.11a6.21,6.21,0,0,1,.86.92,2.66,2.66,0,0,0,.26.31c.09.09.35.59.79.33s.17-.6,0-.92a1.15,1.15,0,0,1-.12-.25,1.79,1.79,0,0,1-.27-.28l-.23-.41a2.07,2.07,0,0,1-.1-.43h0a4.1,4.1,0,0,1,.93.93.83.83,0,0,0,.21.16c.18.24.33.58.76.26a.63.63,0,0,0,.27-.85.58.58,0,0,0-.16-.19c-.31-.39-.61-.8-.92-1.2h0v-.27h0a7.35,7.35,0,0,1,1.74,1.11c.2.16.41.25.6,0h0a.41.41,0,0,0,0-.58h0l-.14-.17a1.54,1.54,0,0,0-.41-.44l-.33-.36c-.23-.26-.48-.52-.78-.82a1.35,1.35,0,0,1,1,.45,1,1,0,0,0,.25,0h0c.51.16.71,1.18,1.45.62.38-.32.36-.56-.08-1a.46.46,0,0,0-.19-.3c-.31-.27-.69-.56-1.09-.92a1.17,1.17,0,0,1,1,.38l.52.21c.32.13.59.22.82-.17l.06-.08a.63.63,0,0,0-.23-.83.63.63,0,0,0-.22-.26l-.93-.68c.24-.32.52-.12.82.13.41-.06.92.7,1.26-.14h0a.92.92,0,0,0-.4-1.19,3.35,3.35,0,0,0-.59-.39l.28-.31c.32,0,.66.37.92.09s.12-.67-.19-.92l-.21-.09c-.22-.21-.55-.34-.79-.53a.54.54,0,0,1,.63-.08,1.28,1.28,0,0,0,.92.11c-.05-.84-.07-1-.61-1.17a2.44,2.44,0,0,0-1-.44.67.67,0,0,1,0-.2h.08c.47-.09.92.2,1.35,0a1.08,1.08,0,0,0-.68-.81,3.56,3.56,0,0,1-.29-.7c.11-.15,0-.27-.1-.35s-.54-.2-.09-.44h.13v-.05c2-.82,1.94-.53,3.62-.17A5.42,5.42,0,0,1,164.58,195Zm-1.93-41.9c1.84,2.22,2.76,4.69,1.91,7.56a7.63,7.63,0,0,1-4.81,4.89h0c2.71,4.22,2.95,7.65.65,10.56a3.17,3.17,0,0,0,.22-.8,6.31,6.31,0,0,0,.36-4.54h0a6.31,6.31,0,0,0-2.09-4.07c-.15-.17-.29-.34-.45-.49l-.13-.11c-.32-.35-.58-.72-.06-1.25h0a4.32,4.32,0,0,0,1.95-.6,1.6,1.6,0,0,1,0-.31h0a1.6,1.6,0,0,0,0,.31,4.17,4.17,0,0,0,2.22-1.47,1,1,0,0,0,.6-.82,3.55,3.55,0,0,1-.47.09h0A3.86,3.86,0,0,0,163,162h0a1.82,1.82,0,0,0,.7-1.2.35.35,0,0,0,.06-.24l-.22-.49h0l.22.5a5.34,5.34,0,0,0-.71-5.12h0a3.12,3.12,0,0,0-1-1.31,3.94,3.94,0,0,0-.47-.44h0l-.07-.06c-.17-.16-.35-.3-.53-.44-.06-.53.14-.78.62-.75l.12.06h0a1.07,1.07,0,0,0,1.13.45c.46-.43.92-.92,1.41-1.3A4,4,0,0,1,162.65,153.13Zm-13.76-4a1.56,1.56,0,0,0,1-.33h0a4.37,4.37,0,0,0,2.51-.69l-.16-.17h.06l.13.14h.29a3.29,3.29,0,0,1,2-.19,1.28,1.28,0,0,1,.39.65,1.34,1.34,0,0,1-.93,1.66,7.37,7.37,0,0,1-5.65-.61C148.44,149.27,148.57,149.16,148.89,149.1Zm-8.36,26.82V176h0a1.33,1.33,0,0,0-.56-.59c.58-.6,1.33-.06,2-.27V175h0v0a1.54,1.54,0,0,0,.84.18h.3l.17-.16h0l-.17.16,3.37-.07h0a1.4,1.4,0,0,1,.69,1.87,1.42,1.42,0,0,1-1.5.8,7.46,7.46,0,0,1-3.06-.56A14.83,14.83,0,0,1,140.53,175.92Zm8.43-19a5,5,0,0,0,3.09-.33l-.09-.1h0l.1.1a.67.67,0,0,0,.6-.24,3,3,0,0,1,.74.06l.17.09a1.61,1.61,0,0,1,.92,1.62c-.15.67-.69,1.05-1.61,1.05a7.46,7.46,0,0,1-5.54-2.38h1A.67.67,0,0,0,149,156.9ZM137,147.44h-.38A1.21,1.21,0,0,1,137,147.44Zm7.38,17.88v-.2h0v.2Zm.12.16a.64.64,0,0,1-.1-.13,12.51,12.51,0,0,1,1.5,0,6,6,0,0,0,2.46,0,2.83,2.83,0,0,0,1.07-.21l-.1-.17h0l.1.17a2.79,2.79,0,0,1,1.61.19,1.48,1.48,0,0,1,.48.87,1.41,1.41,0,0,1-1.12,1.42,1.45,1.45,0,0,1-.69.1A19.76,19.76,0,0,1,144.53,165.48Zm-5.8-17.81a1.31,1.31,0,0,1,0,.28,14.61,14.61,0,0,1-1.95,8.3,1.18,1.18,0,0,1,.29-.58c.12-1.15.26-2.31.35-3.48a6.67,6.67,0,0,0-.5-3.55h0a1.43,1.43,0,0,1-.07-.46h0v-.28l-.25-.09h0l.25.09c.07-.11.12-.21.19-.3h0a.26.26,0,0,0,.09-.17l.51-.35h0a2,2,0,0,1,.64.11A1.11,1.11,0,0,1,138.73,147.67Zm-59.64-.09h0v.08H79l.09-.12Zm3.06-3.22h.06a.51.51,0,0,1,.17.34c0,.17-.17.35-.2.52-.17,0-.39.1-.55,0h-.06l-.09-.07.11.08c0-.45.35-.61.62-.85Zm4.17-1.3a.14.14,0,0,1,0,.09.46.46,0,0,1-.41.51h-.12l-.17-.07h0a.17.17,0,0,0,0-.17.38.38,0,0,1,.23-.37v-.34h0v.35l.42-.18A.37.37,0,0,1,86.32,143.06Zm-1.18,7.29a.35.35,0,0,1-.48.14.18.18,0,0,1-.09-.06,1.39,1.39,0,0,1,.06-.19,1,1,0,0,1,.78-.63A1.06,1.06,0,0,1,85.14,150.35ZM88,153.46a.33.33,0,0,1,.14,0h.26a2.8,2.8,0,0,0,.83-1.39,3,3,0,0,0-.13-.49,4.94,4.94,0,0,1,.15.55,1.25,1.25,0,0,0,.19-1.06c-.09-.69.33-.69.83-.69h0a1.26,1.26,0,0,0,.8.22,5,5,0,0,0,1.34.44l.3.13A6.48,6.48,0,0,1,88,153.66l.1-.09H88l-.47.11.17-.12Zm8.39-6.16a1.31,1.31,0,0,1,0-.28V147a.47.47,0,0,0-.17.2.43.43,0,0,1,.18-.22h0V147h.23A.34.34,0,0,1,96.38,147.3ZM79.1,150.93a6.1,6.1,0,0,0,1.55-.61.77.77,0,0,1-.18-.18h0a.7.7,0,0,0,.2.18,6.34,6.34,0,0,0,1.93-.27h.12c-.19,1.79,0,2.1,1.18,3.4a6,6,0,0,1-4.41-1.64A1.84,1.84,0,0,1,79.1,150.93Zm11.3-4.82h-.07l2,.78a8.72,8.72,0,0,1,2.35,1.73,3.65,3.65,0,0,0,.73.58,3.45,3.45,0,0,0,2,.79c-.35.43-.83.35-1.27.3a5.21,5.21,0,0,1-1.71-.6c-1.59-.82-3.21-1.53-4.75-2.45a9.48,9.48,0,0,0-1.38-.61l-.14,0-.26-.09h-.1a9.36,9.36,0,0,0-5.22-.05,30.42,30.42,0,0,0-3.06,1l.16-.17a1.66,1.66,0,0,1,.14-.43h0a1.36,1.36,0,0,0-.12.39l.82-.34a.41.41,0,0,0,0-.22l-.14-.15h0l.11.11h0a2.93,2.93,0,0,0,1.45-.58l-.14-.23h0l.1.21a3.39,3.39,0,0,0,1.38-.41l3.37-.13v-.13h0v.15h.82l2.77.56h0Zm-8.54-1.85v-.06h0v.06h0l-.15,0h0Zm8.71-.75a.37.37,0,0,1-.34.35h0a.21.21,0,0,1,0-.19.35.35,0,0,1,.32-.22.19.19,0,0,1,0,.08Zm34.18,35.17a2.91,2.91,0,0,1-.8.37.93.93,0,0,1-.55-.38v-.06a1.35,1.35,0,0,1,.64-1.78h0s.07-.08.12-.08c2.61-.76,4.29-2.76,6.07-4.61a1.8,1.8,0,0,1,.36-.37,4.12,4.12,0,0,1-.84,2,24.28,24.28,0,0,1-4.86,4.85Zm7.48-15.86.77-.62h0l.84,0a1.19,1.19,0,0,0-.18-.15h0c.05,0,.11.08.16.14l.52.31a1.57,1.57,0,0,1,.38,1.08v.12a1.45,1.45,0,0,1-1.49,1.4h0a1.84,1.84,0,0,1-.69-.17,1.32,1.32,0,0,1-.33-.82,8.55,8.55,0,0,1,0-1.24h-.36a3.84,3.84,0,0,1,.39,0Zm22.62,20.6v-.63h0a2.36,2.36,0,0,1,0,1.12A4,4,0,0,0,154.85,183.42Zm-52.29-3.9a2.24,2.24,0,0,1,1-.05v.06a1.48,1.48,0,0,0,1.17-.26.91.91,0,0,1-.38-.13h.13a1.07,1.07,0,0,0,.33.11,5.57,5.57,0,0,0,3.32-2.06h0a3.84,3.84,0,0,0,1.2-2.59,7.44,7.44,0,0,1,.3-1.34h0a5.34,5.34,0,0,1,.69.05c.24.23.3.6.18,1.17a6.85,6.85,0,0,1-8,5Zm27.3,8.85c.13-.29-.1-.63,0-.93.46.48.92.93,1.42,1.48a5.15,5.15,0,0,0,2.36,1.33h-.07a.65.65,0,0,0,.59.2h0l.19.07a1.63,1.63,0,0,1,.78,1.2,1.49,1.49,0,0,1-.58,1.74,1.36,1.36,0,0,1-1.45,0,.9.9,0,0,0-.5-.4h0a1.13,1.13,0,0,0-.52-.56v-.15a14.75,14.75,0,0,1-2.14-3.84h-.05Zm16.54,4.55a.28.28,0,0,0,.2-.12l.19-.12.25-.27v-.13a3.87,3.87,0,0,0,.79-1.05h0c.32-.34.23-.75.22-1.15h0a5.82,5.82,0,0,0-.13-2.87c-.2-.54,0-.8.31-.84a1.21,1.21,0,0,0,.35.29l.28.09a.45.45,0,0,0,.5.16h0a3,3,0,0,0,1.72.21l.06-.06a3.43,3.43,0,0,0,3.19-1.4h.06v-.08h0v-.32h0v.41c.79-.51.73-1.32.79-2.09a9.52,9.52,0,0,0-.34-2.44h0v-.65a6.08,6.08,0,0,1,.52,4.81c-.84,2-3,2.77-6,2.2a.79.79,0,0,1-.22-.06h0l-.35-.05c-.07,1.56.32,3.28-.93,4.61a4.94,4.94,0,0,1-2.05,1.56Zm14.27-40.63.05-.06v.66l-.05,0ZM115,159.59h0a3.54,3.54,0,0,0,.19-.39h0C115.1,159.33,115,159.45,115,159.59ZM93.69,188.4l.24-.09a1.26,1.26,0,0,0-.05-.28h0a.8.8,0,0,1,.1.23,4.23,4.23,0,0,0,1.74-.51h0A4.16,4.16,0,0,0,98.18,186a1.48,1.48,0,0,1-.05-.47h0a1.6,1.6,0,0,0,.05.49,3.75,3.75,0,0,0,1.33-2.86,1.83,1.83,0,0,1,.56-1.24.79.79,0,0,1-.4-.1h0a1,1,0,0,0,.34.07,3.23,3.23,0,0,1,.51.14.72.72,0,0,1,.15.27,2.29,2.29,0,0,1-.1,1.24,7.15,7.15,0,0,1-6.91,4.88Zm21.57,12v-1.84a.25.25,0,0,1,0-.17c1.21,1.29,2.38,2.56,3.62,3.76a.78.78,0,0,1,.24.24,1.43,1.43,0,0,1-.22,2,1.53,1.53,0,0,1-.82.31,2.93,2.93,0,0,1-.86-.57l-.19.13a.31.31,0,0,0-.25-.28h0a4.49,4.49,0,0,0-.92-1.39h0l-.69-2.19-.16.08h0Zm6.5-7v0Zm0-.15v-.08l-.17-.18h0l.18.19h.07Zm27.67,13.1.19-.1h0l-.23.1Zm2.7-2.05h0v-.06h0l.05.06Zm1-1.32a.31.31,0,0,1,.26.14.41.41,0,0,0-.21-.14Zm4-5.63v.08h0a.32.32,0,0,1,.4-.21.2.2,0,0,1,.08,0,.33.33,0,0,0-.44.09Zm.17-3.09Zm-28-39.17a1,1,0,0,0,.2.86A3.15,3.15,0,0,1,127.3,161a1.21,1.21,0,0,0-.92.57,1.52,1.52,0,0,1-1.63.82,1.91,1.91,0,0,1-.47-.18,2,2,0,0,1-.57-1.24.3.3,0,0,0-.08-.25h0c0,.07,0,.15.07.23.64-.18,1.38-.14,1.91-.7h0A2.32,2.32,0,0,0,127,159.1h0a2.21,2.21,0,0,0,.77-1.43l-.08-.11a.41.41,0,0,0-.2-.17h0a.61.61,0,0,1,.19.17l.08.11a.66.66,0,0,0,.21-.59h0a3.47,3.47,0,0,0-.77-3c-.64-.69.12-.68.41-.92h0a3.45,3.45,0,0,1,1,.26A1.88,1.88,0,0,1,129.28,155.05Zm-7.82,7.64h0a.44.44,0,0,0,.25-.08.52.52,0,0,0-.1-.11.57.57,0,0,1,.11.11.28.28,0,0,0,.31-.19.89.89,0,0,1,0-.23h0v.29a1.5,1.5,0,0,1,.58.14c0,.06,0,.1.08.17.06.22.16.53.06.68-.56.93-.6,2-1.19,2.94a2.61,2.61,0,0,1-.27.31,2.54,2.54,0,0,1-2.27.7l-1.33-.72-.21-.19a10.41,10.41,0,0,1-2.29-4h-.25v-.09a8.51,8.51,0,0,0-.06-1.24h0a8.12,8.12,0,0,0,.13,1.34h.27c.06-.24,0-.5,0-.76.24.48.49,1,.77,1.4a4,4,0,0,0,.92,1,3.17,3.17,0,0,0,2,1l-.32-.2.16,0c-.16-.06-.29-.15-.44-.22a7.49,7.49,0,0,1-2-2v-.09a10.4,10.4,0,0,0-.92-1.9h0l-.11-.54c.06-.2-.09-.65.1-.71.45.5.92,1,1.33,1.46a5.84,5.84,0,0,0,1.84,1.31l.15.05a2.79,2.79,0,0,0,2.67.24ZM116.92,154h0a1.31,1.31,0,0,1,.12-.48,1.56,1.56,0,0,0-.08.48Zm8.55,44.65-.35-.1a2.43,2.43,0,0,1-.87-.93l-.62-.92h0c-.58-1.25-1.18-2.45-1.76-3.69h0a.43.43,0,0,1,.15-.46,13.42,13.42,0,0,0,4.07,3.06,2,2,0,0,1,1,1.16,1.23,1.23,0,0,1-.18,1.31,1.34,1.34,0,0,1-1.42.55Zm10.23-16.27c-.33-.86.3-.31.53-.36l.54.26a20.92,20.92,0,0,0,3.69,1.63,5.56,5.56,0,0,1,.71.29,1.44,1.44,0,0,1,.14,2,1.42,1.42,0,0,1-1.79.31,8.77,8.77,0,0,1-.92-.46,7.75,7.75,0,0,1-2.9-3.71Zm-11.28-31.92a1.84,1.84,0,0,1,1,2.14,1.57,1.57,0,0,0,.27,1.4,3.74,3.74,0,0,1,.62,1.61,3.68,3.68,0,0,1-3.17,4.14,1.46,1.46,0,0,0-1.07.7,2,2,0,0,1-2.37.76c-.21-.09-.41-.18-.61-.29h0l-.27-.13-.83-.62a4.49,4.49,0,0,0-1.12-1.14h0a2.49,2.49,0,0,0-.57-.93v.19h0v-.21a.24.24,0,0,0-.07-.16h0a3.63,3.63,0,0,0-.53-1.21h0a2.73,2.73,0,0,1-.1-.48v-.06c0-.33.06-.63.07-1a1.8,1.8,0,0,0,.53.82h0a3.81,3.81,0,0,0,1.33,1.43,3.14,3.14,0,0,0,1.44.61c-.13-.09-.24-.21-.36-.31l.3.07a6.8,6.8,0,0,1-.7-.38,10,10,0,0,1-1.36-1.48l-.12.13h0l.12-.14c0-.57-.66-1-.45-1.7l.31.26h0a5.66,5.66,0,0,0,1.09.92,6.12,6.12,0,0,0,2.4,1.14v-.15h0v.15c.14.22.35.48.58.18s-.28-.3-.33-.38-.25-.17-.25-.08v.09h0v-.07a8.14,8.14,0,0,1-2.91-2.19c.61-.29,1.15.07,1.72.19l.15.06a10.29,10.29,0,0,0,1.85.84h0c.12.17.33.17.54.23h0c.17.25.34.48.77.35a.71.71,0,0,0-.7-.45h-.06a1,1,0,0,0-.55-.43h0a5.47,5.47,0,0,0-.93-.56,13.25,13.25,0,0,0-1.2-.58,4.84,4.84,0,0,0-1.22-.45.38.38,0,0,1,0-.15l1-.06.21-.06,2.42.75h0a1.91,1.91,0,0,0,.93.44h0c.13,0,.32.2.35-.05s-.23-.18-.35-.26h0a1,1,0,0,0-.63-.41h0l-.56-.24a8.19,8.19,0,0,0-2.37-.75,1,1,0,0,1-.24.16h0a.91.91,0,0,0,.23-.17.71.71,0,0,0-.31-.1,1.09,1.09,0,0,1,.08-.15l-.24-.22h.08l.18.16,2.52-.13v-.26h.55a5.71,5.71,0,0,0-3.91-.12h-.2l.45-.22a7.1,7.1,0,0,1,1.66-.92l.1-.1a1.5,1.5,0,0,0,1-.22v0l.84-.07V150h.06v.08h.58l1.78.41a1.19,1.19,0,0,1,.27.07C124.19,150.6,124.29,150.44,124.42,150.49Zm-3.46-3.4v.09h0v-.29h-.08l.1-.06h.08a1.6,1.6,0,0,0,0,.31Zm.05-.32h0l.09-.06a.24.24,0,0,1,0,.12s0,0-.07-.08ZM153,239a.9.9,0,0,0,.08.28A.9.9,0,0,1,153,239Zm1.51-1.54c.63-.39,1.14.3,1.75-.05a1.94,1.94,0,0,0-.36-.15l.2-.08-.81-.18a1.18,1.18,0,0,1-.53-.43c.32-.55.85-.39,1.24-.43s.84.1,1.32-.2a2.87,2.87,0,0,0-.82-.18,2.82,2.82,0,0,0-1.77-.09h-.22l.2-.28h0c.73-.4,1.7,0,2.5-.72a1.6,1.6,0,0,0-.49-.12.81.81,0,0,0-.92-.19c-.38.09-.79.24-1.11.34v-.38a.54.54,0,0,0-.18,0,.54.54,0,0,1,.18,0l.24-.3a.7.7,0,0,0-.22-.2h0a.66.66,0,0,1,.29.23,2.47,2.47,0,0,0,.81-.62h0a.18.18,0,0,0,0-.07s0,0,.09.09a.72.72,0,0,0,.57-.28l2.19-.35v-.06h.07c.25.12.42.37.42.88s.42.43.69.6a1.48,1.48,0,0,1,.25,2.63c-.17.19-.48.22-.48.6h0a1.66,1.66,0,0,1-1.71,1.59,2.92,2.92,0,0,1-1.21-.14,6.74,6.74,0,0,1-2.09-1.46Zm25.91-45.79a2.08,2.08,0,0,1,.11-.74h0l.26-.29a.59.59,0,0,1-.29-.33h0a.79.79,0,0,0,.25.23l.54-.3v-.1h0v.13a2.61,2.61,0,0,1,.61.22,1.16,1.16,0,0,1,.35.66h0a1.26,1.26,0,0,1-1.12,1.24.71.71,0,0,1-.79-.62.34.34,0,0,1,0-.1Zm53.32,41.8h.15l-.2-2.77a.27.27,0,0,0,.07-.23,3.46,3.46,0,0,0-.22-.31h0a1.81,1.81,0,0,1,.22.32,4,4,0,0,0,.43-1.48h-.09a.15.15,0,0,1,.13,0,8.44,8.44,0,0,0,.92-1.66h0a17.82,17.82,0,0,1,4.92-4.87.86.86,0,0,0,0-.28h0a1.41,1.41,0,0,1,0,.29l.52-.23a1.67,1.67,0,0,0,.84-.47,1.89,1.89,0,0,0-.05-.23h0a1.1,1.1,0,0,0,.06.26l2.5-.69c-3.12,2.69-4.61,6.8-3.25,9.8l.13-.53a3.21,3.21,0,0,0,.22.54,7.23,7.23,0,0,0,.62-2.63,2.64,2.64,0,0,1-.2-.37h0l.2.37a1.26,1.26,0,0,0,.23-.86l-.08-.09-.14-.08h0l.17.08h0l.08.09a.67.67,0,0,0,.24-.57l-.06-.12h0a.68.68,0,0,1,.23-.52,1,1,0,0,0-.08-.29v0a1.93,1.93,0,0,1,.11.34h0a.68.68,0,0,0-.23.52v.12a.93.93,0,0,0,.23-.62h0a5.66,5.66,0,0,1,.82-1.18V225h0a11.24,11.24,0,0,0,.28,6.27,1.84,1.84,0,0,1,.08-.38,4.6,4.6,0,0,0,.13.5c.13-.08.28-.12.28-.17.26-1.79.53-3.58.92-5.35h0a.77.77,0,0,0,.24-.54v-.56l.11-.2v.59c0-.07.08-.12.11-.18.59,2.35.24,4.7.93,6.92a2.26,2.26,0,0,1,.08-.44,4,4,0,0,0,.32.77,3.63,3.63,0,0,0,.36-2.17c-.36.18-.08.68-.45.92h0c.36-.23.09-.72.45-.92v-2a.8.8,0,0,1-.33-.17h0a.66.66,0,0,0,.28.13v-.54c-.18-.08-.21-.16-.11-.22-.06.06,0,.13.12.2a.66.66,0,0,0,0-.28h0a6.91,6.91,0,0,0-.18-1.43v-.07a7,7,0,0,1,.19,1.51c.32-.44.1-.92.16-1.38v-.79a17.06,17.06,0,0,1,1.11,5.6l.26-.37a2.55,2.55,0,0,0,.25.7,7.06,7.06,0,0,0,.47-4.13c-.1-.57.1-1.19-.34-1.7a1.16,1.16,0,0,1-.17.6v-.07a1.63,1.63,0,0,0,.16-.53c-.22-.06-.24-.14,0-.26v-.29c0-.2,0-.31.12-.36,1.55,1.44,1.77,3.53,2.46,5.53l.15-.54a2.79,2.79,0,0,0,.44.69,4.41,4.41,0,0,0-.19-2.64h0q-.08-.39-.12-.78h0a.52.52,0,0,0-.21-.5h0a.42.42,0,0,0,0-.25h0a1.8,1.8,0,0,0-.56-1.15h0a.3.3,0,0,0-.13-.38h0a.4.4,0,0,0-.19-.31v0a1.38,1.38,0,0,0-.58-.76.34.34,0,0,1-.12-.06l-.15-.12a.33.33,0,0,1-.06-.1,3.86,3.86,0,0,0-2-1.46,8.58,8.58,0,0,0-1.31-.68h.28a3.06,3.06,0,0,1,.92.09v.14h.53a17.49,17.49,0,0,0,1.77.41c.29.09.57.2.86.31l1.09.55c.42.24.83.49,1.22.74a.81.81,0,0,0,.47.34,11.7,11.7,0,0,1,4.52,6.24,4.59,4.59,0,0,1,.2.75,4.37,4.37,0,0,1-3.57,5,1.77,1.77,0,0,1-.56.08c-1.26-.44-1.77.34-2.38,1.26a7,7,0,0,1-9.32,2.33,4.57,4.57,0,0,1-.47-.29h-.07a1.26,1.26,0,0,0-.58-.49c-.71-.69-1-1.74-2-2.18h-.18a2.24,2.24,0,0,0-1.3-.17,4.35,4.35,0,0,1-1.3-.11,2.86,2.86,0,0,1-.58-.21,6.71,6.71,0,0,1-2-2h-.13Zm29.37-3.9c.54-.33.93.25,1.37.25a.44.44,0,0,1-.19.19,2.87,2.87,0,0,1-1.08-.27l-.09-.15Zm-134-82.66a2.13,2.13,0,0,1,.17,1.64c-.31.92-.92,1.7-1.23,2.62-.15.52-.74.65-1.3.65h-.28v-.1a1,1,0,0,0-.25-.85v-.09c-.06-.62-.6-.81-1-1a7.91,7.91,0,0,0-1.42-.56,5.11,5.11,0,0,0-1.45-.34h0a3.36,3.36,0,0,0-1.72-.24,5.5,5.5,0,0,1,3.16-1.38h0a3,3,0,0,0,1.47-.19,5.06,5.06,0,0,1-.87-.23h.1a7.06,7.06,0,0,0-1.72-.05,10.94,10.94,0,0,0-1.24.26,7.89,7.89,0,0,1,4.3-1.45l1.63-.05h0l.77.34A2.82,2.82,0,0,1,129.12,146.89Zm-23.51,60.47h0c0-.2,0-.4-.12-.5h0c.08.08.08.3.07.5Zm92.59,35a.43.43,0,0,0,0-.16h0v.24A.11.11,0,0,0,198.2,242.33Zm64.21-11.65a1.69,1.69,0,0,1,.59-.13c.17.11.4.29.76.57-.29.14-.52-.06-.8-.14l-.37-.19A1.08,1.08,0,0,0,262.41,230.68ZM86.25,189.83h.06a.38.38,0,0,0,.27-.22h0a.41.41,0,0,1-.29.33.53.53,0,0,1-.25,0Zm10.5,17.08V207h0v-.05Zm10.49,2.87a1.83,1.83,0,0,1-.42-.31h0l-.92-2h-.07a11.21,11.21,0,0,1-.14-4h0a.23.23,0,0,0,.06-.22.47.47,0,0,0-.17-.43h0a.5.5,0,0,1,.2.47L106,203a47.87,47.87,0,0,0,2.72,4.49l.16.23a1.45,1.45,0,0,1-.53,2l-.2.09a1.41,1.41,0,0,1-1,0Zm83.46,37-.2-.06v-.08l.25.09a33.79,33.79,0,0,1-.43-5h.07v-.57a1.13,1.13,0,0,0,.19-.5,26.72,26.72,0,0,1,1.29,6.06c0,.35,0,.67-.39.8a.69.69,0,0,1-.35,0,6.45,6.45,0,0,1-.47-.69Zm7.82-2.83.13,0a.55.55,0,0,0-.07-.24.39.39,0,0,1-.14-.08v-.06a.67.67,0,0,0,.15.14c0-.49-.05-1-.08-1.56a14.63,14.63,0,0,1,.1-3.91,26.48,26.48,0,0,1,1.32,6c0,.35.06.86-.51.92a.41.41,0,0,1-.22,0,1.31,1.31,0,0,1-.19-.35c-.09-.24-.09-.55-.31-.74l-.17.05a.1.1,0,0,0-.06-.05Zm5.81-47.66h0ZM230.48,206l.28.21-.26.26a1.14,1.14,0,0,0-.31-.16h0l.28-.28Zm-1.09,1.9h0a.34.34,0,0,0,.2,0c.11.24.24.49-.39.34a1.63,1.63,0,0,1-.53-.21c.13-.17.44-.09.69-.13Zm-11.16,22.6a1.76,1.76,0,0,0,.14-.23l.13-.15a3.36,3.36,0,0,1-.32.51.43.43,0,0,1,0-.13Zm1.35-.51a2.4,2.4,0,0,1,.69.26,1.42,1.42,0,0,1,.43.85,1.29,1.29,0,0,1-1.3,1.2,1.38,1.38,0,0,1-.84-.35c-.33-1-.07-1.41,1-2Zm23.06,42.78h.09a.09.09,0,0,0,.08-.06c0-.07-.11.16-.16.17s-.08-.09-.08-.11Zm.27-.24.08-.11.19-2.38a7.52,7.52,0,0,0,.28,2.63c.08.2-.22.4-.42.41a3.62,3.62,0,0,1-.2-.55Zm19.37-41.19a1.44,1.44,0,0,1,.4.13,2,2,0,0,1,.71.81.32.32,0,0,1-.41,0,1.78,1.78,0,0,1-.81-.94Zm-89.52-61.8h0Zm.37-.12h0ZM79.78,189.56l.27.15.16.13,1.12.69c2,.59,3.9.69,5.66-.64a.15.15,0,0,1,0-.16c.59-.24.86-.83,1.29-1.25a1,1,0,0,1,0-.24h.06v.23H89c.36.33.3.92-.25,1.39A6.7,6.7,0,0,1,82,191.17c-.26-.1-.51-.22-.77-.34l-.5-.29c-.35,0-.59-.34-.87-.51l-.36-.22c0-.17.12-.25.29-.25a2.45,2.45,0,0,0-.76-.46h0A3,3,0,0,1,79.78,189.56Zm17.52,8a.91.91,0,0,0,.07.14l-.09-.13Zm18-11.88a.56.56,0,0,0,.24.24h0a.59.59,0,0,1-.25-.22Zm.39,0v-.06l-.06.27h-.09a.38.38,0,0,0,.15-.18ZM130,202.09h0Zm16.28,79.61h0v.05h.28a13.32,13.32,0,0,1,.22,2.27.38.38,0,0,1-.33.41h0a2.17,2.17,0,0,1,.13-1,3.65,3.65,0,0,0,0-1.61h-.3a.2.2,0,0,1,0-.11Zm22.61-55.2h0a7.44,7.44,0,0,1-1.94-.14,10.11,10.11,0,0,1-1.92-.8v.07l-.23-.13c-.49-.49-1.14-.8-1.5-1.42h0a.61.61,0,0,0,0-.19.57.57,0,0,1-.12-.23h0a.7.7,0,0,0,.13.24,1,1,0,0,1,1-.31h0c.24.3.56.23.92.19v-.07h0a.14.14,0,0,1,0,.09H166a7.52,7.52,0,0,0,4-.1l-.25,0h.21a1.42,1.42,0,0,0,1.08-.3l.17-.24h.08l-.22.3a.41.41,0,0,0,.25-.11h0a3.11,3.11,0,0,0,1.36-.64v-.28l-.14,0h0l.17,0h0v.21a.27.27,0,0,0,.28-.21h0a.92.92,0,0,0,.59-.45h.06c.37-.39.92-.65,1-1.21a2.12,2.12,0,0,1-.31-.14h0c.09,0,.18.09.27.11a1,1,0,0,0,.51-.84h.05a2.1,2.1,0,0,0,.44-1.41.24.24,0,0,0-.24-.09h0a.32.32,0,0,1,.25.1,4.56,4.56,0,0,0-.24-3.6c-.15-.34-.3-.69-.66-.69-.28-.21-.63-.13-1.3.15h-.1a3.23,3.23,0,0,1-2.72.06,6.23,6.23,0,0,1-.8-.54.22.22,0,0,0,.05.08h-.06s0,0-.06-.06h.14l-.5-.63-.06.06v.1l0-.09h0l.07-.08a3.86,3.86,0,0,1,.06-3.35c0-.09-.19-.13-.31-.18h0c.13.06.3.1.34.18a4.55,4.55,0,0,1,2.27-1.79h0a10.85,10.85,0,0,1,3.44-.45.28.28,0,0,0-.1-.09h0a.1.1,0,0,1,.09.08l1.38.4A7.12,7.12,0,0,1,180.2,212a8.47,8.47,0,0,1,.2,4.86,12.5,12.5,0,0,1-11.57,9.67Zm32.56-29.94-.92-1.33v.12h0v-.06h0a5.64,5.64,0,0,1-.06-2.71h-.07a1.07,1.07,0,0,0-.31.13v-.07a.77.77,0,0,1,.28-.12h.07a.33.33,0,0,1,.14,0c.32.73.57,1.28.86,1.84a3.64,3.64,0,0,0,1.73,1.69.88.88,0,0,0,.47.28h0a.43.43,0,0,0,.25.07h0a.57.57,0,0,0,.6.2v-.22h0v.23H205a2.35,2.35,0,0,0,1.2-.18c.44-.25,1-.43,1.17-.92s-.42-.67-.65-1a1.41,1.41,0,0,1-.16-1.58A1.55,1.55,0,0,1,208,192a2.63,2.63,0,0,1,.92.17l.1.1a3.3,3.3,0,0,1,.8,1.18A3.47,3.47,0,0,1,208,198,6.05,6.05,0,0,1,201.4,196.56ZM240.29,272a.28.28,0,0,1,0,.13.37.37,0,0,1-.4.3.67.67,0,0,1,0-.2,6.19,6.19,0,0,0,.19-1.48,1.68,1.68,0,0,1-.09-.32v-.08a.25.25,0,0,0,0-.17h0a1,1,0,0,1,.19-.74ZM176.73,157.11a.64.64,0,0,0,.3.14,5.52,5.52,0,0,1,3,6.21c-.13.5-.28,1-.45,1.46,2.22,1.07,3,3.14,3.53,5.21a10.66,10.66,0,0,1-1.27,8.3,8.53,8.53,0,0,1-7.28,4.4,1.59,1.59,0,0,0-1.74,1.2,6.64,6.64,0,0,1-2.24,3,4.22,4.22,0,0,1-4.51.59l-.44-.21-1.09-.68v0l-.82-.87h0a1.43,1.43,0,0,0-.55-.79.09.09,0,0,0,0,.07h0a.14.14,0,0,1,.06-.11.35.35,0,0,0-.08-.26h0a.57.57,0,0,0-.25-.49H163c-.07-.39-.11-1-.19-1.32s0-.28.18-.31h.11c.18.23.38.35.54,0l-.47-.3v-.05h.07v-.44a1.44,1.44,0,0,0,.33.28,1.74,1.74,0,0,0,.48.22l.05-.05c.46.28.92.37,1.09-.29a5.14,5.14,0,0,0,1.24,0,.55.55,0,0,0,.44-.61,1,1,0,0,1-.39,0,.44.44,0,0,1-.15-.12c.11-.06.25,0,.39,0h0l.09.15c.54-.07,1.16.18,1.56-.39,0-.51-.92-.59-.57-1.27a.29.29,0,0,1,.13,0c.18.12.34.26.49.36a.77.77,0,0,0,.53.13c.47.24.93.35,1.37-.5a5.49,5.49,0,0,1-.92-1c0-.08,0-.13.05-.15a3.51,3.51,0,0,0,.77.33.83.83,0,0,0,.7.15h0l.27-.11v-.68h0v.68c.69-.59.69-.59,0-1V178h0v-.12a.14.14,0,0,0-.14-.06H171c-.08-.17-.48-.26-.13-.55v-.08h0a.11.11,0,0,1,0,.08l.31.06.23.1h.15a.73.73,0,0,0,1,0,.62.62,0,0,0,.16-.3c.17-.47-.21-.53-.54-.61a2.48,2.48,0,0,1-.37-.17h-.06a.41.41,0,0,1-.17-.22c-.05-.19.16-.19.29-.19.41.07.92.19,1.23.24s.51-.14.61-.45-.14-.38-.34-.5l-.16-.09-.08,0-1-.66-.28-.16-.24-.19.2-.22a.59.59,0,0,1,.37.06,1,1,0,0,1,.23.17,2.79,2.79,0,0,0,.39.1c.55.08,1.17.74,1.47.18s-.15-.75-.57-.93l-.28-.13-.16-.1-.12,0H173l.23.07.2-.24c.26.08.39.09.79.22s.57-.07.71-.41,0-.51-.31-.64h0c-.11-.19-.37-.26-.59-.38a6.13,6.13,0,0,1-1.47-.68h-.08V171h.08v.09a4.6,4.6,0,0,1,2.08.22c.27-.07.69.15.81-.29s-.17-.49-.43-.59a.36.36,0,0,0-.21-.15l-1.6-.49a1.42,1.42,0,0,1,.25-.34l1.59.17c.41.06.56-.11.66-.52a.5.5,0,0,0-.28-.64l-.14,0a.51.51,0,0,0-.45-.28l-1.06-.15a2,2,0,0,0,.35,0c.3-.07.59-.15.92-.2s.66-.22.61-.55a.83.83,0,0,0-.42-.63.52.52,0,0,0-.4-.29,5.43,5.43,0,0,1-1.2-.17.37.37,0,0,1,0-.11l-.31-.05v.05h0V166h0l.31.05.53-.09c0-.06.06-.13.08-.2h0c0,.09-.08.17-.11.27a1.88,1.88,0,0,0,1.19-.25c-.13-.73-.18-1-.56-1.19-.18-.3-.51-.36-1.28-.42.11-.13.28-.08.48-.16s.56-.08.76-.33v-.05a.64.64,0,0,0-.5-.6c-.25-.35-.65-.34-1.06-.33.34-.14.68-.18.83-.51-.12-.5-.35-.66-.61-.68-.16-.25-.45-.28-1.21-.23,0-.06.08-.12.13-.19v-.53h0v.29c.28-.07.74,0,.7-.46,0-.16-.18-.18-.34-.18v-.07a1.65,1.65,0,0,0-1.28-.21c.14-.16.49-.16.54-.46h-.61c.16-.05.32-.09.39-.25l-.84-.07c.47-.09.54-.42.47-.84h0a10.5,10.5,0,0,1,1.94-1.21h3.17A.35.35,0,0,1,176.73,157.11ZM82.28,199.25a2.58,2.58,0,0,0-.7-.41h-.06a12.13,12.13,0,0,1-.92-1c-.18-.22-.07-.3.07-.33l.29,0a.87.87,0,0,0,.83.22.31.31,0,0,1-.09-.07,6.2,6.2,0,0,0,1.91.3h.09a4.3,4.3,0,0,0,2,.19h0v.06h0s.2.16.31.12a39.29,39.29,0,0,0,6.86.06,13.38,13.38,0,0,0,3.39-.52h.22l.78-.09h0a1.23,1.23,0,0,0,.87-.23h0a5.08,5.08,0,0,0,1.84-.41,1,1,0,0,0,0-.25h.06a1.4,1.4,0,0,1-.06.28.5.5,0,0,0,.58-.2l-.11-.21h0l.11.21.31-.1a.53.53,0,0,0,.56-.22h0a5.09,5.09,0,0,0,1.92-.69,5.34,5.34,0,0,0,1.73-.84h.07a.15.15,0,0,0,.13,0h.07a3.41,3.41,0,0,0,1.44-.82,1.36,1.36,0,0,0-.33-.14h.07a1.23,1.23,0,0,1,.26.12,8,8,0,0,0,1.84-1.14h0a2.11,2.11,0,0,0,.82-.59h0a2.65,2.65,0,0,0,.93-.83.58.58,0,0,1-.35-.07l.09-.08a.88.88,0,0,0,.32.07,5.87,5.87,0,0,0,1.84-1.7h0a9.57,9.57,0,0,0,2.13-2.4h0l.21-.25.35-.55h0l.56-.6a6.53,6.53,0,0,1-.35,1.14,21.11,21.11,0,0,1-13.11,11.85,33.22,33.22,0,0,1-14,1.84A13.18,13.18,0,0,1,82.28,199.25Zm43.14,13.38.17,0a6.33,6.33,0,0,0,1.66-1.15h0l.23-.18h0a1,1,0,0,0,.5-.47h0a7.6,7.6,0,0,0,2-8l-.28-.17h0a1.75,1.75,0,0,0,.27.16l.22-.52h0a1.67,1.67,0,0,1,1,0l.31.12a5.22,5.22,0,0,0,4.32.28h0a.91.91,0,0,0,.85-.3,1.5,1.5,0,0,0-.06-.29h0l0,.24a2.09,2.09,0,0,0,1.42-.86,1.07,1.07,0,0,1-.28-.19h0a1.32,1.32,0,0,0,.29.19,4,4,0,0,0,1.61-2.3v0a.9.9,0,0,0,.27-.84h0a4.35,4.35,0,0,0,.14-2.55,1.2,1.2,0,0,0-.28-1.1.67.67,0,0,0-.2,0h.22a1.06,1.06,0,0,1,.24-1l.21.06v.06a1.45,1.45,0,0,0,.71,1,1.55,1.55,0,0,0,1.25.4,6,6,0,0,1,.71-.26,3.25,3.25,0,0,1-2,.39c.4,5.73-3.43,9.61-9.63,8.5C131.07,208.79,129.11,211.78,125.42,212.63Zm83.44,36.09v1a.53.53,0,0,1-.36.54.64.64,0,0,1-.47,0c-.32-.63-.15-1.41-.53-2a.46.46,0,0,1-.23.05h0a.52.52,0,0,0,.16-.06l-.09-1.11a26.6,26.6,0,0,1,.2-4,4.74,4.74,0,0,1,.36,1A35.68,35.68,0,0,1,208.86,248.72Zm-3.14-6.8a1.22,1.22,0,0,1-.27,0c-.2-.33-.25-.73-.47-1a.28.28,0,0,1-.14.1.34.34,0,0,0,.12-.12.55.55,0,0,0,0-.25h0a45.47,45.47,0,0,1-.11-5.09l-.08-.29a.66.66,0,0,0-.24.57c0,1.34.12,2.67.12,4h-.05c0-1.34-.12-2.66-.12-4h.05a.66.66,0,0,1,.24-.57v-.4a20.52,20.52,0,0,1,1.23,4.61,13.56,13.56,0,0,1,.21,1.54C206.22,241.41,206.24,241.81,205.72,241.92ZM216,217.7c-.79,2.39-.44,4.87-.22,7.38l-.29-.23a.89.89,0,0,0-.27-.39h0a23.73,23.73,0,0,1-.83-6.1.06.06,0,0,1,0-.06v-.53a.49.49,0,0,0,0-.24h0l.2-.32h0l.77-.33V217h.27l.06-.06A.82.82,0,0,1,216,217.7Zm22.14,54.73v.11a.38.38,0,0,1-.39.35h-.09c.24-.8.15-1.67.31-2.5a17.56,17.56,0,0,0,.18,2ZM172.59,146v-.07h.07a.35.35,0,0,1-.06.14Zm-7.52-12.92-.06.09h.26c1.74.85,3.17,2.68,3.17,4.14,0,2.77-1.85,4-4.17,5,2.22,2.93,2.56,4.94,1.19,7a7,7,0,0,0,.2-1.71.91.91,0,0,0-.19-.38h0a.91.91,0,0,1,.19.38c.54-1.46-.38-2.42-1.17-3.43h0a.67.67,0,0,0-.1-.21h0a1.51,1.51,0,0,0-.93-.82l-.17-.14c-.44-.66-.4-.73.44-.92.32.31.61,0,.92,0a.5.5,0,0,0,.5-.36h.07l.31-.26v-.18a4,4,0,0,0,2.06-2,3,3,0,0,0-.11-2.94,24.79,24.79,0,0,0-2.56-3.13L165,133Zm-51.33-1.12a.29.29,0,0,1,0-.13l.12-.06a.77.77,0,0,0-.15.36A.25.25,0,0,1,113.74,131.94Zm11.86,92.23h0v-.07l.19.09h-.23Zm26,60.45h-.1a3.79,3.79,0,0,1,.18-2.77,6.86,6.86,0,0,0,.24,2.39c.06.12-.06.29-.32.33Zm25-144.16h.18l-.12.08ZM47,169.12l-.14-.11h0a.76.76,0,0,0,.23.17h.1l.09-.05V169h0a.23.23,0,0,0,0,.14,4.7,4.7,0,0,1,1.46.51l.07.05a7.18,7.18,0,0,1,2.44,4.46,1.51,1.51,0,0,1-.7,1.72,1.58,1.58,0,0,1-1.71-.27c-.12-.09-.22-.19-.33-.28a3.23,3.23,0,0,0-.41-.49,7.68,7.68,0,0,1-1.68-3.3A2.08,2.08,0,0,1,47,169.12Zm60.25,55.93.29.4a.39.39,0,0,0,.21-.21c0,.2,0,.43.17.43s.17-.27.17-.46h0l.17-.22a7,7,0,0,0,.07.92h0a.42.42,0,0,0,.32.33.48.48,0,0,0,.31.26.32.32,0,0,0,.39-.11h0a.91.91,0,0,0,.6.65,1,1,0,0,0,.43.24h0a.51.51,0,0,0,.49.25V227a1.85,1.85,0,0,0,1.53,1.32c.3-.31-.1-1.05.4-1.23a1.49,1.49,0,0,1,.08.52c0,.61.23.92.62,1a.71.71,0,0,0,.69.32c.82-.06.35-.68.48-1.09a.31.31,0,0,1,.12-.19,1.6,1.6,0,0,0,.07.61c.06.13.11.46.36.59.1.24.31.39.81.36.81-.07.44-.67.53-1.06,0-.06,0-.11.07-.13a2,2,0,0,1,.26.6.58.58,0,0,0,.36.36c.14.26.29.33.71.26s.33-.3.32-.63a1.78,1.78,0,0,1,0-1,7.24,7.24,0,0,1,.31.68c.12.24.24.48.5.51a.59.59,0,0,0,.7.2c.43-.14.18-.45.18-.7a3.59,3.59,0,0,1,0-1.46c.21.37.27.82.46,1.21.1.23.23.34.39.36.13.23.35.36.81.23v-1.37a.37.37,0,0,0-.21,0h0l-.09-.61h.27a2,2,0,0,0-.16-.54h0v.07a1.82,1.82,0,0,1,.11.4c.09.27.16.48.26.8s.12.49.42.51v.1c.31.43.58.28.92-.07s.21-.76-.15-1.08h0c0-.44-.47-.84-.32-1.44.29.34.54.61.77.87a4.85,4.85,0,0,1,.29.49c.11.17.21.33.41.31a.35.35,0,0,0,.45.2l.06,0h0a.43.43,0,0,0,.21-.57,6.12,6.12,0,0,0-.8-1.57v.11l-.17-.42h.16a.39.39,0,0,1,.18-.22,4.71,4.71,0,0,1,1.07,1.43.62.62,0,0,0,.3.3.35.35,0,0,0,.41.26l.08,0c.45-.17.84-.45.61-1-.36-.23-.41-.72-.78-.92h0v-.47c.52.32.8.85,1.29,1.06h0a.54.54,0,0,0,.7-.06c.22-.22.39-.41.22-.72s-.37-.62-.56-.92h-.22c0-.25-.5-.48-.17-.71h0a1.37,1.37,0,0,1,.48.38,7.31,7.31,0,0,1,.56.81l.24-.26a.82.82,0,0,0,.44.21,1.39,1.39,0,0,0,.63-1.28,7.61,7.61,0,0,1-1.2-1.14h0a.32.32,0,0,1,.36-.14c.33.21.58.54.92.63h0l.25.32c.71-.36.57-.84.2-1.36h-.25l-.08.07h0l.07-.06c-.12-.28-.34-.48-.34-.82h0c.18.15.33.36.54.43h0c.24.07.51.35.72,0a.76.76,0,0,0,0-1c-.28-.31-.77-.35-.92-.8a.43.43,0,0,1,.42-.16l.28.11h.08c.22.14.47.23.61,0s-.13-.43-.19-.64a2.78,2.78,0,0,1-.57-.51c-.32-.41,0-.35.18-.35a.82.82,0,0,0,.19.09.17.17,0,0,0,0-.1H131L131,217h0c0-.11,0-.25,0-.41a.58.58,0,0,0-.19-.16.44.44,0,0,1,.23.18,2.63,2.63,0,0,1,2.57.25l.23.15a.3.3,0,0,0,.25.22h0a5.46,5.46,0,0,1,.44.38l.08.08a5.57,5.57,0,0,1,1.55,4.12,5.32,5.32,0,0,1-3.47,4.89l-1,.36c.65,1.84-.2,3.3-.92,4.81-1.85,3.86-7.51,6.92-12.2,5.32a7.47,7.47,0,0,1-3.2-1.9c-.12-.11-.24-.23-.35-.35a1.2,1.2,0,0,0-.15-.24,1.6,1.6,0,0,0-.4-.33,1.93,1.93,0,0,0-2.16-.24,5.76,5.76,0,0,1-3.46.13,4,4,0,0,1-1.91-.92l-.93-1.26h0a12.8,12.8,0,0,1-.45-3.08,3,3,0,0,0-.16,1.78,2.83,2.83,0,0,0-.1-.47,1.86,1.86,0,0,1,.22-1.28,8.08,8.08,0,0,1,1.1-3.08.5.5,0,0,1,.09-.23.37.37,0,0,0-.07.2l.24-.32h0v-.28a.83.83,0,0,0-.16-.09h0a.29.29,0,0,1,.15.09v.12h0v.15h0a.24.24,0,0,0,.2-.15h.06a.19.19,0,0,0,0-.18Zm-14.1,40.68v0Zm0,.09h0v0Zm-5-.92a7.1,7.1,0,0,1,.33,2.46v.11a.39.39,0,0,1-.41.33h-.07a1.22,1.22,0,0,1-.06-.42h0C88.24,266.55,87.86,265.73,88.27,264.9Zm2.07,2.44a.48.48,0,0,1-.23,0,10.91,10.91,0,0,0,.47-2.46,12.26,12.26,0,0,0,.09,1.84C90.68,267,90.75,267.32,90.34,267.34Zm-2.51-.11,0,.1h0l-.05-.1Zm5.43.2c.41-.81.09-1.69.21-2.53-.21-.09-.2-.19,0-.31h0c-.2.12-.2.21,0,.3l.12-.14a7.79,7.79,0,0,0,.19,2.59.67.67,0,0,1,0,.2.42.42,0,0,1-.44.37.84.84,0,0,1-.08-.44Zm.21-3.1Zm5.35-34.72h0a1.13,1.13,0,0,1-1,1.22h-.06a1.06,1.06,0,0,1-.62-.19l-.11-.13h0a7,7,0,0,1-.1-.8l-.3-.09h0l.31.1.59-.81h0l.82-.11h0l.33.26a1.23,1.23,0,0,1,.18.59Zm49.58,54.14a7.58,7.58,0,0,0,.15-2.07l-.26.09h0l.25-.08a.75.75,0,0,0,.14-.17,18,18,0,0,0,.07,1.94c0,.3-.13.53-.39.52A.38.38,0,0,1,148.4,283.75Zm32.28-29.26a.48.48,0,0,1-.43.47.62.62,0,0,1-.38,0l-.52-1.66a.48.48,0,0,1-.2-.07h0a.48.48,0,0,0,.2.07c0-1.21-.09-2.43-.1-3.69a2.37,2.37,0,0,1,.25-1.61,3.79,3.79,0,0,1,.26.87c.38,1.54.69,3.1.92,4.68C180.69,253.86,180.69,254.18,180.68,254.49Zm14.92,1.39A12.1,12.1,0,0,1,195,252c-.05-.84,0-1.69,0-2.53a.7.7,0,0,1-.08-.2h0a.78.78,0,0,0,.05.14.34.34,0,0,0,0-.2h0a27.24,27.24,0,0,1,1.38,5.63,4.09,4.09,0,0,1,0,.7.62.62,0,0,1-.5.59.66.66,0,0,1-.28,0,.57.57,0,0,1,0-.26Zm.87,15.23h0V271a.15.15,0,0,1,0,.07Zm-.17,1a1.86,1.86,0,0,0,.08-.41,1,1,0,0,1-.09.41Zm.51-1.84a1,1,0,0,1,0-.24,7.69,7.69,0,0,1,.23,2.29h0a.34.34,0,0,1-.36.32h-.06a9.21,9.21,0,0,0,.18-2.34Zm4.72.67a5.17,5.17,0,0,0,.23-.59v-.27h-.13a.57.57,0,0,0,.22,0,1.16,1.16,0,0,1,.18-.43,8,8,0,0,0,.3,2.71c.1.19-.19.42-.4.47h0a1.06,1.06,0,0,1,0-.66,8.92,8.92,0,0,0,0-1.79,5.16,5.16,0,0,1-.31.73ZM222.34,237V237h0a.2.2,0,0,0,0,.11Zm-34.71-97.79a15.15,15.15,0,0,1-4.1,3.19,1.12,1.12,0,0,0-.77,1.27,7.43,7.43,0,0,1-.5,3.46,4.47,4.47,0,0,1-5.27,2.9,5.3,5.3,0,0,1-1.36-.33,7.3,7.3,0,0,1-1.65-1h0l0,0a3,3,0,0,0-.79-.92h0c0-.22-.37-.58-.17-.58,1.15-.1.17-.7.17-1,.5-.1.87.31,1.28.15.23-.09.57-.19.3-.56h-.06a1,1,0,0,1,0-.25.44.44,0,0,0-.12-.15h0a.35.35,0,0,1,.16.16,1.41,1.41,0,0,0,1.46-.86l-.74-.31-.31-.17c.82-.21,1.9.41,2.14-.92a1.17,1.17,0,0,0-.34-.16V143a1.19,1.19,0,0,0-.6-.2.48.48,0,0,1-.13-.38,1,1,0,0,1,.92-.13c.87.23,1.18-.19,1.29-.92a.54.54,0,0,0-.34-.23,2,2,0,0,0-.81-.34.11.11,0,0,1,.08-.2l1.12-.09h.1l.13,0-.06-.07a.2.2,0,0,1,.09.09c.52-.8.61-.93.12-1.15v-.05c-.21-.36-.62-.3-1-.39h-.05a.67.67,0,0,0,.28-.06l.17-.19h0l-.2.23c.46,0,1,.16,1.34-.31a1,1,0,0,0-.32-.22h0a1.06,1.06,0,0,1,.29.22.24.24,0,0,0,.06-.23v-.56h-.19v-.07c-.39-.38-1-.07-1.47-.35h0a3.11,3.11,0,0,0,1.12-.3L179,137h.09a.56.56,0,0,1,.55-.32.51.51,0,0,0-.13-.41h0a.49.49,0,0,1,.16.44,1.22,1.22,0,0,1,0,.27.51.51,0,0,0,.34-.54.81.81,0,0,0-.7-.57H179l-1.41-.14c0-.17.22-.22.39-.22a3.44,3.44,0,0,1,2.84.66c1.52.27,2.89,1,4.37,1.39a19.25,19.25,0,0,0,2.58.69C188.35,138.29,188.27,138.6,187.63,139.23Zm-147.3,35a7.77,7.77,0,0,1-1.24-.81l-.39-.4h-.06a10.64,10.64,0,0,1-1.6-2.77,3.4,3.4,0,0,1-.18-1.34c.13-1.24.76-1.69,2-1.46l.19.18a10.2,10.2,0,0,1,2.66,4.62c.08.31.16.63.21.86C42,174.31,41.35,174.79,40.33,174.21ZM87.16,211.1l-.72-.51h0a4.41,4.41,0,0,1-.37-1.64h0v-.79a9.32,9.32,0,0,0,.42-2.87h.08c.33-.38.22-.92.46-1.38.08.38.14.76.21,1.21a10.9,10.9,0,0,0,1.2,3.27,2.15,2.15,0,0,1,.18,1.85,1.28,1.28,0,0,1-1.48.92Zm137,29.2v.1h0a6.34,6.34,0,0,1-1-1.59.34.34,0,0,1-.2-.34l-.07-.27-.34-.55-.09-.09v-.14a.65.65,0,0,0,.15.18v-.27a17.89,17.89,0,0,0,3.22,3,5.25,5.25,0,0,0,1.25.69l.23.11c.7.31.85.86.5,1.35l-.05.07a.92.92,0,0,1-1.29.13,19.61,19.61,0,0,1-1.85-1.68h.07a.92.92,0,0,0-.56-.68Zm-173.45-80h0a22.09,22.09,0,0,1,4.86,2.49c.52.39,1,.8,1.5,1.24a13.84,13.84,0,0,1,1.84,2.27,9,9,0,0,1,.3,10.23,25.52,25.52,0,0,1-1.77,2.54l-.08.11.39-.76-.42-.2h0l.39.19.36-.77a.54.54,0,0,1,.16-.66h0l.13.08a5,5,0,0,0,.66-1.52h0a7.75,7.75,0,0,0,.13-5.33l-.18.12h0l.18-.12a.59.59,0,0,0-.27-.58v.11l0,.07h0a.69.69,0,0,0,.1-.19,4.54,4.54,0,0,0-1.41-2h-.08a.3.3,0,0,0-.18-.17.26.26,0,0,1,0-.09h-.06a.43.43,0,0,0-.25-.23v0a16.56,16.56,0,0,0-5.23-3.69h0a23.66,23.66,0,0,0-12.25-3.05,5.78,5.78,0,0,1-2.86-.59,1.21,1.21,0,0,1-.27-.43h-.15a.38.38,0,0,1,.15,0A5,5,0,0,1,38,158.14V158h0v.12a.37.37,0,0,0,.28-.1,2.38,2.38,0,0,1,.52.15,4.15,4.15,0,0,0,2.34.7h0l.45.06h0a2.91,2.91,0,0,0,1.51.22l-.07-.12h0v.06a2.11,2.11,0,0,0,1.42.17v0h.51a3.94,3.94,0,0,0,1.74.25.62.62,0,0,0,.26-.09h0a.63.63,0,0,1-.23.08.9.9,0,0,0,.92.14h.56a3.94,3.94,0,0,0,1.4.29h0a.63.63,0,0,0,.57.19h0l.57.09h0Zm62,58.39.63-.14h.3a3.62,3.62,0,0,1-.43.24c-.11-.16-.2-.14-.26,0h-.28A.42.42,0,0,1,112.75,218.69Zm66,19.37h0a4.12,4.12,0,0,0-.45.35A3.64,3.64,0,0,1,178.77,238.06Zm11.3,23.27Zm12.78,17.53a.49.49,0,0,0,.06-.23h0A.49.49,0,0,1,202.85,278.86Zm69.43-60h0c.18-.23,0-.56,0-.83a.31.31,0,0,1-.09-.11v-.12a.43.43,0,0,0,.13.17h0c0,.33.18.68,0,.9ZM106.44,125.42a.78.78,0,0,1-.42.2l.64-.4ZM64.26,142.56h0a.81.81,0,0,0,0-.22A.81.81,0,0,1,64.26,142.56ZM54.12,156.21h0v0Zm-3.49.63h-.05l-.21-.27h0ZM97.11,272.3l0,.19h0a1.21,1.21,0,0,0,0-.19Zm2-11.44a5.59,5.59,0,0,0-.12.56A2.66,2.66,0,0,1,99.13,260.86Zm54.5,13.84-.13.07h0ZM164.17,250l-.06,0h0Zm13.21-10.7.06-.05a.84.84,0,0,0,.28-.25h0v-.06h0V239a.73.73,0,0,1-.38.29Zm2.71-3.1h0c.09,0,.12-.07.13-.16h0c-.06.1-.09.16-.18.17Zm-13.84,23.69a2.68,2.68,0,0,1,.07-.27h0a1.31,1.31,0,0,0-.09.28Zm24,1.55h0Zm.56.06h0Zm2.77,16.85-.2-.14h0l.23.17Zm12.59-5.48a.67.67,0,0,0-.1-.3h0a.69.69,0,0,1,.12.31Zm3.11-7.45h-.07a1,1,0,0,0-.29.24,1.12,1.12,0,0,1,.34-.31v0Zm63-39.3Zm-.11-9.33h0a.23.23,0,0,0,0-.29v0A.21.21,0,0,1,272.16,216.74ZM272,167a.64.64,0,0,1-.18.06h0L272,167c-.07-.14-.12-.27-.18-.41h0A1,1,0,0,1,272,167Zm11.07-12.18a.86.86,0,0,0,0-.67h0a.81.81,0,0,1,0,.74Zm.22-2.13.05-.07Zm.35-.68c-.09.19-.19.38-.27.57h0c.1-.19.18-.38.27-.57h0v-.26h.07c0,.07.1.08,0,.26Z"/>
            <path class="cls-17" d="M101.5,258.56a.7.7,0,0,0,.48-.41C101.74,258.19,101.5,258.27,101.5,258.56Z"/>
            <path class="cls-18" d="M155.15,257.69l-.23.31A.29.29,0,0,0,155.15,257.69Z"/>
            <path class="cls-19" d="M183.68,203.69a.33.33,0,0,0-.22-.32Z"/>
            <path class="cls-20" d="M184,204.24a.31.31,0,0,0-.22-.3Z"/>
            <path class="cls-21" d="M209.8,206.86l-.23.29A.32.32,0,0,0,209.8,206.86Z"/>
            <path class="cls-22" d="M285.32,160.24c.14-.12.17-.24,0-.33Z"/>
            <path class="cls-23" d="M144.77,128a.47.47,0,0,0,.32-.31A.37.37,0,0,0,144.77,128Z"/>
            <path class="cls-24" d="M114.76,187.14l-.21.25h0a.23.23,0,0,0,.21-.25Z"/>
            <path class="cls-25" d="M58.38,177l-.13-.08a.54.54,0,0,0-.16.66l.2-.09Z"/>
            <path class="cls-26" d="M152.93,232.9a1.56,1.56,0,0,0,.13-1.61c-.15.68-.26,1.12-.38,1.6Z"/>
            <path class="cls-27" d="M242.1,235.79a.22.22,0,0,0,.25-.17c0-.06-.08-.12-.13-.19s-.12.06-.2.15S242,235.76,242.1,235.79Z"/>
            <path class="cls-28" d="M246.52,237.83h.07a.14.14,0,0,0,0-.17l-.1-.1a.88.88,0,0,0-.1.22Z"/>
            <path class="cls-29" d="M248.87,225.15a.4.4,0,0,0-.05-.26C248.63,225,248.65,225.09,248.87,225.15Z"/>
            <path class="cls-30" d="M260,218.42a.52.52,0,0,0-.4-.27.49.49,0,0,0-.62.34.55.55,0,0,0,0,.18h0a.49.49,0,0,0,.4.58h.09a.46.46,0,0,0,.43.21h0a.51.51,0,0,0,.51-.51h0A.58.58,0,0,0,260,218.42Z"/>
            <path class="cls-31" d="M179.16,136.85l.55,0a1.22,1.22,0,0,0,0-.27A.59.59,0,0,0,179.16,136.85Z"/>
            <path class="cls-32" d="M179.51,137.71v.56C179.66,138.07,179.87,137.87,179.51,137.71Z"/>
            <path class="cls-33" d="M242.47,202.52h-.1c0-.19-.2-.28-.45-.28s-.38.19-.31.48a.39.39,0,0,0,.38.34.38.38,0,0,0,.39.25c.19,0,.34-.12.34-.08C242.78,202.73,242.69,202.57,242.47,202.52Z"/>
            <path class="cls-34" d="M239.56,204.16a.41.41,0,0,0-.42-.23.37.37,0,0,0-.37.34.49.49,0,0,0,.4.5h.06a.59.59,0,0,0,.37.24c.17-.08.4-.23.36-.49v-.07A.38.38,0,0,0,239.56,204.16Z"/>
            <path class="cls-35" d="M247,201.72c.06,0,.13-.09.2-.09s-.09-.17-.13-.16a.23.23,0,0,0-.2,0C246.74,201.59,246.88,201.71,247,201.72Z"/>
            <path class="cls-36" d="M207.43,162.7c-.22-.29-.45-.57-.65-.87a4.18,4.18,0,0,0,2,3.17,5.29,5.29,0,0,0,1.11.69A22.73,22.73,0,0,0,207.43,162.7Z"/>
            <path class="cls-37" d="M211.64,165.72c.32.28.5-.21.7-.41a2,2,0,0,0,.18-.36h-.59C211.71,165.2,211.32,165.45,211.64,165.72Z"/>
            <path class="cls-38" d="M212.55,164.75c.08-.12.14-.25.22-.38A.42.42,0,0,0,212.55,164.75Z"/>
            <path class="cls-39" d="M211.21,175.21a4.74,4.74,0,0,0-.16-.65,3.84,3.84,0,0,0-.1,3.23c0-.13.07-.26.12-.39a5.53,5.53,0,0,0,.2.66,3.71,3.71,0,0,0,.12-3.31A3.66,3.66,0,0,0,211.21,175.21Z"/>
            <path class="cls-40" d="M120.84,151.64v.28h.55c.25.21.56.4.72,0s-.24-.3-.45-.3Z"/>
            <path class="cls-41" d="M218.43,173.17a1.09,1.09,0,0,0,.4.07c.14,0,.36,0,.36-.24a.44.44,0,0,0-.25-.27h-.06c-.8-.46-1.69-.72-2.51-1.09a11.58,11.58,0,0,1-1.16-.82,26.08,26.08,0,0,0,5.14-.4c-.1-.12-.13-.19-.12-.22a.39.39,0,0,0,.12.19.22.22,0,0,0,.22-.3h0a1,1,0,0,0-.67-.28c-1.18-.29-2.39.16-3.69,0a11.45,11.45,0,0,1,3.53-2.17,1.38,1.38,0,0,0-.39-.18,1.7,1.7,0,0,0-1.84.07,13.3,13.3,0,0,0-3.43,2.77c-.37.35-.21.58.1.76l.4.25.11.08a14.4,14.4,0,0,0,3.78,1.79Z"/>
            <path class="cls-42" d="M207.09,171.88c1-1.3,1-1.39-.2-2.14a3.94,3.94,0,0,0-.48-.31l-.31-.19-.11-.08a8.6,8.6,0,0,0-1.65-.72,1.34,1.34,0,0,0-1.59.26l.59.16-.08,0a1.57,1.57,0,0,0,1.1.21l.3.1c.21.11.44.21.66.31a2.7,2.7,0,0,1,.72.67,19.68,19.68,0,0,0-2.65.28c-.73.18-1.62-.11-2.49.67l.73.06h0c1,.31,1.32.3,2.93-.12h0c.66.07,1.36-.07,2.07,0A14.52,14.52,0,0,1,202,173.6c.22.14.29.25.37.28l.31-.06a2.17,2.17,0,0,0-.32.36,9.17,9.17,0,0,0,4.81-2.22l-.29-.26h0Z"/>
            <path class="cls-43" d="M85.57,143.49l.23-.37A.37.37,0,0,0,85.57,143.49Z"/>
            <path class="cls-44" d="M127.07,160.28a.19.19,0,0,0-.21.15.22.22,0,0,0,.09.21H127a.19.19,0,0,0,.24-.14c0-.07,0-.18-.1-.22Z"/>
            <path class="cls-45" d="M129.09,156.57l-.08-.09-.2.11.08.08Z"/>
            <path class="cls-46" d="M129.09,158.86a1.33,1.33,0,0,0-.24-.1l-.09.09a.92.92,0,0,0,.23.09Z"/>
            <path class="cls-47" d="M128,159.75a2.14,2.14,0,0,0,.1.22l.1-.09h0a.14.14,0,0,0,0-.19l-.06,0Z"/>
          </g>
        </g>
      </g>
    </g>
  </g>
</svg>
