<svg xmlns="http://www.w3.org/2000/svg" xmlns:xlink="http://www.w3.org/1999/xlink" width="324" height="324" viewBox="0 0 324 324">
  <defs>
    <style>
      .cls-1 {
        opacity: 0;
      }

      .cls-2 {
        fill: none;
      }

      .cls-3 {
        fill: url(#Degradado_sin_nombre_34);
      }

      .cls-4 {
        fill: url(#Degradado_sin_nombre_34-2);
      }

      .cls-5 {
        fill: url(#Degradado_sin_nombre_34-3);
      }

      .cls-6 {
        fill: url(#Degradado_sin_nombre_34-4);
      }

      .cls-7 {
        fill: url(#Degradado_sin_nombre_34-5);
      }

      .cls-8 {
        fill: url(#Degradado_sin_nombre_34-6);
      }

      .cls-9 {
        fill: url(#Degradado_sin_nombre_34-7);
      }

      .cls-10 {
        fill: url(#Degradado_sin_nombre_34-8);
      }

      .cls-11 {
        fill: url(#Degradado_sin_nombre_34-9);
      }

      .cls-12 {
        fill: url(#Degradado_sin_nombre_34-10);
      }

      .cls-13 {
        fill: url(#Degradado_sin_nombre_34-11);
      }

      .cls-14 {
        fill: url(#Degradado_sin_nombre_34-12);
      }

      .cls-15 {
        fill: url(#Degradado_sin_nombre_34-13);
      }

      .cls-16 {
        fill: url(#Degradado_sin_nombre_34-14);
      }

      .cls-17 {
        fill: url(#Degradado_sin_nombre_34-15);
      }

      .cls-18 {
        fill: url(#Degradado_sin_nombre_34-16);
      }

      .cls-19 {
        fill: url(#Degradado_sin_nombre_34-17);
      }

      .cls-20 {
        fill: url(#Degradado_sin_nombre_34-18);
      }

      .cls-21 {
        fill: url(#Degradado_sin_nombre_34-19);
      }

      .cls-22 {
        fill: url(#Degradado_sin_nombre_34-20);
      }

      .cls-23 {
        fill: url(#Degradado_sin_nombre_34-21);
      }

      .cls-24 {
        fill: url(#Degradado_sin_nombre_34-22);
      }

      .cls-25 {
        fill: url(#Degradado_sin_nombre_34-23);
      }

      .cls-26 {
        fill: url(#Degradado_sin_nombre_34-24);
      }

      .cls-27 {
        fill: url(#Degradado_sin_nombre_34-25);
      }

      .cls-28 {
        fill: url(#Degradado_sin_nombre_34-26);
      }

      .cls-29 {
        fill: url(#Degradado_sin_nombre_34-27);
      }

      .cls-30 {
        fill: url(#Degradado_sin_nombre_34-28);
      }

      .cls-31 {
        fill: url(#Degradado_sin_nombre_34-29);
      }

      .cls-32 {
        fill: url(#Degradado_sin_nombre_34-30);
      }

      .cls-33 {
        fill: url(#Degradado_sin_nombre_34-31);
      }

      .cls-34 {
        fill: url(#Degradado_sin_nombre_34-32);
      }

      .cls-35 {
        fill: url(#Degradado_sin_nombre_34-33);
      }

      .cls-36 {
        fill: url(#Degradado_sin_nombre_34-34);
      }

      .cls-37 {
        fill: url(#Degradado_sin_nombre_34-35);
      }

      .cls-38 {
        fill: url(#Degradado_sin_nombre_34-36);
      }

      .cls-39 {
        fill: url(#Degradado_sin_nombre_34-37);
      }

      .cls-40 {
        fill: url(#Degradado_sin_nombre_34-38);
      }

      .cls-41 {
        fill: url(#Degradado_sin_nombre_34-39);
      }

      .cls-42 {
        fill: url(#Degradado_sin_nombre_34-40);
      }

      .cls-43 {
        fill: url(#Degradado_sin_nombre_34-41);
      }

      .cls-44 {
        fill: url(#Degradado_sin_nombre_34-42);
      }

      .cls-45 {
        fill: url(#Degradado_sin_nombre_34-43);
      }

      .cls-46 {
        fill: url(#Degradado_sin_nombre_34-44);
      }

      .cls-47 {
        fill: url(#Degradado_sin_nombre_34-45);
      }

      .cls-48 {
        fill: url(#Degradado_sin_nombre_34-46);
      }

      .cls-49 {
        fill: url(#Degradado_sin_nombre_34-47);
      }

      .cls-50 {
        fill: url(#Degradado_sin_nombre_34-48);
      }

      .cls-51 {
        fill: url(#Degradado_sin_nombre_34-49);
      }

      .cls-52 {
        fill: url(#Degradado_sin_nombre_34-50);
      }

      .cls-53 {
        fill: url(#Degradado_sin_nombre_34-51);
      }

      .cls-54 {
        fill: url(#Degradado_sin_nombre_34-52);
      }

      .cls-55 {
        fill: url(#Degradado_sin_nombre_34-53);
      }

      .cls-56 {
        fill: url(#Degradado_sin_nombre_34-54);
      }

      .cls-57 {
        fill: url(#Degradado_sin_nombre_34-55);
      }

      .cls-58 {
        fill: url(#Degradado_sin_nombre_34-56);
      }

      .cls-59 {
        fill: url(#Degradado_sin_nombre_34-57);
      }

      .cls-60 {
        fill: url(#Degradado_sin_nombre_34-58);
      }

      .cls-61 {
        fill: url(#Degradado_sin_nombre_34-59);
      }

      .cls-62 {
        fill: url(#Degradado_sin_nombre_34-60);
      }

      .cls-63 {
        fill: url(#Degradado_sin_nombre_34-61);
      }
    </style>
    <linearGradient id="Degradado_sin_nombre_34" data-name="Degradado sin nombre 34" x1="187.41" y1="296.79" x2="187.46" y2="296.79" gradientTransform="translate(-6 -94.03)" gradientUnits="userSpaceOnUse">
      <stop offset="0.05" stop-color="#957e41"/>
      <stop offset="0.21" stop-color="#d8bc63"/>
      <stop offset="0.49" stop-color="#dfc46b"/>
      <stop offset="0.74" stop-color="#c6a95a"/>
      <stop offset="0.98" stop-color="#7a6834"/>
    </linearGradient>
    <linearGradient id="Degradado_sin_nombre_34-2" x1="241.01" y1="365.03" x2="241.01" y2="365.03" xlink:href="#Degradado_sin_nombre_34"/>
    <linearGradient id="Degradado_sin_nombre_34-3" x1="257.26" y1="348.73" x2="258.43" y2="348.73" xlink:href="#Degradado_sin_nombre_34"/>
    <linearGradient id="Degradado_sin_nombre_34-4" x1="269.94" y1="328.32" x2="271.46" y2="328.32" xlink:href="#Degradado_sin_nombre_34"/>
    <linearGradient id="Degradado_sin_nombre_34-5" x1="72.18" y1="312.98" x2="292.09" y2="312.98" xlink:href="#Degradado_sin_nombre_34"/>
    <linearGradient id="Degradado_sin_nombre_34-6" x1="37.31" y1="275.09" x2="178.48" y2="275.09" xlink:href="#Degradado_sin_nombre_34"/>
    <linearGradient id="Degradado_sin_nombre_34-7" x1="169.7" y1="377.16" x2="261.51" y2="377.16" xlink:href="#Degradado_sin_nombre_34"/>
    <linearGradient id="Degradado_sin_nombre_34-8" x1="263.8" y1="363.11" x2="299.91" y2="363.11" xlink:href="#Degradado_sin_nombre_34"/>
    <linearGradient id="Degradado_sin_nombre_34-9" x1="214.57" y1="367.27" x2="218.55" y2="367.27" xlink:href="#Degradado_sin_nombre_34"/>
    <linearGradient id="Degradado_sin_nombre_34-10" x1="127.09" y1="211.1" x2="127.69" y2="211.1" xlink:href="#Degradado_sin_nombre_34"/>
    <linearGradient id="Degradado_sin_nombre_34-11" x1="168.76" y1="232.68" x2="169.07" y2="232.68" xlink:href="#Degradado_sin_nombre_34"/>
    <linearGradient id="Degradado_sin_nombre_34-12" x1="75.76" y1="337.66" x2="76.34" y2="337.66" xlink:href="#Degradado_sin_nombre_34"/>
    <linearGradient id="Degradado_sin_nombre_34-13" x1="117.11" y1="385.7" x2="117.4" y2="385.7" xlink:href="#Degradado_sin_nombre_34"/>
    <linearGradient id="Degradado_sin_nombre_34-14" x1="124.39" y1="366.14" x2="125" y2="366.14" xlink:href="#Degradado_sin_nombre_34"/>
    <linearGradient id="Degradado_sin_nombre_34-15" x1="124.98" y1="365.72" x2="125.27" y2="365.72" xlink:href="#Degradado_sin_nombre_34"/>
    <linearGradient id="Degradado_sin_nombre_34-16" x1="130.11" y1="207.48" x2="130.37" y2="207.48" xlink:href="#Degradado_sin_nombre_34"/>
    <linearGradient id="Degradado_sin_nombre_34-17" x1="158.17" y1="357.84" x2="158.4" y2="357.84" xlink:href="#Degradado_sin_nombre_34"/>
    <linearGradient id="Degradado_sin_nombre_34-18" x1="131.33" y1="256.4" x2="131.6" y2="256.4" xlink:href="#Degradado_sin_nombre_34"/>
    <linearGradient id="Degradado_sin_nombre_34-19" x1="108.59" y1="362.36" x2="109.2" y2="362.36" xlink:href="#Degradado_sin_nombre_34"/>
    <linearGradient id="Degradado_sin_nombre_34-20" x1="108.88" y1="360.61" x2="109.26" y2="360.61" xlink:href="#Degradado_sin_nombre_34"/>
    <linearGradient id="Degradado_sin_nombre_34-21" x1="254.57" y1="349.56" x2="255.03" y2="349.56" xlink:href="#Degradado_sin_nombre_34"/>
    <linearGradient id="Degradado_sin_nombre_34-22" x1="251.56" y1="348.88" x2="252.03" y2="348.88" xlink:href="#Degradado_sin_nombre_34"/>
    <linearGradient id="Degradado_sin_nombre_34-23" x1="249.6" y1="347.06" x2="250.12" y2="347.06" xlink:href="#Degradado_sin_nombre_34"/>
    <linearGradient id="Degradado_sin_nombre_34-24" x1="243.66" y1="334.9" x2="243.93" y2="334.9" xlink:href="#Degradado_sin_nombre_34"/>
    <linearGradient id="Degradado_sin_nombre_34-25" x1="96.01" y1="262.79" x2="96.28" y2="262.79" xlink:href="#Degradado_sin_nombre_34"/>
    <linearGradient id="Degradado_sin_nombre_34-26" x1="100.37" y1="250.35" x2="100.57" y2="250.35" xlink:href="#Degradado_sin_nombre_34"/>
    <linearGradient id="Degradado_sin_nombre_34-27" x1="140.75" y1="245.86" x2="140.95" y2="245.86" xlink:href="#Degradado_sin_nombre_34"/>
    <linearGradient id="Degradado_sin_nombre_34-28" x1="157.1" y1="228.18" x2="157.47" y2="228.18" xlink:href="#Degradado_sin_nombre_34"/>
    <linearGradient id="Degradado_sin_nombre_34-29" x1="158.05" y1="228.49" x2="158.37" y2="228.49" xlink:href="#Degradado_sin_nombre_34"/>
    <linearGradient id="Degradado_sin_nombre_34-30" x1="156.31" y1="228.13" x2="156.51" y2="228.13" xlink:href="#Degradado_sin_nombre_34"/>
    <linearGradient id="Degradado_sin_nombre_34-31" x1="159.21" y1="230.11" x2="159.32" y2="230.11" xlink:href="#Degradado_sin_nombre_34"/>
    <linearGradient id="Degradado_sin_nombre_34-32" x1="158.9" y1="229.21" x2="158.99" y2="229.21" xlink:href="#Degradado_sin_nombre_34"/>
    <linearGradient id="Degradado_sin_nombre_34-33" x1="149.53" y1="238.26" x2="150.14" y2="238.26" xlink:href="#Degradado_sin_nombre_34"/>
    <linearGradient id="Degradado_sin_nombre_34-34" x1="151.29" y1="240.75" x2="151.67" y2="240.75" xlink:href="#Degradado_sin_nombre_34"/>
    <linearGradient id="Degradado_sin_nombre_34-35" x1="150.52" y1="239.46" x2="151.11" y2="239.46" xlink:href="#Degradado_sin_nombre_34"/>
    <linearGradient id="Degradado_sin_nombre_34-36" x1="148.29" y1="237.8" x2="148.5" y2="237.8" xlink:href="#Degradado_sin_nombre_34"/>
    <linearGradient id="Degradado_sin_nombre_34-37" x1="147.08" y1="237.66" x2="147.18" y2="237.66" xlink:href="#Degradado_sin_nombre_34"/>
    <linearGradient id="Degradado_sin_nombre_34-38" x1="275.07" y1="314.03" x2="275.4" y2="314.03" xlink:href="#Degradado_sin_nombre_34"/>
    <linearGradient id="Degradado_sin_nombre_34-39" x1="144.3" y1="248.48" x2="144.5" y2="248.48" xlink:href="#Degradado_sin_nombre_34"/>
    <linearGradient id="Degradado_sin_nombre_34-40" x1="144" y1="248.35" x2="144.3" y2="248.35" xlink:href="#Degradado_sin_nombre_34"/>
    <linearGradient id="Degradado_sin_nombre_34-41" x1="125.87" y1="337.94" x2="126.16" y2="337.94" xlink:href="#Degradado_sin_nombre_34"/>
    <linearGradient id="Degradado_sin_nombre_34-42" x1="236.84" y1="330.07" x2="238.43" y2="330.07" xlink:href="#Degradado_sin_nombre_34"/>
    <linearGradient id="Degradado_sin_nombre_34-43" x1="233.09" y1="324.43" x2="233.37" y2="324.43" xlink:href="#Degradado_sin_nombre_34"/>
    <linearGradient id="Degradado_sin_nombre_34-44" x1="250.49" y1="309.1" x2="251.7" y2="309.1" xlink:href="#Degradado_sin_nombre_34"/>
    <linearGradient id="Degradado_sin_nombre_34-45" x1="247.16" y1="310.94" x2="248.36" y2="310.94" xlink:href="#Degradado_sin_nombre_34"/>
    <linearGradient id="Degradado_sin_nombre_34-46" x1="258.64" y1="310.08" x2="259.51" y2="310.08" xlink:href="#Degradado_sin_nombre_34"/>
    <linearGradient id="Degradado_sin_nombre_34-47" x1="256.33" y1="307.9" x2="256.72" y2="307.9" xlink:href="#Degradado_sin_nombre_34"/>
    <linearGradient id="Degradado_sin_nombre_34-48" x1="249.69" y1="306.24" x2="250" y2="306.24" xlink:href="#Degradado_sin_nombre_34"/>
    <linearGradient id="Degradado_sin_nombre_34-49" x1="113.92" y1="222.12" x2="114.31" y2="222.12" xlink:href="#Degradado_sin_nombre_34"/>
    <linearGradient id="Degradado_sin_nombre_34-50" x1="112.7" y1="222.41" x2="113.11" y2="222.41" xlink:href="#Degradado_sin_nombre_34"/>
    <linearGradient id="Degradado_sin_nombre_34-51" x1="116.61" y1="223.22" x2="117.07" y2="223.22" xlink:href="#Degradado_sin_nombre_34"/>
    <linearGradient id="Degradado_sin_nombre_34-52" x1="117.59" y1="224.35" x2="118.09" y2="224.35" xlink:href="#Degradado_sin_nombre_34"/>
    <linearGradient id="Degradado_sin_nombre_34-53" x1="115.65" y1="222.07" x2="115.85" y2="222.07" xlink:href="#Degradado_sin_nombre_34"/>
    <linearGradient id="Degradado_sin_nombre_34-54" x1="183.85" y1="294.42" x2="184.66" y2="294.42" xlink:href="#Degradado_sin_nombre_34"/>
    <linearGradient id="Degradado_sin_nombre_34-55" x1="184.39" y1="292.33" x2="184.52" y2="292.33" xlink:href="#Degradado_sin_nombre_34"/>
    <linearGradient id="Degradado_sin_nombre_34-56" x1="134.96" y1="321.5" x2="135.29" y2="321.5" xlink:href="#Degradado_sin_nombre_34"/>
    <linearGradient id="Degradado_sin_nombre_34-57" x1="238.48" y1="275.6" x2="238.86" y2="275.6" xlink:href="#Degradado_sin_nombre_34"/>
    <linearGradient id="Degradado_sin_nombre_34-58" x1="190.19" y1="292.62" x2="190.97" y2="292.62" xlink:href="#Degradado_sin_nombre_34"/>
    <linearGradient id="Degradado_sin_nombre_34-59" x1="188.41" y1="296.85" x2="188.7" y2="296.85" xlink:href="#Degradado_sin_nombre_34"/>
    <linearGradient id="Degradado_sin_nombre_34-60" x1="106.8" y1="236.26" x2="107.75" y2="236.26" xlink:href="#Degradado_sin_nombre_34"/>
    <linearGradient id="Degradado_sin_nombre_34-61" x1="192.29" y1="253.6" x2="192.62" y2="253.6" xlink:href="#Degradado_sin_nombre_34"/>
  </defs>
  <title>EL CONEJO</title>
  <g id="Capa_2" data-name="Capa 2">
    <g id="Capa_1-2" data-name="Capa 1">
      <g id="Capa_1-2-2" data-name="Capa 1-2">
        <g>
          <g class="cls-1">
            <rect class="cls-2" width="324" height="324"/>
          </g>
          <g id="Capa_1-2-2-2" data-name="Capa 1-2-2">
            <g>
              <polygon class="cls-3" points="181.46 202.76 181.4 202.76 181.4 202.76 181.46 202.76"/>
              <polygon class="cls-4" points="235.01 271.01 235.01 270.99 235.01 270.98 235.01 271.01"/>
              <path class="cls-5" d="M251.64,255.05a.48.48,0,0,0,.37.2c.28,0,.39-.23.39-.54h0a.4.4,0,0,0-.34-.33.41.41,0,0,0-.37-.23h0a.46.46,0,0,0-.42.47h0A.46.46,0,0,0,251.64,255.05Z"/>
              <path class="cls-6" d="M264.34,234.81a.78.78,0,0,0,.54.21.61.61,0,0,0,.54-.65.17.17,0,0,0,0-.14.55.55,0,0,0-.37-.42.53.53,0,0,0-.57-.25h-.12a.6.6,0,0,0-.44.71h0A.54.54,0,0,0,264.34,234.81Z"/>
              <path class="cls-7" d="M259.5,272.19h0a7.23,7.23,0,0,0,2-1.15l-.15-.25h0a2.26,2.26,0,0,1,.16.26,1.58,1.58,0,0,0,.92-.64h0a2.67,2.67,0,0,0,1.15-.87,3.82,3.82,0,0,0,1.52-1.24h0a4,4,0,0,0,1.22-1.14.14.14,0,0,0,0-.09,2.58,2.58,0,0,0,1.08-1h0a2.22,2.22,0,0,0,.91-.91h0a1.48,1.48,0,0,0,0-.42l.07-.07a4,4,0,0,1,0,.49c1.39-1.51,3-2.84,4.24-4.48a.5.5,0,0,0-.24-.19h0a.5.5,0,0,1,.24.19,3.31,3.31,0,0,0,1.31-1.46h0l.22-.3a.58.58,0,0,0-.12-.25h0a.68.68,0,0,1,.12.26,7.36,7.36,0,0,0,1.4-1.55h.06l1.51-1.84a1.38,1.38,0,0,0-.17-.25h0a1.38,1.38,0,0,1,.17.25c.34-.16.47-.54.63-.86h0a4.23,4.23,0,0,0,1.24-1.45,2.28,2.28,0,0,0,.87-1.14H280a1.62,1.62,0,0,0,.87-1.13h0a20.9,20.9,0,0,0,3.09-5.36c-.05-.09-.09-.18-.13-.27a.66.66,0,0,0,.09.19,1.88,1.88,0,0,0,.52-1.14h0v-.3a.74.74,0,0,1-.2-.23h0l.16.17a.63.63,0,0,0,.26-.54h0l.06-.28a.86.86,0,0,1-.2-.26h0a1.71,1.71,0,0,0,.18.2,1,1,0,0,0,.29-.8h0l-.17-.24h0l.18.27a1.46,1.46,0,0,0,.28-1.21h0a.23.23,0,0,0,0-.25.49.49,0,0,0-.18-.14h0a.49.49,0,0,1,.18.2,1.1,1.1,0,0,0,.22-.89h0a11,11,0,0,0,.38-3.28l-.2-.54h0l.17.48a3.71,3.71,0,0,0,0-2.78,1.37,1.37,0,0,0-.08.35v.09h-.08v-.08h0a.62.62,0,0,0,0-.38.39.39,0,0,0,0-.26h0a.28.28,0,0,0,0-.28l-.08.06v-.09h.08v-.59a10.87,10.87,0,0,0-.27-3c0-.43.1-.87-.29-1.15h0a22.68,22.68,0,0,0-1.79-6.4h0v-.07a7.19,7.19,0,0,0-.88-2.38,16.85,16.85,0,0,0-1.15-2.82c-.2-.46-.42-.9-.63-1.36a14.4,14.4,0,0,0-1-2c-.3-.59-.63-1.15-.95-1.72a10.82,10.82,0,0,0-.84-1.48c-.11-.19-.24-.37-.37-.57s-.2-.72-.54-.93a2.4,2.4,0,0,0-.7-1l-.11-.19h0a1.16,1.16,0,0,0-.58-.95l-.07.08h0a4.74,4.74,0,0,0-.79-1l-.11-.13h0a3.36,3.36,0,0,0-1.22-1.56h0l-.7-.84a1.11,1.11,0,0,0-.39-.47l-.39-.47-.18-.22a1.81,1.81,0,0,0-.29-.33q-3.1-3.54-6.1-7.16l-.16-.21c-1-1.14-2-2.39-3-3.6a2.76,2.76,0,0,0-.37-.46l-.25-.33V190l-.26-.36a7.9,7.9,0,0,0-1.15-1.49h0l-.14-.21a2.51,2.51,0,0,0-.68-1c-.07-.13-.15-.23-.22-.36a19.7,19.7,0,0,0-1.81-3.11h0a9.14,9.14,0,0,0-1.46-2.44h0l-.18-.28a3.85,3.85,0,0,0-.47-.74l-.17-.24h0a15.28,15.28,0,0,0-2.11-3.24l-.78-1.13a13.89,13.89,0,0,0-1.14-1.69c-.38-.54-.78-1.06-1.15-1.58s-.54-.77-.85-1.15-.41-.54-.62-.84l-.77-1a1.33,1.33,0,0,0-.23-.3A32.88,32.88,0,0,0,236,159.6a123.62,123.62,0,0,1-13-6.86,42.18,42.18,0,0,0-9.18-4.29c-13.43-4.38-26.91-4.13-40.44-.48a50.68,50.68,0,0,0-11,4.59,6.58,6.58,0,0,0-3.24,3.6c-.37,1.14-.74,2.29-1.14,3.43a22.34,22.34,0,0,1-8.83,11.19,36.93,36.93,0,0,1-6.28,3.24c-4.4,1.87-8.91,3.3-13.5,4.82a25.68,25.68,0,0,0-9.89,5.34,40.39,40.39,0,0,0-10.8,16q-1.81,5.36-3.59,10.7a48.45,48.45,0,0,1-16.2,23A108.53,108.53,0,0,1,75.5,243c-2.16,1.23-4.32,2.57-6.39,4a8.91,8.91,0,0,0-2,1.86,4.39,4.39,0,0,0-.36,5A9.72,9.72,0,0,0,68.44,256a12.39,12.39,0,0,1,2.94,4.32,32.36,32.36,0,0,0,10.3,14,13.87,13.87,0,0,0,1.15.87,1.1,1.1,0,0,0,.25.17l.54.31a.26.26,0,0,0,.16.09l.22.11a.57.57,0,0,0,.43.2h0a.63.63,0,0,0,.61.29h0l.38.13h.1a20.16,20.16,0,0,0,5.86,1.08h0a30.54,30.54,0,0,0,5.72.63h0s0,.06-.08.07a19.8,19.8,0,0,0,5,.28v-.06h.27v-.15h0v.13a13.12,13.12,0,0,0,5.13-.57h0a1.36,1.36,0,0,0,1.23-.25l-.07-.07h.35l.14-.11h0l-.17.13h.3a11.4,11.4,0,0,0,3.74-1.38.49.49,0,0,0,0-.24h0a.57.57,0,0,1,0,.26l1.49-.74h0a.28.28,0,0,0,.26-.21h0a12.47,12.47,0,0,0,3.55-2.7h.08l.31-.3.29-.3.28-.31-.07-.12v-.06a1.06,1.06,0,0,0,.11.21,5.07,5.07,0,0,0,1.53-3.24h0a2.52,2.52,0,0,0,0-2.21,5.4,5.4,0,0,0-.09,1.27h0v-1.3c0-1.14,0-1.14.74-1.34a.75.75,0,0,1,.23.58V268a8,8,0,0,1-3,6.19,23.14,23.14,0,0,1-3.92,2.81,41.53,41.53,0,0,1-17.17,5.15c-1.82.12-3.63-.07-5.44-.07a4.29,4.29,0,0,0-3.43,1.31c-1,1.14-2.06,2.07-3.09,3.1-.36.36-.7.74-1,1.14-.72.93-.62,1.56.33,2.29a4,4,0,0,0,1,.57,3.91,3.91,0,0,0,1.56.46l2.08.54a3.38,3.38,0,0,0,1.43.38l.75.1h0a2,2,0,0,0,2.11,0v-.05h0V292h.34l.07-.13h0a2.77,2.77,0,0,0,1.35-.35l.06-.14h0a.89.89,0,0,0-.07.28,10.6,10.6,0,0,0,3-1.82c.39-.45.93-.5,1.4-.72h.34a1.63,1.63,0,0,1-1.08.54,1.14,1.14,0,0,0-.9,1.08,1.52,1.52,0,0,0,.58,1.3,2,2,0,0,0,1.52.54,22.45,22.45,0,0,0,4.18,0,5.49,5.49,0,0,0,2.7-.23.17.17,0,0,0,0-.1h0a.2.2,0,0,1,0,.11h.63a6.69,6.69,0,0,0,2.7-.32h.31c.09-.15.19-.16.25-.06l4.86-.89.13-.16h.07l-.17.21a.88.88,0,0,0,.9-.22h0c2.93-.2,5.85-.49,8.74-1h.33a1,1,0,0,0,1-.21h.49a5.81,5.81,0,0,0,3.36-1.14h0a2.78,2.78,0,0,0,1.5-2.16h0a.25.25,0,0,0,.19-.29h-.07a.29.29,0,0,0,.07-.25.71.71,0,0,0-.15-.15h0a.58.58,0,0,1,.17.18l1.74-2.19a.66.66,0,0,0-.09-.19h0a.88.88,0,0,1,.09.2l.27-.14a.4.4,0,0,1,.07-.28h0a.43.43,0,0,0-.08.29.53.53,0,0,0,.58-.27l.62-.33a1.63,1.63,0,0,1-.11-.23h0a1.63,1.63,0,0,0,.11.23,1.3,1.3,0,0,0,.92-.54h0a.47.47,0,0,0,.39-.24h0a.17.17,0,0,0,.19-.09v-.4h0a2.7,2.7,0,0,0-.07.41,4.61,4.61,0,0,0,1.52-1.14c-.09,0-.15-.1-.22-.19h0c0,.09.13.17.21.17h0a.34.34,0,0,0,.32-.3.72.72,0,0,0-.19.11.49.49,0,0,1,.21-.14h0a.9.9,0,0,0,.54-.54v-.3h0v.36a1.34,1.34,0,0,0,.65-.59h0a1.38,1.38,0,0,0,.58-.66h0a4.67,4.67,0,0,0,1.52-1.78h0a1.91,1.91,0,0,0,.81-1,3.43,3.43,0,0,0,1-1.44.33.33,0,0,0-.27-.12h0a.3.3,0,0,1,.25.12,2.36,2.36,0,0,0,.72-.93h0l.72-1.14a.36.36,0,0,0,.25-.37h0a1.41,1.41,0,0,0,.59-.87h0c.82-1.14,1.62-2.4,2.44-3.55a.71.71,0,0,0,0-.29h0a.86.86,0,0,1,0,.32,1.86,1.86,0,0,0,.82-1h0l.36-.54V266h0v.42a2.25,2.25,0,0,0,.93-1.21c-.09,0-.15,0-.2-.14h0a.23.23,0,0,0,.2.14,1.92,1.92,0,0,0,.78-1h0L152,264l2.29-2.7-.13-.07h0l.18.09a.31.31,0,0,0,.28-.31h0a38.72,38.72,0,0,0,3-2.91.92.92,0,0,0,.07-1.3h0l-.07-.06v-.08a.93.93,0,0,0-1.27-.21l-2.46,1.49a45.53,45.53,0,0,1-9.1,4.55,12.23,12.23,0,0,1-4.32.7,3.78,3.78,0,0,1-.89-.08,1.75,1.75,0,0,1-.32-.12.44.44,0,0,1-.11-.33c0-.41.44-.45.78-.51.92-.18,1.83-.39,2.74-.58a1.66,1.66,0,0,0,1.29-.15h.72a1.91,1.91,0,0,0,1.24-.22h0a1.94,1.94,0,0,0,1.14-.37.71.71,0,0,0-.09-.63h0a1.4,1.4,0,0,1,.1.16,16.56,16.56,0,0,0,4.58-2.05h0a3,3,0,0,0,1.45-.85.56.56,0,0,0-.1-.15.52.52,0,0,1,.14.19,1.66,1.66,0,0,0,.88-.54h0a30.47,30.47,0,0,0,5.72-4.32l-.17-.17h.07l.12.12a1.11,1.11,0,0,0,.66-.54h0a12.69,12.69,0,0,0,1.81-1.78.25.25,0,0,1-.08-.1h0a.79.79,0,0,0,.12.15,9.36,9.36,0,0,0,1.74-1.87h0a3.7,3.7,0,0,0,.91-1.14h0a1.94,1.94,0,0,0,.6-.91h0a4.56,4.56,0,0,0,1.15-1.83h0a25.94,25.94,0,0,0,1.91-5.06l-.09-.22h0l.09.22a3.05,3.05,0,0,0,.54-1.57l-.26.1h0l.26-.1a37.7,37.7,0,0,0,1.73-7,17.08,17.08,0,0,0,.38-4.78h0v-.61h0a16.92,16.92,0,0,0,0-3h-.06v-.3a.69.69,0,0,1-.1-.19h0a.72.72,0,0,0,.15.27,2.35,2.35,0,0,0-.22-1.52h0a4.35,4.35,0,0,0-.61-2.16h0v-.08a.24.24,0,0,0-.11-.23L170,218h0l-.1-.09h0a1.47,1.47,0,0,0-2.06.15l-.2.18a1.39,1.39,0,0,0,0,1.95c.54.69.21,1-.27,1.31a1.53,1.53,0,0,1-1.84-.12,2.37,2.37,0,0,1-.47-.48l-.09-.12a.46.46,0,0,0-.09-.27l-.09-.16v-.08l-.07-.11a8.77,8.77,0,0,1,0-1.62c.45-2.29,3.83-4,6-3.16a4.12,4.12,0,0,1,1.81,2.29,12.16,12.16,0,0,1,.37,1.31,19.07,19.07,0,0,1,.37,5.11c-.11,3.11-.21,6.24-.45,9.34A40.17,40.17,0,0,1,170,245.7a35.66,35.66,0,0,1-15.12,17.44,10.63,10.63,0,0,0-3,2.75c-.24.32-.39.66,0,.85a.58.58,0,0,0,.39.29l2.85.87H156a1.41,1.41,0,0,1-.41,0h-.34c.77.54,1.62.22,2.44.22l-.12-.21h0l.06.12a41.3,41.3,0,0,0,4.84.35l.18-.05h.11l-.24.09a9.12,9.12,0,0,0,2.38.34l4.58.38a102.45,102.45,0,0,0,10.8.48.48.48,0,0,0-.08-.16h0a.77.77,0,0,1,.07.16h.27l-.05.1H181v-.31h.11v.14a8.62,8.62,0,0,0,2.38.13h0a88.69,88.69,0,0,0,9.36-.41v-.14h0v.15h1.52a.61.61,0,0,0,0-.19h0a.81.81,0,0,1,0,.22,62.11,62.11,0,0,1,7.46.69h.19a8.85,8.85,0,0,0,1.81.64.76.76,0,0,0,1-.23h0a.9.9,0,0,0-.13-1.15,2.26,2.26,0,0,0-.87-.72,5.9,5.9,0,0,0-1.14-.78,17.76,17.76,0,0,1-4.86-3.66l-2.32-2.78c-.31-.37-.6-.76-.91-1.15a4.4,4.4,0,0,0-.84-.83c-.34-.37-.68-.74-1.08-1.14a18.86,18.86,0,0,1-2.09-2.29l-.81-1.15a26.23,26.23,0,0,1-2.92-6.9,1.73,1.73,0,0,0-.28-1.21h0a2.56,2.56,0,0,0-.31-1.49h0a33.09,33.09,0,0,0-.6-4.86l-.09.07h0l.09-.07-.07-.87h0v-7.77h0A29.64,29.64,0,0,0,186,228v.09a1.56,1.56,0,0,0,.35-1.25.72.72,0,0,1-.28.13h0a.67.67,0,0,0,.23-.1l.06-.54a16.64,16.64,0,0,0,.84-3.68h.07a.63.63,0,0,0,.21-.54h0l.13-.91h0a23.59,23.59,0,0,0,1.14-4,.56.56,0,0,0,.22-.54h0c.22-.62.44-1.14.68-1.77a1.54,1.54,0,0,0-.19-.17h0a.64.64,0,0,1,.15.13.62.62,0,0,0,.25-.63.7.7,0,0,1-.19-.06h.19a13.45,13.45,0,0,0,.93-2.09h0c.41-.7.81-1.41,1.21-2.12a.29.29,0,0,0,.21-.29.45.45,0,0,0,.12-.26v-.29h0v.3a.4.4,0,0,0,.28-.35h0a37.5,37.5,0,0,1,4.32-4.76l-.19-.06.07-.07h.14a23.4,23.4,0,0,0,2.93-2.11h0a.34.34,0,0,0,.28,0v-.34h0v.34a.42.42,0,0,0,.35-.25h0c2.05-.93,4.14-1.74,6.26-2.46a3.57,3.57,0,0,0,1.51-.33h0l3.33-.59a.62.62,0,0,1,0-.27h0a.57.57,0,0,0,0,.26h4.51a.61.61,0,0,0,.27,0h0c.36.32.8.22,1.22.22v-.09h0v.07a.41.41,0,0,0,.24.08.1.1,0,0,0,.08-.07h0l-.1.08c.26.28.5.18.74.08l.54.22c.2.3.58.3.86.43a13.92,13.92,0,0,1,2.62,1.44l.28.24a.6.6,0,0,1,0,.49c-.16.47-.9.18-1.38.18-3.2-.28-6.42-.51-9.61-.87a12.88,12.88,0,0,0-7.63,1.14,23.38,23.38,0,0,0-10.2,9.75c-1.41,2.67-2.7,5.4-3.95,8.15a34.29,34.29,0,0,0-3.15,12.5,32.49,32.49,0,0,0,3.16,16.2,47.64,47.64,0,0,0,3.65,6.21l.1.15c.32.46.66.92,1,1.37a27,27,0,0,0,3.68,4.32c.94,1,1.91,1.89,2.94,2.79a.63.63,0,0,0,.12.11l.61.51a10.94,10.94,0,0,0,1.29,1.05h0a9.58,9.58,0,0,0,1.69,1.27c.15.1.3.22.46.31a.29.29,0,0,0,.27.21h0a.06.06,0,0,1,0,.06,18.33,18.33,0,0,0,4.91,2.08,2.15,2.15,0,0,1,.65.84,40.3,40.3,0,0,0,4.93,7,20.15,20.15,0,0,0,2.23,2.2,18.71,18.71,0,0,0,6.93,4.14,12.29,12.29,0,0,0,3.63,1.24h0a.33.33,0,0,0,.27.09h0a16.13,16.13,0,0,0,5.45,1.14,10.78,10.78,0,0,0,4.86,0v-.22h0a.81.81,0,0,0,0,.22h.29a12.94,12.94,0,0,0,5.11-1.25l-.26-.13h0l.25.12h0a11,11,0,0,0,4.23-.88h0a10.49,10.49,0,0,0,3.13-1.35,4.87,4.87,0,0,0,1.57-1.59c.95-1.43,1-2.16.34-2.62a2.18,2.18,0,0,0-1.34-.71c-1.89-.46-3.8-.89-5.72-1.27a21.16,21.16,0,0,1-8.33-3.74,2,2,0,0,1-.47-.45,3.41,3.41,0,0,1-.3-2.74h0a.25.25,0,0,0,.24,0,.21.21,0,0,1,.13-.13l.2.09c.21.13.42.27.62.42.57.41,1.16.79,1.77,1.15h0a.77.77,0,0,0,.61.33h0c.22.12.44.26.66.37h0c.48.28.94.58,1.43.82a15.77,15.77,0,0,0,5.5,1.85h0a1.73,1.73,0,0,0,1.14.22h0a8.18,8.18,0,0,0,2.42,0l-.13-.24h0l.11.23h.38a2.4,2.4,0,0,0,1.51-.26l-.11-.24h0l.1.23a1.64,1.64,0,0,0,1.21-.31h0A8.51,8.51,0,0,0,259.5,272.19Zm-91.68-11.77c-.12,1.46-.25,2.92-.38,4.36a2.9,2.9,0,0,1-.2.87h0a.47.47,0,0,1-.54.3,15.55,15.55,0,0,1,.43-3.78,7.34,7.34,0,0,0,.17-1.54v.08c.31-.35.17-1,.49-1.29A1.24,1.24,0,0,1,167.82,260.42Zm-1.45,4.32v-.1h0Zm25.74-20.41a5.06,5.06,0,0,1,2.38.24,3.8,3.8,0,0,1,.77.54h0a9.1,9.1,0,0,0-3.44.38,1.35,1.35,0,0,1-.69.12c-.09-.81.1-1.12,1-1.25Zm.71-21.31.12.16h0Zm2.94-5h0a1.44,1.44,0,0,1,.18-.88,1.27,1.27,0,0,0,0-.39h0a1,1,0,0,1,0,.34c.61-.4,1.23,0,1.83,0h0l.85.33a6.47,6.47,0,0,1,2.55,2.29h.09a3.17,3.17,0,0,1-.87-.14,8,8,0,0,0-4.21-1.43h-.29ZM91.41,240.37h0a1.86,1.86,0,0,1,.41.17,1.36,1.36,0,0,1,.24.24c.33.44.63.9.92,1.37A14.67,14.67,0,0,1,94.81,246l-.08.07c0,.09.12.16.17.24a.06.06,0,0,1,0,.06c0-.09-.14-.15-.19-.26a3.31,3.31,0,0,1-.52-.38l-1.68-1.81a13.84,13.84,0,0,0-1.65-1.77h0c-.13-.71-.13-1.33.58-1.74Zm3.09-2h.06A8.73,8.73,0,0,1,96,240.33c.49.82.95,1.62,1.41,2.46h0l.19.36a11.91,11.91,0,0,1-1.67-.94l-.75-.54-.19-.15a.32.32,0,0,0-.26-.23h0A6.3,6.3,0,0,0,93.59,240v.09l-.17-.25c-.25-1.14-.19-1.14.88-1.53Zm11.44,31.16v0ZM78.47,248.64l-.21-.07h0l.21.07h.81a1.88,1.88,0,0,1,.41.66,35.06,35.06,0,0,1,2,7.05c-.31-.35-.59-.71-.89-1.08a.1.1,0,0,0-.07-.09l-.17-.21a1.56,1.56,0,0,0-.59-.88h0c-.13-.2-.27-.4-.39-.6a1,1,0,0,0-.15-.24v-.1a1.39,1.39,0,0,0-.38-.81v0h0l-.86-2.12h0a2.19,2.19,0,0,1,.31-1.58Zm7.81-3.78a1.87,1.87,0,0,1,.37.47,39.89,39.89,0,0,1,2.65,6.83A15.33,15.33,0,0,1,88.16,251a.73.73,0,0,0-.26-.29h0A25.58,25.58,0,0,1,85.43,247a1.74,1.74,0,0,1,0-2.12H86a.24.24,0,0,1,0-.12,1.09,1.09,0,0,1,.23.14Zm10.6-9a.85.85,0,0,1,1-.16l.21.2a9.73,9.73,0,0,1,1,1.29l3.24,4.79-.25.26a17.77,17.77,0,0,1-1.79-1.3.84.84,0,0,0-.31-.25,19,19,0,0,1-3.29-3.59,1,1,0,0,1,.16-1.24ZM149,234.18a2.4,2.4,0,0,1-1.14-.31,4.31,4.31,0,0,1-.37-.37l-.09-.11a3.28,3.28,0,0,1,.89-2.66.81.81,0,0,0,0-.22h.09v.28a3.46,3.46,0,0,1,1.9-.3,2.08,2.08,0,0,1,1.15,2h0a2,2,0,0,1-2.22,1.71h0l-.26-.06ZM103.45,268c0,.69-.46.82-.87,1a1.55,1.55,0,0,1-1.58.1l-.15-.14a.28.28,0,0,0,0-.18l-.06-.06a.22.22,0,0,0-.18-.19h0c-.57-.91-.54-1.44.27-2.46.41-.54,1-.61,1.86-.32a3.2,3.2,0,0,1,.61.37c.31.22.12.41,0,.58h-.09v.07c0,.58-.58.2-.94.46a.72.72,0,0,0,.27.15.8.8,0,0,0-.27.18h.9a.49.49,0,0,1,.21.4Zm11-19.92a1.15,1.15,0,0,1,0-.37ZM262.86,240l-.32-.28-.47-.47h0a.51.51,0,0,0-.36-.35l-.45-.39-.26-.23-.49-.39a1.33,1.33,0,0,0-.49-.39l-.54-.38a2.76,2.76,0,0,0-.58-.38,19.89,19.89,0,0,0-3.72-1.86v-.51h0c1.23.11,2.16-.71,3.32-.93l.07-.16a.28.28,0,0,1-.08.2c1.08-.28,2.16.07,3.24-.23a4.48,4.48,0,0,0-.44-.2h.07c-2.36-1.29-4.58-.16-7,0l.42-.19.27-.32h0a15.76,15.76,0,0,0,5.47-4.89,5.11,5.11,0,0,1,4.46-1.41v-.09h0a7.62,7.62,0,0,1,.76.44,3.68,3.68,0,0,1,1.39,2,1.8,1.8,0,0,0,.63,1v.22h0c.31.42.73.32,1.15.3a5.94,5.94,0,0,1,1.39,10.8,5.4,5.4,0,0,1-6.38,0,7.56,7.56,0,0,1-1-.78Zm-19.81-6.35v.18a25.73,25.73,0,0,1-3.68-.72,7.93,7.93,0,0,0-3.87.16,2.12,2.12,0,0,0-1.53,1.21h0l.54-.25a5.44,5.44,0,0,0-.28.66l2.29-1-.21-.2h0l.16.15a13.78,13.78,0,0,1,4.82.66l.45.18a39.16,39.16,0,0,0-4.23,2.29q-2.22,1.58-4.27,3.33a6.13,6.13,0,0,1-4.58,1.57,5.92,5.92,0,0,1-3.91-1.77,6.23,6.23,0,0,1-.79-6.4,7.24,7.24,0,0,1,2.2-2.59c0-.1.11-.19.15-.29a1.9,1.9,0,0,0,.7-.41h0l.16-.07a.16.16,0,0,1,.1.08,7.55,7.55,0,0,1,1.14-.27c.79,0,1-.44.94-1.14h0a8,8,0,0,1,.54-1.15h0l.37-.33a3.8,3.8,0,0,1,.79-.65,3.84,3.84,0,0,1,4.75.54c.14.15.25.31.37.45a1.74,1.74,0,0,1,.18.22c.41.52.79,1.05,1.2,1.55a12.79,12.79,0,0,0,3.51,3.21v-.09l.16.08c.38.39,1,.5,1.42.81h0A1.13,1.13,0,0,1,243.05,233.64ZM232.65,279c.19-.88.35-1,1.32-1.14a.81.81,0,0,1,.35.72.89.89,0,0,1-.88.83h0a1.17,1.17,0,0,1-.85-.41Zm-95.08-41.9h-.14a1.08,1.08,0,0,1-.3-.11l-.17-.21h-.07c0-.9.09-1.8-.95-2l-.19-.12a4.49,4.49,0,0,1-1.3-1h0a.26.26,0,0,0-.07-.11,3,3,0,0,1,1.27-3.29v-.4h0v.39c.47-.09.73-.32.58-.85l-.36.2h0l.33-.17v-.91a4.39,4.39,0,0,1,2.43-1.56h1.42a.43.43,0,0,0,0-.16h0v.16h.57a.37.37,0,0,0,.24.1h0a2.57,2.57,0,0,0,1.08.48,14.71,14.71,0,0,1,1.76,1.14l.39.3.28.2a1,1,0,0,1,.37.82c-.66.17-1.15-.28-1.71-.43a1.9,1.9,0,0,0-1.72.09l.52.16-.18.07a3.9,3.9,0,0,0,1.41.42h0c.28.12.59.21.87.33a2.7,2.7,0,0,1,.34.25c.28.34.28.68-.25.75a9.24,9.24,0,0,1-1.49.07h-1.76c-.23,0-.54-.1-.6.3s.18.44.41.47a.44.44,0,0,0,.34.16,3.87,3.87,0,0,0,.89.11h3.05c-.43.91-1.31.89-2.08,1a4.9,4.9,0,0,0-2.41.54,2.39,2.39,0,0,0,.43.2c.64.64,1.28.38,1.92.22a5.32,5.32,0,0,1,2-.46h0c-1.26,2.6-4.79,3.42-7.23,2.93ZM129.68,278a1.16,1.16,0,0,1-.07-.37,1.54,1.54,0,0,0,.49-1h0l.07-.24h0a.66.66,0,0,0,.29-.6l-.2-.06h-.08v-.06a.64.64,0,0,0,.24.1,8.31,8.31,0,0,0,.93-3.27h0c.31-.31.17-.66.35-1.15s.48-.83,1-.69l.11.05a1,1,0,0,1,.11.72A12.38,12.38,0,0,1,129.6,278ZM116.25,203.9h.23a1.18,1.18,0,0,0,1,.25h0l.3.09h0a9.22,9.22,0,0,0,2.16.75c.72.3,1.43.62,2.12,1h0a32.34,32.34,0,0,1-5.73-.38,3,3,0,0,1-.71-.18.89.89,0,0,1-.34-.23l-.19-.42h0v-.1a.77.77,0,0,1,.15-.49Zm69.21-40.05h0a1.74,1.74,0,0,1-.11.18Zm-.09.18h0c.79-.18,1.44.63,2.29.15l-.49-.2h0l-1-.44-.21-.07-.22-.09h0v-.61l-.08-.14h0l.08.14a9.82,9.82,0,0,0,2.7-.2h.18c-1.08-.85-2.09-.46-3.09-.59v-.3h0a.5.5,0,0,0,.54-.34h1.49a.28.28,0,0,0-.11-.13.28.28,0,0,1,.11.13c.3,0,.79.1.79-.19a.35.35,0,0,0-.28-.4h-.13c-.88-.3-1.62.3-2.34.25a1.74,1.74,0,0,1,.19-.54h0l.28-.3h0l.27-.28.32-.27h0a5.69,5.69,0,0,1,3.14-.64,2.1,2.1,0,0,1,1,.18.34.34,0,0,1,.08.29c-.16.82.49,1,1,1.31a1.78,1.78,0,0,1,.54.45,1.69,1.69,0,0,1-.29,2.36,1.76,1.76,0,0,0-.75,1.31c-.05.89-1.5,1.52-2.7,1.33a7,7,0,0,1-2.29-1,6.29,6.29,0,0,1-.89-1.21Zm48.36,12.7V177c.62-.54,1.68,0,2.28-.77a1.82,1.82,0,0,0-.4-.11h0c-.66-.45-1.24.28-1.86.1a3.08,3.08,0,0,1,2.74-1.62,3.7,3.7,0,0,1,.94,0,8,8,0,0,1,.85.9.11.11,0,0,1,0,.08,1.15,1.15,0,0,0,.46.54c.19.28.4.54.57.83a.19.19,0,0,1,0,.15,6.3,6.3,0,0,1-1.74,2.92,2.27,2.27,0,0,1-2.7-.22l-.58-.33a2.24,2.24,0,0,1-.57-.62h0c.54-.18,1,.44,1.68.21a1,1,0,0,0-.58-.43,2.69,2.69,0,0,0-.48-.24c-.41-.24-.14-.46,0-.68h0a5.48,5.48,0,0,0,1.76-.11,3.82,3.82,0,0,0-.57-.11,1.14,1.14,0,0,0,.34-.15c-.72-.41-1.48-.13-2.21-.26v-.27a.27.27,0,0,1,.07-.08ZM270,247.32h0a2.38,2.38,0,0,1-1.81-.54,1,1,0,0,1,.17-.18,4.34,4.34,0,0,1,.54.09l.93.46Zm-92.34,1.12A2.84,2.84,0,0,0,178,247v-.3a.7.7,0,0,0,.07.37,4.48,4.48,0,0,0,.54-1.88.64.64,0,0,0-.08-.14v-.38a35.74,35.74,0,0,1,.54,6,1.5,1.5,0,0,1,0,.3c0,1-.54,1.5-1.15,1.41a1,1,0,0,1-.54-.26v-2h0a.21.21,0,0,0,.07-.21h0a1.8,1.8,0,0,0,.23-1.3,1.26,1.26,0,0,1-.24.22v-.25Zm-48.15,28.62v0h0Zm-22.89-53a2,2,0,0,1,1.08.07,27,27,0,0,1,4.57,4h0a39,39,0,0,1-5.65-2.59,1.69,1.69,0,0,1-.31-.21,1.29,1.29,0,0,1,.18-1.27Zm71,25.72a.69.69,0,0,0-.18-.16h0a.69.69,0,0,1,.18.24Zm-.38,1.37V251h0a2.63,2.63,0,0,0,.08.74v-.15c0-.11-.05-.22-.08-.33Zm-33.94-29.07h0a1.23,1.23,0,0,0,0-1h0a1.09,1.09,0,0,1,0,.95Zm-27.11-14.69,1.62.67h0a27.14,27.14,0,0,1,3.65,1.95,49.15,49.15,0,0,1-5.9-1.14,3.79,3.79,0,0,1-.65-.21h-.21a1.15,1.15,0,0,1-.2-1.14.92.92,0,0,0-.29.16.92.92,0,0,1,.32-.18,1.77,1.77,0,0,1,1-.36,6.82,6.82,0,0,1,.65.25Zm46.62-36.75h0c.6-1.27,1.22-1.75,2-1.45a1.43,1.43,0,0,1,.75,1.26h0a1.49,1.49,0,0,1-1.48,1.48,1.47,1.47,0,0,1-1-.41A1.4,1.4,0,0,0,162.77,170.64ZM124.2,254h.11a11.66,11.66,0,0,0,.08-1.77h0c.11-.13.22-.25.34-.37.26.72.45,1.32.66,1.88a3.52,3.52,0,0,0,1.57,1.81,3.22,3.22,0,0,0,1.08.54v-.07a3,3,0,0,0,2.63-.4c.35-.24.66-.57.24-1a1.88,1.88,0,0,1-.24-2.38h0a2.29,2.29,0,0,1,1.79-.23,1.91,1.91,0,0,1,.38.31,2.2,2.2,0,0,1,.33.41,3.29,3.29,0,0,1-.87,4.56,5.35,5.35,0,0,1-5.72-.17c-.31-.23-.62-.48-.92-.74h0a3.11,3.11,0,0,1-.32-.31l-.93-1.74-.12.08v-.11h.07a.24.24,0,0,0,0-.26Zm-8.46-43,1.14.54a10.88,10.88,0,0,0,1.08.54c.24.12.45.27.68.41a6,6,0,0,0,.76.47c.54.33,1.15.64,1.62,1a17.41,17.41,0,0,1-6.54-1.55c-.18-.09-.37-.18-.54-.28a2.27,2.27,0,0,1-.66-.49c.09-1.08.12-1.08,1.14-1.2l-.27-.18h.06l.21.13h.25l.24.13a3.56,3.56,0,0,0,.82.49Zm59.51-10.64a.18.18,0,0,0-.11-.17l-.09-.12c-.07-.25-.14-.5-.22-.75h0a.54.54,0,0,0,.08-.28l.58-.59h0c.4-.28.24-.88.62-1.14h0l.62-.28a.16.16,0,0,0-.08-.13h0V197h.69l.21.08a6.51,6.51,0,0,1,1.31.81l.09.08c.24.21-.27,1.15-.54,1.15a1.18,1.18,0,0,0-.93.19h0a1.43,1.43,0,0,0,.34.14h0c.31.27.64.17,1,.12h.39a.19.19,0,0,1-.08.07c-.54.42.47.48,0,.9a3.47,3.47,0,0,1-2.74.95,2.42,2.42,0,0,1-.32-.32c0-.39-.37-.59-.74-.73h0Zm-44.66,51.73h0l.07,0h-.07Zm44.87-53.69a2,2,0,0,0-.07-.54h0A2.5,2.5,0,0,1,175.46,198.46Zm5.29,1.57c-.22-.25-.16-.6,0-1l-.09-.12h0l.12.16a.32.32,0,0,0,.11-.27h1a.78.78,0,0,1,.23.66c0,.59-.49.75-.92.73a1.22,1.22,0,0,1-.49-.15Zm.73-3.09a2.41,2.41,0,0,0-.22-1.4,1.41,1.41,0,0,1-.07.54.66.66,0,0,0-.17-.54c-.35.45-.08,1-.17,1.45h-.19c-.12-.45,0-1-.26-1.43a1,1,0,0,0-.16.28.61.61,0,1,0-.2.49c0,.11.13.14.18,0h0a1.13,1.13,0,0,1,0,.68,1.17,1.17,0,0,1-.49-.11l-.61-.76v-.06h0L179,196c0-.73-.32-1.52.32-2.19a.56.56,0,0,0,.6-.33,1.11,1.11,0,0,1-.13-.27l.07-.06a.68.68,0,0,0,.13.27c1.08-.89,1.14-.89,2.28,0v-.06h0l.09.07h-.12l.22.07c.64.54.95.92.79,1.75a4.1,4.1,0,0,1-.75,1.47c-.26.43-.67.24-1.08.22Zm-29.25-7.74.51-.11h0a1.34,1.34,0,0,0,.91-.22h0a1,1,0,0,0,.9.23h.16l.23.1c.17.1.33.22.49.33a5.82,5.82,0,0,1,1.14,8.15,2.63,2.63,0,0,1-1.69,1v-.14h-.09c.33-.49.66-1,1-1.47h-.06a3.56,3.56,0,0,0-.34-4.58,2.35,2.35,0,0,0-.91-.54c-.77-.39-1.06-.26-1.45.62a1.52,1.52,0,0,1-1.85,1.08,2.1,2.1,0,0,1-.79-1v-.23h0a4.94,4.94,0,0,1,.94-2.64.54.54,0,0,0-.07-.13h0a.44.44,0,0,1,.08.15.86.86,0,0,0,.6-.36h0a.31.31,0,0,0,.31-.22v-.17h0v.14Zm31.32,15.09a8.07,8.07,0,0,1-1.52,1.34c-.37.37-.77.21-1.14-.06,0-.06-.09-.13-.14-.2a.25.25,0,0,0-.26-.1l-.09-.07a4.44,4.44,0,0,1-1.06-1,3,3,0,0,1,.14-1.55h0c.18-.28.36-.57.54-.88a1.81,1.81,0,0,1,.32-.41h.54c.58,0,.3.59.39.94l.1.42h.15a1.2,1.2,0,0,1,.06-.32,1.16,1.16,0,0,0,.23.65c.06-.64.15-1.14.15-1.62v-.1H182a.2.2,0,0,1,0,.11.39.39,0,0,1,.1.25l.37-.43a.51.51,0,0,1,.21.1c.6.62,1.22,2.27.84,2.9ZM113,214.49a1.93,1.93,0,0,0,.38.19l1.08.54a8.18,8.18,0,0,0,1.08.62,26.37,26.37,0,0,1,2.46,1.77,38.87,38.87,0,0,1-5.61-1.56,2.77,2.77,0,0,1-1-.54h0v-.75a1.31,1.31,0,0,0,0-.28v.31a1.84,1.84,0,0,1,1.39-.41ZM110,218.1a.82.82,0,0,1,1-.62l.18.06c.36.18.7.38,1,.58l5.2,3.52h0c0,.37-.08.28-.23.28a19.22,19.22,0,0,1-6.52-2.6l-.28-.2A.94.94,0,0,1,110,218.1ZM144,219.18c0,.17-.17.23-.33.24a.93.93,0,0,1,.33-.26Zm36.08,17v.13a1.15,1.15,0,0,1-1.16,1.12h0a1.14,1.14,0,0,1-.73-.28,1.81,1.81,0,0,1-.31-1.15l.86-.84h.74a1.15,1.15,0,0,1,.61,1Zm-.45-10.21-.3-1.45h0v-3.62a1,1,0,0,0-.17-.18v-.08h0a.91.91,0,0,1,.18.21,2.55,2.55,0,0,1,1-.39.61.61,0,0,1,.23.31,2.17,2.17,0,0,1,0,.88,23.72,23.72,0,0,1-1,4.22Zm5-24.42a2.52,2.52,0,0,1-.93-.58c-.06-.11-.07-.22.13-.33s.17,0,.28-.08,0-.13-.08-.2c-.77-.54-.3-.64.26-.64a1.29,1.29,0,0,0,.9-.16,1.21,1.21,0,0,0-.32-.11c-.27-.3-.6-.13-.85-.19a1.63,1.63,0,0,0-.54,0h0a1.23,1.23,0,0,1,.72-1.57h0a4.11,4.11,0,0,1,2-.41l-.08-.08h0l.1.1h.08a1.81,1.81,0,0,1,.59.64h0a.94.94,0,0,0,.45.51l.14.15c.64.5.3,1.14-.28,1.64a2.06,2.06,0,0,0-.23.37,3.09,3.09,0,0,1-.14.32,1.65,1.65,0,0,1-2.26.58h0l-.06,0Zm23.71-41.42v.08a7.14,7.14,0,0,1,.81.31,1.52,1.52,0,0,1,.54,1.15h.07v.07a1.5,1.5,0,0,1-1.65,1.37h0a1,1,0,0,1-.45-.11,1.88,1.88,0,0,1-.42-2.12h0l1.08-.64v-.12ZM110.3,221.83c.3.21.61.42.9.65.74.59,1.45,1.23,2.18,1.83h0a10.35,10.35,0,0,1-3.43-.76L108.8,223a3.08,3.08,0,0,1-.5-.33l-.46-.66h0a.66.66,0,0,0,0-.28l.58-.6a1,1,0,0,0,.25,0h.27c.25.12.48.27.72.41ZM144,224.68a.78.78,0,0,0-.22-.7l-.07.14h0l.07-.13a.24.24,0,0,0-.12-.2l-.08-.08v-.15a.69.69,0,0,0,.18.24,25.65,25.65,0,0,1,0-3.92l-.43.41v-.06h0l.36-.35c.39-.33.63-.72,1.32-.6a1,1,0,0,0,1.14-.76c.15-.37.36-.73.54-1.08h0a.71.71,0,0,1,.31-.58h0a.71.71,0,0,0-.31.58.36.36,0,0,0,.31-.31v-.08a4.1,4.1,0,0,1,2.13-.33h0l.29.13a2.19,2.19,0,0,1,.91.9c.25.44.5.74,1,.74a1.85,1.85,0,0,0,1.06.17h.14a1.38,1.38,0,0,1,.39.41,4.14,4.14,0,0,1,.9,3.53,11.44,11.44,0,0,1-2.54,4.58.72.72,0,0,1-.36.2,3,3,0,0,1,.38-1.34,2.44,2.44,0,0,0,.11-1.82,2.18,2.18,0,0,0-.21.22,1.86,1.86,0,0,0-.13-.46c-.41.21-.35.61-.47.92a8.8,8.8,0,0,1-.54,1.4c-.13.31-.3.66-.7.62a7.66,7.66,0,0,1-.18-2.7c0-.44.14-.94-.27-1.35l-.09.11a1.54,1.54,0,0,0-.19-.46c-.54.4-.47,1-.54,1.55a6.71,6.71,0,0,0,0,2.28c0,.36.2.92-.27,1a.38.38,0,0,1-.15,0,3.92,3.92,0,0,1-.31-.95c-.17-.59,0-1.2-.3-1.74-.11.31,0,.66-.1,1h0c.1-.28,0-.63.1-.93v-.54l-.28-.13h0l.3.14c0-.28.14-.64-.22-.75a.41.41,0,0,0-.22,0,1.62,1.62,0,0,0-.3-.39c-.9,1.62.61,2.94.25,4.5a5,5,0,0,1-.89-.54A7.38,7.38,0,0,1,144,224.68Zm108.2-30.9h0v.08a1,1,0,0,1-1,1h0a1,1,0,0,1-.6-.23,1.37,1.37,0,0,1-.25-.61h0a1.05,1.05,0,0,1,1.05-1h.09a1,1,0,0,1,.29.07A1,1,0,0,1,252.21,193.78Zm13,56.82v-.09h0v.08l.38-.12a1.85,1.85,0,0,1,.41,1h0a1.05,1.05,0,0,1-.37-.25Zm-.51-32.79v-.07a1.34,1.34,0,0,1,.1-.44c.11-.26.27-.54.35-.8A2.38,2.38,0,0,1,264.66,217.81Zm2.9,1.81c0-.17.2-.41.25-.54a1.18,1.18,0,0,0,.07-.2H268a1.14,1.14,0,0,1-.09.26,1,1,0,0,0,.59-.39h.23a1.74,1.74,0,0,1-1.12.88Zm-.38-1.57.25-.15a1.13,1.13,0,0,1-.65.87c.13-.23.34-.41.46-.65a.31.31,0,0,0-.16-.12h0Zm-1.75,0a.32.32,0,0,1,0-.33Zm.62-1.14a1.21,1.21,0,0,0,0,.38c.2,0,.3-.29.47-.42a2.27,2.27,0,0,1-.71,1.15.27.27,0,0,1-.34.12,1.77,1.77,0,0,0,.58-.82,1.41,1.41,0,0,1,0-.41ZM231.12,220c-.81,0-.9,0-1.75-.85.24-.22.54,0,.83.17h.16a3.15,3.15,0,0,1,.76.6Zm1.92-3h0l.22-.19a.88.88,0,0,1,.19.75,1,1,0,0,1-.21-.11,4.3,4.3,0,0,0-.2-.54ZM231.8,219c-.59.17-.73-.3-.94-.62a.89.89,0,0,1,.68.22.83.83,0,0,0,.16.21.66.66,0,0,1,.09.19Zm2.56-1.87a1.68,1.68,0,0,1-.41-.54v-.22l-.16-.35h0l.16.36a1.63,1.63,0,0,1,0-.54,1.55,1.55,0,0,1,.41,1.23Zm-2.61.65a.74.74,0,0,0-.13-.21,2.61,2.61,0,0,1-.34-.74h0a2.42,2.42,0,0,1,1.3,1.68,2.62,2.62,0,0,1-.83-.76ZM229,220.55a1.86,1.86,0,0,1,1.14.11,2.87,2.87,0,0,1,.62.34,1.93,1.93,0,0,1-1.76-.49Zm-19.11,26.91a.11.11,0,0,1,0-.08l.06-.09a14.1,14.1,0,0,1-.41-3.24l.08-.23.78-.09h0a.69.69,0,0,1,.24.24,1,1,0,0,1,.14.57,12.37,12.37,0,0,0,1,5.54,1.55,1.55,0,0,1,0,.43l-.08.11c-.42-.31-.61-.81-1-1.14h0a.7.7,0,0,0-.3-.58V249h0a.43.43,0,0,1,0-.16.58.58,0,0,0-.06-.26h0a.44.44,0,0,0-.19-.36v.16h0v-.17a.83.83,0,0,0-.3-.77Zm17.68-1.8h.14a1.24,1.24,0,0,1-1.15.5,4.27,4.27,0,0,1,1-.5Zm.86,4.12.13-.2h0c.34-.08.54-.45.88-.54a2.66,2.66,0,0,1-1.15,1.15,2.55,2.55,0,0,1,.17-.41Zm.08-1.69a.75.75,0,0,1-.44.38,1.82,1.82,0,0,1,.45-.38Zm-.83-1.14V247l.21-.09.39-.06h0a2.89,2.89,0,0,1-1.73.84h0l1.14-.61v-.15Zm2,3.76A1.54,1.54,0,0,1,230,250c.07-.18.1-.43.31-.44a2.33,2.33,0,0,1-.71,1.13Zm-17.16-23.13a.71.71,0,0,1,0,.29.7.7,0,0,1-.81.54h-.35v-.86h-.16a.79.79,0,0,1,.26-.08c.58-1.56.87-3.24,2-4.47a15.29,15.29,0,0,0-.92,4.58ZM215,255.41a1.24,1.24,0,0,1,1.22-1.27h.15a.87.87,0,0,1-.15,1.68,1.15,1.15,0,0,1-1.18-.42Zm12-10.76h.3a1.5,1.5,0,0,1-1.54.18h.15a3.78,3.78,0,0,0,1.15-.18Zm41.52-22.89a.84.84,0,0,1,.12-.31h0a1.11,1.11,0,0,0,.67-.27h0l.54-.07h0a2.54,2.54,0,0,1-1.3.59Zm-.35-1,.09-.17.62-.38.34-.2a.36.36,0,0,0,.25,0,2.31,2.31,0,0,1-1.21.69ZM231,270.22h0a.46.46,0,0,1,.54-.38h0a.84.84,0,0,1,.06.39v3.24a4.91,4.91,0,0,1-.39-.51,4.09,4.09,0,0,1-.15-2.82Zm14.31-59.4.35-.15a3.08,3.08,0,0,0-.35.58v-.43Zm23,34.79a.11.11,0,0,1,0-.08l.22-.08a5.54,5.54,0,0,1,.91.13,1.24,1.24,0,0,1,.35.25,1.73,1.73,0,0,1-1.53-.22Zm-39.81-63.85c.54-.54.7-1.37,1.37-1.82,0,.4-.3.7,0,1a.76.76,0,0,0,.11-.14.91.91,0,0,0,.17,1l.41-1.46-.18,0h-.22a1.64,1.64,0,0,1,.14-.22v.09h.21a1.66,1.66,0,0,1,.32-.22c.19.66,0,1.37.22,2.16a3.12,3.12,0,0,0,.15-.39,1.07,1.07,0,0,0,.13.38c.41-.73.07-1.48.19-2.16.06-.13.15-.12.24-.07s.12.45.24.45c1.28,0,1.42,0,1.8,1.14a5.87,5.87,0,0,1,.19,1.77c.06.89-.67.86-1.14,1.15-.24.13-.35.48-.54.73a1.14,1.14,0,0,1-1,.47,8.88,8.88,0,0,1-.94-.44l-.31-.29V185h0v-.08h-.19a11,11,0,0,1-1.24-.92h0l-.06-.29a.43.43,0,0,1-.11-.12h0l.12.14v-1.5a.44.44,0,0,0,.09-.29h-.23v-.07Zm.13,47.76a.81.81,0,0,0,.29-.12,1,1,0,0,1-.31.15Zm23.08,2.09a.51.51,0,0,1-.34.07c0-.09.08-.18.13-.27h.18a9.91,9.91,0,0,0,1.74-2.43.93.93,0,0,1-.41-.2h0a.84.84,0,0,0,.4.2,7,7,0,0,0,1-3.58h0c.31-.26.26-.6.22-.94l-.19-.06h0l.21.07a1.44,1.44,0,0,0,0-.87h0a2.43,2.43,0,0,0-.36-1.94,1.09,1.09,0,0,1-.08.15.7.7,0,0,0-.09-.4c-.77,1.25-.73,2.59-1.21,3.74a8.18,8.18,0,0,1-2,3.27c.12-.51.26-1,.43-1.52A12.45,12.45,0,0,0,251,221h0a.85.85,0,0,0-.08-.42,2.27,2.27,0,0,0-.6,1.76,17.11,17.11,0,0,1-1.23,5.12,1.17,1.17,0,0,1-.46.67,5.91,5.91,0,0,1-.22-1.92,37.43,37.43,0,0,0-.41-6.08.47.47,0,0,0-.27.16.62.62,0,0,0-.08-.35c-.87,2.67-.54,5.46-.87,8.54h0c-.08-.13-.14-.28-.21-.42a33,33,0,0,1-.86-4.41,7.48,7.48,0,0,0-.17-2.45c-.08.12-.15.25-.22.36v-.45c-1,2-1,2.54-.41,7.91a5.45,5.45,0,0,1-1-1,14.14,14.14,0,0,1-.89-1.62l-.09-.13a13.71,13.71,0,0,0-.84-2.94c-.08-.33-.17-.65-.28-1-.73,1.14-.49,3.24.42,5.37a5.93,5.93,0,0,0,1.25,2.28c0,.09.11.19.18.28h0a.91.91,0,0,0,.37.48c.16.2.3.42.47.62a1.15,1.15,0,0,1-1.15-.34,13.86,13.86,0,0,1-5.82-7.72,1.16,1.16,0,0,0-.22-1h0v-.22a15.58,15.58,0,0,1,.29-4.57h0l1-1.42a.86.86,0,0,0-.14-.18h0l.13.17a10.83,10.83,0,0,1,1.05-.59A5.57,5.57,0,0,0,241,215a1.64,1.64,0,0,0,1-.68,5.35,5.35,0,0,0,1.26-1.38l.47-.58h0l.29-.26a1.5,1.5,0,0,0,0-.3h0a1,1,0,0,1,0,.43,15.05,15.05,0,0,1,3.07-1.5,1.74,1.74,0,0,0-.45-.27h.19l.21.13a.23.23,0,0,0,.25,0,1.07,1.07,0,0,0,.22-.25h.07a1.21,1.21,0,0,1-.25.3h2.41c-.29-.39-.78-.17-1.15-.35h.09c.38.1.8,0,1.06.3l2.48.9.51.37a8.68,8.68,0,0,1,1.49,1.71,4.51,4.51,0,0,1,.31.57,1.86,1.86,0,0,0,.29.44,1.25,1.25,0,0,0,1,.77,4.37,4.37,0,0,1,2.95,1.29,3.82,3.82,0,0,1,.86,2.28c.26,4.43-2.65,10.61-7.86,12.66Zm12.1-5.72a.2.2,0,0,1-.14.06.39.39,0,0,1-.3-.07h.44Zm-31.62-48.56a.61.61,0,0,1,0,.27,1,1,0,0,1-1.08.88h-.06a1.16,1.16,0,0,1-.7-.17c-.17-.19-.19-.44-.1-.86.18-.77.65-1,1.62-.78a1.06,1.06,0,0,1,.32.66ZM138.2,194.61a4.2,4.2,0,0,1-3.51,2.8,2.8,2.8,0,0,1,.31.28h0l.22.18c3.54,3.44,3,8.64-2.91,11.1l.65.6.64.64a4.13,4.13,0,0,1,.44,4.58,8.2,8.2,0,0,1-3.82,4.16c-.39.23-.8.41-1.29.64,1.62,2.43,2.28,5,.83,7.67a6.14,6.14,0,0,1-4.43,3.14v-.09l.18-.15h.31v.1l1-.58h0a4.35,4.35,0,0,0,2.06-1.82c0-.26,0-.51.32-.62a.27.27,0,0,0-.08-.16h0a.31.31,0,0,1,.11.2l.54-.5c.09-1.14.7-2.16.09-3.29a5.71,5.71,0,0,1-.14,1v-.1c.09-.29,0-.6.07-.89a4.79,4.79,0,0,0-1.84-3.17c-1-.94-.88-1.22.43-1.62a3.16,3.16,0,0,0,1.42-.67l-.1-.24h0l.17.23a6.1,6.1,0,0,0,3.84-4.15,3,3,0,0,0-1.29-3.61,3.23,3.23,0,0,0-.54-.37,13.07,13.07,0,0,0-1.14-.67l-.24-.15c-.09-.49,0-.83.66-.83a1.72,1.72,0,0,0,.54-.18c.54,0,1.08.13,1.48-.27a1,1,0,0,1-.33-.12h0a1.14,1.14,0,0,0,.35.13,1.65,1.65,0,0,0,.89-.4.7.7,0,0,1,.14-.35l.17-.12a1,1,0,0,0-.29.59l1.14-.6a7,7,0,0,0,1.47-2.11.71.71,0,0,1-.23-.19v-.07a.71.71,0,0,0,.23.19,6.18,6.18,0,0,0,.5-3,4.53,4.53,0,0,0-.94-1.82h0v-.29a6.46,6.46,0,0,0-1-.91,7.31,7.31,0,0,0-1.86-1.25.63.63,0,0,1,.18-.54h0c1.77-.19,3.24-.83,3.85-2.7v0a3,3,0,0,0-.27-3.11h0a4.33,4.33,0,0,0-1.31-1.82,6.36,6.36,0,0,0-.85-.62h-.08c-.08-.54.07-.87.69-.7a5,5,0,0,1,1.85,1.59,5.15,5.15,0,0,1,.79,5Zm-13.74,81.65v.5a1.87,1.87,0,0,0,.66-.91l-.28-.13h0l.26.11a19.8,19.8,0,0,0,3.34-6.05H129a.46.46,0,0,1,0,.48c-1.15,2.76-2.4,5.4-4.94,7.17a1.21,1.21,0,0,1,0-.38h0l.22-.31v-.4ZM235,270.46a1.63,1.63,0,0,0-.08.58,6.52,6.52,0,0,0,.23,1.92c0,.2,0,.43-.18.52a.42.42,0,0,1-.27,0,3.34,3.34,0,0,1-.41-3.65h0v-.19h.13a.54.54,0,0,0,0,.18h.42a.74.74,0,0,1,.16.64Zm31.21-20.15a1.07,1.07,0,0,1-.11-.46.25.25,0,0,1,.18-.08,2,2,0,0,1,.59.71.69.69,0,0,1-.61-.22Zm1.65-2.42a4.48,4.48,0,0,1,1.08.71,2.05,2.05,0,0,1-1.47-.54.33.33,0,0,1,.41-.21l0,0ZM228.48,176.3c-.12-.18-.34-.16-.54-.22v.36h.48a1.14,1.14,0,0,1-.67.64,3.7,3.7,0,0,0-1.48.18,1.18,1.18,0,0,0,.4.17l-.23.08a5.62,5.62,0,0,0,2.16.12c-.49.82-1.5.31-2,.86a.52.52,0,0,0,.18.1h-.09c.71.38,1.27,0,1.82-.07a3.31,3.31,0,0,1-3.73,1.52h0c-.16-.25-.33-.5-.5-.74a1.69,1.69,0,0,0-.63-.67c-.1-.1-.18-.21-.29-.32-.46-.32-.29-.87-.2-1.35l-.17-.12h0l.15.1a3,3,0,0,0,1.08-1.52c.25-1,2-1.32,3.14-.67.43.28.82.59,1.22.89a1.34,1.34,0,0,1,0,.63ZM104.57,227.56a1.15,1.15,0,0,1,1.15-.08,2.05,2.05,0,0,1,.42.36,24.16,24.16,0,0,1,3.71,4.11h0a34.2,34.2,0,0,1-5.07-3,1.08,1.08,0,0,1-.32-.24C104.3,228.29,104.14,227.88,104.57,227.56Zm16.2,10.69a.11.11,0,0,0,0-.08h0a1.19,1.19,0,0,0-.08.16s.07,0,.07-.08Zm-16,29.76a.88.88,0,0,1,.3-.89.73.73,0,0,1,.73,0,.56.56,0,0,1,.13.37v.1a.64.64,0,0,1-.68.54,1,1,0,0,1-.48-.15Zm48.71-33.3h0c.41-.54.86-.13,1.3,0,.67.19,1.31.65,2.09.19a2,2,0,0,0-.32-.18h.06c-.67-.47-1.57-.54-2.29-1a2,2,0,0,1-.47-.68c1.43-.78,3,0,4.47-.49,0-.45-.31-.45-.54-.51a9.06,9.06,0,0,0-4.32-.33v-.3a.78.78,0,0,0-.4.31.57.57,0,0,1,.42-.35l1.14-.61v-.11h0v.17a4.81,4.81,0,0,0,2.16-.26h0c.36-.1.89.11,1.15-.5h-.1a2.9,2.9,0,0,0-2.29-.15,4.08,4.08,0,0,1-1.88.4,1.68,1.68,0,0,1,.13-.58h0a7.79,7.79,0,0,1,3.87-2.49h0a5.15,5.15,0,0,0,1.46-.16,3,3,0,0,1,2.29.49.79.79,0,0,1,.08.5,1.08,1.08,0,0,0,.47,1.24.29.29,0,0,0,.16.13c.33.16.64.33.93.5h.1a2.25,2.25,0,0,1,.78,2.57,1.75,1.75,0,0,1-.67,1.15c-.72.54-1.4,1-1.15,2.12.08.32-.33.59-.6.82a4.12,4.12,0,0,1-3.68.84,12.31,12.31,0,0,1-2.29-1,19.67,19.67,0,0,1-2.06-1.8ZM200.69,186h-.07a4.2,4.2,0,0,1-.91-.54h0a4.07,4.07,0,0,1-1.15-2.84h.16a8,8,0,0,1,1,1.08A3.82,3.82,0,0,0,202,184.8a4.08,4.08,0,0,0,1.84,0,2.3,2.3,0,0,0,1.88-2.12h-.23l-.22-.14a1.49,1.49,0,0,0-.45-.37,1.69,1.69,0,0,1-.36-.23,1.44,1.44,0,0,1-.38-1h0a2.71,2.71,0,0,1,1-1.49h0a2.93,2.93,0,0,1,1.55.23l.18.1a3.3,3.3,0,0,1,.75,4.58,5.82,5.82,0,0,1-6.89,1.61Zm66.19,63,.15-.17h.06l-.15.15a1,1,0,0,1,.64,0,5.4,5.4,0,0,1,.87,1h-.07a2.32,2.32,0,0,1-1.51-1Zm-33.6-78.63c.76.42.63,1.51.34,2.37a1.92,1.92,0,0,1-.26.54c-.27.44-.54.86-.84,1.26a2.07,2.07,0,0,0,0-1.47c-.09.29-.18.54-.26.75v-.15c-.37.21-.36.72-.89.88v-.13a4.6,4.6,0,0,0-.16-1.78l-.11.27a2.24,2.24,0,0,0-.13-.57c-.51.79-.2,1.62-.31,2.42a1,1,0,0,1-.26-.19.75.75,0,0,0-.24-.4V174h0a1.54,1.54,0,0,0-.22-1.42v.22a1.43,1.43,0,0,0-.14-.2c-.61.69.42,1.38,0,2.06a3.27,3.27,0,0,1-1-.84l-.5-1h-.07l.15.1v-1.62c0-.31.07-.77.35-.77,1-.09,1.15-1.08,1.83-1.55.41,0,.89-.07,1.15.23a3.19,3.19,0,0,0,1.33.86Zm-49.73-7.81a1.26,1.26,0,0,1-1.15,1.36.82.82,0,0,1-.27,0,1.8,1.8,0,0,1-.81-.26,1,1,0,0,1-.22-.88c.08-.91.47-1.27,1.71-1.51a1.42,1.42,0,0,1,.73,1.3Zm-3.09,5a.53.53,0,0,0,.14-.12c0,.23,0,.51.28.5s.29-.25.29-.45v-.59h0a2.09,2.09,0,0,1,.72-1c.45.85,0,1.86.31,2.81a1.32,1.32,0,0,0,.16-.25,3,3,0,0,0,.11.66,4.61,4.61,0,0,0,.42-2.61c0-.33-.13-.65.1-.9.65.95.32,1.95.77,2.83a.83.83,0,0,0,.18-.3,3.22,3.22,0,0,0,.24.61,3.09,3.09,0,0,0-.09-2,1.93,1.93,0,0,1-.08-1.14,2.15,2.15,0,0,1,1.15,1.05,5.45,5.45,0,0,1,.82,3.31c-.07.67-.22,1.28-1.15,1.28-.54,0-.58.44-.79.76a1.65,1.65,0,0,1-.7.84,1.7,1.7,0,0,1-1.94-.12v-.07l-.22-.31h0c-.06-.28-.16-.5-.44-.43a.73.73,0,0,0-.36-.21h-.11a2.33,2.33,0,0,1-.88-.39l-.54-.79h0c-.29-1.93.67-3.33,1.86-4.74,0,.64-.48,1.1-.26,1.77ZM118,200.82h0l3.24,1h0l.39.25a5.7,5.7,0,0,1,.83.09v.25H118a5.23,5.23,0,0,1-1.62-.26.84.84,0,0,1-.33-.16c-.17-.23-.08-.51.16-1.14H118ZM95.69,260.16a3.58,3.58,0,0,1-.14.54,6.34,6.34,0,0,1-7.92,4.24h0a1.29,1.29,0,0,1-.78-.44.68.68,0,0,1,.52-.09.62.62,0,0,1,.21.15,4.72,4.72,0,0,0,3.35,0h0a1,1,0,0,0,.9-.28.72.72,0,0,1-.24-.14h0a.76.76,0,0,0,.23.13.28.28,0,0,0,.26-.1v-.27h.06v.32a4.66,4.66,0,0,0,2.67-2.92l-.29-.19h0l.26.18a4.19,4.19,0,0,0,.3-3h0c.13-1.39.21-1.43,1.48-.94l.19.07c.19.09.38.16.57.23a1,1,0,0,1,.07.15,5.8,5.8,0,0,0,5.47-.23v-.22H103v.15a1.86,1.86,0,0,0,1.23-.87h0a2.54,2.54,0,0,0,.73-2.7,11.83,11.83,0,0,0-.85-2.16h0l.1-.62-.07-.07h0l.09.08h.71l.19.14.21.12.13.1.27.14h0a4.74,4.74,0,0,0,.54.31,2,2,0,0,0,.74.33h0a5.62,5.62,0,0,0,3.27.58c.47-.4,1.2-.27,1.62-.79a1.34,1.34,0,0,0-.07-.18h.09V252l1.14-.68a4.91,4.91,0,0,0,1.24-2.87v.07l.23-.12c0-.63.16-1.22-.25-1.77h-.18v-.16a.61.61,0,0,1,.19,0,1.36,1.36,0,0,0-.27-1,.87.87,0,0,1-.1.31v-.06a.62.62,0,0,0,.08-.24c-.1-.23-.13-.36-.29-.67s-.13-.43,0-.57a.9.9,0,0,1,.46.12,1.72,1.72,0,0,0,.37.22h.07l.32.18h0a2.34,2.34,0,0,0,1.14.4h.14a1.39,1.39,0,0,0,1,.07v-.08h0v.17h.31l.1-.07a.57.57,0,0,0,.43-.13h.09V245h0v-.17h0V245a1.75,1.75,0,0,0,1.48-.93l-.19-.1h0l.16.08.29-.3a4.62,4.62,0,0,0,.8-4.38,2.16,2.16,0,0,1-.15-.94H121a1.26,1.26,0,0,1,.16.33,7.72,7.72,0,0,1,.43,1.44,5.35,5.35,0,0,1-2.61,5.5c-1.36.73-2.29.73-4.46,0,.29,2.12.1,4.1-1.51,5.65a5.85,5.85,0,0,1-5.72,1.91c-.67-.09-1.33-.31-1.94-.44-.26.25-.12.45-.12.63a4.21,4.21,0,0,1-2.85,5,8.8,8.8,0,0,1-6.54.16A5.92,5.92,0,0,0,95.69,260.16Zm10.38,4.94v.3a.75.75,0,0,1-.62,0,1.31,1.31,0,0,0-.17-1,.7.7,0,0,0-.16.44,5,5,0,0,1-.07-.54c-.2.34-.12.66-.24.9,0-.25.07-.54-.21-.69a1.17,1.17,0,0,0-.08.76c-.12-.21,0-.48-.13-.69-.41.17.11.71-.34.88a3.25,3.25,0,0,1-.23-.29,6.32,6.32,0,0,1-.44-1.4h0c.17-.86,1.08-1.14,1.48-1.77a.36.36,0,0,1-.07-.17h0a.72.72,0,0,0,.09.2,1.63,1.63,0,0,1,.54,0,3.86,3.86,0,0,1,1.45,1.08,2.28,2.28,0,0,1-.65,2.29,1.34,1.34,0,0,0-.16-.23Zm1.51,3.29c.16-.1,0-.13-.2-.21h0a1.37,1.37,0,0,1-.23-.19v-.06a1.83,1.83,0,0,0-.13-.24h0a1.28,1.28,0,0,1,.15.25c.43-.14,1,.08,1.34-.23-.08-.4-.28-.36-.47-.4a1,1,0,0,0-.35,0c-.11,0,0-.09-.15-.09h0a.18.18,0,0,1-.07-.08c.27-.25.73.09.92-.34-.42-.25-.87-.07-1.3-.07l-.14.16h0l.11-.13a2,2,0,0,1,1.25-1v-.18h0v.18l1.25.08a1.88,1.88,0,0,1,.28.34,1,1,0,0,0,.33.47.64.64,0,0,0,.16.17c.45.35.09.85-.22,1.31-.86,1.26-1.34,1.5-2.48.86a.63.63,0,0,1-.29-.1c-.13-.09,0-.34.24-.48Zm109-51.28c.73-.66.93-.78,1.54-.5a1,1,0,0,1,.3.84v.07a1,1,0,0,1-1,1h0a1.16,1.16,0,0,1-.41-.09l-.35-.36h-.05v-.91h-.27Zm7.28,46.23a7.3,7.3,0,0,1-3.81-3.55l1.05.69.54.35h0a9.25,9.25,0,0,0,2.66,1.15c.54.11,1.14.34.91,1.08-.11.54-.71.66-1.36.3Zm3.13,9.41a1.5,1.5,0,0,1,.3-1.38.59.59,0,0,1-.32-.06l.09-.07h.44a.5.5,0,0,1,.18.44,11,11,0,0,0,.81,3.62,7,7,0,0,1-.95-.86,4.25,4.25,0,0,1-.58-1.69Zm13.63-19.44a1.82,1.82,0,0,0-1.25-.18H239a4.83,4.83,0,0,1-3.24-1.21,11.68,11.68,0,0,1-1.26-1.78h0a5.6,5.6,0,0,1-.17-.54,8.75,8.75,0,0,1,.07-2.75.17.17,0,0,0,0-.1.7.7,0,0,0-.08-.2v-.11a.65.65,0,0,1,.16.4,1.71,1.71,0,0,0,.34-1.15h-.07a26,26,0,0,1,3-4.57.42.42,0,0,1,.24-.32h0a1.16,1.16,0,0,0,.65-.54l-.26-.13h0a2.1,2.1,0,0,0,.26.13l1.77-1.5h0a1.92,1.92,0,0,0,.92-.61h0l.59-.29h0a.64.64,0,0,0,.54-.31l-.15-.13h0l.15.13a.6.6,0,0,1,0-.19h0a.38.38,0,0,0,0,.21.6.6,0,0,0,.61-.28l-.2-.09h0l.18.08a4.81,4.81,0,0,0,1.5-.62h1.15a1.29,1.29,0,0,1,1-.26,9.85,9.85,0,0,0-4.52,6.15,8.52,8.52,0,0,0,0,4.95,3.54,3.54,0,0,0,.19-.33,4.78,4.78,0,0,0,.19.48c.74-2.16,1.14-4.32,2.29-6.16a.51.51,0,0,1-.16-.13h0a.51.51,0,0,0,.16.13l.6-.6a1.41,1.41,0,0,1,0-.29.33.33,0,0,0,0-.14h0a.38.38,0,0,1,0,.15l.07-.07c-.49,2.76-.82,5.22.11,7.67v-.1a3.84,3.84,0,0,0,.35.54c.4-2.7.47-5.28,1.93-7.68.57,2.79.13,5.44.63,8a.45.45,0,0,0,.34-.2,1,1,0,0,0,.06.41,15,15,0,0,0,.67-5.87h-.09v-.57l-.1-.12a.33.33,0,0,1,0-.14,1.3,1.3,0,0,0,.18.23,9.87,9.87,0,0,0,.08-1.8c1.08,2.09,1.15,4.39,1.28,6.78l.26-.33v.54A4.92,4.92,0,0,0,252,244a.49.49,0,0,0-.17-.06h0a.49.49,0,0,1,.17.06,1.42,1.42,0,0,0,0-1.21h-.09c.14-.82-.35-1.62-.24-2.57a1.07,1.07,0,0,1,.16.14,3.78,3.78,0,0,1,.41.39c1.47,1.69,1.6,3.94,2.35,6.12a1.55,1.55,0,0,0,.07-.23,2.09,2.09,0,0,0,.11.43,7.15,7.15,0,0,0-.69-6.11,9.46,9.46,0,0,0-4.45-4.51,3.3,3.3,0,0,1,.77,0v-.07h0l.35.3a16.57,16.57,0,0,1,2.79.54l.66.29a12.35,12.35,0,0,0,1.53.8h0a1.68,1.68,0,0,0,.79.54l.38.24a33.76,33.76,0,0,1,2.7,2.65,14.78,14.78,0,0,1,1.82,2.8,7,7,0,0,1,.77,5.4,4.78,4.78,0,0,1-5.21,3.44,1.61,1.61,0,0,0-1.9.94,8.25,8.25,0,0,1-9.52,3.69,8.05,8.05,0,0,1-3.24-2c-.45-.61-.89-1.2-1.33-1.82a1.73,1.73,0,0,0-.41-.86Zm-61.35-92.72c-.84.27-1.4-.5-2.16-.23a1.12,1.12,0,0,0,.2.18H177l1.66.59a1.15,1.15,0,0,1,.34.45c-.89.69-2,.07-2.87.41a1.87,1.87,0,0,0,.54.33,2.91,2.91,0,0,0,2.34.31h0c-.37.49-.5.54-2.85.92a1.42,1.42,0,0,0,.41.28h0c.51.54,1,.27,1.51.11a2.45,2.45,0,0,1,1-.26c-.49,1.71-3.24,2.42-4.79,2.12a4.9,4.9,0,0,1-.65-.32h0a1.31,1.31,0,0,0-.08-.89h0l-.17-.09a4.72,4.72,0,0,0-1.08-.85,3.6,3.6,0,0,1-.45-.58h0L172,163a5.69,5.69,0,0,1,.27-1.47h-.09l.23-.26h0c.31-.22.84-.29.84-.73-.11-1.08.67-1.43,1.35-1.92h0a3.77,3.77,0,0,1,2.65.39A6.82,6.82,0,0,1,179.23,160.59Zm-75.8,69.72a18.22,18.22,0,0,1,1.55,1.62c1.13,1.33,2.28,2.66,3.44,4a15.2,15.2,0,0,1-3.16-1.62c-.65-.49-1.27-1-1.89-1.53h0l-.24-.26a.21.21,0,0,1-.15-.07l-.14-.15a.41.41,0,0,1-.08-.13l-.22-.26a.14.14,0,0,1-.16-.08l-.13-.14a.56.56,0,0,1-.07-.16,1.69,1.69,0,0,1,.25-1.4h.81ZM81.5,246.82h0v.26l.79-.27a1.43,1.43,0,0,1,.54.65,23.74,23.74,0,0,1,2,5.94c-.44-.54-.87-1.15-1.29-1.71a3.45,3.45,0,0,0-.72-1h0l-.23-.35c-.44-.81-.89-1.6-1.4-2.36h0l.28-.86Zm-6.87,5.36h0L74.32,251h0V251c.33-.5.72-.77,1.23-.65a.66.66,0,0,1,.21.35,13,13,0,0,1,.75,2.12c.26.92.45,1.9.65,2.88l-.18.17h0l-.49-.51c-.6-1.08-1.22-2.16-1.85-3.19ZM153,244.51a.89.89,0,0,0-1,.67,3.4,3.4,0,0,1-.27.54,2.4,2.4,0,0,1-3.84.82,4.68,4.68,0,0,1-.54-.8c-.08-.22-.22-.39-.44-.36a1,1,0,0,0-1-.13.56.56,0,0,1-.44,0c-.3-.24-.54-.57-.84-.84h0a9,9,0,0,1-.64-2.7,1.55,1.55,0,0,0-.2.32v-.11a1,1,0,0,1,.18-.28c.23-.69.45-1.38.67-2.07a.83.83,0,0,0,.33-.6h0a3.17,3.17,0,0,0,.85-1.25.32.32,0,0,0,.23-.29h0l.1-.31A.57.57,0,0,1,146,237h0l.2.14.83-.62c.08,1-1,1.92-.46,3.1h0a.51.51,0,0,0,.13-.16,5.57,5.57,0,0,0,.14.71,6.11,6.11,0,0,0,.71-2.16.39.39,0,0,1-.18-.18v-.11a.43.43,0,0,0,.2.29.36.36,0,0,0,0-.25v-.09h0a.43.43,0,0,0,.77.37.42.42,0,0,0-.2-.56.39.39,0,0,0-.39,0,.34.34,0,0,1,.2,0c.14-.3.33-.6.6-.67a.69.69,0,0,1,.14.33,15.2,15.2,0,0,1,.09,1.65,9,9,0,0,0,.09,2.2h.25v.43a4.13,4.13,0,0,0,.65-3.13,1.39,1.39,0,0,1,.08-.54.26.26,0,0,0,0-.24,3.19,3.19,0,0,0-.24-.54v-.58h0a.45.45,0,0,1,.23,0,1,1,0,0,0,0,.24,1,1,0,0,1,.32-.12,1.34,1.34,0,0,1,.29.64c.17.67.24,1.39.35,2.08a2.73,2.73,0,0,0,.45,1.56,1.09,1.09,0,0,0,.1-.25l.24.27c.31-1.26.31-1.27-.46-3.55h.41c.07-.2,0-.46.2-.69a4.16,4.16,0,0,1,1.58,1.45,7.57,7.57,0,0,1,1.16,5.48c-.16.81-.4,1-1.43,1Zm68-33.28.09.32,1-.94,4.1-2.46H226a.71.71,0,0,1,.73.54v.14a.68.68,0,0,1-.51.81h0c-2,.29-3.67,1.44-5.56,2.64v-.54h-.07v.33a.32.32,0,0,0,.24-.34.2.2,0,0,0,.1-.2l-.09-.32Zm-28,12a1.48,1.48,0,0,1,1.84-.34,5.46,5.46,0,0,0,.54.24,5.82,5.82,0,0,1,2.19,2.16c.17.22.24.48,0,.67a.26.26,0,0,1-.22.07l-.31-.14-.12-.12-.12-.11a1.12,1.12,0,0,0-.33-.28,4.74,4.74,0,0,0-2.88-1.08.85.85,0,0,1-.35-.08,1.78,1.78,0,0,1-.21-1Zm-1.65,6.94h0c.7-1,1-1.15,2-.71a5,5,0,0,1,.66.32,6.07,6.07,0,0,1,1.77,1.5c.29.37.66.78.31,1.32a1.42,1.42,0,0,1-.35-.11,3.23,3.23,0,0,0-.83-.64,3.88,3.88,0,0,0-2.39-.92,1.35,1.35,0,0,1-.6-.08h-.06a1.2,1.2,0,0,1-.4-.54h-.16Zm-8.93-78.6h0l.25.13a1.75,1.75,0,0,1,.43.47c.2.21.29.48.63.58h.21a2.29,2.29,0,0,1,1.62,2.8A8.18,8.18,0,0,1,183.7,159c0-.1,0-.19-.08-.29s-.12-.18-.17-.19c.09-.54.34-.95.09-1.5l-.67,1.46a.47.47,0,0,1-.48.3h0a10.69,10.69,0,0,0-.18-2.65,2.12,2.12,0,0,1-.11.21v-.66c-1,1.15-.36,2.29-.66,3.24a1.71,1.71,0,0,1-.54-1,4.48,4.48,0,0,0-.12-1.71,3.91,3.91,0,0,0-.2.49,3.11,3.11,0,0,0-.16-.67c-.78,1.08.39,2,.06,3a2.81,2.81,0,0,1-.54-.29,5.32,5.32,0,0,1-1.37-2.62,18.36,18.36,0,0,1-.09-2.09v-.07h0l.27-.47h0l-.29.5V154a.75.75,0,0,0,.34-.57h0a1.48,1.48,0,0,0,1.67-1.25h0a.31.31,0,0,1-.16-.25.34.34,0,0,0,.16.21l.66-.6a.87.87,0,0,0,.23-.19h.06l-.23.2h1.21Zm-64,45.24a19.62,19.62,0,0,0,2.16.42l.91.23c.89.32,1.83.5,2.75.73l.89.31a16.89,16.89,0,0,1-7.65-.13,2.16,2.16,0,0,1-.51-.16,1.68,1.68,0,0,1-.47-.59h0a.39.39,0,0,0,0-.26h0a1.78,1.78,0,0,1,1.92-.55Zm-19.32,37a1.32,1.32,0,0,1,1-.62h.07a4.17,4.17,0,0,1,.67.59,25.11,25.11,0,0,1,3.43,4.58c-.67-.4-1.33-.83-2-1.28l-.42-.29h0a.91.91,0,0,0-.54-.46h0l-.25-.19a.08.08,0,0,1,0,.07h0c-.54-.73-1.54-1.08-1.87-2l-.27.08h0l.21-.07a.61.61,0,0,0,0-.27.85.85,0,0,1-.15-.28,1.15,1.15,0,0,1,.14-.17A.81.81,0,0,0,99.09,233.82Zm-11.2,9.43.54-.37a.64.64,0,0,1-.2-.2h0l.15.15H89l.17.16c.06.07.19.26.3.38a25.24,25.24,0,0,1,2.51,5.4c-.34-.33-.66-.7-1-1l-.15-.16c-.27-.3-.57-.57-.83-.88h0l-.59-.68-.54-.64c-.42-.66-1.14-1.14-1-2.11Zm17.82,29.48c-.3.39-.75,0-1.15-.27a3.71,3.71,0,0,1-1-.88h0a6,6,0,0,1,.31-1.52h0a.78.78,0,0,0,.33-.48.91.91,0,0,1,.33-.37,1,1,0,0,0-.29.35c.37.54.42.57.89.17a.77.77,0,0,0,0,.37c0,.09.13.17.13.27a.47.47,0,0,0,.11-.25c0,.26,0,.54.35.54v-1.27c.09.19,0,.49.2.6a.14.14,0,0,0,0-.09v.74c.41,0,.54-.19.54-.58a.76.76,0,0,1-.25-.83h0A2.22,2.22,0,0,1,107,271c.26,1-.78,1.17-1.23,1.76Zm86-35.84v-.21h0v.12h.58a6.5,6.5,0,0,1,1.51.65,5.94,5.94,0,0,1,1.54,1.33c.32.37.66.77.44,1.33h.07a1.09,1.09,0,0,1-.44,0,6,6,0,0,0-3.9-1.72.26.26,0,0,1-.21,0h-.06c-.17-.41,0-.89.44-1.55ZM71.24,251.64V252a1.63,1.63,0,0,1,1.15-.43,1.33,1.33,0,0,1,.36.6,20.06,20.06,0,0,1,1.15,5.94l-.33-.54a16.36,16.36,0,0,0-1.14-2.1h0a9,9,0,0,0-.79-1.77,2.72,2.72,0,0,1-.4-1.72v-.33Zm118.84,13.1c-.13-.23-.26-.49-.4-.72h0a.26.26,0,0,0,0-.21,1.21,1.21,0,0,1-.24-.21h0a.72.72,0,0,0,.21.18c-.11-1.08-.7-2.08-.54-3.28a10.49,10.49,0,0,1,1.68,3.56c.09.29.16.58-.26.77a.49.49,0,0,1-.44,0Zm18.86-54.57c.11.19.32.4.12.67a.53.53,0,0,1-.25,0,1.81,1.81,0,0,0-.72-.59,6.33,6.33,0,0,0-3.57-1.41h-.3a1.46,1.46,0,0,1-.39-.12c.1-1.08.21-1.15,1.15-1.15a8,8,0,0,1,1.67.42,5.47,5.47,0,0,1,2.29,2.13Zm-9.81,1.36a1.27,1.27,0,0,1,1.5-.28l1,.41a4.83,4.83,0,0,1,.72.54h0a4.82,4.82,0,0,1,1.29,2.11l-.06.08a6.23,6.23,0,0,0-4-2h-.3a1.35,1.35,0,0,1-.19-.85.56.56,0,0,1-.17-.09h.24Zm41.07,69a.65.65,0,0,0,.47.09h.6v-.08h0v.1a4.53,4.53,0,0,0,2.36-.25,2,2,0,0,1,.49-.15.36.36,0,0,1,.16.22.6.6,0,0,1-.38.58,4.75,4.75,0,0,1-3.38.23h-.22l-.41-.19a1.75,1.75,0,0,1-.39-.28.29.29,0,0,1,0-.31ZM119.63,189l-.11.08a1.4,1.4,0,0,0,1.22.2h0l1.45.11h0a15.15,15.15,0,0,0,3.42.54v.15h0a16.38,16.38,0,0,1-7.68.46h0a.73.73,0,0,1-.37-.16l-.39-.46h0c.54-1.08,1.5-.81,2.29-.81l.11-.09h0Zm-2.45,4.52h0a3.43,3.43,0,0,1,2.48-.13c.6.08,1.15.19,1.79.29a19.88,19.88,0,0,1,2.57.86l-5.73.28a2.33,2.33,0,0,1-.74-.11h-.12a2.28,2.28,0,0,1-.16-1H117a.33.33,0,0,1,.07-.16Zm17.51,85v-.43h0a.37.37,0,0,0,0-.21.86.86,0,0,0,0-.32h0a.81.81,0,0,1,0,.31,6.47,6.47,0,0,0,1.15-3.08h0a.32.32,0,0,0,.08-.28h0a4.75,4.75,0,0,0,.19-2.45c0-.1-.06-.21-.08-.31h0a2,2,0,0,0,.09.33l.41-1.15h0a2.37,2.37,0,0,1,.84,0,1.32,1.32,0,0,1,.4.91v.54a8.44,8.44,0,0,1-1.91,5.51,5.43,5.43,0,0,1-.63.64.44.44,0,0,1-.56,0Zm46.69-12.69a2.7,2.7,0,0,0-.19-.63v-.37h.07V264c.23-.18.07-.39,0-.58h0v-.88a1.3,1.3,0,0,0,.14-.26c.12-.24,0-.65.42-.66h.06v.08a13.25,13.25,0,0,1,.54,3.7.57.57,0,0,1-.54.59h0a.63.63,0,0,1-.53-.1Zm34.23-58.19a.35.35,0,0,1-.11.45h-.13a1.47,1.47,0,0,0-.83-.7h0a7,7,0,0,0-4-1.93.94.94,0,0,1-.43-.13.46.46,0,0,1-.13-.08,1,1,0,0,1,.21-1.05h0v.07l.07-.07,1-.06.07.06a6.91,6.91,0,0,1,3.24,1.83,6.56,6.56,0,0,1,1,1.61Zm6.54,67.17a.09.09,0,0,1,0-.07.07.07,0,0,0,.06.07,1.25,1.25,0,0,1,.8-.33h0a8.45,8.45,0,0,0,1.08.81c.21.15.43.29.65.42.57.37,1.14.71,1.71,1.15a5.54,5.54,0,0,1-4.06-1.47.8.8,0,0,1-.25-.32v-.26Zm-55.74-9.18a.58.58,0,0,0,.18.26h0a.19.19,0,0,1-.11-.07.26.26,0,0,1,0-.21Zm7.32-4.32c0,.08.12.17.17.24l.3-.72a.25.25,0,0,0,.17,0l.08-.1a.38.38,0,0,1,.11.23c.1.79.17,1.59.25,2.38h0a14.6,14.6,0,0,1-.1,2.19h0a.54.54,0,0,1-.54.54h0a.53.53,0,0,1-.36-.13v-4.2l-.11-.17a1.43,1.43,0,0,1,.09-.27ZM279.9,252l-.19-.17h0a.91.91,0,0,0,.21.18ZM136.78,282.42h0a1.71,1.71,0,0,1-.18-.2h0A1.12,1.12,0,0,0,136.78,282.42Zm8-8.93h0l.12.08a.27.27,0,0,1-.12-.09Zm63.47-74.67h0v-.15h0v.15a.73.73,0,0,0,.54-.25h0a.62.62,0,0,1-.47.25Zm7.79-.46Z"/>
              <path class="cls-8" d="M69.12,244.13v0h0v.07a.75.75,0,0,0,.59-.32.54.54,0,0,1,.59-.34.39.39,0,0,1,.29-.25h0a.34.34,0,0,0-.3.25.34.34,0,0,0,.3-.25h.11l.12-.06a1,1,0,0,0,.9-.29v-.2h0v.14a.65.65,0,0,0,.6-.22l.07-.13h.1a.66.66,0,0,0-.17.24l.58-.16a.45.45,0,0,0-.24-.14h.12l.12.08a4.84,4.84,0,0,0,2.4-1h.06v-.13h0a.57.57,0,0,1,0,.26,11.13,11.13,0,0,0,2.82-2.05h.07a10.19,10.19,0,0,0,2.43-1.46l-.14-.21h0l.13.21a.69.69,0,0,0,.61-.32h0l.27-.13a.22.22,0,0,0,.25-.14.33.33,0,0,0,.27-.24L82,237.1h.1a.61.61,0,0,1,.12.16.24.24,0,0,0,.18,0h0l1.25-.84-.17-.17.12-.08.14.12.58-.37a.32.32,0,0,0,.21-.08h.08a16.34,16.34,0,0,0,3.89-3.29c1.62-1.83,3.05-3.78,4.58-5.72a.28.28,0,0,1,0-.13.42.42,0,0,0,.17-.18h0l.16-.19.07-.07h0v0l-.13-.27.07-.09.13.27a.47.47,0,0,0,.33-.42v-.09a1.14,1.14,0,0,0,.54-.66v-.21h.07a2.58,2.58,0,0,0,1-1.14,1,1,0,0,0,.51-.66,36.23,36.23,0,0,0,3.78-5.66,1.15,1.15,0,0,1-.25-.12h0a1,1,0,0,0,.17.1.33.33,0,0,0,.2-.35c0-.25,0-.49.32-.6V216h0v.41c-.3.12-.31.35-.31.6a.69.69,0,0,0,.31-.54h0a7.69,7.69,0,0,0,1.14-2.06.75.75,0,0,0-.41.14l.09-.16a.48.48,0,0,1,.28-.1,2.6,2.6,0,0,0,.61-1.23v-.3a.24.24,0,0,0,0-.12h0a.16.16,0,0,1,.08.13v.3a2,2,0,0,0,.59-1.14h0a4.47,4.47,0,0,0,.69-1.76l-.27-.13h0a1.16,1.16,0,0,0,.27.14,2.84,2.84,0,0,0,.49-1.54h0l1.32-4.49a2.09,2.09,0,0,0,.7-1.62h0v-.11a4.35,4.35,0,0,0,.54-2.29h.1v-.54a1,1,0,0,0,0-.24,13.19,13.19,0,0,0,.2-4.11h0V185.5c0-.41-.07-.49-.23-.46s-.12-.14-.3-.2l-2.42,1.22a17.71,17.71,0,0,1-5.35,2,11.19,11.19,0,0,0-4,1.44A19.39,19.39,0,0,1,92,190.67a1.79,1.79,0,0,1-1.14.31,1.15,1.15,0,0,1,0-.37h0a.63.63,0,0,0,.3-.49L91,190h0l.15.16,1.46-1.23,1-.54,0-.26h0l.15.13a3.76,3.76,0,0,0,1.42-.69,4.65,4.65,0,0,0,1.84-.86h0a.64.64,0,0,0,.57-.29v-.22h0v.27a15.13,15.13,0,0,0,3.31-1.54.62.62,0,0,0,0-.27h.08a.92.92,0,0,1,0,.33l.32-.09.3-.19v-.1a.57.57,0,0,0,.49-.27h.12v-.08a16.43,16.43,0,0,0,3.17-1.44h.13l.3-.11.28-.2v-.11a.69.69,0,0,0,.47-.22h.11a41.37,41.37,0,0,0,5.72-2.78.36.36,0,0,0,.08-.15,19.62,19.62,0,0,0,4.08-2V177h0v.22a.67.67,0,0,0,.6-.32h0l.35-.24a.71.71,0,0,0-.1-.14h0a.71.71,0,0,1,.1.14,3.69,3.69,0,0,0,1.52-.93h0a5.82,5.82,0,0,0,2.22-1.43h0a4.84,4.84,0,0,0,1.74-1.53.81.81,0,0,0,0-.38h0a.86.86,0,0,1,0,.39,4.81,4.81,0,0,0,1.58-1.77l-.12-.14.12.08a14.12,14.12,0,0,0,2-2.19h0A10.67,10.67,0,0,0,128,167.1h-.23l.28.06,4.15-3.44a.27.27,0,0,0,.3-.25h0a1.63,1.63,0,0,1-.11-.23l.09-.07a.85.85,0,0,1,.09.24.37.37,0,0,0,.3-.19,1.79,1.79,0,0,0,.86-.63,1.12,1.12,0,0,0,.09-.36h.06a.66.66,0,0,1-.09.33,1.8,1.8,0,0,0,.89-.59h0a8,8,0,0,0,2.18-1.45h-.09v-.09s0,.08.08.09a6.6,6.6,0,0,0,1.68-1.08l-.07-.2h0l.09.25a1,1,0,0,0,.66-.45h0a.48.48,0,0,0,.22-.12v-.2h0V159a5.67,5.67,0,0,0,1.5-.89l-.27-.1h0l.24.09a1.7,1.7,0,0,0,.91-.54h0a.81.81,0,0,0,.59-.33,1.58,1.58,0,0,0,.94-.54v-.16h0l.07.18a2.17,2.17,0,0,0,1.14-.68h0a15.59,15.59,0,0,0,5.4-4.23h0l.29-.35c0-.42,0-.84.63-.86h0c-.58,0-.6.43-.6.85a1.48,1.48,0,0,0,.63-.86h0a2.36,2.36,0,0,0,.85-1.14h.14a6.05,6.05,0,0,0,.85-1.48h0a75.6,75.6,0,0,0,4.86-10.3,8.2,8.2,0,0,0,1.16-2.11,2,2,0,0,1,1-1.14c.36.24.25.67.16,1a2.39,2.39,0,0,1-.14.43c-.79,2.49-1.62,5-2.61,7.4A34.75,34.75,0,0,1,143,160l-5.66,3.43a50.72,50.72,0,0,0-10.15,8,53,53,0,0,1-13.92,10.3,11.54,11.54,0,0,0-5.57,6.58c-.85,2.29-.17,4.36.3,6.48a1.77,1.77,0,0,0,.83.54.64.64,0,0,0,.73-.42,6.84,6.84,0,0,0,.35-1,21.26,21.26,0,0,1,6.68-10.66,1.13,1.13,0,0,0,.67-.54.43.43,0,0,1-.22-.18h0a.52.52,0,0,0,.19.17.21.21,0,0,0,.23-.11,2.54,2.54,0,0,0,0-.39h0a2.54,2.54,0,0,1,0,.39L119,181.5h0a10,10,0,0,0,2.05-1.21.34.34,0,0,1-.15-.14h0a.29.29,0,0,0,.14.13l3.31-1.58a.31.31,0,0,0-.14-.11h0a.57.57,0,0,1,.15.12,16.8,16.8,0,0,0,2.7-1.14,24.13,24.13,0,0,0,4.09-1.49,1,1,0,0,0-.08-.14h.09a.39.39,0,0,1,.08.14,1.14,1.14,0,0,0,.86-.32h0a14.5,14.5,0,0,0,3.34-1.15h.11v-.17h0a.67.67,0,0,0,0,.2,8.9,8.9,0,0,0,2.46-.87h0a2.7,2.7,0,0,0,1.14-.34h0a3.33,3.33,0,0,0,1.49-.61h0a3,3,0,0,0,1.28-.51h0a7.88,7.88,0,0,0,2.42-.95l-.23-.13h0l.22.11a.58.58,0,0,0,.54-.28l-.11-.12h0l.13.14.3-.08h0a.26.26,0,0,0,.25-.18h0a5,5,0,0,0,2-1.15v-.11h0v.21a4.34,4.34,0,0,0,1.89-1.55h0l.22-.25v-.49h0v.36a.46.46,0,0,0,.34-.39h0a3.14,3.14,0,0,0,1.15-1.14h0c.14-.18.34-.34.34-.59a.69.69,0,0,0,.31-.6h0l.83-1.51h0a8.63,8.63,0,0,0,.95-2.1h0a2.14,2.14,0,0,0,.64-1.2,1.65,1.65,0,0,0,.54-.89h0c.12-.27.26-.54.38-.8a2,2,0,0,1-.17-.36h0a1.33,1.33,0,0,0,.16.34,31.55,31.55,0,0,0,3.5-9.08v-.07a.37.37,0,0,0,0-.29h0a4.63,4.63,0,0,0,.54-1.82.5.5,0,0,0-.35.27h0c.09-.14.18-.25.35-.25a50.26,50.26,0,0,1,2.16-5.06,19.75,19.75,0,0,0,1.49-3.24l-.25-.14h0l.24.11a.62.62,0,0,1,.32-.6,2,2,0,0,0,.6-1.15h0l2.93-5.26a.49.49,0,0,1-.26-.1.5.5,0,0,0,.26.08,4.62,4.62,0,0,0,.76-1.48h0a2.29,2.29,0,0,0,.77-1.22h0a5.88,5.88,0,0,0,1-1.69l-.14-.18h0a.75.75,0,0,1,.14.17,5.31,5.31,0,0,0,1.15-1.62h-.05l.29-.25.06.08c.5-.35.72-1,1.14-1.49,1.08-1.27,1-1.56-.16-2.7a2,2,0,0,0-.23-.18,3.61,3.61,0,0,0-3.61-.86c-2.7.71-5.4,1.56-8,2.53a64.69,64.69,0,0,0-17.39,10.63,23.72,23.72,0,0,0-2.42,2.49c-1.82,2.1-3.73,4.08-5.72,6-2.29,2.16-4.51,4.32-6.63,6.6a81,81,0,0,0-9.39,12.27,27.81,27.81,0,0,1-18,13.25,62.94,62.94,0,0,1-8.64,1.39c-.2,0-.42.13-.62,0a.2.2,0,0,0,0-.11,6.53,6.53,0,0,0,1.72-.94l.07-.08a.32.32,0,0,0,.19-.15H93a.67.67,0,0,1-.09-.14h0v.09a5,5,0,0,0,2.16-1.14h0l.82-.4a1.8,1.8,0,0,0,.85-.59h0l.85-.54a1.08,1.08,0,0,1-.08-.19h.06a.63.63,0,0,0,.08.23.29.29,0,0,0,.33-.21h0a4.47,4.47,0,0,0,1.41-1,1.41,1.41,0,0,1,0-.29h0a1.41,1.41,0,0,0,0,.29,1.76,1.76,0,0,0,.9-.59,38.51,38.51,0,0,0,6.7-5.65V164h0v.36a7.25,7.25,0,0,0,1.5-1.53h0a8.13,8.13,0,0,0,1.93-2.12h-.1a2.44,2.44,0,0,0,.84-1.14,1.07,1.07,0,0,1-.07-.19h0a1.86,1.86,0,0,0,.1.25,8.16,8.16,0,0,0,1.79-2.52h0a4.59,4.59,0,0,0,1.15-1.87h0a13.32,13.32,0,0,0,1.52-3.27h0a5.53,5.53,0,0,0,.65-2.05l-.11-.23.11.2a3.56,3.56,0,0,0,.81-2.17h0a8.54,8.54,0,0,0,.36-2.36,10.89,10.89,0,0,0,.3-3.55,30.66,30.66,0,0,0,.22-6.13l-.24.2h0l.26-.23v-7.79l-.19-.08v-.07l.19.08a23,23,0,0,1,3-10.26.87.87,0,0,1,.65-1,2.55,2.55,0,0,0,1.14-1.24h0c.14-.18.28-.35.4-.54h0a1.64,1.64,0,0,0,.88-1.15l-.13-.22h0l.13.14a.38.38,0,0,1,.25-.31c.76-1.45.76-2.43.11-3.06a1.6,1.6,0,0,0-1.24-.79c-3.83-.61-7.5-.65-10.94,1.52-.81.52-1.62,1-2.39,1.58a35,35,0,0,0-8.45,9.61,65.13,65.13,0,0,0-7.91,18,91.39,91.39,0,0,1-11.78,26.58,33.34,33.34,0,0,1-9.18,9.53,45.53,45.53,0,0,1-7.91,4.37A102.7,102.7,0,0,0,52,187.52a24,24,0,0,0-5.09,4.18,37.64,37.64,0,0,0-6.1,9.18,56.05,56.05,0,0,0-3.66,11c-1.62,6.95-3,14-5.52,20.69a5.74,5.74,0,0,0,.54,4.94,12.46,12.46,0,0,0,1.42,2,1.73,1.73,0,0,0,.17.21.35.35,0,0,1,.1.11c2.9,3.15,5.91,6.19,8.64,9.51a9.27,9.27,0,0,0,2.09,1.86,8.6,8.6,0,0,0,3.89,1.66c4.68,1,8.46-1.25,12.18-3.61h0v-.09a.94.94,0,0,0,.72-.6h.12a.13.13,0,0,0,.1-.15h0l.22-.32h0a2.71,2.71,0,0,0,.54-1.76h0a1.53,1.53,0,0,0,0-.9l-.12-.1h0l.25-.07a8.82,8.82,0,0,0-.63-3.62h-.06a6.26,6.26,0,0,0-1.15-2.29v.07h0a.21.21,0,0,0,0-.11,9.54,9.54,0,0,0-2.57-3.34l-.17-.18a3.12,3.12,0,0,0-2-.95c-.4,0-.84-.08-1,.48s0,.71.35.84a.6.6,0,0,0,.42.25h.38a2.07,2.07,0,0,1-1.58.39l-.49-.45h0a5,5,0,0,1,.33-1.43h0l.25-.31a1.42,1.42,0,0,0-.08-.18h0a.34.34,0,0,0,.09.19A4.19,4.19,0,0,1,58,234.1h0c3.36,1.71,5.27,4.32,5.1,8.2-.06,1.38.15,2.16,1.62,2.67A3.44,3.44,0,0,0,69.12,244.13Zm47.71-96.36h0v-.07h0ZM103,140.4h0a5.53,5.53,0,0,1,.32-3.24h0c.18-.1.36-.24.57-.17.64.23.87-.23,1.14-.64,0-.06,0-.12-.07-.18l.21-.1.07.18a4.9,4.9,0,0,1,1-.26,6.29,6.29,0,0,1,1.62,1.33.24.24,0,0,0,0,.12.23.23,0,0,0,.19.07,5.11,5.11,0,0,1,.54.75c.62.83,0,1.84-.61,2.59-.46.47-.94.92-1.45,1.35a.25.25,0,0,1-.09-.24.59.59,0,0,0,.42-.77.81.81,0,0,0-.27.11,1,1,0,0,0,.12-.6c-.49.17-.54.84-1.14,1a.49.49,0,0,1,0-.17c.11-.62.26-1.23.42-2a1.34,1.34,0,0,0-.43.39,1.88,1.88,0,0,0,0-.58c-.74.67-.65,1.59-1,2.55l-.07-.1v-.23h-.13a2.41,2.41,0,0,1-.12-1.3v.82h.28a.66.66,0,0,1,0-.28c-.14-.35.24-.87-.3-1.14v.09a1.45,1.45,0,0,0-.1-.41c-.54.7,0,1.46-.39,2.07a3.05,3.05,0,0,1-.58-.66Zm.57,4.77a1.82,1.82,0,0,1,.59-1.5.48.48,0,0,0,0-.17.48.48,0,0,1,0,.17,1.94,1.94,0,0,1,.92-.14,1.13,1.13,0,0,1,.67,1,.81.81,0,0,1,0,.22,1,1,0,0,1-1.13.93h0a1.26,1.26,0,0,1-1-.49Zm3.32,1.66h0c.1-.32.35-.26.57-.25a.49.49,0,0,0,.13.12h0a.8.8,0,0,0,1.08.34l.06,0-1.14-.72v.08h0v0l-.29-.34-.09-.09h0l.09.09c.36-.5.79-.22,1.15-.12a2.51,2.51,0,0,0,1.53.17,2.3,2.3,0,0,0-.68-.43c-.57-.46-1.33-.37-2-.73v-.09h0c.78-.25,1.62.16,2.6-.18l-.38-.06h.08c-.62-.5-1.32-.09-1.89-.28-.1-.27.11-.42.31-.54a5.52,5.52,0,0,1,2.7-.67,1.64,1.64,0,0,1,.38.1,1,1,0,0,0,.54.16,1.33,1.33,0,0,1,.32.15l.12.12a.24.24,0,0,1,.09.25c-.32,1.14,1.49,1.58,1,2.8a8.83,8.83,0,0,1-2.65,2.29,2.55,2.55,0,0,1-1.86-.38,5.78,5.78,0,0,1-1.73-1.68Zm-4.21.36h.14a1,1,0,0,1-.19.41.53.53,0,0,0,0-.35c-.4.15-.54.45-.48,1l.27-.38a.5.5,0,0,0,.09.6,4.59,4.59,0,0,0,.76-1.23h.24c.2.67-.43,1.32-.21,2.09a1.75,1.75,0,0,0,.24-.23,1.62,1.62,0,0,0,0,.44c.58-.23.48-.75.68-1.14s.06-.72.27-1c.32.6-.38,1.36.05,1.95a.41.41,0,0,0,.14-.12,1.06,1.06,0,0,0,.12.5c.57-.34.43-.84.43-1.23a1.26,1.26,0,0,1,.23-.94,2.09,2.09,0,0,1,.67,1.49c.15.9.24,2.16-.47,2.53a24.21,24.21,0,0,1-2.66,1.3.48.48,0,0,1-.29,0,5.55,5.55,0,0,1-.54-.34,3.29,3.29,0,0,0-1.37-1.27q-.17-.21-.3-.42a6.12,6.12,0,0,1,.09-2.09h0a14,14,0,0,1,2-1.87c.13,0,.12.19.14.29Zm-2.5,2.16h0a1.3,1.3,0,0,1,0,.73V150a1.72,1.72,0,0,0,0-.64ZM90,169a.58.58,0,0,1,.08-.22h0a.49.49,0,0,1,.19-.16.25.25,0,0,0,0-.17v-.07a.31.31,0,0,1,0,.23,1.85,1.85,0,0,0,.59-.91h0l.23-.33-.07-.24V167c0,.09,0,.17.08.25a21.14,21.14,0,0,0,1.49-1.83,1.15,1.15,0,0,1,1.24-.58l-.13-.13a1,1,0,0,1,.26.2h0a.76.76,0,0,1,0,1.05h0a8.28,8.28,0,0,1-1.68,1.56,9.63,9.63,0,0,1-2.37,1.56A.38.38,0,0,0,90,169Zm3.35-10.39h0a5.56,5.56,0,0,0,1-1.79h-.12l.2-.35a.09.09,0,0,1,0-.07l.1-.18h0a1.08,1.08,0,0,0,.45-.6h.18a.21.21,0,0,0,.1-.14,1.44,1.44,0,0,1,1.15,0,.8.8,0,0,1-.11,1,3.64,3.64,0,0,1-.54.7,35.37,35.37,0,0,1-2.61,2.44c-.21-.31.06-.64.18-1Zm1.92-3.29.1-.23h0Zm-5.94,63.83c0,.61-.7.87-1.73.54-1.44-.44-2.84-1-4.24-1.5-.21-.07-.44-.17-.47-.43h1.4a.39.39,0,0,0,.26,0h0c1.14.54,2.5.28,3.78.54a3.5,3.5,0,0,1,.76.23.67.67,0,0,1,.22.63ZM69.66,197.9a1.4,1.4,0,0,1,0,.29,1.71,1.71,0,0,0,.89-.94,1,1,0,0,1-.08-.29h0a1,1,0,0,0,.08.29,2,2,0,0,0,.54-.93,3.42,3.42,0,0,1-1,2.72,9.35,9.35,0,0,1-2.77,2.07c-1.08.57-2.21,1.15-3.35,1.72a15,15,0,0,0-5.17,4.26,9.5,9.5,0,0,0-2.06,6.31v1.15a.68.68,0,0,1-.59.76h0a.69.69,0,0,1-.63-.23,2,2,0,0,1-.14-.25.29.29,0,0,0,0-.13l-.14-.22v-.07h.06V212.9h0v-.26h0a4.4,4.4,0,0,0,.32-1.79h0a1.65,1.65,0,0,0,.29-.89.65.65,0,0,0,.27-.62.57.57,0,0,1-.26,0h0a.49.49,0,0,0,.24,0,21.46,21.46,0,0,1,2.16-3.63l3-2.78a.69.69,0,0,1-.35,0h0a.69.69,0,0,0,.35,0v-.21h0v.22l1.49-.88h0a1.76,1.76,0,0,0,.92-.51.61.61,0,0,0-.07-.24h0a.54.54,0,0,1,0,.18,6.64,6.64,0,0,0,2-.85h0a4.73,4.73,0,0,0,2.13-1h0l.54-.38v-.16h0v.22a2.37,2.37,0,0,0,.85-.54l-.16-.17h0l.14.14h0a.87.87,0,0,0,.62-.54.42.42,0,0,0,0-.27Zm11.93,25.84h0a19.56,19.56,0,0,1-1.53-1.34.28.28,0,0,1,.1-.09,18.07,18.07,0,0,1,2.29.76l1.62.77c.39.21.78.43,1.15.67a.82.82,0,0,1,.4,1.09s0,0,0,.05c-.28.54-.73.44-1.15.17a26.16,26.16,0,0,1-2.84-2.08ZM73.65,204h0a4.19,4.19,0,0,0,1.48-1.23.43.43,0,0,1-.15-.2h0a.53.53,0,0,0,.17.25,6.12,6.12,0,0,0,1.78-2.43h0a1,1,0,0,0,.23-.86h0a.3.3,0,0,0,0-.29h0c.29-.29.54-.34.68-.26a.17.17,0,0,1,0,.1c.29,1.62.54,3.2-.49,4.65-.3.41-.54.85-.86,1.23a12.36,12.36,0,0,0-2.64,6.62c-.14,1.34-.24,1.53-1,2.16a6.53,6.53,0,0,0,0-2.07,1,1,0,0,0-.19.21h0a1.1,1.1,0,0,1,.19-.25,3.81,3.81,0,0,0-1.31-3.74,6,6,0,0,0-3-1.51l-.59-.11c.11-.4.54-.44.73-.67a6.24,6.24,0,0,0,5-1.6Zm-5.18,5.34h.11l.39.26a.84.84,0,0,1,.18.79c-.13.57-.54.17-1,.17-.22.07-.61.07-1,.14h-.29a1.11,1.11,0,0,1-.41-.54l.26-.54a.93.93,0,0,1-.14-.14h0l.32-.25h.13l-.08.16Zm21.85-5.4a.8.8,0,0,1,.08.16.66.66,0,0,1-.4.85h0c-1.62.85-3.24,1.67-4.9,2.5h0a10.16,10.16,0,0,1,2.16-2,1.42,1.42,0,0,1-.07-.22h0a.62.62,0,0,0,.1.22A4.88,4.88,0,0,0,89.15,204h0c.61-.22.87-.32,1.15-.2a.64.64,0,0,1,.08.14Zm-1.73-5.1c-1,.92-2,1.83-3.06,2.74,0-.15.12-.29.16-.44l1.49-2.37h0l.27-.5a.48.48,0,0,0,0-.17l.08-.09v.22a2,2,0,0,1,1-.54l.09.07c.42.37.27.76-.06,1.05Zm-28.2,14.27a9,9,0,0,0,.15-1V212c2,3.78,3,4.58,4,5.11h0c.24.12.48.25.74.41l.18.1a4.11,4.11,0,0,1,.39.24,13.49,13.49,0,0,0-3.24,1.95,4.25,4.25,0,0,1-1.47.74,1.27,1.27,0,0,1-1.43-.27,32.73,32.73,0,0,1,.71-7.19Zm24.89.54a.79.79,0,0,1,.16-.39,6.85,6.85,0,0,0,2.7-.29.2.2,0,0,0,0-.11h0a.2.2,0,0,1,0,.11l.92-.07.1-.13-.09.13a12.37,12.37,0,0,1,1.49-.18.62.62,0,0,1,.26.45.49.49,0,0,1-.26.49.64.64,0,0,1-.41.2,12.67,12.67,0,0,1-4.83-.2Zm-19.75-13v-.16h0Zm-11.86,5.87a.73.73,0,0,1-.62.81h-.21a.55.55,0,0,1-.25-.07s0-.1-.06-.13h0a.92.92,0,0,1,.69-1.12.58.58,0,0,1,.19,0,1,1,0,0,1,.26.54Zm-2.27,6.94a1.28,1.28,0,0,1,.22-1.43l-.09-.11h0l.09.1h.48a.78.78,0,0,1,.37.59.54.54,0,0,1,0,.18.72.72,0,0,1-.71.76h-.11a.57.57,0,0,1-.25-.08Zm14.74-16.9h0a.45.45,0,0,1-.48.41h0a.39.39,0,0,1-.33-.16v-.21h0a.54.54,0,0,1,.54-.54H66A.51.51,0,0,1,66.14,196.56Zm-4,1.22a.24.24,0,0,1,0,.12c0,.25-.17.32-.36.32h-.18a.48.48,0,0,1,.53-.44ZM86,171.62a.74.74,0,0,0,0,.21H85.9v-.12Zm-.28,1.14.32-.92h.06a1.11,1.11,0,0,1,1.14,0,1.47,1.47,0,0,1,.24.64c-.09.54-.33,1-.93,1h0a1,1,0,0,1-.65-.26.11.11,0,0,1-.09-.08c0-.08,0-.08-.08-.11a.28.28,0,0,0,0-.18H85.6ZM56.5,201.1l.26-.21H57a.56.56,0,0,1,.29.47.51.51,0,0,1-.42.43.55.55,0,0,1-.44-.14,2.44,2.44,0,0,1,0-.54h-.08l.06-.09A.15.15,0,0,0,56.5,201.1Zm12.62-7.4h0a.33.33,0,0,1-.28.37h0a.31.31,0,0,1-.18-.09v-.36h0l.07.11a1.23,1.23,0,0,1,.54,0S69.12,193.66,69.12,193.7Zm7.93,36.15-.08.08h0v-.31a.36.36,0,0,1-.14-.16h0a.65.65,0,0,0,.15.18,1,1,0,0,0-.24-1v.41h0v-.41a5.82,5.82,0,0,0-.22-1.86,4.77,4.77,0,0,1,.17-.93h0c.59,1.45,1.21,2.9,1.79,4.35a1.26,1.26,0,0,1,.08.58.61.61,0,0,1-.38.61.65.65,0,0,1-.63-.07ZM103.23,128.1a1.05,1.05,0,0,1,.06.24l1.27-.83h.29a1.6,1.6,0,0,0,1.86-.32,4.22,4.22,0,0,1,2.47-.94h.12c.26.32.63.28,1,.29l.42.21a5.45,5.45,0,0,1,1.15,1.15,3.24,3.24,0,0,1,.47,1.39,1.14,1.14,0,0,0,.67,1.08l.16.09.35.23a1.82,1.82,0,0,1,.64,1.59,2.06,2.06,0,0,1-1.56,1.83,7.09,7.09,0,0,0-.75-1.77h0l-.13-.28V132a.3.3,0,0,0-.23-.29h0a3,3,0,0,0-.75-.91,5.25,5.25,0,0,0-6.86-.59,1.29,1.29,0,0,1-.74.31v-.06h0a.47.47,0,0,1-.17-.2h0V130a.37.37,0,0,0,.17.18V129h0l.28-.65a.64.64,0,0,0-.06-.18Zm-5.75,12.84a1.66,1.66,0,0,0,.26.47,2,2,0,0,1,1.14-1.22H100a6.22,6.22,0,0,1,2.26,2c.07.08.17.15-.11.34l-.07.07a.38.38,0,0,0-.36,0l.2.29a.79.79,0,0,0,.08.5c-.94.14-1.67-.33-2.7-.32a2.72,2.72,0,0,0,.3.29h0a3.27,3.27,0,0,0,2.16.73l.16.06c-.37.54-.93.36-1.27.36s-.69-.35-1.14,0a1.07,1.07,0,0,0,.42.28,2.09,2.09,0,0,0,1.66.19,3.52,3.52,0,0,1-4.14.72c-.25-.4-.28-1-.54-1.35h0l-.08.06h0l.08-.06c-1.08-1.14-1.14-2,.62-3a2.69,2.69,0,0,1-.16-.29,1.09,1.09,0,0,0,.08-.15Zm-2.07,40.92-.1-.17Zm1.33.87a.14.14,0,0,1-.09,0,1.05,1.05,0,0,1-.78,0l-.42-.69-.09.1h0l.08-.1a.17.17,0,0,0,0-.17v.06a2.09,2.09,0,0,1,1.7-1.24,6.24,6.24,0,0,0,1.54-.4.55.55,0,0,1-.16-.18h0a.74.74,0,0,0,.13.12.68.68,0,0,0,.66-.19h0a22.67,22.67,0,0,0,2.7-.35,1.85,1.85,0,0,1,.37-.19,3.89,3.89,0,0,1-1.14.79c-1.15.71-2.43,1.37-3.65,2.05a4.36,4.36,0,0,1-.85.39Zm37-26.43a1,1,0,0,0-.27-.45h0q-.08-.43-.12-.9h-.09l.38-.57h-.13l.12.05h0a4.59,4.59,0,0,1,1.14-.48,3.3,3.3,0,0,1,.59.38.66.66,0,0,1,0,.48c-.26.08-.46.21-.34.47,0,.07.2.12.33.13h0c.54.54.54,0,.62-.3a1.76,1.76,0,0,1,.14.23c0,1-.54,1.44-1.7,1.51h0a1.48,1.48,0,0,1-.67-.54Zm2.46-1.34-.54.26v-.58h0a1.28,1.28,0,0,1,.24-.11,2.71,2.71,0,0,1,.3.45Zm-2.43-5.24v.33a1.51,1.51,0,0,1,1.08-.17,1.53,1.53,0,0,1,.75,1.08,4,4,0,0,1-.49,1h-.22l.08.14a3.71,3.71,0,0,1-.67.7,1.38,1.38,0,0,1-1.15-.37,2.9,2.9,0,0,1-.4-1c-.24-.95.15-1.25.9-1.45v-.3Zm2.35,3.78a.48.48,0,0,1-.09-.4.6.6,0,0,1,.61-.5h.07a.53.53,0,0,1,.19.44.55.55,0,0,1-.61.51l-.18-.07Zm1-4.16.89-.12h0a4.21,4.21,0,0,1,.71,0c.43.17.65.57.8,1.33a1.24,1.24,0,0,1-.84,1.43,1,1,0,0,1-1-.08c-.45-.17-.15-.48-.15-.72a1.77,1.77,0,0,1-.67.26.36.36,0,0,1-.2-.06v-1.14l-.16-.22v-.11a1.39,1.39,0,0,0,.21.27.3.3,0,0,0,.09-.24h0a.76.76,0,0,0,.19-.46H137ZM122.23,166.1h.07l.24-.26h0q.31.07.63.18a.81.81,0,0,1,0,.22.59.59,0,0,1-.54.61h0a.67.67,0,0,1-.2,0,1.06,1.06,0,0,1-.24-.75Zm2.84-2.87a1.64,1.64,0,0,0,.2-.65.47.47,0,0,1,.27-.34.71.71,0,0,0-.1-.14.11.11,0,0,1,0-.08l.13.17a.59.59,0,0,0,.32-.59h0l.29-.58a.26.26,0,0,0-.15-.16v-.07a.27.27,0,0,1,.18.18.7.7,0,0,0,.32-.57c.59-.65.85-1.53,1.55-2.09h.54a.78.78,0,0,1,.26,1.06v0a2.22,2.22,0,0,1-.43.62,30.73,30.73,0,0,1-3.41,3.24Zm-6.87,6a.41.41,0,0,0,.47,0c.31-.12.61-.27.92-.42a1.88,1.88,0,0,1,.23-.16l.29-.09a17.92,17.92,0,0,1-3.84,3.43.52.52,0,0,1-.19.14.78.78,0,0,1-.78,0,.62.62,0,0,1-.11-.17h0a.75.75,0,0,1,.26-1h0l.84-.59h0c.5-.27,1.14-.34,1.33-.88Zm-14,9,.68-.08a.48.48,0,0,1,.15.28c0,.43-.2.66-.54.69h-.26a1.25,1.25,0,0,1,0-.81l-.31.14h0ZM138,156.12l-.37-.5c-.59-1-.59-1,.33-1.81v.27h.28a.58.58,0,0,0,.49-.15l-.44-.21c0-.38.26-.51.58-.54h0a1.67,1.67,0,0,1,1.27,1.85h0c0,.67-1,1.3-1.75,1.27a1,1,0,0,1-.39-.18Zm15.53-20.71a2.09,2.09,0,0,0,.54,1.15,1.14,1.14,0,0,1,0,1.38,1,1,0,0,1-.87.51.38.38,0,0,1-.15,0v-.09h0c0-.42.13-.86-.25-1.15h0a.8.8,0,0,0-.15.17v-.07l.14-.15a2.11,2.11,0,0,0-1.14-1.62h0a1.63,1.63,0,0,0-.64-.33,3.43,3.43,0,0,0-2.8-.22,1.06,1.06,0,0,0-.34.12,4.9,4.9,0,0,1-.08-.77h-.06l.79-.65h1.24v-.2h0v.2H150l.08.07a4.12,4.12,0,0,1,2.38-.23h0a2.4,2.4,0,0,1,1.08,1.88Zm-13.16,7.25v.13a5.63,5.63,0,0,1,3.1-.54,3.55,3.55,0,0,1,2.67,3.62c-.08.73.31,1.08.7,1.53a1.84,1.84,0,0,1,.06,2.61,1.8,1.8,0,0,1-.74.47,1.06,1.06,0,0,1-.74.1,1,1,0,0,1-.16-.75,1.66,1.66,0,0,0-.29-1.24h0l-.09.07h0l.07-.07a1.48,1.48,0,0,0-.54-1.14v-.09a1.29,1.29,0,0,0-.5-.73l-.08-.1h0a4.66,4.66,0,0,0-2.37-1.62,5,5,0,0,0-4.36.46,2.52,2.52,0,0,1-.25-.89h0l.26-.93a.67.67,0,0,1-.2.12v0a.58.58,0,0,0,.26-.13,2.2,2.2,0,0,1,1.76-.92,1.86,1.86,0,0,1,.34.06,2.23,2.23,0,0,0,.81.07ZM109.68,175c.47-.34.94-.7,1.45-1l.37-.11a1.2,1.2,0,0,1,.72.13.82.82,0,0,1-.35,1.08l-.12.05a25.68,25.68,0,0,1-4.45,1.9l1.77-1.7h0a.83.83,0,0,0,.54-.37l-.22-.16h0ZM98.43,163.39A9.79,9.79,0,0,0,100,161.1a6.13,6.13,0,0,1,2.06-2.29l-.14-.11H102l.13.1.54.14h0a.9.9,0,0,1,.08,1.23,4.75,4.75,0,0,1-.57.69,14.36,14.36,0,0,1-3.71,2.51Zm-61.6,75.75h0a1,1,0,0,1-.13-.16l-1.35-2.28a.48.48,0,0,1,0,.17h0v-.2c.27-1.47.27-1.47,1.77-1.75h0L37,235h.58a1.64,1.64,0,0,0,1.14.25c.72.35.81,1,.73,2.5a17.44,17.44,0,0,1-.35,3.3h0c-.2-.12-.4-.25-.58-.38A15.66,15.66,0,0,1,36.83,239.14Zm58.52-16h0a.61.61,0,0,1,0,.27h0a.74.74,0,0,0,0-.21Zm-4.51-47.58h0v-.07l.07-.06a.34.34,0,0,1,0,.2h0Zm60-25.38a.65.65,0,0,1,.08.27,2.51,2.51,0,0,0,0-.27ZM119,181.57l-.28-.07h0l.27.07ZM151.85,165a1.61,1.61,0,0,0-.31,0h0a1.5,1.5,0,0,1,.3,0Zm14.47-33.2h0a.2.2,0,0,0,0,.11Zm-57.6,30.67h0v-.24h0a1.4,1.4,0,0,1,0,.29Zm4.5-5.67v-.39h0Zm3.52-8.68a.14.14,0,0,0,0-.09.3.3,0,0,0,.08-.18c0,.19,0,.25-.08.29Zm.61-3h0a.38.38,0,0,0,0,.15.57.57,0,0,1,0-.13Z"/>
              <path class="cls-9" d="M255.12,283.53c-.27-.39-.69-.41-1.3,0a7.8,7.8,0,0,1-2.08,1.14c-2.55.78-5.09,1.56-7.65,2.29a15.73,15.73,0,0,1-7.46.54c-1.82-.34-3.66-.62-5.5-.9a33,33,0,0,1-16.45-7l-.2-.16a30.15,30.15,0,0,1-2.39-2.12,15.47,15.47,0,0,0-2.06-1.73.82.82,0,0,0-.47-.3,6.94,6.94,0,0,0-2.56-1.35,14.62,14.62,0,0,0-4.07-1,151.29,151.29,0,0,0-19.73-.82,28.61,28.61,0,0,0-12.91,3.24,15.72,15.72,0,0,0-4.58,3.43,8.34,8.34,0,0,0-2,4c-.08.54,0,.82.19,1,.13.3.5.35,1.15.14a13.24,13.24,0,0,0,4-1.75h0a.28.28,0,0,0,.3-.17v-.12h0V282a.42.42,0,0,0,.26-.12h0a.31.31,0,0,0,.29-.2h0v.07a.35.35,0,0,0,.27-.13.74.74,0,0,0,.63-.22h0a1.49,1.49,0,0,0,1-.3h0l.44-.07h.23l-.14.11h.28a4.08,4.08,0,0,0,1.8-.25h0v.09h1.8l.66.23a7.59,7.59,0,0,1-3.64,2.16,34,34,0,0,0-4.58,1.59,9,9,0,0,0-3.28,2.35,3.16,3.16,0,0,0-.42,3.65,2.58,2.58,0,0,0,.49.65.38.38,0,0,0,.09.13,1.24,1.24,0,0,0,1.75,0h0a14.65,14.65,0,0,1,2.55-1.54.5.5,0,0,1,0-.21h0a.81.81,0,0,0,0,.22.61.61,0,0,0,.58-.22h0l.33-.08h0a.33.33,0,0,0,.29-.18,2.06,2.06,0,0,0,1.15-.36l-.2-.14h0l.15.1a16.53,16.53,0,0,0,3.44-1.14h0a.23.23,0,0,0,.23-.08,1.8,1.8,0,0,0-.08-.21h0a.54.54,0,0,1,0,.18,23.9,23.9,0,0,0,4.57-1.7h0a15.46,15.46,0,0,0,3.44-.64h3.12l.26.11h0a3.05,3.05,0,0,1,.5.28,23.29,23.29,0,0,1-4.69,1.57,41.54,41.54,0,0,0-6.72,2.19c-.46.2-.92.39-.84,1.08s.46.82,1,.9c1,.2,1.89.36,2.83.54l.91.12c.64.08,1.29.15,1.93.21a13.71,13.71,0,0,0,3.78.19h.87c1.06,0,2.11.1,3.15.1h.31a52.35,52.35,0,0,0,7.92,0,.38.38,0,0,0,.17-.08h.24a3.26,3.26,0,0,0,1.32,0h0a35,35,0,0,0,6.62-.57h0a13,13,0,0,0,1.53-.06h2.37a11.42,11.42,0,0,1,1.55.06l1,.09a42.61,42.61,0,0,0,5.63.47l.65.06a12.69,12.69,0,0,0,3.63.31h.85a.58.58,0,0,0,.67.15h.3l.12-.09h0l-.12.09a4.1,4.1,0,0,0,1.48.06v-.07h.38c.45,0,.91.06,1.37.07h.2c2.55.13,5.1.15,7.65.18.85,0,1.71.08,2.56.15h.24v.05a2.06,2.06,0,0,0,.54.2,21.53,21.53,0,0,0,10.64-1.49l.12-.07a.27.27,0,0,0,.18-.11h0a.38.38,0,0,1,.09-.13,2.88,2.88,0,0,0,2-1.14l-.1-.07h0l.09.06.24-.24h0a4.25,4.25,0,0,0,1.56-2v-.13h0a4,4,0,0,0,.91-2.1h0a2.29,2.29,0,0,0,.27-1.33C255.5,284.63,255.58,283.88,255.12,283.53Zm-59.6-1.26a.3.3,0,0,1-.08-.08,9.89,9.89,0,0,1,8,.26,5.85,5.85,0,0,1,.47.4.64.64,0,0,1,.08.83.66.66,0,0,1-.77.34,2.73,2.73,0,0,1-.57-.19c-3.73-1.47-4.08-1.62-7.09-1.56Zm5.37-5.73-.11.1a1.91,1.91,0,0,0,1.14.31,6.23,6.23,0,0,1,1.15.66.68.68,0,0,1,0,.59.77.77,0,0,1-.82.54,4.05,4.05,0,0,1-1.14-.28,14.06,14.06,0,0,0-8-.74,1.62,1.62,0,0,1-1,0,1.08,1.08,0,0,1-.12-.24l-.09.1h0l.07-.08.92-.58-.24-.11h0l.26.12a18.78,18.78,0,0,0,2.43-.61h3.58v.08l1.81.3.12-.09Zm-3.15,12.23a12.44,12.44,0,0,1,7.06-.72.78.78,0,0,1,.34,1.05.79.79,0,0,1-.84.42h0l-2.08-.35a43.84,43.84,0,0,0-4.44-.4Z"/>
              <path class="cls-10" d="M293.58,274.32a3.35,3.35,0,0,0,.22-2.16h0a4.89,4.89,0,0,0-.21-2.08h0v-.29h-.06a1.44,1.44,0,0,0-.61-1.42,1.6,1.6,0,0,1-.28-.4,31.92,31.92,0,0,0,.32-4.48h0a.34.34,0,0,0,0-.28h0a3.75,3.75,0,0,0,0-2.56.67.67,0,0,1,0-.2h0a3.7,3.7,0,0,0-.33-2.1h0a1.79,1.79,0,0,0-.34-1.14h0a.55.55,0,0,0-.26-.61h.11a1.39,1.39,0,0,0-.39-.9l-.05-.08a.3.3,0,0,0-.1-.2l-.05-.07h0a.65.65,0,0,0-.29-.54v-.09h0a2.23,2.23,0,0,0-.77-1.15l-.26-.34A2.73,2.73,0,0,0,290,253a7.85,7.85,0,0,0-4.11-2.38,2.29,2.29,0,0,0-2.81,1.14,10.25,10.25,0,0,1-2,2.6,8.73,8.73,0,0,0-1.45,1.92,22.93,22.93,0,0,1-3.92,5.15,74.42,74.42,0,0,1-12.85,10.92,36,36,0,0,0-3.56,2.55,3,3,0,0,0-.91,4,15.66,15.66,0,0,0,2.77,4l.38.36a15.34,15.34,0,0,0,1.57,1.35,11.86,11.86,0,0,0,5.72,2.7v-.14h.43l-.08.05a3.83,3.83,0,0,0,2.11.33v-.09a8.79,8.79,0,0,0,2.05,0l.12-.09h.1l-.17.13c.59,0,1.14.09,1.83.1a9,9,0,0,0,3.65-.34h0a3.21,3.21,0,0,0,1.72-.37.67.67,0,0,0,0-.2h.07a.85.85,0,0,1,.05.24,15.91,15.91,0,0,0,4.24-1.76.42.42,0,0,1,.34-.26.28.28,0,0,0,.25,0v-.1a.34.34,0,0,0,.29-.16h0a13.66,13.66,0,0,0,4.47-3.95h0a9.39,9.39,0,0,0,2.42-3.61h0a5.36,5.36,0,0,0,.92-2.7,5.59,5.59,0,0,0-.08-.59h0A2.72,2.72,0,0,1,293.58,274.32Z"/>
              <path class="cls-11" d="M209.06,272.41a13.78,13.78,0,0,0,1.56,1.3,2.81,2.81,0,0,0,1.92.79,4.36,4.36,0,0,0-1.14-1.28,3.87,3.87,0,0,0-.91-.7h0a4.13,4.13,0,0,0-1.94-.54l.34.32a.33.33,0,0,0,0,.14Z"/>
              <path class="cls-12" d="M121.08,117.53a1.14,1.14,0,0,0,.66-.93A.89.89,0,0,0,121.08,117.53Z"/>
              <path class="cls-13" d="M162.75,139a.68.68,0,0,0,.31-.61A.62.62,0,0,0,162.75,139Z"/>
              <path class="cls-14" d="M69.76,243.8a.62.62,0,0,0,.58-.34A.54.54,0,0,0,69.76,243.8Z"/>
              <path class="cls-15" d="M111.43,291.72c-.1-.16-.19-.15-.28,0Z"/>
              <path class="cls-16" d="M118.69,272.12l-.31.29h0a5.19,5.19,0,0,0,.6-.61h0Z"/>
              <path class="cls-17" d="M119.26,271.53h0l-.27.31A.33.33,0,0,0,119.26,271.53Z"/>
              <path class="cls-18" d="M124.35,113.29a.36.36,0,0,0-.24.32.28.28,0,0,0,.24-.31Z"/>
              <path class="cls-19" d="M152.16,263.94a.26.26,0,0,0,.24-.26Z"/>
              <path class="cls-20" d="M125.32,162.54l.24-.08a.62.62,0,0,0,0-.27A.49.49,0,0,0,125.32,162.54Z"/>
              <path class="cls-21" d="M103.2,268.48c-.11-.27-.36-.27-.57-.32C102.55,268.53,102.55,268.53,103.2,268.48Z"/>
              <path class="cls-22" d="M103,266.47c-.09,0-.09.16-.09.16l.37.07A.33.33,0,0,0,103,266.47Z"/>
              <path class="cls-23" d="M248.78,255.76a.21.21,0,0,0,.25-.15h0v-.08c0-.14-.1-.28-.27-.21a.49.49,0,0,0-.18.17C248.51,255.64,248.62,255.74,248.78,255.76Z"/>
              <path class="cls-24" d="M245.84,255.05h.09a.22.22,0,0,0,.06-.3h0c0-.1-.16-.1-.23-.1s-.27.18-.16.33A.26.26,0,0,0,245.84,255.05Z"/>
              <path class="cls-25" d="M243.85,253.29a.28.28,0,0,0,.26-.29h0a.27.27,0,0,0-.29-.24c-.15,0-.23.1-.23.28A.26.26,0,0,0,243.85,253.29Z"/>
              <path class="cls-26" d="M237.65,241.05a.33.33,0,0,0,.25-.35A.51.51,0,0,0,237.65,241.05Z"/>
              <path class="cls-27" d="M90,169l.28-.42A.5.5,0,0,0,90,169Z"/>
              <path class="cls-28" d="M94.56,156.18c-.14,0-.32.07-.11.27A.32.32,0,0,0,94.56,156.18Z"/>
              <path class="cls-29" d="M134.74,151.81l.21.11C135,151.8,135,151.64,134.74,151.81Z"/>
              <path class="cls-30" d="M151.37,134a.31.31,0,0,0-.23,0,.24.24,0,0,0,0,.12.17.17,0,0,0,.14.18h0c.07,0,.15-.13.22-.13S151.43,134,151.37,134Z"/>
              <path class="cls-31" d="M152.09,134.41c-.09.09,0,.23,0,.23l.17-.13c.08-.06,0-.15,0-.23Z"/>
              <path class="cls-32" d="M150.35,134.14a.09.09,0,0,0,.11.05h0a.12.12,0,0,0,.05-.05V134a.25.25,0,0,0-.17,0S150.26,134,150.35,134.14Z"/>
              <polygon class="cls-33" points="153.21 136.04 153.21 136.13 153.32 136.1 153.21 136.04"/>
              <polygon class="cls-34" points="152.9 135.13 152.89 135.22 152.99 135.19 152.9 135.13"/>
              <path class="cls-35" d="M143.71,144.56c.24,0,.32-.22.38-.37s.07-.29-.15-.3-.34.16-.41.35h0a.24.24,0,0,0,.14.31Z"/>
              <path class="cls-36" d="M145.48,146.88c.05,0,.11-.11.18-.17s-.09-.16-.16-.16-.19,0-.22.09S145.42,146.91,145.48,146.88Z"/>
              <path class="cls-37" d="M145.11,145.47l-.24-.19-.36.14c.07.06.14.16.21.16A1.09,1.09,0,0,0,145.11,145.47Z"/>
              <path class="cls-38" d="M142.34,143.94l.11-.24-.09-.1-.11.23Z"/>
              <polygon class="cls-39" points="141.17 143.58 141.07 143.62 141.16 143.68 141.17 143.58"/>
              <path class="cls-40" d="M269.38,219.9l-.34.2A.3.3,0,0,0,269.38,219.9Z"/>
              <path class="cls-41" d="M138.49,154.44l-.19-.08C138.32,154.5,138.31,154.65,138.49,154.44Z"/>
              <path class="cls-42" d="M138.29,154.41h0v-.26H138a.91.91,0,0,1,0,.33Z"/>
              <path class="cls-43" d="M120.14,243.75l-.26.33A.3.3,0,0,0,120.14,243.75Z"/>
              <path class="cls-44" d="M231.94,235.48a.6.6,0,0,0-.47-.2h0a.6.6,0,0,0-.63.54v.1a.62.62,0,0,0,.39.6.58.58,0,0,0,.59.27h.1a.59.59,0,0,0,.5-.68h0A.76.76,0,0,0,231.94,235.48Z"/>
              <path class="cls-45" d="M227,230.46a.48.48,0,0,0,.29,0C227.23,230.25,227.15,230.31,227,230.46Z"/>
              <path class="cls-46" d="M245.34,214.72a.38.38,0,0,0-.36-.19h-.11a.42.42,0,0,0-.35.48.44.44,0,0,0,.32.34.44.44,0,0,0,.47.25.53.53,0,0,0,.42-.54h0A.45.45,0,0,0,245.34,214.72Z"/>
              <path class="cls-47" d="M242,216.59a.42.42,0,0,0-.35-.26c-.35.09-.49.29-.47.51a.49.49,0,0,0,.36.4.36.36,0,0,0,.4.23.47.47,0,0,0,.43-.49h0A.46.46,0,0,0,242,216.59Z"/>
              <path class="cls-48" d="M253.16,215.83h0a.26.26,0,0,0-.26-.19c-.08.08-.24.18-.23.28s.16.2.26.29h0a.32.32,0,0,0,.33.25c.08-.08.25-.14.24-.3a.21.21,0,0,0,0-.11A.31.31,0,0,0,253.16,215.83Z"/>
              <path class="cls-49" d="M250.32,213.81a.25.25,0,0,0,.21.28h0c.07,0,.12-.13.18-.18a.92.92,0,0,0-.17-.22C250.45,213.62,250.35,213.63,250.32,213.81Z"/>
              <path class="cls-50" d="M244,212.09h0l-.29.25h0A.32.32,0,0,0,244,212.09Z"/>
              <path class="cls-51" d="M108.21,128.24c.09,0,.09-.15.09-.21a.21.21,0,0,0,0-.11.21.21,0,0,0-.26,0,.26.26,0,0,0-.09.23.21.21,0,0,0,0,.11.18.18,0,0,0,.24,0Z"/>
              <path class="cls-52" d="M107.11,128.37l-.1-.16h0a.23.23,0,0,0-.25.15.32.32,0,0,0,.1.18.19.19,0,0,0,.24-.13h0A.06.06,0,0,0,107.11,128.37Z"/>
              <path class="cls-53" d="M110.83,129.38a.23.23,0,0,0,.22-.23h0v0a.81.81,0,0,0-.21-.1c-.08,0-.27.11-.23.28a.25.25,0,0,0,.2.1Z"/>
              <path class="cls-54" d="M111.86,130.5c.08,0,.21.06.22-.15s-.2-.22-.28-.2-.2,0-.21.14S111.71,130.5,111.86,130.5Z"/>
              <path class="cls-55" d="M109.85,128s0-.13-.08-.09-.13.08-.13.14.12.11.12.18A.92.92,0,0,0,109.85,128Z"/>
              <path class="cls-56" d="M178.65,200.52c-.17-.4-.51-.28-.81-.28C178,200.7,178.36,200.5,178.65,200.52Z"/>
              <path class="cls-57" d="M178.51,198.25h-.13v.1h.13Z"/>
              <path class="cls-58" d="M129,227.78a.67.67,0,0,0,.32-.62C129,227.26,128.93,227.52,129,227.78Z"/>
              <path class="cls-59" d="M232.66,182a.63.63,0,0,0,0-.9h0A.67.67,0,0,0,232.66,182Z"/>
              <path class="cls-60" d="M184.68,198.42c-.21,0-.63-.11-.54.18s.51.19.77,0C184.83,198.54,184.92,198.43,184.68,198.42Z"/>
              <path class="cls-61" d="M182.4,203.24c.37-.19.23-.54.23-.83C182.28,202.59,182.4,202.93,182.4,203.24Z"/>
              <path class="cls-62" d="M101.14,142.47c0,.1.17.1.26.1h.3a.27.27,0,0,0-.22-.31h-.08c-.14-.23-.3-.54-.57-.23S101.14,142.37,101.14,142.47Z"/>
              <path class="cls-63" d="M186.61,159.44l-.32.27A.31.31,0,0,0,186.61,159.44Z"/>
            </g>
          </g>
        </g>
      </g>
    </g>
  </g>
</svg>
