<svg xmlns="http://www.w3.org/2000/svg" xmlns:xlink="http://www.w3.org/1999/xlink" width="324" height="324" viewBox="0 0 324 324">
  <defs>
    <style>
      .cls-1 {
        opacity: 0;
      }

      .cls-2 {
        fill: none;
      }

      .cls-3 {
        fill: url(#Degradado_sin_nombre_34);
      }

      .cls-4 {
        fill: url(#Degradado_sin_nombre_34-2);
      }

      .cls-5 {
        fill: url(#Degradado_sin_nombre_34-3);
      }

      .cls-6 {
        fill: url(#Degradado_sin_nombre_34-4);
      }

      .cls-7 {
        fill: url(#Degradado_sin_nombre_34-5);
      }

      .cls-8 {
        fill: url(#Degradado_sin_nombre_34-6);
      }

      .cls-9 {
        fill: url(#Degradado_sin_nombre_34-7);
      }

      .cls-10 {
        fill: url(#Degradado_sin_nombre_34-8);
      }

      .cls-11 {
        fill: url(#Degradado_sin_nombre_34-9);
      }

      .cls-12 {
        fill: url(#Degradado_sin_nombre_34-10);
      }

      .cls-13 {
        fill: url(#Degradado_sin_nombre_34-11);
      }

      .cls-14 {
        fill: url(#Degradado_sin_nombre_34-12);
      }

      .cls-15 {
        fill: url(#Degradado_sin_nombre_34-13);
      }

      .cls-16 {
        fill: url(#Degradado_sin_nombre_34-14);
      }

      .cls-17 {
        fill: url(#Degradado_sin_nombre_34-15);
      }

      .cls-18 {
        fill: url(#Degradado_sin_nombre_34-16);
      }

      .cls-19 {
        fill: url(#Degradado_sin_nombre_34-17);
      }

      .cls-20 {
        fill: url(#Degradado_sin_nombre_34-18);
      }

      .cls-21 {
        fill: url(#Degradado_sin_nombre_34-19);
      }

      .cls-22 {
        fill: url(#Degradado_sin_nombre_34-20);
      }

      .cls-23 {
        fill: url(#Degradado_sin_nombre_34-21);
      }

      .cls-24 {
        fill: url(#Degradado_sin_nombre_34-22);
      }

      .cls-25 {
        fill: url(#Degradado_sin_nombre_34-23);
      }

      .cls-26 {
        fill: url(#Degradado_sin_nombre_34-24);
      }

      .cls-27 {
        fill: url(#Degradado_sin_nombre_34-25);
      }

      .cls-28 {
        fill: url(#Degradado_sin_nombre_34-26);
      }

      .cls-29 {
        fill: url(#Degradado_sin_nombre_34-27);
      }

      .cls-30 {
        fill: url(#Degradado_sin_nombre_34-28);
      }

      .cls-31 {
        fill: url(#Degradado_sin_nombre_34-29);
      }
    </style>
    <linearGradient id="Degradado_sin_nombre_34" data-name="Degradado sin nombre 34" x1="134.43" y1="293.44" x2="134.85" y2="293.44" gradientTransform="translate(-6 -94.03)" gradientUnits="userSpaceOnUse">
      <stop offset="0.05" stop-color="#957e41"/>
      <stop offset="0.21" stop-color="#d8bc63"/>
      <stop offset="0.49" stop-color="#dfc46b"/>
      <stop offset="0.74" stop-color="#c6a95a"/>
      <stop offset="0.98" stop-color="#7a6834"/>
    </linearGradient>
    <linearGradient id="Degradado_sin_nombre_34-2" x1="131.23" y1="264.21" x2="131.92" y2="264.21" xlink:href="#Degradado_sin_nombre_34"/>
    <linearGradient id="Degradado_sin_nombre_34-3" x1="138.07" y1="261.86" x2="138.47" y2="261.86" xlink:href="#Degradado_sin_nombre_34"/>
    <linearGradient id="Degradado_sin_nombre_34-4" x1="148.85" y1="277.68" x2="149.93" y2="277.68" xlink:href="#Degradado_sin_nombre_34"/>
    <linearGradient id="Degradado_sin_nombre_34-5" x1="123.25" y1="279.01" x2="124.26" y2="279.01" xlink:href="#Degradado_sin_nombre_34"/>
    <linearGradient id="Degradado_sin_nombre_34-6" x1="94.66" y1="200.27" x2="99.46" y2="200.27" xlink:href="#Degradado_sin_nombre_34"/>
    <linearGradient id="Degradado_sin_nombre_34-7" x1="89.92" y1="222.64" x2="96.98" y2="222.64" xlink:href="#Degradado_sin_nombre_34"/>
    <linearGradient id="Degradado_sin_nombre_34-8" x1="84.91" y1="221.06" x2="90.16" y2="221.06" xlink:href="#Degradado_sin_nombre_34"/>
    <linearGradient id="Degradado_sin_nombre_34-9" x1="76.21" y1="256.52" x2="261.73" y2="256.52" xlink:href="#Degradado_sin_nombre_34"/>
    <linearGradient id="Degradado_sin_nombre_34-10" x1="179.29" y1="276.09" x2="179.46" y2="276.09" xlink:href="#Degradado_sin_nombre_34"/>
    <linearGradient id="Degradado_sin_nombre_34-11" x1="103.04" y1="166.7" x2="103.29" y2="166.7" xlink:href="#Degradado_sin_nombre_34"/>
    <linearGradient id="Degradado_sin_nombre_34-12" x1="147.08" y1="377.38" x2="147.31" y2="377.38" xlink:href="#Degradado_sin_nombre_34"/>
    <linearGradient id="Degradado_sin_nombre_34-13" x1="112.17" y1="170.62" x2="112.49" y2="170.62" xlink:href="#Degradado_sin_nombre_34"/>
    <linearGradient id="Degradado_sin_nombre_34-14" x1="81.34" y1="175.62" x2="81.56" y2="175.62" xlink:href="#Degradado_sin_nombre_34"/>
    <linearGradient id="Degradado_sin_nombre_34-15" x1="81.96" y1="176.38" x2="82.24" y2="176.38" xlink:href="#Degradado_sin_nombre_34"/>
    <linearGradient id="Degradado_sin_nombre_34-16" x1="194.92" y1="180.36" x2="195.16" y2="180.36" xlink:href="#Degradado_sin_nombre_34"/>
    <linearGradient id="Degradado_sin_nombre_34-17" x1="108.58" y1="192.56" x2="108.91" y2="192.56" xlink:href="#Degradado_sin_nombre_34"/>
    <linearGradient id="Degradado_sin_nombre_34-18" x1="184.31" y1="308.79" x2="185.17" y2="308.79" xlink:href="#Degradado_sin_nombre_34"/>
    <linearGradient id="Degradado_sin_nombre_34-19" x1="184.38" y1="316.33" x2="184.7" y2="316.33" xlink:href="#Degradado_sin_nombre_34"/>
    <linearGradient id="Degradado_sin_nombre_34-20" x1="97.38" y1="274.71" x2="98.49" y2="274.71" xlink:href="#Degradado_sin_nombre_34"/>
    <linearGradient id="Degradado_sin_nombre_34-21" x1="139.03" y1="293.39" x2="139.82" y2="293.39" xlink:href="#Degradado_sin_nombre_34"/>
    <linearGradient id="Degradado_sin_nombre_34-22" x1="132.95" y1="292.05" x2="133.35" y2="292.05" xlink:href="#Degradado_sin_nombre_34"/>
    <linearGradient id="Degradado_sin_nombre_34-23" x1="136.78" y1="293.96" x2="137.09" y2="293.96" xlink:href="#Degradado_sin_nombre_34"/>
    <linearGradient id="Degradado_sin_nombre_34-24" x1="189.76" y1="312.76" x2="189.95" y2="312.76" xlink:href="#Degradado_sin_nombre_34"/>
    <linearGradient id="Degradado_sin_nombre_34-25" x1="189.15" y1="313.34" x2="189.22" y2="313.34" xlink:href="#Degradado_sin_nombre_34"/>
    <linearGradient id="Degradado_sin_nombre_34-26" x1="197.09" y1="285" x2="197.38" y2="285" xlink:href="#Degradado_sin_nombre_34"/>
    <linearGradient id="Degradado_sin_nombre_34-27" x1="111.62" y1="222.66" x2="112.2" y2="222.66" xlink:href="#Degradado_sin_nombre_34"/>
    <linearGradient id="Degradado_sin_nombre_34-28" x1="133.81" y1="262.77" x2="134.54" y2="262.77" xlink:href="#Degradado_sin_nombre_34"/>
    <linearGradient id="Degradado_sin_nombre_34-29" x1="140.17" y1="263.52" x2="140.48" y2="263.52" xlink:href="#Degradado_sin_nombre_34"/>
  </defs>
  <title>EL GALLO</title>
  <g id="Capa_2" data-name="Capa 2">
    <g id="Capa_1-2" data-name="Capa 1">
      <g id="Capa_1-2-2" data-name="Capa 1-2">
        <g>
          <g class="cls-1">
            <rect class="cls-2" width="324" height="324"/>
          </g>
          <g id="Capa_1-2-2-2" data-name="Capa 1-2-2">
            <g>
              <path class="cls-3" d="M128.71,199.29v-.1a.23.23,0,0,0-.22.06.11.11,0,0,0,0,.08.09.09,0,0,0,0,.07h0a.21.21,0,0,0,.18.24h0a.21.21,0,0,0,.24-.18h0v-.11A.18.18,0,0,0,128.71,199.29Z"/>
              <path class="cls-4" d="M125.55,169.81h-.12a.33.33,0,0,0-.2.42h0v.06a.29.29,0,0,0,.32.26h0a.31.31,0,0,0,.27-.32h0V170A.32.32,0,0,0,125.55,169.81Z"/>
              <path class="cls-5" d="M132.21,168.09a1,1,0,0,0,.23-.06V168a.18.18,0,0,0-.11-.14l-.08-.24a.17.17,0,0,1-.1,0,.74.74,0,0,0,0,.21l-.09.09a.11.11,0,0,0,0,.08.11.11,0,0,0,.09.14Z"/>
              <path class="cls-6" d="M143.34,184.24a.54.54,0,0,0,.54-.48.53.53,0,0,0-.17-.41.42.42,0,0,0-.4-.29c-.33,0-.48.19-.51.51a.39.39,0,0,0,0,.26.46.46,0,0,0,.5.41h0Z"/>
              <path class="cls-7" d="M117.77,184.42a.43.43,0,0,0-.53.33h0v.11h0v.2h0a.52.52,0,0,0,.51.49h.06a.49.49,0,0,0,.43-.54.74.74,0,0,0-.47-.58Z"/>
              <path class="cls-8" d="M90.22,108.09a4.32,4.32,0,0,0,2.31-.1,10.6,10.6,0,0,0,.7-1.28,2.59,2.59,0,0,0,.14-.45h0v-.06c.28-1.08-.32-1.83-1.62-1.93a3.56,3.56,0,0,0-2.54.93,1.15,1.15,0,0,0-.21.23,1.38,1.38,0,0,0-.25.5c-.25.64,0,1.32.86,1.89A6.65,6.65,0,0,0,90.22,108.09Zm1.23-1.91c.18-.12.06-.28,0-.41a.73.73,0,0,1,.06-.21h.08a.55.55,0,0,1,.4.44c0,.28-.08.54-.42.5a.19.19,0,0,1-.21-.17v0a.28.28,0,0,1,.11-.13Z"/>
              <path class="cls-9" d="M84,134.07a5,5,0,0,0,.06.54,2.7,2.7,0,0,0,.18.57h0a3.27,3.27,0,0,0,.22.51,3,3,0,0,0,4.09,1.15h0a4.48,4.48,0,0,0,2.26-3.44.62.62,0,0,0,0-.27,4.19,4.19,0,0,0,0-1,2,2,0,0,0-.14-.41v-.07h0a1,1,0,0,0-.26-.41h0c-1.08-1.08-1.87-1-2.5.09a1.34,1.34,0,0,0-.24,1.37c.24.54.6.6,1.13.39.25-.1.43,0,.54.27,0,.59-.18.65-1.08.94v.07h-.08v-.17l-.84-.3h0l-.17-.14v.09l-.07-.07v-.11l-.25-.3c-.06-.11-.11-.23-.17-.35v-.23a2.48,2.48,0,0,1,.43-2.12,2.7,2.7,0,0,1,2.8-1.13c.44.13.87.28,1.3.45l-.07-.28a12.31,12.31,0,0,0-1-3.13c-.16-.39-.34-.75-.54-1.13a10.65,10.65,0,0,0-2.08-3.15,1.6,1.6,0,0,0-.57-.64l-.62-.58a3,3,0,0,0-.59-.54A8.3,8.3,0,0,0,85,120a1,1,0,0,0,.06.39,18.36,18.36,0,0,1,.17,2.87,48.6,48.6,0,0,1-.85,5.75A16,16,0,0,0,84,134.07Z"/>
              <path class="cls-10" d="M80,120.71a1.48,1.48,0,0,1-.12.29,10.06,10.06,0,0,0-.44,1.15,2.9,2.9,0,0,0-.12.42c-.06.23-.11.46-.16.69a2.9,2.9,0,0,0-.21,1.62,16.85,16.85,0,0,0,0,2,7.84,7.84,0,0,0,.08,1.45v.12a6.61,6.61,0,0,0,.67,2.54A30.16,30.16,0,0,0,83,136.44h.54c-.09-.16-.16-.32-.24-.48a2.86,2.86,0,0,0-.32-.74l-.12-.38a13,13,0,0,1-.38-3.1,8.17,8.17,0,0,1,.15-1.21c.37-2.08.93-4.14,1.37-6.22A7.49,7.49,0,0,0,84,121a4.87,4.87,0,0,0-.32-1.13,2.82,2.82,0,0,0-.23-.46.67.67,0,0,0-.06-.12h0l0-.08a.77.77,0,0,0-.42-.51h0a1.71,1.71,0,0,0-1.42-.82h0c-.65-.24-.89-.33-1-.11h-.16a4.12,4.12,0,0,1,.09.86,9.11,9.11,0,0,1-.37,1.87A1.55,1.55,0,0,1,80,120.71Z"/>
              <path class="cls-11" d="M255.67,75.81a1.88,1.88,0,0,0-.07-.63,21.56,21.56,0,0,0-.38-2.66c0-.38-.09-.74-.11-1.08V70c.34-.42.24-1,.54-1.44a1.17,1.17,0,0,0-1.08.66.57.57,0,0,1,.13.08h0a.42.42,0,0,0-.14-.09.59.59,0,0,0-.28.49h0v0a1,1,0,0,0-.49.54h0a5.84,5.84,0,0,0-1.32,2.82,38.39,38.39,0,0,1-.94,3.84h0v.16c-.5,1.36-1.08,2.7-1.69,4a1.92,1.92,0,0,1-.29.28h-.06v-.61c0-.43.09-.87.13-1.3.1-.82.17-1.64.21-2.45a8.48,8.48,0,0,0,0-2.66v-.5a9.9,9.9,0,0,0-.17-1.2,4.17,4.17,0,0,0-.34-1.29c-.06-.2-.15-.41-.24-.63a5,5,0,0,0-.94-2h0a1.5,1.5,0,0,0-.61-.77h-.05a.27.27,0,0,0-.17-.13l-.09-.07a.25.25,0,0,0-.22.13h-.24a6.07,6.07,0,0,1,.08,2.78.94.94,0,0,0-.12.73h0v.11l-.16.88a2.44,2.44,0,0,0,0,.54,2.07,2.07,0,0,1-.06.61c-.05.2,0,.31,0,.47a9.15,9.15,0,0,1-.17,1.28,1.09,1.09,0,0,0-.06.44c-.16,1-.36,2.07-.61,3.1A42.17,42.17,0,0,1,244.39,83a6.36,6.36,0,0,0-.33.86c-.18.45-.35.91-.54,1.37v.13c-.08.19-.17.39-.26.58a1.34,1.34,0,0,0-.28.62l-.15.31-.16.36-.09.18a.64.64,0,0,0-.24.46l-.1.17a.55.55,0,0,0-.11.23l-.24.46a19,19,0,0,0-1.49,2.48h-.1a4,4,0,0,0-.86,1.32.33.33,0,0,1-.05.16l-.07.1a.42.42,0,0,1-.14.09h0a.88.88,0,0,0-.48.57h0L237.54,95h0a1.22,1.22,0,0,0-.48.55c-.2.24-.41.48-.63.7L233,98.94h0a17,17,0,0,0-2.7,2,.35.35,0,0,0-.27.2h0a15.22,15.22,0,0,0-2.4,1.83l-.62.46a1.25,1.25,0,0,0-.36.28l-.58.42a9,9,0,0,0-2.84,2.39l-.29.3a2.07,2.07,0,0,0-.48.5l-.31.31a1.07,1.07,0,0,0-.38.41c-.3.32-.59.65-.89,1a2.35,2.35,0,0,0-.3.33l-.48.54a.73.73,0,0,0-.22.27l-.29.33a.76.76,0,0,0-.33.38h0l-1.16,1.37h0a1,1,0,0,0-.54.54,2.11,2.11,0,0,0-.59.82h0a28.48,28.48,0,0,0-2.16,2.94l-.1.15a8.19,8.19,0,0,0-1.39,1.87h0a8.05,8.05,0,0,0-1.3,2v.06a6.92,6.92,0,0,0-.82,1.32v.08l-.14.3a.4.4,0,0,0-.07.18l-.42,1a.86.86,0,0,0-.11.24l-.24.54a.78.78,0,0,0-.18.44l-.31.73a.11.11,0,0,1-.08,0,10.63,10.63,0,0,1,1.37-4.18c2.12-5.34,4.82-10.35,9.13-14.36a5.85,5.85,0,0,0,.74-.83,27.6,27.6,0,0,1,4.82-4.78c1.62-1.3,3.3-2.56,4.95-3.83a34.55,34.55,0,0,0,6.19-5.77,14.65,14.65,0,0,0,3.33-7.51,2.87,2.87,0,0,0,.19-1.12,18.16,18.16,0,0,0-.85-6.38h0v-.12a1.06,1.06,0,0,0-.18-.71,1.08,1.08,0,0,0-.1-.35.28.28,0,0,0,0-.13,1.86,1.86,0,0,0-.1-.39l-.16-.46a.34.34,0,0,0-.07-.24l-.69-2.22c-.16-.54-.34-1.12-.54-1.67s-.37-1.27-.54-1.9h.07c-.07-1.13-.64-2.16-.64-3.31a.61.61,0,0,0-.54-.68.38.38,0,0,0-.33.16c-.23.13-.34.45-.48.69a2,2,0,0,0-.16.36h0a2.09,2.09,0,0,0-.5,1.42,1.67,1.67,0,0,1-.13.45,15.86,15.86,0,0,0-.05,5.54c.1.37.18.75.25,1.12V75l.14.07a21.83,21.83,0,0,1,.33,3.61h0A3.53,3.53,0,0,0,235,78a1.11,1.11,0,0,0-.14-.64c-.27-1.3-.54-2.7-.85-4.06-.27-.91-.58-1.8-.91-2.7a20.52,20.52,0,0,0-1.69-4c-.18-.37-.35-.75-.54-1.14-1.62-3.24-3.28-6.42-3-10.26h-.24c-.07-.37-.27-.34-.83-.05a1.9,1.9,0,0,0-.29.28l.1.2h0l-.09-.18a1,1,0,0,0-.54.86l.08.09h0l-.08-.1a4.26,4.26,0,0,0-.76,2l-.09.54c-.33.32-.17.75-.25,1.11h0v.37a2.07,2.07,0,0,1-.1.43,21.1,21.1,0,0,1-1.59-5.27c-.36-1.92-.14-3.9-.54-5.8a6.39,6.39,0,0,1-.13-3.19c-.09,0-.16.12-.25.17a1.24,1.24,0,0,1,.06-.47,6,6,0,0,0-2.49,3.51h0c-.3.3-.29.74-.48,1.08h.1l-.26.07a3.33,3.33,0,0,1-.07.54.81.81,0,0,0,0,.22v.1a.34.34,0,0,1-.17.11.2.2,0,0,1-.15,0,23.19,23.19,0,0,1-2.12-7.19,11.75,11.75,0,0,1,1.55-7.73,27.2,27.2,0,0,0,1.62-3.24,2.39,2.39,0,0,1,.21-.34,1.81,1.81,0,0,1,2.53-.35h0a.86.86,0,0,1,.14.13,1.68,1.68,0,0,1,0,1.17c0,.16-.16.29,0,.5a.3.3,0,0,0,0,.26c1.3-.33,1.85-1.22,1.3-2.4a2.87,2.87,0,0,0-.39-.59,1.85,1.85,0,0,0-.54-.54h0a.84.84,0,0,0-.61-.42v.13h0v-.15a4.18,4.18,0,0,0-3.84.29h0c-.31,0-.63-.12-.86.21.23,0,.33.05.37.14h0c0-.09-.14-.15-.37-.15a4.47,4.47,0,0,0-1.13,1.08h0a.71.71,0,0,0-.54.33h0a1.85,1.85,0,0,0-.83.54,1,1,0,0,0-.54.57l.13.06h0l-.13-.06a2.64,2.64,0,0,0-1.14,1.08l.13.13h0l-.12-.12-1.19,1.15h0l-.25.22h0a6.91,6.91,0,0,0-1.9,1.71.77.77,0,0,1-.09.47h0a.79.79,0,0,0,.12-.54,2.94,2.94,0,0,0-1.08,1.16h0a9.15,9.15,0,0,0-1.46,2.13l.18.08h0l-.16-.07-1.34,2.36h0c-.13.36-.26.7-.39,1.08h0a7.17,7.17,0,0,0-.54,1.62h0a6.34,6.34,0,0,0-.6,2.6h0a5.54,5.54,0,0,0-.24,2.49h0v.27l.09.09h0l-.11-.1a7.94,7.94,0,0,0,.21,3.07h0a2.85,2.85,0,0,0,.08.51h0a1.54,1.54,0,0,0,.22,1.18v0h0a.33.33,0,0,0,0,.24h0a.55.55,0,0,0,.16.48,3.08,3.08,0,0,0,.16.73,6.39,6.39,0,0,0,.38,1.27A17.18,17.18,0,0,0,210.13,66c.6.64,1.4,1,2,1.65a20,20,0,0,1,4,6.44c.09.28.18.54.28.82a6.75,6.75,0,0,1,.25.76c.09.48.17,1,.28,1.45h.12c.08.38.35.83-.08,1.26-.29-.32-.4-.76-.68-1.08l-.06-.06a.43.43,0,0,0-.09-.1v.07h-.12a6.39,6.39,0,0,0-.41,5.4c.08.32.17.64.28,1a10.27,10.27,0,0,0,.32,1.08,4.29,4.29,0,0,1,.14.81v1.75h0a18.22,18.22,0,0,0-.8,3.09h0c-.13.28-.24.54-.38.83h0l-.54.54h0l-.13-.22c0-.17-.07-.34-.1-.51a60.29,60.29,0,0,0-1.4-6.67,7.92,7.92,0,0,0-2-3.92,7,7,0,0,0-2.36-1.9c-.92-.54-1.87-1-2.79-1.52a16.39,16.39,0,0,0-3.66-1.62v.09h0v-.07a5.31,5.31,0,0,0-1.91-.59h0a10.41,10.41,0,0,0-2.24-.77h0a3.26,3.26,0,0,0-1.4-.35v.06h0a1.1,1.1,0,0,0-.83-.27h0a6,6,0,0,0-2.47-.5V73h0v-.15a21.18,21.18,0,0,0-3.65,0l.35.23H190a3.86,3.86,0,0,0,1.21.91c1.57,1,3.11,2,4.72,3a15,15,0,0,1,5.59,5.67v0c.18.34.35.69.54,1l.31.73c.09.23.18.46.26.69.22.54.41,1.15.59,1.72a7.19,7.19,0,0,0,.34,1.18l.21.83a1.18,1.18,0,0,0,.09.37v.23h0c.32,1.21.12,2.5.54,3.69v-.49a14,14,0,0,1,0,1.83.81.81,0,0,1-.27.11c-.08-.27-.15-.54-.25-.79l-.49-1.41c-.25-.82-.54-1.62-.86-2.43-.17-.47-.25-1-.81-1.23h0l-.06-.08a8,8,0,0,0-.54-.64,11.8,11.8,0,0,0-1-1h0a3.63,3.63,0,0,0-1.43-1.12.61.61,0,0,0-.16.12h0a.38.38,0,0,1,.13-.09,1.71,1.71,0,0,0-.89-.49l-.08.09h0a.35.35,0,0,0,.11-.1,3.22,3.22,0,0,0-1.08-.54l.07.18h-.07v-.14a.39.39,0,0,0-.21-.08h0a.55.55,0,0,0-.5-.24.64.64,0,0,0-.54-.21l-.06,0h-.54a1.88,1.88,0,0,0-1.81,0,.15.15,0,0,0-.16,0l-.1.2h-.05a1.28,1.28,0,0,0,.11-.2,5.58,5.58,0,0,0-3.65,2l-.22.24h0a3.68,3.68,0,0,0-1.53,1.9h.06a.38.38,0,0,0,0,.15V89h0v-.4a8.56,8.56,0,0,0-.77,2.85h0v.1a5.88,5.88,0,0,0-.43,3c.07.27-.12.42-.35.51l-.21-.2-.09.08h0l-.13-.06h.06a2.15,2.15,0,0,0-1.33-.72c-.61-.21-1.23-.35-1.83-.6a7,7,0,0,0-4.86-.11h0A5.24,5.24,0,0,0,175,94.48l.14.07h0l-.16,0a7.9,7.9,0,0,0-1.86,1.23,1.91,1.91,0,0,0-.83.76h0a2.83,2.83,0,0,0-1.13,1.38c-.25.49-.34.78-.21,1a2.09,2.09,0,0,0,0,.5l.88-.08a14,14,0,0,1,4.69.2,15.49,15.49,0,0,1,8.4,5,19.82,19.82,0,0,1,4.52,10.36.09.09,0,0,0,0,.07v.28c.06.82.08,1.62.09,2.47a11.81,11.81,0,0,1-.19,1.78,52,52,0,0,1-1.7,5.54,1.7,1.7,0,0,1-.29-.31,7.79,7.79,0,0,0-.58-1.43,5,5,0,0,0-1.56-2.11l-.13-.14h0a.28.28,0,0,0-.28-.22h0a.62.62,0,0,0-.54-.35h0l-.21-.12c-1.05-.86-2.29-.73-3.66-.57a3.32,3.32,0,0,1,.26.36,4.93,4.93,0,0,1,.34.54c.1.16.14.23.21.36a2.55,2.55,0,0,1,.17.33,7.88,7.88,0,0,1,.59,1.69H182v.16a.82.82,0,0,0,.07.31c.08.39.15.79.2,1.18v1.62a.54.54,0,0,0,.1-.16h0l-.08.13-.08,2.56a.36.36,0,0,1-.06.25,1.27,1.27,0,0,0-.25.77h0a2.8,2.8,0,0,0-.42.87l-.34.54v.08h0v-.12a.66.66,0,0,0-.32.54h0a1.68,1.68,0,0,0-.54.79,1.72,1.72,0,0,0-.59.86h0l-.2.27h0l-1.58,2h0l-.6.79v.14h0v-.17l-.84.86v.06a1.93,1.93,0,0,0-.54.75h0a1.38,1.38,0,0,0-.51.61,2.7,2.7,0,0,0-.9,1l.06.12h0a.2.2,0,0,1,0-.11,2.55,2.55,0,0,0-.75.88h0a.08.08,0,0,1,0-.07,1.23,1.23,0,0,1-.54,0,27.07,27.07,0,0,1,2.41-5.45,17,17,0,0,0,2.1-5.72,7.61,7.61,0,0,0,0-3.85,2.87,2.87,0,0,0-.42-1.13c-.07-.15-.13-.3-.2-.44h0a.34.34,0,0,0-.19-.31h0a.3.3,0,0,0-.08-.21h0a.29.29,0,0,0-.2-.28,3.69,3.69,0,0,0-1.38-1.42h0a.32.32,0,0,0-.3-.25l.3.25h0l-.3-.25h0a.62.62,0,0,0-.45-.32h0a1.57,1.57,0,0,0-.93-.45v.08h0v-.08a4.83,4.83,0,0,0-2.16-.3l-.2.19h-.1l.23-.21a2.65,2.65,0,0,0-1.7.51h.2a.58.58,0,0,0-.54.07l-.31.21v.08h0v-.08A2,2,0,0,0,168,122h0a3.41,3.41,0,0,0-1.14,1.46h0c-.06.09-.11.19-.16.28a2.1,2.1,0,0,0-.28.61.4.4,0,0,1-.08.26h0a4.27,4.27,0,0,0-.27,2.12,3.88,3.88,0,0,0,1.2,2.58,2.63,2.63,0,0,0,1.7.83c.64,0,.84-.58,1.17-1a3,3,0,0,1,.41.71h0a2.48,2.48,0,0,1,.16.8c0,.38.07.75.08,1.08a32.68,32.68,0,0,1-.31,3.95h0a48.63,48.63,0,0,0-1,5.89l.06-.07a1.54,1.54,0,0,1-.1.35c-.17.54-.35,1-.54,1.57l-.36.83a3.51,3.51,0,0,0-.74,1.25h0a5.59,5.59,0,0,0-1.08,2.13c0,.1-.1.21-.15.31a13,13,0,0,1-2.16,2.23h0l-.08.07a.17.17,0,0,1,0-.1l-.87.69h0a2.89,2.89,0,0,0-1,.64h0v-.06l-4.27,1.88h0l-.17,0h0a3.46,3.46,0,0,0-1.74.54h-.23a1.39,1.39,0,0,0-1.11.29h0a11.44,11.44,0,0,0-3.13.5l-.49.06v.07h0v-.07l-4.17.25-5.3-.52h0a6.39,6.39,0,0,0-1.62-.33H140a.41.41,0,0,0,.22,0,.62.62,0,0,0-.54-.22l-.06-.07-.54-.12v.06a.62.62,0,0,0-.54-.21v.06h0a1.08,1.08,0,0,0-.81-.33v.05h0a2,2,0,0,0-1.08-.54h0a.67.67,0,0,0-.42-.24l-.18-.12a.27.27,0,0,0-.22-.15h0a2.12,2.12,0,0,0-.69-.54l-.19-.15a1.19,1.19,0,0,0-.52-.42h0l-.35-.31-.34-.37-1-1.29-.23-.35c-.54-1.12-1-2.26-1.5-3.42a2.25,2.25,0,0,0-.13-.42c-.14-.54-.31-1.08-.46-1.62a1.66,1.66,0,0,0-.11-.38c-.22-.75-.43-1.5-.66-2.25,0-.16-.09-.34-.15-.5l-.54-1.8-.09-.32a5.08,5.08,0,0,0-.4-1.43,2.14,2.14,0,0,0-.13-.48,1.61,1.61,0,0,0,0-.31c-.76-2.48-1.5-5-2.32-7.41A12.39,12.39,0,0,0,124.7,126c-.13-.28-.26-.54-.4-.83a17.9,17.9,0,0,1-1-2.41,12.56,12.56,0,0,0-.46-1.21.66.66,0,0,0-.09-.19,1.51,1.51,0,0,1-.11-.22,2,2,0,0,0-.54-1h0l-.05-.08h0a5.14,5.14,0,0,0-1.16-1.65.91.91,0,0,0-.51-.59h0a5.14,5.14,0,0,0-.91-1.12c-.12-.15-.25-.29-.36-.44l-.59-.87-.23-.27h-.08l-.06-.14v-.06h0l-.5-.69a7.17,7.17,0,0,0-.45-.63c-.13-.2-.28-.38-.41-.58l-.32-.48a3.21,3.21,0,0,0-.5-.68l-.21-.26h0a7.92,7.92,0,0,0-2-2A15.05,15.05,0,0,1,111.9,108a6.46,6.46,0,0,1-.54-.75,7,7,0,0,0-1-1.73h0l-.12-.2a1.53,1.53,0,0,0-.25-.45l-.29-.52a1.35,1.35,0,0,0-.15-.26l-.68-1.15a.41.41,0,0,0-.07-.11,28.09,28.09,0,0,0-1.59-2.7l-.72-1.19h0a1.68,1.68,0,0,0-.48-.86h0a1.63,1.63,0,0,0-.6-1h0l-.21-.36V96.6a3,3,0,0,1,1.1-.87c3.3-2.28,6-5,7-9,.18-.74.32-1.49.44-2.24V84h0c.06-.47.09-.93.14-1.39a8.94,8.94,0,0,0,0-2.53,20.65,20.65,0,0,0-.19-2.37h0c-.07-.51-.14-1-.25-1.52a1.32,1.32,0,0,0-.08-.33.74.74,0,0,0,0-.21,4.16,4.16,0,0,0-.16-.5.77.77,0,0,0-.1-.29,1.35,1.35,0,0,0-.34-.66,1.4,1.4,0,0,0-2-.09h0a37.71,37.71,0,0,1-4.32,2.48l-.24.15-.23.1h-.22a.12.12,0,0,0,.1-.09.64.64,0,0,0-.54.24h0a1.71,1.71,0,0,0-1,.33h-.11a1.8,1.8,0,0,1-1.26-.26l-.06-.21a.37.37,0,0,0-.06-.21v-.18a.9.9,0,0,0-.08-.23.75.75,0,0,0,0-.16h0a.35.35,0,0,0-.06-.24h0a1.35,1.35,0,0,0-.11-.34,3.6,3.6,0,0,0-.34-1,1.9,1.9,0,0,0-.11-.39h0L102.1,74a3.19,3.19,0,0,0-.42-1.35,1.26,1.26,0,0,0-.13-.43,1.34,1.34,0,0,0-.07-.18,2.73,2.73,0,0,0-.4-.93,1.19,1.19,0,0,0-.12-.22h0c-.44-.73-1-.66-1.65-.29a5.81,5.81,0,0,0-1.73,1.62h0a.31.31,0,0,0-.21.27c-.13.12-.22.25-.34.38A4.88,4.88,0,0,0,96,74.14a5.12,5.12,0,0,0-1.37,2.16c0,.07-.09.14-.14.22l-.31.58a2.37,2.37,0,0,0-.7,1.2h0a2.58,2.58,0,0,0-.55,1.08.84.84,0,0,1-.62-.09l-.2-.28a.75.75,0,0,0-.39-.54c-.14-.2-.25-.41-.38-.62a14.43,14.43,0,0,0-2-3.21h0a1.35,1.35,0,0,0-.49-.49,1,1,0,0,0-1.3-.25,1.6,1.6,0,0,0-1,.68,1,1,0,0,0-.29.54c-.11.22-.22.43-.31.65l-1,1.92a1.49,1.49,0,0,0-.38.71l-.32.62c-.16.1-.33.07-.54-.31a7.39,7.39,0,0,0-.62-.85h0c-.18-.27-.37-.54-.57-.79A1.23,1.23,0,0,0,81,76.51,1.4,1.4,0,0,0,80,77.76v.08a2.59,2.59,0,0,0-.09.42v.27l-.15.75a12.84,12.84,0,0,1-.61,1.81h0l-.46,1.08a4,4,0,0,0-.44,1.11c-.08.2-.15.4-.22.6a.5.5,0,0,1-.37.12v.1h0V84a.34.34,0,0,0-.2-.13h0v-.06l-.9-1h0a.33.33,0,0,0-.31-.29l.25.31h0l-.25-.29a.43.43,0,0,1-.28-.35l-.37-.48-.2-.19-.06.09v-.08a.24.24,0,0,1,.06-.09c-.54-.54-1-1.33-1.93-.92h0l-.14.08a.76.76,0,0,0-.26.15,1.55,1.55,0,0,0-.62,1.43c0,1.08.09,2.16.09,3.19a3,3,0,0,1,0,1.12l-.17.18a2.37,2.37,0,0,1-.77-.2,1.37,1.37,0,0,0-.65-.2h0l0,.08c-.2.07-.32.3-.4.72h0a2.82,2.82,0,0,0-.15,1,54.17,54.17,0,0,0,.31,8.54,6,6,0,0,0,.11.94,1.87,1.87,0,0,0,.08.66c.65,3.37,1.62,6.69,4.68,8.88a17.76,17.76,0,0,0-2.53,3.14,5.48,5.48,0,0,0-.74,4.21c2.06-1.8,4.56-2.58,6.88-3.7a7.42,7.42,0,0,1,1.85-.54c2.16-.39,4.21.16,6.32.46h0a2.56,2.56,0,0,1-1.31.22H82.19a7.68,7.68,0,0,0-3.37.65c-1.83.77-3.44,1.95-5.21,2.86a2.25,2.25,0,0,0-.74.7.82.82,0,0,0-.35,1c.27.64,1.08.54,1.74.54,1.48-.1,3-.13,4.43-.23a6.88,6.88,0,0,1,5.24,1.83c.45.41.92.79,1.4,1.15a16.65,16.65,0,0,1,5.15,6.12h0a17.67,17.67,0,0,1,1,2.52,11,11,0,0,1,.54,2.4V133a6.6,6.6,0,0,1-.14.89l-.49,1.49a8.81,8.81,0,0,1-2.16,2.31h.07l-.1.06h0a13.22,13.22,0,0,1-3.83.91c-.44,0-1.08,0-1.16.59a1.36,1.36,0,0,0-.07.35V140a14.88,14.88,0,0,0-.19,2,5.56,5.56,0,0,1-.64,1.67,14,14,0,0,0-1.28,1.7c-.16.21-.32.43-.47.65h0a6.68,6.68,0,0,0-1.15,1.94V148h0v-.11a2.23,2.23,0,0,0-.6,1.08h0a7.38,7.38,0,0,0-1,2.3,1.22,1.22,0,0,0-.07.17h0a1.78,1.78,0,0,0-.54,1.16h0a23.38,23.38,0,0,0-1.38,4.45c-.1.39-.2.77-.28,1.15a2.66,2.66,0,0,0-.16.84c-.11.66-.22,1.31-.31,2-.09.5-.13,1-.18,1.51-.08.93-.14,1.86-.15,2.79a4.68,4.68,0,0,0,0,1.9c0,1.91.06,3.83.17,5.74.06,1.34.18,2.7.32,4s.28,2.4.49,3.6h0c.1.47.2,1,.31,1.42v.14a20.61,20.61,0,0,0,1,3,29.66,29.66,0,0,0,6,9.48,93.79,93.79,0,0,0,10.73,9.68,22.82,22.82,0,0,1,2.77,2.52c2.16,2.45,4.63,4.66,6.91,7a63.07,63.07,0,0,0,6.86,6.1c5.28,4.09,9.34,9.36,13.86,14.23a2,2,0,0,1,.62,1.34,43.47,43.47,0,0,1-.17,6.94c-.13.82-.31,1.62-.47,2.43l-.71,2.7c-.13.43-.25.87-.39,1.3a1.43,1.43,0,0,0-.08.22l-.09.25a1.32,1.32,0,0,0-.27.79.85.85,0,0,1-.11.34,1.82,1.82,0,0,0-.36,1h0a10.1,10.1,0,0,0-.36,3.09,4.11,4.11,0,0,0,.07.78v.3c.08.47.06.94.6,1.18s.43.58.27,1a46,46,0,0,0-1.54,5,23.48,23.48,0,0,1-1.31,3.31.38.38,0,0,1-.09.13.8.8,0,0,0-.14.39v.1h0a.58.58,0,0,1-.06.17l-.33.61a3.69,3.69,0,0,0-.82,1.37h0a.41.41,0,0,0-.15.25c-.07.11-.13.22-.21.33a2.18,2.18,0,0,1-2,.91,2.12,2.12,0,0,0-1.38.18h-.1a50.73,50.73,0,0,0-5.21.63h0a1.39,1.39,0,0,0-1.17.21h0c-1.27.12-2.58-.15-3.83.28h0a32.66,32.66,0,0,0-5.89,1.08h0a11.08,11.08,0,0,0-2.92.48,1.06,1.06,0,0,0-.84.54v.09h0a.71.71,0,0,0-.07.35,1.12,1.12,0,0,0,.94,1.16,7.48,7.48,0,0,0,1.94.37c.33-.38-.12-1.35.89-1.27a.54.54,0,0,1,.07.13,1.19,1.19,0,0,1,.07.27c.19,1,.19,1,1.18,1h2a5.63,5.63,0,0,1,2-.19,1.05,1.05,0,0,1-.32.31,1.77,1.77,0,0,1-.46,0,1.09,1.09,0,0,0-.23.09h-.31a.26.26,0,0,0-.24.1l-.25.07h-.16a1.63,1.63,0,0,0-1,.31l-.35.11a2.62,2.62,0,0,0-.62.19l-1.2.36a24.29,24.29,0,0,0-4.06,1.22,1.63,1.63,0,0,0-.89.34,1.55,1.55,0,0,0-.27.24.62.62,0,0,0-.36.64,1.42,1.42,0,0,0,.89,1,1.77,1.77,0,0,0,1,.11c2-.14,3.9-.2,5.83-.45,2.38-.31,4.76-.65,7.16-.84.61,0,1.39,0,1.72.44a1.49,1.49,0,0,1-.2.8h0a13.85,13.85,0,0,1-1.57,2.16,4.38,4.38,0,0,0-.78,1.08,19.17,19.17,0,0,1-1.92,2.9h0c-.26.18-.57.38-.54.71a.65.65,0,0,0,0,.34c.08.05.14.16.22.16a2.71,2.71,0,0,0,2.7-.63c.64-.49,1.24-1.08,1.85-1.62a2,2,0,0,0,.31-.27,9.08,9.08,0,0,1,2.11-1.42c3.34-1.56,5.94-4.13,8.71-6.41h0l.58-.48c.46-.34.71-.43,1,.08.54,1,1,1.91,1.71,3s.69,1.08,1.93.78c.23-.06.51-.21.73.08-.06.09-.14.18-.19.27a.45.45,0,0,1-.14.1l-.24.07v0h-.07v-.08c-.54.26-.75.35-.73.54h0a2.65,2.65,0,0,0,.6,1.12,1.67,1.67,0,0,0,1.85.59c.73-.27.54-.89.54-1.42a1.4,1.4,0,0,0,0-.29,10.77,10.77,0,0,0-.26-2.53c-.09-.58-.21-1.16-.35-1.73a.7.7,0,0,0-.09-.4c-.14-.54-.31-1.08-.49-1.58a6.59,6.59,0,0,0-.25-.75,3,3,0,0,0-1-1.62h0a.74.74,0,0,1-.2-.23,1.52,1.52,0,0,1,.48-2.11h0a3.19,3.19,0,0,1,1.47-.73h.06a38.54,38.54,0,0,0,4.73-1.2.17.17,0,0,0,0-.14,3.42,3.42,0,0,0,.43-.21c0,.06.16.09.36.09a24.11,24.11,0,0,0,3-1.79c.67-.39.77-.6.58-1.39a.54.54,0,0,0-.08-.28v-.1h-.07a.65.65,0,0,0-.34,0,4.3,4.3,0,0,0-1.58.37.11.11,0,0,0,0,.08h0a.06.06,0,0,1,0-.06,1,1,0,0,0-.74.2l-.47.07-4.36.31h-2.61c-.46-.2-.64-.64-.64-1.41a2.79,2.79,0,0,1,.32-1.2,24.36,24.36,0,0,0,1.71-4.39,5.05,5.05,0,0,1,2.16-2.79,2.32,2.32,0,0,0,.86-.87,42.39,42.39,0,0,0,3.94-8.71,56.68,56.68,0,0,1,3-8.2c1-2.28,1.4-4.68-.32-6.92a.24.24,0,0,1,0-.32.23.23,0,0,1,.1-.07c-.54.06-.77-.28-1.08-.85h0a1.18,1.18,0,0,1,1.11.86h0c.31-.1.48.23.73.4,3,2,5.53,4.65,8.36,6.89a9,9,0,0,1,1.45,1.37c.22.29.43.58.63.88h0c.18.29.35.59.51.89.24.69.49,1.37.73,2a.45.45,0,0,0,.07.28c.07.09.05.25.08.37a1.65,1.65,0,0,0,.13.66,3.43,3.43,0,0,0,.14.71v.07h0v.25a1.22,1.22,0,0,0,0,.27c.07.33.14.66.22,1L152,250h0a.46.46,0,0,0,.11.42,14,14,0,0,0,.73,2.62,1.9,1.9,0,0,0,.4.77,4.75,4.75,0,0,0,.73,1c.12.12.13.34.2.51.12.32.22.64.32,1,.24.88.48,1.77.73,2.67.06.27.11.54.16.8.12.71.2,1.43.28,2.16a11.14,11.14,0,0,0,.27,1.81c.08,1,.13,2,.22,3A9.16,9.16,0,0,1,156,270h0a1.45,1.45,0,0,1-.1.41c0,.14,0,.11-.08.16a21.26,21.26,0,0,0-2.21,2.89c-.21.25-.45.5-.67.73a1.86,1.86,0,0,0-1,.73h0a.86.86,0,0,0-.21.07l-.33.25a.43.43,0,0,0-.21.09,1.58,1.58,0,0,0-.82.77,1.81,1.81,0,0,0-.58.68l-.18.19c-.7.28-1.14.94-1.84,1.28v.07l-.48.29v.16h0v-.15a.85.85,0,0,0-.58.54.3.3,0,0,0-.19.14l-.14.1a.63.63,0,0,0-.46.27h0a2.3,2.3,0,0,0-1,.71l-.14.09h0c-.51.07-.73.54-1.15.69s-.6.39-.58.64a.93.93,0,0,0,.14.54,1.1,1.1,0,0,1,.2.28c-.16.54-.54.46-1,.21s-.93-.48-1.23.22h0c-.08.1-.15.2-.23.29a.33.33,0,0,0,0,.24l.06.07h0l-.07-.08a.18.18,0,0,0,.08.21c.06.33.44.42.78.42a8.87,8.87,0,0,0,3.14-.54,40.88,40.88,0,0,0,5.2-2.63c.47-.3,1-.66,1.4-.9s.69,0,.69.45h0l-.72,1.24.1.11V282l-.12-.13c-.85,1.66-1.72,3.31-2.61,5h0a.62.62,0,0,0-.23.54l.06.06h0l-.06-.06a.49.49,0,0,1,0,.17v-.17c-.23.12-.25.35-.29.54a.66.66,0,0,0-.29.54,2,2,0,0,0-.46.93.37.37,0,0,1,.16.07v.07a.36.36,0,0,0-.22-.07,3.33,3.33,0,0,0,.07.54.43.43,0,0,0,.09.3.56.56,0,0,0,.45.36.62.62,0,0,0,.77,0,15.18,15.18,0,0,0,1.51-1,19.44,19.44,0,0,1,3.24-2.16,10.84,10.84,0,0,0,3.32-2.7,8.06,8.06,0,0,1,1.42-1.32c.5-.37.77-1,1.38-1.24l.19.23c0,.06,0,.1,0,.14a14.5,14.5,0,0,0,.32,1.62c.13.54.2.79.3,1.18v.06a18.66,18.66,0,0,0,1,2.7c.8,1.83,1.77,3.61,2.7,5.4a.94.94,0,0,0,.25.4.85.85,0,0,0,1.2-.07,1.14,1.14,0,0,0,.33-1c0-1.58.1-3.15.2-4.72a20.68,20.68,0,0,0-.74-7.3,1.89,1.89,0,0,0-.26-1,2.38,2.38,0,0,1-.1-1c0-.85.18-1,1-.85s1.62.39,2.42.65a17,17,0,0,0,5.35.69c1,0,1.18-.26,1.18-1.27v-.12a.73.73,0,0,0-.5-.91h0l-.11,0h0l-4.9-2.53h0a.46.46,0,0,0-.35-.24,12,12,0,0,0-2.51-1.59c-1.26-.74-1.69-1.08-1.4-1.65a2.25,2.25,0,0,1,.24-.3,9.92,9.92,0,0,1,1.14-1c2.37-1.86,3.49-4.52,4.56-7.18a1.33,1.33,0,0,0,.11-.76v-.09a.67.67,0,0,0-.07-.18l-.06-.09-.14-.14a.17.17,0,0,0-.06-.06h0a1.5,1.5,0,0,0-1.65-.12,6,6,0,0,0-1.62,1A19.43,19.43,0,0,1,164,265h-1.14a1.56,1.56,0,0,1-.4-.41c-.15-.33-.29-.67-.42-1s-.36-.92-.54-1.4l-.08-.2c-.21-.69-.41-1.4-.58-2.1l-.06-.27a2.19,2.19,0,0,0-.09-.5,6.33,6.33,0,0,0-.37-2.16,2.62,2.62,0,0,0-.07-.74.17.17,0,0,0,0-.14v-.17a1.64,1.64,0,0,0-.06-.7v-.34c0-.27-.07-.63.27-.71a1,1,0,0,0,.83-.69,1.1,1.1,0,0,0,0-.8v-.27c0-1.21,0-2.42-.07-3.63a37.63,37.63,0,0,0-.14-4.11c-.07-2.32-.14-4.66-.11-7,0-1.45-.06-2.9-.09-4.32a9,9,0,0,0,0-1.27v-.23a2,2,0,0,0-.18-.89.94.94,0,0,0-.06-.28h0a.76.76,0,0,0-.54-.54h0l-.3-.25h0a14.35,14.35,0,0,0-1.54-1.37l-.06-.06h0a1.16,1.16,0,0,0-1.08-.82h0a1,1,0,0,0-.83-.23h0a14.94,14.94,0,0,0-2.77-.9h-.15a7.94,7.94,0,0,0-2-.76l-.66-.26-3.45-1.47-.54-.26a6.06,6.06,0,0,0-1.82-.85h0a1.28,1.28,0,0,0-.87-.45h0a.66.66,0,0,0-.54-.28h0a1.75,1.75,0,0,0-.85-.47v.06h0a3.41,3.41,0,0,0-1.28-.63h-.09a.8.8,0,0,0-.54-.3,1,1,0,0,0-.54-.33l-.31-.17h0l-10.53-6.37h0a1.13,1.13,0,0,0-.64-.45h0l-2-1.2-.82-.54h.06a9.08,9.08,0,0,0-2-1.34h0a.4.4,0,0,0-.23-.1h0a6.55,6.55,0,0,0-2-1.32,9.28,9.28,0,0,0-1.58-1.06l-.35-.23a21.75,21.75,0,0,0-2.63-1.84l-1.22-.94-.22-.17c-.54-.41-1.08-.81-1.62-1.24s-1.12-.85-1.67-1.28a15.16,15.16,0,0,1-2.12-1.88l-1.22-1a3.94,3.94,0,0,1-.54-.54,2,2,0,0,0-.68-.66l-.09-.09-1.46-1.65-.65-.63-.3-.33c-.18-.21-.34-.42-.51-.63a.9.9,0,0,1-.09-.32h0c.57.54,1.14,1.13,1.7,1.7l.18.23h.07c.54.54,1.08,1.08,1.62,1.57.73.68,1.49,1.33,2.27,2v0l.3.18c1.24,1,2.5,2,3.72,3l.59.38q12.07,8.37,24.92,15.58a78.63,78.63,0,0,0,19.31,7.7c1.35.28,2.59,1,3.92,1.28,1.9.43,3.78.83,5.71,1.2a17.17,17.17,0,0,0,5.81.07,52.36,52.36,0,0,0,9.63-2.55,43.53,43.53,0,0,0,7.27-3.1,5.29,5.29,0,0,0,2.13-2.45,3.21,3.21,0,0,0-.19-3h0l-.16-.21a.21.21,0,0,0-.06-.1l-.07-.09-.54-.72h0a1.81,1.81,0,0,0-.31-.54c-.14-.41-.29-.81-.44-1.21l-.11-.45h0a2.43,2.43,0,0,0-.79-1.81c-.16-.34-.3-.7-.48-1a18,18,0,0,0-1.55-3.51h0a.25.25,0,0,0-.16-.24v-.06h0a.64.64,0,0,0-.28-.54h0v0h0a13.37,13.37,0,0,0-1.25-2.33l-.08-.17a1.68,1.68,0,0,0-.41-.75c-.54-1-1.08-2.06-1.67-3.09v-.11l-.09-.1v-.07h0a4.17,4.17,0,0,0-.51-.89c-.34-.61-.68-1.23-1-1.85a1.65,1.65,0,0,0-.14-.26l-.33-.67a.3.3,0,0,0-.06-.11l-.36-.75c-.64-1.43-1.36-2.83-2.12-4.21a1.66,1.66,0,0,0-.29-.54l-.23-.37a2.56,2.56,0,0,0-.46-.8v-.06a.24.24,0,0,0-.16-.27h0a27,27,0,0,0-1.91-2.95l-.93-1.29a9.84,9.84,0,0,0-1.08-1.4l-.2-.25a1,1,0,0,0-.33-.42L174,182.69l-.65-.54a.27.27,0,0,0-.13-.13l-.09-.07h0l-.29-.32h0a.9.9,0,0,0-.08-.23c-.54-.18-.78-.8-1.37-.88h0a4,4,0,0,0-1.65-.81v.06h0v-.05a.62.62,0,0,0-.64-.19h0l-.21-.08h0v-.17a6.58,6.58,0,0,1,4.19,1.72v.07l.21.15a10.12,10.12,0,0,1,1.06,1,40.93,40.93,0,0,1,6.52,8.25c1.38,2.19,2.51,4.53,3.78,6.8a40.26,40.26,0,0,0,2.19,3.55v0a.81.81,0,0,0,1.11.29,9.2,9.2,0,0,0,2.42-1.33,118.51,118.51,0,0,1,14.66-9.76c4.24-2.35,8-5.48,12.68-7.12a.92.92,0,0,0,.54-1,.44.44,0,0,0-.14-.3h0c-.09-.26-.3-.28-.54-.28h0a3,3,0,0,0-1.46-.32,18.07,18.07,0,0,0-5.5.92.21.21,0,0,1-.07.15h0a.34.34,0,0,0,.08-.17,4.45,4.45,0,0,0-1.7.5l.09.07h0a.28.28,0,0,0-.25,0l-.09.13h-.18l.09-.15a1.75,1.75,0,0,0-.83.25h0a1.21,1.21,0,0,0-.49.11,1.5,1.5,0,0,1-.29-.06c0-.06,0-.13.05-.19a7.84,7.84,0,0,1,3.72-2.83,15.23,15.23,0,0,1,5.18-.83c.43,0,1.08.15,1.13-.54v-.12h0c.09-.47-.33-.72-.74-.87a2.92,2.92,0,0,0-1.34-.23h0a7.26,7.26,0,0,0-3.43-.31H211l-2.1.05a1.55,1.55,0,0,1-.36-.13c3-2.38,6-4.43,9.79-4.93a5,5,0,0,1,2.46.23,2.15,2.15,0,0,1,1.55,1.8,1.83,1.83,0,0,1-.21,1,2.43,2.43,0,0,1-.24.32l-.08.09a1.65,1.65,0,0,1-.38.27l-.22.13a1.45,1.45,0,0,0,1.46.18,5.91,5.91,0,0,0,4.43-5.56,5.45,5.45,0,0,0-1.38-4h0A6.8,6.8,0,0,0,224,165a8.38,8.38,0,0,0-.91-.54,3.7,3.7,0,0,0-1.62-.65c-2.25-.54-4.37.12-6.51.61h0a1.14,1.14,0,0,0-.82.24h0a5.16,5.16,0,0,0-1.92.62h0a.62.62,0,0,0-.54.23h0a6.15,6.15,0,0,0-1.91.84h0a2,2,0,0,0-1.08.54h-.06a.39.39,0,0,0-.22.11l-.23.14a1.67,1.67,0,0,0-.81.45l-.72.43h-.11l-1.28,1.12-.25.21h0a2,2,0,0,0-.77.65,3.11,3.11,0,0,0-1.11,1.11h0l-.11.11.13-.18-.28-.06v.29h0a.51.51,0,0,1-.15-.07l.07-.18h.08v-.11a4.87,4.87,0,0,1,1.08-1.39c.12-.11.25-.2.37-.3a4.07,4.07,0,0,1,.61-.41,4.22,4.22,0,0,0,.61-.39.64.64,0,0,0,.33-.28l.23-.22h.07l.1-.18h0c1.58-1.58,3.31-3,5-4.45a5.1,5.1,0,0,0,.93-.81,29.57,29.57,0,0,1,4.8-3.59,12,12,0,0,0,3.88-3.9,2.45,2.45,0,0,0,.44-1.59,5.88,5.88,0,0,0-.17-1.62h0a2.7,2.7,0,0,0-.14-.4,1,1,0,0,0-.27-.7h0l-.15-.33c-.13-.28-.28-.56-.44-.83a2.27,2.27,0,0,1,.15-1.87c.44-1.08.88-2.13,1.25-3.24a4.87,4.87,0,0,0,.34-1.92,4.39,4.39,0,0,0-.78-2.51,3.76,3.76,0,0,1-.69-2.61,2.68,2.68,0,0,1,.68-1.13,8.29,8.29,0,0,1,3.68-2.63c2.25-.81,3.71.14,4,2.5a1.2,1.2,0,0,0,1-.31,5.48,5.48,0,0,0,2.46-4.4h0v-.42a3.22,3.22,0,0,0-.36-1.46.49.49,0,0,0-.08-.18,3.72,3.72,0,0,0-1-1.16,2.78,2.78,0,0,0-2.9-.74l-.54.11h0a14.22,14.22,0,0,0-3.55,1.11l-.32.12a2.25,2.25,0,0,0-.79.31l-.54.24a.55.55,0,0,0-.15.08c-.26.12-.54.26-.78.39a4.2,4.2,0,0,0-.91.54,12.64,12.64,0,0,0-1.55,1.08,6.75,6.75,0,0,0-1,.76l-.46.45-.4.38-.07.08a37.28,37.28,0,0,0-2.94,3.35h0c-.29.3-.54.61-.83.92a2.33,2.33,0,0,0-.37.46l-.14.17a3.86,3.86,0,0,0-1,1.27c-.21.42-.41.83-.6,1.25a16,16,0,0,0-1.08,2.84l-.34,1c-.05.14-.09.27-.13.41-1,3-2,6-3.06,9.09a7,7,0,0,1-1.05,2.21,1.76,1.76,0,0,0-.24.3c-.11.13-.21.28-.32.4a8.36,8.36,0,0,0-2.44,2.55h0l-.17.21a1.54,1.54,0,0,0-.6.69h0c-.69.72-1.33,1.48-2,2.23a22.93,22.93,0,0,1-2.16,1.9h0l-.12.1a.39.39,0,0,0-.1.08l-.07.06a9.1,9.1,0,0,1-.85.59h0a7.4,7.4,0,0,0-1.35.87l-.15.08a16.39,16.39,0,0,1-3.69,1.55l-.61.15c-.33.08-.67.16-1,.22a5.7,5.7,0,0,1-2,.49c.47-.47,1.13-.51,1.7-.77.49-.44,1-.85,1.52-1.27a1.43,1.43,0,0,0,.44-.37h0l.18-.14a1.7,1.7,0,0,0,.3-.23c.54-.43,1.08-.85,1.67-1.25A18,18,0,0,0,196.4,162a2.29,2.29,0,0,0,.43-.45l.32-.32a6.51,6.51,0,0,0,.51-.54h0a.32.32,0,0,0,.25-.29,1.55,1.55,0,0,1-.24.27l.22-.27h0l1.08-1.37a3.15,3.15,0,0,1,.25-.28,6.77,6.77,0,0,1,.54-.54,1.05,1.05,0,0,0,.36-.42l.16-.2a1.14,1.14,0,0,0,.43-.54l.51-.68c.08-.12.18-.24.25-.36.78-1.14,1.48-2.34,2.16-3.56l.2-.32h0a3,3,0,0,0,.78-1.42h0a6.6,6.6,0,0,0,.57-1.2c.47-1,.91-2,1.43-2.88,0-.08.09-.17.13-.25a.38.38,0,0,0,.06-.13c.08-.16.16-.31.23-.48a4.33,4.33,0,0,0,.31-.92h0a1.4,1.4,0,0,1,.09-.29,5.72,5.72,0,0,1,.22-.7,6.71,6.71,0,0,0,.54-1.52h0a1.74,1.74,0,0,0,.33-.81h0a.3.3,0,0,0,.2-.28h-.25l1.88-3.64c.24-.41.49-.81.76-1.2a1.19,1.19,0,0,0,.22-.33l.17-.22a1.43,1.43,0,0,0,.14-.2c.26-.37.54-.73.8-1.08l.45-.57c.4-.51.83-1,1.26-1.48a11.13,11.13,0,0,0,.82-.87c.4-.4.79-.81,1.2-1.21a14.63,14.63,0,0,1,3.46-2.54,50.33,50.33,0,0,1,4.66-2l.38-.11a42.72,42.72,0,0,1,4.42-1.39,29.07,29.07,0,0,0,5-1.47,7.26,7.26,0,0,0,1.25-.54,27.39,27.39,0,0,0,3.24-1.65,6.42,6.42,0,0,0,1.93-1.62,4.2,4.2,0,0,0,1.11-2.27h0v-.14a2.66,2.66,0,0,0,.25-1.18A5.07,5.07,0,0,1,242,115a11.09,11.09,0,0,0,.24-2.82,21.71,21.71,0,0,0-.14-2.67v-.77l-.45.91c-.13.24-.24.5-.38.74a11.22,11.22,0,0,1-1.7,2.4l-.91.9-.64.51-1.47.94-.44.22a1.46,1.46,0,0,0-.66.29h0l-.49.18-.41.14a.74.74,0,0,0-.21,0h0a.7.7,0,0,0-.6.2h0a.29.29,0,0,0-.22.06h-.08c-.83,0-1.66.09-2.48.2h-.37a6.31,6.31,0,0,0-3.34,0H227a1.83,1.83,0,0,0-.65.16l-.22.08h0a1.76,1.76,0,0,0-1,.47l-.16.12a.33.33,0,0,1-.26-.34,5.25,5.25,0,0,1,.79-1.4,11.65,11.65,0,0,1,4.68-4,87.09,87.09,0,0,1,9.18-3.89,17.34,17.34,0,0,0,10-8.13l.37-.76A14.88,14.88,0,0,0,251,96.31c.9-2,1.69-4,2.4-6a.65.65,0,0,1,.08-.22c.17-.49.33-1,.49-1.51a10.39,10.39,0,0,0,.4-1.23c.18-.62.34-1.24.46-1.88a7.31,7.31,0,0,0,.27-1.62c.13-.9.24-1.8.34-2.7h0v-.38a6.45,6.45,0,0,0,.24-2A14.45,14.45,0,0,0,255.67,75.81ZM226.86,91.75a7.49,7.49,0,0,0,2.67-4.42,0,0,0,0,0,0,0,.09.09,0,0,0,0-.07v-.16a17.63,17.63,0,0,0,.21-4.35,3,3,0,0,1,.06-.74c0-.25.14-.38.38-.31a.56.56,0,0,1,.3.25,2.09,2.09,0,0,1,.08.36,2.83,2.83,0,0,0,.05.82h0v.08h0c0,1-.08,2-.08,3h0v0a1.23,1.23,0,0,0-.2,1h0a.28.28,0,0,0,0,.18v.14a17.4,17.4,0,0,1-1.26,2.74h0a.28.28,0,0,0-.09.18.11.11,0,0,1,0,.08c0,.08-.11.15-.15.22s0,0-.08,0l-.29.28-1.65,1.13h0a.72.72,0,0,1-.24-.25A.77.77,0,0,1,226.86,91.75Zm-3.78-23a.5.5,0,0,1,.83,0,.21.21,0,0,1,0,.11L224,69a1.09,1.09,0,0,1,.1.25.38.38,0,0,0,.08.27v.15h0l.18.7a2.15,2.15,0,0,0,.07.62.92.92,0,0,0,.11.29,5.26,5.26,0,0,1,.12.78,25,25,0,0,1,0,3.67c-.05.41-.11.82-.18,1.22l-.06.08-.06.48h0l-.09.41a.53.53,0,0,1-.13.2v.33A1.91,1.91,0,0,1,224,79l-.1.13a.93.93,0,0,0-.06.4c-.17.54-.36,1-.58,1.55h0a.85.85,0,0,1,0-.73,17.64,17.64,0,0,0,.79-4.13l.07-.26V75.6h0V75h0V73.71a2.56,2.56,0,0,1-.11-.24,6.93,6.93,0,0,0-.1-.78.54.54,0,0,1,0-.18h0v-.75a.65.65,0,0,1-.13-.23.33.33,0,0,0,0-.21v-.18a1.41,1.41,0,0,1-.07-.54.65.65,0,0,1-.16-.21.54.54,0,0,0,0-.18.61.61,0,0,1,0-.19l-.06-.47-.18-.36a1.44,1.44,0,0,1-.1-.54ZM109.26,84.56h.06a.53.53,0,0,1,.38.12,2.9,2.9,0,0,1,.14.65h0v0a1.69,1.69,0,0,1-.84.29h0a1.14,1.14,0,0,1-.23-.38h0a.61.61,0,0,1,.49-.65ZM74.68,95.8c-.13.3-.33.54-.72.46h-.07a.62.62,0,0,1-.48-.36v-.18a.57.57,0,0,1,.54-.59h.14a.59.59,0,0,1,.61.54h0a1.09,1.09,0,0,0,0,.15Zm3.72,77.44h-.1l-.11-.24.22.17v.07Zm24.16,101.32c-.06.2-.21.42-.43.41a.29.29,0,0,1-.25-.19v-.35a.32.32,0,0,1,.42-.37h0a.22.22,0,0,1,.24.21h0a.11.11,0,0,1,0,.08.58.58,0,0,1,0,.19Zm-3.39,4.76h-.06a.49.49,0,0,1-.41-.54h0a.21.21,0,0,1,.19-.12.67.67,0,0,1,.62.28V279a.33.33,0,0,1-.3.34h0Zm3.74-.85c-.28-.16-.57-.45-.45-.73l.07-.07h.07c.65-.14.79.49,1.08.86a.28.28,0,0,1,0,.13c-.26.2-.54-.06-.78-.2Zm1.89-3.73v.07c-.19.08-.36.2-.54,0a1,1,0,0,1-.23-.48,3.76,3.76,0,0,0-.12-.67,1.43,1.43,0,0,1,.09-.41.32.32,0,0,1,.4-.22.31.31,0,0,1,.21.22,2.94,2.94,0,0,1,.11.66,4.68,4.68,0,0,0,.1.54Zm4.7,10.13,0-.07a.84.84,0,0,1,1-.07v.06c-.21.31-.58.3-1,.07Zm23.42-16.74a1.65,1.65,0,0,1,.4-.72h.25a1.35,1.35,0,0,1,.15.26c-.16.22-.12.54-.2.76s-.22.51-.57.27h0a2.82,2.82,0,0,1,0-.58Zm-2.37.17a.64.64,0,0,0,.15-.31h0a.52.52,0,0,1,.34-.18h0c.09.07.19.09.23.18v.51a.64.64,0,0,1,.1-.13h0a.14.14,0,0,0,0,.09.48.48,0,0,1,0,.17.66.66,0,0,1-.77.37,1.33,1.33,0,0,1,0-.71Zm-2.31.54a1.24,1.24,0,0,1,.54-.83.24.24,0,0,1,.2.05,1.38,1.38,0,0,1,0,.64h0a.33.33,0,0,0,0,.14,2.65,2.65,0,0,1-.13.54.81.81,0,0,1-.16.32.26.26,0,0,1-.33.15h0c-.22,0-.22-.17-.22-.3a2.18,2.18,0,0,1,.12-.72Zm16.24,13.21a3.15,3.15,0,0,1-.22-.29h0a.76.76,0,0,1,.21-.19.81.81,0,0,1,.87,0,.83.83,0,0,1,.37.76c-.46.11-.82-.16-1.23-.29Zm3-1.48c-.11-.06-.23-.1-.23-.28a.33.33,0,0,1,.24,0,1.59,1.59,0,0,1,.24.2.4.4,0,0,1-.28.07Zm3.09-.93-.17.11-.68.09h-.11a.6.6,0,0,1-.21-.14c-.15-.14-.48-.21-.54-.42a.24.24,0,0,1,.06-.15.52.52,0,0,1,.45-.25c.45.06.76.48,1.34.54Zm20.65-3.1c.38,0,.38.35.38.6a4.46,4.46,0,0,1-.06.54c-.16.26-.28.58-.7.49h0a1.86,1.86,0,0,0-.1-.25h.06l-.08-.22v-.23c-.07-.44-.12-.93.47-.94Zm-2.93-.75a.68.68,0,0,1,.24-.59h.06a.4.4,0,0,1,.34.12,1.83,1.83,0,0,1-.38,2,.43.43,0,0,1-.34.21v-.63a3,3,0,0,0,.05-1.08Zm-12.11-16.91-.31-.2a3.94,3.94,0,0,1,2.7-.69l-.21.27a6.49,6.49,0,0,1-.61.41v.09h0v-.09c-.31,0-.64-.07-.9.2l.17.08h0l-.17-.08-.35,0Zm2.86.76c-.12.16-.39.19-.51.39h-1.17A2.14,2.14,0,0,1,159.05,259.64ZM151.36,288h0l.09-.08h-.28a1.39,1.39,0,0,1-.63-.76.32.32,0,0,1,.24-.33H151a5,5,0,0,1,.39.52,1.22,1.22,0,0,1,.14.33A.55.55,0,0,1,151.36,288Zm2.46-.95h-.1a3.47,3.47,0,0,1-1.56-.71c-.26-.32-.58-.6-.82-.94h0a1.51,1.51,0,0,1-.09-.18.27.27,0,0,1,.1-.3c.12,0,.27-.11.38,0l2.11,2.16Zm.88-2.33a.33.33,0,0,0-.24-.12h0a2.73,2.73,0,0,1-.93-.79c-.15-.36-.48-.63-.66-1a.44.44,0,0,1,.08-.33h0a.55.55,0,0,1,.72,0,6.43,6.43,0,0,1,1,1.42,2.83,2.83,0,0,1,.09.82Zm-.13-2.7.15-.1a4.18,4.18,0,0,1,2,.58c-.87.48-1.46-.15-2.19-.48Zm5.52-1.27a1.14,1.14,0,0,1-.34.19,2.73,2.73,0,0,1-1.5,0,10.86,10.86,0,0,1-4.86-2.1,2.35,2.35,0,0,1-.49-.6.43.43,0,0,1,0-.16,1,1,0,0,1,1.33-.27,1.37,1.37,0,0,1,.22.2,9.21,9.21,0,0,0,3.24,1.8c.57.15,1.18.21,1.76.35.26.06.61.08.58.49v.1Zm-.47-2.9a1.74,1.74,0,0,0-1-.15h0a.26.26,0,0,0-.24,0,12.36,12.36,0,0,1-1.66-.54l-.51-.22a.17.17,0,0,0,0-.1l-2-1.14h-.06a.54.54,0,0,1-.1-.39v-.05a1.39,1.39,0,0,1,2,0h0a17.13,17.13,0,0,0,3.32,1.65,4.74,4.74,0,0,1,1.5.85.19.19,0,0,1,0,.15,10.23,10.23,0,0,1-1.24-.14Zm1.93,7.22c-.08-.26.13-.4.28-.54a5.75,5.75,0,0,1,.54-.44h0c.4-.1.87-.08,1.12-.54l.12-.05-.11-.11v-.06h-.05c-.26-.27-.61,0-.91,0s-.65.27-.91-.07a.43.43,0,0,0,0-.16c.12-.06.17-.13,0-.26,0,.07,0,0-.1.07h0a.19.19,0,0,1,.09-.05c-.23-.24-.54-.22-.87-.26a4,4,0,0,1,3.06-1.17c.14,0,.17.12.17.2l-.12.13a.19.19,0,0,0,.09,0h0c-.32,0-.73-.12-.92.37h.05a.48.48,0,0,0,0,.17h1.08a.78.78,0,0,1,.15.1V283c0,.19-.07.27,0,.36.28.17.67,0,1,.2a.56.56,0,0,1-.32.54c-1.08.83-2.12,1.62-3.47,1.08Zm.95,2.28a4.92,4.92,0,0,1,2-1.25.88.88,0,0,1,.64,0v.18a.79.79,0,0,1-.5,1h0a2.08,2.08,0,0,1-.54.11h-.39a.21.21,0,0,1,0,.11h-.09a.2.2,0,0,0,0-.11h-.68Zm3,1.26c.23,0,.45,0,.5.22a2.91,2.91,0,0,1-1.62,1.76c-.18.06-.5,0-.45-.08a.43.43,0,0,0,.1-.24.24.24,0,0,0-.05-.34h0a1.83,1.83,0,0,1-.32-.58,3.92,3.92,0,0,1,1.86-.7Zm.34-13.93a.6.6,0,0,1,.66-.36.46.46,0,0,1,.38.5v1.46a.55.55,0,0,1-.82.44.67.67,0,0,0-.54-.29h0a1,1,0,0,1-.3-.47,7.6,7.6,0,0,1,.63-1.28ZM169.67,263l.19.19a1.33,1.33,0,0,1-.18,1.55c-.3,0-.37-.24-.5-.45L169,264c-.09-.19-.22-.36-.32-.54l-.11-.15-.14-.23h0a.78.78,0,0,1,1.07-.21h0l.11.09ZM167,264.37a.46.46,0,0,1,.07-.14.39.39,0,0,1,.1-.08l.09-.06h.12a.91.91,0,0,1,.6.3,2.51,2.51,0,0,1,.59,1.29h0a2.36,2.36,0,0,0,0,.65h0l-.06.18a.5.5,0,0,1-.4.19l-.11-.16v-.09a.46.46,0,0,0-.23-.33h0a.26.26,0,0,0-.07-.18,1.06,1.06,0,0,0-.41-.63c-.06-.08-.09-.16-.16-.24a.7.7,0,0,1-.14-.54.17.17,0,0,1,0-.17Zm-1.7,1.14h.09a.58.58,0,0,1,.69.17,3.48,3.48,0,0,1,.84,1.42h0a3.61,3.61,0,0,1,.15.92.4.4,0,0,1-.36.35c-.3,0-.39-.22-.39-.44a1,1,0,0,0-.27-.61h0a1.48,1.48,0,0,0-.47-1.08c-.12-.28-.54-.54-.3-.73Zm-1.45,1.65c.4-.51.71-.46,1,.13a5.72,5.72,0,0,1,.39,1.92v.57a1.8,1.8,0,0,1-.08.39,1.33,1.33,0,0,1-.93.23.65.65,0,0,1-.47-.13.49.49,0,0,1-.12-.32,17.91,17.91,0,0,1-.08-2.2,1.1,1.1,0,0,1,.27-.59ZM162.38,273c.33,0,.89-.21,1,.31v.15a.21.21,0,0,0-.15.09h0a15.89,15.89,0,0,1-2.2.76h-.31l-2.46-.06h0c-.19-.27-.48-.2-.73-.27-.8-.2-1-.33-.8-.74a1.68,1.68,0,0,1,1.91-.35C159.88,273.33,161.14,273,162.38,273ZM161,268.13h0a2,2,0,0,1-.45.24h0l-.06.05h-.08a1,1,0,0,0-.61.14h-.14l-1.35-.24h0l-.17-.27C159.17,267.71,160.09,268.21,161,268.13Zm-.47-4c.21.05.24.31.14.54l-.16.17h0a12.43,12.43,0,0,1-2.2.1V265h-.06l-.49-.09h0c-.37-.36-.54-.5-.47-.66a3.83,3.83,0,0,1,3.24-.15Zm-1.12-18.57a25.28,25.28,0,0,1,.54,3,3.47,3.47,0,0,1-.06.45.26.26,0,0,1-.21.16h0a1.75,1.75,0,0,1-.16-.27l-.23-.81h0a3.78,3.78,0,0,0-.87-2.2,1.45,1.45,0,0,1-.23-.67.77.77,0,0,1,.35-.34.66.66,0,0,1,.64,0,1.84,1.84,0,0,1,.23.67Zm-1.48-7.5H158a.35.35,0,0,1,.4.3h0c.14,1,.54,2,.68,3h0c-.86-.81-1-2-1.49-3v0a.68.68,0,0,1,.33-.25Zm.86,17a.61.61,0,0,1,.34.14,1.09,1.09,0,0,1-.42.63h0l-.46.09-.07.11h-.07a.22.22,0,0,0,0-.08,11.21,11.21,0,0,1-2,.18,1,1,0,0,1-.91-.38,4.06,4.06,0,0,1,3.59-.7Zm-1.38-8.37a13.59,13.59,0,0,1,.23,2.47h0c-.62-1.11-.63-2.43-1.3-3.51v-.3a.56.56,0,0,1,.45-.33.41.41,0,0,1,.41.39h0c.08.27.14.54.2.82Zm-1.62-7v-.35a.53.53,0,0,1,.25-.19h.09a.38.38,0,0,1,.44.31h0c.22,1,.42,1.87.63,2.77a.89.89,0,0,1,0,.23,4.68,4.68,0,0,1-.88-1.55,1,1,0,0,0-.09-.21c-.07-.18-.15-.35-.23-.54a1.35,1.35,0,0,0-.22-.47Zm-1.15,5.94c.33-.05.5.19.5.5v2.19a5.34,5.34,0,0,1,0,.8h0a.4.4,0,0,1-.25-.21v-.18h0c0-.3-.07-.6-.13-.9a4.31,4.31,0,0,0-.24-.87,5.32,5.32,0,0,0-.26-.61.36.36,0,0,1-.08-.27.44.44,0,0,1,.41-.46h.05ZM152.45,240a.65.65,0,0,1,.24-.28.56.56,0,0,1,.17-.09.42.42,0,0,1,.5.29c.17,1,.79,2,.58,3.12h-.15a3.06,3.06,0,0,1-.26-.51,1.6,1.6,0,0,0-.25-.7.22.22,0,0,0-.08-.2.44.44,0,0,0-.19-.47v-.09a.51.51,0,0,0-.29-.5h0l-.14-.14h0a.42.42,0,0,1-.1-.17.57.57,0,0,1,0-.26Zm-30.08,26.29c1.08-.54,1.91.22,2.78.48h-2a1.24,1.24,0,0,0,.3.16,2.69,2.69,0,0,1-.54-.14l-.14,0-.47-.26a.66.66,0,0,1,0-.2Zm1-3a3.14,3.14,0,0,1,2.47.28c-.15.22-.46.22-.74.22h-.36a3,3,0,0,1-.93-.28,1.78,1.78,0,0,1-.38-.28Zm-1.16,3,.11.12a.13.13,0,0,1-.12-.08h0Zm-14.15,11.6-.15.3h-.26v.06h0v0l-.83-.32h0l-.28-.27h0a1.31,1.31,0,0,0-.45-.54.78.78,0,0,1,.12-.22.47.47,0,0,1,.63-.14l0,0,.42.4.19.19h.07a1.64,1.64,0,0,0,.37.26.41.41,0,0,1,.15.25Zm2.54-1.13-.71-.59-.27-.25a8.37,8.37,0,0,0-.57-.62h0a3.55,3.55,0,0,0-1.62-1.37.23.23,0,0,1-.14-.07h0a1.48,1.48,0,0,1,1.83.12,13.26,13.26,0,0,0,4.32,3.32c.1.16.06.36-.19.61h-.51a2.35,2.35,0,0,0-1.08-.54.65.65,0,0,0-.51-.28Zm2.16,6.68-.41.06.08.07h0a.31.31,0,0,1-.11-.09h-.78a.71.71,0,0,0-.54-.25h0a1.22,1.22,0,0,1,0-.27c.84-.54,1.62,0,2.38,0l.06.06v.1c0,.21-.4.32-.68.32Zm2.4-2.81h0a.87.87,0,0,0-.46.2l-.45.14h-.75c-.42-.11-.92.05-1.42-.36,1.13-.09,2.25-.13,3.39-.12Zm2.47-2-.1.06a6.87,6.87,0,0,1-2.66.67.38.38,0,0,0,0,.15h0a.33.33,0,0,1,0-.14l-1.65-.08c.87-.76,2.63-1,4.56-.75a.38.38,0,0,1-.15.09Zm1.73-2.56-.15.15h0a22.25,22.25,0,0,1-2.31,0,7,7,0,0,1-1.08-.31.58.58,0,0,0-.23-.18,44.51,44.51,0,0,1-4.32-2.89.89.89,0,0,1,.08-.17,1.27,1.27,0,0,1,1.76.08c.2.19.46.32.67.5a10.54,10.54,0,0,0,4.51,2.27,5.63,5.63,0,0,1,1.11.39.47.47,0,0,1-.06.15Zm0-2.27v.08h0v-.07l-1.41-.34v.05h0l-.38-.23a.49.49,0,0,1-.06-.17c0-.34.23-.47.45-.63a.85.85,0,0,1,.78-.19,15.14,15.14,0,0,0,3.68.39l.54.09a.46.46,0,0,1,.47.28,2.41,2.41,0,0,1-.42.48,11.91,11.91,0,0,1-3.67.27Zm4.62,1.89h-.15l-.36.2a.48.48,0,0,1-.6-.08.14.14,0,0,1,0-.09.54.54,0,0,1,.16-.26,6.06,6.06,0,0,1,2.27-1.77,3.68,3.68,0,0,1-.26.57,8.58,8.58,0,0,0-1,1.17h0a.54.54,0,0,0,0,.18h0v-.21l-.27.27h.2Zm.64,1.88h0a.51.51,0,0,1-.62-.18h0c.07-.09.13-.19.19-.28l.1-.06a3.14,3.14,0,0,1,1.26-.46.29.29,0,0,1,.15.16l-.25.22a.33.33,0,0,0,0,.14Zm.83-.34h0a.29.29,0,0,1,0-.13Zm1.15,1.33c.08.08.08.2,0,.39h0a.69.69,0,0,0-.49.39,1.4,1.4,0,0,1-.54.1s-.14-.17-.14-.17a1.31,1.31,0,0,1,1.19-.71Zm-1.32-9.29-2.7.07a2.41,2.41,0,0,1-.91-.36h0a10.55,10.55,0,0,1,2.63-.21.91.91,0,0,0,.07.14,2.41,2.41,0,0,0,.74-.17,5.93,5.93,0,0,0,.72-.1,1.05,1.05,0,0,1,.47.21l.06.12A6.64,6.64,0,0,1,125.28,269.24Zm-1.9-8.68v-.07a1.71,1.71,0,0,1,.61-.25h.1c.64.13,1.24.29,1.85.46l.46.26h0c-1.12.54-2.07.05-3-.4Zm6.22-19.72a3.64,3.64,0,0,1-.35.84c-.09.18-.18.35-.26.54l-.08-.07c.09-.48.2-1,.33-1.44a.53.53,0,0,1,.13-.13v-.33c.06-.19.11-.38.17-.57a.38.38,0,0,1,.49-.25.33.33,0,0,1,.13.07l.07.09c-.07.51-.54.86-.65,1.26Zm1.74,6.42h.06a4.47,4.47,0,0,0-.64,1.34l-.13.46c0,.12-.11.24-.17.36a.45.45,0,0,1-.21-.18,10.74,10.74,0,0,1,.51-2.38v-.08a.38.38,0,0,1,.49-.23.5.5,0,0,1,.19.1.36.36,0,0,1,.07.1Zm.69-6a.35.35,0,0,0-.12.25h0v.1a1.57,1.57,0,0,1-.1.28v-.17c-.41.44-.11,1-.34,1.45a2.78,2.78,0,0,1-.28-1.39,2.3,2.3,0,0,0,.09-.64,5,5,0,0,1,.2-.54v-.07a.31.31,0,0,1,.43-.06.27.27,0,0,1,.1.06.38.38,0,0,1,.13.22h0a.32.32,0,0,1-.07.25.86.86,0,0,1,0,.27Zm2.1-.24v-.11a.39.39,0,0,1,.43-.31h.05a.4.4,0,0,1,.28.24c-.06.48-.12,1-.17,1.46a10,10,0,0,1-.2,1.18l-.14.17a7.6,7.6,0,0,1-.27-2.64Zm-1.29,6a.33.33,0,0,1,.29.38v0a3.82,3.82,0,0,1-.14.81v.09a3,3,0,0,1-.19.78,2.68,2.68,0,0,0-.07.27,11.13,11.13,0,0,1-.58,1.62,13.07,13.07,0,0,1,0-1.77,18.57,18.57,0,0,0,.25-1.95.38.38,0,0,1,.43-.28Zm-5.21-27.43a10.7,10.7,0,0,0,4.32,2.8.79.79,0,0,1,.42.25c-.06.49-.44.54-.82.44a.29.29,0,0,1,0,.13h0v-.08l-.57-.29h-.08a8.54,8.54,0,0,1-2.44-1.91,1.37,1.37,0,0,1-.29-.24l-.16-.19a1.16,1.16,0,0,1-.2-.38h-.12a.49.49,0,0,1,0-.52Zm.65,26.06h0a.36.36,0,0,1,.46-.14h.07a.43.43,0,0,1,.19.39,2,2,0,0,0-.5.83c0,.06.06-.18,0,0h0v0a.11.11,0,0,1,0-.08l-.89,1.32v0l-.08.1-.42.31-.09.22a4.17,4.17,0,0,1-.37.36Zm-.09,12.89c-.54.57-1.18.37-1.76.37a3.77,3.77,0,0,1-1.41-.24,2.15,2.15,0,0,1-.41-.32,4.14,4.14,0,0,1,3.57.15Zm-5.71-37.34c.27.1.4.27.36.5a.82.82,0,0,1-1.08,0c-.7-.42-1.44-.81-2.16-1.21h0l-.32-.47a5.85,5.85,0,0,1-1.39-1.33v-.08l1.55,1.08h0l.09.13c.39.24.8.46,1.21.66a14.64,14.64,0,0,0,1.75.72Zm-2.85-8.36a5.07,5.07,0,0,1,.61.32.35.35,0,0,1,.09.49c-.58.44-1.08-.13-1.57-.37h-.05a2.91,2.91,0,0,0-1-.81h.14l-.08-.29a3.63,3.63,0,0,1-1.16-1.08h-.21a12.4,12.4,0,0,1-.75-1,14,14,0,0,0,4,2.7Zm-8,3.45a.68.68,0,0,1-.09.37h.13v.09h0c-.74.19-1.08-.54-1.67-.71a4.15,4.15,0,0,0-1-.91l-.09-.1-.65-.85h.35L111.3,216a1.74,1.74,0,0,1,.36.31Zm-.93-6.48a1,1,0,0,1,.3.2h0l-.09.54c-.71.09-1-.58-1.62-.78h0a.5.5,0,0,0-.36-.31l-.16-.16a1.7,1.7,0,0,0-.37-.34l-.09-.1h0l-.38-.49-.18-.14a8.44,8.44,0,0,1-.61-.83h0l-.07-.09a24.48,24.48,0,0,0,3.63,2.48Zm68.22,13.65v-.1a.52.52,0,0,0-.27.1v.25h0v-.08a2.68,2.68,0,0,1-1.62-.45l-.24-.24a.24.24,0,0,0,0-.12l-.33-.5h-.12a1,1,0,0,0-.35-.44l-.1-.19h.07c-.13-.44-.26-.87-.37-1.3a2.74,2.74,0,0,1,.17-.94c.08-.23-.12-.54.13-.75.36.46.74.91,1.14,1.34a2.35,2.35,0,0,0,2.48.79.54.54,0,0,1,.68.23.53.53,0,0,1,0,.39c-.54.66-.69,1.49-1.28,2Zm1.08-4.06h0a1.63,1.63,0,0,1-2.08.3l-.3-.21a11.27,11.27,0,0,1-1.14-1.44,4.84,4.84,0,0,1-.21-.47,2.33,2.33,0,0,1-.21-.49,1.28,1.28,0,0,0-.11-.64,2.09,2.09,0,0,1,0-.5c.27.13.28.42.28.68l.78,1h.54a2.21,2.21,0,0,1-.94-1.37.67.67,0,0,0,0-.2,1.62,1.62,0,0,1,0-.44c.69.5,1.17,1.15,2.06,1.32a6,6,0,0,1-1.46-1.47h.06l.06-.09a4.41,4.41,0,0,1,1.78.8.4.4,0,0,1,.37,0l-1.24-.8h0c0-.29-.33-.33-.48-.54a.62.62,0,0,1,.4.08.31.31,0,0,0,.07-.21h.11v-.22l-.17-.09c.36-.2.76-.06,1.14-.06v-.27h-.15a.22.22,0,0,0,0-.16c-.54-.12-1.16.12-1.69-.17a4.52,4.52,0,0,1,3.9-.09c.51.23.78.46.89.8a.53.53,0,0,1,0,.25,4.86,4.86,0,0,0,0,.54h0a1.66,1.66,0,0,0,.22,1,2,2,0,0,1,.18.58,2,2,0,0,1,0,.77,2.52,2.52,0,0,1-2.33,1.62c-.13,0-.22.16-.32.24Zm4.47-.1a2.11,2.11,0,0,0-.19.23,2.79,2.79,0,0,1-.68.54l-.57.2a.55.55,0,0,0-.54.09h0l-.06.07a3.1,3.1,0,0,1-.51.44v.06h0v-.08c-1-.17-1.22-.25-1.16-.89a.84.84,0,0,1,.35-.07,3.08,3.08,0,0,0,1.14-.42.25.25,0,0,1,.27-.2,2.67,2.67,0,0,0,.87-1.83,2.47,2.47,0,0,0-.07-1.08h0a3.19,3.19,0,0,0-.21-.73.6.6,0,0,1,.37-.09c.62.13,1,.48.93,1.14a1.61,1.61,0,0,0,.17,1,1.72,1.72,0,0,1-.16,1.67Zm-.93-8.48a1.47,1.47,0,0,1,.72.32,1.53,1.53,0,0,1,.23,2.15h0a3.47,3.47,0,0,0-.37.57l-.05.17c-.27.41-.57.75-1.26.41a1.24,1.24,0,0,1-.1-.2,1.46,1.46,0,0,0-1-1.32,4.63,4.63,0,0,0-2.34-.54l.25-.4a2.76,2.76,0,0,1,.93-.31,1.7,1.7,0,0,0,.71-.06,2.76,2.76,0,0,0,.57-.06c.26-.14-.1-.19-.2-.26l-.86.07v.07h0c-.19-.06-.45,0-.63-.08a1.44,1.44,0,0,1,.69-.44,5.82,5.82,0,0,1,2.72-.09ZM181,205.2a.65.65,0,0,1,.5.27c.14.51,0,.58-.63.64a3.79,3.79,0,0,0-1.67.23h-.14a10.14,10.14,0,0,0-2.16.89l-.57.57v.07a6.14,6.14,0,0,0-1.32,1.55h-.09a.7.7,0,0,0-.11.23h0l-.07-.07C175.69,207.18,178.74,205,181,205.2Zm-19.94-27.89a.56.56,0,0,1,.54.33,1.06,1.06,0,0,1-.31.85h-.5a1.13,1.13,0,0,1-.33-.76.59.59,0,0,1,.6-.44Zm-5.14-15.85a2.61,2.61,0,0,1,.54-.24,2.15,2.15,0,0,1,2.69,1.44v0a3.58,3.58,0,0,1,.13,1.42,7,7,0,0,1-.83,2h0l-.27.29a1.47,1.47,0,0,0-.32.29,2.76,2.76,0,0,1-.39.28l-.11.11h0a.69.69,0,0,0-.45.2l-.11.06a1.64,1.64,0,0,1-1.45-.26,8,8,0,0,0,1.37-.59h0a2.18,2.18,0,0,0,1.1-2.86l0,0c-.12-.25-.18-.49-.39-.54s-.32-.09-.54.11c-.58.54-1,.29-1.47-.1V163A1.22,1.22,0,0,1,155.92,161.46Zm-1,14a.77.77,0,0,1,.64-.45.82.82,0,0,1,.68.45,2.16,2.16,0,0,1-.08.8.83.83,0,0,0-.47.25s0,0,.08.07h0l-.07-.06c-.54-.21-.93-.54-.76-1.08Zm-7.84-1.71h0v.09a1.37,1.37,0,0,0-.13.2h-.07a1.14,1.14,0,0,1,.15-.23Zm-.37.11a.57.57,0,0,1-.26,0c0-.15.2-.24.3-.32a.46.46,0,0,1,.32.18Zm.33-1.12a1.45,1.45,0,0,0-.48.44h0v.12h0v-.15a1.14,1.14,0,0,1-.41-.07V173a.33.33,0,0,0,0-.14l.14-.09c.27.1.49-.17.73-.11a.23.23,0,0,1,0,.14Zm-.54-1.2a.6.6,0,0,1,.27.06c-.39.27-.69.71-1.2.79h-.06a2.88,2.88,0,0,1,.3-.5c.29,0,.47-.24.71-.36Zm-.8-.67c0,.13-.08.26-.13.38a4.72,4.72,0,0,1-.5.59.58.58,0,0,1,0-.41c.22-.16.37-.49.65-.57Zm-1.56-.08c.33-.28.44-.78.91-1a.57.57,0,0,1,0,.26c-.22.36-.27.9-.85,1.08a.58.58,0,0,1,0-.34Zm-.38-1.08a.36.36,0,0,1,.12.27.24.24,0,0,1,0,.12c0,.15-.08.29-.11.44v.07c-.23.28-.36.2-.45,0s.27-.58.47-.91Zm-4,9.24a4.72,4.72,0,0,1,1.46-1.28,3.28,3.28,0,0,1,.6-.28,2.87,2.87,0,0,1,3.61,1.81,1.79,1.79,0,0,0,.32.61h0a1.78,1.78,0,0,0,.22.26h0a1.69,1.69,0,0,0,.87.42,4.61,4.61,0,0,1,2.59,2,4.68,4.68,0,0,1,.38.78v.11c0,.11.06.21.08.32a5.43,5.43,0,0,0,.13.68,4.71,4.71,0,0,1-.14,1.71.21.21,0,0,1-.05.13,3.74,3.74,0,0,1-.33.8,5.39,5.39,0,0,1-.33.5h0a4.3,4.3,0,0,1-1.38,1.27h-.08a6.12,6.12,0,0,1-1.47.62c-.12,0-.23,0-.35.06h0a5.42,5.42,0,0,1-4.12-1.75c-.26-.26-.54-.48-.83-.72l-.11-.11a.33.33,0,0,0-.13-.11h-.08a.88.88,0,0,0-.58-.5h0a11.9,11.9,0,0,0-4.12-2.31h-.37c1.9-.75,3.5-1.46,5.36-1.19-.11-.06-.23-.1-.34-.15a2.59,2.59,0,0,0,.4-.09,4.29,4.29,0,0,0-3.42-.18h0a5,5,0,0,0-1.36.35.65.65,0,0,1-.16.13h0a.48.48,0,0,0,.2-.15,1.35,1.35,0,0,1-.63-.1c.22-.18.5-.3.72-.47a16.38,16.38,0,0,0,3.51-3.19ZM145,196.47h-.09a.14.14,0,0,0,0-.09h0c-.1-.25-.37-.42-.5-.66a1.79,1.79,0,0,0,.59-.2.1.1,0,0,0,.05.08l.06.09c-.24.17.44.65.13.8a.74.74,0,0,0-.21,0v0Zm-.51.3v.08a.32.32,0,0,1-.17.25.67.67,0,0,1-.2-.17l-.05-.06-.12-.16a.56.56,0,0,0-.19-.27c-.17-.26-.17-.44.2-.46l.38.26c-.05.14.21.34.21.54Zm.65-1.57a.44.44,0,0,0-.06-.16V195c0-.24.29-.15.41-.06a3.57,3.57,0,0,1,1,1.08h-.18a.45.45,0,0,1-.11-.13l-.41-.07a1.27,1.27,0,0,0-.38-.2v-.08l-.21-.32Zm.29-1.12a1.84,1.84,0,0,1,1.29.65h-.16a1.46,1.46,0,0,1-1.08-.66Zm.48-.72a1,1,0,0,1,.25-.14,3.28,3.28,0,0,1,1.5.6.92.92,0,0,1-.49.13l-.24,0a10,10,0,0,0-1-.54Zm.93-.57h0a1,1,0,0,1-.78-.38c.54-.25.89-.06,1.44.21l.12.1h-.76Zm-12.66-26.46a4.7,4.7,0,0,1,1.28,1.62,1.53,1.53,0,0,0,1.37.91,3,3,0,0,1,2.7,2.74,11.14,11.14,0,0,1-.12,2.16c-.08.37-.17.75-.27,1.11a12.14,12.14,0,0,1-2.21,4.17,11,11,0,0,1-1.89,1.71l-.94.51a.31.31,0,0,1-.09.11,3.07,3.07,0,0,1-.31.17.51.51,0,0,1-.6,0,9,9,0,0,0,2.61-6.53v-.44a5.69,5.69,0,0,0-.12-1,1.58,1.58,0,0,0-.15.24.25.25,0,0,0-.19.05.6.6,0,0,0-.08.39h0c-.26.22-.2.54-.27.81l-.08.41a6.86,6.86,0,0,1-1.7,3.21.63.63,0,0,1-.16-.26c.09-.6.17-1.19.22-1.76a6.62,6.62,0,0,0-.45-3.6c-.25,1.3-.49,2.57-.77,3.85a8.07,8.07,0,0,1-.74,1.83.38.38,0,0,1-.27-.25c-.08-.61-.14-1.22-.2-1.83a25,25,0,0,0-.16-2.74,10.78,10.78,0,0,0-.06-1.39l-.1.15a1.17,1.17,0,0,0-.07-.46,11.78,11.78,0,0,0-.54,3.49v2.07c-.14.27-.08.62-.25.94a8.74,8.74,0,0,1-.86-3.45v-.69l-.05-.89-.06.07a1.4,1.4,0,0,0-.1-.61,5.81,5.81,0,0,0-.5,1.68,9.88,9.88,0,0,0,0,2.43,8.71,8.71,0,0,0,.14,1.53l.06.63a3.68,3.68,0,0,1-1-.89,6.83,6.83,0,0,1-.72-1.69c-.15-.45-.28-.92-.4-1.4a1,1,0,0,0-.2-.78l-.06-.24a.24.24,0,0,1,0,.14l-.25-.16a5.91,5.91,0,0,0,0,1.68,8.46,8.46,0,0,0,.75,2.88l.19.4c.19.39.4.77.62,1.14l.33.3h0l.68.61a.12.12,0,0,1-.07.1l-.37-.1-.09-.07-.6-.49a11,11,0,0,1-1.92-1.41,3.4,3.4,0,0,0-.79-.86,5.6,5.6,0,0,1-.54-.74l-.83-1.5a10.29,10.29,0,0,1-.8-2.83,12.53,12.53,0,0,1,.06-2.29,4.44,4.44,0,0,1,.19-.62,2.51,2.51,0,0,1,2.37-1.82,1.27,1.27,0,0,0,1.24-.82,6.22,6.22,0,0,1,.52-.78,5.51,5.51,0,0,1,7.71-.82Zm-14.07-30.65a.6.6,0,0,1,.8-.25,10.3,10.3,0,0,1,2.74,1.55.61.61,0,0,1-.43.11.08.08,0,0,1,.07.06l-.59-.09.07-.06c-.69-.19-1.36-.35-2-.54-.33-.09-.73-.18-.67-.66v-.06Zm-.77,1.74c.36-.42.71-.1,1,.09a12.34,12.34,0,0,1,2.53,2.26c-.44.07-.81-.27-1.22-.26h-.15a.23.23,0,0,0-.24-.13l.11.09h0l-.11-.09h-.18l-.2-.1c-.48-.35-1-.69-1.42-1.08a1.36,1.36,0,0,1-.27-.39.53.53,0,0,1,.1-.35Zm-1.4,1.84c.3-.29.61-.06.84.16a11.13,11.13,0,0,1,2.07,2.61h-.15l-.34-.2a.87.87,0,0,1-.22-.32h-.26v.1h-.08c-.62-.45-1.24-1-1.84-1.45a3.25,3.25,0,0,1-.23-.29.5.5,0,0,1,.17-.58Zm1.18,5a6.78,6.78,0,0,1-1-.75,12.08,12.08,0,0,1-1.68-2.28l-.07-.14a.49.49,0,0,1,.19-.58.44.44,0,0,1,.6,0l.09.1c.24.32.46.65.7,1a13.57,13.57,0,0,1,1.18,2.74Zm-4-16.9c.32,0,.9,0,.9.19.15.92,1,1.18,1.5,1.82a1.53,1.53,0,0,1-.54,1.73c-.51.47-.44,1.37-1.16,1.74h.06a.4.4,0,0,0-.23.08.85.85,0,0,0-.35.15h-.16a.62.62,0,0,1,.37-.24,4.26,4.26,0,0,1-3.56-1.26c-.12-.11-.15-.2-.14-.27h.07c.54.07,1,.57,1.76.21l-.26-.06h.12a3.55,3.55,0,0,0-1.3-.46h-.06v0a.64.64,0,0,1-.23-.31c.74-.39,1.62.14,2.46-.42l-.29-.1h0c0-.18-.28-.14-.45-.14a.43.43,0,0,1-.09.1h0a.11.11,0,0,0,.1-.1H112.5l.06-.08a.36.36,0,0,0-.25,0l.06.07h-.23a.46.46,0,0,1-.25-.1c.61-.77,1.65-.2,2.27-.88H114l.12-.1c-.84-.35-1.49.3-2.21.16l-.06-.09a4,4,0,0,1,3.31-1.6Zm1.12,17.56h-.24a.57.57,0,0,0-.11-.11l-.27-.46a5.22,5.22,0,0,1-1.22-1.88.71.71,0,0,1,0-.29.46.46,0,0,1,.3-.37c.39-.18.57.07.71.34A14.31,14.31,0,0,1,116,144h.14a6,6,0,0,0,.14,1Zm-2.23-.17v1.35c-.41-.12-.29-.57-.57-.71-.07-.14-.15-.27-.21-.41-.21-.54-.43-1.08-.59-1.58a1.4,1.4,0,0,1,0-.54.47.47,0,0,1,.32-.31c.48-.17.63.25.73.6a8.83,8.83,0,0,1,.31,1.53v.07Zm-2.4-8h0a.5.5,0,0,0-.48.5l.25-.08-.13.13h0c-1,1.21-1.62,1.26-2.62.16-.24-.24-.4-.29-.66-.16l-.26-.1-.28-.15a1,1,0,0,1-.33-.36.64.64,0,0,0-.14-.35,3.66,3.66,0,0,1-.18-.92,3.16,3.16,0,0,1,.65-1.8c.2-.26.35-.6.54-.84l.12-.12.17-.13a.23.23,0,0,1,.2,0c0,.51-.49,1-.11,1.62.18-.41.35-.78.49-1.16a.25.25,0,0,0,.08-.1.42.42,0,0,1,.49-.15.68.68,0,0,1,.11.34V135h.31a3.08,3.08,0,0,0,.07-2v-.28a.57.57,0,0,1,.32-.2c.24.4.17.88.42,1.26V134a.7.7,0,0,0,.09.47,1.2,1.2,0,0,0,.15.37,1.25,1.25,0,0,0,.08-1.17.58.58,0,0,0-.06-.17h0a2.4,2.4,0,0,1-.16-.64.6.6,0,0,1,.18-.33,3.66,3.66,0,0,1,1.52,3.48c-.08.41-.26.77-.79.77Zm.47,9.32v.08c0,.17-.07.39-.21.37a.28.28,0,0,1-.14-.1,10.22,10.22,0,0,1-1-2.42v-.18a1,1,0,0,1,.12-.49.76.76,0,0,1,.23-.13c.4-.12.59.13.69.48a1.36,1.36,0,0,0,.1.36c0,.12.09.47.15.68a8.2,8.2,0,0,1,.06,1.4Zm-2.51,2.41a7.84,7.84,0,0,1-.81-4c0-.34.06-.7.47-.72a.36.36,0,0,1,.34.13,27.77,27.77,0,0,1,0,4.65Zm-2.92-.89c-.07-.33-.13-.66-.17-1V144.5c0-.31.14-.69.57-.63a.38.38,0,0,1,.15.16,6,6,0,0,1-.54,3.6Zm.54-16.58h0v.07h0Zm3.4-.41-.59.54.06.1h-.25v.09h0v-.1l-.82-.06h0a.66.66,0,0,0-.33-.24.9.9,0,0,1-.13-.42,1.31,1.31,0,0,1,1.08-1.38,1.2,1.2,0,0,1,.94.54,2.45,2.45,0,0,1,.19.74Zm-4-7.12a1.55,1.55,0,0,0,.89-.47.52.52,0,0,0,.29-.34,2.64,2.64,0,0,1,.83-.8A1.26,1.26,0,0,1,110,122a1.77,1.77,0,0,0,.31.3,1,1,0,0,0,.54.48l.21,0a1.56,1.56,0,0,1,.9.65,2.5,2.5,0,0,0,.3.74h0a6.74,6.74,0,0,1-1.08,2.76.14.14,0,0,1,.09,0,4,4,0,0,1-.59.58l-.1-.07c-.1-.54.48-1,.17-1.62l-.19.44-.07-.07v.27l-.29.66c-.18.13-.36.22-.54,0a1.58,1.58,0,0,1,0-.38,2.8,2.8,0,0,0,0-.41,7,7,0,0,0-.13-1.58c-.64,1.08-.26,2-.45,2.79a.27.27,0,0,0,.14-.07l-.08.09h0l-.3-.22h0a2.6,2.6,0,0,1-.18-.87,2.42,2.42,0,0,0-.3-1.26h0a.67.67,0,0,0-.27.9,2.35,2.35,0,0,1,.17,1.41h-.1a5,5,0,0,1-1-1,2.3,2.3,0,0,1-.27-.6v-.08a6,6,0,0,1-.23-1.73c-.08-.26,0-.67.1-.67Zm-.72,4.27a11.1,11.1,0,0,1,1.13.81.3.3,0,0,1,.1.2c-.37.1-.67-.14-1,0a.53.53,0,0,0,.08.15L106,129a1.14,1.14,0,0,0,.67.19.5.5,0,0,1,.28.63v0h0a10.4,10.4,0,0,0-2.16.11h-.09l.09.1h-.13a3.09,3.09,0,0,0,2.09.24c.36,0,.48,0,.44.3-.69.21-1.43.3-2.16.48h.11a.66.66,0,0,0-.39.09c1,.54,1.7-.13,2.41-.14a3.37,3.37,0,0,1-1.55,1.57h0a.6.6,0,0,0-.57.21h-.29c-.68,0-1.45.1-1.88-.4a1.06,1.06,0,0,0-.29-.61v-.18a.21.21,0,0,1,0,.11h0v-.07a.5.5,0,0,0-.38-.23l-.25-.19a2.94,2.94,0,0,1-.54-.81v-.23a1.26,1.26,0,0,1,.45-1,1.39,1.39,0,0,0,.45-.54v-.14c.31-.66.49-1.46,1.5-1.46a3.56,3.56,0,0,1,2.16.66Zm-.41,16.2a5.44,5.44,0,0,1-.09.8,16.21,16.21,0,0,1-.93,2.52,8.91,8.91,0,0,1-.57,1,7,7,0,0,1,.62-4.06c.13-.32.31-.64.71-.51a.39.39,0,0,1,.28.25Zm-3.3,2.1h-.09l-.07.21h0v.09c-.1.1-.18.22-.28.32a8.71,8.71,0,0,1,.6-2.67c.23-.4.35-1.08,1-.82l.16.09a2.18,2.18,0,0,1-.54,1.51c-.26.43-.54.84-.81,1.26ZM101,144.36h-.08l-.79.87h0c-.16.08-.33.18-.42.08a13.67,13.67,0,0,1,1.36-2.7h0a.54.54,0,0,1,.69-.25.45.45,0,0,1,.28.38h0c-.36.54-.73,1.08-1.08,1.62ZM98.11,81.77c.31-.82.54-1,1.45-.82a.68.68,0,0,0,.81-.28l.25-.34a2,2,0,0,1,3.39-.11,2.73,2.73,0,0,0,.27.54c0,.09.06.19.08.28.08.4,0,.75.65.68a.86.86,0,0,1,.39,0h0a1.41,1.41,0,0,1,.62.85,6.46,6.46,0,0,1,.22,2.19h.05a1,1,0,0,0-.06.33.51.51,0,0,1-.07.32,12.51,12.51,0,0,1-2.4,3.24h0c-.44.21-.65.74-1.33.74v-.23a1.31,1.31,0,0,0,.06-.27.16.16,0,0,1,.06-.13h0a2.66,2.66,0,0,0,.87-1.73,1.23,1.23,0,0,0,0-.54h0v.08c-.79.74-.83,2.07-2,2.31v-.13a8.09,8.09,0,0,1,.16-1.62l.24-.85a.24.24,0,0,0,0-.12A1.83,1.83,0,0,0,102,85a3.23,3.23,0,0,0,0-.44l-.22.29c-.3.11-.36.35-.47.57a3.74,3.74,0,0,0-.17.54,6.33,6.33,0,0,0-.28.94,19.32,19.32,0,0,0-.46,2h-.2a1.71,1.71,0,0,1-.46-1.65V87q.09-.37.15-.75a3.27,3.27,0,0,0,0-1.46v-.18h0V84.5a1.85,1.85,0,0,0-.68,1.67c0,.73,0,1.44,0,2.16l-.06.17A4,4,0,0,1,98,87.15L97.91,87a.14.14,0,0,0,0-.09,7,7,0,0,1-.26-.89V84.52a8,8,0,0,1,.48-2.75Zm5,32.71v-.07h0a.24.24,0,0,1,.24-.24c.3,0,.41.31.45.47s0,.12,0,.18a.41.41,0,0,1,0,.09v-.06A.64.64,0,0,1,103.08,114.48Zm-.19-1a2.41,2.41,0,0,0-.21-.5.48.48,0,0,1,0-.29c.41-.07.54.22.66.45s.33.54,0,.68-.35-.18-.45-.38ZM94.68,86.15a.55.55,0,0,1,.61-.47h0c.39,0,.54.28.54.65l-.21.37a1,1,0,0,1-.2.21h0a1,1,0,0,0,.2-.21h-.84a1.85,1.85,0,0,1-.12-.33h0A.45.45,0,0,1,94.68,86.15Zm-7.63-1c.65-.13.41-.64.48-1,.23-1.08.64-1.51,1.45-1.59s1.31.64,1.82.82,1.18-.31,1.73.3a4.22,4.22,0,0,1,1,1.77,5.87,5.87,0,0,1,0,2.13,1,1,0,0,0-.07.38,1.31,1.31,0,0,1-.09.28,1.94,1.94,0,0,0-.19.65,8.41,8.41,0,0,1-.42.79c-.28-.25-.21-.59-.21-.9a1.48,1.48,0,0,0-.11-.69,2.09,2.09,0,0,0-.13-.35v.06a1.31,1.31,0,0,0-.22-.25v1.93H92a1,1,0,0,1-.44.47c-.13-.22-.22-.46-.33-.69-.17-.54-.36-1.08-.54-1.62a.62.62,0,0,0-.21-.61h0a.86.86,0,0,0-.28-.11,1.71,1.71,0,0,0,.18,1.46v.16a2.11,2.11,0,0,0,.24.89,6.93,6.93,0,0,1,.3,1.08h-.08c-.31-.08-.49-.41-.75-.61a3.36,3.36,0,0,1-.3-.6,11.65,11.65,0,0,0-.57-1.37c0-.19-.23-.34-.36-.22h0a.54.54,0,0,0,0,.66,2.81,2.81,0,0,0,.43,1,5.09,5.09,0,0,1,.62,1.12c0,.27-.17.26-.63.2v.09h0v-.09a6.53,6.53,0,0,1-2-1.88,5.59,5.59,0,0,1-.8-2.16c-.2-.58-.33-1.26.57-1.41Zm-3.19,4.39h0a.51.51,0,0,1,.39.21.91.91,0,0,1-.31.76h-.2a.25.25,0,0,1-.17,0h0a.33.33,0,0,1-.12-.14.81.81,0,0,1-.11-.41.49.49,0,0,1,.54-.39ZM76.14,90.8a4.87,4.87,0,0,1,.28-.94.87.87,0,0,0,.31-.67,5.45,5.45,0,0,1,.73-1c0-.09.17-.09.25-.09a1.36,1.36,0,0,1,1,.19c.87.39,2,.23,2.4,1.51a4.93,4.93,0,0,1,.12,1.71v.23A4.74,4.74,0,0,1,80.91,93a.4.4,0,0,1-.21.12h-.08c-.27-.48.07-1-.39-1.46v1.46h-.11c-.43.2-.4-.23-.5-.4a8.8,8.8,0,0,0-.42-1,1.44,1.44,0,0,0-.28-.4v.06h0c-.2.79.33,1.41.47,2.1,0,.13-.19.17-.34.21a.53.53,0,0,1-.12-.14A4,4,0,0,0,78,91.79v0a.73.73,0,0,0-.14-.16A1.74,1.74,0,0,0,78,92c-.12.26,0,.42.21.73l.17.24c.08.13.16.26.25.39a.76.76,0,0,1,.11.48h0l-.81-.26h0l-1-1h0l-.46-1A3,3,0,0,1,76.14,90.8ZM82,103.64l-.14.15h0l-.09.11a1.11,1.11,0,0,0-.07.16,4.88,4.88,0,0,0-1.08,1h0A5,5,0,0,0,79,106.49v.06c-.4.27-.48.7-1,1.08s-.69.34-.87,0a.79.79,0,0,1,.2-.67c.51-.58,1-1.15,1.58-1.74l-.13-.11v-.06c0-.32-.39-.33-.61-.45a1.86,1.86,0,0,0-.51-.15h0l-.46-.25a1.76,1.76,0,0,1-.32-.4l-.21-.43a2.12,2.12,0,0,1,0-1.53c.1-.2.26-.4.54-.33a.44.44,0,0,1,.33.4c0,.54,0,1,.64,1.24a4.36,4.36,0,0,0,2.7.43,1.91,1.91,0,0,0,1-1.17l.06-.19h0v-.12h0V102c-.09-.62-.7-.64-1.19-.76a2.21,2.21,0,0,0-.54-.16,1.88,1.88,0,0,1-1.62-1.19h0a3.7,3.7,0,0,1,.21-1.62.89.89,0,0,1,.54-.41,1.38,1.38,0,0,1,1.62.63h0l-.17.13a.5.5,0,0,1-.26-.08c-.29-.23-.6-.33-.83.06l0,.09a.6.6,0,0,0,0,.19.86.86,0,0,0,.75,1h.1a6.56,6.56,0,0,0,4.58-.61c.54-.31,1.08-.7,1.68-1.08l-.18-.12.1-.08c-.77-.49-1.48-.9-2.16-1.37a2,2,0,0,1-.59-.54.88.88,0,0,1,0-.6.9.9,0,0,1,.85-.61.8.8,0,0,1,.62.21v.48h0c-.25.57.09.89.54,1.08a4.36,4.36,0,0,0,2.56.46,5.71,5.71,0,0,0,1.22-.23c2.87-1,5.78-.54,8.67-.16a7.29,7.29,0,0,1,2.87,1,5,5,0,0,0,1.66.69h0a.15.15,0,0,1-.08.11l-.12.08h-.13a.83.83,0,0,0-.21.06h0c-.54-.08-1.08-.17-1.62-.23a31.56,31.56,0,0,0-4.22-.62v.09h0a.83.83,0,0,1,.07-.13H96a8.15,8.15,0,0,0-4.16,0v.06h0v-.1a10.88,10.88,0,0,0-6.18,2.58A35.52,35.52,0,0,0,82,103.64Zm18.53,3.49h-.09a1.14,1.14,0,0,1-.54.14.41.41,0,0,1-.34.25,2.13,2.13,0,0,1-1.13,1.08l-4.18,3.21h0c-1,.34-1.68,1.17-2.73,1.31a.56.56,0,0,1,.13-.24,92.52,92.52,0,0,0,9.87-7,.57.57,0,0,1,0,.26c-.38.28-.62.76-1,1Zm.69.43-.06.06-.74.54h0l-.12-.13v0l.75-.51.08-.06a.85.85,0,0,1,.17.16Zm-2.84,2.12a.28.28,0,0,1-.21.13h0Zm-.22.13a.92.92,0,0,1-.24.35h-.1a.58.58,0,0,1,.29-.39Zm-1.33-8.87v0h0v.08a2.57,2.57,0,0,1-.35.57c-.37-.54-.16-1.16-.12-1.77a.29.29,0,0,1,.22-.26h0a.29.29,0,0,1,.22.06v1.26Zm-1.19.17a.43.43,0,0,0-.32-.14h0a.34.34,0,0,1,.32.09ZM94,100.35v.71a2.89,2.89,0,0,1-.32.6,2.62,2.62,0,0,1,0-1.79h0a1.51,1.51,0,0,1,.32.43Zm-2.22,1.43h-.17c-.13-.43-.32-.86,0-1.24h.08a.28.28,0,0,1,.24.2,3.3,3.3,0,0,0-.15,1Zm-2.25.49v-.75q0-.31,0-.63a.26.26,0,0,1,.28-.19.21.21,0,0,1,.17.07.52.52,0,0,0,.06.16h0a2.25,2.25,0,0,1-.3,1.58.42.42,0,0,1-.21-.29Zm0,.54,0,.07h0Zm-2.73,5c-.31.06-.47-.14-.44-.44h0a5.73,5.73,0,0,1,2.16-2.29,11,11,0,0,1,6.23-1.57,14.66,14.66,0,0,0,2.89-.11c.07-.06.13-.18.2-.18.41,0,.77-.82,1-.44v.07a1.26,1.26,0,0,1-.51.35,3.83,3.83,0,0,1-1.79,1.14,1.37,1.37,0,0,0-1,.81h0l-.15.2c-.07.09-.14.17-.2.26a13,13,0,0,0-.79,1.15h0a1.28,1.28,0,0,0-.54.54h0c-.47.19-.81.67-1.35.67a.43.43,0,0,1,0,.16.57.57,0,0,1-.13.08h-.36l-.25.28H89.59a1.42,1.42,0,0,1-.07-.22,7.78,7.78,0,0,0-2.7-.54Zm4.66,5.4c-.14.23-.3.29-.44.1h0l.16-.1Zm-2.38,3.42a.53.53,0,0,1-.12-.14l-1.7-1.39h0c-.09-.25.14-.45.76-.85h0c.22,0,.3.07.34.18a.6.6,0,0,0,0,.49.33.33,0,0,0,.19.33,1.44,1.44,0,0,1,.69.75.64.64,0,0,1-.26.45.8.8,0,0,0,.15.17Zm.37.24-.12-.06a.66.66,0,0,1-.17-.12l.17.11h.16ZM92.05,119h0a.27.27,0,0,1-.27-.27l-.82-.54-.33-.29h.06a2.49,2.49,0,0,0-.76-.72c0-.07-.07-.14-.11-.2v-.06a.92.92,0,0,1,.78.35c.33.41.67.79,1,1.17a1,1,0,0,1,.08.29A.3.3,0,0,1,92,119a.29.29,0,0,1,.28.27c.21.15.42.31.62.48a11.35,11.35,0,0,1,1.25,1.52l.05.06a7,7,0,0,1,.35.73l.07.06a.76.76,0,0,1-.17.32,1.41,1.41,0,0,1-.24-.36l-.19-.23a19.65,19.65,0,0,0-1.4-1.86c-.11-.21-.28-.4-.27-.62A.3.3,0,0,1,92,119Zm2.61,28.22a.36.36,0,0,1-.13.34h0a.67.67,0,0,1-.36-.21h0c-.28-1-.54-1.89-.82-2.89a6.78,6.78,0,0,1,1.36,2.8Zm-5-1.12a8.48,8.48,0,0,0,.14-1.51H90c0,.14,0,.29.07.43v2.6l.06-.06h0a.22.22,0,0,1-.09.17c-.28,0-.41-.13-.45-.29Zm-4.86,1c.23-.54.45-1.08.67-1.62a2.08,2.08,0,0,1,.68-.9v.11a2.12,2.12,0,0,0-.64.86c.25-.08.33.07.39.27s-.12.38-.19.57v.07l-.06.19a5.79,5.79,0,0,1-.29.68.27.27,0,0,1-.26.28.28.28,0,0,1-.13,0h0a.15.15,0,0,0-.08-.11,1.2,1.2,0,0,1,0-.42Zm-2.6,3.57.09.1h0l-.09-.09Zm.62,3.73h0a5.18,5.18,0,0,1-.09.78l-.18.35-.17.84a5,5,0,0,1-.45.9h0a5.48,5.48,0,0,1,.94-2.87Zm2.07,28.75v.15c-.63.35-1.39.48-1.81,1.23h0a.89.89,0,0,1-1.23.06c-.54-.66-1.47-.87-2-1.55a1,1,0,0,1-.12-.23,2.78,2.78,0,0,1,.81-2.79,1.89,1.89,0,0,1,.2-.2c.34-.57.48-.75.68-.59a.32.32,0,0,0,.1.1l.16.22h0c-.33.08-.27.54-.57.65,0,.17-.07.49,0,.49.25.1.18-.2.25-.31a7.43,7.43,0,0,0,.37-.81h0a.76.76,0,0,1,.43-.14v2.25a.82.82,0,0,0,.12-.2.46.46,0,0,0,0,.23,3.57,3.57,0,0,0,.35-1.15,3.42,3.42,0,0,0,.12-1.15c.1-.13.28,0,.44.14a.29.29,0,0,1,0,.13,7.91,7.91,0,0,0,.16,2,1.6,1.6,0,0,0,.17-1.3v-1c.16-.07.3,0,.41.15a3.9,3.9,0,0,1,1,2.16,12,12,0,0,1,0,1.47ZM83,173.83a4.41,4.41,0,0,1-.36-.49l0,.06c-.17-.08-.33.08-.74.48h0a2.41,2.41,0,0,1-3.13-.07h-.07l-.06-.06a.45.45,0,0,0,.23,0h.37a2,2,0,0,0,1.66.25c.89-.31,1.33-1.08,2-1.85a.42.42,0,0,1,.14.06c.54,1,.91,2.22,2.3,2.31s2.11-.84,2.7-2h0c2.26,2.81,3.35,2.42,5,.59a2.47,2.47,0,0,1-.21.75,2.2,2.2,0,0,1-2.94,1,9.41,9.41,0,0,1-1-.62.86.86,0,0,1-.13-.14,1.47,1.47,0,0,0-.54-.54c-1.79,1.83-3.3,1.87-5,.2ZM82,167.32v.08h0l-.06.51h0V168a1.34,1.34,0,0,0-.18.78.24.24,0,0,1,0,.12.54.54,0,0,1-.56.47h0c-.16-.13-.1-.37,0-.54a9.7,9.7,0,0,1,1-2.87V166l-.06.47a1.38,1.38,0,0,0-.1.85Zm4.1,2.13v-.32a7.86,7.86,0,0,1,.54-2.79v3.09c0,.17,0,.37-.29.38s-.18-.19-.18-.36Zm5.3-.69v-.67a3.9,3.9,0,0,1,.36-1.25.24.24,0,0,1,.07.12l.1.9a9.78,9.78,0,0,0,.14,1.53,2.24,2.24,0,0,0,.07.73.41.41,0,0,1-.18.19,3.73,3.73,0,0,1-.47-1.55Zm.21,23.59-.27.14c-.38,0-.7.08-.79.52a1.33,1.33,0,0,1-1.5,1.14h0l-.48-.29c-.19-.54-.6-.34-1-.32h-.13a.09.09,0,0,0,0-.07,3.49,3.49,0,0,1-.92-1.38,4.54,4.54,0,0,1,.79-3,.23.23,0,0,1,.3-.13h0v.37h-.25V190a.27.27,0,0,0,.22.29h0l0,.12a.21.21,0,0,1,0-.13.51.51,0,0,0,.15-.33,1.34,1.34,0,0,0,0-.4h0a3.58,3.58,0,0,1,.09-.45c0-.14.18,0,.24-.21h0c.43.06.36.37.45.79a3.41,3.41,0,0,0,.19,1v.07h0a1,1,0,0,0,.23.24v-.24h0v-.17a5.85,5.85,0,0,0-.25-2h.07v-.07h0a.4.4,0,0,1,.28.08h0a2.58,2.58,0,0,1,.36.93h0a1.86,1.86,0,0,0,.54,1,1.94,1.94,0,0,0-.11-.89,1.68,1.68,0,0,0-.36-.79.46.46,0,0,1,.15-.5h.09a3.93,3.93,0,0,1,1.86,3,6.77,6.77,0,0,0,.07,1Zm3.36-9.72-.09.06c-.91.06-.64.93-.94,1.42h0l-.12.2a2.41,2.41,0,0,1-1,.36l-.3,0a1,1,0,0,1-.24-.17c-.51-.46-1.08-.32-1.62-.39a1.8,1.8,0,0,1-.4-.25,2.85,2.85,0,0,1-.31-.38l-.4-1.16a2.43,2.43,0,0,1,.22-1.16c.11-.31.21-.61.3-.92s.24-.54.48-.35c0,.35-.14.77.2,1.08a4.29,4.29,0,0,1,.06-.88c.13,0,.17-.49.46-.49h.48l.06-.33h.17l.08.07h.06a3,3,0,0,1,.21.33v.07a1.34,1.34,0,0,1,.07.27.55.55,0,0,1,.16.18l.06.16a.37.37,0,0,1,0,.21,1.14,1.14,0,0,0,.21.28,2.38,2.38,0,0,0,.34.49,2.29,2.29,0,0,0,0-.37h0a1.62,1.62,0,0,0-.77-1.51h0v-.17l.32-.18h0a4,4,0,0,1,2.1,2.6h0v.08a1.09,1.09,0,0,1,.21.92Zm.61-21.6v.22l-.21.1a1.44,1.44,0,0,1-.07.54l0,.09a1.82,1.82,0,0,1-.29.38.6.6,0,0,0-.19.06l-.06.05a.64.64,0,0,0-.45.19H93.13a1.16,1.16,0,0,0-.82-.24h0v0h0a.58.58,0,0,0-.46-.2h-.16L91.5,162h0c-.14-.17-.27-.26-.42,0h0a.14.14,0,0,1,0,.09l-.17.25-.27.28h-.14v.1a1.64,1.64,0,0,1-.24.21,14,14,0,0,1-1.65.68.66.66,0,0,1,.2.06h-.2l0,0h0l.06-.07h-.83l.1.09h0a.39.39,0,0,1-.1-.08H87.3a.6.6,0,0,0,.19,0l-1.25-.5a5,5,0,0,1-1.42-1.74.9.9,0,0,0-.15-.19h0v-.08a4.28,4.28,0,0,1-1.82.81h.06l-1.15-.54-.54-.38a1.22,1.22,0,0,1-.2-.25c-.1-.24-.24-.48-.36-.72a2.25,2.25,0,0,1-.19-.57v0a4.6,4.6,0,0,0,1,1.32,1.46,1.46,0,0,0,.57.41,1.62,1.62,0,0,0,2.1-.83c.23-.38.17-.93.68-1.15.46.29.2.76.27,1.13a2.79,2.79,0,0,0,.22.86,2.89,2.89,0,0,0,3.78,1.55h0a1.79,1.79,0,0,0,1-.58l.15-.09v-.14a1,1,0,0,0,.1-.21.17.17,0,0,0,0-.1,6.7,6.7,0,0,0,.32-1.08,13.69,13.69,0,0,0,2,1.33c1.31.54,2,.33,2.4-.67a.65.65,0,0,0,.21-.54.74.74,0,0,0,0-.21h0a.74.74,0,0,1,.27-.67,1.94,1.94,0,0,1,.24.85Zm-8.7-4.64c0,.11.06.22.08.32a7.87,7.87,0,0,1-.2,2.32h0a3.33,3.33,0,0,1,.2-2.64Zm3.32.27c.09-.21.06-.48.16-.68a3.78,3.78,0,0,1,.27,1.24v.38a3.67,3.67,0,0,1-.11.74.52.52,0,0,1-.27.1,6.63,6.63,0,0,1,0-1.78Zm4-1.15a6,6,0,0,1,.36,2.38.14.14,0,0,1-.09,0,2.84,2.84,0,0,1-.21-2.38Zm1.62-4.78c-1.12.64-2.11.12-3.1-.37a7,7,0,0,1-.58,1.12,9.37,9.37,0,0,1-.78.89h0a.17.17,0,0,0-.17,0,.24.24,0,0,1,.06.08h0v-.06c-1.95.79-3.24-.15-4.26-1.84a5.31,5.31,0,0,1-1.62,1.51h0a2.85,2.85,0,0,1-1.65-.29h-.32l-1-1a.26.26,0,0,1,.26-.26h0a3.85,3.85,0,0,0,1.2.93l.15.11h.27a1.77,1.77,0,0,0,2-.79,2.24,2.24,0,0,0,.61-1.08.11.11,0,0,0,0-.08.33.33,0,0,0,0-.14h0v-.11c.08-.1.15-.22.23-.32a.39.39,0,0,1,.3,0,.42.42,0,0,1,.4.41v0a.8.8,0,0,0-.1.7h0a2.28,2.28,0,0,0,2.16,2.14A2.4,2.4,0,0,0,92,151a2.3,2.3,0,0,0,.38-1c0-.26,0-.57.11-.73.48,0,.73.54,1.12.78.74.47,1.17.54,1.62.19l.24-.07-.15-.08h.09c.26-.11.27-.31.27-.51a.34.34,0,0,1,.25-.13.38.38,0,0,1,.32.39,1.44,1.44,0,0,1-.1.5l-.05.07a1.25,1.25,0,0,1-.12.34Zm6.45,53.74-.09.11a.6.6,0,0,1-.81-.21l-1.49-1.62h0a2.66,2.66,0,0,0-.72-.81l-.12-.11v-.16l-.12-.08a12.78,12.78,0,0,1,3.17,2.44l.14.15a.31.31,0,0,1,.06.13.26.26,0,0,1,0,.15Zm.39-11.72a1.46,1.46,0,0,0-.66-.54l-.38-.32a38.15,38.15,0,0,1-3-3.1,4.58,4.58,0,0,1-.35-.45l-1.57-2.55a4.11,4.11,0,0,1-.21-.42c-.12-.3-.35-.6,0-.9s.58.06.81.27a7.48,7.48,0,0,0,2.88,1.62,1.33,1.33,0,0,0,1,0,1.19,1.19,0,0,0-.3-.44,1.07,1.07,0,0,0-.39-.34l-.24-.22a10.34,10.34,0,0,1-.78-.84l-.13-.15a13.59,13.59,0,0,1-3.19-8.46v-.7c0-.23,0-.47.29-.57s.44.05.59.23a6.09,6.09,0,0,0,3.43,2,3,3,0,0,1,.73.06,11.09,11.09,0,0,1-.84-.84l-.28-.3a12.9,12.9,0,0,1-1.36-1.69.31.31,0,0,0-.07-.09,12.65,12.65,0,0,1-1.87-4.93h0a14.36,14.36,0,0,1-.13-2.86,4.58,4.58,0,0,1,.08-.83c.1-.41.39-.44.64-.27l.21.29c.12.18.26.36.39.54h0l.21.25a6.78,6.78,0,0,0,3.78,2.46c.12-.42-.14-.66-.27-.91-.24-.49-.47-1-.69-1.48a.5.5,0,0,0-.08-.2c-.46-1.08-.87-2.16-1.22-3.24v-.12c-.12-.39-.25-.77-.36-1.16a1.12,1.12,0,0,0-.09-.36c-.3-1.08-.54-2.19-.74-3.3a2.1,2.1,0,0,0-.09-.61c-.08-.47-.14-.93-.19-1.4a.91.91,0,0,0-.06-.4,4.53,4.53,0,0,1-.07-.62,133.23,133.23,0,0,1-.27-14.41.08.08,0,0,0,0-.07v-.54a12.71,12.71,0,0,1,.06-1.51,45.8,45.8,0,0,0-.07-6.2,10.82,10.82,0,0,0-.31-3c-.09-.59-.16-1.18-.27-1.78-.07-.32-.14-.65-.24-1-.14-.54,0-.07,0-.11h0a2.25,2.25,0,0,0-.13-.51,4,4,0,0,0-1.31-2.35,3.71,3.71,0,0,0-.5-.47.08.08,0,0,1-.08,0c0-.36.54-.27.63-.66a2,2,0,0,0,.08-.35.83.83,0,0,1,.08-.12,3,3,0,0,1-1.62-1.36l-.1-.15-.07-.11a13.44,13.44,0,0,0-3.32-3.65h0c-.34-.44-.9-.66-1.2-1.21,1.25-.21,2-1.08,3-1.52a34.21,34.21,0,0,1,4.81-3.18,5.23,5.23,0,0,1-1.33,1.24l-.3.26v.08h0V112l-1,.61L92.53,114c-.14.24-.28.47-.5.86l.2-.06h0c.28.3.5,0,.72-.06A19.73,19.73,0,0,0,96.38,113,7.1,7.1,0,0,1,99,111.8a11.28,11.28,0,0,0,2.88-1.34,1.19,1.19,0,0,0,.5-1.57c-.06-.15-.11-.31-.16-.48a3.53,3.53,0,0,0-.15-.46l-.15-.5h-.12v-.08l-.1,0h0l.12-.06v-.44a.26.26,0,0,1,.15-.07c.06-.22.19-.54.41-.27a5.44,5.44,0,0,1,.9,1.74,6.17,6.17,0,0,0,.14.86,2.15,2.15,0,0,1,0,.62l-.35.83a1.56,1.56,0,0,1-.16.2c-.18.11-.31.22-.32.39-.17.31.08.54.29.77s.31.23.08.48-.42.07-.54-.13h0a.23.23,0,0,0-.16-.21h0a.93.93,0,0,0-1.32,0l0,0c-.33.11-.66.24-1,.37a4.74,4.74,0,0,0-1.91.73h0a4.48,4.48,0,0,0-1.49.84l-.12.06h0l-1.11.62-.24.13a5.2,5.2,0,0,0-1.75.82l.06.06h0l-.54.29h0l.54-.29v-.06a.7.7,0,0,0-.54.29h0a1,1,0,0,0-.64.47l-.1.07a5,5,0,0,1,1.21,1.73,4.15,4.15,0,0,1,.51.6,2.25,2.25,0,0,0,.24.36,2.8,2.8,0,0,1,.3.49,4.19,4.19,0,0,1,.83.74,2,2,0,0,0,2.25.54c2.44-.87,4.57-2.1,5.4-4.72v-.12a2.25,2.25,0,0,1,.13-.42c0-.15.09-.38.33-.34s.46.1.54.36a2.28,2.28,0,0,1,0,.37,1.29,1.29,0,0,0-.24.65.67.67,0,0,0-.18.45l-.07.15a.72.72,0,0,0-.22.44s-.07.1-.1.16l-.54.68h0a.27.27,0,0,0-.07.08h0l-.17.19h0a1.35,1.35,0,0,0-.54.57h.07l-.06.06h0v-.09h0a12.48,12.48,0,0,1-2.41,1.73.48.48,0,0,1,.16.12h-.06a.79.79,0,0,0-.15-.12c-.57.14-1,.62-1.57.62a.76.76,0,0,1-.88.22h-.54c-.34.34,0,.59.14.84s.15.28.24.42l.17.38a7.34,7.34,0,0,1,.52,1.77l.2.28.18.6a12.18,12.18,0,0,0,.3,1.19,2.46,2.46,0,0,0,.11.45h0c.19,1.74.37,3.48.54,5.21v4.75h0V141a1.41,1.41,0,0,0-.13.7v8.14a2,2,0,0,0,.15,1v1.62a15.63,15.63,0,0,0,.12,1.67,40.29,40.29,0,0,0,2,9.4v.11a1.15,1.15,0,0,0,.11.31c.09.27.2.54.3.81s.24.62.37.93a28,28,0,0,0,1.75,3.17,1.9,1.9,0,0,1,.22.33c0,.27-.15.47-.54.5l.08.18h0c0-.07-.06-.13-.08-.21l-.83-.08v.06a10.59,10.59,0,0,1-4.46-2.79V167l-.09-.09a7.91,7.91,0,0,0,.21,2.7,12,12,0,0,0,4.41,7l.44.33a.83.83,0,0,1,.26.3c0,.27-.22.41-.62.44a6.6,6.6,0,0,1-4.12-.88c-.25-.13-.45-.36-.8-.36l-.21-.12a10.65,10.65,0,0,0,.94,4.24,12.47,12.47,0,0,0,1.17,2.23,3.18,3.18,0,0,0,.57.79,12.18,12.18,0,0,0,2.55,2.57l.7.47a.49.49,0,0,1,.3.48,1.34,1.34,0,0,1-.69.42h-.64l-.76-.05a13.76,13.76,0,0,1-2.57-.83l-.09.09a.5.5,0,0,1-.23-.09,1.6,1.6,0,0,0,0,.31h0V187a1.06,1.06,0,0,0,.29.54A18.62,18.62,0,0,0,103,192a6.36,6.36,0,0,1,.77.6h0l.1.17a.52.52,0,0,1-.11.43.23.23,0,0,1-.28.11h0a1.39,1.39,0,0,0-.31-.23l-.41-.23Zm3.14,8.42c.17.1.34.23.37.4s-.41.22-.71.21h0a.32.32,0,0,0-.22-.1h0l-.62-.44v.07h0v-.14a8.88,8.88,0,0,1-1.35-1.32,3.91,3.91,0,0,1-.35-.48Zm-1.51-7.31.54.54h0l-.28-.19C104.45,194.15,104.37,194,104.25,193.86Zm6.48-36.29c-.15.07-.21.15-.21.23s.23.47.32.73a1.31,1.31,0,0,1,0,.15.33.33,0,0,1-.24,0l-.15-.09h-.13c-.19-.11-.38-.2-.54,0h0v.07c-.14.35.33.52.37.8l-.1.07-.47-.18-.18-.14a.79.79,0,0,0-.81-.06.32.32,0,0,0-.18.12h0a.33.33,0,0,0-.08.36v.47H108a.34.34,0,0,1-.14-.15.36.36,0,0,0-.07-.1l-.07-.11-.08-.11a.73.73,0,0,0-.78-.27h-.14c-.59.11-.06.72-.4,1a.43.43,0,0,1-.33-.48,1,1,0,0,0-.85-1.08.34.34,0,0,0-.2,0,1.79,1.79,0,0,1-.76-.68H104c-.39-.08-.21.46-.6.54a1.42,1.42,0,0,1-.08-.18,1.54,1.54,0,0,1,.31-1c.06-.3-.17-.64.06-.93a.31.31,0,0,1,.23,0l.27.2a2.44,2.44,0,0,0,.27.29,11.75,11.75,0,0,0,1.13.69.24.24,0,0,1,.1.05,3.54,3.54,0,0,0,4.39-.74,1.58,1.58,0,0,1,.9-.49,2.31,2.31,0,0,1,.61.25l.12.1.12.07c2,1.11,3.24.95,4.72-.89.62-.73,1.17-1.26,2.16-.73a1.11,1.11,0,0,0,.54.08,6.87,6.87,0,0,0,4.75-3,2.85,2.85,0,0,0,.12-.58.75.75,0,0,0,.08-.18c.15-.67.3-1.08,1.15-1.17a3.18,3.18,0,0,0,.58-.23h0a1,1,0,0,0,.42-.26,3,3,0,0,0,1.2-2.23,1.5,1.5,0,0,0,0-.3,4.57,4.57,0,0,0,0-.74v-.15c.51-.12.54.44.78.51h.36l.44.07c-.1.25-.54.16-.54.49,0,.75.51.79,1,.9a.35.35,0,0,1-.16.23,3.53,3.53,0,0,0-.46.15.45.45,0,0,0-.36.28h0c-.09.5.41.65.47,1a.21.21,0,0,1-.13.07h-.22a.53.53,0,0,0-.46,0,.27.27,0,0,0-.19.18.38.38,0,0,0,0,.33c0,.41-.13.42-.49.42h0a.7.7,0,0,0-.63.54h.06a.49.49,0,0,0,0,.17,1.16,1.16,0,0,0-.31-.07l-.08-.1c-.35,0-.54,0-.61.17h0c-.39.21.19.5-.07.7a.93.93,0,0,1-.61-.27.54.54,0,0,0-.45-.25h-.16v.14a1.36,1.36,0,0,0-.24.38l.24.77h.06a4.9,4.9,0,0,0,.75.76c-.15.12-.29,0-.45,0a3.31,3.31,0,0,0-.88-.2.89.89,0,0,0,0,.23v.07c-.26.23-.13.4,0,.58s0,.07,0,.13c.06.3.07.24-.2.24H124v-.1a.64.64,0,0,0-.51.16.36.36,0,0,0-.18.12h0a1.59,1.59,0,0,0,0,.81,3.19,3.19,0,0,1,.4.33c.08.09.16.2.26.33a.11.11,0,0,1,0,.08.86.86,0,0,1-.39,0,4.82,4.82,0,0,1-.44-.35l0-.07a.86.86,0,0,0-.1-.16l-.15-.12c-.09-.11-.19-.22-.27-.34a.79.79,0,0,0-.66.31h-.08v.07h0a6.41,6.41,0,0,0,.23.78.66.66,0,0,1-.33-.09,1,1,0,0,1-.23-.43l-.11-.05a.51.51,0,0,0-.07-.17,3,3,0,0,0-.54-.1c-.45,0-.73.1-.64.54h0v.16c.05.14.13.34-.12.47a.86.86,0,0,1-.33-.42,1.57,1.57,0,0,0-.28-.78l-.06-.07-.15-.17h-.09c-.26-.19-.54-.33-.78-.16s-.35.3-.27.6.54.66.38,1.18h0a.75.75,0,0,1-.42,0c-.23-.26-.47-.33-.69,0a.39.39,0,0,0-.17.14l-.07.11a.28.28,0,0,0-.12.29.72.72,0,0,0,.1.41.17.17,0,0,1,.07.23.15.15,0,0,1-.22.07h0l0,0a1.64,1.64,0,0,0-1-.47l-.1.14h0c-.54.34.2.79-.12,1.14l-.09-.07c-.13-.21-.26-.44-.41-.66a1.74,1.74,0,0,0-.14-.27h-.25c-.31,0-.47,0-.51.14a1.7,1.7,0,0,0,0,.45,1.36,1.36,0,0,0,.15.47c.06.16-.11.3-.38,0-.1-.14-.2-.28-.28-.42s-.09-.27-.14-.4a.59.59,0,0,0-.29-.38h-.13a.6.6,0,0,0-.19,0h-.22l-.12.06v.06a.9.9,0,0,0-.08.54.52.52,0,0,1-.2.34h-.13a6.6,6.6,0,0,1-.27-1.23c-.33-.4-.66-.85-1.22-.61Zm8.75,12.1a.41.41,0,0,1,.18-.25,1.49,1.49,0,0,1,.39.66c.06.15.14.27,0,.41h-.3c-.06-.07-.12-.14-.19-.15v-.06c.09-.19,0-.39-.06-.61Zm-.74.25c.32,0,.38.35.64.44h.06a1.59,1.59,0,0,1-.06.3.56.56,0,0,1-.4.09h0l.1-.12Zm-1.91,3.61h-.08l-.47-.09h-.07a.24.24,0,0,0-.23-.13h-.06a1.47,1.47,0,0,1-.26-.23h0a1.52,1.52,0,0,1,1.21.44h0Zm-1-1.68a2.54,2.54,0,0,1,1.37.7h0a2.43,2.43,0,0,1-1.33-.7Zm1.3-.21-.09-.12h0a1,1,0,0,0-.1-.17c.22-.21.49,0,.67,0-.07.2.23.32.26.54l-.54-.07h0Zm.74.23v0h0l-.06.11h0Zm-.33-1.68c.49,0,.54.64,1,.73v.22c-.54-.18-.69-.29-1-.95Zm-4.19,21.67a1.8,1.8,0,0,1,.91-.16c.11.15,0,.21-.15.21a1.08,1.08,0,0,1-.73,0Zm1.12.66a.55.55,0,0,1,.17.14l-.06.06a.62.62,0,0,0-.39.22h0a1.13,1.13,0,0,1-.54-.1,1.31,1.31,0,0,1,.84-.32Zm.47,1.08a.61.61,0,0,1,0,.19h0c-.41,0-.76.35-1.18.3.4-.44.54-.48,1.22-.49Zm-.46,1.37h0v-.13a1.47,1.47,0,0,1,.5-.46c.34-.22.44-.18.47-.06l-.17.26Zm.8,1h0l-.23.08h0l-.08,0a1.74,1.74,0,0,1,.44-.75c.11-.12.33-.24.15-.44.14.12.4.06.59.12,0,.13-.21.25-.32.39s-.36.5-.54.69Zm1.5-.09a3.27,3.27,0,0,1-.79.69c0-.24.21-.43.07-.66h.11a.42.42,0,0,0,.19-.46h0c.27.09.75,0,.46.47Zm2.29-7.52a4,4,0,0,1-.61.47l-.42.23h-.22a.6.6,0,0,0-.54.24h0v0h0v-.06a2.3,2.3,0,0,0-1.34.23h-.06a.31.31,0,0,0-.19,0h0a.89.89,0,0,0-.8-.16h-.31l-1.35-.6-.33-.25h0l-1-1.13h0a5.32,5.32,0,0,1-.46-1,2.66,2.66,0,0,1-.07-.39h0a.74.74,0,0,1,0-.51c0-.07-.06-.12-.08-.2a4.6,4.6,0,0,1,3.28-4.62,2,2,0,0,0,1.58-1.39,3,3,0,0,1,.9-1.36,2.93,2.93,0,0,1,4.11.35h0c.45.52.83,1,1.23,1.52a10,10,0,0,0,3.92,3.21.52.52,0,0,1,.34.24c-.27.16-.6,0-.9,0-.82-.13-1.62-.3-2.44-.45-1.29-.12-2.57-.25-3.49,1H120a2.56,2.56,0,0,0-.33.48,6.38,6.38,0,0,1,4-.81h0a7.19,7.19,0,0,1,1.19.31h0c.24.18.59.19.79.49-.54.33-1.08.54-1.62.85l-.32.19h-.34a16.75,16.75,0,0,0-4.11,3.08Zm22.21,8.24-1.14,1.08h.11l-.12.07-1.16.49a1,1,0,0,0-.36.06,4.76,4.76,0,0,0-1.41,0,.92.92,0,0,0-.48.16,1.85,1.85,0,0,0-1,1.26h0a2,2,0,0,0-.54.65l-.21.2-.73.51h0a7.41,7.41,0,0,1-4.77.9,8,8,0,0,1-3-1.39h0A1.22,1.22,0,0,0,126,200h0l-.84-1.11h0a.29.29,0,0,0-.27-.28h0a.59.59,0,0,0-.63-.38c-.4,0-.8.11-1.2.12h-.17a3,3,0,0,0-1-.33l-1.19-.89h0a3.76,3.76,0,0,1-1-2.65,5.81,5.81,0,0,1,.63-2.68,11.6,11.6,0,0,1,9.11-6.69,9,9,0,0,0-1.23,1.08,1.59,1.59,0,0,0-.49.54l-.08.09h0a2,2,0,0,0-.51.76l-.09.12a.27.27,0,0,0-.17.26.44.44,0,0,0-.07.21h0a1.87,1.87,0,0,0-.51,1.24c-.06.17-.13.37-.18.54a2.28,2.28,0,0,0-.16.9,2.25,2.25,0,0,1-.06.63,3.09,3.09,0,0,0,0,2.08l.06-.08v.07c.68-.76.62-1.8,1-2.7a6.12,6.12,0,0,1,1.62-2.53,15.26,15.26,0,0,0-.37,3.09,5.59,5.59,0,0,0,.54,3.09c.22-1,.33-2,.54-3v-.16a8.11,8.11,0,0,1,1.12-2.93c.12.75.19,1.5.27,2.25a4.9,4.9,0,0,0,.1,1.62c0,.54.07,1.08.08,1.62h0A1.79,1.79,0,0,0,131,195c.44-.24.33-.54.33-.85h0v-.39a12,12,0,0,0,.23-2.16c0-.54.06-1.08.09-1.59a4.75,4.75,0,0,1,.18-1.5,14.06,14.06,0,0,1,1,5.4.76.76,0,0,0,.11-.14v.26a4.48,4.48,0,0,0,.38-1V193a5.12,5.12,0,0,0,.11-1.87h0c.29-.85-.2-1.66-.11-2.49l-.08-.15v-.41a5.14,5.14,0,0,1,1.29,1.67c.08.17.15.35.22.54a.19.19,0,0,0,.07.17c.07.25.14.51.19.77a4,4,0,0,0,.43,1.39c.07.19.12.36.19.54a.3.3,0,0,1,.08-.24l.1.1v-.6a6.76,6.76,0,0,0-.25-2.53l-.06-.22v-.05a6.28,6.28,0,0,0-.69-1.62l-.08-.14-.06-.09a7.25,7.25,0,0,0-.46-.67c-.33-.8-1.08-1.15-1.72-1.62-.41-.21-.91-.14-1.32-.34a1.5,1.5,0,0,1,1.46.2h0c3.33.11,8,3.9,8.92,7.79a9.41,9.41,0,0,1,.07,2.31,3.88,3.88,0,0,1-.26.72l-.26.43Zm8.9,11.27h0v-.08a.42.42,0,0,0-.41.11h-.16v.54a7.87,7.87,0,0,1-.15,1.37.57.57,0,0,1-.08.34v.13a5.86,5.86,0,0,1-1.41,2.34,6.82,6.82,0,0,1-4.44,1.75h-.24a1.79,1.79,0,0,0-.75-.17h-.09v-.08a3.89,3.89,0,0,1-1-.41l-.1-.12.09-.12,1.66.54a5.26,5.26,0,0,0,4.4-1.62,4.57,4.57,0,0,0,1.32-2.48v-.2a4.31,4.31,0,0,0,0-.88,2.36,2.36,0,0,0-.2-1.14,1.43,1.43,0,0,1-.09-.27v-.09a1,1,0,0,1,.09-.54,1.89,1.89,0,0,1,1,0,6.64,6.64,0,0,0,3.16-.2,5.28,5.28,0,0,0,2.45-1.73,1.7,1.7,0,0,0,.19-.19,2.81,2.81,0,0,0,.64-2.26v-.19a3.68,3.68,0,0,0-.16-.54h0c-.2-1-1.14-1.34-1.62-2.06a.58.58,0,0,1,.06-.26.43.43,0,0,1,.36-.25h.06a4.37,4.37,0,0,0,.54.08,1.86,1.86,0,0,0,.47.09,7,7,0,0,0,3.44-1.12,6.36,6.36,0,0,0,1.66-3.13,4.45,4.45,0,0,0,0-.73.59.59,0,0,0-.06-.67,1.86,1.86,0,0,0-.1-.48.21.21,0,0,1,0-.11h0l-.06-.2a2,2,0,0,0-.41-.89,4.67,4.67,0,0,0-1-1.25l-.28-.16a2,2,0,0,1-.17-.23l-.71-.22h0a1,1,0,0,1,0-.25c.17-.24.44-.21.67-.28a3.49,3.49,0,0,0,2.64-3.33,4.17,4.17,0,0,0,0-1v-.11a4.21,4.21,0,0,0-.54-1.36,3.27,3.27,0,0,0-2-1.68c-.18-.07-.41-.1-.49-.28v-.11c.17-.6.72-.27,1.06-.16a4.6,4.6,0,0,1,2.8,3.28h0a4.33,4.33,0,0,1,.1.71,2.91,2.91,0,0,1,0,.59A4.31,4.31,0,0,1,161,189a2.45,2.45,0,0,1-1.31.66,1.74,1.74,0,0,0-.18.33h0c-.07.06-.12.16,0,.34a4.9,4.9,0,0,1,1.95,4.49,3.65,3.65,0,0,0-.07.46l-.09.32a7.74,7.74,0,0,1-1.16,2.27,3.68,3.68,0,0,1-.54.5,6.12,6.12,0,0,1-1.32,1l-1.47.57a3.93,3.93,0,0,1-.68.15v.29A3.75,3.75,0,0,1,156,205a3.88,3.88,0,0,0-.26.31,4.49,4.49,0,0,1-.41.46c-.14.14-.27.25-.41.37l-1.06.78-.54.22-1.87.54-.69.09h-.59l0,0Zm20.85,18.2a1.43,1.43,0,0,1-1,0,.94.94,0,0,1-.1-.23l-.07-.27a8.68,8.68,0,0,1-.23-1,2.41,2.41,0,0,0-.09-.84,12.67,12.67,0,0,1,.54-5.4c.08-.21.14-.47.43-.57-.14.84-.24,1.67-.3,2.52a8.67,8.67,0,0,0,0,2.16v.36h.06V223a4.17,4.17,0,0,0,.45,1.76c.06.14.09.28.15.42a3.34,3.34,0,0,0,.16.38h0a1.94,1.94,0,0,1-.06.59Zm1.78-11.74h-.06a.54.54,0,0,1-.68-.32h0a.21.21,0,0,1,0-.11v-.09a.54.54,0,0,1,.54-.54h0a.6.6,0,0,1,.62.58h0a.6.6,0,0,1-.45.5Zm-4.75-10.21c.21-.41.43-.81.65-1.22a5.32,5.32,0,0,0,.8-2.62c.05-.2.09-.39.12-.59a22.1,22.1,0,0,0-.87-2.76.91.91,0,0,1,.36-.46,1,1,0,0,0,.24-.22l.2-.2h.06a3.86,3.86,0,0,0,.84-2.7,4,4,0,0,0-1-2.56h0a2.77,2.77,0,0,1-.29-.6.44.44,0,0,1,.07-.19.3.3,0,0,1,.38,0,1.2,1.2,0,0,0,.7.23.38.38,0,0,0,.15,0h0a1.64,1.64,0,0,0,.39-.14,1.66,1.66,0,0,1,.22-.3l.11-.09h.13c.3.25,0,.46-.21.61v.08a.54.54,0,0,0-.15.22l.27.26c.14.41.4.51.87.44.31,0,.54-.39.89-.26a.5.5,0,0,1-.22.45l-.09.08h0c-.22.22-.65.37-.48.76s.35.76.85.76l.54.06a.33.33,0,0,1,0,.14,3.64,3.64,0,0,1-.66.38.47.47,0,0,0-.38.49c0,.74.79.54,1,1h0l-.38.07c-.21,0-.42-.05-.54.08s-.33.37-.36.66a.34.34,0,0,0,0,.2v.18h.09l.06.1c.22,0,.54,0,.48.32s-.12.17-.23.15h0l-.34-.07a1.34,1.34,0,0,1-.38-.14l-.12.14h-.11c-.27.2-.35.37-.31.54l-.16.19c.07.21.31.21.51.27l.26.23a.33.33,0,0,1,0,.14l-.51.06h-1.2c-.51,0-.29.33-.24.54a1.72,1.72,0,0,0,.74.86,2.35,2.35,0,0,0,1.76.26,1.59,1.59,0,0,1-1.08.54.65.65,0,0,0-.35,1.12l.08.08a.82.82,0,0,0,.61.32h0a.32.32,0,0,1,.18.1v.27a.57.57,0,0,1-.4.07h-.25a.39.39,0,0,0-.35.25,1,1,0,0,0-.15.41.58.58,0,0,0,0,.32c0,.25.23.38.49.45l1.33.38c-.37.31-.8.15-1.27.14s-1-.32-1.4.41c-.14.29-.1.44,0,.54a.66.66,0,0,0,.23.24,1.06,1.06,0,0,1,.34.12.22.22,0,0,1,.07.09c.25.4-.2.2-.31.3h-.17a.59.59,0,0,0-.54-.29h-.08a.27.27,0,0,0-.08-.22c-.65-.15-.85.54-1.33.65a.64.64,0,0,0,.12.25h0c.06.67.81.73,1,1.35h0a.64.64,0,0,1-.54-.25c-.31-.23-.65-.46-1-.68a1.87,1.87,0,0,0-1.79.17.32.32,0,0,0-.12.39c-.07.14,0,.31.26.58.43.44,1,.54,1.38.94a.4.4,0,0,1-.33.18c-.71,0-.91.34-1.05,1a.55.55,0,0,0,0,.4c0,.61.58.54.87.82v.18a3.35,3.35,0,0,1-1,0c-.4-.08-.61,0-.74.26a1.44,1.44,0,0,0-.18.25h0a.78.78,0,0,0,.06.43h0c.2.33.69.38,1,.6-.39.4-.75,0-1.11-.1l-.16-.09v-.17h-.15l-.14-.15v-.08l-.54.08c-.19.23-.39.44-.34.68s.07.3.41.58l.69.54h0a1.12,1.12,0,0,1-1.33-.36h0a1.27,1.27,0,0,0-1.78-.2h0V214h0c-.14.63.62.88.62,1.47-.37.29-.5,0-.82-.22-.13-.12-.22-.23-.34-.35a1.41,1.41,0,0,0-1.68-.8c-.19,0-.42-.07-.54.09a.29.29,0,0,0-.15.3.45.45,0,0,0,.33.54h0a3,3,0,0,1,.58.26l.06.1c-.18.41-.69.36-.94.41a.48.48,0,0,0-.41.48c0,.21.08.26.37.35h.11c.25,0,.54,0,.68.31h0a.83.83,0,0,1-.65.24h-.27a.94.94,0,0,0-.86.16,5.93,5.93,0,0,0-.57.75v.11h0a.43.43,0,0,1,.09.1c.23.26.61.33.75.62s.09.23-.13.2a2,2,0,0,1-.68-.09,1,1,0,0,0-.38-.19.28.28,0,0,1,0-.13c-.6-.14-.9.32-1.25.51h0l-.11.07c-.06.54.4.71.54,1.16-.42.32-.81-.28-1.08-.61-.54-.62-1.08-.15-1.55,0a.33.33,0,0,0,0,.14l-.31.19a1.56,1.56,0,0,1,.52,1,3.78,3.78,0,0,1-1-1.12.61.61,0,0,0-.75-.41h0a.51.51,0,0,0-.23.14v.09c-.2.4.27.76.18,1.19a1.4,1.4,0,0,0-.28-.06h0a.68.68,0,0,1-.29-.29h.2v-.3h-.24c-.14-.32-.14-.71-.41-1h0a.21.21,0,0,1,0-.11h-.06a.55.55,0,0,0-.23-.29,1.2,1.2,0,0,0-.17-.21.24.24,0,0,1-.06-.11.44.44,0,0,0-.06-.16.17.17,0,0,1,0-.1.54.54,0,0,1,.25-.22h.27a6.1,6.1,0,0,0,2.33.11h.24a1.12,1.12,0,0,0,.51-.06,4.76,4.76,0,0,0,2.23-1c.07-.06.12-.13.19-.19s.33-.36.48-.54a5.11,5.11,0,0,0,1-2.5c.12-.61.4-1,1.11-.93a1.67,1.67,0,0,0,1.14-.11,5.86,5.86,0,0,0,.58-.1,3.72,3.72,0,0,0,2-.84l.1-.06c1.27-1,1.43-2.45,1.44-3.9v-.54a1,1,0,0,1,.06-.33,2,2,0,0,1,.24-.45,1.48,1.48,0,0,1,.7-.31,1.42,1.42,0,0,0,.35-.11h.12a4.15,4.15,0,0,0,2.51-2.2ZM169.5,168a5.43,5.43,0,0,1-1.45,2.41h0A7.77,7.77,0,0,1,167,171c-1.17.38-2.32.54-3.22-.57h1.89a2.41,2.41,0,0,0,2.27-2.52c0-.38-.06-.72-.47-.72a3.42,3.42,0,0,0-.64,0,1.08,1.08,0,0,1-1.14-.75,1.21,1.21,0,0,1,1-1.34,2.36,2.36,0,0,1,2.75,1.53,3.66,3.66,0,0,1,.06,1.4Zm2.1-42.89a3.4,3.4,0,0,1-.82-.44.61.61,0,0,1-.08-.3c0-.54.32-.86,1-.86a2.3,2.3,0,0,1,2.16,1.43,2,2,0,0,1,.1.29,1,1,0,0,1,0,.24,7.42,7.42,0,0,1,.18.94c.05.3.09.79.12,1.19a9.18,9.18,0,0,1-.07,1.74c-.06.32-.13.61-.19.91s-.07.37-.11.54a1,1,0,0,1-.11.45.45.45,0,0,1-.22-.34l.16-.09a23.15,23.15,0,0,0-.1-2.76,6.58,6.58,0,0,0-.32-1.76v-.08a.77.77,0,0,0-.17-.39,1.3,1.3,0,0,0-.38-.46.84.84,0,0,0-1.13-.37h0l-.1.06Zm6.4,49.21-1.32,1.4v.05h0l-1.37.62h-2.23a.72.72,0,0,0-.54-.28h0a1.89,1.89,0,0,1-.32-.57c.54,0,1.08.1,1.62.11a2.82,2.82,0,0,0,2.93-2.59,1.74,1.74,0,0,0-.08-.68c-.07-.29-.33-.34-.91-.34a1.86,1.86,0,0,1-1.38-.46,2.08,2.08,0,0,1-.12-.32,1.29,1.29,0,0,1,.92-1.51,2.51,2.51,0,0,1,3.24,1.33,3.32,3.32,0,0,1,.2,1.29,5,5,0,0,1-.67,1.91Zm37.8-7.28a14,14,0,0,1,4.5-.61,4.3,4.3,0,0,1,4.17,3,1.09,1.09,0,0,0,.08.31,1.22,1.22,0,0,1-.36,1h0a.31.31,0,0,0-.19,0H224a1.19,1.19,0,0,0-.46,0,1,1,0,0,1-.31-.54,1.4,1.4,0,0,0-.09-.29.69.69,0,0,0-.15-.84h0l-.09-.27v-.05a.32.32,0,0,0-.17-.22h-.07a.3.3,0,0,0-.19-.19v-.06a1.2,1.2,0,0,0-.89-.74h-.08l-.21-.1h.16a.54.54,0,0,0-.59-.23h0a9.39,9.39,0,0,0-5.52.48h0l-.27.06h-.5a21.28,21.28,0,0,0-3.28,1.71h-.05v-.07H211c-.45.5-1.14.71-1.62,1.16l-.7.43a14.68,14.68,0,0,1,7.18-4Zm-4.1-21.63h0l.16-.34h0a6,6,0,0,1,1.57-2c.86-1.3,2.25-1.68,3.51-2.3a.75.75,0,0,1,.87.25.75.75,0,0,1,.09.9,1,1,0,0,1-.1.17l-.82.1h0l-.23-.07h0a.79.79,0,0,0-1.12,0h0l-.54.32h0a7.66,7.66,0,0,0-1.33,1.08l-.16.13h0a7.56,7.56,0,0,0-.78,1h0l-.85,1.08V146h0c-.14.18-.17.25-.38.54a1.81,1.81,0,0,1-.25.3,6.88,6.88,0,0,1,.31-1.43Zm-.39,1.57h.05v0h0Zm2.05,2.81c.69-.68,1.62-1,2.2-1.85.23-.34.67-.26,1-.06a.7.7,0,0,1,.35.71v.1a1.52,1.52,0,0,1-.63.6h-.07c-.91-.32-1.45.22-2,.72a4.72,4.72,0,0,0-.59.5,8.53,8.53,0,0,0-2.43,3.24h0a6.62,6.62,0,0,1,2.14-4Zm-2.42,8.48a10.85,10.85,0,0,1,2.1-2.58,17,17,0,0,0,2.22-1.85.8.8,0,0,1,.21-.15.73.73,0,0,1,1,.31h0a2.37,2.37,0,0,1,0,.84h0l-.54.33h0c-.39,0-.83-.17-1.15.22h0a.33.33,0,0,0-.24.24h-.06a6.55,6.55,0,0,0-2.57,2.24,1,1,0,0,0-.38.58h0l-.86,1.08h0a1.77,1.77,0,0,1,.2-1.33Zm6.3-93.46a9.59,9.59,0,0,0-1-3.71h0a8.84,8.84,0,0,0-.83-1.62c-.17-.32-.35-.63-.54-.94a6.21,6.21,0,0,0-.42-.81.85.85,0,0,1-.13-.47.87.87,0,0,1,.27-.23.44.44,0,0,1,.47,0l.15.14h0v0c.14.24.25.54.37.76a12.37,12.37,0,0,1,.65,1.11c.07.14.15.28.22.43a13.71,13.71,0,0,1,1.29,4.24,4.58,4.58,0,0,1-.28,2.32l-.07-.06a10.17,10.17,0,0,1-.2-1.23Zm-4.65,34.73c2.34-2.7,5.45-3.52,8.84-3.62a.7.7,0,0,1,.57.19c-.14.85-.22.94-1,.85a2.23,2.23,0,0,0-1.4,0h-.17A9.36,9.36,0,0,0,214,98.72l-.92,1h0a2.85,2.85,0,0,0-1,1h-.12a9,9,0,0,0-1.39,2l-.84,1.46c0,.07-.09.14-.14.2a16,16,0,0,1,3-4.86Zm-8.14-19.39h0a.17.17,0,0,1,.07-.13.7.7,0,0,0-.47-.33h0a.39.39,0,0,0-.28-.18h0a.53.53,0,0,0-.54-.26h0a1.56,1.56,0,0,0-.92-.25.88.88,0,0,1-1-.73s0-.09,0-.13a.62.62,0,0,1,.38-.45,4.6,4.6,0,0,1,.91.09,7,7,0,0,1,3.93,3.24,21.24,21.24,0,0,1,2.54,6.84c.06.27.12.54.19.79a2.82,2.82,0,0,1,.15,1.57c-.24-.33-.3-.72-.5-1h0a.11.11,0,0,1,0-.08V89h0a1.81,1.81,0,0,0-.29-.9h-.08a7,7,0,0,0-.84-2.52v.2h0v-.2h0l-.18-.27h.1a10.42,10.42,0,0,0-1.12-2.56h0a5.79,5.79,0,0,0-1.31-2,1.29,1.29,0,0,0-.64-.77.45.45,0,0,0-.11.19Zm4,29.7-.27-.19h-.06a.4.4,0,0,1-.08-.26.59.59,0,0,1,.46-.71h0a.43.43,0,0,1,.16,0,.59.59,0,0,1,.58.57.77.77,0,0,1-.78.66Zm-5.3-7.34a.73.73,0,0,1,.33-.27.77.77,0,0,1,.42-.07.91.91,0,0,1,.32.38l.26.54h0a18.17,18.17,0,0,1,.67,1.73,5.77,5.77,0,0,0,.35,1.14l.15.59a4.92,4.92,0,0,0,.21,1.08c0,.25.07.49.12.73a6,6,0,0,0,.12,1.34v1.12c-.06.4-.12.82-.17,1.25v1a1.39,1.39,0,0,1-.07.54,4.43,4.43,0,0,0-.09.72,3.35,3.35,0,0,1-.08.54l-.25.07-.09.2V115c.06-.44.1-.88.13-1.31h.1a6.5,6.5,0,0,1,.06-1.65,17.38,17.38,0,0,0-.86-5,1,1,0,0,0-.17-.82h0a9.21,9.21,0,0,0-1.46-3.33Zm.81,16.9a.51.51,0,0,1,.47-.33h0a.51.51,0,0,1,.31.11.86.86,0,0,1,0,.67h0l-.29.26h-.15a.43.43,0,0,1-.16,0h.06a1.15,1.15,0,0,1-.41-.74Zm-.54,5.5c.17,0,.43,0,.43.24h0l-.13.17h0l-.22.06h0a1.44,1.44,0,0,0-1.13.29.67.67,0,0,0,0,.2h0a.67.67,0,0,1,0-.2,7.48,7.48,0,0,0-3.89,2.76h0l-.07-.07a.12.12,0,0,0-.09.15h0a1.82,1.82,0,0,0-.73.89h0c-.33.46-.83.78-.95,1.37h0l-.78,1.13a1.41,1.41,0,0,1,0,.29,2.45,2.45,0,0,0-.54,1.08v.07l-.24.54H195a.2.2,0,0,1-.09-.27v0a14,14,0,0,1,5.54-7.73,5.31,5.31,0,0,1,2.85-1ZM192.35,89.31a1.38,1.38,0,0,1,.52-.47,4.93,4.93,0,0,1,5.55.5,6.65,6.65,0,0,1,1.08,1.39,11,11,0,0,1,1.7,4.48,2.76,2.76,0,0,1,0,1.75.52.52,0,0,1-.16-.17l-.26-1.58h0a10.46,10.46,0,0,0-1.28-2.65h0a1.3,1.3,0,0,0-.58-.83h0c-.1-.12-.19-.26-.3-.38h0a4.32,4.32,0,0,0-.45-.5h0a3.91,3.91,0,0,0-1.77-1h0c-.36-.06-.72-.29-1.08-.06h0a1.61,1.61,0,0,0-1.19.23H194l-.84.32v.09h0a.14.14,0,0,1,0-.09,1.23,1.23,0,0,1-.85-.54h0a3.68,3.68,0,0,1,0-.47Zm-4.65,6.27a1.85,1.85,0,0,1,1.49-1.34,6.63,6.63,0,0,1,6.88,2.12,8.38,8.38,0,0,1,1.08,1.91c.13.41.26.83.4,1.24a7.37,7.37,0,0,1,.21,1.33.49.49,0,0,1,0,.17,7.9,7.9,0,0,0,.19,1.81,5.81,5.81,0,0,0,.17,1,1.77,1.77,0,0,0,.12.79,17.4,17.4,0,0,1,.23,1.89c0,1.24-.08,2.47-.08,3.7,0,.85-.1,1.69-.15,2.55,0,.4-.05.8-.07,1.2-.09,1.36-.2,2.73-.32,4.08h0a16.79,16.79,0,0,1-1.48,4.68.46.46,0,0,0,.07.07c0,.07-.07.14-.11.2l-.3.54a7.66,7.66,0,0,0-.73,1.23,4,4,0,0,1-.24.38h0a3.32,3.32,0,0,0-.76,1.31h0l-.54.85a1.22,1.22,0,0,1,0,.27l.14-.07a.15.15,0,0,1-.07.14h0a.39.39,0,0,0-.09.23h0a2.45,2.45,0,0,0-.54,1.08h-.07l-.47.27.08-.51a1.93,1.93,0,0,1,.26-.49h0l2.13-7.56v-.18a4.41,4.41,0,0,0,.27-1.14h0a2.21,2.21,0,0,1,.08-.37.56.56,0,0,0,.29-.21.61.61,0,0,0-.08-.77,5,5,0,0,1,.13-.74,3.55,3.55,0,0,0,.12-.65q.39-2.34.57-4.71h0a3.26,3.26,0,0,0,0-1.08,6.66,6.66,0,0,0-.31-1.32,1.06,1.06,0,0,0-.12-.34V109c-.14-.43-.29-.84-.44-1.26-.19-.61-.42-1.21-.66-1.81s-.57-1.46-.88-2.19a1.51,1.51,0,0,0-.27-.67h0V103a.47.47,0,0,0-.12-.27c0-.11-.11-.21-.16-.31a3.22,3.22,0,0,0-.54-.91l-.08-.12a.79.79,0,0,0-.2-.31c-.09-.14-.2-.27-.3-.41a2.16,2.16,0,0,0-.71-.92.43.43,0,0,0-.27-.26l-.24-.23a.66.66,0,0,0-.23-.24l-.07-.07H191a7.64,7.64,0,0,0-2.13-1.75c-.85-.38-1.46-.78-1.29-1.62Zm6.75,41h0a.39.39,0,0,1,0,.26l-.64.26a.54.54,0,0,1-.34-.54h0a.51.51,0,0,1,.54-.45h0a.47.47,0,0,1,.44.45Zm-5.94-33.95c-.24-.35-.5-.69-.77-1a3.74,3.74,0,0,0-.63-.69l-.37-.36a5.82,5.82,0,0,0-2-1.62h0a1.27,1.27,0,0,0-.85-.48h0a3.19,3.19,0,0,0-1.89-.83h0a4,4,0,0,0-1.95-.44v0h0a2,2,0,0,1-.65-.6v-.15c0-.54.4-.72.84-.77a2.22,2.22,0,0,1,.8.15c4.57,1.17,7.47,4.22,9.38,8.36a14,14,0,0,1,1,2.64c.06.28.13.54.17.82a.24.24,0,0,1,0,.12,6.85,6.85,0,0,0,.13.79h0a4.8,4.8,0,0,1,.23.67,4.26,4.26,0,0,0,.1.49V110h0a.53.53,0,0,0,0,.25v.08c.09.63.15,1.28.21,2-.07.4.1.86-.07,1.25a7.32,7.32,0,0,1-.26-.88,1,1,0,0,0-.11-.59,2.54,2.54,0,0,0-.06-.67l0-.27h0V111l-.37-2c-.06-.2-.13-.4-.2-.6v-.07l-.08-.11c-.06-.21-.13-.42-.2-.62a1.15,1.15,0,0,0-.11-.31c-.09-.26-.18-.54-.28-.78a2.48,2.48,0,0,0-.25-.58c-.17-.4-.33-.81-.51-1.19v-.13h0a9.38,9.38,0,0,0-1.17-2ZM190,141.24v-.17a12.22,12.22,0,0,0-1.15-4c-.07-.12-.13-.25-.19-.37l-.12-.26a.48.48,0,0,1,.32-.5c.33-.14.54.1.65.35a14.35,14.35,0,0,1,.49,1.39,1.08,1.08,0,0,0,.07.31c.08.31.17.63.22,1a.65.65,0,0,0,.06.33v.24a.75.75,0,0,1,.07.12c.06.36.11.71.14,1.08v2.4c0,.4-.09.79-.17,1.19a1.92,1.92,0,0,0-.11.54,2.15,2.15,0,0,1-.14.54l-.16.3a10.21,10.21,0,0,1-1.37,3.07h-.07a24.66,24.66,0,0,0,1-3.12l.14-.27a14.36,14.36,0,0,0,.24-1.6v-.09a11.71,11.71,0,0,0,.1-2.44Zm-4.55,9.12a.51.51,0,0,1,.41.21V151h0a.34.34,0,0,1-.06.12c-.59.29-.67.29-1-.33a.53.53,0,0,1,.54-.47.22.22,0,0,1,.14,0ZM185.5,181h0l-1.08.86a.65.65,0,0,0-.54.24h-.08l-1.22.26h-.44l-1.78-.6v.08l-.14-.1h0c-.14-.3-.51-.48-.63-.85a9,9,0,0,1,1.85.41h.17a2.7,2.7,0,0,0,3.06-2.29h0a1,1,0,0,0,0-.43c0-.36-.14-.63-.75-.54a1.2,1.2,0,0,1-1.27-.67,1,1,0,0,1,0-.42c.06-.75.59-1.2,1.62-1.2h.38a2.57,2.57,0,0,1,1.84,1.32,3.23,3.23,0,0,1-.17,2.75h0a6,6,0,0,0-.79,1.08Zm2.4,9.18H188a2.7,2.7,0,0,0,3.45-1.55,1.06,1.06,0,0,0,.06-.61c-.07-.29-.45-.45-1.21-.63h-.09l-.36-.43a1.31,1.31,0,0,1,0-.68c.13-.73.7-1.08,1.62-1a3.19,3.19,0,0,1,.73.21,2.61,2.61,0,0,1,1.48,2.08,4.58,4.58,0,0,1-.25,1.47h0a5.65,5.65,0,0,1-.38.57l-.24.3h0l-1.08.88h0l-.27.08-.29.2h0a.74.74,0,0,0-.54.2l-.28.06h-.22v-.06a4.87,4.87,0,0,1-2.78-.54c-.54-.39-1.11-.75-1.12-1.49a6.11,6.11,0,0,0,1.71.91Zm21-67h0a48.63,48.63,0,0,0-2,6.56c-.15.45-.28.9-.45,1.34a90,90,0,0,0-3.78,9c-.61,1.52-1.33,3-2,4.56-.1.21-.21.41-.31.61a21.75,21.75,0,0,0-1.82,3.14h0c-.65,1-1.33,2-2.06,3s-1.54,1.88-2.31,2.86l-.06.06a6,6,0,0,0-1.38,1.33h0a7,7,0,0,0-.76.61v.1c-.23.2-.46.41-.7.6h0l-.22.26h0l-1.59,1.35h0a.58.58,0,0,1-.22.22l-.2.09c-.35.13-.76.13-1,.41a15.49,15.49,0,0,0-2.4,1.14h-.35v.06l-.16.15h0l.16-.15-.1-.12a4.23,4.23,0,0,1,1.38-.8,14.46,14.46,0,0,0,4.74-3,42.29,42.29,0,0,1,3-3.91,13.36,13.36,0,0,0,2.06-3,3.67,3.67,0,0,1,.5-.83,12,12,0,0,0,2.57-4.25c1.54-3.71,3.66-7.16,5-11A9.7,9.7,0,0,0,205,132a39.61,39.61,0,0,1,3.35-9.38l1.35-2.9a1.11,1.11,0,0,1,.44-.54,5.16,5.16,0,0,1-.72,2.09c-.15.66-.34,1.29-.54,1.92Zm18.22-3c1.91,0,3.78-.28,5.2-1.74h.21a1.32,1.32,0,0,1-.25.81,4.87,4.87,0,0,1-3.56,1.17l-.64.22.06.07h-1.38a.49.49,0,0,0-.08-.21H224.2v.22H224a4.09,4.09,0,0,0-1.55.27,2.73,2.73,0,0,0-.54.27v-.07h-.21a2.85,2.85,0,0,1,2.32-.92,18.52,18.52,0,0,1,3.07-.13Zm16.24-18.16-.14.13a.21.21,0,0,1-.12.07l-.23.07a2.39,2.39,0,0,0-1.37.54l-.42.23-.71.31h0l-.48.1h-.51l-.09.18-.28,0h-.44a5.13,5.13,0,0,1-1.46-.18,22.37,22.37,0,0,0,2.78-.75c.85-.39,1.86-.59,2.2-1.71h0a.68.68,0,0,1,.32-.33l.1-.06a.75.75,0,0,1,.51,0,.87.87,0,0,1,.34.22,1.42,1.42,0,0,1,.08,1.09Zm4.52-7.55h0a1,1,0,0,0-.54.34h0a18,18,0,0,1-3.91,2.42h0a1.14,1.14,0,0,0-.8.24h-1.08c0,.08-.05.15-.07.22H240a2.26,2.26,0,0,1,1.05-.46,13.25,13.25,0,0,0,4.82-2.37,3.43,3.43,0,0,0,1.36-1.51h0a.69.69,0,0,1,.88-.47.67.67,0,0,1,.54.57h0a.43.43,0,0,1,0,.16c-.07.43-.54.61-.79.86Zm2.08-7.93a3,3,0,0,1-.4.39.06.06,0,0,1,0,.06h0a.06.06,0,0,0,0-.06c-.56.64-1.16,1.25-1.78,1.83l-.54.48-2.28,1.46-.37.17-1.12.26c-.4.38-.93.21-1.4.31h0a2.11,2.11,0,0,1,1-.38,12.27,12.27,0,0,0,3.6-2,5.45,5.45,0,0,0,2-2.45,4.38,4.38,0,0,0,.23-.54.5.5,0,0,1,.47-.32.6.6,0,0,1,.54.32h0a.55.55,0,0,1,0,.47Z"/>
              <path class="cls-12" d="M173.28,182a.37.37,0,0,0,.17.16h0a.16.16,0,0,0-.15-.16h0Z"/>
              <path class="cls-13" d="M97,72.81l.24-.28A.31.31,0,0,0,97,72.81Z"/>
              <path class="cls-14" d="M141.06,283.5a3.36,3.36,0,0,0,.24-.29h0A.27.27,0,0,0,141.06,283.5Z"/>
              <path class="cls-15" d="M106.17,76.68l.32-.18A.32.32,0,0,0,106.17,76.68Z"/>
              <path class="cls-16" d="M75.33,81.48l.22.22A.24.24,0,0,0,75.33,81.48Z"/>
              <path class="cls-17" d="M76.19,82.53a.44.44,0,0,0-.28-.35A.43.43,0,0,0,76.19,82.53Z"/>
              <path class="cls-18" d="M188.91,86.45l.24-.23A.25.25,0,0,0,188.91,86.45Z"/>
              <path class="cls-19" d="M102.9,98.43l-.33.21A.3.3,0,0,0,102.9,98.43Z"/>
              <path class="cls-20" d="M178.3,214.5v.23c.16.35.54.25.86.28A1.12,1.12,0,0,0,178.3,214.5Z"/>
              <path class="cls-21" d="M178.42,222.14a.22.22,0,0,0-.07.22c0,.09.13.09.2.09a.12.12,0,0,0,.11-.13.09.09,0,0,0,0-.06A.72.72,0,0,0,178.42,222.14Z"/>
              <path class="cls-22" d="M92.34,180.78a1.44,1.44,0,0,1-.07-.54c-.07,0-.14-.14-.21-.25s-.14-.29-.21-.43h-.48a1.33,1.33,0,0,1,.33.59h0a3,3,0,0,0,.41,1.19,1.71,1.71,0,0,0,.39.46,5.62,5.62,0,0,0-.15-1Z"/>
              <path class="cls-23" d="M133.32,199c-.18.11-.41.2-.33.49h0a.3.3,0,0,0,.27.34h.08a.35.35,0,0,0,.38-.31h0a.37.37,0,0,0-.07-.25A.32.32,0,0,0,133.32,199Z"/>
              <path class="cls-24" d="M127.07,197.82a.23.23,0,0,0-.13.2v.08a.19.19,0,0,0,.25.11h0a.26.26,0,0,0,.12-.21.11.11,0,0,0,0-.08A.2.2,0,0,0,127.07,197.82Z"/>
              <path class="cls-25" d="M130.77,199.85c0,.06.06.15.06.23l.22-.11a.14.14,0,0,0,0-.18H131A.19.19,0,0,0,130.77,199.85Z"/>
              <path class="cls-26" d="M183.75,218.7l.05.08.14-.1h-.1Z"/>
              <polygon class="cls-27" points="183.14 219.33 183.21 219.34 183.18 219.27 183.14 219.33"/>
              <path class="cls-28" d="M191.08,191.06l.29-.19A.28.28,0,0,0,191.08,191.06Z"/>
              <path class="cls-29" d="M105.62,128.66l.24.06h.33a1.51,1.51,0,0,0-.26-.18C105.81,128.52,105.67,128.52,105.62,128.66Z"/>
              <path class="cls-30" d="M127.83,168.81v.09h0a.3.3,0,0,0,.33.27h0c.2,0,.31-.14.36-.33a.49.49,0,0,0,0-.17v-.07a.31.31,0,0,0-.33-.29h0a.34.34,0,0,0-.37.3.36.36,0,0,0,0,.14Z"/>
              <path class="cls-31" d="M134.32,169.59l.14-.12-.21-.08s-.15,0-.09.08A.31.31,0,0,0,134.32,169.59Z"/>
            </g>
          </g>
        </g>
      </g>
    </g>
  </g>
</svg>
