<svg xmlns="http://www.w3.org/2000/svg" xmlns:xlink="http://www.w3.org/1999/xlink" width="324" height="324" viewBox="0 0 324 324">
  <defs>
    <style>
      .cls-1 {
        opacity: 0;
      }

      .cls-2 {
        fill: none;
      }

      .cls-3 {
        fill: url(#Degradado_sin_nombre_34);
      }

      .cls-4 {
        fill: url(#Degradado_sin_nombre_34-2);
      }

      .cls-5 {
        fill: url(#Degradado_sin_nombre_34-3);
      }

      .cls-6 {
        fill: url(#Degradado_sin_nombre_34-4);
      }

      .cls-7 {
        fill: url(#Degradado_sin_nombre_34-5);
      }

      .cls-8 {
        fill: url(#Degradado_sin_nombre_34-6);
      }

      .cls-9 {
        fill: url(#Degradado_sin_nombre_34-7);
      }

      .cls-10 {
        fill: url(#Degradado_sin_nombre_34-8);
      }

      .cls-11 {
        fill: url(#Degradado_sin_nombre_34-9);
      }

      .cls-12 {
        fill: url(#Degradado_sin_nombre_34-10);
      }

      .cls-13 {
        fill: url(#Degradado_sin_nombre_34-11);
      }

      .cls-14 {
        fill: url(#Degradado_sin_nombre_34-12);
      }

      .cls-15 {
        fill: url(#Degradado_sin_nombre_34-13);
      }

      .cls-16 {
        fill: url(#Degradado_sin_nombre_34-14);
      }

      .cls-17 {
        fill: url(#Degradado_sin_nombre_34-15);
      }

      .cls-18 {
        fill: url(#Degradado_sin_nombre_34-16);
      }

      .cls-19 {
        fill: url(#Degradado_sin_nombre_34-17);
      }

      .cls-20 {
        fill: url(#Degradado_sin_nombre_34-18);
      }

      .cls-21 {
        fill: url(#Degradado_sin_nombre_34-19);
      }

      .cls-22 {
        fill: url(#Degradado_sin_nombre_34-20);
      }

      .cls-23 {
        fill: url(#Degradado_sin_nombre_34-21);
      }

      .cls-24 {
        fill: url(#Degradado_sin_nombre_34-22);
      }

      .cls-25 {
        fill: url(#Degradado_sin_nombre_34-23);
      }

      .cls-26 {
        fill: url(#Degradado_sin_nombre_34-24);
      }

      .cls-27 {
        fill: url(#Degradado_sin_nombre_34-25);
      }

      .cls-28 {
        fill: url(#Degradado_sin_nombre_34-26);
      }

      .cls-29 {
        fill: url(#Degradado_sin_nombre_34-27);
      }

      .cls-30 {
        fill: url(#Degradado_sin_nombre_34-28);
      }

      .cls-31 {
        fill: url(#Degradado_sin_nombre_34-29);
      }

      .cls-32 {
        fill: url(#Degradado_sin_nombre_34-30);
      }

      .cls-33 {
        fill: url(#Degradado_sin_nombre_34-31);
      }

      .cls-34 {
        fill: url(#Degradado_sin_nombre_34-32);
      }

      .cls-35 {
        fill: url(#Degradado_sin_nombre_34-33);
      }

      .cls-36 {
        fill: url(#Degradado_sin_nombre_34-34);
      }

      .cls-37 {
        fill: url(#Degradado_sin_nombre_34-35);
      }

      .cls-38 {
        fill: url(#Degradado_sin_nombre_34-36);
      }
    </style>
    <linearGradient id="Degradado_sin_nombre_34" data-name="Degradado sin nombre 34" x1="144.89" y1="274.82" x2="156.41" y2="274.82" gradientTransform="translate(-6 -94.03)" gradientUnits="userSpaceOnUse">
      <stop offset="0.05" stop-color="#957e41"/>
      <stop offset="0.21" stop-color="#d8bc63"/>
      <stop offset="0.49" stop-color="#dfc46b"/>
      <stop offset="0.74" stop-color="#c6a95a"/>
      <stop offset="0.98" stop-color="#7a6834"/>
    </linearGradient>
    <linearGradient id="Degradado_sin_nombre_34-2" x1="154.34" y1="282.4" x2="157.62" y2="282.4" xlink:href="#Degradado_sin_nombre_34"/>
    <linearGradient id="Degradado_sin_nombre_34-3" x1="149.84" y1="263.96" x2="150.96" y2="263.96" xlink:href="#Degradado_sin_nombre_34"/>
    <linearGradient id="Degradado_sin_nombre_34-4" x1="209.06" y1="289.33" x2="209.99" y2="289.33" xlink:href="#Degradado_sin_nombre_34"/>
    <linearGradient id="Degradado_sin_nombre_34-5" x1="210.34" y1="254.16" x2="210.9" y2="254.16" xlink:href="#Degradado_sin_nombre_34"/>
    <linearGradient id="Degradado_sin_nombre_34-6" x1="202.87" y1="253.22" x2="203.78" y2="253.22" xlink:href="#Degradado_sin_nombre_34"/>
    <linearGradient id="Degradado_sin_nombre_34-7" x1="207.9" y1="252.07" x2="208.38" y2="252.07" xlink:href="#Degradado_sin_nombre_34"/>
    <linearGradient id="Degradado_sin_nombre_34-8" x1="190.44" y1="272.35" x2="191.7" y2="272.35" xlink:href="#Degradado_sin_nombre_34"/>
    <linearGradient id="Degradado_sin_nombre_34-9" x1="220.64" y1="270.75" x2="221.86" y2="270.75" xlink:href="#Degradado_sin_nombre_34"/>
    <linearGradient id="Degradado_sin_nombre_34-10" x1="225.53" y1="322.02" x2="227.32" y2="322.02" xlink:href="#Degradado_sin_nombre_34"/>
    <linearGradient id="Degradado_sin_nombre_34-11" x1="234.32" y1="322.13" x2="236.11" y2="322.13" xlink:href="#Degradado_sin_nombre_34"/>
    <linearGradient id="Degradado_sin_nombre_34-12" x1="228.35" y1="327.23" x2="228.84" y2="327.23" xlink:href="#Degradado_sin_nombre_34"/>
    <linearGradient id="Degradado_sin_nombre_34-13" x1="232.93" y1="327.39" x2="233.83" y2="327.39" xlink:href="#Degradado_sin_nombre_34"/>
    <linearGradient id="Degradado_sin_nombre_34-14" x1="123.24" y1="335.47" x2="124.81" y2="335.47" xlink:href="#Degradado_sin_nombre_34"/>
    <linearGradient id="Degradado_sin_nombre_34-15" x1="148.6" y1="309.23" x2="149.51" y2="309.23" xlink:href="#Degradado_sin_nombre_34"/>
    <linearGradient id="Degradado_sin_nombre_34-16" x1="73.29" y1="277.44" x2="263.58" y2="277.44" xlink:href="#Degradado_sin_nombre_34"/>
    <linearGradient id="Degradado_sin_nombre_34-17" x1="113.79" y1="346.7" x2="114.06" y2="346.7" xlink:href="#Degradado_sin_nombre_34"/>
    <linearGradient id="Degradado_sin_nombre_34-18" x1="256.47" y1="322.47" x2="256.71" y2="322.47" xlink:href="#Degradado_sin_nombre_34"/>
    <linearGradient id="Degradado_sin_nombre_34-19" x1="107.34" y1="248" x2="107.67" y2="248" xlink:href="#Degradado_sin_nombre_34"/>
    <linearGradient id="Degradado_sin_nombre_34-20" x1="89.51" y1="315.83" x2="89.74" y2="315.83" xlink:href="#Degradado_sin_nombre_34"/>
    <linearGradient id="Degradado_sin_nombre_34-21" x1="131.13" y1="199.59" x2="131.46" y2="199.59" xlink:href="#Degradado_sin_nombre_34"/>
    <linearGradient id="Degradado_sin_nombre_34-22" x1="114.98" y1="219.64" x2="115.38" y2="219.64" xlink:href="#Degradado_sin_nombre_34"/>
    <linearGradient id="Degradado_sin_nombre_34-23" x1="122.04" y1="331.11" x2="122.28" y2="331.11" xlink:href="#Degradado_sin_nombre_34"/>
    <linearGradient id="Degradado_sin_nombre_34-24" x1="239.76" y1="194.95" x2="240.04" y2="194.95" xlink:href="#Degradado_sin_nombre_34"/>
    <linearGradient id="Degradado_sin_nombre_34-25" x1="199.83" y1="254.98" x2="200.73" y2="254.98" xlink:href="#Degradado_sin_nombre_34"/>
    <linearGradient id="Degradado_sin_nombre_34-26" x1="228.35" y1="323.84" x2="233.37" y2="323.84" xlink:href="#Degradado_sin_nombre_34"/>
    <linearGradient id="Degradado_sin_nombre_34-27" x1="230.61" y1="319.12" x2="230.96" y2="319.12" xlink:href="#Degradado_sin_nombre_34"/>
    <linearGradient id="Degradado_sin_nombre_34-28" x1="121.7" y1="335.16" x2="123.19" y2="335.16" xlink:href="#Degradado_sin_nombre_34"/>
    <linearGradient id="Degradado_sin_nombre_34-29" x1="138.51" y1="270.77" x2="142.99" y2="270.77" xlink:href="#Degradado_sin_nombre_34"/>
    <linearGradient id="Degradado_sin_nombre_34-30" x1="144.48" y1="282.32" x2="146.39" y2="282.32" xlink:href="#Degradado_sin_nombre_34"/>
    <linearGradient id="Degradado_sin_nombre_34-31" x1="157.84" y1="271.06" x2="162.36" y2="271.06" xlink:href="#Degradado_sin_nombre_34"/>
    <linearGradient id="Degradado_sin_nombre_34-32" x1="212.65" y1="326.43" x2="213.01" y2="326.43" xlink:href="#Degradado_sin_nombre_34"/>
    <linearGradient id="Degradado_sin_nombre_34-33" x1="201.82" y1="287.76" x2="202.46" y2="287.76" xlink:href="#Degradado_sin_nombre_34"/>
    <linearGradient id="Degradado_sin_nombre_34-34" x1="206.38" y1="290.16" x2="206.81" y2="290.16" xlink:href="#Degradado_sin_nombre_34"/>
    <linearGradient id="Degradado_sin_nombre_34-35" x1="203.61" y1="289.33" x2="204.15" y2="289.33" xlink:href="#Degradado_sin_nombre_34"/>
    <linearGradient id="Degradado_sin_nombre_34-36" x1="154.49" y1="213.22" x2="154.85" y2="213.22" xlink:href="#Degradado_sin_nombre_34"/>
  </defs>
  <title>EL MONO</title>
  <g id="Capa_2" data-name="Capa 2">
    <g id="Capa_1-2" data-name="Capa 1">
      <g id="Capa_1-2-2" data-name="Capa 1-2">
        <g>
          <g class="cls-1">
            <rect class="cls-2" width="324" height="324"/>
          </g>
          <g id="Capa_1-2-2-2" data-name="Capa 1-2-2">
            <g>
              <path class="cls-3" d="M139.12,182.43c.32,1,1.32,1.33,3.38,1.19a3.68,3.68,0,0,0,.08.58,1.93,1.93,0,0,0,1.37,2,2,2,0,0,0,2.34-.54,2.3,2.3,0,0,0,.48-1.54,1.91,1.91,0,0,1,.07-.62l.13-.13h.21a1.5,1.5,0,0,0,1.36.23h0a1,1,0,0,0,.91-.3h0a.33.33,0,0,0,.31-.26h0a1.39,1.39,0,0,0,.59-1.41c0-1-.82-1.9-2.33-2.32l.42-.56a.17.17,0,0,0-.07-.14h0a.11.11,0,0,0,.06.11c.33-.39.68-.76.45-1.33a1.85,1.85,0,0,0-.79-1.56,2.27,2.27,0,0,0-1.66-.64c-1,.05-1.4.92-1.92,1.62-.07-.09-.14-.19-.21-.27a2.08,2.08,0,0,0-3-1,2,2,0,0,0-1,1.29,2.7,2.7,0,0,0,.54,1.94c.09.15.2.32.32.49-1.73.43-2.51,1.33-2.24,2.59A1.5,1.5,0,0,0,139.12,182.43Zm9.56-.9.11.08v.13c-.54.14-.88-.2-1.26-.48h.18Zm-1.57-4.28-.44.51c0-.09-.17-.08-.11-.21l.35-.49H147c.09-.05.15.08.09.17Zm-2.43,6.27a1.28,1.28,0,0,1,.19,1,1.76,1.76,0,0,1-.31-.61.85.85,0,0,1,.15-.37Zm.85-3.52v.27a.89.89,0,0,1-.91.83h-.16a.87.87,0,0,1-.84-.84,1,1,0,0,1,1.18-.79,1,1,0,0,1,.69.52Zm-2.24-2.26.18.3a2.71,2.71,0,0,1-1.08-.74c0-.12-.11-.25-.17-.42h0a1.57,1.57,0,0,1,.54.29Zm-2.54,4a1.17,1.17,0,0,1,1-.54,1.94,1.94,0,0,1-1,.54Z"/>
              <path class="cls-4" d="M148.34,186.3l.17.29h-.17l2,3.12h0c.13.2.24.43.38.65h0a.48.48,0,0,0,.64.15.42.42,0,0,0,.22-.44c.11-.23-.13-.45-.3-.66l-2.75-3.24Z"/>
              <path class="cls-5" d="M144.23,171.85l.09-.44a3.82,3.82,0,0,0,.11.57,5.32,5.32,0,0,0,.13-1.69,1,1,0,0,1,.06-.41h0a1.26,1.26,0,0,1,.13-.43c.12-.42.36-.85,0-1.27h0a.41.41,0,0,0-.44-.29c-.42,0-.54.43-.42.8A30.22,30.22,0,0,1,144.23,171.85Z"/>
              <path class="cls-6" d="M203.07,195.32v.13a.36.36,0,0,0,.35.32.41.41,0,0,0,.47-.32h0a.47.47,0,0,0,.05-.26h0a.43.43,0,0,0-.51-.35h-.08a.41.41,0,0,0-.32.49h0Z"/>
              <path class="cls-7" d="M204.45,160.25a.25.25,0,0,0,.14.16c.06,0,.15-.12.23-.12v-.09a.65.65,0,0,0,.1-.15h0a.29.29,0,0,0-.37-.17h0a.29.29,0,0,0-.17.17h0A.23.23,0,0,0,204.45,160.25Z"/>
              <path class="cls-8" d="M197,159.39h0c0,.22.2.3.4.35.25-.12.44-.26.41-.5v-.06a.16.16,0,0,0-.06-.13.43.43,0,0,0-.28-.4c-.3-.08-.48.15-.54.4A.42.42,0,0,0,197,159.39Z"/>
              <path class="cls-9" d="M202.07,158.26h0a.14.14,0,0,0,.19-.06h0a0,0,0,0,0,0,0h0a.2.2,0,0,0,0-.15c0-.21-.15-.21-.27-.21h-.08a.24.24,0,0,0-.09.3h0a.2.2,0,0,0,.25.16Z"/>
              <path class="cls-10" d="M184.6,178.68a.53.53,0,0,0,.57.37.58.58,0,0,0,.51-.54.55.55,0,0,0,0-.31.58.58,0,0,0-.54-.61h-.07a.56.56,0,0,0-.54.45h0a.67.67,0,0,0,0,.2A.57.57,0,0,0,184.6,178.68Z"/>
              <path class="cls-11" d="M215.3,176h0a.53.53,0,0,0-.62.43v0h0a.72.72,0,0,0,0,.46h0a.54.54,0,0,0,.62.45h0c.32,0,.45-.26.47-.54v-.17A.6.6,0,0,0,215.3,176Z"/>
              <path class="cls-12" d="M219.55,227.8a3.08,3.08,0,0,0,1.8.44C220.81,228.12,220.4,227.52,219.55,227.8Z"/>
              <path class="cls-13" d="M228.31,228.52a4.75,4.75,0,0,0,1.79-.84A3.18,3.18,0,0,0,228.31,228.52Z"/>
              <path class="cls-14" d="M222.38,233.85a1.86,1.86,0,0,0,.45-1.3C222.76,233,222.18,233.28,222.38,233.85Z"/>
              <path class="cls-15" d="M227.26,233.53h0c.09.09.16.23.24.23a1,1,0,0,0,.33.18c-.1-.68-.54-.88-.9-1.16C227.05,233,227.1,233.28,227.26,233.53Z"/>
              <path class="cls-16" d="M117.6,243c.11-.42-.1-.83.47-1.15.05,0,.08-.1.13-.14h.22a1.81,1.81,0,0,0,.29-.75.09.09,0,0,1,0-.07h0a2.16,2.16,0,0,0,0-1,1.87,1.87,0,0,0-.17.31v-.11c-.12.41-.23.75-.32,1.08a1.28,1.28,0,0,1-.47.58c-.4-.34.07-.9-.4-1.25a6.33,6.33,0,0,0-.12.74C117.43,241.77,117.07,242.46,117.6,243Z"/>
              <path class="cls-17" d="M143.15,215.23,143,215h0a.63.63,0,0,0-.41-.3,1.47,1.47,0,0,0,.24.64c0,.17.13.26.29.34l.13.11h.19v-.06a.28.28,0,0,0,.09-.19A1,1,0,0,1,143.15,215.23Z"/>
              <path class="cls-18" d="M255.62,179.88a2.68,2.68,0,0,0,.34-1.41h0c.35-.32.24-.75.3-1.15v-.24a7.38,7.38,0,0,0,.52-2.31.84.84,0,0,1,.07-.44,7.06,7.06,0,0,0,.41-2.46,26.53,26.53,0,0,0,.27-5.77,9.76,9.76,0,0,0,0-1.08,7.54,7.54,0,0,0-.07-1.5h0a1.13,1.13,0,0,1,0-.26v-.65a24.37,24.37,0,0,1-.22-1.34,3.64,3.64,0,0,0-.2-1.39,1.27,1.27,0,0,0-.07-.48,1,1,0,0,1-.09-.34,1.68,1.68,0,0,0-.23-1h0V158a1.42,1.42,0,0,1,0-.58c-.05,0-.06-.09-.09-.13a.63.63,0,0,0-.14-.4h0v-.13a.27.27,0,0,0-.06-.24h0v-.17a.92.92,0,0,0-.17-.62c-.12-.44-.24-.88-.37-1.32a1.75,1.75,0,0,0-.14-.51c0-.16-.07-.26-.11-.38-.12-.4-.25-.8-.39-1.19-.48-1.48-1-3-1.59-4.4a.31.31,0,0,1,0-.12l-.22-.54c-1-2.48-2-4.94-3.08-7.39a.69.69,0,0,0-.13-.29l-.23-.54-.06-.14-2.64-6a2.72,2.72,0,0,0-.11-.25c-.54-1.28-1.11-2.57-1.65-3.85a39,39,0,0,1-3-11.78c-.12-1.54-.17-3.09-.14-4.63v-.72c0-.71.07-1.43.13-2.13a10.12,10.12,0,0,0,.33-2.57h0c0-.23.05-.46.09-.68a12.57,12.57,0,0,0,.38-2.09,1.8,1.8,0,0,1,.1-.46,7,7,0,0,0,.54-2.2,2.13,2.13,0,0,1,.13-.45.57.57,0,0,0,.13-.45c.05-.16.1-.33.14-.48l1.56-4.42c.2-.48.39-1,.59-1.43a.77.77,0,0,0,.15-.36l.06-.16a11.55,11.55,0,0,0,1.23-2.64h0c.1-.21.18-.41.28-.59l2.16-4h0c.27-.43.54-.87.77-1.3h0l.12-.25h0a1,1,0,0,0,.5-.63h0l.35-.58.24-.35a.67.67,0,0,0,.1-.28h0a.66.66,0,0,0,.3-.57h.06a.24.24,0,0,0,.15-.2l.08-.11L253,82h0a.61.61,0,0,0,.22-.54h0a2.35,2.35,0,0,0,.33-1.53h0a.6.6,0,0,0,0-.19,6,6,0,0,0-5.46-7.58,9.69,9.69,0,0,0-7.26,2.9A28.47,28.47,0,0,0,235.11,84a76.48,76.48,0,0,0-5.75,23.68c0,.47-.07.94-.09,1.41a.43.43,0,0,0,0,.16,8.65,8.65,0,0,1-.06,1.25v.73c0,.92-.06,1.84-.07,2.78v.14c0,1.77.05,3.54.15,5.32a30.75,30.75,0,0,0,.71,5.65,70.37,70.37,0,0,0,1.66,8c.1.36.22.72.32,1.08.34,1.33.73,2.66,1.18,4,.21.66.43,1.32.65,2a.65.65,0,0,0,.19.59h0c.06.16.12.32.17.48a3.22,3.22,0,0,0,.35,1c.07.21.13.42.21.63a1.11,1.11,0,0,0,.09.31c.07.21.13.41.22.62a2.9,2.9,0,0,0,.35,1c.15.39.31.79.45,1.2l.08.2c.18.5.37,1,.54,1.51a20.62,20.62,0,0,0,.84,2.19c.54,1.3,1,2.61,1.62,3.9.08.2.16.4.25.6v.07c.54,1.34,1.11,2.67,1.65,4a1.88,1.88,0,0,0,.35.88c.54,1.33,1,2.67,1.48,4a3.73,3.73,0,0,0,.32,1.08,9.07,9.07,0,0,1,.09,3.81,38.43,38.43,0,0,1-1.38,5.29,222.75,222.75,0,0,1-10.34,24.47,1.74,1.74,0,0,1-1.41,1c-2.31.54-4.64,1-7,1.55-.2,0-.41.1-.58-.06.25-.42.05-.92.15-1.39v-.08c.27-.2.25-.54.24-.84l-.07.05h0c.63-2.41,1.12-4.86,1.51-7.31a17.82,17.82,0,0,0,.68-3.61v-.16h0v.16a13.91,13.91,0,0,0,.62-3.31h0a3.57,3.57,0,0,0,.31-1.82h0a2.25,2.25,0,0,0,.28-1.52,27.77,27.77,0,0,0,.81-6,4.29,4.29,0,0,0-.29-2.21,26.48,26.48,0,0,0-.54-3.06c-.1-.34-.21-.68-.3-1a11.3,11.3,0,0,0-.68-2.26c-.17-.61-.35-1.21-.54-1.81-.29-1-.63-2-1-3-1.11-3.19-2.32-6.35-3.67-9.45a1.57,1.57,0,0,0-.87-1c-2.82-1.08-5.57-2.47-8.58-3-4.44-.8-8.89-1.49-13.34-2.22l-6.21-1a.94.94,0,0,1,.37-.29,11.77,11.77,0,0,0,2-1v0a21.45,21.45,0,0,0,2.7-1.28,9,9,0,0,0,1.79-.93l-.12-.14h0a.8.8,0,0,1,.15.17,2.2,2.2,0,0,0,1.22-.62h0a2.36,2.36,0,0,0,1.17-.61v-.15h.06a.67.67,0,0,0,0,.2,6.84,6.84,0,0,0,3.59-2.76h0a.75.75,0,0,0,.42-.57,10.27,10.27,0,0,0,1.78-4.22,2.46,2.46,0,0,0,.29-1.53h0a5,5,0,0,0,.27-2.43h-.14v-.07h.17a9,9,0,0,1,0-1.47v-.15a2.18,2.18,0,0,0,.19-1.33v-.07H207a.48.48,0,0,0,0-.29h0l.06-.31a2.66,2.66,0,0,0,.13-1.12c.06-.57.1-1.13.12-1.71a2.86,2.86,0,0,0,0-2.26,11.11,11.11,0,0,0-.09-1.16,5,5,0,0,0-.07-.54,23.76,23.76,0,0,0-.49-2.65,3.4,3.4,0,0,0-.39-1.56,31.65,31.65,0,0,0-4.42-10.08,12.21,12.21,0,0,0-7.24-4.93,17.89,17.89,0,0,0-8.42,0,23.7,23.7,0,0,0-5.81,2.24c-.37-.67-.71-1.29-1.08-1.92-3.33-5.94-7.75-10.76-13.95-13.77h0a1,1,0,0,1-.63-.82.49.49,0,0,1,0-.17h0a1.66,1.66,0,0,0,0-1.24h0a4.64,4.64,0,0,0-.19-2.06,15.19,15.19,0,0,0-1.08-4.2c-1.36,3.48-4.22,4.62-7.41,5.69,0-.09.13-.19.13-.28h-.09a2.18,2.18,0,0,0,.9-1.52v-.41l.13-.14v.54a.89.89,0,0,0,.31-1l-.24.25V80l.14-.14.1-.54a6,6,0,0,0-.42-3.56h0a.79.79,0,0,0-.13-.33c-1.73,2.7-4.32,4.35-7,5.85a1.68,1.68,0,0,1-.77.48,1.8,1.8,0,0,1,.33-.4,3.24,3.24,0,0,1,.34-.29v-.27h-.07a5.24,5.24,0,0,0,.72-4.74,10.87,10.87,0,0,0-.3-1.08h0a1,1,0,0,0-.28-.66l-.21-.5c-.57,2.78-2.28,4.51-4.29,6.06-.54.44-1.14.85-1.72,1.25a53.36,53.36,0,0,1-6.33,3.59,125.27,125.27,0,0,1-12.49,5.1,16.49,16.49,0,0,0-9.32,8.42l.23.1c0,.17.18.29.62.33a.31.31,0,0,0,.19,0h0l1.12.6a7.55,7.55,0,0,1,3.55,4.52c.09.35.16.7.23,1a14.09,14.09,0,0,1-.13,4.15,14.79,14.79,0,0,0-.47-1.47.47.47,0,0,0-.1-.2c-.05-.15-.12-.3-.18-.44l-.06-.14a13.92,13.92,0,0,0-6.13-6.13,44.67,44.67,0,0,0-4.81,10.72,4.66,4.66,0,0,0,.07,3.33.5.5,0,0,0,.08.2c0,.11.11.21.16.31l.17.29a6.18,6.18,0,0,1,.5.91h0c.12.54.21,1,.32,1.52H111a17.07,17.07,0,0,1,.17,3.71H111a1.35,1.35,0,0,1-.19-.38v-1.26a5.69,5.69,0,0,0-.65-2.83,1.43,1.43,0,0,0-.6-.91,4,4,0,0,0-.23-.34,11.35,11.35,0,0,0-.64,4.9c-1.21-.59-1.39-.69-1.53-1.42a43.77,43.77,0,0,1,0-4.86h0v-.27h0a3.1,3.1,0,0,0,.28-1.53h0a.28.28,0,0,0,0-.25h0a2.12,2.12,0,0,0,.29-1.23h0v-.05l2.12-6.28v0a4.68,4.68,0,0,0,.66-1.52h0a2.71,2.71,0,0,0,.54-1.24l-.08,0h0l.08,0a.81.81,0,0,1,0-.22h0a.89.89,0,0,0,0,.23l2-3.68h-.27c0-.07.06-.14.08-.21a21.56,21.56,0,0,0-4.78.89c-6.79,2.08-11.51,6-12.32,13.56a16.82,16.82,0,0,0,.7,7.52,12.35,12.35,0,0,0,1.08,2.26l.32.49.15.23c.16.23.31.49.5.72a2,2,0,0,0,.69.71h0a.66.66,0,0,0,.79.47c1.27-.19,2.54-.44,3.78-.75h.09l.11.06.1-.06a.44.44,0,0,0-.08-.11h0l.07.09h.9a.48.48,0,0,1,.12-.22H105l.43-.07a11.4,11.4,0,0,1-2.09,1.71A20.2,20.2,0,0,0,97,132a14.37,14.37,0,0,0-2.2,5.37,4.24,4.24,0,0,0-.15,1c0,.37-.06.73-.07,1.08a11.4,11.4,0,0,0,.6,4.92,1,1,0,0,1,.08-.14v.11h0a13,13,0,0,0,2.42,5.09.38.38,0,0,0,.15,0h-.22a3.85,3.85,0,0,0,1,1.45.53.53,0,0,1,0-.35.18.18,0,0,1,.05.07.66.66,0,0,0,0,.28,3.86,3.86,0,0,0,1.14,1.3.61.61,0,0,1,.12-.16h0a.47.47,0,0,0-.15.19,1.06,1.06,0,0,0,.59.65,2.35,2.35,0,0,0,.9.81.46.46,0,0,1,.33.32l.3-.23h0a2.43,2.43,0,0,1-.28.2,5.23,5.23,0,0,0,2.36,1.53h0a13.37,13.37,0,0,0,3.88,1.82.4.4,0,0,0,.16-.22h0a.31.31,0,0,1-.16.21,10.91,10.91,0,0,0,3.43,1.26l-.27-.35.62.17a15,15,0,0,1-2.56-9.14l.43.7a6.37,6.37,0,0,0,.93,2.33l.13-.13v.07l-.12.06a3.77,3.77,0,0,0,.73,1.69V154h.11l.1.12.08-.12h0l.06.12h-.24a2,2,0,0,0,.54,1.11h0a.62.62,0,0,0,.35.54l.25-.11.06.1-.19.08a5.1,5.1,0,0,0,.86,1.29,4.32,4.32,0,0,0,3,2.1c1,.15,2.13.24,3.13.37h.06l2.24.89h0a1,1,0,0,1,.18.4l-14.13,16.22.17.08c-.12.26.06.37.6.64l3.24,1.56h0l.33.21h0a4.2,4.2,0,0,0,1.43,1h0a13.73,13.73,0,0,0,2.23,1.8h0a2.33,2.33,0,0,0,.91.93l1.93,2.64a1.47,1.47,0,0,1,.5.65,1.48,1.48,0,0,1-.48-.45.29.29,0,0,1-.25-.25c-.4-.32-.8-.61-1.19-.94a37.69,37.69,0,0,0-11.59-6.79,15,15,0,0,0-9.11-.58,14.6,14.6,0,0,0-8.58,6.84,28,28,0,0,0-3.3,8.1c-.23,1-.44,1.89-.58,2.87h0a5.69,5.69,0,0,1-.82,1.7q-4.47,6-8.31,12.42c-.14.21-.27.42-.4.63-.89,1.52-1.77,3-2.61,4.59-.54.92-1,1.87-1.45,2.82l-.11.21c-.24.54-.47,1-.7,1.57a1.34,1.34,0,0,0-.07.18,1.67,1.67,0,0,0-.08.2h0l-.2.51a9.63,9.63,0,0,0-.91,2.45c-.06.17-.12.34-.17.51h0a1,1,0,0,0-.2.75h0a3.53,3.53,0,0,1-.13.54,12,12,0,0,0,1.7,10.15h0a6.12,6.12,0,0,0,1.78,2.16A12.24,12.24,0,0,0,75.72,240l.09-.14a1.94,1.94,0,0,1-.33-.37h.07a1.87,1.87,0,0,0,.29.34.37.37,0,0,0,.13-.12h0l-.11.09-.09.13a13.84,13.84,0,0,0,4.28,1.72l.06.13a2.17,2.17,0,0,0,1.2.37.21.21,0,0,0,0-.11,10.27,10.27,0,0,0,3.55.73.42.42,0,0,1,.1.17,15,15,0,0,0,5.18.24,6.15,6.15,0,0,0,2.45-.26h.12l.11-.07v-.17h.05v.14a19.94,19.94,0,0,0,6.7-1.75h0a2.59,2.59,0,0,0,1.52-.66h0a.64.64,0,0,0,.62-.31v-.15h0a.24.24,0,0,1,0,.12,22.2,22.2,0,0,0,2.61-2.7l.5-.54a2.14,2.14,0,0,0,.74-.84l.15-.16a30.49,30.49,0,0,0,2.16-2.38l.65-.74a2.66,2.66,0,0,0,.66-.72l.28-.32a.92.92,0,0,0,.42-.47c2-2.21,4-4.43,6-6.62a24.57,24.57,0,0,0,2.56-2.74l.77-.78c1.53-1.48,3.09-2.92,4.56-4.44a11,11,0,0,0,2.28-3l.31-.42a4.29,4.29,0,0,0,.81-1.24l.25-.38.29-.47a1.55,1.55,0,0,0,.4-.63,1.4,1.4,0,0,1,.1-.16,10.86,10.86,0,0,1,2.36-2.23v-.13h.1V208a10.24,10.24,0,0,1,1.44-.4l.64-.32.59.08h1.35c-3,.79-4.36,2.94-5.6,5.22a27.11,27.11,0,0,1-3.78,5.31c-6.42,7-12.93,13.95-19.44,21-1,1.08-1.92,2.11-2.77,3l.08.12c-.18.32-.08.6.24,1a14.59,14.59,0,0,1,2.31,4c.58,1.41,1.16,2.79,1.74,4.18h0a1.15,1.15,0,0,0,.3.92h0l.06.3a.51.51,0,0,1,.16.09c.07.24.15.47.22.71a.5.5,0,0,0-.17-.15,1.21,1.21,0,0,0,.31,1v-.36a4.17,4.17,0,0,1,.13.42h0l-.07.07a3.36,3.36,0,0,0,.54,1.59v-.06c.05.19.11.38.16.57a27.32,27.32,0,0,0,1,3.78l.12.43a1,1,0,0,0-.35-.22,1.15,1.15,0,0,0,.24.93h.32a.26.26,0,0,0,.12.28h0v.14l-.32-.16c-.06.51.27,1,.24,1.48l-7.09.89A18,18,0,0,0,91.7,270a14.44,14.44,0,0,0-3.14,5.68,2.88,2.88,0,0,0-.19.87,1.52,1.52,0,0,0,.12,1.42h0c.1,1.08.92,1.62,1.69,2.16a10.09,10.09,0,0,0,3.88,1.55.81.81,0,0,1,0-.22l.24.06a21.69,21.69,0,0,1-.34-3.78v-.37c.07-.42.17-.84.28-1.26a4.83,4.83,0,0,1,.54-1,1.18,1.18,0,0,1,.27-.23h0a1.93,1.93,0,0,0,.79-.65h.06l.07.07,6.68-4.81.54-.06h0l.91.59H104v.35c-.11.14-.28.26-.4.39a6.33,6.33,0,0,1-.71.57c-1.92,1.48-3.78,3-5.74,4.49a1.75,1.75,0,0,0-.6.64,1,1,0,0,0-.32,1.08,19.06,19.06,0,0,1,.19,2,6.33,6.33,0,0,0,.26,2.7.39.39,0,0,0,.2-.06h0a.37.37,0,0,1-.2.07,7.44,7.44,0,0,0,3.66.63v-.13h0v.13h.19a4.92,4.92,0,0,0,2.55.2v-.22h.23c-.12-.78-.22-1.48-.34-2.16a4.62,4.62,0,0,1,.7-3.5,23.07,23.07,0,0,0,1.85-1.85c.42-.38.84-.75,1.24-1.13a3.72,3.72,0,0,0,.47-.42l.6-.54h0a1.49,1.49,0,0,0,.81-.65v-.06a.36.36,0,0,0,.24-.25H109a.45.45,0,0,0,.25-.22h.09l.26-.26h1a1.17,1.17,0,0,1,.3.74h0a9.85,9.85,0,0,1-.85,1.08c-1.34,1.37-2.65,2.7-4,4a1.84,1.84,0,0,0-.59.83,1.26,1.26,0,0,0-.24.94c.1,1.1.2,2.22.2,3.32a.68.68,0,0,0,.57.76h.17a12,12,0,0,0,3.58-.18l.89-.07v-.16h0a.35.35,0,0,1,0,.18,1.26,1.26,0,0,0,1-.21l-.14-.12h0l.14.11a5.4,5.4,0,0,0,3.34-1.84h0a5.56,5.56,0,0,0,1-1.22,3.73,3.73,0,0,0,.23-.37l.28-.48c.08-.16.1-.18.15-.27a6.33,6.33,0,0,1,.81-1.16,23.72,23.72,0,0,1,3.44-2.26h0l.12-.13a.71.71,0,0,0-.1.14.72.72,0,0,0,.62-.3h0a3.81,3.81,0,0,0,1.48-.59h0a1.45,1.45,0,0,0,1.33-.93,1.57,1.57,0,0,0,.25-.5c.23-.76.51-1.51.79-2.27l.06-.19c.14-.38.28-.75.41-1.12a6.76,6.76,0,0,1,.42-1.05,10.71,10.71,0,0,1,1.72-2.13h0a2,2,0,0,0,.77-.63v-.07h.07v.11a5.25,5.25,0,0,0,1.71-1.11l0-.05h0a.24.24,0,0,0,.23-.07.61.61,0,0,1,.2-.19h0a.56.56,0,0,0-.24.22.6.6,0,0,0,.59-.28.58.58,0,0,0-.32,0h.1a.41.41,0,0,1,.22,0c.62-.28,1.43-.18,1.85-.88v-.15a.48.48,0,0,0,0,.17,1.45,1.45,0,0,1,.12-.42,1.66,1.66,0,0,0,.18-.65c.46-3.47.88-7,1.3-10.48v-.09l.69-5.89a39.22,39.22,0,0,0-.31-12.42c-.49-2.37-.83-4.79-1.23-7.18h0a.25.25,0,0,1-.12-.33h0a4.22,4.22,0,0,1-.1-.62c-.18-.72-.37-1.44-.54-2.16a.16.16,0,0,0-.07-.16l.14-.54a1.27,1.27,0,0,0-.12-.72l.25.22a1.27,1.27,0,0,1,0,.39l.23.22h0a1.27,1.27,0,0,0,.27.82v.14h0c-.1.54.4,1,.3,1.52l.9,2.47v-.08h0v.07a11.66,11.66,0,0,0,.87,2.7v.05h0a6.16,6.16,0,0,0,.66,2.34h0l.94,3.94h0a15.43,15.43,0,0,0,.57,2.7h0a27.76,27.76,0,0,1-.22,4.37,40.33,40.33,0,0,0-.54,4c-.12,1.31-.41,3-.63,4.54a9.59,9.59,0,0,0-.45,3h0q-.39,2.7-.78,5.43a4.84,4.84,0,0,0-.23,1.56l-.18,1.51h.07c0,.28.25.3.91.3s1.37-.2,2.24-.22c.63,0,.93-.24,1-.66a2.14,2.14,0,0,0,.23-.64c.43-2.35.89-4.69,1.33-7a3.28,3.28,0,0,0,.18-.88c.73-3.86,1.47-7.72,2.16-11.63,1-5.74,1.08-6.48,3.52-10.36a.61.61,0,0,0,.19-.29,1.91,1.91,0,0,0,.16-.27.13.13,0,0,0,.06-.09l.22-.34a1.56,1.56,0,0,0,.41-.64l.19-.29c1.28-2,2.6-4,3.92-6,.72-1,1.39-2,2-3l1.64-2.41a1.13,1.13,0,0,0,.49-.73l.35-.51a13.22,13.22,0,0,0,1.29-1.78l.89-1.29c.43-.58.84-1.16,1.22-1.76l1.29-1.87a1.06,1.06,0,0,0,.47-.68l.43-.6a1.85,1.85,0,0,0,.42-.61l.47-.67a3.71,3.71,0,0,0,.23-.32l.54-.76a2.34,2.34,0,0,0,.7-1l.37-.54a9.94,9.94,0,0,0,2-3,11.36,11.36,0,0,0,.57-1.35c.44-1.36.84-2.74,1.22-4.12a.21.21,0,0,0,0-.19c.16-.54.31-1.13.45-1.7a3.77,3.77,0,0,0,.14-.58c.33-1.33.64-2.65.91-4A146.48,146.48,0,0,1,176.21,170l.85-2.7h.34a3,3,0,0,0,.35-1,2.86,2.86,0,0,1-.06.58l-.15.32a7.9,7.9,0,0,0-.32,1.08h0v.08c-.08.31-.15.62-.22.93a3.25,3.25,0,0,0-.17.61h0a.84.84,0,0,1-.23.47,1.93,1.93,0,0,1,0,.34,1.15,1.15,0,0,1-.12.37c-.06.13-.06.5-.13.76l-.69,2.59c-.11.4-.22.81-.31,1.22l-.57,2.28a5.05,5.05,0,0,0-.31,1.26c-.13.49-.25,1-.37,1.46a13.46,13.46,0,0,0-.47,1.87c-.16.63-.31,1.25-.47,1.87a3.18,3.18,0,0,1-.13.51c-.38,1.49-.73,3-1.08,4.49a.51.51,0,0,1-.08.32c-.38,1.51-.73,3-1.08,4.54a5.82,5.82,0,0,0-.24,1l-.08.22h0l-.15.64a17.15,17.15,0,0,0-.88,3.61h0a.28.28,0,0,0-.14.3h0a.34.34,0,0,0,0,.28h0a34.08,34.08,0,0,1-4.17,9.07c-.24.35-.47.71-.7,1.08a1.41,1.41,0,0,0-.24.36q-2.85,4.39-5.74,8.73h0q-4.78,7.23-9.72,14.33a20.15,20.15,0,0,0-1.31,2.12,10.8,10.8,0,0,0-.78,1.46c-.15.37-.28.75-.41,1.13a20.84,20.84,0,0,0-.69,2.16c-.14.54-.27,1.08-.4,1.62-.09.35-.17.7-.25,1.08a3.86,3.86,0,0,0-.25,1,.45.45,0,0,1-.07.3h0a40.44,40.44,0,0,0-1.37,5.83,64.6,64.6,0,0,0-1.27,6.63c-.15.76-.29,1.51-.43,2.27a39.65,39.65,0,0,0-.89,4.72c-.24,1.22-.29,1.28-1.66,1.43a61.61,61.61,0,0,1-6.22.38,3.79,3.79,0,0,0-3.69,2.52,2.48,2.48,0,0,0-.47,1.51c-.06.61-.15,1.23-.25,1.84a22.58,22.58,0,0,1-.8,3.14,32.15,32.15,0,0,0-1.48,5.35c-.19.66,0,.91.82.91h2.42a1.24,1.24,0,0,0,1-.35,1.37,1.37,0,0,0,.54-.88c.57-1.69,1.29-3.34,1.91-5a.48.48,0,0,1,.09-.21,1,1,0,0,1,1.39-.24h0l.29.26h0v1.46c-.34,1.23-.72,2.46-1.14,3.67a2.83,2.83,0,0,0-.39,1c-.12.35-.25.69-.38,1a2.09,2.09,0,0,0-.13.35l-.29.78c-.17.45-.32.9-.48,1.36-.41,1.08-.8,2.16-1.16,3.28-.22.65-.44,1.31-.68,2l-.09.19v.2c-.26.43-.14.74.48.87h0a.58.58,0,0,0,.54.32h0a2.13,2.13,0,0,0,1.17.6h0c.23.15.46.29.7.42.62.3.9.44,1.08.32l.16.08c.18-.54.31-.9.45-1.28.31-.95.65-1.87,1-2.81.14-.31.25-.62.37-.93.5-1.29,1-2.57,1.62-3.84,0-.08.07-.16.11-.25.39-.86.79-1.71,1.21-2.55a8.43,8.43,0,0,1,.75-1.3,1.79,1.79,0,0,1,1.94-.67.82.82,0,0,1,.65.9,3.41,3.41,0,0,1-.1.54,17.65,17.65,0,0,1-.72,2c-1.57,3.78-3.16,7.56-4.75,11.38l.22.06v.25a8.25,8.25,0,0,0,5.33-.06l.13-.05.29-.09v-.13a3.21,3.21,0,0,0,.47-1.15c.08-.3.18-.59.26-.88s.27-.9.39-1.34c.26-.94.54-1.89.86-2.83a1.64,1.64,0,0,1,.14-.39c.26-.82.54-1.62.85-2.44.1-.26.2-.52.29-.78s.14-.38.22-.57a12.14,12.14,0,0,1,.7-1.51.77.77,0,0,1,.79-.39l-.36.2a2.19,2.19,0,0,1,1.17.34v.05a4.17,4.17,0,0,1-.1.6c-.06.2-.14.4-.2.6-1,3-2,5.94-3,8.93a2.49,2.49,0,0,0-.24,1.2h.09a.38.38,0,0,0,0,.15,19.86,19.86,0,0,0,3.66-1.28,3.09,3.09,0,0,0,1.32-.77h0a1.15,1.15,0,0,0,1-.6l-.11-.05h0l.09.05a.3.3,0,0,0,.17-.34,3.08,3.08,0,0,0,.3-.41l.31-.54c.65-1,1.27-2,1.84-3h0a9.51,9.51,0,0,0,1.24-2.11h0a10.92,10.92,0,0,0,1.49-2.38,2.93,2.93,0,0,0,.58-.91v-.11h0a3,3,0,0,0,.88-1.54h0c0-.23.09-.47.14-.7h0v-.17a1.13,1.13,0,0,1,0-.26l.27-1.43a2.22,2.22,0,0,0,.16-.88l.2-1a2,2,0,0,0,.08-.41l.21-1.11a1.85,1.85,0,0,0,.13-.61l.24-1.28a1.76,1.76,0,0,0,.07-.4c.28-1.45.54-2.91.8-4.36V267h0v-.34a4,4,0,0,1,.14-.77c0-.27.08-.39.11-.58a18,18,0,0,0,.49-2.2,36.86,36.86,0,0,1,2.8-7.46,9.44,9.44,0,0,0,1-1.75h0c.21-.36.58-.65.64-1.08.17-.26.32-.54.5-.78a.92.92,0,0,1,.26-.22h0a.63.63,0,0,0,.3-.54l.09-.13a.94.94,0,0,0,.46-.54h0c.31-.59,1-.95,1.17-1.62l.21-.28a1.53,1.53,0,0,0,.71-.85h0l1.66-2.13.8-.91a.39.39,0,0,0,.28-.3h0a1.17,1.17,0,0,0,.59-.63h0a.37.37,0,0,0,.22-.25v0h0v-.08l.59-.63,2.5-2.65h0v0l.62-.6v0h0a5.7,5.7,0,0,0,1.2-1.25h0a1.18,1.18,0,0,0,.54-.54l.1-.1a1.06,1.06,0,0,0,.62-.54,2.67,2.67,0,0,0,1-1.08l.76-.74.54-.4.23-.39c.12-.15.25-.29.38-.43a14.69,14.69,0,0,0,1.16-1.08c.12-.1.24-.22.37-.31a13.57,13.57,0,0,1-2,2.59c-.39.54-.77,1.08-1.18,1.57-3.55,4.39-7,8.84-10.57,13.15a31.66,31.66,0,0,0-5.57,10.21c-.69,2.12-1.28,4.26-1.84,6.41a1.18,1.18,0,0,0-.09.37c-.43,1.73-.83,3.47-1.18,5.23h0c-.46,2.29-.87,4.61-1.18,6.93a5.34,5.34,0,0,0,0,1.13v.09a.85.85,0,0,0,.09.54,4.54,4.54,0,0,0,.69,1.69c.09.16.2.31.3.47s.27.42.42.62.16.27.25.39a.59.59,0,0,0,.26.34l.18.24.25.4h0a1.51,1.51,0,0,0,.71.84c.65.79,1.34,1.54,2,2.26a24.91,24.91,0,0,0,3,2.62h0A17.83,17.83,0,0,0,169,292a8.93,8.93,0,0,0,4.7,1.75,5.21,5.21,0,0,0,2.83-.54,2.14,2.14,0,0,0,1.08-.72l.09-.07h0l.33-.31h0a1.74,1.74,0,0,0,.65-.86.85.85,0,0,1,.11-.26,5.26,5.26,0,0,0,.48-1.21,5,5,0,0,0-1-4.14c-.54-.66-1.08-1.28-1.62-1.91a14.3,14.3,0,0,0-2.16-2.31c-.35-.36-.68-.73-1-1.08a2.94,2.94,0,0,1-.72-.81.49.49,0,0,1,.08-.21h4.38l3.11.12a1.23,1.23,0,0,0,.54.13h7.64c.9.11,1.8.18,2.7.2a2.44,2.44,0,0,1,.54,0,6.57,6.57,0,0,1,2.48,1.4.31.31,0,0,0,.22.18l.15.17.54.72h0a19.24,19.24,0,0,0,3.48,4,4.86,4.86,0,0,0,1.14.77.56.56,0,0,0,.17.09l.29.15a2.79,2.79,0,0,0,3,.21h0a.63.63,0,0,0,.6-.28.47.47,0,0,0,.29-.26h0a2.23,2.23,0,0,0,1.08-2.7v-.18c-.05-.23-.11-.46-.17-.69a1.06,1.06,0,0,0-.12-.5c-.06-.28-.13-.57-.21-.85a7.74,7.74,0,0,0-.47-1.71,1.65,1.65,0,0,0-.11-.36,6.38,6.38,0,0,0-.75-2.28l-.19-.54a4.9,4.9,0,0,0-.54-1.16,6.14,6.14,0,0,0-.54-.72,3.24,3.24,0,0,0-.36-.38h0l-.23-.19a5.52,5.52,0,0,0-1.9-1.08,22.38,22.38,0,0,0-4.43-1H194a.65.65,0,0,1-.36-.18,41.22,41.22,0,0,1,7.45-.29h.19a5.68,5.68,0,0,0,1.67.46h0l.68.35.32.25a12.06,12.06,0,0,1,1.58,2.19c.19.4.36.81.54,1.23a2.12,2.12,0,0,0,.09.31c.12.33.24.65.33,1a33.08,33.08,0,0,1,.68,3.29,2.27,2.27,0,0,0,.12.82c0,.42.09.84.13,1.27s0,1,.68,1a15.18,15.18,0,0,0,1.65-.07,4.72,4.72,0,0,0,3.24-1.32,5.43,5.43,0,0,0,.81-.85,2,2,0,0,0,.39-1.83c-.32-1.26-.61-2.54-.88-3.81a1.63,1.63,0,0,0-.09-.45c-.21-1-.4-2-.54-3a2.77,2.77,0,0,0-1.47-2.13,27.18,27.18,0,0,0-4.75-2,3,3,0,0,1-1.39-.62H207v.12h.9a4.44,4.44,0,0,0,1.36.05h.25a4.53,4.53,0,0,0,1.9.23,3,3,0,0,1,2.21.63h0a3.57,3.57,0,0,0,.54,1.21,1.84,1.84,0,0,0,.13.37,15.38,15.38,0,0,0,.54,1.62c.47,1.43.83,2.9,1.18,4.42a1.39,1.39,0,0,0,.2.87c.13.54.27,1.13.41,1.7l.3-.22a2.3,2.3,0,0,0,.66-.34,7,7,0,0,0,2.4-2.62,7.09,7.09,0,0,0,.65-1.29,2.17,2.17,0,0,0,.22-.65.49.49,0,0,1,0-.17h0a4.72,4.72,0,0,1,.1-.64,4.59,4.59,0,0,0,.07-2.24,3.35,3.35,0,0,0-.05-.71,5.73,5.73,0,0,0-.37-2,14.29,14.29,0,0,0-2.42-5,5.2,5.2,0,0,0-5.68-2.23c-5,.91-10,2-15,3.08a1.58,1.58,0,0,1-1.17,0l.47-.31,1.85-1.79h0a.33.33,0,0,0,.28-.27h0a2.7,2.7,0,0,0,1-.82h0a19.91,19.91,0,0,0,2.16-1.85h0a1.42,1.42,0,0,0,.79-.57h0a18.17,18.17,0,0,0,2.2-1.8H205l.07-.05h0a.22.22,0,0,0,.18-.1h0l1.57-1.17h0l.32-.23h0a.66.66,0,0,0,.51-.36h0a3.59,3.59,0,0,0,1.25-.86h0a5.77,5.77,0,0,0,1.62-1l.69-.4.21-.12.62-.36a1.51,1.51,0,0,0,.77-.45h.06a.35.35,0,0,0,.24-.08h0a.32.32,0,0,0,.26-.15l.2-.11a3.66,3.66,0,0,0,1.33-.61h0a21.46,21.46,0,0,0,3.64-1.69v-.14h0v.14a16.51,16.51,0,0,0,2.8-1.45h0a9.52,9.52,0,0,0,2.34-1.23h0l.14-.07v.11a40.17,40.17,0,0,0,5-2.68h-.1a10.3,10.3,0,0,0,1.91-1.08v-.07h0v.11a1.23,1.23,0,0,0,.7-.43l-.08,0L232,242a36.72,36.72,0,0,0,4.4-2.62v-.06h0v.1a.84.84,0,0,0,.59-.33h0l1.5-1h0a.14.14,0,0,0,0,.09,4.84,4.84,0,0,0,1.57-1.08h0v.06a22.66,22.66,0,0,0,3-2.16.11.11,0,0,1,0-.08h0a.11.11,0,0,0,0,.08.71.71,0,0,0,.54-.4h-.1a.2.2,0,0,1,.11,0h0a16.44,16.44,0,0,0,2.77-2.08v-.06c.66-.25,1-.94,1.62-1.37h0a.72.72,0,0,0,.47-.4,7,7,0,0,0,1.26-1.24v-.11h0v.1a1.17,1.17,0,0,0,.58-.62h0l.24-.24a.23.23,0,0,0,.12-.2h0a5.64,5.64,0,0,0,1.52-1.91h0a15.08,15.08,0,0,0,2.52-6.08c.16-.66.3-1.32.41-2a1.82,1.82,0,0,0,.16-.31,25.35,25.35,0,0,0-.25-9.47,3.41,3.41,0,0,0-.78-1.74,4.42,4.42,0,0,0-.93-1c-2.07-1.54-4.07-3.2-6.08-4.81l-.41-.36c-.27-.41-.13-.68.35-1.59a11.12,11.12,0,0,0,1.14-1.87h0a2.13,2.13,0,0,0,.52-.94h0l.07.07a.6.6,0,0,0,0-.19l.1-.21a1.84,1.84,0,0,0,.44-.78l.06-.11a4.07,4.07,0,0,0,.88-1.62h0a.71.71,0,0,0,.3-.63h0a.82.82,0,0,0,.29-.6,6.67,6.67,0,0,0,1.18-2.46h0a36.61,36.61,0,0,0,2.19-5.75v-.06h0V184a.68.68,0,0,0,.23-.66h-.06c-.06,0,0,0,0-.06h0a1,1,0,0,0,0-.24h0a.62.62,0,0,0,.26-.64l.6-2.12h0Zm-86.1,29.88c.19-.13.38-.24.58-.35h.06a3.26,3.26,0,0,1,.62-.22h.07a5.78,5.78,0,0,1,.57-.12h0a1.29,1.29,0,0,1,.48,0h.1c.16.13.17.42.17,1a9.16,9.16,0,0,0,.45,2.54c.16.57.54-.27.91.15.06.1-.11.24-.22.4a1,1,0,0,0-.25.38.31.31,0,0,0,0,.19.4.4,0,0,0,.12.27h0a.57.57,0,0,0,.5.12h0c.33,0,.17.2,0,.37h0a.18.18,0,0,0,0,.2v.08c.07.43.32.54.85.3v1A.55.55,0,0,0,175,216a2.09,2.09,0,0,0,.49-.35h0c.31.38-.58.79-.08,1.13a.34.34,0,0,0,0,.2c.49.07.68-.28.89-.61,0-.06.06-.1.08-.15l.07-.05a.76.76,0,0,0-.09.18h.26c0,.34-.36.62-.37.9s.06.39.2.4h.11a.55.55,0,0,0,.44-.31.28.28,0,0,1,.15.26l.09-.09v.1l-.08.08a.16.16,0,0,0,.08.17V218c.11.2.18.25.33.16.33,0,.45-.35.6-.6h.33c.23.06.23.24.26.4a1.24,1.24,0,0,1-.24.47.91.91,0,0,0,.13.26h0a.15.15,0,0,0,.14.15H179a.48.48,0,0,1,.08-.28h0a.48.48,0,0,0-.08.28.49.49,0,0,0,.31-.54c-.07,0-.1.1-.16.15h0c.06,0,.09-.12.16-.15a.62.62,0,0,0,.07-.23h0c.07-.1.16-.25.24-.38h0a.17.17,0,0,1,0-.1.3.3,0,0,1,.08-.08l.14.11a6,6,0,0,1-.13.74,1.13,1.13,0,0,0,0,.26.41.41,0,0,0,.15.54l.16.08a.47.47,0,0,0,.54-.31h0a.67.67,0,0,0,0-.2h0c.36,0,.25.51.6.64h0c.54.27.57-.06.59-.38.23-.08.44,0,.71.29.1.12.45,0,.54-.21l.25-.11h0a.55.55,0,0,1,.31,0h.6v-.12h0v.15c.46,0,1,.08,1.22-.6l-.13-.06h.09a.82.82,0,0,1,0-.44.26.26,0,0,1,.08-.13l.17.21h0c.27.41.49.06.49-.11a.86.86,0,0,1,.18-.49,3,3,0,0,0,.54-.1,2.68,2.68,0,0,0,.49.11,1.07,1.07,0,0,1,.14.16l.15.27c.1.24.18.48.26.72a3.26,3.26,0,0,1,.06.88,3.61,3.61,0,0,1-.07.73,4.62,4.62,0,0,1-1.24,2.08,3.54,3.54,0,0,1-3.7.57,1.25,1.25,0,0,0-.46-.12c-.24-.21-.5-.37-.74.1a1.51,1.51,0,0,0-.45.29,6.39,6.39,0,0,1-2.53,1.08h-2.33a2.15,2.15,0,0,1-.6-.13,7.61,7.61,0,0,1-3.84-2.34h0a6.34,6.34,0,0,1-.62-.91v-.05a5.47,5.47,0,0,1-.56-1.62,1.31,1.31,0,0,0-.06-.27c0-.31-.06-.62-.07-.93a4.38,4.38,0,0,0,.14-.87v-.07a.63.63,0,0,0-.29-.54,1.06,1.06,0,0,0-.45-.39,4.24,4.24,0,0,1-.74-.54,2.79,2.79,0,0,1-.32-.28l-.19-.21-.09-.11a2.34,2.34,0,0,1-.29-.41l-.06-.1a3.6,3.6,0,0,1-.08-2.93,4.23,4.23,0,0,1,.23-.41,1.17,1.17,0,0,0,.38-.5l.1-.11a3.39,3.39,0,0,1,.54-.45ZM95.14,234.24a3.13,3.13,0,0,1-.31,2.73l-.28.35a5.57,5.57,0,0,1-7.85.65,3.44,3.44,0,0,1-.69-1l-.07-.15c0-.13-.09-.26-.13-.39V236c.71.34,1.17,1,1.86,1.34l.49.25a1.22,1.22,0,0,0,.69.24h0a1.83,1.83,0,0,0,1.84,0h0a2.39,2.39,0,0,0,1.86-1.59,1.55,1.55,0,0,0,.08-.36c.07-.29,0-.54-.54-.74a2.89,2.89,0,0,1-.67-.36l-.11-.08,0-.12c-.62-.66-.39-1.36.67-2.27h.34l.09-.09h0a.2.2,0,0,0-.09.09h1a3.5,3.5,0,0,1,1.66,1.4l0,.1A3.06,3.06,0,0,1,95.14,234.24Zm8.5-130.89h0a1.7,1.7,0,0,0-.45.15h2.73l.47.09a2.09,2.09,0,0,1,.86,1.25,27.69,27.69,0,0,1-4.46-1.28l.41-.06A2.28,2.28,0,0,1,103.64,103.35Zm40.63,160.56a10.85,10.85,0,0,0,.65-3.52,4.17,4.17,0,0,1,.49-2.19,1,1,0,0,1,.16.26,19.12,19.12,0,0,1-.16,3.78,7.39,7.39,0,0,0-.18,2.39,1.4,1.4,0,0,1-.12.88c-.13.23-.31.46-.54.46a.66.66,0,0,1-.57-.45.33.33,0,0,1,0-.14,3.25,3.25,0,0,1,.33-1.5v-.07h0l.06-.18Zm33.3-84.17a5.17,5.17,0,0,1-.17-1.36,7.19,7.19,0,0,1,.88-3h0l1.52-1.54h0a2.37,2.37,0,0,0,.95-.54h0l.06.08h.27a2.15,2.15,0,0,0,2.16-2.16h0v0a.72.72,0,0,0,.3-.46l.09-.1.2-.23h0l1.49-.92h0l.25-.07h1.57a2.13,2.13,0,0,1,.43.13,1,1,0,0,0,.38.16,4.08,4.08,0,0,1,.81.54l.25.26c.11.13.22.27.32.41l.34.44a.84.84,0,0,0,.35.46h0l.51.61h0c.15.18.3.34.46.51h0l.42.46a7.91,7.91,0,0,0,3,2.33h0l.6.33c.1,0,.1,0,.1.07a2.13,2.13,0,0,1,.42.23,5.23,5.23,0,0,1-2.38-.31,9.52,9.52,0,0,0-4-.2,2.75,2.75,0,0,0-1.46.66.86.86,0,0,0-.46.54h0a.61.61,0,0,0,0,.19,2,2,0,0,0,1.22-.5l-.1-.1h0l.1.1a8.36,8.36,0,0,1,4.41-.08H193a1.73,1.73,0,0,0,.9.3l.2.08a.44.44,0,0,1,.1.22,32.71,32.71,0,0,0-7.84,5.33,5.5,5.5,0,0,1-7.75-.73h0a5.63,5.63,0,0,1-.48-.72c-.19-.47-.39-.94-.58-1.4Zm-63.4,16.63h0v-.06h0Zm-28.81,9.91c-.37,0-.33-.3-.31-.54.16-.58.3-1.17.41-1.76h.34v.11a6.58,6.58,0,0,0-.15,1.66C85.61,206,85.8,206.32,85.36,206.28Zm.18,10.12h.15a.12.12,0,0,0,.16,0H86a.53.53,0,0,0-.25,0,.91.91,0,0,0,.67.28.61.61,0,0,0-.12-.16l.17.11h0c.41.48.83,1,1.24,1.49h0a.36.36,0,0,0,.26.34l1.62,2.79a17.43,17.43,0,0,1,.67,1.66h0a30.55,30.55,0,0,1-5.34-4.21,1.79,1.79,0,0,1-.58-1v-.5h.06l.54-.58a1.1,1.1,0,0,0,.64-.26.42.42,0,0,0-.27,0,.86.86,0,0,1,.21.07Zm-6.33-8.5a.87.87,0,0,1,.67-1.05.82.82,0,0,1,.76.19h0a.84.84,0,0,1,.14.51.89.89,0,0,1-.87.85.85.85,0,0,1-.68-.36.61.61,0,0,1-.07-.14Zm29.91,1.78.39-.31a15.43,15.43,0,0,1,3-2.46c.36-.25.82-.38,1-.85v-.13h0v.19l.54-.59h0c.77-.15,1-.17,1.08.25a1.23,1.23,0,0,1-.19.64c-.17.24-.41.6-.66.6-1.69.3-2.77,1.59-4.11,2.46a4,4,0,0,1-1.37.75.66.66,0,0,1,.11-.35.91.91,0,0,0,.2-.19Zm9.72,2a1.24,1.24,0,0,1-.74,1.08c-1.65.54-2.65,2-3.92,3-.36.3-.61.81-1.18.89,0-.3.35-.5.35-.77h-.07l.09-.13a5.17,5.17,0,0,0,1.08-1.16h0a17.86,17.86,0,0,0,2.16-2h0a7.39,7.39,0,0,0,.54-.61h0a.44.44,0,0,0,.26-.34h0a4.68,4.68,0,0,1,.54-.3.6.6,0,0,1,.71.07,1,1,0,0,1,.18.31ZM103,229.58a.91.91,0,0,1-.87.88,1,1,0,0,1-.78-.51.8.8,0,0,1,.23-.82,3.55,3.55,0,0,1,.76-.43c.19.19.47.25.61.49a1.09,1.09,0,0,1,.07.4ZM113.32,211a5.28,5.28,0,0,0,1.73-1.42,2.48,2.48,0,0,1,.67-.58.54.54,0,0,1,.62,0c.31.31.12.69-.08,1a1.21,1.21,0,0,1-.42.42c-2.11.66-3.42,2.43-5.11,3.66l-.48.24c.72-1.6,2.06-2.27,2.94-3.35h0Zm-30.78,9.5a.35.35,0,0,0,.18.16l.06,0h0l.07.1a1.47,1.47,0,0,0,.45.57l.44.54h0a3.15,3.15,0,0,0,.67,1,19.55,19.55,0,0,1,1.87,3.71h0a30.48,30.48,0,0,1-2.79-1.9l-.66-.54c-.71-.58-1.4-1.19-2-1.83a2.41,2.41,0,0,1-.41-.54c0-1.5.54-1.88,2.08-1.47h0v.07Zm-5.94,4.92a2.08,2.08,0,0,1-.14-.89,1,1,0,0,1,.06-.41c1.08-1,1.69-1.08,2.31-.08.19.39.37.77.54,1.17s.36.83.51,1.25c.63,1.68,1.15,3.43,1.71,5.36a.44.44,0,0,1-.12.38,12,12,0,0,1-3.42-3.68,12.87,12.87,0,0,1-1.46-3.12Zm22.92-7.53a1.12,1.12,0,0,1,0,.63.84.84,0,0,1-.76.48h-.07a.85.85,0,0,1-.73-.38,1.2,1.2,0,0,1,.44-1l.07-.2h.68a.91.91,0,0,1,.37.45Zm-22.41-1.26a.94.94,0,0,1,.07.34h0v.12a.8.8,0,0,1-.88.71h0a.78.78,0,0,1-.37-.13c-.37-1-.25-1.17.82-1.45Zm37.37-14.69a.34.34,0,0,0-.08-.09,2.48,2.48,0,0,1,.06.54.22.22,0,0,1-.08.2c-.18.37-.42.81-.84.81-1.66.13-2.82,1.29-4.18,2a3.34,3.34,0,0,1-1.22.61.5.5,0,0,1,.1-.31,4.15,4.15,0,0,1,1.08-1c1.29-1,2.89-1.59,4.09-2.74.26-.26.65-.18,1-.12h0A.41.41,0,0,1,114.48,201.93ZM96.21,189.69h0c.73-.36,1.41-.77,2.16-1.08a36,36,0,0,1,9.63-2.34h.68a14.11,14.11,0,0,1,3.53.6,23.67,23.67,0,0,1-3.12.54,29.36,29.36,0,0,0-17.67,11l-1,1.31h0a2.46,2.46,0,0,1-.88,1.11,2.85,2.85,0,0,1,.57-1.14l.63-1.82h0v-.06c.91-1.69,1.85-3.38,2.76-5.09h0a2.58,2.58,0,0,0,.84-1.21l.1-.14A12.94,12.94,0,0,0,96.21,189.69Zm51.4,31.71.13.1a1.12,1.12,0,0,0,.26.22c.12.09.23.19.34.29a2.48,2.48,0,0,0,.3.25h0c.13.11.25.34.07.49s-.37.07-.54-.09l-1.34-1.46C147.25,221.17,147.42,221.4,147.61,221.4ZM124.56,260a5.9,5.9,0,0,1-.31,1,1.3,1.3,0,0,1-1.5.7,1,1,0,0,1-.54-.54,2,2,0,0,1,.08-1.15c.3-1.08.54-2.16.84-3.24.1-.31.22-.61.33-.91a.29.29,0,0,0,0-.13c.23-.62.48-1.22.76-1.81l.25.15a10.74,10.74,0,0,1,.27,4.91,4.41,4.41,0,0,0-.15,1Zm-9.45-13h0a.27.27,0,0,1,0,.3l-.11.08c-.09.13-.16.27-.33.29v-.09l.18-.33a1.55,1.55,0,0,1,.24-.27Zm-.28-8.58a2.76,2.76,0,0,1,.08-.27,2.64,2.64,0,0,1,.18-.38h0l.25-.21h.07a.82.82,0,0,0,.54-.32h0l.23-.07h2.16a2.29,2.29,0,0,1,1.71.72,1.78,1.78,0,0,1,.13,1.88,14.26,14.26,0,0,1-2.33,3.65c-.14.28-.37.16-.46,0-.3-.33-.57-.69-.84-1a.52.52,0,0,0-.06-.16l-.29-.4a.57.57,0,0,1-.13-.08c-.32-.45-.63-.91-.9-1.38a1.91,1.91,0,0,1-.24-.41,3.13,3.13,0,0,1-.13-1.36s0-.21.06-.23Zm-.21,9.46a.81.81,0,0,1,0,.22c-.2.28-.32.68-.85.54h0a.31.31,0,0,1,.09-.11h0l.06-.08c.23-.24.42-.54.73-.61Zm1.23-.67a7.87,7.87,0,0,1,.82-1.08.83.83,0,0,1-.28.9c.06.21-.13.49.19.64.18-.37.21-.84.57-1.08.44.18,0,.66.35.89h0a1.25,1.25,0,0,0,.09.25,1.83,1.83,0,0,0,.16-.62c0-.26,0-.56.28-.68.19.52.38.94.61,1.51.28-.79-.3-1.26-.3-1.86-.48-.78-1-.44-1.52-.13a1.44,1.44,0,0,1,.4-.77c.38-.58.72-.35,1,0l.19-.22h0l-.2.22.49,1.2a6.13,6.13,0,0,1,1.17,2.32.57.57,0,0,0,.07.34,2.91,2.91,0,0,1,0,.59,1.77,1.77,0,0,1-1.95,1.54l-.76,0a1.61,1.61,0,0,1-.69,0,2,2,0,0,1-1.25-1.11,4.75,4.75,0,0,1,.54-2.89Zm6.22,1v.12c-.81,0-1.08-.18-1.86-1.41a.57.57,0,0,1,.54.29l.58.37a4.07,4.07,0,0,1,.76.61Zm-6.57,12.72c.14,1-.4,1.57-1.22,1.43a.8.8,0,0,1-.81-.76c0-2-.23-4.08.67-6,.12.32.23.64.34,1a.64.64,0,0,0,.08.3c.24.77.44,1.54.61,2.34a5.41,5.41,0,0,0,.12.58,7,7,0,0,1,.24,1.08Zm6.13-21.06-.15.14-.94.77c.45-.65.61-.77,1.12-.94Zm-2.7,3.92a3.79,3.79,0,0,1,1.6-1.16,3.47,3.47,0,0,1,3.64-.66h0a.34.34,0,0,0,.24.09h0l.45.4a2.09,2.09,0,0,1,.21.54,19,19,0,0,1,.05,2,1.38,1.38,0,0,1-.1.4,1.68,1.68,0,0,1-1.66,1.18,4.41,4.41,0,0,1-2.3-.59,3,3,0,0,1-1.77-1.14c.69,0,1.15.54,1.75.77.2-.17.34-.3,0-.44s-.75-.21-.93-.7l2.16-.32c-.83-.35-1.37,0-1.84-.3.08-.63.82-.46,1-.8s-.19-.19-.31-.26c-.45.31-1,.67-1.35.94s-.7.54-.61,1.05a.7.7,0,0,1-.22-.94v-.06Zm.1,18.12h-.27a1,1,0,0,1-.74-.41.24.24,0,0,0-.06-.11,1.05,1.05,0,0,1-.13-.54v-1c.1-1.23.17-2.42.26-3.62l.18-.84a1.06,1.06,0,0,1,.32-.28c.44.54.36,1.15.54,1.67a18,18,0,0,1,.9,3.82.81.81,0,0,1,0,.22,1,1,0,0,1-.91,1.08H119Zm-4.29-20.52c-.49-.36-1.19-.57-1.53-1.42v0h0v-.1a.12.12,0,0,0,.08.1h.17c.72.3,1,.94,1.32,1.45Zm-29-38.27h0a.31.31,0,0,0,0,.1h0Zm4.79,5c-.15,0-.26-.19-.51-.6h0l-.22-.46-.41-1.23a1.43,1.43,0,0,1,.06-.54A43.66,43.66,0,0,1,96,197.64h0a.37.37,0,0,0,.28-.22h0a6.54,6.54,0,0,0,1.5-1l0-.14h0a.25.25,0,0,1-.06.18c.46,0,.83-.4,1.31-.49l.09.05h0c-3,4-6.12,7.85-8.71,12.1ZM183.6,107.86a29.49,29.49,0,0,1,3-2.7h0l1.79-1h0a.43.43,0,0,0,.27-.08l.08-.06a.25.25,0,0,0,.16-.1l.1-.06h0a1.64,1.64,0,0,0,1.15-.32h0a.39.39,0,0,0,.3,0,.11.11,0,0,0,0-.08h0a.09.09,0,0,1,0,.07h3.64a2.73,2.73,0,0,0,1.2.38h0a21.21,21.21,0,0,1,3.38,2.34l.26.31c.23.31.48.62.7.94h0a.61.61,0,0,0,.29.47h0l.06.1a1.49,1.49,0,0,0,.31.63c.09.18.18.38.26.58v.23h0a1.7,1.7,0,0,1,.39,1.24l-.74-1c-2.37-2.12-4.32-3.11-6.61-3.32l.15.17a2.41,2.41,0,0,0-.38,0l1.25,1.08.06.09a.39.39,0,0,0,.13.2c.11.17.23.33.33.51.24.5.46,1,.66,1.51a7.84,7.84,0,0,1,.29.94,2.25,2.25,0,0,1,0,1.69,2.11,2.11,0,0,0-.16-.34,4.36,4.36,0,0,0-1.39-1.84l-.17-.15-.18-.14a12.38,12.38,0,0,0-4.42-2.51c.11.13.2.27.31.4h0l.92,1.32a16.86,16.86,0,0,1,1.55,5.15.45.45,0,0,1-.07.28c-.5-.22-.65-.68-.92-1a8.31,8.31,0,0,0-3.24-2.51c-1.36-.54-2.16-.11-2.51,1.3a12.68,12.68,0,0,0-.24,3.48v.45a27.59,27.59,0,0,0,0,3.15v.65a1.72,1.72,0,0,0,.22,1,.87.87,0,0,0,.1.31c.07.31.15.63.25.94a8.29,8.29,0,0,1,.25.85c.12,1.08-.34,1.32-1.78,1.2-1-.09-2-.3-3-.43s-2-.23-2.63.71a2.57,2.57,0,0,0-.28.89.74.74,0,0,0,0,.21,2.49,2.49,0,0,0,.42,1.57,3.6,3.6,0,0,0,.72,1.24h0l.21.3a5,5,0,0,0,1.59,1.66l.33.25a.44.44,0,0,0,.28.22h0a.88.88,0,0,0,.64.54v-.16h0v.15a.35.35,0,0,0,.24.1v-.08h0v.08a2.45,2.45,0,0,0,1.55.64h0a2.14,2.14,0,0,0,2.08-.13v-.12h0v.13a4.5,4.5,0,0,0,2.19-2.7h0a5.09,5.09,0,0,0,.88-2.5v-.12c.49-.47.06-1.32.72-1.73.46.08.61.54.89.87a1.21,1.21,0,0,0,.11.3,1.09,1.09,0,0,0,0,.36v.2c.34,2.81-2.1,6.61-4.79,7.44a5.76,5.76,0,0,1-3.86-.27,13.7,13.7,0,0,1-6.54-5.6,4.68,4.68,0,0,1-.59-1.4,3.2,3.2,0,0,1,.54-2.08h0l1.08-.93h0a9.54,9.54,0,0,0,2.16-1.79h0v.11h.07a7,7,0,0,0,2.29-2.07h0l.07-.08v.12a1,1,0,0,0,.62-.63h0a1.27,1.27,0,0,0,.54-1l.06-.27h0a.4.4,0,0,0,0-.49,2.16,2.16,0,0,0-.42-1.17,8.4,8.4,0,0,1-.51-.93,6.75,6.75,0,0,1-.76-2.7,7.7,7.7,0,0,1,.41-2.7.08.08,0,0,1,0-.07.18.18,0,0,1,.07-.18,4.73,4.73,0,0,1,.33-.68h0l1-1.62h0Zm32.12,52.6v.21a1.19,1.19,0,0,0,0,.7.91.91,0,0,1-.07.14c-.1-.06-.22,0-.41.11h-.05a1.54,1.54,0,0,1,.52-1.16ZM233.59,206a.35.35,0,0,0-.13.11h6.09a10.38,10.38,0,0,1,4.53,1.82l.06.08h0l1,1.51a5.81,5.81,0,0,1,.28,1.94v.16a3.91,3.91,0,0,1-.11,1.13,11.32,11.32,0,0,1-1.76,4.71c-.07-.43.06-.9-.19-1.31a4.12,4.12,0,0,0-.07-.93,8.68,8.68,0,0,0-.74-2.78,1.07,1.07,0,0,0-.23-.45,8.86,8.86,0,0,0-5.88-4.59,16.6,16.6,0,0,0-6.19-.58h0c-.18-.14-.54,0-.63-.21a6.21,6.21,0,0,1,1.72-.18l2.11-.37.07-.06Zm-11.43,29.74a1.84,1.84,0,0,1-1.15-.41,2,2,0,0,0-.71-.85c-.12-.17-.23-.36-.34-.54a1,1,0,0,1-.16-.35,3.6,3.6,0,0,1,.1-1.08,6.15,6.15,0,0,1,1.26-1.77,2.76,2.76,0,0,1-3-1.93,6.31,6.31,0,0,1,.54-1.78,2.32,2.32,0,0,1,.13-.37,4.38,4.38,0,0,1,.28-.42c.46-.54,1.31-.6,2.7-.27a5.83,5.83,0,0,1,.91.58v-.07a5,5,0,0,1-.29-1,2.91,2.91,0,0,1,.3-1.69l.64-.66.22-.12a2.34,2.34,0,0,1,.59-.23,1.7,1.7,0,0,1,.43.11,0,0,0,0,0,0,0h.3a2,2,0,0,1,2.27,1.08,3.89,3.89,0,0,1,.13,2.24h0a1.43,1.43,0,0,1-.09.41,4.57,4.57,0,0,1,1.16-.71,3.07,3.07,0,0,1,1.21-.19c.76.19,1.16.86,1.62,1.46h0c.54.46.36,1.08.42,1.7V229h0l-.09.21a3.17,3.17,0,0,1-2.42,1.5.32.32,0,0,0-.27,0l-.26.05.18.14c-.07.29.29.36.49.51l.09.06a2.44,2.44,0,0,1,.32.4h0a2.29,2.29,0,0,1,.39,1.12,3.3,3.3,0,0,1-.07.77c-.06.18-.12.35-.19.52a2.55,2.55,0,0,1-1.13,1.12l.14-.11h0a.27.27,0,0,0-.26.17,2.46,2.46,0,0,1-1,.25c-1.43,0-2.16-.94-2.61-2.38l-.14.35h0l-.26.6a2.57,2.57,0,0,1-2.39,1.42Zm-54.71,22.74.08.09.34.51a3.06,3.06,0,0,0,.45.88h0a4.71,4.71,0,0,0,.58,1.37c.14.33.28.67.41,1h0a16.88,16.88,0,0,0,.9,2.68,1.07,1.07,0,0,1,.09.27,1.38,1.38,0,0,1-.6,1.86h0a1.28,1.28,0,0,1-.39.13,1.37,1.37,0,0,1-.57,0l-.25-.07a1.67,1.67,0,0,1-.91-1.38,6.14,6.14,0,0,0-.12-.86,2.28,2.28,0,0,0-.13-1.21,28.17,28.17,0,0,1,0-4.86.69.69,0,0,0,.12-.42Zm11.83-64.57c0-.15.3-.27.3-.2h0a1.22,1.22,0,0,0-.15.17Zm-3.32-.28h0v-.07h0Zm14.29-10.52.45-.54,2-1.72h0l.07,0v0a.5.5,0,0,0,.39-.27h-.08a12.58,12.58,0,0,1,1.55-.91c.3-.07.64-.08.82-.39h.1a4.13,4.13,0,0,0,1.45-.48h.07l.54-.07a1.58,1.58,0,0,1,.36-.2h1.18a9.77,9.77,0,0,0-4.32,6.89,5.07,5.07,0,0,0-.1,2.29,3.46,3.46,0,0,0,.06.79h.26c0,.09.11.18.17.27a1.8,1.8,0,0,1,.1-.4.92.92,0,0,0,.1-.36l.64-2.31a13.72,13.72,0,0,1,.59-1.5.06.06,0,0,1,0-.06l1-1.38a.71.71,0,0,1,.11-.21,4.36,4.36,0,0,1,.4-.35c-.19,1-.36,1.87-.46,2.78a9.86,9.86,0,0,0,.32,4.35h.34c.21-1.29.42-2.57.64-3.86a12.21,12.21,0,0,1,.62-2l.11-.19a.08.08,0,0,1,0-.07c.09-.2.2-.4.3-.6h.11a.18.18,0,0,1,.15.07.6.6,0,0,0,.08.35,1.4,1.4,0,0,0,0,.29l.3,2.32v2.42l.06.63a1.46,1.46,0,0,0,.07.51l.09.51a.55.55,0,0,0,.07.33h0a2.07,2.07,0,0,0,.08.42,14.36,14.36,0,0,0,.54-2.91,13.64,13.64,0,0,0,.08-1.57c0-1,.08-2,.19-3,1.08,1.87,1,4,1.32,6,.46-.31.45-.75.54-1.11a12.4,12.4,0,0,0,.2-1.49v-.81a12.81,12.81,0,0,0-.23-2.76,8.62,8.62,0,0,0-.15-1h0c.06,0,.1.1.16.15v.11c.72.35.94,1.12,1.39,1.7.07.13.12.26.18.39a.52.52,0,0,0,.06.16c.1.26.19.54.27.8a.28.28,0,0,0,0,.13c.08.29.16.58.23.87a1.67,1.67,0,0,0,.08.32c.07.28.15.54.22.82v.11c.06.21.12.43.2.64a.3.3,0,0,1,.05-.16,1,1,0,0,0,.26.2,9,9,0,0,0,0-2.07,9.46,9.46,0,0,0-3.78-6.87l-1.59-.59.75-.09h.05c.66.42,1.5.25,2.16.67h.57a.11.11,0,0,1,0-.08h.05a27.59,27.59,0,0,1,4.22,2.42h0a1.12,1.12,0,0,0,.61.54l.48.46c.43.51.87,1,1.28,1.56a14.06,14.06,0,0,1,1.22,2,7,7,0,0,1,.82,3.36,4.77,4.77,0,0,1-.05.76,4.47,4.47,0,0,1-5.07,3.74,1.18,1.18,0,0,0-1.44.68,7.49,7.49,0,0,1-4.86,3.64,7.18,7.18,0,0,1-7.93-3.13,2.21,2.21,0,0,0-.7-.82.64.64,0,0,0-.34-.19,2.29,2.29,0,0,0-1.24-.17,4.24,4.24,0,0,1-1.18-.14,4.46,4.46,0,0,1-3.24-5.43h0a10.06,10.06,0,0,1,.69-2c.43-.77.87-1.51,1.3-2.23.13-.18.25-.36.39-.54h0a4.47,4.47,0,0,0,.45-.42Zm6-9,.11.06h-.07Zm-14,15,.19.24v.1c-.4-.08-.67.52-1,.41l.14-.11v-.12a1.14,1.14,0,0,0,.5-.54v-.24l.1.08v.16Zm-1.14-1.94a1.21,1.21,0,0,1,.37.11c-.33.4-.72.34-1.23.31l.89-.4Zm2.66,4c-.18.23-.39.44-.62.68v-.08h0v-.54a.5.5,0,0,1,.08-.12c.22-.19.42-.54.61-.48a.16.16,0,0,1,.14.11,1.62,1.62,0,0,1-.15.42Zm-.85-1.44a.54.54,0,0,0,0,.18.34.34,0,0,1,0-.2Zm0,.21h.17c.05.15,0,.34.09.5l-.09.16c-.54,0-.7.69-1.24.66h0c.28-.54.8-.82,1.08-1.3Zm-2.43-1.17h.08a2.12,2.12,0,0,1,1.22-.49.25.25,0,0,1,.17,0c0,.13-.18.3-.16.4a3.22,3.22,0,0,0-1.18.27.38.38,0,0,1-.12-.18Zm-.28-2.16c-.11,0-.16-.11,0-.3.35.09.79-.12,1.08.12a1.48,1.48,0,0,1-1,.16Zm39,3a.18.18,0,0,0,0,.16c-.48.2-.9-.54-1.36-.18a1.15,1.15,0,0,0,0-.37.67.67,0,0,1,.48-.06.91.91,0,0,0,.33,0,1.83,1.83,0,0,1,.54.38Zm-2.25,1.08h0c.09.38.41.66.54,1a1.44,1.44,0,0,1-.79-.51,1.18,1.18,0,0,1-.24-.37c.07-.15.27-.19.49-.19Zm.9,0c-.15-.06-.25-.21-.43-.14a.54.54,0,0,1-.14-.27.54.54,0,0,0,0-.18.93.93,0,0,1,.28-.31h0a.32.32,0,0,0,.31.25h0c.15.44.63.69.87,1.08a2,2,0,0,1-.87-.57Zm2-2a2.54,2.54,0,0,1-1.57-.65.14.14,0,0,1,0-.09,2.13,2.13,0,0,1,.71.09.79.79,0,0,0,.42.15h0c.15.13.4.29.43.41Zm-3.29,3.63h-.21a3.72,3.72,0,0,1-.41-.48,2.24,2.24,0,0,1-.07-.44C216.23,191.51,216.3,191.63,216.54,192.35Zm2-5.14a.61.61,0,0,1,0-.27h0a7.2,7.2,0,0,1,1.45.24,2.22,2.22,0,0,1-1.44,0Zm10.14,25.42a1.79,1.79,0,0,1,1.15,1.62,1.87,1.87,0,0,1-1.88,1.8,1.84,1.84,0,0,1-1.23-.57c-.6-1.39-.36-2.28.75-2.79a1.66,1.66,0,0,1,1.18-.07Zm-17.75-37a.91.91,0,0,0,.65,0h.1a.78.78,0,0,1-.78,0Zm8.4-13.31a2.58,2.58,0,0,1-1.49,1.26s-.05,0-.07-.07h0c.09-.54.62-.67,1-.94l.35-.25Zm-1.21-.76v-.09a.11.11,0,0,1,0,.08v.06c-.1.25-.38.48-.29.77-.15.19-.36.22-.81.29a2.78,2.78,0,0,1,1-1.2Zm1.89,3.18c-.66.59-.91.7-1.16.39a2.62,2.62,0,0,1,.23-.32.38.38,0,0,0,.11-.11h.54v-.08h0v.09a.67.67,0,0,1,.28,0Zm-.47-.94c-.18.18-.54.26-.38.63-.31-.11-.49,0-.57.24h0c0-.13-.19-.27-.25-.4s.32-.29.51-.38a3.42,3.42,0,0,1,.54-.18l.15-.11h.09a.81.81,0,0,0-.24.17ZM217,161c-.21.35-.39.87-.79,1h0a2,2,0,0,1,1-1.42c-.06.14-.08.28-.13.42Zm-20,13.27a.23.23,0,0,0,.25-.1.14.14,0,0,1,.06.12.43.43,0,0,1-.25.07,1,1,0,0,0-.29-.08l-.11-.07Zm-15.12,25a1.13,1.13,0,0,0-.1.13h0a.43.43,0,0,1,0-.16.27.27,0,0,1,.12,0Zm10.26,22.27a.86.86,0,0,0-.14.13h0c0-.06.11-.11.16-.16ZM188.2,256.4a24.24,24.24,0,0,1-.33,5.51c-.08.5-.17,1-.23,1.5a2.78,2.78,0,0,1-.48,1.27,1.47,1.47,0,0,1-1.75.47,1.09,1.09,0,0,1-.54-.6,2,2,0,0,1,.06-1,.27.27,0,0,1,.08-.22,8.05,8.05,0,0,0,.54-1.59l.44-1.2,1.08-2.36a16.49,16.49,0,0,1,1.08-1.8Zm-12.3,8.3a1.29,1.29,0,0,1-1.08,1.44h-.14a1.31,1.31,0,0,1-1.28-.54,16.52,16.52,0,0,1-.5-2.19q-.06-.41-.09-.81a19.76,19.76,0,0,1,0-3.44,4.93,4.93,0,0,0,.05-.54,7.29,7.29,0,0,1,.15-1.13,28.63,28.63,0,0,1,2.84,6.95c0,.08,0,.17,0,.26Zm4.46-9.79a12.73,12.73,0,0,1,1.24,5.21,15.76,15.76,0,0,1-.13,2.38,1.79,1.79,0,0,0-.07.51,4.17,4.17,0,0,1-.15.87,1.91,1.91,0,0,1-.68,1.15,1.47,1.47,0,0,1-1.43.23,1.09,1.09,0,0,1-.54-.43,1.84,1.84,0,0,0-.17-.69v-.08a8,8,0,0,1,.12-1.38c.22-1.4.45-2.79.67-4.18h0c.08-.45.16-.87.24-1.29l.15-.62a.89.89,0,0,0,.18-.8v-.09c.24-.29.29-.61.54-.8Zm-2.06-6.45a.81.81,0,0,0,.63.25h0l.5.58a1.72,1.72,0,0,1,.22.81h0a1.76,1.76,0,0,1-1.66,1.82h-.27a1.76,1.76,0,0,1-1.08-.37l-.43-.5h0a2.16,2.16,0,0,1,1.2-2.6h.89Zm16.9-30.78-1.79,2.11c-.33.47-.69.9-1,1.33h-.06c.37-.43.73-.86,1.08-1.33h0a.27.27,0,0,1-.12-.06c.26-.71.94-1.13,1.25-1.81h0l.31-.36.35-.24v-.22l.11-.17a13.42,13.42,0,0,0,2-2.62h0a47.23,47.23,0,0,0,3.24-3.95h0a22.69,22.69,0,0,1,3.06-2.82v0l2.73-1.73a.86.86,0,0,0-.14-.13h0l.1.08,2.75-1.24h0v.13c1.91-.44,3.78-.93,5.79-.35a.76.76,0,0,0-.17-.23h0a.9.9,0,0,1,.14.2.36.36,0,0,0,.27.08h0a2.13,2.13,0,0,0,1,.54h0a12.49,12.49,0,0,1,2.2,2.5h0a1.78,1.78,0,0,0,.48.93h0c.27.79.54,1.58.86,2.37.06.33.11.66.14,1h0v2.1a6.08,6.08,0,0,1-.12.87,4.71,4.71,0,0,1-3.83,3.84,8.65,8.65,0,0,1-2.87.15,3.43,3.43,0,0,1-3.36-3.51h0v-.25c.17-.09.33-.1.54.17a4,4,0,0,0,.47.54h0a3.75,3.75,0,0,0,1.38,1.3c1.28.81,2.2.72,3.49-.28v-.06h0a5.07,5.07,0,0,0,.36-.45,3.09,3.09,0,0,0,.45-.68.92.92,0,0,0,.16-.27h0V215a5.54,5.54,0,0,0,.54-2.3,1,1,0,0,0,0-.25,5.1,5.1,0,0,0-4.9-5.31h0a9.42,9.42,0,0,0-5.29,1,28.92,28.92,0,0,0-5.15,3.48c-2.21,1.86-4.27,4-6.43,6Zm21.91-33.93a5,5,0,0,1-2.5-1l-.24-.18-.94-.8-.32-.28a17.33,17.33,0,0,0-6.84-4.32.24.24,0,0,1,0-.14c0-.06.27-.06.41-.06,1.69-.61,3.36-1.29,5.21-1h.28a.19.19,0,0,0,.15-.24h0a.37.37,0,0,0-.36-.17c-2-.87-4,.12-6,.36a.63.63,0,0,1,.21-.39h.27c.48-.44,1.12-.68,1.47-1.25h0l.32-.25h0a.4.4,0,0,0,.28-.27l.25-.21c1.26-.6,1.84-2,2.79-2.89h0l.47-.31c1.91-1.34,3.31-1.26,5.07.29a3.4,3.4,0,0,1,.59,1.15,1.75,1.75,0,0,0,.48.87,2.23,2.23,0,0,0,1.62.71h0a5.5,5.5,0,0,1,3.33,6.09,5.74,5.74,0,0,1-6,4.27Zm-93.28-76.29a.2.2,0,0,0,.06-.15h0a2,2,0,0,0,.61-.93h0v-.08l0-.07a.31.31,0,0,0-.06.16.45.45,0,0,0,.3-.34h0a.35.35,0,0,0,.28-.32H125a.33.33,0,0,1,.07-.13l.11-.12a.51.51,0,0,1,.15-.07l2.7-1.88a.2.2,0,0,0-.09-.09.45.45,0,0,1,.2.16l2-.81a.85.85,0,0,1-.24-.09h0a.69.69,0,0,0,.15.07l3.24-.72h5.19v-.17h0v.18l1.19.08h0c2,.5,4,1.16,6,1.84h0l3.84,1.91.18.1h0a12.77,12.77,0,0,0,2.39,1.28h.11a.45.45,0,0,0,.27.17h0l.08.07h.18a.45.45,0,0,0,.33.22h.05a.65.65,0,0,0,.54.31h0a.29.29,0,0,0,.33.24l-.32-.23h0l.19.11.18.13.58.33h0a2,2,0,0,0,1.2.57h0l.1,0h-.16a16.1,16.1,0,0,0,2.53,1.34l.3-.06h0l.36.13a.2.2,0,0,0,0,.11.4.4,0,0,1,.26.06h.28l.29.11-.08.12a28.07,28.07,0,0,1-15.41-4.67A14.74,14.74,0,0,0,134,103.87a20.35,20.35,0,0,0-7,2.34,33.13,33.13,0,0,0-3.31,2.05c-.24-.25.17-.56.17-.84Zm72.73,5.32c.08.14,0,.14-.08.07a.14.14,0,0,0-.19,0v0S196.51,112.65,196.56,112.78Zm-8.7,48.29c-.47.14-.49-.2-.61-.43a2.28,2.28,0,0,1,.06-.82h0a1.76,1.76,0,0,1,.24.3l.08.1h0a2.07,2.07,0,0,1,.23.85Zm-52.48,32.25a1.41,1.41,0,0,1-.11-.54c0-.54-.42-.77-.89-.89A1.94,1.94,0,0,1,133,190.4a3,3,0,0,1-.13-.54,12.83,12.83,0,0,1-.16-1.64v-.5a9.66,9.66,0,0,1,1-2.42,4.6,4.6,0,0,1,.59-.73h0l1.86-1.42H136a3.27,3.27,0,0,0,.3-.35h-1.89a5.81,5.81,0,0,1-5.3-4.1.58.58,0,0,0-.06-.17,5.73,5.73,0,0,1-.14-.91,2,2,0,0,1,.15-.69,3.21,3.21,0,0,1,.34-.48,2.36,2.36,0,0,0,.62-.71,1.44,1.44,0,0,0,.37-1.5,1.38,1.38,0,0,1-.08-.45v-.07a1.5,1.5,0,0,1,0-.3,1.83,1.83,0,0,1,.61-.74c.39-.31.81-.59,1.2-.9h0a5.74,5.74,0,0,0,1.49-.57h2.13a.52.52,0,0,1,.32.07.74.74,0,0,0,.62.21l-.07-.07h0l1.78,1h0l.34.29h0l.29.33a.69.69,0,0,0,.13-.11l.28.16V173c.14-.54-.22-1-.28-1.33a6,6,0,0,1,.27-4.58l1.18-1.7c.1-.1.22-.19.33-.29a.29.29,0,0,0,.12-.1,2,2,0,0,1,.27-.22l.18-.18a3.93,3.93,0,0,0,.88-.41,2,2,0,0,1,.6,0,3,3,0,0,0,1,.37.86.86,0,0,0,1.18,0,3.26,3.26,0,0,0,1.08-.43,2.08,2.08,0,0,1,.61,0c1.5.86,2.94,1.8,3.45,3.65a11,11,0,0,1,.34,1.89q0,.38,0,.75a22.38,22.38,0,0,1-.91,2.88l1.83-1.26c.24-.14.49-.26.75-.38l1.86-.54a4,4,0,0,1,.49,0l2.2.27h.11l.28.11,1.08.77a.16.16,0,0,0,.08.14l.15.45a3.53,3.53,0,0,1,0,.46,1.16,1.16,0,0,0,.68,1.08,1.06,1.06,0,0,0,.33.18,4.7,4.7,0,0,1,.85.61v.12a1.43,1.43,0,0,0,.18.76v.2a7.28,7.28,0,0,1-.08,1.14,2.09,2.09,0,0,0-.13.65,5.77,5.77,0,0,1-5.94,4.69h-1.65l.54.36a20.66,20.66,0,0,1,2.28,2,3,3,0,0,1,.18.25l.18.28.07.14a7.58,7.58,0,0,1,.69,2.26,5.94,5.94,0,0,1-.86,3.81c-.3.48-.64,1-1.2,1.08-1.38.23-2.24,1.7-3.75,1.71a6.47,6.47,0,0,0-.88-.15,6.56,6.56,0,0,1-4.5-3.42V191a7,7,0,0,1-.31-.8,3.27,3.27,0,0,0-.29-1,2.74,2.74,0,0,0-.09-.39l-.09.19a.39.39,0,0,0-.1-.08c-.18.57-.32,1.12-.5,1.66l-.06.14a1.14,1.14,0,0,1-.15.36v.08a5.79,5.79,0,0,1-7.26,3,2,2,0,0,1-1.23-.87ZM120,173.6h0a.3.3,0,0,0,.23-.07l0-.06h0a2.85,2.85,0,0,1,1.92.69,1.81,1.81,0,0,1,.3,1h0v.14a1.78,1.78,0,0,1-1.88,1.62,1.83,1.83,0,0,1-1.56-1,2.16,2.16,0,0,1,1-2.35ZM138.78,203v.12a2.22,2.22,0,0,1,2.62-.88,1.83,1.83,0,0,1,.79,1.44h0v.09a1.8,1.8,0,0,1-3.41.75,3.16,3.16,0,0,1,0-1.3v-.07A.38.38,0,0,1,138.78,203Zm44.77-38.57h0a1.28,1.28,0,0,1,.42.13.35.35,0,0,1,.11.1c-.08.18-.23.26-.57.11l-.41-.2a1.07,1.07,0,0,1,.46-.14Zm-32.06-44.21.08.1a.19.19,0,0,0,.2.06h0a2.78,2.78,0,0,0,2.54,0h-.11l.21,0a2,2,0,0,0,1.17-.32c.23,0,.49-.07.69.07-.13.07-.27.1-.37.15h0a9.36,9.36,0,0,1-6.6,2.16,2.87,2.87,0,0,0-1.71.46,20,20,0,0,1-4.73,1.62c-.06-.13.12-.36.19-.54h0l.3-.29h0a1.42,1.42,0,0,0,.63-.9h0a4.57,4.57,0,0,0,.66-2.46v-.38a6,6,0,0,0-.74-2.48.57.57,0,0,1,.13-.08.13.13,0,0,0,.12,0,.78.78,0,0,0,.71.22.2.2,0,0,0-.09-.09h0l.09.09a9.88,9.88,0,0,0,2.34,1h0a2.43,2.43,0,0,0,1.25.54l.35.22a.35.35,0,0,0,.26.08h0a5.46,5.46,0,0,0,2.46.89.44.44,0,0,1-.08-.11Zm-8.1,3.49h0v-.13a.49.49,0,0,0,0,.12Zm11.53,1.49h0l.19-.23c.15-.18.24-.5.51-.5a22,22,0,0,1-.41,4.66v.27A1,1,0,0,1,154,130a.9.9,0,0,1-.54-.54v-.92h0c.05-.2.13-.4.2-.6.39-1,.84-1.86,1.28-2.76Zm7.84,6.38a1.39,1.39,0,0,1-1,.64.83.83,0,0,1-.58,0,.82.82,0,0,1-.41-.41,1,1,0,0,1,.16-.81c.33-.6.68-1.19,1-1.78h0a9.93,9.93,0,0,0,1.65-2h0a.51.51,0,0,0,.36-.47l.24-.25a1.1,1.1,0,0,0,.28-.29l.14-.15.09.12a9,9,0,0,1-1.92,5.4Zm-4-5.32c.2-.32.43-.63.66-.93a.23.23,0,0,1,.09.08,17.72,17.72,0,0,1-.37,4.65c-.2.88-.54,1.14-1.2,1a.88.88,0,0,1-.76-.77l.15-.83h0v-.08Zm-9.61,5h0a1,1,0,0,1-.45.5,1.08,1.08,0,0,0,.37-.5Zm-20.88-.5c.58.35,1.3.36,1.83.82,1.14,0,2.16.65,3.28.66a2.33,2.33,0,0,0,1.41.31l.1-.07h0l-.09.05a23.56,23.56,0,0,0,11.88-.1.86.86,0,0,1,.11-.24l1.14-.36.31-.27a.33.33,0,0,1,.15.33h0c-4.36,3.09-9,3.45-14,1.92a22.6,22.6,0,0,1-3.37-1.31,16,16,0,0,1-3-1.75h.25Zm1.4,29.16h-.11l.41-.1h.08ZM166.08,134a1,1,0,0,1-1.24-.11l-.09-.1a1,1,0,0,1-.07-.15,1.72,1.72,0,0,1,.26-.82h-.14a.43.43,0,0,1,.09-.1H165c1.13-1.06,2.32-2.06,3.55-3h0v.1l.31-.21.07-.06a.36.36,0,0,1,.12.08,20.34,20.34,0,0,1-2.36,3.72,3,3,0,0,1-.63.7Zm-28-5.53a1.73,1.73,0,0,1-.31.07,13.26,13.26,0,0,0,5.61,0,1.43,1.43,0,0,1-.65,0H143a1.48,1.48,0,0,0,.42,0h.85v-.19h0v.21a1.19,1.19,0,0,0,1-.2h0a15.74,15.74,0,0,0,2.35-.66l.91-.64.4-.27a.45.45,0,0,0,0,.28c-4.26,3.43-9,3.91-14.16,2.51a26.54,26.54,0,0,1-6.75-3,.51.51,0,0,1,.16-.09l.44.1.26.08c.26.17.65.12.87.42a19.23,19.23,0,0,0,3,.66h0a3.15,3.15,0,0,0,1.48.34h0a11.05,11.05,0,0,0,3.61.58h.24ZM163,99.37a2.9,2.9,0,0,0,.14.65,1.22,1.22,0,0,0,.39.93,13.2,13.2,0,0,1,1.3,2.43h0a3.08,3.08,0,0,1-1.43-1.24,15.84,15.84,0,0,0-1.43-1.91.49.49,0,0,1-.14-.18.68.68,0,0,1,.16-.58c.29-.46.63-.29,1-.11v0Zm-28.2,22.32a6.1,6.1,0,0,0,2.55,3.17,30.49,30.49,0,0,1-10.86-2.39c.48-.83,1.41-1.18,1.94-1.9h0a13.63,13.63,0,0,0,2.19-1.49.31.31,0,0,0,.26-.11.3.3,0,0,0,.3-.17h0a.36.36,0,0,0,.33-.26.9.9,0,0,0,.68-.32h0a18.67,18.67,0,0,1,3.24-1.08c-.83,1.84-1.09,3.28-.63,4.59Zm32.86-12.77v.16h.85l.06.13a3.25,3.25,0,0,0,.14.69.38.38,0,0,0,.09.25v.13a3.27,3.27,0,0,0,.88,1.5h0l.38.54h0c0,.25.44.67.14.8a2,2,0,0,1-.61-.34l-1.38-1.84h-.05l-.21-.32v-.06a.26.26,0,0,0-.13-.18h0a5.66,5.66,0,0,0-.43-.54.35.35,0,0,1-.08-.16.83.83,0,0,1,.26-.72h0Zm-21,3.4v.1a1,1,0,0,0,.79.31h0a.24.24,0,0,0,.23,0l.14-.08h-.07l5.77,2.11h0a12.66,12.66,0,0,0,2.38,1l.81.39a9.94,9.94,0,0,1-5,.21,34.69,34.69,0,0,1-5.6-1.86,19.19,19.19,0,0,0-7.25-1.42,18.61,18.61,0,0,0-8.5,2.54c-1.36.74-2.67,1.62-4,2.44h0a.87.87,0,0,1-.52.45c0-.17.12-.36.06-.54h0c1.89-2.85,4.64-4.56,7.65-6h0a5.21,5.21,0,0,0,1.85-.59h0v-.06h.07v.08l.1.09a2,2,0,0,0,1.24-.32h0a21.69,21.69,0,0,1,6.48.33h0a1.29,1.29,0,0,0,.91.24v.1a11.22,11.22,0,0,0,2.44.63c0-.07,0-.06-.07-.16Zm-9.76-4.53a1.29,1.29,0,0,1,.17.16,1,1,0,0,1,.2.61.92.92,0,0,1-.92.75h-.09a.7.7,0,0,1-.39-.18.91.91,0,0,1-.1-.46c0-.81.58-.85,1.13-.85Zm-4.55,1.52h.06l.32.32a.73.73,0,0,1,.07.29.79.79,0,1,1-1.58.13v-.19a1.79,1.79,0,0,1,1.13-.57Zm-4.25,1a.24.24,0,0,1,0-.12h0a.54.54,0,0,0,0,.18l.86-.16.4.32v.21c0,.62-.31.91-.73.89a.74.74,0,0,1-.21,0,.71.71,0,0,1-.64-.74,1.6,1.6,0,0,1,.36-.54Zm38.73,55.24a1.7,1.7,0,0,1,.23.86,1.78,1.78,0,0,1-1.78,1.77,1.73,1.73,0,0,1-.64-.12h-.1a1.77,1.77,0,0,1-1-1.62h0a2.06,2.06,0,0,1,.11-.65l1-.94v-.06h.07v.13A2.16,2.16,0,0,1,166.86,165.55Zm5.55-11.17a27.93,27.93,0,0,1-10.8,3.84,100.92,100.92,0,0,1-14.54,1c-3.71.11-7.4.37-11.19.24a1.56,1.56,0,0,0,.2-.16h0l.79-.06h1c.68-.13,1.41.08,2-.3H140c2.95-.1,5.88-.35,8.8-.61v-.06h.62a3.75,3.75,0,0,0,.82,0h.27l-.16.1h4.11a3.91,3.91,0,0,0,2-.28h-1.08a9.52,9.52,0,0,0,1.31-.12,4,4,0,0,0,1.8-.22v.05a6.54,6.54,0,0,0,2.7-.65h0a16.71,16.71,0,0,0,4-1.27.35.35,0,0,0,.34-.17l-.06-.07h0a.74.74,0,0,0,.61-.28h.07a.27.27,0,0,0,.22-.08h0a.27.27,0,0,0,.31-.16h0A.49.49,0,0,0,167,155a.33.33,0,0,0,.31-.19h.15v-.06a4.35,4.35,0,0,0,1.74-.91h.1a1.56,1.56,0,0,0,.9-.58l-.07-.08a3.24,3.24,0,0,0,1.37-.94h-.09l.11.06h0l.09.06.34-.25a10,10,0,0,0,2.7-2.49v-.22a5.81,5.81,0,0,0,1.57-2.07h0a1.87,1.87,0,0,0,.42-.8h0a3.3,3.3,0,0,0,.3-3.06c-.49-2.57-2.63-5-4.77-5.49a4.67,4.67,0,0,0-4.32,1.18l-.58.71a1,1,0,0,1,.5-1c.29-.76.89-1.16,1.28-1.76h0l.19-.12a.48.48,0,0,0,.2-.14l.21-.14a8.81,8.81,0,0,1,4.79-.54v-.08h0a1.75,1.75,0,0,0,.84.25l.65.31a3.88,3.88,0,0,0,1,.59h0a6.94,6.94,0,0,1,1.29,1.25l.86,1.38a6.78,6.78,0,0,1,.67,2.33,9.65,9.65,0,0,1-1.51,6.55,17.7,17.7,0,0,1-5.82,5.63Zm11.73,9.52c-.24-.4-.74-.54-1.08-.89l.19-.2-.12-.11h0l.11.11a.66.66,0,0,0,.28,0h0c.3.29.78.36,1,.77,0,.13-.14.25-.26.36Zm-10.67-53.27.12.18a.33.33,0,0,1-.07.16h-.09a2.81,2.81,0,0,1-1.33-.89,17.29,17.29,0,0,0-1.83-2,.35.35,0,0,1-.11-.13,1.17,1.17,0,0,1,.12-.78.18.18,0,0,0,.17-.07V107h0v.13a1.37,1.37,0,0,1,.82.27,2,2,0,0,0,.14.41.56.56,0,0,0,.28.54h0a2.23,2.23,0,0,0,.68,1h0a7.65,7.65,0,0,0,1.09,1.32ZM168,101.11a.49.49,0,0,1-.08.21c-.49,0-.76-.43-1.18-.75-.79-.62-1.23-1.56-2-2.16a.54.54,0,0,1-.23-.4c0-.32.31-.54.82-.6v-.15h.07v.08a.72.72,0,0,1,.24.14v.06a4,4,0,0,0,.75,1.5,3,3,0,0,0,.95,1.11,7,7,0,0,1,.65,1Zm-55.34,40.5h.07l1.62-.89h0c2.16-.69,4.2.07,6.2.65l.06-.06c.7.49,1.59.63,2.47,1.12-3.54.08-7.09-.41-10.8,0-.09-.41.29-.54.42-.81Zm27.54,73.14a1,1,0,0,1-.17-.27v-.1h0a1.44,1.44,0,0,1,1,.44.47.47,0,0,0,.11.13,2.66,2.66,0,0,1,.42.94h-.07c-.54-.49-.93-.8-1.3-1.14Zm44.49-52.09c-.23-.24-.45-.5-.68-.77a.28.28,0,0,1,.22,0l.19.07.36.2a.43.43,0,0,0,0,.16l.54.29c-.1.23-.21.5-.64,0Zm-59-50.34a.56.56,0,0,0,.2.11.73.73,0,0,1,.23.54v-.07a.76.76,0,0,1-.56.92h0a1.31,1.31,0,0,1-.28,0h-.07a.72.72,0,0,1-.7-.74h0a.54.54,0,0,1,0-.18.79.79,0,0,1,.08-.26c.18-.28.54-.33.95-.33l0,0h.16ZM144.13,217.4h0c.44-.5.26-1.34,1-1.73a1.71,1.71,0,0,0,.21-.26l.09.08v-.42a1.14,1.14,0,0,0-.07-.79,1.09,1.09,0,0,0-.13.17h0v.21c-.2.45-.18,1-.68,1.24-.27-.34-.17-.74-.17-1.11l-.49.12V215a.48.48,0,0,0,0,.17v1l.14-.11a7.06,7.06,0,0,1,0,1.3,13.89,13.89,0,0,1-2-2.7h0a2.49,2.49,0,0,1-.15-.28c-.54-1.59-.13-2.33,1.62-3l-.08-.06h1.31a2.16,2.16,0,0,1,2.48,1.79h0v.05a2.2,2.2,0,0,1-.17.67,18.57,18.57,0,0,1-2.13,3.59c-.18.33-.56.48-.77-.05Zm2.94-2.13h0a1.43,1.43,0,0,0,.2-.3.63.63,0,0,1,.27,0,3.91,3.91,0,0,0-.47.36Zm.76-1.08a1.22,1.22,0,0,1,.62-.36,2,2,0,0,1-.84,1A1.33,1.33,0,0,1,147.83,214.19Zm37.8-51.91-.14-.22a.15.15,0,0,0-.06-.09l-.16-.26c-.17-.26-.28-.5.1-.66h0a7.48,7.48,0,0,1,.54.84.37.37,0,0,1-.31.39Zm.68-1.22a1.9,1.9,0,0,0-.12-.36v-.21a.14.14,0,0,1,0-.09h0a1.55,1.55,0,0,1,.66.61c0,.25-.11.34-.36.36A1.39,1.39,0,0,1,186.31,161.06ZM136.85,219a1.32,1.32,0,0,0-.06-.48,2.3,2.3,0,0,1,.15-.9h0a5.6,5.6,0,0,1,1.23-1.2h0l.91-.3h0v.09a4,4,0,0,1,3.12,1.5h0c-.54.24-1-.63-1.57-.19a.49.49,0,0,0,.14.11h-.13c.21.34.68.34.93.54-.51.18-1.16,0-1.88.5h.66a1.27,1.27,0,0,0-.31.2H142c-.4.51-1.22.5-1.81,1.22l.31-.1.34.06v.1l.93-.28c.23-.43.8-.48.87-1h-.2v0h.2a.56.56,0,0,0-.07-.42,1.72,1.72,0,0,0-.21-.43h0a1.59,1.59,0,0,0-.13-.22h.05l.19.26a4.34,4.34,0,0,1,.93.54,3.24,3.24,0,0,1-1.21,1.2,3.78,3.78,0,0,1-2.92,1.68,2.29,2.29,0,0,1-2.46-2.1v-.16A.87.87,0,0,1,136.85,219Zm5,2.44h0a2.7,2.7,0,0,1-1.47,1.76h0a3.72,3.72,0,0,1,.54-1h0a3.93,3.93,0,0,1,.87-.76Zm33.28-114.56.24.22c.28.33.58.64.89.94a1.71,1.71,0,0,1,.13.38,2.59,2.59,0,0,1-1.59-.78c-.71-.51-1.17-1.33-2-1.77a.47.47,0,0,1-.14-.14,1,1,0,0,1,0-.59h0a.35.35,0,0,0,.3-.28h.54a1.56,1.56,0,0,1,.39.38,3.31,3.31,0,0,0,.46.82A2.33,2.33,0,0,0,175.14,106.89Zm-71.46,35.88a6.29,6.29,0,0,1-.37-.67,18.71,18.71,0,0,1-.6-2.79,5.42,5.42,0,0,1,0-.57c.15-.29,0-.67.35-.91.54.84,1,1.7,1.44,2.51a1.91,1.91,0,0,0,.24.41l.39.58a4.07,4.07,0,0,0,1.65,1.81v0h0l0,.09c.09.27.51.22.74.36l-.23.16A2.66,2.66,0,0,1,103.68,142.77Zm43.25,80.64a1.8,1.8,0,0,1-1.58,2h-.43a2.23,2.23,0,0,1-2.57-.77,2.57,2.57,0,0,1-.34-1,5.63,5.63,0,0,1,.46-1.71h0a.17.17,0,0,1,0-.1,1.43,1.43,0,0,1,.14-.2,2.31,2.31,0,0,1,.1-.28h.1v-.26h0c.34-.29.54-.74.86-1a11.71,11.71,0,0,1-.61,1.62h0c0,.17,0,.35.21.4s.28-.2.34-.34a1,1,0,0,0,.06-.42l.12-.45a.46.46,0,0,1,.12-.12c.37.24,0,.71.29,1a.61.61,0,0,0,.12-.16,3.15,3.15,0,0,0,.22.33v-.88h-.09a.41.41,0,0,1,.31-.32.15.15,0,0,0,.06.09V221l.33.86.08-.08a1.12,1.12,0,0,0,.27.3v-.69l-.08-.13V221l-.25-.27c-.24-.51-.54-1-1.24-.94h0c.4-1,.48-1,1-.36a2.92,2.92,0,0,1,.43.5c.08.12.15.26.22.39a2.17,2.17,0,0,1,.19.41,8.43,8.43,0,0,1,1,1.75A3.7,3.7,0,0,1,146.93,223.41Zm9.13-14.87h-1a2.78,2.78,0,0,1-1.21-.48,3,3,0,0,1-1.08-1.11,5.53,5.53,0,0,1-.29-2.06,11,11,0,0,1,.8-2.16v-.11a7.65,7.65,0,0,1,2.94-2.31h0a.33.33,0,0,0,.21-.07h2.87l.22.12a1.61,1.61,0,0,0,.54.43,2.51,2.51,0,0,1,.42.62c-.83-.08-1.67-.13-2.5-.13a3.3,3.3,0,0,0-3.34,2.91c0,.58,0,.91.24,1.08.11.34.31.47.75.3a1.6,1.6,0,0,1,1.18,0,1.46,1.46,0,0,1,.76,1,1.53,1.53,0,0,1-.92,1.73A2,2,0,0,1,156.06,208.54Zm38.15-36.13a17.55,17.55,0,0,1-1.26-1.33,13.16,13.16,0,0,1-2.11-3.74,8.25,8.25,0,0,1-.43-1.27v-.15c-.06-.26-.1-.54-.14-.8a3.06,3.06,0,0,0-.07-.54,8.27,8.27,0,0,1,.19-2.58,2.91,2.91,0,0,1,.31-1l1-1.08h.09l.59-.35a.17.17,0,0,1,0-.1,1.16,1.16,0,0,0,.77-.19h.13a1.09,1.09,0,0,0,1.35-.72v0a1.42,1.42,0,0,0,0-.2l.16-.26a9.3,9.3,0,0,1,2.7-2.41,1.85,1.85,0,0,0,.89-.37h0a14,14,0,0,1,2.75-.3h0l2.1.61h0a1.88,1.88,0,0,0,.92.59v-.09h0v.09a7.48,7.48,0,0,1,1.9,2.42c.24.43.49.87,1.12.65h.14a1.86,1.86,0,0,0,.83.21h0a6.34,6.34,0,0,1,1.79,1.23h0c.88,1.18.66,2.61.66,4a1.08,1.08,0,0,1-.07.47c-.08.4-.15.79-.27,1.19-1.08,3.73-3.86,7-6.59,7.85l-.09.12c-.2.13-.54.3-.64.13a.23.23,0,0,1,.05-.32h.16a1.15,1.15,0,0,1,.14-.17h.1a1.59,1.59,0,0,0,.54-.61h.13a1.21,1.21,0,0,0,.51-.66.21.21,0,0,1,0-.11c1.41-2.08,2-5.09,1.46-6.66a4.18,4.18,0,0,0-.09-.71c-.8.93-.76,2.18-1.2,3.24a8.12,8.12,0,0,1-1.92,3,.22.22,0,0,1,0-.16.33.33,0,0,1,0-.14,1.11,1.11,0,0,1,.22-.34,12.54,12.54,0,0,0-.14-6.35l-.12.18a2.68,2.68,0,0,1-.07-.27c-.06.25-.1.5-.16.76a3.25,3.25,0,0,0-.14.69,15.4,15.4,0,0,1-1.7,5.62,14.7,14.7,0,0,1-.36-2.8l-.06-1.44v-1.36a3.84,3.84,0,0,0-.11-1.39,5.58,5.58,0,0,0-.11-.82,1.59,1.59,0,0,0-.2.24v-.08a1.14,1.14,0,0,0-.06.25,3.19,3.19,0,0,0-.27,1.55c0,.26-.07.51-.08.78s0,.35,0,.54c0,.54-.07,1.11-.09,1.68,0,.8-.07,1.64-.12,2.56l-.07.08a5.77,5.77,0,0,1-.79-1.86,3.52,3.52,0,0,0-.1-.65,1.85,1.85,0,0,1,0-.47c-.19-1.08-.24-2.16-.36-3.43a6.09,6.09,0,0,0-.63,1.54,4.65,4.65,0,0,0-.23,1.34,22.3,22.3,0,0,0,.35,4.07h.06v.15a3.63,3.63,0,0,1-1.45-1.65,8.92,8.92,0,0,1-.78-2.13,9.53,9.53,0,0,0-.62-2.16,1.07,1.07,0,0,0-.16.32.24.24,0,0,1,0-.12v.4a6.21,6.21,0,0,0,.33,3.51,9.06,9.06,0,0,0,1,2.33l.37.83.58.35v-.09l.06.07h0l.28.28h0a2.1,2.1,0,0,1-.79,0l0,.08-.39-.28h0l-.12-.07a13,13,0,0,1-1.69-1.16ZM179.55,210a7.13,7.13,0,0,1-1.62-2,15,15,0,0,1-.77-2.16h0v-2.27c0-.34.14-.73-.15-1a1.5,1.5,0,0,0-.74-.79,5.75,5.75,0,0,1-2.07-2,3.9,3.9,0,0,1-.7-2.41l.3-1.26h0l1-1.48h0l.82-.68h0a.33.33,0,0,0,.28-.23h0a6.14,6.14,0,0,0,1.5-.61l.07-.1.42-.07-.25.29c.41.12.91-.16,1.33,0v.41a.74.74,0,0,0,.23.39h0c-.62.72,0,1.43,0,2.16h.08a.54.54,0,0,0,.22.23.52.52,0,0,0,.11.4h-.09a3.38,3.38,0,0,0,0,.45.66.66,0,0,0,0,.28c0,.28,0,.63.33.7s.48-.17.62-.42a.58.58,0,0,0,.26.06h.16V198a5.51,5.51,0,0,1-.54.73.52.52,0,0,0-.14.54c0,.2.17.4.54.84a1,1,0,0,1,.89-.54v.08a2.43,2.43,0,0,0-.43.73l-.14.09a.8.8,0,0,0,.43.87h0l.07.06h.06c.35,0,.54-.46.87-.46a.6.6,0,0,1,0,.19,4,4,0,0,0-.4.92l.06.06a.53.53,0,0,0,.29.36c.5.32.62-.44,1-.6h.22a1.82,1.82,0,0,1-.24.79c-.12.29-.25.54.14.79a.38.38,0,0,0,.13.06.49.49,0,0,0,.16.16l.57-.72.22-.24v-.08h0c.11-.22.25-.44.51-.26s0,.54-.33.7h0a3.42,3.42,0,0,1-.21.43c-.13.27-.29.44-.1.64a.29.29,0,0,0,.2.32h.11a.41.41,0,0,0,.48-.29h0l.28-.32h0l.14.12v.14c-.09.21-.21.46-.09.66a.43.43,0,0,0,.23.4c.44.27.68-.17.82-.38s.26-.43.39-.65a1,1,0,0,1,0-.25,5.58,5.58,0,0,1,.32-.52,1.54,1.54,0,0,1,0,1.08h0v.06a3.83,3.83,0,0,0-.18.64.37.37,0,0,0,0,.21c-.09.11-.1.22.12.32h0c.44.35.54,0,.62-.32l.22-.31h.08l.27-1.08.07-.09a1,1,0,0,1,.22.34,3,3,0,0,1-.18.94v.21c0,.32-.18.69.3.88.65.25.77-.35,1.08-.69a4.11,4.11,0,0,0,.25.61v.06h0c.2.34.4.29,1.08,0a.45.45,0,0,1-.07-.28,1.79,1.79,0,0,0,.27-.44l.24-.66c.25.21.21.42.21.72a.71.71,0,0,0,.15.48v.38a2.42,2.42,0,0,0,1.12-.25v-.41h0c0-.25.09-.54.12-.83a.57.57,0,0,1,.28-.08,1.3,1.3,0,0,1,.09.62.44.44,0,0,0,.15.36v.31h0a.83.83,0,0,0,.82-.84h0a.72.72,0,0,1,.24.14c0,.14.13.25.41.25.47,0,.79-.28.65-.75v-.68a.37.37,0,0,1,.21,0c.28.1.14.75.76.54v-.44a2.53,2.53,0,0,1,.12-.36c0-.11,0-.34.15-.38.13.3.2,1,.63.06h.66l.26.11v-.07h0a4.3,4.3,0,0,1,.66,1.16h0a5,5,0,0,1-1.51,5,4.53,4.53,0,0,1-5.11.75,2.15,2.15,0,0,0-.7-.24.43.43,0,0,0-.5.11,2.34,2.34,0,0,0-.49.39,6.92,6.92,0,0,1-4.63,1.59A9.46,9.46,0,0,1,179.6,210ZM156.2,263.32a12,12,0,0,1-.75,3.49,9,9,0,0,0-.75,2.6c0,.42-.1.84-.67.84a.52.52,0,0,1-.27-.07,1.27,1.27,0,0,1-.39-.8h0v-.11l.07-.59a.47.47,0,0,1,.06-.15h0c.3-.31.83-.43.83-1h0c.1-.29.22-.57.33-.85h0a6.92,6.92,0,0,0,.87-2.75h0a1.46,1.46,0,0,0,.33-.79h0C156.06,263.13,156.15,263.2,156.2,263.32ZM158,252a1.76,1.76,0,0,1-3,1.16c-.66-1-.58-1.4.25-2.64h0c.45-.09.88-.39,1.38-.3l.26.08a2.73,2.73,0,0,1,.94.85A1.9,1.9,0,0,1,158,252Zm-6.15,14.65a2.48,2.48,0,0,1-.06.54.71.71,0,0,1-.61.76.6.6,0,0,1-.37-.09,1.84,1.84,0,0,1,.16-2,2.79,2.79,0,0,0,.57-1.78,2,2,0,0,0,.08-.35,5,5,0,0,0,.51-2.16v-.13c.17-.32.14-.75.54-.94a1.1,1.1,0,0,0,.07.48,13,13,0,0,1-.5,3.61,11.17,11.17,0,0,0-.4,1.91v.17Zm-2.9-8.34.11-.06a.24.24,0,0,0,.07.12,12.23,12.23,0,0,1-.17,3.47,13.43,13.43,0,0,0-.36,2.52,6.25,6.25,0,0,0-.08,1.14.74.74,0,0,1-.71.54h-.15c-.54-.4-.59-.82-.16-1.62a6.34,6.34,0,0,0,.69-2.62c0-.17.06-.34.08-.54a4,4,0,0,0,.24-1.71l.06-.36A5.31,5.31,0,0,1,149,258.33Zm13.55-19v-.08h0a.14.14,0,0,0,0-.09c.07-.18.15-.35.22-.54a6.79,6.79,0,0,0,.75-1.47h0v-.06l.09.1q.53-.81,1.08-1.62c.54-.85,1-1.08,1.56-.68l.07.07a.91.91,0,0,1-.1,1.22,13.19,13.19,0,0,1-3.65,3.17Zm-1-6.56h0a.24.24,0,0,0,0,.12,6.73,6.73,0,0,1,1-.43.91.91,0,0,1,1,.33l.08.16a.75.75,0,0,1-.3.8c-.39.32-.8.6-1.22.88a22.4,22.4,0,0,1-3.93,2l-.1-.11c.1-.22.22-.42.33-.63l1.23-1.54,1.85-1.49h0l.14-.07Zm3.3-11.81a2.86,2.86,0,0,1,1,.27,1.83,1.83,0,0,1,.85,1.51,1.77,1.77,0,0,1-1.65,1.82h0a1.72,1.72,0,0,1-1.82-1.62v-.24a2.66,2.66,0,0,1,1.46-1.62V221Zm.8,20.58c-.07-.09,0-.29,0-.41h0V241c.51-.92,1-1.87,1.54-2.81a3.74,3.74,0,0,1,1.08-1.35h0a3.21,3.21,0,0,1,1.08.65.92.92,0,0,1-.28,1,15.14,15.14,0,0,1-3.37,3.07Zm12.45-136.75H178c.09.16.18.32.26.49-.63.1-1-.35-1.49-.59a22.52,22.52,0,0,0-2.16-1.62.69.69,0,0,1-.24-.18c0-.2,0-.41,0-.62h0l.32-.24h0a1.58,1.58,0,0,1,.84.22l.14.3c.43,1.08,1.46,1.58,2.32,2.22h0Zm-7.45-6.56c.06.07.13.14.19.22l.07.18a.81.81,0,0,1-.9-.15c-1.08-.59-1.76-1.68-2.76-2.32l-.06-.06c-.25-.38,0-.61.85-1v.05h0a5.7,5.7,0,0,0,.3.54l.07.11A8.26,8.26,0,0,0,170.64,98.2Zm-39.77-2.65a.64.64,0,0,1,.08.14,1.45,1.45,0,0,0,1-.6h0l3.59-1.51h0a.4.4,0,0,0,.28-.08h.05a11.5,11.5,0,0,0,2.46-.54h0l.54,0a42.93,42.93,0,0,1,4.94.11,20.29,20.29,0,0,0,3.57.17h0a2.79,2.79,0,0,0,1.22,0,.24.24,0,0,1,0-.12h0a.24.24,0,0,0,0,.12,20.79,20.79,0,0,0,4.86.26.11.11,0,0,1,.09-.15h.12c-.12,0-.21.09-.18.19a4.78,4.78,0,0,0,1.51,0h.44a8.07,8.07,0,0,1-2.7.59,139.88,139.88,0,0,1-14.15,1.62,25,25,0,0,0-11.83,3.89,2,2,0,0,1-1,.69v-.14a5.07,5.07,0,0,1,.81-.86,26.51,26.51,0,0,1,4.27-3.64.09.09,0,0,0-.06-.1ZM123,225.87l1.56-1.2h0a8.61,8.61,0,0,1,3.64-.35h0l.54.27a2.14,2.14,0,0,1,.39.28c.09.09.17.2.26.28a.59.59,0,0,1,.06.41,12.81,12.81,0,0,0-2.47-.15,3.31,3.31,0,0,0-3.21,3.06c0,.54.07.86.38,1,.15.14.44.13,1,.09a1.94,1.94,0,0,1,1.24.44,1.48,1.48,0,0,1,.32.59,1.57,1.57,0,0,1-.89,1.75,2.77,2.77,0,0,1-2.87-.21,3,3,0,0,1-1.11-1.15,4.18,4.18,0,0,1-.31-2.24,2.83,2.83,0,0,1,.1-.47,1.9,1.9,0,0,1,.11-.39c.06-.18.13-.36.2-.54s.25-.42.36-.63a.68.68,0,0,1,.1-.21h0a1.16,1.16,0,0,0,.54-.67h0Zm-12.79,18.25a.6.6,0,0,1,0-.19.33.33,0,0,1,0-.14,2.46,2.46,0,0,1,1.49-1.8h0v0A3.67,3.67,0,0,1,115,243a3.41,3.41,0,0,1,.73.51c-.59.22-1-.43-1.55-.34-.11.54.69.28.69.78-.48.47-1.19.12-2,.61h.54l-.06.05a2.24,2.24,0,0,0,1.49-.06h.27a1.38,1.38,0,0,1-.68.62c-.29.15-.64.17-.89.54.71.07,1.16-.39,1.7-.59.27-.1.4-.58.82-.3a.42.42,0,0,1-.08-.33h0v-.07a3.06,3.06,0,0,0,.1-.51c0,.07.11.13.17.21a.73.73,0,0,1,.3.39,2,2,0,0,1-.45.37h0a6.08,6.08,0,0,1-1,1.08l-.12.08-.2.19a5.47,5.47,0,0,1-1.32.78,2.34,2.34,0,0,1-2.85-.68A3.32,3.32,0,0,1,110.16,244.12Zm17.37,18a1.05,1.05,0,0,1-.3-.22,3.26,3.26,0,0,1,.23-1.54,1.64,1.64,0,0,0,.1-.38V260h0l2.29-3.78c.17-.23.33-.44.51-.65h0a28.56,28.56,0,0,1-1,5.18,4,4,0,0,1-.41,1,1.09,1.09,0,0,1-1.4.45Zm24.3-44.45v.9c-.07,1.87-.75,2.45-2.57,2.21a5.6,5.6,0,0,1-2.13-.75,3.23,3.23,0,0,1-1.31-.88,3.82,3.82,0,0,1,1.77.89c.21,0,.58,0,.33-.38s-.83-.27-1-.72c.61-.21,1.24.07,1.78-.36a.77.77,0,0,0-.18-.18h0c-.4-.25-.93,0-1.26-.3a1.24,1.24,0,0,1,1-.46,1,1,0,0,0-.27-.24,2.62,2.62,0,0,0,.34-.24c-1.12-.15-1.59.8-2.35,1.17a.57.57,0,0,0-.06.25,1.28,1.28,0,0,1-.25.15.54.54,0,0,1,0-.18c.2-.91,1.17-1.16,1.75-1.75v-.09h.3a3.44,3.44,0,0,1,3.6-.33h0a1.56,1.56,0,0,1,.45.6.37.37,0,0,0,.07.27,2,2,0,0,1,0,.42Zm7.59,11.75c.73-.42,1.28-.39,1.58.1s.14.73-.31,1.08h0a16.92,16.92,0,0,1-3,1.12l-2,.49V232l.21-.18a5.19,5.19,0,0,0,1.58-1.11h0a1,1,0,0,0,.59-.54c.14-.09.27-.19.41-.27a3.89,3.89,0,0,0,1-.47Zm33.48,15.31a.65.65,0,0,1-.17.27h0v-.28ZM172.8,95.58c-.49.2-.78-.11-1.11-.22-1-.54-1.69-1.5-2.7-2a.44.44,0,0,1-.15-.12.59.59,0,0,1,0-.37.63.63,0,0,1,.5-.51.69.69,0,0,1,.54.09,4.16,4.16,0,0,0,.47.71,3.63,3.63,0,0,0,1.34,1.3h-.06C171.94,94.86,172.56,95,172.8,95.58ZM101,106l1.57-.32h.63v-.1h0v.1l1.12.08,1.48.83a3.91,3.91,0,0,1,.39,1.15v.15l-5.14-1.66a1.77,1.77,0,0,1-.31-.15A.37.37,0,0,1,101,106Zm.36,2.16,1.17.18a3.16,3.16,0,0,1,2.34,1.27,5.45,5.45,0,0,1,.28,1.5l-6.34-2.38a.67.67,0,0,1,0-.2v0a17.24,17.24,0,0,0,2.58-.37ZM71.53,226.8h0c1-.73,1.08-.76,1.94-.11a1.5,1.5,0,0,1,.17.46,24.8,24.8,0,0,1,.54,2.7,4.21,4.21,0,0,0,.15,1.22l.06.71a11.64,11.64,0,0,1,0,3.12,52.7,52.7,0,0,1-2.78-6.24,3.45,3.45,0,0,1-.23-1A6.31,6.31,0,0,1,71.53,226.8Zm52.18-22.14c-.21.36-.66.36-.94.63h0a1,1,0,0,1-.18.22h0a1.21,1.21,0,0,0,.22-.23h-.28a3.73,3.73,0,0,1,.44-.45l.49-.34h0a2,2,0,0,1,.36-.19.37.37,0,0,1,.34-.28l1.51-1.35.86-.72a11.11,11.11,0,0,0,2.31-1.85h0l.31-.26h0a2.66,2.66,0,0,0,1.36-1.2,1.16,1.16,0,0,0-.33-1.6,1.14,1.14,0,0,0-.86-.17,12.88,12.88,0,0,0-1.71.61q-2.7,1.14-5.4,2.32a2,2,0,0,1-1.19.54,1,1,0,0,1,.2-.25l.59-.38a3,3,0,0,0,.93-.82V199a25.14,25.14,0,0,0,3.07-2.47h0a2.41,2.41,0,0,0,.84-.65v-.05h0v.05c.54-.24.8-.54.5-1a1.8,1.8,0,0,0-.28-.67c-1-1.56-2-1.88-3.68-1a102.34,102.34,0,0,0-10.26,6.15,20.34,20.34,0,0,0-3.32,3.1l-3,3.24a22.72,22.72,0,0,1-13.78,7.86c-1,.15-1.89.38-2.83.49a3.35,3.35,0,0,1-3-.94,10.47,10.47,0,0,1-1.43-2.83,6,6,0,0,1-.17-.94l-.07-.11a2,2,0,0,0-.16-.54.79.79,0,0,1,.06-.22c0-.35.21-.59.45-.35a1,1,0,0,1,.21.48,1.4,1.4,0,0,0,0,.29.59.59,0,0,0,.07.37,5.38,5.38,0,0,0,.9,1.94.44.44,0,0,0,.08.11l.21.24a1.9,1.9,0,0,0,1.87,1,1,1,0,0,1,.34,0h.25a3.11,3.11,0,0,0,.86.09l-.05-.1H91v0a5,5,0,0,0,1.62-.19,17.79,17.79,0,0,0,7.18-3.54.17.17,0,0,1,0-.1h0v.16a5.13,5.13,0,0,0,1.5-1.15h.06a14.1,14.1,0,0,0,2.47-2.09v-.06a1.24,1.24,0,0,0,.59-.54h.06a.33.33,0,0,1,0-.14h0a.39.39,0,0,0,.06.11,15.9,15.9,0,0,0,2.92-2.7h.07a17.56,17.56,0,0,0,2.07-1.88v-.17a5.77,5.77,0,0,0,1.48-1.35h0a.08.08,0,0,1,0,.07l.26-.18h0a2.4,2.4,0,0,0,.92-.75h0a8.1,8.1,0,0,0,1.53-1.2h-.06l.07.06a.35.35,0,0,0,.3-.28h0a1.63,1.63,0,0,0,.88-.64h0a.42.42,0,0,0,.38-.45h0l.3-.22v-.12h0v.12a13.23,13.23,0,0,0,2.39-1.62h0a2,2,0,0,0,.92-.58h0a4,4,0,0,0,1.3-.58h0a2.66,2.66,0,0,0,1.21-.6v-.09h0v.09l2.16-.64.15-.12h0l-.15.12h2.12l-.2-.13h0a1.07,1.07,0,0,1,.22.15H126a1.15,1.15,0,0,0,.84.34,4.49,4.49,0,0,1,1.88,2.56.58.58,0,0,0,.12.25v.17c0,.29.24.38.54.38h0l1.12.54v-.1l.11.08v.08l.63.54.1.14.43,1c0,.18,0,.35.06.54a1,1,0,0,0,.14.46c0,.48.54.64.85.93a4.62,4.62,0,0,1,1.62,3.74l-.27-.22c-1.4-2-1.8-2.07-4-1.08S125.9,203.64,123.71,204.66Zm71.47,50.22a9.18,9.18,0,0,1-.77-1.08c-1.45.8-2.92.29-4.32-.2a7.74,7.74,0,0,1-3.74-3l-.29-.43a12.33,12.33,0,0,1-.72-1.4h0a.71.71,0,0,0-.23-.67h0l-.09-3h0l.09-.54h0a.79.79,0,0,0,.23-.67l-.06,0h0l.06,0a.57.57,0,0,0,.08-.25h0a5.88,5.88,0,0,1,.77-1.08,1.46,1.46,0,0,0,.13-2,5.43,5.43,0,0,1-.67-3c-.06,0-.08.1-.12.14s0,0,0-.07,0-.07.08-.09v-.29a.12.12,0,0,0,0-.14.61.61,0,0,1,0-.19.06.06,0,0,0,0-.06h0a.64.64,0,0,0-.05.23l.23-.42h0a.32.32,0,0,0,.06-.23v-.06l.26-.31h0a1.37,1.37,0,0,0,.57-.62h0l1.85-.88v-.07h0v.07l1.79-.07h0v.07a3.27,3.27,0,0,1,1.54.69c0,.2-.11.44,0,.57a.58.58,0,0,0,.1.32c-1,.2-.78,1.21-1.19,1.8-.07.13.09.34,0,.54a3.61,3.61,0,0,0-.16.4h0c-.17.51-.15.85.54.65l.06-.07h0l.07.11a.51.51,0,0,1-.31.3c-.46.15-.94.37-.73.92a.31.31,0,0,0,.14.18c.13.35.54.17.83.26a1.52,1.52,0,0,1-.5.23h-.09a.63.63,0,0,0-.35.81h0v.08a1.5,1.5,0,0,0,0,.3l.8-.15h0c0,.41-1.19.68-.61,1.17,0,.34.21.48.74.26a3.47,3.47,0,0,1,.45-.17h0c.07.14-.26.4-.51.4-.28.3-.49.59-.28,1H191c.23.43.65-.09,1,0h.27c-.27.22-.64.32-.81.64h0a.71.71,0,0,0,.14.1h0l-.11-.08a.61.61,0,0,0-.27,0,.59.59,0,0,0,.23.39v.05c0,.07.08,0,.13,0a.7.7,0,0,0,.25,0c.28,0,.29.11.29.31h0c-.14.21-.32.42,0,.68a.54.54,0,0,0,.66.09l.54-.25.35-.37h0l-.35.37.2.21c-.14.3-.66.54-.61.81a.3.3,0,0,0,0,.23c.16.32.62.15.72.06s.2-.21.31-.31h0l.24-.08a.75.75,0,0,1,.09-.29.56.56,0,0,1,.46-.16c0,.77-1,.93-1,1.71a.73.73,0,0,0,.54.24h0c.54.39.62-.54,1.08-.44a8.77,8.77,0,0,1-.54.81.89.89,0,0,0,.51.47,1.29,1.29,0,0,0,.48.06,2.33,2.33,0,0,1,.77-.85.31.31,0,0,1-.08.35c-.24.54-.32.73-.13.88a.88.88,0,0,0,0,.23c.39.26.89.17,1.32.33h.18a1.56,1.56,0,0,1,.2.16c.09.1.35-.06.45-.26h0a1.21,1.21,0,0,0,.34-.49h0a1.36,1.36,0,0,1-.36.5,2.55,2.55,0,0,1,.39.24h0a.5.5,0,0,0,.26.13c.28.14.54.14.88-.42.11-.21.16-.16.2,0s-.09.24,0,.31a.3.3,0,0,0,.13.09c.09.15.25.19.33,0,.26-.5.69-.36,1.08-.35a1.07,1.07,0,0,1,.46.41,2.44,2.44,0,0,1-.13,1.62,4.37,4.37,0,0,1-1.22,1.75,4.22,4.22,0,0,1-5.73-.22Zm47.92-27a2.47,2.47,0,0,1-1.29-.59,2.23,2.23,0,0,1-.54-.69,2.46,2.46,0,0,1,.42-2.7,8.94,8.94,0,0,1,1.8-1.56h.11a1.51,1.51,0,0,0,.79-.36h0a3.7,3.7,0,0,0,1.82-1.82l-.08-.07h0a0,0,0,0,1,0,0h0v.12a5.69,5.69,0,0,0,1-2.07h0a3,3,0,0,0,.54-1.55.33.33,0,0,1,.08-.25.77.77,0,0,0,.2-.66h0A.68.68,0,0,0,248,215v0a9.7,9.7,0,0,0,.07-4.45h0a8.17,8.17,0,0,0-.17-.86,4.58,4.58,0,0,0-.15-.49.58.58,0,0,0-.08-.22l-.1-.22a6.22,6.22,0,0,0-2.66-3,17.65,17.65,0,0,0-8.7-2.27,37.11,37.11,0,0,0-10.43,1.35l-.59.09a18.61,18.61,0,0,1-3.11.86,2.4,2.4,0,0,0,.37-.25c.2-.1.39-.22.59-.31a.76.76,0,0,1,.3,0,4.34,4.34,0,0,1,1.52-.59c1.23-.71,2.67-.9,3.93-1.54a1.13,1.13,0,0,0,.92-.23h0a22.09,22.09,0,0,0,3-.69v0a1,1,0,0,0,.89-.22h0l4.55-.35h1.25a8.4,8.4,0,0,0,2.28.4,17,17,0,0,1,3.58,1.34,13.4,13.4,0,0,1,3.09,2.41l.24.25a13.1,13.1,0,0,1,1.94,2.8l.79,1.85a14.09,14.09,0,0,1,.67,3c.65,4.79-1.21,8.73-3.88,12.42a4.69,4.69,0,0,1-5,1.76Zm-6.64-36.43h0a.78.78,0,0,1,.35-.18l.66-.54,2.34-1v-.07h0a5.35,5.35,0,0,0,1.49-.2h.44a.61.61,0,0,0,.39.17,5.21,5.21,0,0,1,2.47,1.15h0l.31.36a5.06,5.06,0,0,1,.82,4.42h0c-2.13-3.78-5.37-4.88-9.37-4.19l.1.09ZM249.75,76.52h0a2.24,2.24,0,0,0,.54.72c.08.13.14.27.21.41l.35,1.14a4.4,4.4,0,0,1,.07.89c0,.49-.08,1-.08,1.49a.39.39,0,0,1-.34-.11,9.73,9.73,0,0,0-.66-1,7.35,7.35,0,0,0-6.36-3.28h-.86a3.76,3.76,0,0,1-.88.09l-.14.08a.34.34,0,0,1-.12-.12h0a10.66,10.66,0,0,1,3.14-1.44,5.82,5.82,0,0,1,5.14,1.15Zm-17,25.45a.82.82,0,0,1,.36-.21l.35-.51h0v0l.05.06.27-.18.28-.25.31-.26h0a5.14,5.14,0,0,1,4.86-.18h0a3.23,3.23,0,0,0,.72.66,2.86,2.86,0,0,1,.24.42l.06.1a6,6,0,0,1,.49,1.76.73.73,0,0,1-.08.33c-2.81-2.46-3.3-2.54-7.89-1.69Zm-.54,15.75.32-.22.65-.86h-.07l.07-.06v.1a1.15,1.15,0,0,0,.61-.54h0a1.87,1.87,0,0,1,.29-.2h.1a1,1,0,0,0-.1.17,6.2,6.2,0,0,1,2.9-.6,4,4,0,0,1,2.22,1.2,5.13,5.13,0,0,1,.89,2.27h0c-2.55-2.29-5.24-2.19-8.1-.71a1.56,1.56,0,0,1,.21-.54Zm22,40.23h0c.19.27.37.54.54.83a.41.41,0,0,0,.07.15h-.09c-4.06-1.56-7.2-.2-9.88,2.78v-.25a.49.49,0,0,1,.11-.14,9.71,9.71,0,0,1,1.3-3h0a1.17,1.17,0,0,0,.54-.6h0a6.38,6.38,0,0,1,3-1.56.57.57,0,0,0-.14-.13h.07l.13.12a7.11,7.11,0,0,1,2.43.34l.59.32.31.3V157h0l.26.24.25.14.23.25a.55.55,0,0,0,.27.34Zm-13.75-8.43v-.07a10.41,10.41,0,0,1,1.86-3.88h0a1.46,1.46,0,0,0,.64-.59h0a2.22,2.22,0,0,0,.87-.58,1.3,1.3,0,0,0,.88-.35h0a15.22,15.22,0,0,1,2.7,0h0a.67.67,0,0,0,.59.29.73.73,0,0,0,.51.28l.35.29a1.27,1.27,0,0,0,.27.25,6.18,6.18,0,0,1,1.19,1.68c-4.08-1.62-7.25-.31-9.93,2.77v-.11Zm3.87-18.36c-.31.31-.57-.07-.86-.22h0A7.82,7.82,0,0,0,235,133.6a3.42,3.42,0,0,1-.43.42l-.13.07a.4.4,0,0,1-.11-.19,1.9,1.9,0,0,1,.1-.46l.2-.22a10.24,10.24,0,0,1,.71-1.94h0a12.3,12.3,0,0,1,2.41-2.37h0a1,1,0,0,0,.28-.11.66.66,0,0,0,.57-.24h0v0h0v.11a6,6,0,0,1,3.92.6h0a.36.36,0,0,0,.31.27l-.31-.27h0l.3.26,1.4,1.69h.07ZM238,86.8l1.79-.63h0l2.8,0a.76.76,0,0,0-.11-.14h0a.52.52,0,0,1,.1.11,9.28,9.28,0,0,1,2.32,1.44v.13a11,11,0,0,1,.81,1.9,6.77,6.77,0,0,1-.13,2.65l-.07-.08c-2-3.87-5.17-4.93-9-4.53.33-.43,1-.46,1.28-.88a.41.41,0,0,0,.22,0l-.11-.09h0l.12,0ZM109.5,121.36l-.16-.09h.07Zm-2.58-20h0a.12.12,0,0,0,.17,0h.37a2.94,2.94,0,0,0-.42,0,2,2,0,0,0,1,.26h0a.69.69,0,0,0,.24.24,2,2,0,0,1,.32,1.19l-2.9-1.31c.29-.31.82-.1,1.13-.38v0Zm-4,27.7H103a23.55,23.55,0,0,1,4.23-2.74h0a3.74,3.74,0,0,0,1.54-.54l-.09-.08h0l0,.06.28-.11a.47.47,0,0,1,.4-.23,4.52,4.52,0,0,0,2-1.53,14.47,14.47,0,0,0,2.59-4.63l.3-.74a3.47,3.47,0,0,0,.54-1.62,1.09,1.09,0,0,1,.12-.36,1.69,1.69,0,0,0,.2-.57h0l.12-.47a1.19,1.19,0,0,1,.1-.87,1.19,1.19,0,0,1,.07.87h0a20.29,20.29,0,0,1-1.37,8.3,5.6,5.6,0,0,1-5.09,3.85,12,12,0,0,0-6,2.31l-1.13.75c-.09.38-.46.48-.84.89a1.32,1.32,0,0,1,.09-.3h0a5.72,5.72,0,0,1,1.48-1.58c.13-.18.25-.37.36-.54h-.08Zm-2.64,52.15v.17l-.06-.12h0Zm-6.71,1.68a31.06,31.06,0,0,1,5.19-1.48.08.08,0,0,1,0-.07h.08a.28.28,0,0,0,0,.13,34.75,34.75,0,0,1,7.21.3,1.21,1.21,0,0,0,.9.21h0v.09h.28a.84.84,0,0,0,.58.24v-.08h0v.07a17.63,17.63,0,0,0,1.86.62l.27.13.24.23h.17l.48.34c-5.28-1-10.13-.89-14.62,1.86S89.48,192.28,88,197a1.51,1.51,0,0,1,0-.6,26.3,26.3,0,0,1,1.21-8.21,9.57,9.57,0,0,1,2.44-4.06h0c.6-.41,1.21-.8,1.82-1.19l-.13-.1h0Zm121,62.32a5.1,5.1,0,0,1-5.23-2.37c-.08-.13-.15-.26-.24-.39l-.29-.43c-1.71,1-3.36.44-5,0-3.52-.94-7.64-5.37-7-10.39l.54-2.31v-.07l1.32-1.93.08-.1a.77.77,0,0,0,.1-.69,1.21,1.21,0,0,0-.25-.82,7.12,7.12,0,0,1-1-2.75,7.25,7.25,0,0,1,.3-2.7v-.1a3.5,3.5,0,0,0,.84-1h0l.06-.13.14-.11H199a.68.68,0,0,0,.54-.35,1.09,1.09,0,0,1-.25-.1h0a.77.77,0,0,0,.25.1h0l2.35-.8h.72v-.07l2.06.35h0a2,2,0,0,0,1,.56.67.67,0,0,1-.26.54c-.06,0,0,.09.11.14s.09.31.54.39h0c-.42.23-1.38,0-1.23.54v.11a.38.38,0,0,0,0,.41c-.09.37-.43.54-.63.71a.43.43,0,0,0,0,.6s0,0,0,0a1.09,1.09,0,0,0,.14.31l.07,0a.23.23,0,0,1-.1.21,1.08,1.08,0,0,0-.54.59.82.82,0,0,0-.12.32.76.76,0,0,1-.08.33l.09.07c0,.13.14.21.41.18s.68-.15.74.2v.06a1.55,1.55,0,0,1-.76.34c-.39.11-.65.28-.66.72a1.25,1.25,0,0,0,0,.51v.2h1.38c-.57.52-1.92.52-1.18,1.85h.13l.3.32a1.15,1.15,0,0,1,.78-.44,1.82,1.82,0,0,1-.76.64h0a.66.66,0,0,0-.19.92.32.32,0,0,0,.17.22c.31.41.64,0,1-.1a.09.09,0,0,1,0-.07.34.34,0,0,1,.3.17l-.28.13c-.67.6-.87.79-.7,1.08a.38.38,0,0,0,0,.15.08.08,0,0,0,0,.07.43.43,0,0,0,.54.22c.49-.17,1-.38,1.45-.59l.13.08h.14a2.76,2.76,0,0,1-1.26.84c-.15.24-.5.44-.4.74a1.15,1.15,0,0,0,0,.37c.27.06.7.07.84-.2h0l.59-.12.42-.17h0a.44.44,0,0,0,0,.32,2.41,2.41,0,0,0,.51-.25,1.75,1.75,0,0,0,.23-.24h0a1.12,1.12,0,0,1-.2.18,2.41,2.41,0,0,1-.51.25L206,233a.27.27,0,0,0-.17.1.38.38,0,0,0-.14.33h0v.17c.25.69.71.77,1.36.31a2.42,2.42,0,0,1,.39-.21c.2-.15.43-.33.58-.46a.39.39,0,0,1,.3-.12,6.39,6.39,0,0,1-1.26,1.53c-.15.13-.29.27-.25.46a.39.39,0,0,0,.1.31c.28.39.54.15.73-.17h.08a1.43,1.43,0,0,0,.73-.45l.23-.14h.22c.13-.22.27-.33.4-.28a.24.24,0,0,1,0,.29h-.07l-.12.19,0,0a9.42,9.42,0,0,0-.79.72c-.26.27-.39.44-.24.68a.6.6,0,0,0,.23.54c.44.44.7,0,1-.2l.23-.18a2.64,2.64,0,0,1,.41-.58.47.47,0,0,1,.24-.15,2.19,2.19,0,0,1-.38.87c-.14.24-.48.44-.26.76a.38.38,0,0,0,0,.47.67.67,0,0,0,.87.12c.22-.19.42-.4.63-.6a3.6,3.6,0,0,1,.45-.58.35.35,0,0,1,.27-.11,1.43,1.43,0,0,1-.48.84c0,.28-.62.51-.17.8l.1.06c-.11.54.21.65,1.17.49a.24.24,0,0,1,.21-.26h0c.2-.31.22-.88.76-.7-.09.35-.36.63-.38,1l-.09.09a1.22,1.22,0,0,1-.06.26.77.77,0,0,1,.08.27h.82l.43-.84h.48l.11-.21h0l-.11.21h.2c.07.31-.33.5-.26.79l.13.06a1,1,0,0,0,0,.34c.48.08.89,0,1.08-.45a1.22,1.22,0,0,0,.24-.27c.14-.15.29-.31.32-.27a.52.52,0,0,1,.16.35v.35h0c0,.35.27.42.45.16a10.43,10.43,0,0,0,.75-1h0v.09c.22.09.22.3.28.48s.21.22.29,0a.61.61,0,0,1,.27-.36h0a.64.64,0,0,0-.24.36h.31a3,3,0,0,0,.47,1.18.54.54,0,0,1,0,.18,6.22,6.22,0,0,1-.54,1.68c0,.11-.11.21-.17.32l-.13.23A5.18,5.18,0,0,1,214.54,245.21Zm29.19-70.14.11-.2.25-.2a8.67,8.67,0,0,1,5.74-1.33l0,.07a.77.77,0,0,0,.61.23h0a2.17,2.17,0,0,0,.94.54v.07l.09.09h0l.13.11.38.36h0l.06.07a9.88,9.88,0,0,1,.54.94,5.83,5.83,0,0,1,.26,3.43l-.19-.15c-2-3.63-5.19-4.56-9-4.06Zm-131.47,4.51h.06a1.5,1.5,0,0,0-.3,0Zm-11.34,61h.15a.49.49,0,0,0-.17,0Zm20.52,34.36v-.09h.06l-.06.13ZM177.78,166h0l.14-.13h0A.29.29,0,0,1,177.78,166Zm-45.7,126-.08-.18h0l.07.18Z"/>
              <path class="cls-19" d="M107.81,252.36a.6.6,0,0,0,.24.62A.6.6,0,0,0,107.81,252.36Z"/>
              <path class="cls-20" d="M250.7,228.32l-.24.24A.26.26,0,0,0,250.7,228.32Z"/>
              <path class="cls-21" d="M101.31,153.81a.39.39,0,0,0,.33.31A.43.43,0,0,0,101.31,153.81Z"/>
              <path class="cls-22" d="M83.74,221.94l-.23-.27A.29.29,0,0,0,83.74,221.94Z"/>
              <path class="cls-23" d="M125.12,105.72l.33-.32A.38.38,0,0,0,125.12,105.72Z"/>
              <path class="cls-24" d="M109.38,125.5a.42.42,0,0,0-.4.23A.44.44,0,0,0,109.38,125.5Z"/>
              <path class="cls-25" d="M116.27,237.09c-.13-.11-.23-.11-.23.06h.09Z"/>
              <path class="cls-26" d="M234,100.81l-.28.23A.33.33,0,0,0,234,100.81Z"/>
              <path class="cls-27" d="M194.27,161.46a.41.41,0,0,0,.45-.37v-.23h0c0-.3-.2-.43-.49-.43s-.41.26-.35.54a.13.13,0,0,0,.08.12A.38.38,0,0,0,194.27,161.46Z"/>
              <path class="cls-28" d="M225.72,231.72a1.33,1.33,0,0,1,1-.7c.48-.16.7-.42.66-.75a1.16,1.16,0,0,0-.3-.82c-.16-.2-.54-.27-.5-.54a.31.31,0,0,0,.14-.28l-.07.09v-.05a3.38,3.38,0,0,0,0-.45l.07.09a.33.33,0,0,0-.09-.23c-.13-.62-.54-.86-1.28-.59a1.33,1.33,0,0,1-1,0c-1-.28-1.18.09-1.25.6a.61.61,0,0,0,0,.42c0,.47-.06,1-.47,1.08s-.27.48-.12.8.33.49,1,.69a1.54,1.54,0,0,1,.75.63C224.69,232.4,225.27,232.45,225.72,231.72Zm-.54-2.38a.83.83,0,0,1,.08.12.31.31,0,0,1-.21.39.2.2,0,0,1-.11,0,.52.52,0,0,1-.31-.16c0-.27.24-.35.51-.35Z"/>
              <path class="cls-29" d="M224.78,224.52a1,1,0,0,0,0,1.14A1,1,0,0,0,224.78,224.52Z"/>
              <path class="cls-30" d="M116,241a.49.49,0,0,0,.24.14v.59a.37.37,0,0,1,.31.3.54.54,0,0,0,.6-.33l-.79-.51h.06a1.33,1.33,0,0,0-.3-.59h0a1.3,1.3,0,0,0-.32-.3,1,1,0,0,0,0,.35l-.18.15Z"/>
              <path class="cls-31" d="M136.87,177.66c-.12-.1-.25-.18-.38-.27a4.17,4.17,0,0,0,.5,0c-1.29-.54-2.55-1.08-3.83-1.56h-.06a.45.45,0,0,0-.54.33.43.43,0,0,0,.07.48.41.41,0,0,0,.32.29C134.27,177,135.46,177.77,136.87,177.66Z"/>
              <path class="cls-32" d="M138.86,190.38h.06a.34.34,0,0,0,.41-.23h0a.24.24,0,0,1,0-.12.74.74,0,0,0,.07-.21.21.21,0,0,1,0-.11,14.6,14.6,0,0,0,.75-2.6,6.67,6.67,0,0,0,.19-.91c-1,1.18-1.08,2.47-1.85,3.41,0,0,0,.07-.05.1a.42.42,0,0,0,.08.36A.58.58,0,0,0,138.86,190.38Z"/>
              <path class="cls-33" d="M152.05,178.35a1.75,1.75,0,0,0,1.39-.5h0l2.08-1a.11.11,0,0,1,0-.08h0v.08c.4,0,.89-.17.8-.6a.54.54,0,0,0-.07-.13.2.2,0,0,0,0-.11.33.33,0,0,0-.07-.13.39.39,0,0,0-.54-.1h0c-1.11.88-2.51,1.28-3.78,2.39l.34-.1A.76.76,0,0,0,152.05,178.35Z"/>
              <path class="cls-34" d="M207,232.3l-.36.19A.36.36,0,0,0,207,232.3Z"/>
              <path class="cls-35" d="M195.84,193.77a.29.29,0,0,0,.25.33.26.26,0,0,0,.15,0,.31.31,0,0,0,.21-.35.64.64,0,0,0-.08-.14c0-.15-.09-.17-.25-.22a.22.22,0,0,0-.28.12h0a.14.14,0,0,0,0,.09h0a.33.33,0,0,0,0,.14Z"/>
              <path class="cls-36" d="M200.63,196.32h.07a.21.21,0,0,0,.07-.29h0c0-.1-.16-.1-.23-.1a.24.24,0,0,0-.16.28s0,0,0,0A.25.25,0,0,0,200.63,196.32Z"/>
              <path class="cls-37" d="M197.64,195.48a.06.06,0,0,0,0,.06.24.24,0,0,0,.31.08.19.19,0,0,0,.11-.21.16.16,0,0,0,.06-.21.23.23,0,0,0-.23-.24h-.08a.24.24,0,0,0-.17.28h0A.16.16,0,0,0,197.64,195.48Z"/>
              <path class="cls-38" d="M148.84,119.3l-.35-.21A.35.35,0,0,0,148.84,119.3Z"/>
            </g>
          </g>
        </g>
      </g>
    </g>
  </g>
</svg>
