<svg xmlns="http://www.w3.org/2000/svg" xmlns:xlink="http://www.w3.org/1999/xlink" width="324" height="324" viewBox="0 0 324 324">
  <defs>
    <style>
      .cls-1 {
        opacity: 0;
      }

      .cls-2 {
        fill: none;
      }

      .cls-3 {
        fill: url(#Degradado_sin_nombre_34);
      }

      .cls-4 {
        fill: url(#Degradado_sin_nombre_34-2);
      }

      .cls-5 {
        fill: url(#Degradado_sin_nombre_34-3);
      }

      .cls-6 {
        fill: url(#Degradado_sin_nombre_34-4);
      }

      .cls-7 {
        fill: url(#Degradado_sin_nombre_34-5);
      }

      .cls-8 {
        fill: url(#Degradado_sin_nombre_34-6);
      }

      .cls-9 {
        fill: url(#Degradado_sin_nombre_34-7);
      }

      .cls-10 {
        fill: url(#Degradado_sin_nombre_34-8);
      }

      .cls-11 {
        fill: url(#Degradado_sin_nombre_34-9);
      }

      .cls-12 {
        fill: url(#Degradado_sin_nombre_34-10);
      }

      .cls-13 {
        fill: url(#Degradado_sin_nombre_34-11);
      }

      .cls-14 {
        fill: url(#Degradado_sin_nombre_34-12);
      }

      .cls-15 {
        fill: url(#Degradado_sin_nombre_34-13);
      }

      .cls-16 {
        fill: url(#Degradado_sin_nombre_34-14);
      }

      .cls-17 {
        fill: url(#Degradado_sin_nombre_34-15);
      }

      .cls-18 {
        fill: url(#Degradado_sin_nombre_34-16);
      }

      .cls-19 {
        fill: url(#Degradado_sin_nombre_34-17);
      }

      .cls-20 {
        fill: url(#Degradado_sin_nombre_34-18);
      }

      .cls-21 {
        fill: url(#Degradado_sin_nombre_34-19);
      }

      .cls-22 {
        fill: url(#Degradado_sin_nombre_34-20);
      }

      .cls-23 {
        fill: url(#Degradado_sin_nombre_34-21);
      }

      .cls-24 {
        fill: url(#Degradado_sin_nombre_34-22);
      }

      .cls-25 {
        fill: url(#Degradado_sin_nombre_34-23);
      }

      .cls-26 {
        fill: url(#Degradado_sin_nombre_34-24);
      }

      .cls-27 {
        fill: url(#Degradado_sin_nombre_34-25);
      }

      .cls-28 {
        fill: url(#Degradado_sin_nombre_34-26);
      }

      .cls-29 {
        fill: url(#Degradado_sin_nombre_34-27);
      }

      .cls-30 {
        fill: url(#Degradado_sin_nombre_34-28);
      }

      .cls-31 {
        fill: url(#Degradado_sin_nombre_34-29);
      }

      .cls-32 {
        fill: url(#Degradado_sin_nombre_34-30);
      }

      .cls-33 {
        fill: url(#Degradado_sin_nombre_34-31);
      }

      .cls-34 {
        fill: url(#Degradado_sin_nombre_34-32);
      }

      .cls-35 {
        fill: url(#Degradado_sin_nombre_34-33);
      }

      .cls-36 {
        fill: url(#Degradado_sin_nombre_34-34);
      }
    </style>
    <linearGradient id="Degradado_sin_nombre_34" data-name="Degradado sin nombre 34" x1="103.36" y1="279.39" x2="104.09" y2="279.39" gradientTransform="translate(-6 -94.01)" gradientUnits="userSpaceOnUse">
      <stop offset="0.05" stop-color="#957e41"/>
      <stop offset="0.21" stop-color="#d8bc63"/>
      <stop offset="0.49" stop-color="#dfc46b"/>
      <stop offset="0.74" stop-color="#c6a95a"/>
      <stop offset="0.98" stop-color="#7a6834"/>
    </linearGradient>
    <linearGradient id="Degradado_sin_nombre_34-2" x1="109.76" y1="280.14" x2="110.16" y2="280.14" xlink:href="#Degradado_sin_nombre_34"/>
    <linearGradient id="Degradado_sin_nombre_34-3" x1="148.88" y1="306.05" x2="149.8" y2="306.05" xlink:href="#Degradado_sin_nombre_34"/>
    <linearGradient id="Degradado_sin_nombre_34-4" x1="37.85" y1="281.37" x2="298.5" y2="281.37" xlink:href="#Degradado_sin_nombre_34"/>
    <linearGradient id="Degradado_sin_nombre_34-5" x1="294.04" y1="225.39" x2="296.12" y2="225.39" xlink:href="#Degradado_sin_nombre_34"/>
    <linearGradient id="Degradado_sin_nombre_34-6" x1="140.98" y1="300.29" x2="141.56" y2="300.29" xlink:href="#Degradado_sin_nombre_34"/>
    <linearGradient id="Degradado_sin_nombre_34-7" x1="201.55" y1="383" x2="201.96" y2="383" xlink:href="#Degradado_sin_nombre_34"/>
    <linearGradient id="Degradado_sin_nombre_34-8" x1="202.48" y1="386.3" x2="202.7" y2="386.3" xlink:href="#Degradado_sin_nombre_34"/>
    <linearGradient id="Degradado_sin_nombre_34-9" x1="273.73" y1="250.96" x2="274.14" y2="250.96" xlink:href="#Degradado_sin_nombre_34"/>
    <linearGradient id="Degradado_sin_nombre_34-10" x1="138.93" y1="286.26" x2="139.22" y2="286.26" xlink:href="#Degradado_sin_nombre_34"/>
    <linearGradient id="Degradado_sin_nombre_34-11" x1="250.19" y1="251.83" x2="250.43" y2="251.83" xlink:href="#Degradado_sin_nombre_34"/>
    <linearGradient id="Degradado_sin_nombre_34-12" x1="201.33" y1="366.57" x2="201.56" y2="366.57" xlink:href="#Degradado_sin_nombre_34"/>
    <linearGradient id="Degradado_sin_nombre_34-13" x1="202.19" y1="386.76" x2="202.46" y2="386.76" xlink:href="#Degradado_sin_nombre_34"/>
    <linearGradient id="Degradado_sin_nombre_34-14" x1="201.91" y1="387.04" x2="202.19" y2="387.04" xlink:href="#Degradado_sin_nombre_34"/>
    <linearGradient id="Degradado_sin_nombre_34-15" x1="258.86" y1="261.91" x2="259.05" y2="261.91" xlink:href="#Degradado_sin_nombre_34"/>
    <linearGradient id="Degradado_sin_nombre_34-16" x1="287.39" y1="230.51" x2="287.7" y2="230.51" xlink:href="#Degradado_sin_nombre_34"/>
    <linearGradient id="Degradado_sin_nombre_34-17" x1="74.83" y1="257.69" x2="75.4" y2="257.69" xlink:href="#Degradado_sin_nombre_34"/>
    <linearGradient id="Degradado_sin_nombre_34-18" x1="100.76" y1="280.92" x2="101.69" y2="280.92" xlink:href="#Degradado_sin_nombre_34"/>
    <linearGradient id="Degradado_sin_nombre_34-19" x1="107.7" y1="278.5" x2="108.26" y2="278.5" xlink:href="#Degradado_sin_nombre_34"/>
    <linearGradient id="Degradado_sin_nombre_34-20" x1="110.07" y1="280.34" x2="110.3" y2="280.34" xlink:href="#Degradado_sin_nombre_34"/>
    <linearGradient id="Degradado_sin_nombre_34-21" x1="108.62" y1="310.34" x2="109.65" y2="310.34" xlink:href="#Degradado_sin_nombre_34"/>
    <linearGradient id="Degradado_sin_nombre_34-22" x1="106.28" y1="310.93" x2="106.85" y2="310.93" xlink:href="#Degradado_sin_nombre_34"/>
    <linearGradient id="Degradado_sin_nombre_34-23" x1="103.97" y1="310.31" x2="104.56" y2="310.31" xlink:href="#Degradado_sin_nombre_34"/>
    <linearGradient id="Degradado_sin_nombre_34-24" x1="102.69" y1="309.07" x2="103.02" y2="309.07" xlink:href="#Degradado_sin_nombre_34"/>
    <linearGradient id="Degradado_sin_nombre_34-25" x1="92.7" y1="295.76" x2="93.89" y2="295.76" xlink:href="#Degradado_sin_nombre_34"/>
    <linearGradient id="Degradado_sin_nombre_34-26" x1="70.98" y1="261.37" x2="71.15" y2="261.37" xlink:href="#Degradado_sin_nombre_34"/>
    <linearGradient id="Degradado_sin_nombre_34-27" x1="71.76" y1="260.26" x2="71.85" y2="260.26" xlink:href="#Degradado_sin_nombre_34"/>
    <linearGradient id="Degradado_sin_nombre_34-28" x1="264.01" y1="216.9" x2="264.13" y2="216.9" xlink:href="#Degradado_sin_nombre_34"/>
    <linearGradient id="Degradado_sin_nombre_34-29" x1="118.57" y1="294.45" x2="119.81" y2="294.45" xlink:href="#Degradado_sin_nombre_34"/>
    <linearGradient id="Degradado_sin_nombre_34-30" x1="156.9" y1="308.94" x2="157.64" y2="308.94" xlink:href="#Degradado_sin_nombre_34"/>
    <linearGradient id="Degradado_sin_nombre_34-31" x1="108.64" y1="292.33" x2="108.95" y2="292.33" xlink:href="#Degradado_sin_nombre_34"/>
    <linearGradient id="Degradado_sin_nombre_34-32" x1="228.7" y1="276.15" x2="229.05" y2="276.15" xlink:href="#Degradado_sin_nombre_34"/>
    <linearGradient id="Degradado_sin_nombre_34-33" x1="177.63" y1="264" x2="177.84" y2="264" xlink:href="#Degradado_sin_nombre_34"/>
    <linearGradient id="Degradado_sin_nombre_34-34" x1="71.13" y1="267.37" x2="71.48" y2="267.37" xlink:href="#Degradado_sin_nombre_34"/>
  </defs>
  <title>EL PERRO</title>
  <g id="Capa_2" data-name="Capa 2">
    <g id="Capa_1-2" data-name="Capa 1">
      <g id="Capa_1-2-2" data-name="Capa 1-2">
        <g>
          <g class="cls-1">
            <rect class="cls-2" width="324" height="324"/>
          </g>
          <g id="Capa_1-2-2-2" data-name="Capa 1-2-2">
            <g>
              <path class="cls-3" d="M97.68,185h-.06a.31.31,0,0,0-.25.38h0a.35.35,0,0,0,.39.3h0a.38.38,0,0,0,.32-.41A.38.38,0,0,0,97.68,185Z"/>
              <path class="cls-4" d="M104.15,186.09a.23.23,0,0,0-.28-.16c-.06,0-.11.14-.11.22a.14.14,0,0,0,0,.09.18.18,0,0,0,.25.08h0a.28.28,0,0,0,.12-.2Z"/>
              <path class="cls-5" d="M143.36,211.81a.36.36,0,0,0-.46.17c-.08.18.23.32.44.32l.18-.2a1.31,1.31,0,0,0,.28,0C143.73,211.75,143.56,211.75,143.36,211.81Z"/>
              <path class="cls-6" d="M291,137.7a8.27,8.27,0,0,0,1.53-.42,8.44,8.44,0,0,0-2.35.33l.27.12h0l-.27-.12q-.48,0-1,0l-10,1.31a2.33,2.33,0,0,1-1.05,0c0-.08.11-.19.14-.27a.81.81,0,0,0,0-.22h0a.67.67,0,0,1,0,.2,21.51,21.51,0,0,0,2.91-2h.18l.3-.26a63.92,63.92,0,0,0,5.55-3.72h.06a.93.93,0,0,0,.76-.6,1.86,1.86,0,0,0-.65.15.23.23,0,0,0-.25-.21h0l-2.51,1.57a.47.47,0,0,1,.26,0h0a.55.55,0,0,0-.31,0l-6.79,3.78a6.52,6.52,0,0,1-1,.54.68.68,0,0,1-.21-.17,4,4,0,0,0-1.23-1.08h0c-1.32-1.35-2.61-2.77-4.05-4a1.85,1.85,0,0,0-.84-.84h0l-.05-.06h0a.91.91,0,0,0-.54-.56v.05h0v-.06l-.88-.86h0a2.21,2.21,0,0,0-.81-.85v-.08c-.21-.3-.4-.63-.81-.68h0a1.2,1.2,0,0,0-.59-.28c0,.9-.38,1.48-1.25,1.53a.53.53,0,0,1,0-.25,1.05,1.05,0,0,0,.23-.87h-.27v-.07h.23a.09.09,0,0,1,0,.07,2.83,2.83,0,0,0-.26-2.7,3.28,3.28,0,0,0-2.09-2.2h0v-.06h-.16l-.4-.2h0a1.47,1.47,0,0,1-.33-1.21l.09-1.15a.6.6,0,0,0-.19,0h.18c.5-.78-.19-1.08-.64-1.43h0l-.24-.38h-.1a1.78,1.78,0,0,0-.36-.25c-.54.48-.37,1.35-1,1.91a.73.73,0,0,1,0-.36,6.2,6.2,0,0,0,.11-2.23h0c.22.11.39.36.64.23.13.06.25,0,.3-.42-.08-.11-.19-.29-.28-.29h0V118a2.38,2.38,0,0,1-.95-.16,2.52,2.52,0,0,1-.71-.54h0l-1.08-1.08h0a.45.45,0,0,0-.27-.31h0l-.05-.06h.05a1.17,1.17,0,0,0-.54-.58h0l-.24-.27h0a21.45,21.45,0,0,0-2-2.33h0a.35.35,0,0,0-.27-.28.82.82,0,0,0-.32-.54.48.48,0,0,0,0,.17l-.08-.1v-.07a46,46,0,0,0-5.75-6.63h0l-.54-.57h0a3,3,0,0,0-1.18-1.17l-4.32-4.59h0l-.62-.78L241,96.64a6.73,6.73,0,0,0-1.33-1.8h0a.22.22,0,0,0-.1-.18h0a2.31,2.31,0,0,0-.73-1v.14h0v-.11a16.21,16.21,0,0,0-1.78-2.5v.15h0v-.26c-1.17-1.77-2.37-3.52-3.72-5.19h0a34.57,34.57,0,0,0-3.46-4.8h0l-.31-.27h0a2.77,2.77,0,0,0-.35-.33,15.11,15.11,0,0,0-.14,3.36c0,.7-.15,1.08-1,1-.18,0-.38-.07-.51.22.47,2.26,1,4.59,1.43,7-1-.06-1.67-.68-2.5-.68a1.34,1.34,0,0,0,0,1.26l.87,2.88c.1.33.38.75.27,1-.72,1.39-.08,2.7.11,4.08,0,.18.09.44,0,.54-.69.9-.16,1.84-.11,2.75.06,1.12.4,2.21.4,3.54l-.34-.26a1.61,1.61,0,0,0-.54-.43l-.84-.67a5.3,5.3,0,0,0-.54-.39l-1.13-.88a1.93,1.93,0,0,0-.28-.22l-.62-.48a3.55,3.55,0,0,0-1-.72l-1.61-1.24a17.89,17.89,0,0,0-1.92-1.45l-.88-.71-.17-.13-.69-.54a7.44,7.44,0,0,0-1-.71L216,98a5.56,5.56,0,0,0-.54-.42l-2.07-1.62a10.83,10.83,0,0,0-1.38-1l-.45-.34A12.68,12.68,0,0,0,210,93.43l-.33-.25h0a9.1,9.1,0,0,0-1.92-1.46l-1.7-1.24a1.28,1.28,0,0,0-.46-.34l-.54-.39a1,1,0,0,0-.16-.12L204,89l-.41-.29-.61-.45a5.44,5.44,0,0,0-1.27-1l-1-.78c.5,2.41,1,4.59,1.47,6.8-.54.1-1-.35-1.53,0,.88,2.75,2.7,5.13,4,7.67-.54.42-1.32-.35-1.62.23s.29,1.14.54,1.69a5.09,5.09,0,0,0,.3.5l2.41,3.6c-.48.29-1.08-.12-1.53.42a3.55,3.55,0,0,0,1,1.5,60.54,60.54,0,0,0,4.26,4.51l.14.1a1,1,0,0,1,.11,1.35h0A167.75,167.75,0,0,1,199.57,131a30.33,30.33,0,0,1-10.87,9.05,125.09,125.09,0,0,1-14.58,6.12c-5.94,2.13-12.1,3.67-18.22,5.34-7.18,1.91-14.26,4.26-21.49,6a88,88,0,0,1-22,2.88c-3.6-.06-7.21.21-10.8.38-4.17.22-8.36.59-12.53.73A21.91,21.91,0,0,1,77.5,159a8.35,8.35,0,0,0-.77-.43l-.71-.38h0l-.34-.24h0c-.21-.13-.42-.27-.63-.43h0a20.33,20.33,0,0,1-1.69-1.38c-.54-.49-1.13-1.28-1.71-1.84-1.49-1.49-2.52-3.34-3.89-4.93a.11.11,0,0,1-.1-.08h0l.11.08a.39.39,0,0,0-.26-.34v.1h0V149h0l-2.38-4h0a4.31,4.31,0,0,0-.79-1.44h0A13,13,0,0,0,63.1,141h0A13.43,13.43,0,0,0,62,138.11h0a.26.26,0,0,0-.1-.26H62a1,1,0,0,0-.24-.87h0l-.83-3.75h0a8.57,8.57,0,0,0-.32-2.3v-.29a.71.71,0,0,1-.27-.54v-.62h0v-.06h0a.06.06,0,0,1,0,.06v.62a.71.71,0,0,0,.27.54v-6.76a.23.23,0,0,0,0-.2h0l0-.31h0a2,2,0,0,0,.15-1.62v-.07a44,44,0,0,1,5.41-14.76.72.72,0,0,1-.2-.19h0a.61.61,0,0,0,.19.17,2,2,0,0,0,.63-1.12h0a3.27,3.27,0,0,0,.79-1.19,1.28,1.28,0,0,0,0-.39l.06-.09a3.84,3.84,0,0,1,0,.48,1.79,1.79,0,0,0,.65-1.08h0v-.22a1.74,1.74,0,0,1,0,.22,9.12,9.12,0,0,0,1.75-2.21l-.11-.11h-.17v0h.16a.48.48,0,0,1,.06-.29v-.07a2.57,2.57,0,0,0-.08.38l.11.11,4.26-4.93v-.06l4.56-4.37-.29-.12v-.1a2.44,2.44,0,0,0-1.25-.22,42.25,42.25,0,0,0-7.79.29,26,26,0,0,0-9.82,3.11A12.86,12.86,0,0,0,54,101.71a17.46,17.46,0,0,0-1.08,6.07v2.46h0c0-.09-.08-.19-.11-.28a.66.66,0,0,0-.19-.5h0c-.54-2.24-1.28-4.44-2-6.71-.07.07-.11.15-.18.22l-.19-.58c-2.93,5.16-2.7,10.48-2.08,15.86l-.12-.12h0L44,112.37v.13h0v-.1a22.29,22.29,0,0,0-2-3l-.06.13-.15-.3a7.07,7.07,0,0,0-.79,1.93,16,16,0,0,0-.11,7.56A42.12,42.12,0,0,0,46,131.67a4.07,4.07,0,0,1,.65,1.36l-.46-.08-.64-.28h-.07c-.26-.13-.5-.25-.74-.39l-1.54-1.16h0a1.11,1.11,0,0,0-.58-.57.36.36,0,0,0-.3-.3h.08c-.69-1-1.42-2.11-2.06-3.11a29,29,0,0,0-1.92-3.44v.17l0-.1c-1.25,1.81-1.34,5.43-1,7.56a24.9,24.9,0,0,0,4.49,10.36,3,3,0,0,1,.71,1.15,1.33,1.33,0,0,1-.34-.1h0a2,2,0,0,1-.54-.14,4.37,4.37,0,0,0-1.08-.54h0a.39.39,0,0,0-.37-.21.14.14,0,0,0,.06.11h0l-.06-.11a25.84,25.84,0,0,1-4-4.57.94.94,0,0,0-.49-.66h0a3.54,3.54,0,0,0-.87-1.32s0,.08-.07.13a.57.57,0,0,0-.38-.14,14.26,14.26,0,0,0,3.38,13.65c.73.83,1.55,1.57,2.33,2.35a.94.94,0,0,1,.64.49,1,1,0,0,1-.54,0v-.12a5.44,5.44,0,0,1-.54-.15h0l-.22,0a3.91,3.91,0,0,1-.57-.31A30.58,30.58,0,0,1,35,148.4a28.29,28.29,0,0,0-2.87-2.49h0l-.13-.12c-.11.13-.16,0-.16.19v.43a16.46,16.46,0,0,0,3.38,8.45,38.09,38.09,0,0,0,8.51,8.35l1.13.83a13.79,13.79,0,0,1-1.8-.3H43c-.84-.18-1.67-.42-2.49-.68l-.72-.22c-.86-.25-1.71-.51-2.59-.69a2.89,2.89,0,0,0,.46,1.85,12.5,12.5,0,0,0,2.09,2.82q2.19,2.07,4.57,3.93a5.6,5.6,0,0,1,1.21.82,3,3,0,0,1-1.3-.43A1.06,1.06,0,0,1,44,171h-.09l-.26-.21c-.33,0-.6-.35-1-.31l-.66-.28a12.05,12.05,0,0,0,4,5.4,27.66,27.66,0,0,0,8.87,4.63,121.64,121.64,0,0,1,11.64,4.65,7.56,7.56,0,0,1,4.78,7.05c.21,4.86.51,9.75,1,14.54a37.32,37.32,0,0,0,1.15,7,8.53,8.53,0,0,1,.06,4.7,39.38,39.38,0,0,1-2.22,5.76,44.27,44.27,0,0,0-2.8,7.56,24.27,24.27,0,0,1-3,7c-.7,1.14-1.41,2.3-2,3.47a12.36,12.36,0,0,0-.83,10.53c.59,1.68,1.29,3.31,2,4.92,3.65,7.81,7.86,15.35,12.14,22.78,2,3.51,4.06,7,6.11,10.45.26.44.4,1,1.08,1h.52a2.12,2.12,0,0,0,.75.1c1,0,2,.17,3,.17a18.28,18.28,0,0,0,3.84-.17c1.22-.21,1.46-.61,1-1.8a5.91,5.91,0,0,0-2-2.88l-.08.07h0l.07-.07a1.77,1.77,0,0,0-1-.8h0a2.54,2.54,0,0,0-.57-.4,3.54,3.54,0,0,1-2.07-2.21c-.5-1.37-1.11-2.7-1.67-4.06h0a1,1,0,0,0-.28-.88h0a1.23,1.23,0,0,0-.26-.85h0a18.69,18.69,0,0,0-1-3.14l-.26-.07h0l.26.07a4.29,4.29,0,0,0-.54-1.78.25.25,0,0,0,0-.24.1.1,0,0,0-.07-.09,1.1,1.1,0,0,0-.16-.77v-.09a55.06,55.06,0,0,0-1.44-5.51h0a1.64,1.64,0,0,0-.25-1.08,1.94,1.94,0,0,0-.26.23h0a1.42,1.42,0,0,1,.22-.2c-.5-2.81-1.13-5.58-1.8-8.35a1.33,1.33,0,0,0-.24-.11h0a.66.66,0,0,1,.24.11,12.84,12.84,0,0,0-.54-3.19h0a3.74,3.74,0,0,1,1.92-4.58,2,2,0,0,0,.86-.59h0A31.93,31.93,0,0,0,86.12,246h0a28,28,0,0,0,3.41-2.12c2.16-1.38,4.38-2.7,6.48-4.26a.75.75,0,0,1-.3-.09h0a1.25,1.25,0,0,0,.26.07,4,4,0,0,0,1.38-.89.37.37,0,0,1-.13-.17h0a.4.4,0,0,0,.13.16,7.33,7.33,0,0,0,2.09-1.39h0c2.87-1.71,5.61-3.63,8.28-5.55a.39.39,0,0,0-.17-.14l.07,0a.49.49,0,0,1,.18.17h.2a.88.88,0,0,0,.73-.59.3.3,0,0,0,.24-.22l-.21.17h0l.17-.14h0a2,2,0,0,0,.86-.59l-.23-.09h0l.22.09a12.68,12.68,0,0,0,2.66-1.88h0a.31.31,0,0,0,.25-.19h0a.07.07,0,0,1,.06-.07A.53.53,0,0,0,113,228h0a13.11,13.11,0,0,0,2.27-1.57,1,1,0,0,0-.06-.34h0a1.36,1.36,0,0,1,.06.29,23.66,23.66,0,0,0,2.88-2.21.76.76,0,0,1-.27-.06h0a.47.47,0,0,0,.24,0,28.79,28.79,0,0,0,4-3.16h0a23.62,23.62,0,0,0,3.5-2.88h0l.29-.27v-.43h0v.43a1.15,1.15,0,0,0,.59-.56,16,16,0,0,0,2.78-2.67,1.26,1.26,0,0,0-.1-.38h0a1.64,1.64,0,0,0,.1.38.45.45,0,0,0,.34-.39.68.68,0,0,0-.07-.37h0a.83.83,0,0,0,.07.38,2.32,2.32,0,0,0,.86-1h0a1.08,1.08,0,0,0,.54-.59.37.37,0,0,0,.25-.3,3.08,3.08,0,0,0,0-.43h0a2.94,2.94,0,0,1,0,.42,3,3,0,0,0,1-1h0a9.4,9.4,0,0,0,1.41-2.06h0a5.68,5.68,0,0,0,1.19-2.23h0a.94.94,0,0,1,.54-1.2,10.67,10.67,0,0,0,.89-7.3c-.05.15-.09.32-.14.48V199a1.48,1.48,0,0,1,.12-.41.2.2,0,0,0,0-.21h0a1,1,0,0,0-.25-.87h0a2.73,2.73,0,0,0-.54-1.43V196a2.84,2.84,0,0,0-.81-1.4h0a1.81,1.81,0,0,0-.64-1h0a2.88,2.88,0,0,0-.91-1.08.35.35,0,0,1-.35-.28h0a.91.91,0,0,0-.57-.58v.08h0v-.12h0a.56.56,0,0,0-.44-.36h0a20.39,20.39,0,0,0-5.25-3.45l-.24-.1-1.19-.54a8,8,0,0,0-4.24-.48,15.57,15.57,0,0,0-7.35,3.45c-.71.54-1.39,1.17-2.09,1.79v-.16c0-.15,0-.28,0-.42l-.1-.1-.12-.11h0l.17.14v-.5h0v.5l.07.12a.83.83,0,0,0,.27-.63h0a15.93,15.93,0,0,1,4.44-4.14c.08-.32.3-.34.54-.34h0c-.27,0-.5,0-.58.34a.71.71,0,0,0,.58-.34h0a30,30,0,0,1,4.63-1.28.52.52,0,0,0-.19-.14h.09l.09.07,1.65-.07h.6l3.06.67a16.55,16.55,0,0,1,2,.85,22.44,22.44,0,0,1,9,8.73,8.61,8.61,0,0,1,1.08,6,19.53,19.53,0,0,1-3.39,8,53.22,53.22,0,0,1-7.43,8.64,151.93,151.93,0,0,1-21.6,16.8c-3.32,2.22-6.71,4.32-10.14,6.36-2.29,1.39-2.61,3.51-.87,5.57l.09.11a19.8,19.8,0,0,1,4,6.79q5.76,16.1,11.51,32.16c.31.86.4,1.05,1,1.08a1.38,1.38,0,0,0,.72.16,31.52,31.52,0,0,0,3.49-.26v-.06h1.21v-.05h0a.2.2,0,0,0,0,.11h1.22a26.08,26.08,0,0,0,4-.21c1.08,0,1.37-.4,1.08-1.46a8.45,8.45,0,0,0-2.48-4.1l-.08.07.07-.07a1.09,1.09,0,0,0-.54-.54h0a.36.36,0,0,0-.15-.23h0a2,2,0,0,0-.19-.54c-.58-.85-.58-2-1.55-2.65.15-1.5-1-2.59-1.23-3.95h-.37v-.07h.3a6.59,6.59,0,0,0-.76-2.21h0a6.24,6.24,0,0,0-.54-1.75.48.48,0,0,1-.23.51.33.33,0,0,0,0-.14.46.46,0,0,0,.1-.39l-.27-.16v-.05l.34.2a5.21,5.21,0,0,0-.58-1.76h0a1.8,1.8,0,0,0-.3-1.13l-.24.15h0l.25-.15a.72.72,0,0,0-.25-.66c-.05.09-.1.19-.16.28h0c0-.08.1-.18.15-.27a44.32,44.32,0,0,0-1.18-4.53,1,1,0,0,1-.3-.2v-.11c.1.12.18.26.33.31a1.55,1.55,0,0,0-.28-1.18l-.21.19h0a1.07,1.07,0,0,0,.16-.14,13.58,13.58,0,0,0-.62-2.88c-.09,0-.16-.15-.25-.26h0a1,1,0,0,0,.3.29,1.62,1.62,0,0,0-.24-1.21.43.43,0,0,1-.22.18h0a.73.73,0,0,0,.19-.2,3.09,3.09,0,0,0-.29-1.69h0v-.54h0c-.15-.59.1-1.21-.23-1.75v-.07a.3.3,0,0,0,0-.23.61.61,0,0,0-.26.35v-.13a.56.56,0,0,1,.21-.22,42.45,42.45,0,0,1,.27-6.95v-.22h0v.28c.28-.64.54-1.28.82-1.92h.16a5,5,0,0,1,3.2-2.08v-.1a2.48,2.48,0,0,0,1-.45h0a13.25,13.25,0,0,0,3.73-2,.37.37,0,0,0-.05-.27h0l.05.27a8.1,8.1,0,0,0,2.31-1.62,1.66,1.66,0,0,1-.13-.27l.08-.06a1.17,1.17,0,0,0,.17.38,34.29,34.29,0,0,0,5.17-4.45l-.07-.07a1,1,0,0,0,.54-.54A.64.64,0,0,1,129,231h0a.74.74,0,0,0,.23.2h0l.09.06.27-.29a.24.24,0,0,0,0-.12,1,1,0,0,0,.51-.54l.11.06a39.13,39.13,0,0,0,2.88-2.88.11.11,0,0,1,0-.08l2.3-1.38.06.05a2,2,0,0,0,.42-.05,10.3,10.3,0,0,1,5.87-.3c.48.15.95.31,1.49.51l.62.24h.06l.26.1c1,.39,2,.77,3,1.14.48.19,1,.36,1.45.54.83.3,1.66.58,2.49.86a1.66,1.66,0,0,0,.8.27l2,.68.74.22.32.08a24.82,24.82,0,0,0,3,.66,3.4,3.4,0,0,0,1.57.31,13.16,13.16,0,0,0,5-.13.67.67,0,0,0-.2,0h0a.67.67,0,0,1,.2,0,8.3,8.3,0,0,0,3.41-.6v-.06h0v.06a8,8,0,0,0,4.47-1.7h0a.26.26,0,0,0,.14-.09,2,2,0,0,0-.13-.25h.05c0,.1.1.2.13.29a4.06,4.06,0,0,0,1.82-2.57h0a1,1,0,0,0,.27-.84v-.06a2,2,0,0,0,.24-1.51c-.18-2.2-.39-4.39-.57-6.59a42.84,42.84,0,0,1,.54-5.75h0a31.26,31.26,0,0,1,1.47-3.48h0a1.88,1.88,0,0,0,.63-.79l-.21-.13h0a1.07,1.07,0,0,1,.22.15,12.28,12.28,0,0,1,1.92-1.53.55.55,0,0,0-.2-.17h0a.55.55,0,0,1,.2.17l1.47-.78h.12a26.81,26.81,0,0,1,5.78-1.41h.35l3,.21a3,3,0,0,1,.72.15,2.3,2.3,0,0,0,.42.14,4.82,4.82,0,0,1,1,.49,28.15,28.15,0,0,0-5.94.57c-5.88,1.2-9.14,4.79-9.77,10.72a25.06,25.06,0,0,0,.38,7.18c.69,3.9,1.23,7.8,2.7,11.51A129.44,129.44,0,0,1,184,249.09a27.13,27.13,0,0,1,1.08,8.4,5.57,5.57,0,0,1-.65,2.5,24.43,24.43,0,0,0-2.83,8.43,157.58,157.58,0,0,0-2.28,20.78c-.13,2.12,0,2.36,2.07,3.16l.19.07.16.06.33.12.28.08,1,.3h.07a31.28,31.28,0,0,0,6.09,1,7,7,0,0,0,2.41.12h.05v.09h.62a6.08,6.08,0,0,0,3.15-.5l-.32-.06h.05l.32.06a.36.36,0,0,0,.23-.13l.29-.23.26-.3v-.27h0a.81.81,0,0,0,0-.22h0l.09-.08a6.44,6.44,0,0,0-.54-2.6l-.07.11v.47l-.05,0v-.47a1.44,1.44,0,0,1-.3-.85l-.26-.3h0l.26.3.09-.07-.24-.33h0a2.86,2.86,0,0,0-2.11-1.62h-.09a5.27,5.27,0,0,0-.68-.19l-.57-.14a3.07,3.07,0,0,1-.95-.88h0c0-.64,0-1.29-.05-1.91a1.15,1.15,0,0,1-.37,0h0a1.15,1.15,0,0,0,.37,0,3.91,3.91,0,0,0,0-1.08,1.87,1.87,0,0,0-.34.08h0a1.94,1.94,0,0,1,.33-.07l1.4-4h0a.74.74,0,0,0-.19-.27h0a.74.74,0,0,1,.21.31,18.83,18.83,0,0,0,1.38-2.86h0a.18.18,0,0,0,.06-.17.37.37,0,0,1,.05-.18.37.37,0,0,0-.05.18.39.39,0,0,0,.22-.37.28.28,0,0,0-.1.09h0l.12-.27c-.09,0-.19-.08-.27-.13v-.09l.3.15a7.5,7.5,0,0,0,1.08-2.33h0l.18-.21a.3.3,0,0,0,.08-.24,3.73,3.73,0,0,1-.16-.35.73.73,0,0,0,0-.12,2.93,2.93,0,0,0,.19.4,2.15,2.15,0,0,0,.54-1.25h0a12,12,0,0,0,.86-3.38.36.36,0,0,1-.3-.05v-.07a.36.36,0,0,0,.33.07,1.44,1.44,0,0,0,.27-1.15h0a2.42,2.42,0,0,0,.29-1.08h0a.5.5,0,0,0,.22-.59h0l1.52-5.68a1.15,1.15,0,0,1,.11-.81,1.48,1.48,0,0,0-.07.75,1.19,1.19,0,0,0,.28-1,3,3,0,0,0,.54-1.42h0a1.89,1.89,0,0,0,.36-1.08l-.07-.8h0l.06.74a2.58,2.58,0,0,0,.47-1.22h0l1.76-4.32c-.09,0-.16-.08-.25-.12h0a1.26,1.26,0,0,0,.26.13,2.25,2.25,0,0,0,.54-1.17,30.14,30.14,0,0,0,1.81-3.7l-.1-.07h0v-.29h0v.29l.07.08a43.2,43.2,0,0,0,2.55-4.67h0a7.38,7.38,0,0,0,1.2-2.29h0l-.12-.34,0-.09c0,.12.1.26.16.42a19.31,19.31,0,0,0,2-3.46h0a1.23,1.23,0,0,0,.54-.86h0a2.67,2.67,0,0,0,.58-1.12h0a.4.4,0,0,0,.23-.34h0a.37.37,0,0,0,.12-.25l-.1,0a.55.55,0,0,0-.16-.18h0a.55.55,0,0,1,.16.18l.1,0a13.62,13.62,0,0,0,1.4-2.32l-.28-.26h0l.27.27a1.7,1.7,0,0,0,.55-.88h0a3.26,3.26,0,0,0,.59-1.14l-.21-.27h0a2.83,2.83,0,0,0,.2.28l.25-.33h0a.25.25,0,0,0,.19-.28h0l.11-.28a1.59,1.59,0,0,0,.54-.88,2.33,2.33,0,0,0-.33-.14h0l.31.13a2.72,2.72,0,0,0,.62-1.11h0a1.94,1.94,0,0,0,.54-.87h0a28.64,28.64,0,0,0,2.07-3.45h0c.81-.2,1.68.16,2.46-.24h1.35c1,0,2.05,0,3.06-.08a13.86,13.86,0,0,0,3.91-.15h.71a.17.17,0,0,0,.22.06.34.34,0,0,0,.06-.06h1.31l2.45-.06h4.28c.54-.34,1.2-.15,1.86-.26h.14a2.58,2.58,0,0,0,1,0h2.59l.15.11a15.46,15.46,0,0,1-2.88,1.7,2.47,2.47,0,0,0,.76,1.3l.2-.12.14.18,3.63-2.32a2.79,2.79,0,0,0,.3-.38,34.84,34.84,0,0,0-1.36,9.36c-.18,2.87-.35,5.75-.57,8.64-.15,1.91-1.2,3.52-1.84,5.26a6.63,6.63,0,0,1-2.76,3.41c-.25.15-.48.33-.72.48a1.55,1.55,0,0,0-.76,1.83,12.77,12.77,0,0,1,.27,3c0,1.36.46,2.07,1.34,2.07a1.07,1.07,0,0,0,1.23-.13h0a2.56,2.56,0,0,0,.11-.24h0l-.12.24a1.67,1.67,0,0,0,1.16-.54h0l.2-.05c1.47-.12,2.94.17,4.42,0l.09-.09h0l-.09.09c.41,0,.85.11,1.2-.25h0a.35.35,0,0,0,.23-.09.29.29,0,0,0,.28-.22h-.29v-.09h.28v.07c.41-.21.72-.68,1.4-.41a1.12,1.12,0,0,0,1.26-.14h0a1.14,1.14,0,0,0,.77-.3h0a3.8,3.8,0,0,0,2.06-2.53,2.37,2.37,0,0,0-.11-.69,1.93,1.93,0,0,1,.12.67,1.68,1.68,0,0,0,.13-1.4,7.22,7.22,0,0,1-.13-2.41h-.18v0h.17a51.26,51.26,0,0,0,2.21-5.75.53.53,0,0,1-.32-.08h0a.5.5,0,0,0,.31.1,3,3,0,0,1,.1-.54h0c.28-1.55.58-3.08.87-4.61h0a3.41,3.41,0,0,0,.5-1.41h0a.25.25,0,0,0,.09-.2h0a4.45,4.45,0,0,0,.54-1.49,3.3,3.3,0,0,0-.38.12h0c.12,0,.27-.12.38-.12a27.2,27.2,0,0,0,1.42-3.45h0a.76.76,0,0,0,.26-.6.37.37,0,0,0,.06-.21h0a5.41,5.41,0,0,0,.78-1.77,1.43,1.43,0,0,0,.33-.8,1.62,1.62,0,0,1-.07-.62v0a1.28,1.28,0,0,0,.06.61,5,5,0,0,0,1.08-2.52.29.29,0,0,0,.21-.32l.07-.27a10.24,10.24,0,0,0,1.13-2.33,6.84,6.84,0,0,0,.81-1.73h0a3.62,3.62,0,0,0,.58-1.14.25.25,0,0,0-.17,0h.15l.31-.84h0a12.76,12.76,0,0,0,1.34-2.66h0a.31.31,0,0,0,.08-.24,1,1,0,0,0-.06-.34h0a1,1,0,0,1,.08.38l.62-.86h0a.3.3,0,0,0,.21-.29,1.32,1.32,0,0,0-.06-.39v0a1.25,1.25,0,0,1,.07.43c1.2-1.75,1-3.64.6-5.59h0a.29.29,0,0,0,0-.18,1,1,0,0,0-.21.21h0a.92.92,0,0,1,.22-.22.66.66,0,0,0-.27-.59.23.23,0,0,1-.16.13h0a.18.18,0,0,0,.15-.11,2.85,2.85,0,0,0-1-1.45,5.14,5.14,0,0,0-.68-.8h0a1.19,1.19,0,0,0-.54-.57h0a4.5,4.5,0,0,0-1.08-.91h0a12.81,12.81,0,0,0-2.66-1.91c-.34-.22-.66-.44-1-.64v-.06h0l-.22-.16a3.76,3.76,0,0,0-1.21-.66,39.69,39.69,0,0,0-6.35-2.84,24.2,24.2,0,0,0-9.35-1.44,30.9,30.9,0,0,1-3.6-.06,8.54,8.54,0,0,1-3.24-.67h-.09a1.07,1.07,0,0,1-.09-1.46,2.47,2.47,0,0,0,.16-1,1,1,0,0,0-.2-.48h0a.93.93,0,0,1,.2.48,6.42,6.42,0,0,0,.22-2.95.42.42,0,0,0,0-.27l-.1.06h0l.11-.08c.12-.31-.1-.75.06-1.11a16.52,16.52,0,0,0,1.92,2.7c.08.13.16.27.25.4a1.36,1.36,0,0,0,.12-1.08h0v-.49h0c.37-.73.1-1.52.22-2.27a5.64,5.64,0,0,1,.06-1.16,16.23,16.23,0,0,0,1.92,2.59v.07c.15.17.32.39.58.27h0a.42.42,0,0,0,.21-.56h0c-.31-.89,0-1.92-.54-2.73a.63.63,0,0,1-.11.12h0a.52.52,0,0,0,.1-.11h0c0-.54.13-1-.25-1.47h0c-.06-.54.11-1.17-.29-1.68l-.14.14h0l.14-.14a3.36,3.36,0,0,0-.19-1.83.92.92,0,0,0-.13.21h0a.92.92,0,0,1,.13-.21l-.08-.73a1,1,0,0,0-.21-.87.34.34,0,0,0,0-.28c-.17.09-.19.16-.14.21h0v-.05a3.49,3.49,0,0,0-.13-1.44v-.44a.33.33,0,0,0,0-.24v-.35h-.08a1.5,1.5,0,0,0-.17-1h-.19v0H241c0-2.13-.4-4.26.2-6.36.31-.67.61-1.3.89-2a.58.58,0,0,1-.06-.17,1.42,1.42,0,0,0,.08.18,1.92,1.92,0,0,0,.54-.88,1.18,1.18,0,0,0-.45.14h0a1.33,1.33,0,0,1,.42-.12l.09-.28h0a3.21,3.21,0,0,0,.8-1.44h0a3.42,3.42,0,0,0,.87-1.34.45.45,0,0,1,0-.23.41.41,0,0,0,0,.18,2.75,2.75,0,0,0,0-3.52v.05a.44.44,0,0,1-.15-.12V158a.24.24,0,0,1-.05-.18.22.22,0,0,0-.12-.16v0h0l.07-.07c-.11-.11-.25-.21-.37-.31l-.09-.07c-.1-.08-.2-.16-.32-.24a4.8,4.8,0,0,0-1.28-.74,28.81,28.81,0,0,0-12.46-1.91,64.1,64.1,0,0,1-8.07.45,10.1,10.1,0,0,1-5.5-1.92,19.05,19.05,0,0,1-1.92-1.66,1.78,1.78,0,0,0-.78-.78l-.09-.09a1.7,1.7,0,0,0-.72-1h0a13.86,13.86,0,0,0-1.4-1.92v-.06a1,1,0,0,0-.35-.8h0v-.17a.7.7,0,0,0-.28-.58h0a1.24,1.24,0,0,0-.27-.89h0a.37.37,0,0,0-.07-.25h0a13,13,0,0,0-.54-2.32l-.13-.08h0l.13.1v-.29h0a9.68,9.68,0,0,0,.24-2.51h-.16v-.11h.17c.41-.45.29-1.14.64-1.62a37,37,0,0,0,.39,3.78,11.78,11.78,0,0,0,4.92,8.14l.29.17c.35.23.71.44,1.08.64a8.43,8.43,0,0,0,3.83,1.31l.08.11h.26a1.21,1.21,0,0,0,.89.15v-.08h0a.33.33,0,0,1,0,.14h.86v-.06h0v.06a.31.31,0,0,0,.25,0h.07a9.67,9.67,0,0,0,4.6,0h.87c1.62.42,3.32.18,5,.48a27.73,27.73,0,0,0,3.62.65h0a4.78,4.78,0,0,0,2,.6V154h0l2.61.87h0a.55.55,0,0,0,.24.07h0a10.23,10.23,0,0,0,1.92.76l.66.29h0a1.51,1.51,0,0,0,.35.14l.86.35a.58.58,0,0,0,.22.08h0l.83.32h0c1.49.85,3,.57,4.58.32h.31v-.05H253a5.68,5.68,0,0,0,.71.18,17.45,17.45,0,0,0-1,10.46c.05-1,.16-1.85.3-2.78a.6.6,0,0,0,.4.18v-.57c-.54-.46,0-.63.24-.87A10.14,10.14,0,0,0,254,162a.43.43,0,0,1-.11-.12v-.33l0-.18a1.6,1.6,0,0,1,0-.21h0a1.7,1.7,0,0,1,.1.37v.26c.35-.34.17-.8.26-1.2h-.05a3.19,3.19,0,0,0,.59-1.42h0a.65.65,0,0,0,.24-.54.58.58,0,0,0-.28.57l-.25.1h0l.2-.08a.62.62,0,0,1,.28-.6v-.54h0v.58h0l.88-1.45h.84v-.14h0v.12h.85v-.07h0v.06l.07.05c-.37,1.92-1.08,3.84-1.08,5.81a.3.3,0,0,1,0,.23,8.61,8.61,0,0,0-.2,3.24h0a2.62,2.62,0,0,0,.18,1.56,4.13,4.13,0,0,1,.07-.49,4.28,4.28,0,0,0,.31.8,35,35,0,0,1,1.19-7.74l-.19-.22h0l.19.22a8.34,8.34,0,0,1,.54-1.52c.38-.7.38-1.69,1.33-2v-.19h0v.16a2.06,2.06,0,0,0,1.25-.15h.41a7.38,7.38,0,0,0,3.24.08,5.76,5.76,0,0,0,2.3-.14h1.41a2,2,0,0,0,1.5.25.69.69,0,0,1,.3-.2h.14a.77.77,0,0,0-.36.23c1.4.18,2.74.15,3.75-1v-.07a1.73,1.73,0,0,0,.81-.68.23.23,0,0,0-.17-.16h0a.23.23,0,0,1,.18.17,1,1,0,0,0,.59-.57h0a2.44,2.44,0,0,0,.88-.78,2.14,2.14,0,0,0,.91-1.08.69.69,0,0,0,.57-.59l-.06-.08h0l.05.07a.63.63,0,0,0,.54-.36h0a.32.32,0,0,0,.26-.27l-.22-.11h0l.22.11a27.67,27.67,0,0,0,4-4.53,2.44,2.44,0,0,0,.63-1.26.55.55,0,0,0,.28-.59.88.88,0,0,1-.21-.12h0a1,1,0,0,0,.24.14c.37-.77.48-1.43-.19-2a.92.92,0,0,0-.35-.3.56.56,0,0,1-.17-.09c-.16-.22.23-.35.42-.49a30.46,30.46,0,0,0,4.86-.61l-.11-.22h0l.1.2a10.29,10.29,0,0,0,2.32-.54h-.17c-3.37-.22-6.71-.22-10-.22.69-.63,1.54-.49,2.16-.87h0l.5-.07a7.56,7.56,0,0,0,2.05-.54v-.19h0v.19a20.38,20.38,0,0,0,3.46-.87h0l4.06-1A4.36,4.36,0,0,0,291,137.7Zm-48.62,45.4h0c0-.12.05-.24.07-.36a2.32,2.32,0,0,1-.07.38Zm18.17,44.78h0a.53.53,0,0,0-.16-.2h0a.38.38,0,0,1,.16.19ZM237.6,95.46a3.09,3.09,0,0,1,.3.75,3.75,3.75,0,0,0,.57,1c.15.18.3.35.44.54a1.43,1.43,0,0,0,.3.35c.72.87,1.46,1.72,2.21,2.55l.25.27c.73.78,1.45,1.54,2.21,2.28l.54.6a8.31,8.31,0,0,1,.86.71l.36.33c.12.11.1.14.16.2h-.64l-1-.76L244,104l-.54-.39-3-2.44-.12-.11-.15-.13a15.64,15.64,0,0,1-1.42-1.4l-.25-.29c-.19-.24-.38-.49-.54-.74l-.2-.28c-.22-.31-.43-.65-.62-1a3.19,3.19,0,0,1-.32-.64.23.23,0,0,0-.06-.2c0-.47,0-1,.57-1.08h0ZM250.46,109c.09.11.18.23.26.35a34.25,34.25,0,0,1,2.87,3.15c.57.72,1.11,1.46,1.62,2.23a.15.15,0,0,1,0,.18c-4.26-1.36-8.1-2.77-12.18-3.92s-8.22-1.53-12.33-2.29l.45-.22v-.11a1.06,1.06,0,0,0,.83-.14h.13l.51,0v0h.84V108h0a.49.49,0,0,1,0,.17,6.34,6.34,0,0,0,2,.27.44.44,0,0,0-.08-.11l.18,0h.12c.41.38,1,.23,1.46.47l0-.12h0v.09c.68.2.73.16.58-.47h0a.63.63,0,0,0-.26-.65s0,0,0,0v-.08a.22.22,0,0,0-.06-.19h0a.83.83,0,0,0-.28-.39,1.93,1.93,0,0,0-.51-.44l-.58-.4h0a9.09,9.09,0,0,0-2-.95l-2.16-.76a2.72,2.72,0,0,1-1.08-.68l-.1-.11a1.24,1.24,0,0,1-.06-.74.44.44,0,0,1,.35-.25h.31a3.15,3.15,0,0,1,.24.3,4.78,4.78,0,0,0,.68.67,4.4,4.4,0,0,0,1.59,1h0l.19.07.27.13a2.07,2.07,0,0,0,1,.5h0a.31.31,0,0,0,.27.17h0a.48.48,0,0,0,.23.07h0a.32.32,0,0,0,.3.19l.34.3a4,4,0,0,1,1.08.58,4.68,4.68,0,0,1,1.29,2,.7.7,0,0,0,.33.47.58.58,0,0,0,.36.21h0a1.78,1.78,0,0,0,1.2.15v-.09h0a.24.24,0,0,0,0,.12q.34.09.69.15c.74,0,.74,0,.44-1h0a.3.3,0,0,0-.19-.28l-.05-.09h0a5.38,5.38,0,0,0-1.83-2,31.14,31.14,0,0,0-2.7-2.16h0l-2.16-1.62a16.21,16.21,0,0,1-1.46-1.13l-.1-.08a17.69,17.69,0,0,1-1.62-1.62,5.85,5.85,0,0,1-.83-2.47.11.11,0,0,1-.1-.06h.08a.86.86,0,0,1,.81-.31.6.6,0,0,1,.09.13,1,1,0,0,1,.18.54,3.7,3.7,0,0,0,1.43,2.88c.35.37.71.7,1.08,1a13.8,13.8,0,0,0,2.23,1.81,22.63,22.63,0,0,0,2.38,1.38l.24.15a13.43,13.43,0,0,1,2.16,1.5,5,5,0,0,1,1.76,2.75,1.26,1.26,0,0,0,1,.93,5.24,5.24,0,0,1,1.92.36h0a.44.44,0,0,0,.54-.28h0a.55.55,0,0,1-.3-.54h0a3.22,3.22,0,0,0-.39-1c.2.31.41.61.6,1a2.59,2.59,0,0,0,1.2,1.16l.29.15a23.92,23.92,0,0,0,2.67,1.36l.67.34v-.08l.17.06c-.38-1.08-.67-2-1-2.87l-.35-.26a3,3,0,0,0-.89-.85h0l-.13-.07h0l.14.08a.31.31,0,0,1,0-.19,2.25,2.25,0,0,1,1,.49ZM188.74,292.71a2,2,0,0,1,0-1.18h0a2.18,2.18,0,0,0,.49-1.47.19.19,0,0,0-.13-.05h0V290h0c0,.06.13.06.13.06a.28.28,0,0,0,.06-.18h0c.14-.19.22-.49.39-.54A4.11,4.11,0,0,1,190,292a.84.84,0,0,1-.88.79H189A.81.81,0,0,1,188.74,292.71Zm-4.67-3h0a.53.53,0,0,1-.18-.05h0Zm-37.84-73.12h-.12l.12-.25ZM128,194H128l.63.34a2.67,2.67,0,0,1,.36.31,6.05,6.05,0,0,1,.32,8.43,3.11,3.11,0,0,1-2.39,1,1.39,1.39,0,0,1,.37-.5c.46-.54,1.12-1,1.36-1.62l-.13-.1h0l.13.11c1-1.75.85-3.38-.39-4.53l-.27-.24a2.88,2.88,0,0,0-.66-.43c-.47-.24-.8-.2-.95.37a1.56,1.56,0,0,1-1.83,1.23,1.49,1.49,0,0,1-.74-.37,1.6,1.6,0,0,1-.45-1.08,4.65,4.65,0,0,1,.37-1.51v-.14h0v.16a5.52,5.52,0,0,1,2.28-1.52h0l1.08-.06h0ZM184,145.72v-.06h0l.39.28a.51.51,0,0,1,.06.32c-.09.59-.84.51-1.36.51h0a2.14,2.14,0,0,1-1.62-.54.24.24,0,0,1,0-.12c.11-.42.44-.52,1-.52S183.51,145.72,184,145.72Zm53.91-45.07.12.17.14.07,1,.88a1.51,1.51,0,0,0,.49.38l.12.1v.21H240l.38.29a1.27,1.27,0,0,0,.33.24,19.76,19.76,0,0,1,4.42,4.43.79.79,0,0,1-.54-.54l-.43-.33a36.17,36.17,0,0,0-3.84-3.37c-.13-.12-.28-.21-.41-.32a2,2,0,0,1-.21-.35h-.29l-1.56-1.13-.25-.25-.54-.51a8.07,8.07,0,0,1-.7-.59,2.82,2.82,0,0,1-.33-.36,1,1,0,0,0-.44-.54c-.26-.34-.51-.69-.74-1a27.52,27.52,0,0,1-1.51-4c-.15-.69-.49-1.5.43-2l.39.2a1.31,1.31,0,0,1,.12.48A11.46,11.46,0,0,0,237.94,100.65ZM258,121a.86.86,0,0,1,.58-.81.41.41,0,0,1,.17.31A5,5,0,0,1,258,124v-.37h0v-.54h0v-.34a.28.28,0,0,0,0-.23h0v-.29h0a2.08,2.08,0,0,0,0-1.16l-.07-.1h0Zm17.49,19.26h.08a.38.38,0,0,1,0,.33h0a.35.35,0,0,1-.44.2h0a7.25,7.25,0,0,1-2.38-1.33,6.78,6.78,0,0,1-1.41-1.42V138h-.06a8.39,8.39,0,0,1-.5-.81l.22.09a3.55,3.55,0,0,0,.33.34v.1l1.43,1.31A12.34,12.34,0,0,0,275.44,140.28ZM217.9,144.4a0,0,0,0,0,0-.05,10.76,10.76,0,0,1,3.69-2.94c-.81,1-1.62,2-2.43,3a1.13,1.13,0,0,1-.43.35.54.54,0,0,1-.64-.07Zm17.9,25.73v-.2h0a.65.65,0,0,1,0,.2Zm-14.4,42.46v.13h0v-.18a1.57,1.57,0,0,1-.05-.48h0v-.3h0c-.19-1.41-.39-2.81-.58-4.22h0a4.89,4.89,0,0,0-.2-1.86,4.09,4.09,0,0,1-.1-.61V205a2.84,2.84,0,0,1,.57-1.84l-.09-.07h0a.41.41,0,0,0,.13.1,2,2,0,0,1,1.24,0,1.9,1.9,0,0,1,.54,1.53,24.67,24.67,0,0,1-1.35,8.26,1.82,1.82,0,0,0-.14-.39Zm-30.61-2.3.23-.06v-.14h0v.14h0a1,1,0,0,0,1.2-.61h0a2.2,2.2,0,0,1,1.85-1.36v.08a2.53,2.53,0,0,1,1.26.76l.06,0a2.27,2.27,0,0,1,.29.4h0a.49.49,0,0,0,.66.21h0l-.1-.22h.12l.06.11h.24v.1a2.3,2.3,0,0,1,1.28,2.65A6.86,6.86,0,0,1,196,216c-.25.29-.38.27-.45.15v-.06a2.33,2.33,0,0,0,.47-2.19l-.06.16a2,2,0,0,0-.05-.43,5.8,5.8,0,0,0-.72,1.92h0a3.21,3.21,0,0,1-.65.37,2.18,2.18,0,0,1-.11-.95,5.4,5.4,0,0,0-.1-1.92l-.11.07a.51.51,0,0,0-.36-.42,5.43,5.43,0,0,0-.21,2.88c0,.34.1.76-.4.62l-.06-.07h0c-.32-.87-.07-1.85-.54-2.7h0a4.27,4.27,0,0,0-.13-.48,1.13,1.13,0,0,0-.3,1.35c.14.54.32,1.08.41,1.51s-.24.37-.54.37a.38.38,0,0,0,.09.13h0a.69.69,0,0,1-.11-.13l-.36-.33-.28-.3a6,6,0,0,1-.49-.64l-.54-1.36c.07-1.08-.33-2.22.33-3.18h0ZM114.85,218h0a1.44,1.44,0,0,1,.85-1.86h.22l.63.41a1.16,1.16,0,0,1-.22,1.62,1.23,1.23,0,0,1-.61.23,1.25,1.25,0,0,1-.93-.37ZM42.57,136.86c0-.43-.1-.88-.14-1.31,0-.25,0-.54.33-.54h.11a.88.88,0,0,1,0,.23,8.17,8.17,0,0,0,2.41,4.9,16.29,16.29,0,0,0,2.7,2.55l.81.42.74.47.48.36h0v.13c-.27-.1-.54-.22-.81-.34a.91.91,0,0,0-.46-.23,13.52,13.52,0,0,1-5.06-4.37A7.26,7.26,0,0,1,42.57,136.86Zm11.88.95h0a3.79,3.79,0,0,1-.4-.3h0Zm17.21,24.73a3.72,3.72,0,0,1,1.24,3.94,4.86,4.86,0,0,0,0,.54l-.35-.42a4,4,0,0,0-1.79-1.55,2.36,2.36,0,0,0-1.46-.14H69a1,1,0,0,0-.21-.25c0,.05-.08.07-.12.11h0s.06,0,.08-.08v-.49a.51.51,0,0,1,0-.3l.17-.38a.74.74,0,0,1,.37-.28V163l.06-.1a1.32,1.32,0,0,0,.06.39,3.43,3.43,0,0,1,1.24-1.12H70.6A1.44,1.44,0,0,1,71.66,162.54Zm10.2,5,.26-.3.09-.21h0l-.11.26.82-.1v.06a3.18,3.18,0,0,0,1.44,0v-.06h.54v.06a2.21,2.21,0,0,0,1.45-.19.11.11,0,0,1,0-.08h.82l.13.1h.08c-.38.6-1,.5-1.58.62-1.08.31-2.27.26-3.36.65a.67.67,0,0,1-.28.06h-.22a1.57,1.57,0,0,1-.29-.54l-.11.07h0l.15-.07a.54.54,0,0,0,.06-.25l-.22-.1h0ZM266.35,138a.31.31,0,0,1-.13-.06h0a.07.07,0,0,1,0-.09l.15.14Zm.12,3.36.6.26a1.84,1.84,0,0,0,.95.4h0a.82.82,0,0,0,.2.12.4.4,0,0,1,0,.34c-.15.46-.54.32-.83.18a8,8,0,0,1-3.11-2.28l-.26-.33v-.36h.07c.35.31.71.59,1.08.86a4.3,4.3,0,0,0,1.3.85ZM216.94,163a3.16,3.16,0,0,1-.05-.81l.43-1.47a.69.69,0,0,1-.11-.13h0a1,1,0,0,1,.11.13,1.24,1.24,0,0,0,.26-.89h0a1.08,1.08,0,0,0,.28-.86l.1-.13h0l.09-.13v-.15l.09-.13h0a18.2,18.2,0,0,1-1.2,4.58ZM186.3,244.66l-.15-.21a.06.06,0,0,1,0-.06h0a1.76,1.76,0,0,0-.08-1.68h.06c0-.29-.08-.58-.08-.88a.83.83,0,0,0-.12-.73v-.72h0c.57.51.58,1.21.79,1.92a14.07,14.07,0,0,0,.42,1.79.83.83,0,0,1,.06.21.5.5,0,0,1-.46.54h-.22a.44.44,0,0,1-.16-.06l-.06-.16Zm-40.39-33.83h0l-.15.09h0Zm.37,2.2c.22-.17.39-.38.71-.38l.11-.11a.4.4,0,0,1,.56.09h0a.92.92,0,0,1,.32.1,1.08,1.08,0,0,1,.25.69c0,.72-.37,1.08-1.16,1.08h0a1.89,1.89,0,0,1-.63-.1,2.36,2.36,0,0,1-.27-1.16.72.72,0,0,0-.28.47.88.88,0,0,1,.29-.54.22.22,0,0,0,.07-.24ZM78.55,264.21a.3.3,0,0,1-.2.08.42.42,0,0,1-.31-.09.76.76,0,0,1,0-.3.86.86,0,0,0-.22-.76h0a3.59,3.59,0,0,0-.29-1.48,1.36,1.36,0,0,1,.2-.88.64.64,0,0,1,.21.47,4.52,4.52,0,0,0,.81,2.26A.45.45,0,0,1,78.55,264.21ZM55.62,132.36h0c.12.32.27.62.38,1l-.19-.2c-.08-.23-.18-.44-.27-.67C55.62,132.42,55.62,132.39,55.62,132.36ZM93,197.57l.16.19.09.09.06.07.24.2a2.8,2.8,0,0,0,1.24,1h0a1.93,1.93,0,0,0,1.16.58l.2.09.13.06.15.06c-1,.33-1.69-.3-2.45-.17h-.08c-2.11-.66-3.73-.36-4.86,1.08a6.66,6.66,0,0,1,.86-.39,3,3,0,0,0-.45.5,5.67,5.67,0,0,1,3.61-.65c.54.06,1,.16,1.54.25h.2a.68.68,0,0,0,.45.23,28.65,28.65,0,0,0-6.71,4.39,4.68,4.68,0,0,1-6.62-.32,4.74,4.74,0,0,1-1-1.9,6.08,6.08,0,0,1,.83-3.91l-.27.06h0l.26,0,1.19-1.15,0-.19h0l-.07.2a.35.35,0,0,0,.32-.22h0l.52-.15a.16.16,0,0,0-.07-.15h0a.6.6,0,0,1,.08.16.31.31,0,0,0,.32-.16l.54-.12.31-.18a.41.41,0,0,0,.09-.34h0a.38.38,0,0,1-.08.37l-.3.19h0a.24.24,0,0,0,.28-.16h0a.5.5,0,0,0,.54-.35c.16-.49.35-1,.54-1.45l-.12-.1h0l.11.1a.24.24,0,0,0,.22-.22l.68-.57a.71.71,0,0,0,.54-.3h0a4.88,4.88,0,0,1,2.59.29h0a26.42,26.42,0,0,1,2.22,2.5l.41.45a.28.28,0,0,0,.31.08Zm21.52,15a.4.4,0,0,1,.26.08,1.82,1.82,0,0,1,.17.44l-.14.14a2,2,0,0,1-.54-.51.28.28,0,0,1,.21-.18Zm1.75.17v.06a2.27,2.27,0,0,1-1.26-.91.81.81,0,0,1,.38,0,5.57,5.57,0,0,1,.87.81Zm-2.59.57c0-.1.06-.18.25-.21a2.43,2.43,0,0,1,.35.88,1.39,1.39,0,0,1-.63-.7Zm2.7-1.77a1.26,1.26,0,0,1-1-.42h0l0-.06a1.51,1.51,0,0,1,.63.13c.09,0,.32.14.32.32Zm-44.71-42,.09-.09h0a.72.72,0,0,1,.09.2l-.09.09Zm29.49,3.75H101a.41.41,0,0,1-.22,0,1.2,1.2,0,0,1-.11-1q3-.13,5.94,0a2.84,2.84,0,0,1,.81.12v.07h0c-.23.5-.66.28-1.08.31-1.64.14-3.43-.12-5.15.46Zm-.74-1.05h.16V172h0v.22h-.22ZM85.56,212a2.45,2.45,0,0,1-.88.72,1,1,0,0,0,.27-.43h-.26l.09-.09h0c.31-.13.48-.45.83-.54a.25.25,0,0,1,0,.34Zm1.15-36.36,1.84.26v.29l-2.88.36a3.09,3.09,0,0,0-2,.6.77.77,0,0,1-.76.13l-.26-.3h0a.54.54,0,0,0-.05-.22.43.43,0,0,1,0-.16,1,1,0,0,1,1.13-.73h0a9.6,9.6,0,0,0,2.93-.27Zm-1.28,14a.29.29,0,0,1,.14-.13v.26Zm1.39-1.31a.3.3,0,0,0-.06-.26l-.15-.22a.46.46,0,0,1,.12-.12.39.39,0,0,0,.21.08h0a4.89,4.89,0,0,0,.39.4s0,.1,0,.1a.48.48,0,0,0-.44.23Zm1.26-1a.55.55,0,0,0-.11.29c0,.37-.41-.32-.68-.26a.55.55,0,0,0,0-.31V187h0c-.07-.23-.15-.26-.24-.11h0c.09-.16.17-.13.24.1h.28c.15.13.21.43.43.42Zm-3.65,24.08h0a1.33,1.33,0,0,1,.5-.26.17.17,0,0,0,0,.1c-.17-.09-.33,0-.48.14Zm1.92-22.11c0-.45-.57-.48-.82-.84a1.21,1.21,0,0,1,.9.43l.26.13a.59.59,0,0,1-.29.33.09.09,0,0,0,0-.07Zm-1.92,20.84c0,.13,0,.33.1.42h0c-.3-.11-.54-.11-.58.26-.22-.28-.44-.07-.66,0a2.48,2.48,0,0,1,.19-.26l-.15-.14h0l.11.1a.35.35,0,0,0,.25-.1v-.2h0v.19c.38-.06.62-.26.84-.29Zm1.13-20.41a2.39,2.39,0,0,1,.87.19h0c-.33.2-.57-.05-.87-.19Zm2.88-2.54h0c0-.16,0-.44.18-.44s.23.1.3.2h0c0,.15-.25.16-.48.19ZM83,209.73l.85-.27h.26v.06h-.23l.11.11a2,2,0,0,1-1,.14H83Zm7.6-37.4a19.74,19.74,0,0,0-3.24.54.54.54,0,0,1-.25.09h0c-.4-.07-.41-.31-.35-1h5.33a5.27,5.27,0,0,1-1.47.36Zm-1.29,14.58c-.1-.21-.12-.49-.22-.71V186a.39.39,0,0,1,.1-.08l.16.22c.3.41.38.71,0,.74ZM75.6,228.35a.86.86,0,0,0,.14.13l-.17-.08Zm8.53-.08c.05-.54.47-1,.17-1.62-.09.14-.17.3-.25.45a1.25,1.25,0,0,0-.19-.68,3.31,3.31,0,0,1-.64,1.82.41.41,0,0,1-.1-.3v-2.16a3.17,3.17,0,0,0-.39.86.14.14,0,0,0,0-.09h0c.13-.26.2-.71,0-.71-.5,0-.28.43-.28.71h0a2,2,0,0,0,0,1.15h0v.59h0v.09h0a.63.63,0,0,1-.23-.08c-.25-.67-.14-1.44-.49-2.39a2.32,2.32,0,0,0-.07.38,1.1,1.1,0,0,0-.26-.35,2,2,0,0,0,.09,1.46c.15.31.28.66-.11,1a6.06,6.06,0,0,1-.54-.47,4.5,4.5,0,0,1-1-2.06h0v-1.42h0a.35.35,0,0,0,.06-.26l-.13-.12h0l.15.12c.24-.42.87-.16,1.17-.54h0l.82-1.08v-.17h0v.17a.3.3,0,0,0,.27-.11l1,.06.42.33c.18.2.24.46.59.54h.18a1,1,0,0,0,.34.11,1.69,1.69,0,0,1,.88,1.86,3,3,0,0,1-.47,1.49,12.31,12.31,0,0,1-1,1.48ZM86,213a.86.86,0,0,1,.39-.59,1.51,1.51,0,0,1-.43.6Zm10.67-36.45a.55.55,0,0,1-.47,0l-.14-.09c.09-1,.28-1.32,1-1.11,1.21.36,2.46.3,3.67.54a1.6,1.6,0,0,1,1,.31c-.47.27-.87,0-1.27,0-1.27.15-2.52-.23-3.73.31ZM70.89,254.71v0l-.09-.47c0-.48-.15-.95-.23-1.43a4.52,4.52,0,0,1,0-1v.06h0c.62,1.13.73,2.41,1.29,3.51a.54.54,0,0,1-.21.73l-.13.05h-.16l-.14-.05C71,255.71,71.25,255.12,70.89,254.71Zm4.91,1.2a.68.68,0,0,1-.2.07.47.47,0,0,1-.42-.12,7.61,7.61,0,0,0-.4-2.41,4.53,4.53,0,0,1,0-2h0a2.24,2.24,0,0,1,.34.85,5.2,5.2,0,0,0,1,2.66C76.42,255.35,76.19,255.71,75.8,255.91Zm-1.37,5.27h0c.28.86.58,1.76.89,2.65.11.33.07.6-.29.67h0c-.19-.36-.1-.82-.32-1.16h0a2.29,2.29,0,0,0-.27-1.36A2.39,2.39,0,0,1,74.43,261.18Zm1.82-27.34c-.16-.06-.45-.18-.46-.26,0-.3.19-.61-.22-.8a7.37,7.37,0,0,0-1-.7,3.3,3.3,0,0,1-.3-.43h0c0-.37,0-.84.32-1,.75-.54.78-1.4,1.18-2.06h0a.64.64,0,0,0,.51-.31,2,2,0,0,1-.41-.14H76a1,1,0,0,0,.32.15,3.77,3.77,0,0,1,3.28.71,4.61,4.61,0,0,1,.66.8h0c-.59,0-1.08-.57-1.78-.2a8,8,0,0,1,1.41.62v.17a1.07,1.07,0,0,1,.14.16c-.33.31-.8.15-1.14.19a2.55,2.55,0,0,0-1.36.2l.63.18a.17.17,0,0,0-.14.21.12.12,0,0,0,0,.08.62.62,0,0,0,.4.08c.1-.16.19-.15.27,0H79a1.07,1.07,0,0,1,.14-.16v.06h.37l.09.1c.19.08.42,0,.61,0-.17.26-.5.26-.85.33s-1,0-1.49.4a1.35,1.35,0,0,0,.34.11.21.21,0,0,0,.07.15,1.5,1.5,0,0,0,.84,0h0a3.89,3.89,0,0,1,.95-.18,3.56,3.56,0,0,1-3.85,1.5Zm5.57-2.16a3,3,0,0,1,.54-1.28l1.08-.11a1,1,0,0,1-.6-.3H83a1.13,1.13,0,0,1,1.08,1.08v.19a1.09,1.09,0,0,1-1.14,1h0a1,1,0,0,1-1.08-.58Zm33.48-59.54a.38.38,0,0,0,.07-.21h0l.54-.59-.06-.08h0a2,2,0,0,1,.84,0,1.12,1.12,0,0,1-.79,2.1,1.14,1.14,0,0,1-.62-.54v-.54h0Zm-47-6.71c-2.88,1.08-3.32,1.92-2.54,4.36h0c-.61.25-1.12,0-1.19-.42v-.11c0-.39.2-.77,0-1.15a1.28,1.28,0,0,1-.37-.87h0l0-.28h0l.86-1.31c.66-.2,1.39-.12,1.92-.73.3-.34.65-.12,1,0a2.55,2.55,0,0,1,.3.5Zm-14-6.14a.47.47,0,0,1-.47.55h-.15a.45.45,0,0,1,0-.23c0-.47.32-.48.65-.43a.5.5,0,0,1,0,.12Zm-.6-4.79h0a1.3,1.3,0,0,1,0-.73v-.09H54a.5.5,0,0,1,.21.44c-.11.29-.32.49-.62.41Zm-1-9.53h.27a.54.54,0,0,1,.16.34.48.48,0,0,1-.39.51.44.44,0,0,1-.37-.08,1,1,0,0,1,.31-.77.71.71,0,0,0-.45.12.2.2,0,0,1,.09-.09.55.55,0,0,1,.4,0Zm11.91,7.81a15.22,15.22,0,0,0-2,.79A4.16,4.16,0,0,0,60.2,156a3.21,3.21,0,0,0,.22,2.64,1.39,1.39,0,0,0,.57.65c.34.33.75.24,1.39-.26a2.12,2.12,0,0,1,1.36-.36,1.53,1.53,0,0,1,.46.34,1.69,1.69,0,0,1,.08,2.23,3.09,3.09,0,0,1-1.22,1,3.48,3.48,0,0,1-3.5-.43c-2.36-2.24-1.33-7.08,1.28-8.58.42-.25.84-.46,1.28-.68a.22.22,0,0,1,.08-.13.41.41,0,0,0-.05.09h1.73a3.09,3.09,0,0,1,.7.36Zm-6.4-6a2.28,2.28,0,0,1,0-1.16h0l.27-.22a1.08,1.08,0,0,1,1.41-.07,1.17,1.17,0,0,1,.3.78h0a1.14,1.14,0,0,1-1.08,1.1,1.13,1.13,0,0,1-.89-.4Zm-3-8.55a4,4,0,0,1-.46-.23h0l.47.23Zm11.27,32.16h0l.13.12c.49-.7-.23-1.17-.33-1.75l-.1-.1h0l.1.1a2.43,2.43,0,0,1,2.2-2.28h.28c.58-.3,1.08-.9,1.83-.54a3.89,3.89,0,0,1,.69.45,4.78,4.78,0,0,1,1.45,2.88h0c-.28.12-.39,0-.54-.27a1.77,1.77,0,0,0-1.2-1.22l.36.4c.12.13.75.49.37,1s-.75-.19-1-.27-.35-.34-.65-.25l.72.64a1.57,1.57,0,0,1,.63,1l-2.11-1.08c.33.57,1,.68,1.43,1.22-.72.33-1.17-.38-1.84-.38.31.23.62.45,1,.66a.52.52,0,0,0,.11.1l.2.2c-.33.37-.8-.07-1.21.24l1.62.31c.25,0,.33.17.25.39a.67.67,0,0,0,.43-.14.62.62,0,0,1-.43.14,4.81,4.81,0,0,1-3.48-.14,2.76,2.76,0,0,1-.44-.25,2.12,2.12,0,0,1-.4-.86l-.11.12h0l.1-.1a.53.53,0,0,0,0-.25ZM68,253.43A16.69,16.69,0,0,1,69.37,257c.09.24,0,.45-.36.54a.72.72,0,0,1-.41,0,1.09,1.09,0,0,1-.1-.5,6.2,6.2,0,0,0-.54-2.47h0a7.4,7.4,0,0,1-.11-.84.34.34,0,0,1,.16-.24Zm31.32-27.6a1.54,1.54,0,0,1-.2-1.05l-.21.07h0l.22-.07.34-.54h0a1.53,1.53,0,0,1,1.41,0,1.19,1.19,0,0,1,.29.69h0a1.14,1.14,0,0,1-1,1.19,1.17,1.17,0,0,1-.86-.3Zm17.92-15.34c-.33.37-.74-.21-1.08.09h0a.2.2,0,0,0-.1-.22v-.08c.1-.32.43-.13.69-.11a3,3,0,0,1,.45.34Zm99.26-71.24a2.47,2.47,0,0,1-.54.19h-.21a.68.68,0,0,1-.3-.54h-.06c.39-.71,1.29-.62,1.8-1.13h.12a5.47,5.47,0,0,0,1.66-.58v-.12h0v.17h.28l.06-.2.1.11h.08a10.55,10.55,0,0,1-3,2.09Zm-11.2,16.92a.61.61,0,0,1-.07.1.4.4,0,0,1-.42.07V156l-.2.07h0l.21-.07.36-.54h0a5,5,0,0,0,1.36-1.57h.32A14.15,14.15,0,0,1,205.29,156.17Zm-4.65-2.78c-.14.21-.42.49-.67.28h0a.81.81,0,0,0,0-.22h0v-.09h0a22,22,0,0,1,2.58-2.7v-.26h0l.13-.09v.21h0c-.76,1-1.42,1.91-2,2.87Zm6.58-.07-.07-.06h0Zm49.54-2v.06a.41.41,0,0,1-.43.4h0a.35.35,0,0,1-.3-.12.33.33,0,0,1,0-.14c.08-.4.39-.37.7-.35a.2.2,0,0,1,0,.11Zm-4.55-1.73c-.06-.42-.13-.79.43-1.12a.72.72,0,0,1,.86,0,.94.94,0,0,1,.16.59v.08a.81.81,0,0,1-1,.63h0A.89.89,0,0,1,252.21,149.58Zm-24.72-11.06a1.76,1.76,0,0,1-1-.31,4.09,4.09,0,0,1-.54-1.25l-.09-.2h0l.09.2a.37.37,0,0,0,0-.29h0v-.28h0l.62-.85v-.17h0v.17a3.08,3.08,0,0,1,1.43-.35,1.86,1.86,0,0,1,1.23,1.66,1.79,1.79,0,0,1-1.77,1.73l.08-.1Zm-11.7-7v-.11h.06v.17l.54.09v-.08h0a.92.92,0,0,0,.62.22l.42.19a1.86,1.86,0,0,0,.54.24,9.22,9.22,0,0,1,1.62,1.06l-4-.78a1.34,1.34,0,0,1-.38-.14.71.71,0,0,1,.49-.88h0Zm1.08-10.64.1-.06-.06.06a.13.13,0,0,0,0,.18l.06,0a.66.66,0,0,0,0-.28,2.45,2.45,0,0,1,1.13-.64h1.13v.09c2.45.48,3.46,2.37,4.55,4.27.05.24-.06.4-.48.4h0c-.21-.25-.42-.51-.64-.75l-.07-.07a2.36,2.36,0,0,0-1.33-.84l.15.16a.2.2,0,0,0-.13.09c-.14.2.16.35.37.44l.12-.12h0l-.09.09.71.61.59.66h0a.29.29,0,0,0,0,.13c0,.29.08.66-.43.5a12.9,12.9,0,0,1-1.7-.75c-.51-.24-1-.54-1.59-.83a3.2,3.2,0,0,0,.17.43h-.2a2.74,2.74,0,0,0,1.43,1h0a3.25,3.25,0,0,0,1.55.77l.06-.07h0l-.06.07a3.5,3.5,0,0,1,.54.29c-.09.34-.33.39-.66.34a8.54,8.54,0,0,1-1.92-.59c-.46-.19-.9-.54-1.47-.36a1,1,0,0,0,.42.58,1.19,1.19,0,0,0,1,.43,10.23,10.23,0,0,0,2,.51h0c0,.07,0,.15-.18.24a4.35,4.35,0,0,1-1.76.54,7.65,7.65,0,0,1-4.79-1.37l-.18-.12a1.08,1.08,0,0,1-.13-1l-.08-.05c.22-.12.39-.31.28-.54A2.42,2.42,0,0,0,215,125a1.12,1.12,0,0,0-.24-.33,1.92,1.92,0,0,0-.18-.22,1.54,1.54,0,0,1-.17-.19,2,2,0,0,1,.18-2.44v-.12l-.06-.13h0c0,.05,0,.09.06.13v.13l.28-.24h0c.62-.32,1.44,0,2-.65a.19.19,0,0,1-.08-.17ZM261.25,145a.85.85,0,0,1-.88.77h0a.81.81,0,0,1-.54-.23c-.14-.25-.06-.63.17-1.26h0l.28-.08h0a1.71,1.71,0,0,1,.77.18.94.94,0,0,1,.21.59Zm-17.17-8.87h0l.28-.31c1.18-1,1.14-2.16.6-3.46h0c0-.3-.21-.47-.36-.7s0-.4.2-.43a3.12,3.12,0,0,1,.9.22l2,.77a14.7,14.7,0,0,1,2.75,1.71h0A17.53,17.53,0,0,1,244.08,136.08ZM235.17,128c-.16-1.32.6-2.35,1.15-3.45h0a1.5,1.5,0,0,0,.51-.43,8.61,8.61,0,0,0-.82,3.24c0,.42-.21.8-.64.71a.72.72,0,0,1-.23-.12Zm-12.1-2.93h0l-.06.06h0Zm25.65.62a.59.59,0,0,1,.31-.38,21.81,21.81,0,0,0-.63,3.18.17.17,0,0,1,0,.1.42.42,0,0,1-.48.31h-.06c-.35-1.29.29-2.27.89-3.24Zm-3.24-.59v-.06l.1-.09a.51.51,0,0,0-.07.17.11.11,0,0,1,.09,0c-.23,1-.42,1.74-.63,2.52-.09.32-.22.72-.61.6a2.06,2.06,0,0,1-.2-.54h0c.14-.4.29-.79.45-1.2h0c.1-.2.19-.39.3-.57h0l.29-.25Zm-4.8,8.2h0a.62.62,0,0,1-.59-.23c0-.61.47-.83,1-1,0,.45.35,1-.37,1.16Zm-.3-6.17a7.37,7.37,0,0,1,1.08-1.58,23.32,23.32,0,0,0-.46,2.47.5.5,0,0,1-.45.54h-.09c-.24-.44,0-1-.15-1.46l-.06-.12a.06.06,0,0,1,0-.06.49.49,0,0,1,.14.18Zm16.3,19.37c0,.3-.21.4-.45.4h0a.46.46,0,0,1-.25-.08h0a.86.86,0,0,1,.58-.6h0a.34.34,0,0,1,.13.25Zm3.38,2.74a.48.48,0,0,1-.14-.2Zm-27.77-17.51a4.36,4.36,0,0,1-.59-.35v-.1c-.35-.06-.54-.34-.82-.54a6.88,6.88,0,0,1-.54-.54h0v-.07a4.67,4.67,0,0,0,1.48.82l.19.16a6.38,6.38,0,0,0,2.37.31,32.06,32.06,0,0,0,3.67-.32h0c.54,0,1.16.15,1.69-.19H240a3.48,3.48,0,0,0-.09,5,8,8,0,0,1-2.26-.85l-.17-.08a8.22,8.22,0,0,1-1.08-.78.32.32,0,0,0-.21-.21h0a1.21,1.21,0,0,0-.62-.58h0a.93.93,0,0,0-.7-.59l-.24-.13h0a3.76,3.76,0,0,0-.62-.27l-.5-.17Zm27.41,5.76h-.07a3.55,3.55,0,0,1-.72-.15h0a4.58,4.58,0,0,0,.81.14Zm-24.8.91-1.36-1a6.14,6.14,0,0,1-.43-.45,2.49,2.49,0,0,0-.5-.7h0c-.09-.52-.54-1-.24-1.54a.43.43,0,0,1,.34.11c.23.23.46.44.69.64l.13.11.43.35.12.09c.22.17.43.32.64.46h0a11.73,11.73,0,0,0,1.38.79,2.75,2.75,0,0,0,1.22.51h.14a.25.25,0,0,0,.29.15h0a10.39,10.39,0,0,0,4.62.64v-.09h0v.06a1.61,1.61,0,0,0,.87,0,12.23,12.23,0,0,0,4.56-.82h.11a.36.36,0,0,0,.25,0v-.08a15.45,15.45,0,0,0,3.44-1.34.28.28,0,0,0,0-.18h0a.81.81,0,0,1,0,.22,10.37,10.37,0,0,1,3.71-1h.27c.33.15.67.34.95.2l.62.21a.58.58,0,0,0,.39.27h0a3,3,0,0,0,1.16.58h0l.17.16c-.16.4-.54.09-.79.21l.36.14h-.09a1,1,0,0,1-.29-.11h0a9,9,0,0,0-7.83,1.23,15.33,15.33,0,0,1-15.36.07ZM196,146.93c.48-.54,1.19-.81,1.66-1.37h0a1.05,1.05,0,0,0,.63-.46l-.14-.06h0l.16.07a.85.85,0,0,0,.51-.36h0l.32-.13a11.05,11.05,0,0,1-3.12,2.31Zm-1.72,115.4c.11.27-.36.46-.6.42h0a.42.42,0,0,1-.08-.39c.31-.88.17-1.86.64-2.7l.2-.43c0,1.17-.49,2.13-.16,3.1Zm-3-44.4c-.81.11-1.48-.73-2.43-.29l.35.14-.34.11a3.93,3.93,0,0,0,1.36.43l.09-.08h0l-.1.07a2.35,2.35,0,0,1,.83.47.54.54,0,0,1,0,.18c-.08.24-.3.24-.48.24h-2.7a.78.78,0,0,0,.23.47c.06.37.39.39.67.39l2.55,0a1.42,1.42,0,0,1-.25.34l.1.17-.12.09h0l-.11-.15c-1,.41-2,0-3,.68a3.26,3.26,0,0,0,.44.15c0,.14.26.12.39.17l.14-.13h0l-.12.13h.54a.28.28,0,0,0-.08-.15h0a.28.28,0,0,1,.08.15,2.12,2.12,0,0,0,1-.19,1,1,0,0,1,1,0,5.36,5.36,0,0,1-4.93,2,1.66,1.66,0,0,1-.9-.23.7.7,0,0,1-.07-.31h0a.85.85,0,0,0-.2-.75,1.81,1.81,0,0,0-.88-.74,1.87,1.87,0,0,1-.68-.54,2,2,0,0,1-.27-.58,2.43,2.43,0,0,1,1.2-1.92c.43-.19.29-.54.21-.85a2.17,2.17,0,0,1,.13-.56l.79-.74-.24-.08h0l.24.08a.75.75,0,0,0,.54-.29v-.22h.1v.26a6.25,6.25,0,0,1,4,1,5.13,5.13,0,0,1,1,1.05Zm-39.16-51.07a30.1,30.1,0,0,1,3.11-1.69,18.07,18.07,0,0,1,1.74-.63c.57-.15,1.19-.31,1.69.22a1.33,1.33,0,0,1,.11.24,1.13,1.13,0,0,1-.72,1.39c-.32.14-.64.25-.95.36a23.21,23.21,0,0,1-5.19,1.11,6.28,6.28,0,0,0-1.67.41c-.14,0-.32,0-.41-.12l.8-.31a7.81,7.81,0,0,0,1.44-1.05A.18.18,0,0,1,152.05,166.86Zm62.42,45.2a.33.33,0,0,1-.13-.07h0l.08,0a.26.26,0,0,0,0-.21h0v-.06a19.62,19.62,0,0,0,.21-4.05h0a.3.3,0,0,0,.08-.2h0c.08-.27.17-.54.25-.82a13.22,13.22,0,0,1,1.19-3.83h0a2.58,2.58,0,0,1,1.29-.14,1,1,0,0,1,.39.62,1.8,1.8,0,0,1,.08,1,64.89,64.89,0,0,1-3.11,10.11,13.19,13.19,0,0,0-.33-2.34Zm-26.12,47.52.08.14c.3-.3.17-.76.35-1.08a9.66,9.66,0,0,1-.08,2.79.32.32,0,0,1-.48.34h-.05a.83.83,0,0,1,0-.54,3.12,3.12,0,0,0,.2-1.2l0-.06a.41.41,0,0,0,0-.22l-.09-.14Zm12.18-62c.36-.37.7-.76,1.08-1.11.85-.75,1.28-.86,1.93-.26a1.17,1.17,0,0,1-.15,1.5,18.91,18.91,0,0,1-3.83,3.7,7.28,7.28,0,0,0-2,1.82,2.52,2.52,0,0,1-.51.62h0a2.3,2.3,0,0,0,.5-.58.48.48,0,0,1-.29,0,2.53,2.53,0,0,1,.58-.79,45.66,45.66,0,0,1,2.16-4.17l-.06-.11h0a1,1,0,0,0,.08.14,1.11,1.11,0,0,0,.51-.67Zm16.7-18.06a5,5,0,0,0,.77.38c-.22.33-.51.26-.81.25a7.61,7.61,0,0,1-3.54-1.24l-1.15-1.06v.06l-.06-.06.06-.11-.34-.48h-.09a.3.3,0,0,0-.2-.21h0c-.11-.39-.24-.77-.36-1.16h0a1.63,1.63,0,0,0,.05-.54,2.76,2.76,0,0,0-.05-.64.54.54,0,0,1,.05-.11v.7c.34-.59.54-1.39,1.08-1.78a.93.93,0,0,1,.54-.25.69.69,0,0,1,.2.3,2.22,2.22,0,0,1,.26.66c.54,2.33,1.48,4.29,3.59,5.31Zm-23,43.84v1.85c0,.34-.2.74.38,1.13a1.41,1.41,0,0,0,0,.29c.77-1.32.31-2.51.43-3.64h.26l-.21-.16h0l.2.15c.47,1,.26,2.09.73,3.15a1.07,1.07,0,0,0,.13-.21c.06.1.11.2.18.31a3,3,0,0,0,0-1.92c-.14-.43-.41-.88.09-1.25a2.52,2.52,0,0,1,.44.28l.22.19a2.66,2.66,0,0,1,.66,1,5.58,5.58,0,0,1,.69,3.32c0,.74-.22,1.36-1.19,1.2-.48-.07-.54.31-.69.58-1,1.73-2.1,1.92-3.37.47l-.09-.1-.07-.07a.85.85,0,0,0-.54-.39,3,3,0,0,1-1.16-.4l-.64-1.11v-1.7h0a15.63,15.63,0,0,1,2-3.16h0a.5.5,0,0,1,.24-.19h0a.5.5,0,0,0-.24.19h.22c-.1.73-.71,1.38-.38,2.37l.22-.54a2.3,2.3,0,0,0,.1.51c.14-.64.48-1.21.65-1.83l-.14-.17h0l.14.17c.2-.18.4-.39.66-.33l.11.08Zm-40.74-50.69,2.88-1.91h0a19,19,0,0,0,2.56-1.16v-.12h0v.14a.83.83,0,0,0,.6-.22v-.08h0v0a1.75,1.75,0,0,1,1,.14,1,1,0,0,1,.2.15,1.09,1.09,0,0,1,0,1.5,3.36,3.36,0,0,1-.89.71,54.54,54.54,0,0,1-9.35,3.72,1.46,1.46,0,0,1,.07-.19c-.08,0-.24,0-.24.08s-.1.15-.16.22h0l.11-.16.12-.14a.34.34,0,0,1,.2,0l2.95-2.65v-.2h.05A.45.45,0,0,1,153.47,172.65Zm36.61-11.27h0v-.17h0A.48.48,0,0,1,190.08,161.38Zm0,.09h0v-.07h0a3.24,3.24,0,0,0,.87-.86v-.16h0v.17a.3.3,0,0,0,.29-.21h.06a2.67,2.67,0,0,1,.79.09,1.46,1.46,0,0,1,.13.65,24.34,24.34,0,0,0-.06,2.7,5.83,5.83,0,0,0,1.86,4c.17.14.41.25.2.64a7.35,7.35,0,0,1-1.92-1,.25.25,0,0,0-.16-.12h0l-.54-.54h0l-.08-.08a1.13,1.13,0,0,0-.36-.36,2.2,2.2,0,0,1-.2-.23.57.57,0,0,0-.29-.37h0l-.77-1.47h0a.25.25,0,0,0-.09-.2l-.15-.13h0v-.06l.14.11a2.86,2.86,0,0,1,.21-2.56Zm11.51,47.22a21.86,21.86,0,0,1,3.93-8c.3-.39.58-.77.86-1.15v-.08l.54-.29H207v.07h.54a1,1,0,0,1,.63,1.3,2.33,2.33,0,0,1-.3.81,69.59,69.59,0,0,1-6.43,8.29,1.49,1.49,0,0,1,0-.91Zm24-12.1c-.05,1-.18,2-.3,3.24h-.08l-.51-1.5-.06.06h0l0,0a.3.3,0,0,0,0-.21,18.91,18.91,0,0,1-.34-4h0a2,2,0,0,1,.61-1.45h.19a.77.77,0,0,1,.54.77,30.45,30.45,0,0,0-.17,3.17Zm-6.3-3.08a14.5,14.5,0,0,1-1.92,4.1,2,2,0,0,0,0-.59h0c.36-1.52.45-3.1.9-4.6h0l-.13-.13h0l.14.14a.87.87,0,0,1,1.08-.09,1.81,1.81,0,0,1-.18,1.17Zm-48.9-21.25h0l-.13.09h0l.13-.11Zm24.53-2.08.54-.58a.24.24,0,0,1-.14-.12h0a.22.22,0,0,0,.13.12l.74-.41c.24-.14.54-.27.76-.12a.48.48,0,0,1,0,.37,3.3,3.3,0,0,1-2,1.92.54.54,0,0,1-.39-.06,2.3,2.3,0,0,1,.2-.85h0a2.2,2.2,0,0,1,.15-.26ZM219,182.4a2.7,2.7,0,0,1,1.67-2.44.93.93,0,0,1,.11.54,3.21,3.21,0,0,1-1,2c-.19.22-.44.43-.75.22a.78.78,0,0,1-.12-.32Zm10,15.41v.05a.94.94,0,0,0-.25-.47v-.1h0a.82.82,0,0,0-.27-.61h0v-.05h0c-.39-1.14-.8-2.28-1.2-3.42l-.11-.14h0l.16.2c.29-.87.35-1,1-1a1.84,1.84,0,0,1,.35.88,14.28,14.28,0,0,1,.25,4.61ZM159.3,176a1.19,1.19,0,0,0,.6-.59h0l2.23-2a3.09,3.09,0,0,1,1,0,.6.6,0,0,1,.21.18,1.07,1.07,0,0,1,.19,1.19,2.64,2.64,0,0,1-.81,1,43.29,43.29,0,0,1-6.9,4.39.36.36,0,0,1-.35,0,.68.68,0,0,1,.23-.14l3.52-4a.34.34,0,0,1-.06-.12h0c.09,0,.11.09.15.15Zm23.53-2.82a13.19,13.19,0,0,1-1.62,2.73c-.23.32-.54.54-.62,1l-.06.06a2.59,2.59,0,0,0-.14.29h0a1.11,1.11,0,0,1,.14-.29h-.17c0-.67.31-1.25.24-1.85l0-.06v0a.39.39,0,0,1,.08.1.23.23,0,0,0,0-.2h0a.42.42,0,0,0,.19-.37h0l.06-.29h0a1.09,1.09,0,0,0,.32-.8h.05c.3-.25.38-.73.79-1v-.19h.1v.19a1.33,1.33,0,0,1,.71.17.6.6,0,0,1,0,.54Zm-7.42-1.84a.86.86,0,0,0,0-.23h0a1.42,1.42,0,0,1,0,.22Zm2.75,1.08a1.81,1.81,0,0,0,.09.31,1.84,1.84,0,0,0,.63-1.11l-.31.08h0l.31-.08.54-.59h0a2.62,2.62,0,0,1,.79,0c.26.34.06.81-.16,1.14s-.59.76-.89,1.14a13.24,13.24,0,0,1-2.32,2.29v-.2h0a.27.27,0,0,0,.21-.28h0l.35-.85a.54.54,0,0,1,0-.18.49.49,0,0,0,0,.17.65.65,0,0,0,.29-.58h0a1.56,1.56,0,0,0,.54-.9h0a1.17,1.17,0,0,0-.09-.32Zm-6.62,8.77a2.94,2.94,0,0,1-.32,1,38,38,0,0,1-5,6.64l-.26.17a1.75,1.75,0,0,1,.42-.9,61,61,0,0,1,2.65-6.44,4.48,4.48,0,0,1,1.13-1.62h.89a1.08,1.08,0,0,1,.46,1.2Zm-11.95,4.64.19-.08v-.27h.06a32.3,32.3,0,0,1,4.25-6.35H164l.29-.3v-.08l.06,0a.54.54,0,0,0,0,.18,6.55,6.55,0,0,0,.85-.73,2.16,2.16,0,0,1,1.92-.74l.19.15c.49.48.43,1.16-.32,2.05a37.67,37.67,0,0,1-2.7,2.81,57.58,57.58,0,0,1-4.8,4.15c0-.27.3-.51.22-.79a1.33,1.33,0,0,1-.28.1Zm16.24-15.59h0a2.12,2.12,0,0,0,.11.21,2.11,2.11,0,0,0,.59-.88l.87-.54h.08a.68.68,0,0,1,.24.87,3.25,3.25,0,0,1-.35.63,16.12,16.12,0,0,1-3.11,3.28c.06-.24.36-.48.27-.73l-.06-.07h-.05l.06-.11v.1l.06.06a6,6,0,0,0,.87-1.68h0a2.62,2.62,0,0,0,.54-1h0l-.1-.16Zm-13.29,3-.37.19h0Zm8.25,18a.49.49,0,0,1-.25.1c.07-.28.2-.58.25-.88h0a.61.61,0,0,0,.23-.56h0v-.28h0a.89.89,0,0,0,.32-.86h0a6.07,6.07,0,0,0,.86-2h0a2.13,2.13,0,0,0,.48-.87h0a.37.37,0,0,0,.06-.25,1.14,1.14,0,0,0-.15-.23h0a.59.59,0,0,1,.13.19,20.61,20.61,0,0,0,1.12-2.32h0l.6-.54v-.07h0v-.19h0v.27l.81-.26h0a.32.32,0,0,0,.3.19h0a1.12,1.12,0,0,1,.34,1.13,3.56,3.56,0,0,1-.35,1,39.4,39.4,0,0,1-4.78,6.48Zm37.4,19.18a3.13,3.13,0,0,0,.23-1.17h-.11q.74-3,1.49-5.94h.14c.42-.84.57-1.92,1.82-2a1.18,1.18,0,0,1,.54,1.19,2.13,2.13,0,0,1-.08.66,27.82,27.82,0,0,1-4,7.27Zm.14-1.62v-.05h0v.05Zm0-18.62c.65-.54.87-1.46,1.7-1.83h.1a.71.71,0,0,1,.25.88,1.28,1.28,0,0,1-.21.38,18.53,18.53,0,0,1-3.55,3.69h0a.34.34,0,0,0,.2-.31h0a1.88,1.88,0,0,0,.58-1.15h0a4.65,4.65,0,0,0,.88-1.62c-.05,0-.05-.08,0-.15a.07.07,0,0,0,0,.1h0Zm7.9,2.06a17.51,17.51,0,0,1-2.13,4.8v-.09a2.77,2.77,0,0,0,.21-1.48h.06v-.27h-.16V195h.06a1.71,1.71,0,0,0,.3-1l.09-.07v-.32l-.23-.17h0a1,1,0,0,1,.16.12c.2-.77.41-1.53.61-2.3l-.05-.17h0a1,1,0,0,0,.09.28,1.21,1.21,0,0,1,1,.17,1,1,0,0,1,0,.58Zm-3.84-1.72h0a4.54,4.54,0,0,1,.82-.14c.27.2.22.54.18.81a1.91,1.91,0,0,1-.11.41,31.48,31.48,0,0,1-3.3,4.86h0v-.28h0c.11-.49.22-1,.34-1.44h0l.87-2.31-.29.11h0l.29-.11h0c.54-.51.7-1.32,1.2-1.92h0ZM199.38,184h0l4.4-2.57-.25,0h.28a.39.39,0,0,0,.24-.06h0a1.43,1.43,0,0,1,.74.08l.07.09a.72.72,0,0,1-.12.8.93.93,0,0,1-.33.26,17,17,0,0,1-5,1.5Zm2.88,2.59.6-.84h0c.67-.51,1.31-1,1.92-1.47a1.45,1.45,0,0,1,1.48-.35h0a.72.72,0,0,1-.24,1,13.29,13.29,0,0,1-2.64,1.45,4.88,4.88,0,0,0-1,.37Zm-29.42-20.77a21,21,0,0,1-4.54,2.28l.22-.2v-.07l.54-.28a17.49,17.49,0,0,1,3.84-3.13h.18a.91.91,0,0,1,.17.17,1,1,0,0,1-.42,1.28Zm-28.93,23.4a1.17,1.17,0,0,1,1.36-.9l.31.14a1.11,1.11,0,0,1,.34.68v.08a1.14,1.14,0,0,1-1.07,1.2h0a1.19,1.19,0,0,1-.73-.25,1.1,1.1,0,0,1-.21-.91Zm32.4,3.72h.18a.74.74,0,0,0,0-.21h0c.25-.66-.08-1.43.33-2.07l.06-1.66h0a4.37,4.37,0,0,0,.48-1.77l-.2-.1h0l.19.1a10,10,0,0,0,.68-1.92l-.13-.13h0l.13.13.49-.67a1,1,0,0,0-.16-.06h0l.22.08a3.4,3.4,0,0,1,.95-.13,1.18,1.18,0,0,1,.62,1.31,8.75,8.75,0,0,1-.38,1.23,18.13,18.13,0,0,1-1.73,3.47,24.76,24.76,0,0,0-1.85,3.39c.07-.39.1-.67.14-1Zm26.76-1.73h0l1.16-1.71.07.07.22-.26,1.78-1.79-.28-.21h0l.17.13a1.83,1.83,0,0,0,.88-.67h.13a.12.12,0,0,0,0-.1h0a.34.34,0,0,0-.07-.15h0a.77.77,0,0,1,.07.16,1.71,1.71,0,0,1,.84,0h0c.34.35.13.72-.11,1a7,7,0,0,1-.62.6,29.43,29.43,0,0,1-4.26,3Zm-27.74-23.89c.39.44.1.85-.2,1.14a26.65,26.65,0,0,1-4.86,3.72h0l.07-.09a.24.24,0,0,0,.09-.14h0a.36.36,0,0,0,.09-.24.14.14,0,0,0,0-.09h0a3.3,3.3,0,0,0,.84-1.21h0a.32.32,0,0,0,.25-.31c-.08.11-.17.2-.25.31l-.1-.09h0l.09.08c.08-.11.17-.2.25-.31a1.51,1.51,0,0,1,.21-.23l2.1-2.12a.46.46,0,0,1,.06-.22h0a.54.54,0,0,0-.06.25c.41-.22.81-.58,1.27-.51l.17.11ZM169,162.45v.17a4.91,4.91,0,0,0,1.47-.54.41.41,0,0,1-.09-.1h0l.07.08h.46a2,2,0,0,1,.77,0,.59.59,0,0,1,.17.27c.16.51-.24.78-.65,1a26.33,26.33,0,0,1-5.49,1.59l1.05-.9a.11.11,0,0,1,0-.17h0l.06.06a8.53,8.53,0,0,0,1.62-1h0a.78.78,0,0,0,.59-.28v-.22Zm-16.52,39.08c-.34-.64-.68-1.29-1-1.91h0a.53.53,0,0,0,0-.25h0v-.94h0a4.37,4.37,0,0,0,.08-.54h0l.11-.26v.07c.77.38.73,1.25,1,1.92a4.35,4.35,0,0,0,2.57,2.37,2.9,2.9,0,0,0,2.09-.09c.82-.31,1.15-.66,1-1.14.21-.25.2-.54-.15-1a4,4,0,0,1-.38-.54,2.32,2.32,0,0,1,.14-1.45h0a4.66,4.66,0,0,1,1.43-.57V197h.23a3.37,3.37,0,0,1,1,.61l.09.12.2.25a3.47,3.47,0,0,1-.89,4.8c-2.16,1.62-5.67.8-7.48-1.25Zm31.09-21.32c-.05-.36-.09-.72-.11-1.08v-.62h0c.34-1.24.46-2.53.91-3.74a.82.82,0,0,1-.2-.12h0a.92.92,0,0,0,.28.19c.2-.35.39-.66.6-1a.64.64,0,0,1,.65-.26.87.87,0,0,1,.14,1c-.29,1-.63,1.86-1,2.87s-.79,1.91-1.23,2.79Zm21.6-7.47h1.31a.45.45,0,0,1,.19.22c.22.54-.26.95-.61,1.37a2.8,2.8,0,0,1-2.42,1.08,8,8,0,0,1-2.31-.5,10.88,10.88,0,0,1-3-1.92h0l-.05-.05a2.12,2.12,0,0,0-.54-.74h0c0-.2,0-.5.18-.54a6.23,6.23,0,0,0,2.49,1.15,1.25,1.25,0,0,0,.73.17h0l.06.07h2a3.38,3.38,0,0,0,2-.32Zm-17.62,5.94a.33.33,0,0,0,0-.24h0v-2.25a1,1,0,0,1-.13-.16h0a.69.69,0,0,0,.11.13,6.09,6.09,0,0,1,.33-2,1.41,1.41,0,0,1,0-.29h.08a1.71,1.71,0,0,0,0,.32.74.74,0,0,1,.68-.19,1.65,1.65,0,0,1,.2,1.3,18.12,18.12,0,0,1-1.08,4.47c-.06-.35.07-.75-.19-1a4.29,4.29,0,0,1-.13.6v-.09a3.53,3.53,0,0,0,.13-.54Zm3.13,81.54.34-1.41h0a.46.46,0,0,1,.17.17c0,.85-.27,1.59-.23,2.34v.07a.34.34,0,0,1-.37.26h0c-.2-.46.23-1,.17-1.4Zm6.14-19.59a.81.81,0,0,0,0-.31.53.53,0,0,1,0,.35Zm-2.88,2.7a.58.58,0,0,1-.75.23l-.15-.08a9.41,9.41,0,0,0-.17-2.25,2.7,2.7,0,0,1,.15-2,4,4,0,0,1,.19,1,4.17,4.17,0,0,0,.73,2.32A.6.6,0,0,1,193.92,243.33Zm-.95.1a.62.62,0,0,1-.14-.19Zm3.6-.36a7.48,7.48,0,0,0,.1-1.83.74.74,0,0,1-.12.13h0a.74.74,0,0,0,.12-.13V241h0a.21.21,0,0,0,0-.19c.37-.46.06-1.23.63-1.62a3.66,3.66,0,0,1,0,1.32,4.33,4.33,0,0,0,.26,2.39.59.59,0,0,1-.33.76h0a.65.65,0,0,1-.2,0,.66.66,0,0,1-.41-.1.57.57,0,0,1,0-.48Zm31.31-61.69a.87.87,0,0,0,.32.06.43.43,0,0,0,.24-.1h0a.32.32,0,0,0,.32-.2.16.16,0,0,0-.06-.13h0a.37.37,0,0,1,.05.11,2.89,2.89,0,0,0,1.14-.59h0a.78.78,0,0,0,.6-.28l-.28-.13h.11a1.15,1.15,0,0,1,.25.12,1.93,1.93,0,0,1,.34,0l.07,0c.54.5.08,1.18-.17,1.72a2.58,2.58,0,0,1-1.76,1.58,8.11,8.11,0,0,1-6.81-1l-.08-.09h0v-.41h.54a.31.31,0,0,1,.35.14,6.72,6.72,0,0,0,3.74-.26.48.48,0,0,0,.54-.23h0a1,1,0,0,0,.8-.29.61.61,0,0,1-.3-.05Zm-57.49-22.73.07.06.1.11a.94.94,0,0,1,.12.3c.11.54-.29.78-.72.89a15.47,15.47,0,0,1-1.92.36c-.8.09-1.62.08-2.41.16l.43-.13a12.51,12.51,0,0,1,4.32-1.7Zm-5.56,60c-.05-.19-.12-.38-.17-.54l-.06-.06h0a.38.38,0,0,0,0-.21h0a.53.53,0,0,1,0,.25l.06.06.5-.89a2.13,2.13,0,0,1,1.08-.2h0a1.21,1.21,0,0,1,.6,1.06,1.18,1.18,0,0,1-1.16,1.08h0a1.07,1.07,0,0,1-.76-.54ZM199,216.49a.53.53,0,0,1,.08.17,12.1,12.1,0,0,1,3.14-.87h.43l-.42.06a4.53,4.53,0,0,0,1.25.33,1,1,0,0,1,.11.72c-.06.44.23.54.54.73l.19.12.06.05c1.58,1,1.62,2,.1,3.36a.92.92,0,0,0-.41.54h0a2.11,2.11,0,0,1-2.27,1.92,3.25,3.25,0,0,1-1.92-.46,7.09,7.09,0,0,1-1.08-.6.25.25,0,0,0-.16-.12,5.34,5.34,0,0,1-1-.88l0-.07h0a.46.46,0,0,1,.41-.2l.23.08a2.08,2.08,0,0,0,2.16.18c-.22,0-.44,0-.67-.08l-1.53-.57c-.26-.38-.24-.67.33-.78h0a12.18,12.18,0,0,0,2.7-.05.53.53,0,0,0-.37-.43,3.88,3.88,0,0,0-2-.24,5.13,5.13,0,0,1-1,0h-.1l.18-.37,1.44-.33-.19-.15h0l.17.14a1.84,1.84,0,0,0,1.58-.4l-.3-.07a.77.77,0,0,0,.18-.18,3.22,3.22,0,0,0-2.1.12c-.3.08-.66.33-1,.16a7.29,7.29,0,0,1,1.32-1.56.46.46,0,0,0-.07-.16Zm-16.81-26.15h.06v0h-.11Zm12.56,28,.49.06.16.11.37.4a1.77,1.77,0,0,1,.24.84V220a1.41,1.41,0,0,1-1.58,1.23h-.06a1.42,1.42,0,0,1-1.31-.57c.1-1.12.35-2.12,1.7-2.31Zm-5.94,24.53v-1.39l-.2-.47v-.36h0a10.65,10.65,0,0,1,0-1.13.52.52,0,0,1,.21-.23c.5,1.33.48,2.58,1,3.71a.47.47,0,0,1-.33.6.25.25,0,0,1-.17,0,.35.35,0,0,1-.22-.08L189,243l-.17,0h0Zm32.47-45.33a1.22,1.22,0,0,1,0,.27,1.71,1.71,0,0,0,0,.32.45.45,0,0,1-.18.35h0a.49.49,0,0,0,.09-.28v-.56a.43.43,0,0,1-.22.09,1.07,1.07,0,0,0-.24-.69h0V193.8c0-.74.35-1.15,1.14-1.08a.76.76,0,0,0-.4-.26h.16a.69.69,0,0,1,.25.2.51.51,0,0,0,.17.07,1.47,1.47,0,0,1,.15.65,13.5,13.5,0,0,1-.51,2.68,4,4,0,0,0-.31,1.52ZM164.7,156.82a.6.6,0,0,1,0-.19h0a.54.54,0,0,0,0,.18,5.68,5.68,0,0,0,2.06-.51h.86a.54.54,0,0,0,.51-.17h.06a.33.33,0,0,1,0-.14h0a.48.48,0,0,0,0,.17,6.56,6.56,0,0,0,1.25-.07,1.15,1.15,0,0,1,.81.16.48.48,0,0,1,0,.29c-.12.85-.83.79-1.45.79a11.9,11.9,0,0,1-4.28-.42Zm17.82,40.88c-.06-.22-.1-.45-.15-.67a1.55,1.55,0,0,0,0-.43,5.31,5.31,0,0,0-.2-1.58v-1.75h0a16.45,16.45,0,0,0,.29-2.88h0a1.64,1.64,0,0,0,.24-1.18.27.27,0,0,0,.06-.27l.05-.08a.25.25,0,0,0,.11-.16h0l.08-.54a1.94,1.94,0,0,0-.05-.54l.05-.15a1.49,1.49,0,0,1,.09.63,1.56,1.56,0,0,0,.3-.77,1.8,1.8,0,0,1,1.54-1.55c.5.18.79.68.69,1.53a26.62,26.62,0,0,1-1,4.32c-.67,2-1.39,4.07-2.07,6.07Zm46.93-34.18h0v-1.69h0v-.3h0a.76.76,0,0,0,0-.84h0c.65,1.29.43,2.63.48,3.95a.28.28,0,0,1-.28.26h-.16a10.64,10.64,0,0,1-.08-1.38Zm-4.92-2.31V165c0,.24-.16.49-.38.47h-.1a1.41,1.41,0,0,1-.07-.5,13.71,13.71,0,0,1,.32-3.19v-.09c.06-.15.11-.3.17-.44a.11.11,0,0,0,0-.08Zm-2.78-15-.11-.12h0a.27.27,0,0,1,.1.11,1.18,1.18,0,0,0,.54-.87v-.11a15.92,15.92,0,0,1,1.42-1.85l.28-.16h0c-.54,1.08-1,2.16-1.55,3.24-.15.32-.36.6-.76.37h0a1.3,1.3,0,0,1,0-.62ZM208.91,163a.44.44,0,0,0-.15.12.69.69,0,0,1,.11-.13Zm-13.58-7.66-.07-.05h0Zm-7.81,1.4a3,3,0,0,1-2.7-.45l-.68-.64h0L183,153.08h0c-.09-1-.18-2.06-.26-3.11a1.67,1.67,0,0,0,.19-.88.4.4,0,0,1,.34-.45.28.28,0,0,1,0,.22c.09,2.47,1.56,4.14,3.24,5.69.42.39.8.65,1.27,1.16s.42.85-.28,1ZM57.78,124.86l.09.24v.18a2.25,2.25,0,0,1-.08-.24Zm-2.2,7.27a.24.24,0,0,1,0,.12c-.06-.15-.12-.31-.19-.47h.06a2.25,2.25,0,0,0,.09.35Zm-.4-.88a.41.41,0,0,1,.11.23.51.51,0,0,1-.15-.23Zm-.28-.54a.09.09,0,0,1,0,.07.11.11,0,0,0,0-.07Zm.39,7.43h0l-.28-.3h0ZM42,147.08a5.47,5.47,0,0,0,1.51,2.3h.08l.13.2a1.31,1.31,0,0,0,.23.24l.17.14h0l.31.25a12.34,12.34,0,0,0,3.18,2.07l1.15.33,0-.06h.1a7.25,7.25,0,0,0,2.08.73A13,13,0,0,1,42.55,149a6.1,6.1,0,0,1-1-1.53,3.78,3.78,0,0,1-.17-1.11h0c.32,0,.45.36.58.68Zm21.92,26.2h0a4.17,4.17,0,0,0,0-.5h0l1-1.39a1,1,0,0,1,.81-.5,1.16,1.16,0,0,1,.25.43,2,2,0,0,0,1.22,1.13,4,4,0,0,0,1.92.59h0c-.51.36-.54,1.11-1.32,1.32a6.43,6.43,0,0,1-2.27.17,1.61,1.61,0,0,1-1.57-1.25Zm6,7.56h0a.8.8,0,0,1-.21.15Zm2.65,83.59a11.15,11.15,0,0,0-.36-1.62,1.46,1.46,0,0,1,.11-.41,12.54,12.54,0,0,1,1,2.65.37.37,0,0,1-.23.46H72.7c-.15-.27-.06-.78-.11-1.08ZM90.24,233c-.23.81-1.56,1.26-2.61.9a5.12,5.12,0,0,1-2.1-1.28.62.62,0,0,1,.22-.35l.25.07a1.52,1.52,0,0,0,1.19.38,1.56,1.56,0,0,0-.28-.23l.21-.06-1.46-.61c-.06-.23,0-.42.49-.42a9.69,9.69,0,0,0,1.78-.12,2.46,2.46,0,0,0-.45-.25h.21a2.4,2.4,0,0,0-1.92-.32.53.53,0,0,1-.39,0l.75-.58h.19l-.15.09a3.8,3.8,0,0,0,1.8-.17,1.48,1.48,0,0,0-.46-.16l.28-.09c-1-.43-1.62.14-2.3.18a3.83,3.83,0,0,1,3.91-1.88l.2,0a.15.15,0,0,1,.13.13c-.06,1,.87,1.13,1.35,1.66h0a1.34,1.34,0,0,1-.21,1.88h0l0,0a1.94,1.94,0,0,0-.59,1.15Zm25.7-23.87a.46.46,0,0,0,.23-.09h.35a3.85,3.85,0,0,0,.63.27,2.14,2.14,0,0,1-1.2-.08v-.06l-.16-.08h.08Zm-5.24-1.11a6.48,6.48,0,0,1,.89,3.3v.44a3.72,3.72,0,0,1-4.1,3.31h0a1.46,1.46,0,0,0-1.62.8,6.4,6.4,0,0,1-7.1,2.88,6.09,6.09,0,0,1-3-1.81l-.69-.89-.11-.18a1.54,1.54,0,0,0-1.62-.81,3.32,3.32,0,0,1-.89,0,3.79,3.79,0,0,1-1.92-.89,4.78,4.78,0,0,1-1.12-1.82h0a1.51,1.51,0,0,1,0-.28h0l.06-1.71h0l-.06-.09v0a.62.62,0,0,0,.22-.54h0a.25.25,0,0,0,.09-.24l-.11-.1v-.06l.08.08a.77.77,0,0,0,.27-.6h0v.09a25.19,25.19,0,0,1,2.41-3.49l-.13-.12h0l.1.1h0a6.12,6.12,0,0,0,1.2-1.13c1.2-.6,2.24-1.59,3.65-1.81l.33-.28h0l.36-.08-.06,0a.57.57,0,0,0,.26,0,.17.17,0,0,1,.07-.16l.78-.14H99c-2.88,2.16-3.78,5.07-3.32,8.48l.18-.24a2.48,2.48,0,0,0,.25.58,14,14,0,0,1,2.06-5.27l-.1,0h0l.1,0,.14-.06a12.15,12.15,0,0,0,.07,5.75h0l0,.33a3.67,3.67,0,0,0,.46-2.27h.06c.47-1.13.47-2.43,1.29-3.55.29,2.16.26,4.16.42,6.37a4.16,4.16,0,0,0,.23-.42.87.87,0,0,0,.07.17h0l.06.09c-.14.14,0,.16.11,0a2.12,2.12,0,0,0,.15-1.14c-.07-.19,0-.41-.06-.61h0c.07.21,0,.44.07.63.42-1.62.14-3.31.42-5.27a20.29,20.29,0,0,1,1,5.49l.07-.19V211c.5-.2.44-.57.44-1h0a.3.3,0,0,0,0-.23.61.61,0,0,1,.11-.54.58.58,0,0,0,1,.65.58.58,0,0,0-.82-.79h0a14,14,0,0,0-.26-4,.58.58,0,0,1-.15-.11v-.19h0a.35.35,0,0,0,.19.28h.2c1.35,1.3,1.41,3.11,2,4.79a2.13,2.13,0,0,0,.14-.35,1,1,0,0,0,.12.35,10.55,10.55,0,0,0,.06-1.13,5.4,5.4,0,0,0-.38-2.57,6.59,6.59,0,0,0-2.74-3.59h-.07a8.5,8.5,0,0,0-1-.57,1.22,1.22,0,0,1,1.08.27l1.71.28v-.09h0c.69.34,1.42.63,2.06,1a11.36,11.36,0,0,1,1.45,1A12.24,12.24,0,0,1,110.7,208.05Zm-7.6-9.59c-.17.06-.32.17-.5.09l.08-.09.23-.2a.35.35,0,0,0,.28-.27l.09-.09.24-.05c.45-.7,1.14-1.28,1.23-2.16h0a2.54,2.54,0,0,0,.51-1.7h0v-.07a4.05,4.05,0,0,0,0-2.87h0a.73.73,0,0,0-.09-.41c-.67.89-.63,1.92-1,2.8A12.51,12.51,0,0,1,103,195.6c-.14-.19-.08-.45-.16-.66a1.13,1.13,0,0,0-.22.27.38.38,0,0,0,0-.15,1.22,1.22,0,0,1,.15-.17,1,1,0,0,0,0-.25h0a7.24,7.24,0,0,0-.27-4.12,1.69,1.69,0,0,0-.12-.44c-.54,1.92-.54,4-1.69,5.87h0a5.32,5.32,0,0,1-.18-.79,21.74,21.74,0,0,0-.22-3.78,5.13,5.13,0,0,0-.13-1.79.59.59,0,0,0-.13.18v-.22a21.11,21.11,0,0,0-.62,5.65l-.13.75a8.1,8.1,0,0,1-.48-1.14l-.6-4v.11a.74.74,0,0,0,0-.33c-1,1.87-.62,3.84-.26,5.94a4.83,4.83,0,0,1-1.46-1.89.4.4,0,0,0-.09-.21,4.33,4.33,0,0,1-.21-.54L95.71,192h0c0-.25-.08-.64-.37-.62h0a1.33,1.33,0,0,0-.14-.19v.3a1.07,1.07,0,0,0,0,.47v0a7.65,7.65,0,0,0,1.25,4.67,3.29,3.29,0,0,0,.38.54,6.39,6.39,0,0,0,.59.68.27.27,0,0,1-.27.22,1.81,1.81,0,0,1-.29-.19,10.9,10.9,0,0,1-1.73-1.28h0q-.33-.3-.63-.63a1,1,0,0,0-.13-.16,6.14,6.14,0,0,1-.42-.47l-.8-1.2h0a18.05,18.05,0,0,1-1.31-3.83,8.78,8.78,0,0,1-.09-1h0V189h0v.06c.11-.42.2-.84.34-1.25a2.63,2.63,0,0,1,2.16-2.16A1.91,1.91,0,0,0,96.05,184H96a2.2,2.2,0,0,0,.83-.8v-.12h0v.16A12.06,12.06,0,0,1,99.37,182v-.12h0v.1h2l1.43.36h0a8.65,8.65,0,0,1,1.92,1.7q.18.27.33.54a1.5,1.5,0,0,0,.44.61,1.27,1.27,0,0,0,.84.39,1.59,1.59,0,0,1,.38.07,3.11,3.11,0,0,1,1.51.79,3,3,0,0,1,1,2.36,10.55,10.55,0,0,1-6.08,9.59ZM132,171.23a3.67,3.67,0,0,1-.13-2.27c0-.2.15-.47.42-.38.22.54.43,1.08.7,1.62a3.67,3.67,0,0,0,2.56,2.22,3,3,0,0,0,3.13-.43.63.63,0,0,0,.32-.83.72.72,0,0,0-.17-.22c-.87-1.08-1-1.62-.26-2.35a1.56,1.56,0,0,1,2.11-.26,1.14,1.14,0,0,1,.16.15,3.28,3.28,0,0,1,.54.64,3.41,3.41,0,0,1-1.08,4.61c-2.7,1.78-6.93.28-8.27-2.6Zm12.91,35.05c.34,0,.44-.28.61-.51.68-1,1-1.14,1.92-.78a2.56,2.56,0,0,1,.44.36,3.47,3.47,0,0,0,.32.34.37.37,0,0,0,.47.21h.06a1.82,1.82,0,0,1,1.08,2.33,5.41,5.41,0,0,1-1.62,2.62.24.24,0,0,1-.1.05h0l.12-.06c-.42-.61.42-1.14.09-1.91l-.61,1.56c.11,0,.15.17.2.29h0c-.05-.12-.09-.25-.2-.25a.93.93,0,0,1-.4.09l-.1-.26c-.19-.58.3-1.19-.21-1.84v-.24a2.43,2.43,0,0,0-.36,2c0,.25,0,.47-.19.54-.26-.57,0-1.27-.41-1.8a2.57,2.57,0,0,1-.09.67h0a3.52,3.52,0,0,0,.1-.65c-.06-.07-.11-.11-.16-.1a2.17,2.17,0,0,0-.13-.5c-.54.6-.11,1.25-.08,1.57s.34.7-.17.84A3.9,3.9,0,0,1,144,207.6c0-.73.07-1.37.86-1.37Zm5.35,5.08-.08,0c-.07.06.05-.14.08-.15Zm43.06-13.18h0a.21.21,0,0,0,0,.19c1.46-1.51,2.93-3,4.43-4.53a5.41,5.41,0,0,1,1.38-1h0a2.25,2.25,0,0,1,.82.09,2.11,2.11,0,0,1,.23.19,1.23,1.23,0,0,1-.11,1.59,2.59,2.59,0,0,1-.4.41,31,31,0,0,1-7.33,4.49c.21-.5.71-.76,1-1.21a.23.23,0,0,1,0-.29Zm7.49,45.74h0a7.15,7.15,0,0,0,.35-2.56v-.07c.28-.26.17-.75.62-1a12.33,12.33,0,0,1-.13,1.35,5,5,0,0,0,.14,2.27c.2.43-.22.77-.57.81a.62.62,0,0,1-.27,0,1.57,1.57,0,0,1-.14-.88Zm26.32-97.23c-.06.13-.13.26-.19.38a.41.41,0,0,1,0,.09.57.57,0,0,1-.79.18h0l-.08-.06a2.27,2.27,0,0,1,.62-1.22l1.48-2.11a.08.08,0,0,0,0-.07l.51-.41c-.51,1.1-1,2.17-1.49,3.21Zm42.38-6.55h0a.79.79,0,0,0,.54.26v-.05h.05a.73.73,0,0,0,.54.2h0l.14.1a.31.31,0,0,1,.06.43.42.42,0,0,1-.35.19,2.86,2.86,0,0,1-.8-.3,7.89,7.89,0,0,1-2.21-1.49h0a8.24,8.24,0,0,1-1-1.21,2.25,2.25,0,0,1-.08-.24l.26.18a8.82,8.82,0,0,0,1,.75V139l.36.21a10.93,10.93,0,0,0,1.05.6,1,1,0,0,0,.46.31ZM207.71,98.82a.48.48,0,0,0,.49.09l.1.07.3.27v.07l.16.07.11.09h0a9.71,9.71,0,0,0,2,1.83h0l.14.13a.89.89,0,0,0,.32.29l.1.09h0l.3.27h0l.24.22.06.06h0a.87.87,0,0,0,.5.44l.59.54a7.3,7.3,0,0,0,.83.75l.91.81a1.81,1.81,0,0,0,.43.4l4.8,4.35a3.17,3.17,0,0,0,.39.34l.13.13,1.62,1.44.26.27a7,7,0,0,1-2.35.47c-1.53.23-3.05.43-4.57.68a.79.79,0,0,1-.86-.21h0a.76.76,0,0,1-.16-.26c-.31-.69-.71-1.37-1.11-2.1h0l.28-.31a12.61,12.61,0,0,0,2.25.66v-.26h0a.28.28,0,0,0,0,.25c.1.18.33.33.41.1s-.12-.32-.31-.39l-3.34-2.78a.36.36,0,0,1,.06-.2.18.18,0,0,0-.06-.09h0a.47.47,0,0,1,.06.09,2.72,2.72,0,0,0,1.54.16h.27l-.34-.43a2,2,0,0,0-.33-.43c-1.4-1.83-2.76-3.62-4.25-5.32l-.24-.28h0c-.19-.54-.71-.89-1-1.4a3.39,3.39,0,0,1-.89-.88h0Zm-14.49,54a1.5,1.5,0,0,0,1.22.32.17.17,0,0,0,0-.1h0v.05a1.39,1.39,0,0,0,.83-.08h0a1.47,1.47,0,0,0,.88-.49.47.47,0,0,0-.05-.1h0a.17.17,0,0,1,0,.1.6.6,0,0,0,.58-.3v-.17h0v.17l.43-.13h.08c.43.43-.45.95-.71,1.38a4.37,4.37,0,0,0,1.25,6h0a4.32,4.32,0,0,0,.77.4,3,3,0,0,0,1,.35h0l.5.1a2,2,0,0,0,2.6-1.06v0a1.59,1.59,0,0,0,.07-.2.21.21,0,0,1,0-.13h0a.27.27,0,0,1-.08.22,1.51,1.51,0,0,1,.41-.06.8.8,0,0,1,.11.5,7.45,7.45,0,0,0,1.55,3.33,2.62,2.62,0,0,0,1.91,1.24.78.78,0,0,0,.89-.05h0a1.5,1.5,0,0,0,1.14-.65v-.14a.38.38,0,0,0,0,.15,1,1,0,0,0,.51-.57h-.06a.39.39,0,0,0-.19.06.43.43,0,0,1,.25-.07l.15-.26h0c.11,0,.23-.17.34-.23h.06c.35.33-.18.68-.39,1-1.23,1.53-2.67,1.91-4,1.13l-1.08-1h0l-.23-.33h0a.73.73,0,0,0-.32-.57h0c-.2-.57-.38-1.16-.62-1.73-.07-.16-.15-.21-.23-.2l-.06-.19a5,5,0,0,1-4.54.16l-.91-.54c-.17-.13-.34-.27-.5-.42a6.63,6.63,0,0,1-1.49-2.88v-1.4c.15-.51.29-1,.46-1.7l-.28.06v-.14a3.75,3.75,0,0,1-3.05-.58,4.56,4.56,0,0,1-.75-1.39c-.38-.45-.22-1-.28-1.51h0l.21-.81a5,5,0,0,0,0,1A2.83,2.83,0,0,0,193.22,152.82Zm15.48,10.31-.07.13Zm-55-2.86h0a0,0,0,0,0,0,0,7.13,7.13,0,0,0,1.51-.32,3.68,3.68,0,0,1,1.58-.14,1.21,1.21,0,0,1,.67.84,1.17,1.17,0,0,1-.75,1.25,1.78,1.78,0,0,1-.54.21,33,33,0,0,1-8.71.38h0a2.12,2.12,0,0,1,1-.51l5.18-1.68-.12-.07ZM96.82,166.9V167a7.56,7.56,0,0,0,3.72,0h0c.74.41,1.56.17,2.34.26v-.06h0v.1c.21.2.54.18.84.36a1.59,1.59,0,0,1-.91.13c-1,.1-2.06.1-3,.1a3.2,3.2,0,0,0-2.16.65l-.08.07a.88.88,0,0,1-1,0l-.09-.06a.77.77,0,0,1-.18-.18.66.66,0,0,1-.12-.17,1.44,1.44,0,0,1,.58-1.26.8.8,0,0,1-.17-.15h0A1.37,1.37,0,0,0,96.82,166.9Zm-37-66.38.86-.87a.67.67,0,0,1,.61-.23c.25.27,0,.77-.09,1.13a1.59,1.59,0,0,1-.31.64c-1.85,2.19-2.49,4.86-3,7.56a46.68,46.68,0,0,0-.65,11.2,1.56,1.56,0,0,0,.15.41h-.15a1.66,1.66,0,0,0-.16-.49c-.07,0-.12.11-.19.17h0l.15-.14a5.91,5.91,0,0,1,0-1.68,48.5,48.5,0,0,1-.34-7.52,9.46,9.46,0,0,0,.27-2.6l-.09,0h0l.12.06a.38.38,0,0,0,0-.21,12,12,0,0,0,.54-2.36h0v-.3h0a1,1,0,0,0,.28-.86h0a1,1,0,0,0,.33-.85l-.26.24v-.09l.17-.14-.05-.12a.06.06,0,0,1,0-.06.17.17,0,0,0,.06.16l1.7-2.88a.51.51,0,0,1-.09-.18h0Zm-8.1,14.77c-1.21,4.8.49,9.18,2.12,13.54,0,.08.13.14.19.21.2.34.36.7.54,1.05a.2.2,0,0,1,0,.11c-.19-.39-.37-.78-.58-1.16l-.38-.09,0-.14a9.72,9.72,0,0,1-.9-2,33,33,0,0,1-2.06-6.33h0a4.61,4.61,0,0,0-.25-2h0a12.8,12.8,0,0,0,.26-2.54h0a2.46,2.46,0,0,0,.35-1.08v-.09l.46-.62h.08c.49.15.33.81.24,1.19Zm2.88,22.22h0l-.12-.14h0Zm-.54,32.84a1.09,1.09,0,0,0-.24-.83h0c.09-.8-.54-1.75.54-2.3h0a1,1,0,0,1,.61.33,1,1,0,0,1,.12.48A11.48,11.48,0,0,0,60,176.91h.07l.36.27a.72.72,0,0,0,.36.23l.76.47a12.5,12.5,0,0,0,2.75,1.4l.38.17h0a2.9,2.9,0,0,0,1.46.57h.39a.5.5,0,0,0,.5.17h.29a.38.38,0,0,0,.27.07h0a.55.55,0,0,0,.45.25c-.06.14-.23.13-.38.14h0a26,26,0,0,1-5.76-1.84c-3.73-1.83-6.58-4.44-7.87-8.46Zm27.3,68a1.51,1.51,0,0,1-.46-.13,1.74,1.74,0,0,1-.72-.54,3.51,3.51,0,0,1-.15-1.87l1.34-2-.2-.09a.39.39,0,0,1,.08-.1l.22.1h.31v.11h0a1.13,1.13,0,0,0-.21,1.29,1.2,1.2,0,0,0,.15.59l.63-1.69a.42.42,0,0,1,.26-.08,10.65,10.65,0,0,0,.23,2.11,1.07,1.07,0,0,0,.07-.19v.26a2.46,2.46,0,0,0,.24-1.72v-.3a1.31,1.31,0,0,1,0-.28c.36-.15.44.09.54.3a2.51,2.51,0,0,0,.47,1.78.43.43,0,0,0,0-.16,2.11,2.11,0,0,0,.19.23c0-.54.12-1.12-.31-1.59a.17.17,0,0,0,0,.1h0l-.06-.18a5.8,5.8,0,0,0,0-.59,3.3,3.3,0,0,1,1.58,1.53,4,4,0,0,1,.23,1.91c0,.29,0,.79-.24.79-1,.11-1.22.91-1.78,1.43a1.41,1.41,0,0,1-1.84-.2c-.14-.3-.17-.64-.57-.78ZM105,199.62a.88.88,0,0,1,.44-.22A1.4,1.4,0,0,0,105,199.62ZM150,215.25c-.28-.19-.37-.42,0-.63h0v0a.93.93,0,0,0,.88.33.34.34,0,0,1,0-.31l-.36-.15a.53.53,0,0,0-.41-.16h-.07v.06h0v-.06c-.3-.54.16-.51.47-.58h0a4.78,4.78,0,0,0,1.92-.08,1.28,1.28,0,0,0-.21-.14h0a2.68,2.68,0,0,0-2.32-.45h-.22V213c.65-.49,1.55-.1,2.21-.65l-.19-.08a1.31,1.31,0,0,0,.28-.09c-.73-.54-1.23,0-1.75,0-.19,0-.41.1-.54,0a.17.17,0,0,0,0-.1l.27-.34a.38.38,0,0,1,0-.15h0a.48.48,0,0,0,0,.17,1.34,1.34,0,0,0,.59-.54h0a5.77,5.77,0,0,1,2.16-.61c.74,0,1.08,0,1.31.2,0,.77.54,1,1,1.35a1.14,1.14,0,0,1,.23.2,1.28,1.28,0,0,1-.11,1.81,1.91,1.91,0,0,0-.76,1.21c-.09.64-1.15,1.12-2,1a5.08,5.08,0,0,1-1.32-.42c-.34-.29-.74-.51-1.08-.76Zm0-3.83a.09.09,0,0,1,0,.07.2.2,0,0,0,0-.11Zm39-15.2h0c0-1.85-.64-3.62-.64-5.47a.57.57,0,0,1-.22-.07h0l.17,0a3.78,3.78,0,0,0-.22-2h0a8,8,0,0,1,.1-1.29c.15-.58.34-1.08,1.11-1.08a1.59,1.59,0,0,1,.38.07,1,1,0,0,1,.4.54,2.42,2.42,0,0,1,.13.84,37.82,37.82,0,0,1-1,8.42.54.54,0,0,1-.15.22Zm56.81,5.53.24.21h0c.48.32.88.83,1.49.83a.54.54,0,0,0,.07-.13l-.06.14a3.16,3.16,0,0,1,1.12.34.54.54,0,0,1,0,.18.77.77,0,0,1-.32.75h0a.66.66,0,0,1-.91,0h0l-.25-.23a.31.31,0,0,0-.25-.23c-.68-.54-1.5-.86-2.16-1.46a5.58,5.58,0,0,1-1-1v-.32a.64.64,0,0,0,.08-.19h0a.61.61,0,0,1-.07.14c1-.06,1.37.71,2.06,1Zm-1.08,4.89a1.06,1.06,0,0,0,.81.16,1.4,1.4,0,0,1,.64,0,1,1,0,0,1,.18.34.75.75,0,0,1-.23.79.67.67,0,0,1-.8.13c-1.16-.9-2.67-1-3.83-1.92l-.2-.13a.61.61,0,0,1-.14-.54c1.22.15,2.16,1.08,3.39,1.17v-.08Zm-2,5.66c-1.25-1-2.76-1.28-4.05-2.1l-.1-.06c.17-.24.43-.17.73-.12s.65.14,1,.22h0l1.08.38a10.91,10.91,0,0,0,1.69.49,2.23,2.23,0,0,1,.51.19.61.61,0,0,1,.13.69.59.59,0,0,1-.17.33.52.52,0,0,1-.59.12l-.11-.07h-.08Zm-6.61-48.8v.12a.39.39,0,0,1-.31.45h0a.28.28,0,0,1-.22,0c-.17-.74-.35-1.49-.51-2.23h0v-.05h0a3.7,3.7,0,0,1,.25-1.47,20.57,20.57,0,0,0,.82,3.2Zm-19.9,4.93c1.32,1.14,2.34,1.08,3.6-.23h0c.71-.59.78-1.53,1.19-2.27h.1a.28.28,0,0,1,.17.07.35.35,0,0,1,.08.22,7.36,7.36,0,0,0,0,1.15,4.17,4.17,0,0,0,1.79,3.28,3.82,3.82,0,0,0,1.24.7h0a.93.93,0,0,0,.9.23v-.16h0v.19h.85l-.14-.13h0l.13.12a3.86,3.86,0,0,0,2.62-.81c.9-.54,1.4-1.25.89-2.34h-.13v-.1h.14L230,168v.11a1,1,0,0,1,.74.37l.07.06a10,10,0,0,0,.82.64,5.28,5.28,0,0,0,2.41,1.08,1.57,1.57,0,0,0,1.74-.06h0a1.13,1.13,0,0,0,.83-.88.54.54,0,0,1-.22-.05h0a.54.54,0,0,0,.22.05,2.94,2.94,0,0,0,.35-1.67h0a.41.41,0,0,0,0-.22l-.16-.24h0l.15.24.19-.54a3.2,3.2,0,0,1-.21,2.87,2.53,2.53,0,0,1-2.58,1.23,7.06,7.06,0,0,1-3-1.08h0a8.24,8.24,0,0,1-.83-.63c-1,2.32-2.88,3.08-5.26,2.95a4.6,4.6,0,0,1-2.25-.69,12.19,12.19,0,0,1-1.2-1.08,5.89,5.89,0,0,1-.59-1A.73.73,0,0,0,221,169h0c-.05-.16,0-.46-.2-.42a.21.21,0,0,1,0-.11c-.2-.11-.26-.08-.35,0-1.59,1.47-3.1,1.56-4.42.35a3,3,0,0,1-.48-.65,1.8,1.8,0,0,1-.57-.88l-.09-.09a.22.22,0,0,1,.26-.15h0a1.19,1.19,0,0,0,.42.71h0a3.94,3.94,0,0,0,.74.67Zm-4.16-12.16c-.48,1-.92,2-1.31,3a.41.41,0,0,1-.41.34,1.9,1.9,0,0,1,0-.67h-.14A11.86,11.86,0,0,1,212.14,156.27Zm18.56-7.67a1.44,1.44,0,0,0,.13-.4h0a3.21,3.21,0,0,0,.6-1.39.42.42,0,0,1-.1-.2l0-.12a.56.56,0,0,0,.13.32.91.91,0,0,0,.28-.54.25.25,0,0,1,.11.12c-.11.75-.19,1.5-.32,2.24-.07.36-.23.84-.73.69a.42.42,0,0,1-.17-.1.81.81,0,0,1,0-.61Zm32.82,1.91h0a.34.34,0,0,1-.08-.09h0a.54.54,0,0,0,0-.18h0c.1-.29.2-.59.31-.89h-.34v-.07h.26L264,149h.11a1.35,1.35,0,0,1,.49,0,1,1,0,0,1,.46,1.28,1,1,0,0,1-.78.55h0a1.21,1.21,0,0,1-.38,0,2.24,2.24,0,0,1-.35-.34Zm-1.08-23v-.06a2.09,2.09,0,0,1-.11-.43.93.93,0,0,1,.26-.78c0,.49-.21.88-.17,1.29Zm-32.17-24.36a.48.48,0,0,1,.07-.31v0l-.1.41Zm15.06,4.58a.54.54,0,0,1,0-.18c.15.21.28.45.43.68a4.46,4.46,0,0,0-.34-.42Zm3.68.57h0l.09,0h0Zm-1.51-1.53a9.41,9.41,0,0,1-1-.58h0a8.11,8.11,0,0,0,.89.54A6.45,6.45,0,0,0,247,106h0a5.51,5.51,0,0,1,.54.73ZM46,126h0a.41.41,0,0,0-.2-.37v0c-.13-.75-.26-1.49-.38-2.24l-.14-.1v-.07l.19.13v-1.74h0a.29.29,0,0,0,.06-.22,1,1,0,0,1,0-.25h0a.81.81,0,0,0,0,.22.54.54,0,0,1,.47-.11,1.09,1.09,0,0,1,.22.46,1.65,1.65,0,0,1,.09.7,10.62,10.62,0,0,0,1.14,4.86,30.25,30.25,0,0,0,4.9,7.72l.86,1h0l-.86-1h0a.25.25,0,0,1-.28.21,5.09,5.09,0,0,0,.34.47h0l-.32-.45-.2-.24v-.11a1.08,1.08,0,0,1-.13-.29.31.31,0,0,1-.19,0l-.23-.27h0l-.75-.94-.11-.2-.16-.12-.26-.33h0l-.25-.31h0c-.18-.23-.37-.45-.54-.69l-.29-.39-1.44-2.16v-.06l-.08-.11.13.18a.3.3,0,0,0-.2-.3l-.05-.11A21.87,21.87,0,0,1,46,126Zm-.8,33.87c.39.19.8.32,1.19.49h.5a7.55,7.55,0,0,0,2.2.54c-.16.3-.54,0-.79.19a14.2,14.2,0,0,1-6.53-2.84l-.1-.06-1-.78a15,15,0,0,1-1.36-1.62.83.83,0,0,1,.7-.37,3.77,3.77,0,0,1,.34.54,11.16,11.16,0,0,0,1,1.12A9.74,9.74,0,0,0,45.19,159.84Zm70,35.93a1.63,1.63,0,0,0,.27.6h0c.14.68.66.85,1.26.85H117a5.53,5.53,0,0,1,2.43,2.21,4.62,4.62,0,0,1-1.68,6.13,4.28,4.28,0,0,1-5,0,7.56,7.56,0,0,1-1.24-.95,15.28,15.28,0,0,0-5.61-3.69l.23-.39h0c.77-.24,1.58-.48,2.31-.72s1.54,0,2.42-.24a2.48,2.48,0,0,0-.4-.26,3.2,3.2,0,0,0-.61-.15c-1.41-.48-2.77.06-4.18.35a.37.37,0,0,1-.12-.13h0c1.28-1,2.8-1.77,3.68-3.24h0a.87.87,0,0,0,.41-.51l-.09,0h0a.21.21,0,0,0,.13.07,1.13,1.13,0,0,0,.54-.58h0l.45-.35v-.19h0v.21a4.13,4.13,0,0,1,2.88-.5h.07a3.39,3.39,0,0,1,1.44,1.29,1.38,1.38,0,0,1,.14.24Zm-4.93,57.49a4.83,4.83,0,0,0,.86,2.37c.2.24,0,.54-.27.66a.36.36,0,0,1-.2.06.44.44,0,0,1-.22-.07.33.33,0,0,1,0-.14,6.19,6.19,0,0,0-.54-2.16h0v0h0c.1-.34-.18-.85.22-1.08a.67.67,0,0,1,.16.42Zm-3.13-9.72a5.39,5.39,0,0,1,.49,1.72,4,4,0,0,0,.83,1.8c.29.29.19.62-.21.83a.79.79,0,0,1-.64,0c-.4-.71-.2-1.66-.63-2.38v-.06h0l0-1.91v-.3a0,0,0,0,1,0-.05h0v.05h0v.3ZM107.7,256a.2.2,0,0,1,0,.11.36.36,0,0,1-.25.45h0a.19.19,0,0,1-.15,0h-.05a.44.44,0,0,1-.07-.19c-.12-.71-.2-1.41-.3-2.11a1.55,1.55,0,0,1-.26-1c.63.78.66,1.82,1.09,2.7Zm-2.65,1.51c-.18-1-.3-2.08-.44-3.12l.11.13a13.39,13.39,0,0,1,1,2.61c.11.26-.15.48-.39.48h-.06a.48.48,0,0,1-.18-.06Zm-.83-10a.92.92,0,0,1,.09.23.5.5,0,0,1-.45.54h-.08a.42.42,0,0,1-.27-.09c-.07-.49.09-1-.29-1.44v-.06h0a.32.32,0,0,0,0-.27h0v-.82a1.14,1.14,0,0,1-.2-1v-.54l.07-.12a29.53,29.53,0,0,0,1.13,3.53Zm-2.49,1.46a.49.49,0,0,1,0,.24.5.5,0,0,1-.53.46h-.12a.55.55,0,0,1-.27-.12c0-.57.17-1.17-.25-1.69a4,4,0,0,0-.29-1.7h-.07c0-.22,0-.45.06-.67.85,1,.94,2.35,1.46,3.46Zm38.55-32.81a6.7,6.7,0,0,1-.37-.7v-.14c0-.39-.44-.43-.71-.6a.64.64,0,0,1-.19-.13,1.91,1.91,0,0,1-.39-1.3h.08a.37.37,0,0,0,.06-.22v-.14c.5-.45,1.08-.8,1.08-1.62v-.05a1.71,1.71,0,0,0,0-.32h0a2,2,0,0,1,0,.35,2.87,2.87,0,0,1,3-.58l.2.11h0c.49.33,1,.64,1.49,1l.13.12c-.16.44-.58,0-.76.25h0c.09.19.34.28.48.43l-.08.08a1.18,1.18,0,0,0,.18.13.34.34,0,0,1,0,.2h-2.7a2.39,2.39,0,0,0,.59.36h-.22a2.35,2.35,0,0,0,1.68.42c.28,0,.6-.1.84.07-.68.51-1.7,0-2.4.69a1.45,1.45,0,0,0,.29.11c.46.44.89.18,1.26.09a1.17,1.17,0,0,1,.76-.07,3.63,3.63,0,0,1-3.24,1.54,2.16,2.16,0,0,1-1-.11Zm7.07,0h0a.43.43,0,0,1,.36-.26h0a.55.55,0,0,0-.36.25Zm73.84-.29a.66.66,0,0,1,.43-.23l.25-.31a.24.24,0,0,1-.14-.19h0l.11.11a.4.4,0,0,0,.3-.23h0a1.26,1.26,0,0,0,.66-.54.28.28,0,0,1-.15-.11.28.28,0,0,0,.15.08,2.43,2.43,0,0,0,1.08-.95h0a9,9,0,0,0,1.71-1.48v-.1a7.23,7.23,0,0,0,1.62-1.6v0l.1-.1a.21.21,0,0,1,.14.15,24.87,24.87,0,0,0,4-4.89h0a9.91,9.91,0,0,0,1.54-2.55l-.1-.12h0l.1.12a.75.75,0,0,0,.26-.54h0a.3.3,0,0,0,.21-.31h0a.38.38,0,0,0,.11-.25h0a4.48,4.48,0,0,0,.8-1.71h0a1.12,1.12,0,0,0,.31-.88l-.11-.11h0l.1.09a8.25,8.25,0,0,0,.84-2.88h.36c1,2.7,1.79,5.26,1.13,8.25a.31.31,0,0,1-.18-.09,3.07,3.07,0,0,1-.17-.31,1.77,1.77,0,0,0-.32-1.15h0a2.7,2.7,0,0,0-.16-.48c-.54,1.74-.54,3.51-1,5.35,0-.19,0-.39,0-.6a1,1,0,0,0-.23-.73v.07h-.23l-.08-.07c-.88,1.73-1.76,3.44-2.56,5.14-.09-.25-.17-.47-.26-.68v-.19a1.8,1.8,0,0,0,0-1.21v-.63l-.06.09v-.15c0,.12-.1.23-.15.35-1,1.41-1.56,3-2.47,4.5-.14-.54.1-1.16-.2-1.8l-.07.08h0l-.24-.08-3.78,4.76-.14-.47h0a.77.77,0,0,0-.21-.65c-.15-.12-.08-.28-.12-.42Zm17.39-1.8a1,1,0,0,1-.47-.29l.24-.27v-.06c1.2,0,2.26.65,3.41.9h.06a.67.67,0,0,0,.56.23h.27a.14.14,0,0,0-.13-.09h0a.14.14,0,0,1,.13.09,1.27,1.27,0,0,1,.36.12.67.67,0,0,1,.11.94.68.68,0,0,1-1,.11A17.41,17.41,0,0,0,238.6,214Zm13.27-14.78h0a.59.59,0,0,1,.34.08.82.82,0,0,1-.19,1.15.83.83,0,0,1-.7.13l-.1-.1-.27-.24a19.73,19.73,0,0,0-2.24-1.84l-.95-.95v-.06l-.1-.14h0a.38.38,0,0,1,.33-.43,4.59,4.59,0,0,1,1,.73c.52.32,1,.71,1.46,1a1.43,1.43,0,0,0,.69.38h0a1.22,1.22,0,0,0,.79.25ZM240,184.5l.08.08v.1l-.08-.08Zm8.31-77.36h0a1.29,1.29,0,0,0,.14.46h0a1.56,1.56,0,0,1-.14-.48h0ZM46.9,172.51a5.44,5.44,0,0,1-.73-.44,2.55,2.55,0,0,0,.79.31h0a.22.22,0,0,1-.09.1l.14.1h0l-.12-.07Zm69.74,111.3a8.2,8.2,0,0,0,.7-2.42V281h0v.33h.17a4.31,4.31,0,0,1,.28,2.87c-.08.54-.35,1-1,.76l-.17-.07A1.07,1.07,0,0,1,116.64,283.81Zm4.73.22a1,1,0,0,1-.4,1,.62.62,0,0,1-.78-.08.79.79,0,0,1-.17-.14,1.84,1.84,0,0,1,.17-1.24,2.52,2.52,0,0,0,.07-1.56h0c.11-.25-.09-.66.21-.77a4.79,4.79,0,0,1,.9,2.8Zm23-65.52a5,5,0,0,1,1.54-2.45,1.1,1.1,0,0,1-.08.4c-.12.36-.35.69-.12,1.14l.08-.16a.47.47,0,0,0,.11.31c.48-.27.35-.7.35-1.08a.3.3,0,0,0,.27-.3h0a.45.45,0,0,1,.4-.19,1.17,1.17,0,0,1,.06.45,7.93,7.93,0,0,0,.13,1.68.24.24,0,0,1,.08-.21,2.76,2.76,0,0,0,.1.62c.7-1,.24-2,.47-2.88l.17.17c.12.69.25,1.42.41,2.32a1.45,1.45,0,0,0,.09-.22,1.25,1.25,0,0,0,.15.28,1.23,1.23,0,0,0,.19-1.39c-.11-.28-.25-.57,0-.82C150,217,150.84,219,150,220a9.4,9.4,0,0,1-2.3,2,.48.48,0,0,1-.29,0,7.68,7.68,0,0,1-.79-.32,3.16,3.16,0,0,0-1.18-.73,6.13,6.13,0,0,1-.88-.81,2.51,2.51,0,0,1-.18-1.62Zm38.88,72.39c.27-.39.58-.74.88-1.11h0a.34.34,0,0,0,.23-.25h0l.27-.31.47-.48a3.84,3.84,0,0,1-.82,2.88,1.56,1.56,0,0,1-.16.2.78.78,0,0,1-1,0,.7.7,0,0,1,.07-.95Zm11,1.82a1,1,0,0,1-.6-.42,1,1,0,0,0,0-.24l-.08.07h0l.07-.07v-.29h0a4.79,4.79,0,0,0,.26-2.87h0v-.07l0,.06a.55.55,0,0,1,.22-.1,4.43,4.43,0,0,1,1,2.88c-.08.72-.39,1.08-.9,1Zm52-73.73h0a.86.86,0,0,0,.57-.57l-.19-.13h0l.21.15a4.78,4.78,0,0,0,1.45-2h0a1.74,1.74,0,0,0,.54-1.2l-.3.06h0l.3-.06c.14-.41.25-.89.39-1.34h0a.66.66,0,0,0,.19-.64.93.93,0,0,0-.16-.18l0-.19a.69.69,0,0,1,.16.18,2.55,2.55,0,0,0,.33-1,24.52,24.52,0,0,0,1.44-3.48h0a3.28,3.28,0,0,0,.54-.64,15.17,15.17,0,0,1,3.18-4l-.13-.08h0a.82.82,0,0,0,.2.12l1.11-.63h0a8.23,8.23,0,0,1,2.88-.3l.37.08a4.67,4.67,0,0,1,1.48.82,2.19,2.19,0,0,1,.68,2.94,10.34,10.34,0,0,1-1.92,2.4,1,1,0,0,1,0-.35h0a3.47,3.47,0,0,0,1-2.55,2.16,2.16,0,0,0-.44-1.66c-.46-1-1.43-1.28-2.76-.76a5.79,5.79,0,0,0-3,2.4,29.46,29.46,0,0,0-1.86,3.73c-.81,1.85-1.62,3.78-2.43,5.69a15.14,15.14,0,0,1-1,1.77c-1,1.69-1.17,1.8-3,1.75a.79.79,0,0,1,0-.4Zm-4.93,29.7a1.13,1.13,0,0,0,0-.26h0a1.5,1.5,0,0,1,0,.3,1.68,1.68,0,0,0,.88-1.1v-.15h0v.21l.65-.51a4.39,4.39,0,0,1-.86,2.84.8.8,0,0,1-1,.41h0l-.17-.1,0-.06a1.67,1.67,0,0,1,.58-1.57Zm7.81-22.8h.11c.29,1.34-.11,2.62-.07,3.84a.2.2,0,0,1,0,.11.48.48,0,0,1-.58.36h0a.65.65,0,0,1-.39-.21.44.44,0,0,1,.06-.62h0l0,0c.39-.32.28-.76.34-1.18h0c.41-.71.22-1.56.51-2.3h0Zm2.33,2.93c.28-1,.54-2,.84-3,.06,1.26-.31,2.45-.23,3.66v.08a.49.49,0,0,1-.52.46h0a.54.54,0,0,1-.33-.1v-.54a.36.36,0,0,0,.19-.32v-.27Zm3.94,1.68a3.06,3.06,0,0,0,.07-.54,1,1,0,0,1-.21.11h0l.18-.09a8,8,0,0,0,.1-.84h0a.69.69,0,0,0,.17-.6h0v-.28h0l.37-1.08h0c.15-.06.3-.27.47-.18a.9.9,0,0,1-.05.36c-.17,1.17-.68,2.29-.25,3.53.14.41-.28.68-.69.67a.89.89,0,0,1-.28-.07c-.1-.19,0-.41.11-1Zm-4.15,19.64h0a2.73,2.73,0,0,0,.49-2.26h0c0-.21.06-.34.15-.39a4,4,0,0,1,1,2.63,1,1,0,0,1-.42,1,.66.66,0,0,1-.64,0c-.3-.34-.59-.54-.54-1Zm-5,.81a3.62,3.62,0,0,1,.2-1.08l-.16-.08h0l.15.08a1.34,1.34,0,0,0,.35-1.11h0a.61.61,0,0,0,.24-.57h0a3.41,3.41,0,0,0,.1-.54v-.07h.2a4,4,0,0,1,.32,3.06c-.15.5-.44.88-1,.73a3.73,3.73,0,0,0-.44-.45Zm-5.58-82.14v-.06h0Zm41.52-24.05a.57.57,0,0,1-.23.63l-1.57,1a6.8,6.8,0,0,0-3,2.77.51.51,0,0,1-.09.18.62.62,0,0,1-.4.27,3.18,3.18,0,0,1-.51-.13c-1.62-1.08-3.47-.86-5.26-.79h-.16c-.26-.16-.24-.5-.17-1.27a.41.41,0,0,0-.19.05.33.33,0,0,1,.22-.06,27,27,0,0,0,3.73-1.2h-.05a7.48,7.48,0,0,0,2.09-.54l-.08-.05h0a4.73,4.73,0,0,0,1.34-.35l-.07-.07h0a.34.34,0,0,1,.09.08.61.61,0,0,0,.59-.25h0a.42.42,0,0,0,.27,0V145h0V145a3.9,3.9,0,0,0,1.83-.54l.48-.09-.06-.12h0l.06.11a1.21,1.21,0,0,1,.84,0,.63.63,0,0,1,.3.38Zm-20-21.83v-.05l.13-.1h0Zm-7-10.26v0l-.09-.1Zm-195,13.9a.88.88,0,0,1,0,.23v1.14h0v-.54H60v-.05h.08v-.23a.76.76,0,0,1-.08-.21h0a1.17,1.17,0,0,0,.09.24v-.34l-.09.1h0l.08-.09a.81.81,0,0,0,0-.22h0a1.06,1.06,0,0,0-.08-.8v-.07a1.09,1.09,0,0,1,.1.81Zm0-1.78h0a.27.27,0,0,0,0-.3v-.07a.3.3,0,0,1,0,.41Zm-17.5,5.73h0l-.09-.05h0a.39.39,0,0,0,.14.08ZM90.28,290.67l-.18-.05a.9.9,0,0,1-.42-.32.41.41,0,0,1,0-.22c.35-1.08.08-2.23.44-3.28a4.82,4.82,0,0,1,1,2.79c0,.82-.27,1.12-.8,1.12Zm-3.69-.87a16,16,0,0,0,.74-2.6h0a.7.7,0,0,1,.09-.4.93.93,0,0,0-.09.4l.27-.14a3.62,3.62,0,0,1,.25,2.7c-.2.71-.54,1.08-1.08.83l-.08-.06a.75.75,0,0,1-.1-.71Zm-1-11.05a.6.6,0,0,1-.07.27.56.56,0,0,0,0-.25h0Zm-1.78-5.51V273A1.22,1.22,0,0,0,83.85,273.24Zm-4.39-19.58h0a4.86,4.86,0,0,1,0,.54h0A4.86,4.86,0,0,0,79.46,253.66Zm46.25-35.5a.68.68,0,0,1-.34-.11h0a.68.68,0,0,0,.34.06Zm10.68-16.59v-.34a.44.44,0,0,1,0,.34ZM112.22,254a.69.69,0,0,0-.13.11H112V254Zm67.92-49.55h0l.07.07Zm16,86.53a1.34,1.34,0,0,1,.14.81v.28h0v-.3h-.07a1.18,1.18,0,0,0-.14-.8l-.08-.09h0l.12.1Zm3.32-33.29h0a.76.76,0,0,1,.23.3h0a.63.63,0,0,0-.26-.3Zm8.05-17.59h0l.11.12Zm3.58-6.37v-.06h.11v0h-.11Zm5.46-9.24h0a1.27,1.27,0,0,1,.18.27l-.21-.27Zm38,24h0a.27.27,0,0,1,.08.07Zm2.29-9.24v0a.71.71,0,0,1,.29,0,1.12,1.12,0,0,0-.32,0Zm1.56-6.71h0a.8.8,0,0,1,.13.13.33.33,0,0,0-.16-.13Zm2.42-6v-.08a1.47,1.47,0,0,1,0,.51,2,2,0,0,0-.07-.44Zm4.68-9.95-.08-.09h0l.06.05a.27.27,0,0,0,.12.06c.06,0-.13,0-.13,0ZM242,165.32v-.15h0a.68.68,0,0,0,0,.14Zm10.19-8.18h.07v.05Zm2.06,3.36h.07v.05Z"/>
              <path class="cls-7" d="M288.86,131.76c.42-.33,1-.54,1.22-1a1.53,1.53,0,0,0-1.22.7,1,1,0,0,0-.86.59,2,2,0,0,0,.86-.29Z"/>
              <path class="cls-8" d="M135,206.88a1.78,1.78,0,0,0,.54-1.2A1,1,0,0,0,135,206.88Z"/>
              <path class="cls-9" d="M195.54,288.6a1.65,1.65,0,0,0,.3.86l.11-.08a1.16,1.16,0,0,0-.32-.85Z"/>
              <path class="cls-10" d="M196.48,292.06a.61.61,0,0,1,0,.27v.27a.37.37,0,0,0,.1-.62h0Z"/>
              <path class="cls-11" d="M268.13,156.9h-.37C267.89,157,268,157.05,268.13,156.9Z"/>
              <path class="cls-12" d="M133.21,192.39a.3.3,0,0,0-.28-.28A.33.33,0,0,0,133.21,192.39Z"/>
              <path class="cls-13" d="M244.43,158l-.24-.37A.37.37,0,0,0,244.43,158Z"/>
              <path class="cls-14" d="M195.35,272.7a.25.25,0,0,0,.21-.28h0l-.24.3Z"/>
              <path class="cls-15" d="M196.46,292.6l-.27.3A.31.31,0,0,0,196.46,292.6Z"/>
              <path class="cls-16" d="M196.19,292.91l-.29.23A.32.32,0,0,0,196.19,292.91Z"/>
              <path class="cls-17" d="M253,167.82h-.18C252.91,168,253,168,253,167.82Z"/>
              <path class="cls-18" d="M281.69,136.37l-.31.26A.37.37,0,0,0,281.69,136.37Z"/>
              <path class="cls-19" d="M68.85,164.16c.3-.26.6-.5.54-1A.81.81,0,0,0,68.85,164.16Z"/>
              <path class="cls-20" d="M95.47,186.72a.34.34,0,0,0-.39-.26h0a.34.34,0,0,0-.3.37h0a.42.42,0,0,0,.34.39.25.25,0,0,0,.23.15c.25,0,.3-.16.36-.35S95.58,186.75,95.47,186.72Z"/>
              <path class="cls-21" d="M102,184.38h0v-.08a.14.14,0,0,0,0-.09.12.12,0,0,0-.17,0h0c-.08,0-.08.16-.08.26a.11.11,0,0,0,.09.13.08.08,0,0,0,.07,0h0v.09a.2.2,0,0,0,.26.1.3.3,0,0,0,.12-.21C102.22,184.45,102.11,184.33,102,184.38Z"/>
              <path class="cls-22" d="M104.16,186.16a1.17,1.17,0,0,1-.09.24s0,.14.1.08.13-.12.13-.17S104.22,186.21,104.16,186.16Z"/>
              <path class="cls-23" d="M103.39,216.08a.32.32,0,0,0-.36-.24.35.35,0,0,0-.4.32.24.24,0,0,0,0,.12.53.53,0,0,0,.26.27.37.37,0,0,0,.29.27h0a.4.4,0,0,0,.44-.37h0A.31.31,0,0,0,103.39,216.08Z"/>
              <path class="cls-24" d="M100.68,216.84a.21.21,0,0,0-.1-.16.27.27,0,0,0-.25.08.1.1,0,0,0,0,.16.1.1,0,0,0,.09,0h.2a1.72,1.72,0,0,0,.07.21l.16-.13-.15-.19Z"/>
              <path class="cls-25" d="M98.42,216.28a.19.19,0,0,0,0-.18h0a.2.2,0,0,0-.27-.06h0a.25.25,0,0,0-.11.24.27.27,0,0,0,.33.13h0v.07a.23.23,0,0,0,.17.1.12.12,0,0,0,.1-.14v0Z"/>
              <path class="cls-26" d="M96.69,215a.61.61,0,0,0,.22.13s.11-.11.11-.17l-.24-.05Z"/>
              <path class="cls-27" d="M87.64,201.42a.71.71,0,0,0-.49-.28c-.19.1-.45.2-.46.54a.55.55,0,0,0,.39.51.59.59,0,0,0,.35.18c.24,0,.46-.2.46-.58A.43.43,0,0,0,87.64,201.42Z"/>
              <path class="cls-28" d="M65,167.29c-.12.06,0,.15,0,.15h.11a.38.38,0,0,1,0-.15Z"/>
              <polygon class="cls-29" points="65.76 166.29 65.85 166.26 65.77 166.21 65.76 166.29"/>
              <path class="cls-30" d="M258,122.7v.37C258.18,123,258.18,122.86,258,122.7Z"/>
              <path class="cls-31" d="M113.47,200a.57.57,0,0,0-.42-.22h0a.46.46,0,0,0-.47.44h0a.87.87,0,0,0,.66.79.55.55,0,0,0,.58-.5h0A.55.55,0,0,0,113.47,200Z"/>
              <path class="cls-32" d="M151.54,215.13a.29.29,0,0,0,.1-.23c-.1-.25-.38-.25-.6-.25h-.14V215a.46.46,0,0,0,.63.16Z"/>
              <path class="cls-33" d="M103,198.18l-.31.27A.34.34,0,0,0,103,198.18Z"/>
              <path class="cls-34" d="M222.7,182.07a.32.32,0,0,0,.35.15A.3.3,0,0,0,222.7,182.07Z"/>
              <path class="cls-35" d="M171.87,169.87l-.21.25A.27.27,0,0,0,171.87,169.87Z"/>
              <path class="cls-36" d="M65.27,173.2a.15.15,0,0,0-.14.12.26.26,0,0,0,.11.21c.06,0,.16-.07.24-.07a.61.61,0,0,0-.13-.22Z"/>
            </g>
          </g>
        </g>
      </g>
    </g>
  </g>
</svg>
