<svg xmlns="http://www.w3.org/2000/svg" xmlns:xlink="http://www.w3.org/1999/xlink" width="324" height="324" viewBox="0 0 324 324">
  <defs>
    <style>
      .cls-1 {
        opacity: 0;
      }

      .cls-2 {
        fill: none;
      }

      .cls-3 {
        fill: url(#Degradado_sin_nombre_34);
      }

      .cls-4 {
        fill: url(#Degradado_sin_nombre_34-2);
      }

      .cls-5 {
        fill: url(#Degradado_sin_nombre_34-3);
      }

      .cls-6 {
        fill: url(#Degradado_sin_nombre_34-4);
      }

      .cls-7 {
        fill: url(#Degradado_sin_nombre_34-5);
      }

      .cls-8 {
        fill: url(#Degradado_sin_nombre_34-6);
      }

      .cls-9 {
        fill: url(#Degradado_sin_nombre_34-7);
      }

      .cls-10 {
        fill: url(#Degradado_sin_nombre_34-8);
      }

      .cls-11 {
        fill: url(#Degradado_sin_nombre_34-9);
      }

      .cls-12 {
        fill: url(#Degradado_sin_nombre_34-10);
      }

      .cls-13 {
        fill: url(#Degradado_sin_nombre_34-11);
      }

      .cls-14 {
        fill: url(#Degradado_sin_nombre_34-12);
      }

      .cls-15 {
        fill: url(#Degradado_sin_nombre_34-13);
      }

      .cls-16 {
        fill: url(#Degradado_sin_nombre_34-14);
      }

      .cls-17 {
        fill: url(#Degradado_sin_nombre_34-15);
      }

      .cls-18 {
        fill: url(#Degradado_sin_nombre_34-16);
      }

      .cls-19 {
        fill: url(#Degradado_sin_nombre_34-17);
      }

      .cls-20 {
        fill: url(#Degradado_sin_nombre_34-18);
      }

      .cls-21 {
        fill: url(#Degradado_sin_nombre_34-19);
      }

      .cls-22 {
        fill: url(#Degradado_sin_nombre_34-20);
      }

      .cls-23 {
        fill: url(#Degradado_sin_nombre_34-21);
      }

      .cls-24 {
        fill: url(#Degradado_sin_nombre_34-22);
      }

      .cls-25 {
        fill: url(#Degradado_sin_nombre_34-23);
      }

      .cls-26 {
        fill: url(#Degradado_sin_nombre_34-24);
      }

      .cls-27 {
        fill: url(#Degradado_sin_nombre_34-25);
      }

      .cls-28 {
        fill: url(#Degradado_sin_nombre_34-26);
      }

      .cls-29 {
        fill: url(#Degradado_sin_nombre_34-27);
      }

      .cls-30 {
        fill: url(#Degradado_sin_nombre_34-28);
      }

      .cls-31 {
        fill: url(#Degradado_sin_nombre_34-29);
      }

      .cls-32 {
        fill: url(#Degradado_sin_nombre_34-30);
      }

      .cls-33 {
        fill: url(#Degradado_sin_nombre_34-31);
      }
    </style>
    <linearGradient id="Degradado_sin_nombre_34" data-name="Degradado sin nombre 34" x1="247.47" y1="258.98" x2="248.25" y2="258.98" gradientTransform="translate(-6 -93.99)" gradientUnits="userSpaceOnUse">
      <stop offset="0.05" stop-color="#957e41"/>
      <stop offset="0.21" stop-color="#d8bc63"/>
      <stop offset="0.49" stop-color="#dfc46b"/>
      <stop offset="0.74" stop-color="#c6a95a"/>
      <stop offset="0.98" stop-color="#7a6834"/>
    </linearGradient>
    <linearGradient id="Degradado_sin_nombre_34-2" x1="250.12" y1="257.52" x2="250.84" y2="257.52" xlink:href="#Degradado_sin_nombre_34"/>
    <linearGradient id="Degradado_sin_nombre_34-3" x1="265.38" y1="272.63" x2="266.48" y2="272.63" xlink:href="#Degradado_sin_nombre_34"/>
    <linearGradient id="Degradado_sin_nombre_34-4" x1="178.63" y1="289.52" x2="180.21" y2="289.52" xlink:href="#Degradado_sin_nombre_34"/>
    <linearGradient id="Degradado_sin_nombre_34-5" x1="175.23" y1="293.41" x2="179.01" y2="293.41" xlink:href="#Degradado_sin_nombre_34"/>
    <linearGradient id="Degradado_sin_nombre_34-6" x1="182.5" y1="293.22" x2="186.2" y2="293.22" xlink:href="#Degradado_sin_nombre_34"/>
    <linearGradient id="Degradado_sin_nombre_34-7" x1="36.84" y1="314.62" x2="298.29" y2="314.62" xlink:href="#Degradado_sin_nombre_34"/>
    <linearGradient id="Degradado_sin_nombre_34-8" x1="243.41" y1="367.62" x2="243.83" y2="367.62" xlink:href="#Degradado_sin_nombre_34"/>
    <linearGradient id="Degradado_sin_nombre_34-9" x1="107.71" y1="376.42" x2="107.95" y2="376.42" xlink:href="#Degradado_sin_nombre_34"/>
    <linearGradient id="Degradado_sin_nombre_34-10" x1="118.24" y1="321.44" x2="118.5" y2="321.44" xlink:href="#Degradado_sin_nombre_34"/>
    <linearGradient id="Degradado_sin_nombre_34-11" x1="254.51" y1="256.58" x2="254.86" y2="256.58" xlink:href="#Degradado_sin_nombre_34"/>
    <linearGradient id="Degradado_sin_nombre_34-12" x1="256.55" y1="258.37" x2="256.95" y2="258.37" xlink:href="#Degradado_sin_nombre_34"/>
    <linearGradient id="Degradado_sin_nombre_34-13" x1="252.94" y1="262.36" x2="253.03" y2="262.36" xlink:href="#Degradado_sin_nombre_34"/>
    <linearGradient id="Degradado_sin_nombre_34-14" x1="210.52" y1="306.93" x2="210.7" y2="306.93" xlink:href="#Degradado_sin_nombre_34"/>
    <linearGradient id="Degradado_sin_nombre_34-15" x1="179.39" y1="296.25" x2="182.37" y2="296.25" xlink:href="#Degradado_sin_nombre_34"/>
    <linearGradient id="Degradado_sin_nombre_34-16" x1="180.16" y1="294.51" x2="180.39" y2="294.51" xlink:href="#Degradado_sin_nombre_34"/>
    <linearGradient id="Degradado_sin_nombre_34-17" x1="239.36" y1="273.95" x2="240.46" y2="273.95" xlink:href="#Degradado_sin_nombre_34"/>
    <linearGradient id="Degradado_sin_nombre_34-18" x1="126.85" y1="308.59" x2="127.04" y2="308.59" xlink:href="#Degradado_sin_nombre_34"/>
    <linearGradient id="Degradado_sin_nombre_34-19" x1="128.12" y1="306.16" x2="128.2" y2="306.16" xlink:href="#Degradado_sin_nombre_34"/>
    <linearGradient id="Degradado_sin_nombre_34-20" x1="129.26" y1="309.97" x2="129.54" y2="309.97" xlink:href="#Degradado_sin_nombre_34"/>
    <linearGradient id="Degradado_sin_nombre_34-21" x1="181.16" y1="289.32" x2="182.16" y2="289.32" xlink:href="#Degradado_sin_nombre_34"/>
    <linearGradient id="Degradado_sin_nombre_34-22" x1="180.34" y1="290.12" x2="180.94" y2="290.12" xlink:href="#Degradado_sin_nombre_34"/>
    <linearGradient id="Degradado_sin_nombre_34-23" x1="209.04" y1="282.95" x2="209.22" y2="282.95" xlink:href="#Degradado_sin_nombre_34"/>
    <linearGradient id="Degradado_sin_nombre_34-24" x1="207.17" y1="283.33" x2="207.4" y2="283.33" xlink:href="#Degradado_sin_nombre_34"/>
    <linearGradient id="Degradado_sin_nombre_34-25" x1="97.4" y1="285.63" x2="97.4" y2="285.63" xlink:href="#Degradado_sin_nombre_34"/>
    <linearGradient id="Degradado_sin_nombre_34-26" x1="255.41" y1="288.7" x2="256.24" y2="288.7" xlink:href="#Degradado_sin_nombre_34"/>
    <linearGradient id="Degradado_sin_nombre_34-27" x1="249.35" y1="287.35" x2="249.54" y2="287.35" xlink:href="#Degradado_sin_nombre_34"/>
    <linearGradient id="Degradado_sin_nombre_34-28" x1="250.85" y1="288.71" x2="251.08" y2="288.71" xlink:href="#Degradado_sin_nombre_34"/>
    <linearGradient id="Degradado_sin_nombre_34-29" x1="253.18" y1="289.28" x2="253.4" y2="289.28" xlink:href="#Degradado_sin_nombre_34"/>
    <linearGradient id="Degradado_sin_nombre_34-30" x1="204.83" y1="280.48" x2="205.11" y2="280.48" xlink:href="#Degradado_sin_nombre_34"/>
    <linearGradient id="Degradado_sin_nombre_34-31" x1="206.5" y1="281.83" x2="206.71" y2="281.83" xlink:href="#Degradado_sin_nombre_34"/>
  </defs>
  <title>EL TIGRE</title>
  <g id="Capa_2" data-name="Capa 2">
    <g id="Capa_1-2" data-name="Capa 1">
      <g id="Capa_1-2-2" data-name="Capa 1-2">
        <g>
          <g class="cls-1">
            <rect class="cls-2" width="324" height="324"/>
          </g>
          <g id="Capa_1-2-2-2" data-name="Capa 1-2-2">
            <g>
              <path class="cls-3" d="M241.82,164.6a.34.34,0,0,0-.35.33h0a.33.33,0,0,0,.06.19h0a.34.34,0,0,0,.35.27H242a.36.36,0,0,0,.29-.42.66.66,0,0,0-.09-.19A.3.3,0,0,0,241.82,164.6Z"/>
              <path class="cls-4" d="M244.4,163.13c-.24,0-.32.17-.28.38v.11h0a.29.29,0,0,0,.3.3h.05a.37.37,0,0,0,.37-.37h0a.45.45,0,0,0-.44-.41Z"/>
              <path class="cls-5" d="M259.53,179a.49.49,0,0,0,.93-.26v-.07a.54.54,0,0,0-.15-.29.42.42,0,0,0-.44-.3.48.48,0,0,0-.51.45h0v.12A.53.53,0,0,0,259.53,179Z"/>
              <path class="cls-6" d="M173.38,195.29a4.81,4.81,0,0,0-.44-.57h0l-.11-.14v.06c-.19-.06-.19.2-.19.34l.18.27a.5.5,0,0,1,.09.23c.18.17.36.33.54.51l.08-.09h0l-.08.09c.2.27.32.78.79.26l-.33-.31Z"/>
              <path class="cls-7" d="M169.52,199.47a0,0,0,0,0,0,0c0,.17.33.08.54.08h1.75a.66.66,0,0,1,.28,0,15.62,15.62,0,0,1-2,1.24h0l-.15.07a2.76,2.76,0,0,0,2.47-.79h0a.92.92,0,0,0,.57-1,1.59,1.59,0,0,0,.12-.27c-.45,0-.65-.36-1.08-.54s-.84-.54-1.45-.37a1,1,0,0,0,.15.14.66.66,0,0,0-.21.08c.46.34,1,.33,1.42.79-.75.25-1.62-.06-2.61.48Z"/>
              <path class="cls-8" d="M176.75,199.64c.15.35.59.39.84.72.59.21,1.08.73,2,.41l-.84-.38a6.58,6.58,0,0,1-1.15-.66c.32-.36.66-.14,1.11-.19s1,.07,1.49-.4h-.1c-.85-.35-1.47,0-2.21-.19.44-.73,1.31-.67,1.84-1.35a3,3,0,0,0-.84.12,3.43,3.43,0,0,0-1.75,1.11c-.2.19-.41.37-.62.54l.07.07v.05Z"/>
              <path class="cls-9" d="M291.9,281a2.63,2.63,0,0,0,.21-2.33h0a2.64,2.64,0,0,0-.83-1,11.17,11.17,0,0,0-2.74-1.08,61,61,0,0,0-7.92-1.57c-.84-.11-1.15-.24-1.23-.65l.2-1.62h0a1.51,1.51,0,0,0,.22-1h0v-.54A1.7,1.7,0,0,0,280,270h0l.06-.24h0c.22-.23.14-.54.14-.79a1.8,1.8,0,0,0,.09-.45v-.07h0v.07a.73.73,0,0,0,.11-.83,1.59,1.59,0,0,1,.07-.38.45.45,0,0,1,0-.25,4,4,0,0,0,.28-1.68h0a12.53,12.53,0,0,0,.43-2.58h0a.36.36,0,0,0,0-.25h0a4.59,4.59,0,0,0,.31-1.75h0a10.46,10.46,0,0,0,.43-2.35h0c0-.21.07-.42.08-.63v-.12a19.08,19.08,0,0,0,.6-3.36c.16-.64.16-.9-.19-1.17a1.6,1.6,0,0,0-.84-.74,14.71,14.71,0,0,1-3.54-2.94,27.31,27.31,0,0,1-5.12-8.64,7,7,0,0,1-.39-1.25,1.39,1.39,0,0,1,.09-.57,1.87,1.87,0,0,0,.66-1c.12-.15.24-.3.35-.46a15.1,15.1,0,0,0,2.52-3.71h0c.16-.3.33-.57.5-.84l-.08-.09h0l.08.09.51-.79a.42.42,0,0,0-.31-.06.29.29,0,0,0-.05-.13,16.89,16.89,0,0,1-2.76,2.7.33.33,0,0,1,0-.14,6.28,6.28,0,0,1,.36-.54l.09-.1c.5-.49.89-1,1.34-1.48h0c.57-.24.7-1.12,1.54-1l.84-1.79h0a7.32,7.32,0,0,0,1-2.33h0c.1-.25.33-.54.29-.74h0a20.76,20.76,0,0,0,1.25-3.84h0a.46.46,0,0,0,.06-.23h0a17.71,17.71,0,0,0,.91-3.12.26.26,0,0,0,0-.21v-.07a1.38,1.38,0,0,0,.24-.73h0v-.13a1.16,1.16,0,0,1,.08-.32,6.16,6.16,0,0,0,.4-1.53c.08-.34.17-.69.26-1a43.46,43.46,0,0,0,1.19-4.48h0l.27-1.25h0a.84.84,0,0,0,.2-.85h0a.25.25,0,0,0,0-.24h0a1.91,1.91,0,0,0,.26-1.17,1.63,1.63,0,0,1,.07-.3,13.39,13.39,0,0,0,.75-3.54,2.77,2.77,0,0,1,.1-.5,1.44,1.44,0,0,0,.15-.84h0a2,2,0,0,0,.2-1.3h0v-.26h0a.46.46,0,0,0,.05-.23h0a3.73,3.73,0,0,0,.21-1.81h0a40.56,40.56,0,0,0,.28-6.52c0-.61,0-1.21-.05-1.81a9.87,9.87,0,0,0-.17-2.92V187c0-.57-.06-1.13-.13-1.68s-.08-1.24-.13-1.86a13.13,13.13,0,0,0-.13-2.26v-.92c.13-.19,0-.37,0-.54a1.28,1.28,0,0,1,0-.39,3,3,0,0,0-.19-1.38c0-.24-.09-.48-.14-.73s-.12-.64-.2-1h0a.61.61,0,0,0-.13-.45.25.25,0,0,0,0-.17,3.4,3.4,0,0,0-.32-1.14h0a30.23,30.23,0,0,0-1.62-3.9h0a65.77,65.77,0,0,0-3.36-5.89,2.19,2.19,0,0,0-.34-.46,2.15,2.15,0,0,0-1.33-.76l-11.55-2.95A10.07,10.07,0,0,1,263,159a16.13,16.13,0,0,0-3.53-1.81c-2-.85-4.2-1.54-6.3-2.2a52.83,52.83,0,0,0-17.28-2.7c-3.84.1-7.71-.08-11.55-.27a84.89,84.89,0,0,1-11.88-1.35,25.68,25.68,0,0,0-6.89-.47,109,109,0,0,0-13.23,1.68c-5.37,1-10.71,2.27-16.2,2.61-5.17.36-10.33.72-15.52.84a6,6,0,0,1-1.27-.1A78.66,78.66,0,0,1,141.83,150a24.72,24.72,0,0,0-4.76-1.54,50.68,50.68,0,0,0-27.2,1.92A79.11,79.11,0,0,0,95,157.59c-2.23,1.34-4.44,2.53-7.13,2.53-.68,0-.74.34-.61.91a5.07,5.07,0,0,0,.09.54.74.74,0,0,0,0,.21c.06.43.12.84.15,1.27a1.47,1.47,0,0,1,0,.59v.19a2,2,0,0,1-.25.71.63.63,0,0,1-.27-.37,1.69,1.69,0,0,0-.08-.5v0a3.48,3.48,0,0,0-.14-.64,2.62,2.62,0,0,0-.12-.54c-.07-.29-.15-.59-.24-.88s-.07-.27-.11-.41-.12-.41-.19-.61a1.13,1.13,0,0,0-.13-.27.54.54,0,0,0-.11-.26,2.22,2.22,0,0,0-.43-.54c-.9-.8-1.76-1.62-2.66-2.43a1.7,1.7,0,0,0-2.38,0l-.07.08a1.69,1.69,0,0,0-.2.25c-.62.84-1.26,1.62-1.86,2.45a6,6,0,0,1-4.82,2.53c-3.21.14-6.38.72-9.61.36a1.46,1.46,0,0,0-.51,0,4.42,4.42,0,0,1-3-.36c-.67-.3-1.35-.58-2-.85a98.44,98.44,0,0,0-9.82-3.57,3.6,3.6,0,0,0-.63-.15c-2-.27-3.15.73-3.12,2.7a14.63,14.63,0,0,0,.91,5.56,13.56,13.56,0,0,0,1.68,3.28c.29.43.6.84.94,1.26.1.12.17.27.29.44A10.06,10.06,0,0,0,46,173.34a77.25,77.25,0,0,0-5.94,7.9,4.84,4.84,0,0,0-.8,1.46A7.81,7.81,0,0,1,37,186.07a18.27,18.27,0,0,1-2.7,2.18,13,13,0,0,0-1.89,1.5,2.74,2.74,0,0,0-.84,1.82.88.88,0,0,0,0,.23c0,.58.38.79.92.54a4.31,4.31,0,0,0,1.48-.89h0a.31.31,0,0,0,.11-.09l.13-.15.14-.06-.21.2a.23.23,0,0,0,.22-.2l.37-.17c-.34.84-.64,1.57-.88,2.3a4.29,4.29,0,0,0-.15,2.65,2.2,2.2,0,0,0,1.15,1.52,1.07,1.07,0,0,0,.31.13h0c.54.47,1,.07,1.49-.09l.34-.41a.31.31,0,0,1,.24.08,11.75,11.75,0,0,0-1,4.21.49.49,0,0,0,0,.17v.31c-.25.24-.27.43-.2.59v.06a.16.16,0,0,0,.11.19h0l.17.07a3.51,3.51,0,0,1,.33.34c0,.08.1.13.15.2.19.3.35.6.67.7h0a1.47,1.47,0,0,0,1.78,0h0a2.27,2.27,0,0,0,1-.5c.32-.24.54-.29.71-.06a19.11,19.11,0,0,1,1,3.24c-3.74-.4-7.36-.76-11,.36l.15.08-.1,0,.18.11h0a.42.42,0,0,0,.49.26c1.22.22,2.4-.25,3.6-.25h0a39.63,39.63,0,0,0,4.36,0h.06l1.68.37.23.07a2.14,2.14,0,0,1,.63.71c.11.35.2.72.28,1.08a.48.48,0,0,1-.37.28,3.86,3.86,0,0,0-.9.06,24.29,24.29,0,0,0-3.78.84.83.83,0,0,0,.16.21.32.32,0,0,0,.23.31.08.08,0,0,1,0-.07h0a.08.08,0,0,0,0,.07h0a.46.46,0,0,0,.47.22h0a7.25,7.25,0,0,0,1.73-.33,11.61,11.61,0,0,1,2.87-.39h0l.72.47h0l.11.11c.33.49.26.84-.32,1s-1.35.54-2,.84c-.21.09-.41.21-.31.47a1.09,1.09,0,0,0,.08.15h0c.2.45.6.37,1,.19l1.57-.78h0a3,3,0,0,1,1.08-.08,1,1,0,0,1,.23.12.91.91,0,0,1,.16.11,2.19,2.19,0,0,1,.29.39.88.88,0,0,1-.34.59c-.48.44-.84.71-1.27,1.08-.18.15-.42.34-.18.62h0a.56.56,0,0,0,0,.12c.2.27.54.17.78,0a4.33,4.33,0,0,0,1.54-1.31v0h0a.84.84,0,0,0,.5-.3,4.76,4.76,0,0,1,1.25.23h.11l.32.12a5.78,5.78,0,0,0,4.21.19h0a1.74,1.74,0,0,0,1-.27v-.08h0v.06a3.12,3.12,0,0,1,2.25,0l.27.14V215a23.62,23.62,0,0,1-2,2.47c-.57.7-.59.74,0,1.38,1.32,1.33,2.7,2.65,4,4a1.12,1.12,0,0,0,.24.19,1.59,1.59,0,0,0,1.19.51H60.8a1.4,1.4,0,0,0,.5,0h0a7.66,7.66,0,0,0,5.89-3.36,2.3,2.3,0,0,0,.57-.74v-.13h0a.42.42,0,0,1,0,.16,3.35,3.35,0,0,0,.7-1.08l-.08-.09h0l.1.1a7.31,7.31,0,0,0,1.11-2h0a8.18,8.18,0,0,0,1.26-2.23h0l.42-.31a.59.59,0,0,1,.26.07l.1.07c.18.14.35.29.51.44a14.37,14.37,0,0,1,1.68,1.89h0a15.55,15.55,0,0,1,1.26,2c.64,1.16,1.21,2.36,1.85,3.53a2.89,2.89,0,0,0,1.27,1.56v-.1s.21.14.31.2a23,23,0,0,0-1.73-3.78,12.94,12.94,0,0,0-1.9-3.28h0a1.84,1.84,0,0,0-.64-.84h0a.88.88,0,0,0-.12-.15,6.6,6.6,0,0,0-1.57-1.68l-.22-.22-.1-.08a2.07,2.07,0,0,1-.34-.44h0l.26-.46h.49a2.86,2.86,0,0,1,.5.42,18.4,18.4,0,0,1,3.2,4,3,3,0,0,0,.45.66.56.56,0,0,0,.38.24,1.43,1.43,0,0,0,.27.09v-.12h.07a3.45,3.45,0,0,0-.68-1.68A22.78,22.78,0,0,0,73.51,212h0a1.1,1.1,0,0,1,1.23-.19c.18.09.36.2.54.31s.5.35.76.54l2.52,2c.44.39.85.77,1.25,1.18l.54.64c.27.3.54.59.84.9s.35.58.7.74l.24.28.24-.18a6.12,6.12,0,0,0-2.21-3.14h0V215c-.19-.18-.36-.41-.54-.59a23,23,0,0,0-1.93-1.62c-.25-.19-.51-.38-.77-.54l-.25-.16s-.08-.07-.14-.09c-.32-.2-.54-.41-.15-.73h.12a3.69,3.69,0,0,0,1.39-.3h0a5.54,5.54,0,0,0,1.55-.46h0a4.26,4.26,0,0,0,1.62-.41,2.7,2.7,0,0,1,1.87-.22.54.54,0,0,0,.18,0l.17.05.1.07c-.09.15.09.09.09-.07,0-.59.54-.7.85-1h0a4.86,4.86,0,0,1,2.45.21,4.05,4.05,0,0,1,.35.21L90,211.16a.12.12,0,0,0,.08,0l1.4.85h0a2,2,0,0,0,.84.5l.2.12a.27.27,0,0,0,.18.11l.35.21a1.65,1.65,0,0,0,.36.22l1.36.84.16.11a2.76,2.76,0,0,1,1.34,2c.76,3.85,1.56,7.71,2.34,11.57a8.54,8.54,0,0,1,.16,2.52c-.65,6.52-1.26,13.05-1.89,19.56-.66,7-1.34,14-1.93,21a2.58,2.58,0,0,1-1.57,2.36,23.82,23.82,0,0,1-10.45,2.67,8.53,8.53,0,0,0-7.39,4.47,1.53,1.53,0,0,0-.32,1,1.66,1.66,0,0,0,.54,1.29l.39.71a2.82,2.82,0,0,0,.21.38l.18.32a1.49,1.49,0,0,0,.51.93l.07.16a.69.69,0,0,0,.94.26h0c.45-.2.9-.43,1.34-.65h0a.19.19,0,0,0,.2-.07l1-.51h.54l.25.34.25.54a.52.52,0,0,0,.16.37v.05a.11.11,0,0,1,0,.08,5.8,5.8,0,0,0,.19.59c.47,1.15.39,1.19,1.68.74s2.52-.92,3.81-1.38l-.06-.1h.06a3.09,3.09,0,0,1,2.52.62,3.78,3.78,0,0,0,3.43.3l.29-.09h0a4.39,4.39,0,0,0,1.85-.7h0a4.79,4.79,0,0,0,1.5-.61h0v.07c.36-.14.78-.17,1-.48H98l.11-.06h0a.62.62,0,0,0,.54-.21h.07a.25.25,0,0,0,.18-.1l-.11,0h0a7.63,7.63,0,0,0,1.82-.93h0a.61.61,0,0,0,.48-.31h0a.27.27,0,0,1,.07-.08h0a.36.36,0,0,0-.1.11.45.45,0,0,0,.33-.22h0a.22.22,0,0,0,.19-.09l.24-.2h0a3,3,0,0,0,1-.75h0l.26-.26v-.05a3.64,3.64,0,0,0,1.13-1.08l.16-.15h0a.41.41,0,0,0,.27-.27h0a1.91,1.91,0,0,0,.71-.83,2.67,2.67,0,0,0,.76-1h0a.52.52,0,0,0,.26-.38l.13-.17a.93.93,0,0,0,.33-.45.27.27,0,0,0,.07-.13c0-.06.08-.11.12-.17a1,1,0,0,0,.32-.49h0a.21.21,0,0,0,.08-.11l.19-.32a2.78,2.78,0,0,0,.51-.84h0a11.14,11.14,0,0,0,1.17-2.31c.1-.19.18-.39.27-.59a.59.59,0,0,0,.12-.31c.15-.36.29-.72.43-1.08a3.64,3.64,0,0,0,.36-1l.16-.51a3.18,3.18,0,0,0,.35-1.08c.06-.15.11-.31.16-.47a1.17,1.17,0,0,0,.11-.33c.11-.34.23-.7.34-1.05.07-.19.13-.39.19-.59.19-.58.38-1.17.58-1.76l.12-.38c.25-.63.47-1.28.66-1.93.09-.3.19-.59.29-.89a.52.52,0,0,0,.18-.51h0l.36-1.08.29-.84.43-1.29a1,1,0,0,0,.19-.54c.06-.16.11-.32.16-.48a5,5,0,0,0,.22-.65l.29-.85a3.61,3.61,0,0,0,.25-.72l.42-1.24a23.22,23.22,0,0,0,.78-2.31c.16-.5.32-1,.49-1.48s.34-1,.48-1.44c.41-1.19.84-2.37,1.21-3.57a3.49,3.49,0,0,0,.26-.79l.25-.75a2.06,2.06,0,0,0,.26-.73h0v-.11l.14-.43a.93.93,0,0,0,.19-.54,1.12,1.12,0,0,1,.13-.39,2.89,2.89,0,0,0,.34-1l.13-.36v-.13a2.61,2.61,0,0,0,.33-1.08l-.13-.11a5.31,5.31,0,0,0-.85-.72q-7.26-6.54-14.78-13a3,3,0,0,1-.75-.84l.24.18.22,0h0l.84.78a.39.39,0,0,1,.22.11.23.23,0,0,1,.25.17.38.38,0,0,1,.32.24.27.27,0,0,1,.19.08.24.24,0,0,1,.26.2l1.52.75h0a5.08,5.08,0,0,0,1.47.95l.08.06v.06a.28.28,0,0,0,.28.18h0a3.52,3.52,0,0,0,1.15.84h0a.39.39,0,0,0,.32.23v-.13h0v.09l.26.2,4.15,2.64h0a1.35,1.35,0,0,0,.76.49v0c.83.58,1.73,1.17,2.61,1.73a10.44,10.44,0,0,0,2.31,1.45.6.6,0,0,1,.09.65h0v.08c-.17.34-.23.74-.38,1.08h0l-.12.36a1.39,1.39,0,0,0,.27-.21l.1.08c.32-.37.35-1.05,1-1.21a1.71,1.71,0,0,1,.11.14,12.58,12.58,0,0,0,1,2.42h0a6.71,6.71,0,0,0,.93,2.1h0c1,2.7,2.2,5.31,3.42,7.93h0a34.17,34.17,0,0,0,1.81,4.11h0a4.82,4.82,0,0,0,.78,1.78v-.07h0a16.21,16.21,0,0,0,1.23,2.87h0a55.79,55.79,0,0,0,2.58,5.94h0v.1h-.06a1.72,1.72,0,0,0,.47,1.08l.05-.06h0a.27.27,0,0,0,.07.21h-.11a8.37,8.37,0,0,0,1,2.13v0a.18.18,0,0,0,.05.18h0l.07.16a.35.35,0,0,0-.13-.14.39.39,0,0,0,.19.35.33.33,0,0,0,0-.17l.07.17a.2.2,0,0,0,0,.11h-.05c.84,2.28,1.87,4.47,2.86,6.68h0a2.18,2.18,0,0,0,.36.77h0a2.32,2.32,0,0,0,.57,1.2h0a.47.47,0,0,0,.06.15c.08.31.15.62.23.92s-.33.5-.91.89a11.62,11.62,0,0,1-8.65,1.82c-2.53-.42-4.15.54-5.32,2.82a3.6,3.6,0,0,0-.49,1.62v.11a.73.73,0,0,0,.23.78,2.91,2.91,0,0,0,.59.8,9.11,9.11,0,0,0,1,1.23l.13.13h0a3,3,0,0,0,.38.33l.14.13v.06h0a1.15,1.15,0,0,0,.78.46h0a.26.26,0,0,0,.19.06h0a5.36,5.36,0,0,0,2.62.46v-.05h0v.05l.71,0a5.48,5.48,0,0,0,2.38.19h.54v0h0a.08.08,0,0,0,0,.07h.54c.88.08,1.81.13,2.65.22a4.75,4.75,0,0,0,2.7-.54c2.16-1.08,4.35-2.11,6.53-3.16a3.49,3.49,0,0,0,1.21-.9v-.09h0a.17.17,0,0,1,0,.1,1.07,1.07,0,0,0,.54-.39h.07a23.1,23.1,0,0,0,2.52-2.32.33.33,0,0,1,0-.14h0v.06a2.33,2.33,0,0,0,1.48-2.29,6.14,6.14,0,0,0-.2-1.86h0a18.38,18.38,0,0,0-.25-3.85h0v-.25h0v-.23h0v-.54h0v-.84a.06.06,0,0,0,0,.06,18.08,18.08,0,0,0-.21-3.28v-1.08h0c0-1.46-.15-2.9-.25-4.36h0a12.67,12.67,0,0,0-.18-3.13v-.25h0v-.33l-.05-.85a14.21,14.21,0,0,0-.2-3.68h0v-.47a15.87,15.87,0,0,0-.18-3.51v-.38a.23.23,0,0,0,0-.2h0v-1.77h-.08a11.59,11.59,0,0,0-.17-3l-.13-2.92h.05q-.11-4.92-.27-9.81a3.72,3.72,0,0,0-.18-1.75h0v-.15a3.49,3.49,0,0,1,.2-1.16l.16-.11a3.5,3.5,0,0,1,1.33-.11h3.39c2.53,0,4.94.05,7.47,0h5.78a11.44,11.44,0,0,0,3.3-.18h3.05a42.22,42.22,0,0,0,6.16-.27h.78a4.59,4.59,0,0,0,2-.19h.1a1.41,1.41,0,0,0,1-.06h0a4.71,4.71,0,0,0,2.14-.21h0a4.82,4.82,0,0,0,1.92-.24h0v.06a4.72,4.72,0,0,0,2-.3h0a2.62,2.62,0,0,0,1.56-.24h.05a18.16,18.16,0,0,0,3.87-.76h-.05V226h0v.07a1.35,1.35,0,0,0,1.05-.24,1.48,1.48,0,0,0,1-.23v0h0v0c.36,0,.76.06,1-.27h0a2.19,2.19,0,0,0,1.3-.27V225h0l.06.09a10.16,10.16,0,0,0,3.06-.84c1.53-.11,2.7-1.08,4-1.62v-.14h0v.14c.73-.3,1.46-.62,2.21-.94a1.1,1.1,0,0,1,1,0,2.62,2.62,0,0,1,.19.78c.12.84.19,1.62.31,2.42.74,4.86,1.69,9.69,2.52,14.54a9.68,9.68,0,0,0,.68,2.16h0a9.11,9.11,0,0,0,.75,1.37c3.71,5.61,7.35,11.25,11.06,16.86a2.63,2.63,0,0,1,.27,2.75c-1.16,2.7-2.24,5.46-3.36,8.21s-2.28,5.72-3.43,8.58c-.54,1.39-.63,1.42-2.08.9a23.76,23.76,0,0,1-2.37-.84.22.22,0,0,0-.08-.14.64.64,0,0,0-.71-.2,6.7,6.7,0,0,0-1.87-.54,1.5,1.5,0,0,0-1.21,0,6.4,6.4,0,0,0-2.73.84c-2.32,1.2-2.4,1-2.85,3.58a1.48,1.48,0,0,0,.76,1.89c.18.11.36.22.54.31l.14.07c.66.36,1.3.73,1.94,1.12l.13.07.7.44h0c1.4.84,2.77,1.75,4.17,2.59l.15.07.24.16a1.7,1.7,0,0,0,1.8.08v-.07h.09v.08a15.23,15.23,0,0,0,3.1-.75l-.16-.05h.08a1,1,0,0,0,.84-.22h.11l.09,0h0l.15,0a26.21,26.21,0,0,0,4-.94h.22a1.35,1.35,0,0,0,1.08-.77V287a.56.56,0,0,0,.26-.42h0a4.93,4.93,0,0,0,1.28-1.75h0a1.88,1.88,0,0,0,.69-.84,1,1,0,0,0,.51-.32.65.65,0,0,1-.2-.05h0a.65.65,0,0,0,.2.05l.84-1.25h0a7.8,7.8,0,0,0,1.24-1.57l-.32.08,0-.06.27-.06a43.17,43.17,0,0,0,2.61-3.55h0a.35.35,0,0,0,.23-.28.34.34,0,0,0,0-.2v0a.62.62,0,0,1,.07.23,9.79,9.79,0,0,0,1.57-2.05h-.06a.88.88,0,0,0,.18-.29.48.48,0,0,0,0-.17h0a.31.31,0,0,1,0,.19,1.66,1.66,0,0,0,.54-.74h0a.69.69,0,0,1,0-.32l.11-.15a.44.44,0,0,1,.27-.09l.33-.48,1.62-2h0a7,7,0,0,0,1.24-1.73v-.16h0a.21.21,0,0,1,0,.11,7.28,7.28,0,0,0,1.46-1.86h-.13l.16.07.58-.78h0A7.14,7.14,0,0,0,244,265a3.92,3.92,0,0,0,1-1.29c.38-.46,1.08-.77.71-1.56a1.45,1.45,0,0,0-.7-.8h0a.46.46,0,0,0-.16-.15.25.25,0,0,1,0-.09,1.17,1.17,0,0,0-.5-.51l-.15-.16a5.86,5.86,0,0,0-1.2-1.47l-.2-.54a7.2,7.2,0,0,0-.89-1.24h0a3,3,0,0,0-.76-1.08v0h0a.59.59,0,0,0-.29-.44h0c-.43-.77-.85-1.55-1.26-2.32l-.78-2-.1-.08a.06.06,0,0,0,0-.06l.11.09c-.18-.67-.34-1.35-.47-2h0a15.22,15.22,0,0,0-.27-3.16h0l0-1.2-.16-.07v-.09l.14.08c.1-2.35-.32-4.68-.32-7a1.64,1.64,0,0,0-.13-.43,5.5,5.5,0,0,0-.05-1.46v-.77h0c.21,0,.33.18.51.2a1,1,0,0,0,.26.33h.3c-.24-.77-.47-1.55-.72-2.33a1.16,1.16,0,0,1-.07-.42,3.46,3.46,0,0,1,.91.92c1.53,1.79,3.07,3.58,4.58,5.4,1.32,1.49,2.7,2.92,4.13,4.32a.28.28,0,0,0,.09.1c1.9,1.87,3.89,3.65,6,5.36,1,.84,1,.84.43,1.93A52.68,52.68,0,0,0,249,268.14,6.55,6.55,0,0,0,251,274a15.12,15.12,0,0,0,1.37,1.17,22.67,22.67,0,0,0,3.07,1.84,2.56,2.56,0,0,0,.65.3c.44.2.89.4,1.35.58s.89.36,1.34.51l.32.09a.43.43,0,0,1,.23.35,2.9,2.9,0,0,1-1.08.64,9.44,9.44,0,0,0-2.41,1.47c-1.58,1.31-3.13,2.66-4.7,4a.83.83,0,0,0-.35,1.13h0l.05.07.08.12c.6,1,1.17,2,1.68,3a1.86,1.86,0,0,0,.8.84h0a2,2,0,0,0,.34.13,2.85,2.85,0,0,0,1.08.21l1.08.21.84.15.43.06h0l.54.06H258a3.83,3.83,0,0,0,1.5.3,5,5,0,0,1,2.52,2c.16.25.33.51.69.51H263a1.46,1.46,0,0,0,.72,0h0a2.91,2.91,0,0,0,2.61-.71v-.14h0V293a.64.64,0,0,0,.48-.28h0a.58.58,0,0,0,.51-.27h0a3.46,3.46,0,0,0,1-.54h0a1.64,1.64,0,0,0,.79-.44h0a4.2,4.2,0,0,0,1.5-.84h0a15.88,15.88,0,0,0,3.63-2.06,1.45,1.45,0,0,0,1-.5v.05a2.53,2.53,0,0,0,2.06-2.56,9.61,9.61,0,0,1,.29-1.77c.13-.63.29-.9.71-.92h.06c.54.14,1.15.27,1.74.41l1.53.44,1.29.41a2.76,2.76,0,0,0,.51.16l.84.25a1.11,1.11,0,0,0,.5.12l.2.05a4.1,4.1,0,0,0,2.32.24v-.06h.26v-.07h0v.07c.39,0,.74.1,1-.22l-.08-.1h0l.07.1a.61.61,0,0,0,.54-.22v-.06a1.78,1.78,0,0,0,1-.75h0a2,2,0,0,0,.19-.22l-.11-.12h0l.14.15a4.35,4.35,0,0,0,1-1.62h0a1,1,0,0,0,.28-.74l-.17-.15v-.05ZM59,222.12a2.46,2.46,0,0,1-.09-1.08,1.11,1.11,0,0,0,.14-.54,2.22,2.22,0,0,1,.37-.63h.12a3.88,3.88,0,0,1-.48,2.24H59ZM47.47,166.19a1.9,1.9,0,0,1-.12-.63,7.65,7.65,0,0,0-.54-2.79,13,13,0,0,0-.47-1.37,3.58,3.58,0,0,1-.14-.54,1.19,1.19,0,0,1,.26-.84h1.27l1.8.54a.2.2,0,0,0,.17.05h.1l.14,0h-.21a28.52,28.52,0,0,1,5.33,2.66c.37.25.72.54,1.08.79l.35.29h0v0h0a.24.24,0,0,0,.09.08l.14.13.22.19a2.58,2.58,0,0,0,.78.61h0l.06.06a1.68,1.68,0,0,0,.45.43l.37.36.11.13h0a.31.31,0,0,1-.12.16c-1.68-.17-3-.91-4.56-1.25a1.24,1.24,0,0,0,.35.54.1.1,0,0,1-.05.08l.31.19h0a.83.83,0,0,1,.18.42,5.18,5.18,0,0,1-2.16-.43c-.61-.27-1.2-.61-1.82-.93a.49.49,0,0,0,0,.59,1,1,0,0,0,.09.34.37.37,0,0,1,0,.21,4,4,0,0,1-2.52-1.68c-.5.84,0,1.45.12,2.14a1,1,0,0,1-1-.31A.85.85,0,0,1,47.47,166.19Zm220,123.66h0a4,4,0,0,1-.46-1.5v-1l.32-.37c.24.42.45.84.65,1.17a3.72,3.72,0,0,0,.36.65l.27.54a.61.61,0,0,1-.18.84h0a.51.51,0,0,1-.15.07v-.05a.62.62,0,0,1-.81-.33Zm-9.26-1a.61.61,0,0,1-.45-.58,3.87,3.87,0,0,1,1.45-2.67c.07-.05.12-.07.16-.05a5.74,5.74,0,0,0-.17,2.44h0c.15.47-.48,1-.95.86Zm-4.38-2.52a.87.87,0,0,1-.24-.59.78.78,0,0,0,.21-.54h0l1.26-1.79h0a.18.18,0,0,0,.09.06v.23a12.39,12.39,0,0,0-.14,1.82v.21a1,1,0,0,1-.63.84.55.55,0,0,1-.52-.24Zm-16.65-52.38c-.32.14-.42-.19-.54-.35a151.79,151.79,0,0,1-11.43-14.7,20.88,20.88,0,0,1-2.94-6.48,3.16,3.16,0,0,0-.18-.75c-.05-.22-.09-.43-.14-.65a4.15,4.15,0,0,0-.14-1c-.05-.41-.08-.84-.11-1.23v-1.42h0v-.06h0a10,10,0,0,1,.05-1.22c.05-.38.06-.62.1-.92l.54-2.7.21-.74a1.39,1.39,0,0,0,.13-.44c0-.09.07-.18.09-.27a1.45,1.45,0,0,0,.23-.67.53.53,0,0,0,.21-.54h0l.06-.13v0a.35.35,0,0,0,.18-.3h0a4.38,4.38,0,0,0,.6-1.18v-.08h0v.06a11.55,11.55,0,0,1,2-2.32v-.08h0v.11a6.75,6.75,0,0,1,2.53-.91h.75l.05-.09h0l-.05.09,1.25.3a.65.65,0,0,0,.2,0h0a.49.49,0,0,1-.21,0,.94.94,0,0,0,.78.25h0c.12.19.38.22.59.35-.09.16-.27.16-.42.17a7.9,7.9,0,0,0-6.21,4.07,14.23,14.23,0,0,0-2,7.56,11.84,11.84,0,0,0,.1,1.68c.05.46.11.93.19,1.39a1.66,1.66,0,0,0,.16.85,3.6,3.6,0,0,0,.15.63,8.37,8.37,0,0,0,.49,1.76h0a.21.21,0,0,0,.07.2,4.66,4.66,0,0,0,.54,1.35c.05.12.1.25.16.37a.71.71,0,0,0,.14.32l.12.23a14.75,14.75,0,0,0,1.87,3.24h0a21.36,21.36,0,0,0,2.45,3.65l.3.43a9,9,0,0,0,.84,1.11l.33.43h0a.28.28,0,0,0,.14.16c.42.53.84,1,1.27,1.54a12.84,12.84,0,0,0,1.87,2.16.35.35,0,0,0,.26.26h0a7.71,7.71,0,0,0,1.76,1.8h0c.17.19.33.39.5.6a2.67,2.67,0,0,1,.09,2Zm-96.78,51.73a.54.54,0,0,1-.1.76h0l-.09.05c-.4.21-.67-.05-.84-.37a2.88,2.88,0,0,1-.07-2.4l1,1.77h0Zm-4.53.6a.49.49,0,0,1-.29.06v-.12a.59.59,0,0,1-.57-.58,1,1,0,0,1,0-.24c.1-.51.26-1,.39-1.5h0v0a.52.52,0,0,1,.52-.14c.09.68.17,1.23.22,1.78a.58.58,0,0,1-.27.74Zm3.57-19.5a7.65,7.65,0,0,1-.92-4.24v-.16a1,1,0,0,1,.41-.54h.2a1,1,0,0,1,.39.3,1.43,1.43,0,0,1,.09.41,18,18,0,0,1-.17,4.28ZM61.49,220.45h.28a.29.29,0,0,1,.1.12v.77a.23.23,0,0,1-.23.09.27.27,0,0,1-.21-.26c0-.27-.1-.52.06-.71Zm-4.79-3.37h0v-2.76s0-.1.08-.15c.28-.31.67-.19,1-.24v-.06h0V214H58c.41,0,.84.06,1.24.06a.79.79,0,0,1,.69.36c.06.15.12.35.21.59a3,3,0,0,0,.19.6l.3.85.08-.19v.05a23.79,23.79,0,0,0,1.15-2.52h0a1,1,0,0,1,.21.21,6.9,6.9,0,0,1,.54,1.39,3.57,3.57,0,0,0,.35.83,24.38,24.38,0,0,0,1-2.86h0a.28.28,0,0,0,.19-.28.23.23,0,0,0-.1.07v0h0l.16-.36.15-.23h0a1.06,1.06,0,0,0,.54-.46h.27v-.24a.84.84,0,0,0,.47-.54h0a2.91,2.91,0,0,0,.84-1.21h0v.08c.54-.54,1-1.13,1.53-1.68a4.27,4.27,0,0,1,3-1.4h.06a.52.52,0,0,0,.47.19h.1l.06.06a1.63,1.63,0,0,1,.11.23v.12a.57.57,0,0,1-.54.51h0c-2.75.4-4.2,2.63-6.07,4.28a.62.62,0,0,0-.2.84.8.8,0,0,0,.2.21h0a.1.1,0,0,0,.06.05l.09.1c.33.46.65.85,1,1.3h0a2.1,2.1,0,0,1,.24.5v.13c0,.26-.17.46-.61.74a10.44,10.44,0,0,1-6.85,2l-.65-.06c-1.13-.12-1.68-.35-1.94-1Zm23.4-54.54a.24.24,0,0,0,.07-.18v-.08h0a.52.52,0,0,0,.17-.38l.06-.05a.22.22,0,0,0,0-.22v0a15.94,15.94,0,0,0,.68-2.16l.07-.23c.29-.47.38-1.19,1.24-.94h0l.06.05a.79.79,0,0,1,.2.33c.18.48.35,1,.54,1.45s.3.89.47,1.33A25.38,25.38,0,0,1,85,167.05v.27a13.63,13.63,0,0,1,0,1.69,4.88,4.88,0,0,1-.07.76c-.23,1.11-.54,1.25-1.68.74a.33.33,0,0,1,0-.16h.11a1.47,1.47,0,0,0,.78-1.23.87.87,0,0,0-.08-.65c-.54.37-.91.84-1.62.91v0l.06-.09a1,1,0,0,0,.4-.45l-.06-.1h0v.05a1.8,1.8,0,0,0,.54-1.11.84.84,0,0,0-.34-.95c-.57.66-.9,1.5-1.9,1.68h0a.29.29,0,0,1,0-.13,1.26,1.26,0,0,0,.35-1.08c.07-.3.18-.62-.24-.89a3.12,3.12,0,0,1-3.17,2l.43-.19c.22-.3.62-.41.77-.77h0s.08,0,.1-.06c.31-.39.93-.7.5-1.21a.4.4,0,0,0-.1-.23c-.2-.21-.45,0-.66.11a7.59,7.59,0,0,1-2.07,1,.81.81,0,0,1,0-.31h0l1.22-1.08v-.08a1.71,1.71,0,0,0,.7-.71h0a3.11,3.11,0,0,0,.84-1.51h0a.54.54,0,0,0,.2-.54h0l0-.08Zm182.1,127,.16-1.76h0v-.09s0-.06,0-.08h0a.48.48,0,0,0,0,.17.26.26,0,0,0,.19-.29h0l.54-.77v-.06h0a.66.66,0,0,0,.12-.17h0a.62.62,0,0,1-.09.12v.06l.11.08c.12.9.21,1.68.28,2.44a.66.66,0,0,1-.5.79h0a.66.66,0,0,1-.79-.4Zm-40.55-3.16a3,3,0,0,1-.2-.49,5.31,5.31,0,0,1,0-1.38,2,2,0,0,1,.12-.34l.26.12.36.63a3.05,3.05,0,0,0,.28.5l.27.47c.23.4.21.78-.25,1h0c-.42.17-.67-.12-.79-.43Zm-16.07-67.83c-.23.3-.58,0-.84-.22a1.72,1.72,0,0,1-.84-.92,1,1,0,0,1,0-.34h0a1.36,1.36,0,0,1,.34-.65.7.7,0,0,1,.19-.16h.12a.53.53,0,0,1,.61.33.88.88,0,0,1,.07.23.5.5,0,0,0,.12-.13c0-.06.15-.48.17-.48.24.64.38-.13.54,0,.38.21.44.6.54,1a1.13,1.13,0,0,1,0,.26c0,.65-.71.71-1,1.12ZM65.23,211.68l-.27.25h0l.27-.23v-.11h0Zm99.21-52.42h0a8.81,8.81,0,0,0,2.76-.2h.13a.2.2,0,0,0,.21,0V159h.24a12.37,12.37,0,0,0,3.64-.23h1.47a9.67,9.67,0,0,0,2.84-.18H176a.72.72,0,0,1,.84.47c.05.12.09.27.15.46a24.41,24.41,0,0,1,.77,7.37,104.8,104.8,0,0,1-2,17.31,2.46,2.46,0,0,1-.25.45c-.05-.57-.08-1.08-.13-1.56v-.66a11.35,11.35,0,0,0-.09-1.15c-.65.45-.62,1.29-1.39,1.75v-3.85a4.54,4.54,0,0,0,0-1.56h0a27.05,27.05,0,0,0-.69-4.2v-.24h0c-.08-.28-.15-.58-.23-.84-.18,1,.07,2-.16,3.29l-.29-.78a.77.77,0,0,0-.12-.36c-.15-.45-.29-.91-.43-1.36a12.31,12.31,0,0,0-1.19-3.16,8.65,8.65,0,0,0-.54-.93c0,1.15-.14,2.26-.24,3.55l-.06.07a11.26,11.26,0,0,1-1-1.62h0a11.19,11.19,0,0,1-.73-1.84,15,15,0,0,0-.75-2l-.06-.15a15.48,15.48,0,0,0-1.39-2.52,23.46,23.46,0,0,1-.71,4.49c-.08-.12-.14-.18-.17-.23A7.86,7.86,0,0,0,165,167a4,4,0,0,0-.07-.48,1.8,1.8,0,0,0-.16-.91c-.21-1.08-.44-2.16-.65-3.24a13.27,13.27,0,0,0-.33-2.16c-.08-.67-.11-.89.18-1Zm119.48,38.8c.08-.25,0-.54.16-.84a2.24,2.24,0,0,1,0,2.16h0a7.27,7.27,0,0,1-.13-1.39ZM268,239.7a3,3,0,0,1,.62-.9,2.71,2.71,0,0,0,.85-.65.17.17,0,0,1,.06-.1h0a.28.28,0,0,0-.08.11l.29-.25h0l.09,0H270v-.11l.59-.37h0A6.86,6.86,0,0,1,268,239.7Zm-12.25,24.93c-.21,1.26-.29,2.52-.61,3.78h0A4,4,0,0,1,255.77,264.63Zm-22.94-31.35c.25.48.48,1,.69,1.46a6.44,6.44,0,0,1-2.16-1.68,9.29,9.29,0,0,1-1.42-2,.54.54,0,0,1-.05-.11c-.08-.36.05-.65.57-.78a.81.81,0,0,0,.22.07l-.15-.2h.05l.11.15.26.21h0l.19.19c.13.18.27.34.39.54s.23.34.34.5c.32.54.64,1.08.95,1.62Zm-24.51-17.39h0c-.37.41-.93.22-1.41,0a.58.58,0,0,1-.18-.17c-.15-.57-.08-.59.46-.74a.38.38,0,0,0-.38-.14c.1-.19.13-.38-.22-.54h0c-.11-.21,0-.32.16-.41a1.81,1.81,0,0,1,1.08-.35,2,2,0,0,1,.72.46.4.4,0,0,0,.25.26,2.75,2.75,0,0,1,.19.28h0A1.8,1.8,0,0,1,208.32,215.89Zm-76,31.25a16.32,16.32,0,0,1,.84-3.21l-.07-.08h0a1.23,1.23,0,0,1,.79.22,1,1,0,0,1-.06.54h0a9.72,9.72,0,0,1-1.62,3.19Q132.26,247.47,132.3,247.14Zm-8-19a1.48,1.48,0,0,1-.72-.89,1.4,1.4,0,0,1,.22-1,4.86,4.86,0,0,1,.54-.66.24.24,0,0,0,.2-.08v0c.37-.46.17-1.22.73-1.62a.17.17,0,0,1,.17,0,3.49,3.49,0,0,1,3.61.54,1.93,1.93,0,0,0,.84.49h0l.17.26c-.72.26-1.22-.39-1.82,0l.17.13-.26.16,1.26.35h0a1,1,0,0,1,.44.48c-.36.3-.85.17-1.24.22s-.93-.19-1.37.26h-.08c.6.54,1.22.33,1.68.41s.84-.2,1.14.06c-.84.68-1.78.25-2.45.84l.13.06a.34.34,0,0,0-.24.07,2.68,2.68,0,0,0,2.38-.26.54.54,0,0,1,.25.06,4.08,4.08,0,0,1-4.32,1.83h0c-.3-.1-.63-.26-.59-.59C125.28,228.53,124.74,228.42,124.35,228.13ZM42.12,189a.89.89,0,0,1,.45.15,3.06,3.06,0,0,1,.35.64.85.85,0,0,1-.76.85h0a.91.91,0,0,1-.94-.85h0a.93.93,0,0,1,.45-.7h0a.25.25,0,0,0,.2-.06h0a.65.65,0,0,1,.2,0Zm241.25-9.34a2.25,2.25,0,0,1-.32-.59,0,0,0,0,0,0,0,2.17,2.17,0,0,1-.08-.84l.08-.07a1.42,1.42,0,0,1,.32,1.54ZM253.2,259.91l.2-.12a1.15,1.15,0,0,1-.72,1h0a.87.87,0,0,1,.13-.45A1.85,1.85,0,0,0,253.2,259.91Zm-47.46-45.19v-.05a.44.44,0,0,1-.34.51h-.08a.47.47,0,0,1-.47-.22.61.61,0,0,1,.54-.6.38.38,0,0,1,.34.2A.86.86,0,0,1,205.74,214.72ZM140.65,261.9c.37-.54.47-.54,1-.19a1.34,1.34,0,0,1,.12.3,17,17,0,0,1,.58,3.41.88.88,0,0,1-.09.2,16.53,16.53,0,0,1-1.53-3.24h0a1.53,1.53,0,0,1-.14-.46Zm-18.16-94.19v0a2.36,2.36,0,0,0,.78-1.68,3.73,3.73,0,0,0,.09-.46c.22-.27.13-.59.09-.9s0-.51,0-.76c.84,2.7-.57,4.42-2.64,5.89a1,1,0,0,0,.2.15.23.23,0,0,0,.1.12h0a4.78,4.78,0,0,1,1.75,1.82,4.21,4.21,0,0,1-.17,2.78,7,7,0,0,1-2.7,3.45.61.61,0,0,0,.05.12l-.06,0a1.72,1.72,0,0,0,.67.74c0,.06.1.11.14.17l.23.34c.09.11.13.2.2.29a6.33,6.33,0,0,1,.36.8c.11.43.2.87.27,1.3a4.87,4.87,0,0,1-1.56,3.89c-.17.15-.33.41-.67.28a.14.14,0,0,1,.06-.13h0c.23-.33.61-.54.75-.93l.09-.13a.27.27,0,0,0,.16-.22h0c0-.06.07-.1.1-.16a2.33,2.33,0,0,0,.41-1.2,4,4,0,0,0,.05-1.43v-.28l-.09-.18a4.2,4.2,0,0,0-1.34-2.16,3.86,3.86,0,0,0-.6-.44,4.74,4.74,0,0,1-.54-.31.71.71,0,0,1-.14-.1c-.15-.25,0-.36.38-.63a6,6,0,0,0,1.54-1l.15-.14h0l.12-.09v0h0a2.26,2.26,0,0,0,1-1.27h0a1.71,1.71,0,0,0,.46-1.08h0a3,3,0,0,0,.13-.54c.29-1.52-.36-2.52-2-3.08l-.13,0c-.33-.2-1-.05-1-.62a.38.38,0,0,1,.17-.36,1.41,1.41,0,0,0,.67-.19h.1v0a2.8,2.8,0,0,0,1.23-.61v-.06l.38-.19a6.33,6.33,0,0,1,.44-.46A.75.75,0,0,0,122.49,167.71ZM148.76,246a15,15,0,0,1-2.33-2.7,1.81,1.81,0,0,1-.18-.37.62.62,0,0,1,.15-.54h0c.49-.06.77.26,1,.66a3.44,3.44,0,0,0,.47.78,10,10,0,0,1,.86,2.16Zm-17.62-11.21a1.88,1.88,0,0,1-1.32-.92,4,4,0,0,1,.9-3.62h0c.26-.23.39-.64.76-.72a3.49,3.49,0,0,1-.19,1.19,1.44,1.44,0,0,0,0,1,6.58,6.58,0,0,0,.65-1.68.54.54,0,0,1,.54-.22c.27.77,0,1.62.24,2.52v.08a1.09,1.09,0,0,0,.43-1.08v-1.32c0-.18-.08-.48.26-.41h.07a1.77,1.77,0,0,1,.27.63,4.56,4.56,0,0,0,.41,2,1.84,1.84,0,0,0,0-1.92,1.34,1.34,0,0,1,0-.84.11.11,0,0,1,.11,0h0l.43.2h0a1.2,1.2,0,0,0,.47.45v.06a4.5,4.5,0,0,1,.62,1.24,6.6,6.6,0,0,1,.23,1.24c0,.23,0,.45,0,.68,0,.54-.18,1-.91,1-.48,0-.54.35-.74.63h0c-.79,1.24-1.67,1.32-2.75.2a1.07,1.07,0,0,0-.41-.35ZM44.82,184.55a2.52,2.52,0,0,0,1.3.63,3.56,3.56,0,0,0,.91.22,2,2,0,0,1,1,.63h0c-1.62,1.3-2.22,2.61-1.73,3.87A1.78,1.78,0,0,0,47.51,191a3,3,0,0,0,2.19.18h.13l.28-.13a1.58,1.58,0,0,0,1-1.31c.07-.32.09-.69.48-.72a.61.61,0,0,1,.16.12l.09.09a.71.71,0,0,1,.1.14c.07.18.15.36.21.54a6.64,6.64,0,0,1,.32,2.9c0,.41-.27.66-.69.48-1.23-.51-2.53-.68-3.82-1.08a3.5,3.5,0,0,1-2.16-1.86v-.1a.54.54,0,0,0-.22-.5h0a17.07,17.07,0,0,1-.5-2A32.43,32.43,0,0,1,44.82,184.55Zm8.5-11.66h0c.2.26.5.22.78.26a11.18,11.18,0,0,1,1.21.58h-.05a13.74,13.74,0,0,1-3.62-.13.54.54,0,0,1-.54-.48v-.22a.53.53,0,0,1,.14-.29.24.24,0,0,0,.14-.09c.68-.09,1.28.34,1.95.34h0Zm66.86,42.4a2.35,2.35,0,0,1-1.05-.79c-.24-1.08.32-1.75,1.59-1.79h0a2.08,2.08,0,0,0,.65.4.55.55,0,0,1-.05.61c-.06.09-.42,0-.18.26h0c-.33.16,0,.19.21.25a.62.62,0,0,1,.07.59c-.16.35-.78.47-1.25.47Zm2.9-5a2.6,2.6,0,0,0,.61.54,1.46,1.46,0,0,1,.23.73.92.92,0,0,1-.67,1.08h0a1.59,1.59,0,0,1-.27-.12c0-.14-.09-.29-.22-.26a1,1,0,0,1,0-.42,3.62,3.62,0,0,0-.17.56c-.18.18-.44.45-.79.15a1.3,1.3,0,0,1,0-1.81l.08-.05h0v0a.29.29,0,0,0,.18-.18h0l.23-.24h.38a1.41,1.41,0,0,1,.41.07ZM143,260.92c.35-.24.72-.24.84.22a7,7,0,0,1,.27.72V262a6.76,6.76,0,0,1,.22,2.76,15.64,15.64,0,0,1-1.39-3,1,1,0,0,1-.08-.37.91.91,0,0,1,.14-.45Zm-7.49-32.79a1.63,1.63,0,0,1,.54,0c.84.43.84.41,1.55.19a1,1,0,0,0-.54-.26c-.44-.26-1.05-.26-1.34-.84h0a1.15,1.15,0,0,1,.5-.2h.24V227h.15a5,5,0,0,0,.95,0,2.74,2.74,0,0,0,1-.18,3.43,3.43,0,0,0-1.54-.37c-.44-.07-.9.24-1.39-.07a.93.93,0,0,1,.39-.29h0a8.56,8.56,0,0,0,2.4-.5l-.33-.08h0c-.84-.54-1.62.31-2.45.08v-.16a6.71,6.71,0,0,1,.59-.84h0a5.69,5.69,0,0,1,4-.76h0a.53.53,0,0,1,.22.57.57.57,0,0,0,.23.57.32.32,0,0,0,.15.13l.19.12h0l.17.1a2.37,2.37,0,0,1,.6.54v.05a.77.77,0,0,1,.14.25.06.06,0,0,1,0,.06,1.63,1.63,0,0,1-.61,1.68c-.2.19-.46.27-.54.65a1.63,1.63,0,0,1-1.69,1.51,3.11,3.11,0,0,1-1-.07,6.16,6.16,0,0,1-2.63-1.62.21.21,0,0,1,.06-.18Zm4.42,17a1.2,1.2,0,0,1,.33-.9h.17a.28.28,0,0,1,.18,0l.21.13a.91.91,0,0,1,.17.54,10.29,10.29,0,0,1-.35,3.36,11.29,11.29,0,0,1-.71-3.09ZM138.55,214h-.09a.83.83,0,0,1-.73-.38l0-.09a.85.85,0,0,1,.24-1.18.84.84,0,0,1,1.18.24l.06.1h0l.06.06a1.16,1.16,0,0,1,.08.32h0a.85.85,0,0,1-.7,1h0Zm-.88,32.11V245a.5.5,0,0,1,.46-.54h.07a.59.59,0,0,1,.31.12.84.84,0,0,1,.13.44,10.58,10.58,0,0,1-.3,3.45,10,10,0,0,1-.67-2.34Zm5.35-1.68a.72.72,0,0,0,.06.29.93.93,0,0,0,.09.4,12.56,12.56,0,0,1,.18,2.29.79.79,0,0,1-.08.26,6.67,6.67,0,0,1-1.23-2.85c0-.23,0-.45,0-.68l.08-.09a1,1,0,0,1,.78.14.75.75,0,0,1,.09.3ZM122.5,213.72h0a.89.89,0,0,1,.62.12.45.45,0,0,1-.08.63.42.42,0,0,1-.29.09h0a.38.38,0,0,1-.43-.31v0a.38.38,0,0,1,0-.15.33.33,0,0,1,0-.14Zm2.7-1h.18a2.49,2.49,0,0,1,.76.43.31.31,0,0,0,.27.29h0a.67.67,0,0,1,.2.38,2,2,0,0,1-.74,1.39c-.3.35-1.13.18-1.51-.18a.62.62,0,0,1-.14-.18c.16-.31.2-.75.76-.7l-.09-.2h-.34a.25.25,0,0,0,0-.22,1.27,1.27,0,0,1,.39,0v-.27h-.78v-.07c.17-.34.57-.4.78-.65h.3Zm-3.65,3.36.23-.25.1-.24a.54.54,0,0,1,.76-.08h0a.57.57,0,0,1,.11.33c0,.16,0,.31.31.24v-.73l.09.09c.07.1.3-.11.5-.08a.46.46,0,0,1,.13.18l.12.11a2.32,2.32,0,0,1,.25.85,2.06,2.06,0,0,1-1.08,1.28H123a2.61,2.61,0,0,1-1.43-.83h0V216Zm24.88,31.72a7.4,7.4,0,0,1-2-3.69,1.7,1.7,0,0,1,0-.45,1.51,1.51,0,0,1,.15-.28h.05a1.27,1.27,0,0,1,.77.23h0l.54,1.47a12.26,12.26,0,0,1,.43,2.7Zm-12.28-20.86h0a1.12,1.12,0,0,1-1.12,1.12h-.13a1.2,1.2,0,0,1-1.08-.49,1.92,1.92,0,0,1-.07-1h0a.28.28,0,0,0,.06-.16.17.17,0,0,1,0-.1l.47-.49h0a1.91,1.91,0,0,1,1.25,0h0a4,4,0,0,1,.47.62,1.59,1.59,0,0,1,.07.2,1.28,1.28,0,0,1,.07.28Zm12.61,36.42a5.72,5.72,0,0,1-1.86-2.43,3,3,0,0,1-.07-.67h0l.25-.22c.34-.14.54,0,.71.34a7.91,7.91,0,0,1,.85,2.4h0a2,2,0,0,1,.15.58ZM49.56,189.1c-.28.09-.48-.33-.51-1,0-.18,0-.42.12-.51a1.11,1.11,0,0,1,.89.38.62.62,0,0,1,.07.23v0a.83.83,0,0,1-.56.89Zm34.08,2.79a1.56,1.56,0,0,1-.16-.2h0c.23-.11.52,0,.75-.07v-.07h0v.07a36.47,36.47,0,0,0,5.82-.07h0a.54.54,0,0,1,0,.11h.54a.17.17,0,0,1,.07-.13h.1a2.2,2.2,0,0,1,.62.12h0a2.31,2.31,0,0,1,.51.22.79.79,0,0,1,.29.11,2,2,0,0,1,.36.54,1.1,1.1,0,0,1,0,.67,1.14,1.14,0,0,1-.46.49v0a1.9,1.9,0,0,1-1.19.44,11.14,11.14,0,0,1-7.26-2.2Zm-19,1.68a.55.55,0,0,1-.7-.2.66.66,0,0,1-.06-.2,8.2,8.2,0,0,1,.28-1.62.17.17,0,0,1,0-.15h0v-.09a.57.57,0,0,0,.16-.37v-.07h0a4.34,4.34,0,0,0,.84-1.48h0a1.24,1.24,0,0,1,.22.34h0v.16a3.41,3.41,0,0,0,.54,1.68,2,2,0,0,0,1.42.88l.49-.18h.32c.24.27.49.14.74,0h.21a.2.2,0,0,1,0-.11h0v.08a1,1,0,0,0,.76-.45h.25l.3-.46a.3.3,0,0,1,.11-.23.19.19,0,0,0,0,.15.32.32,0,0,0,.19-.31l0,.05a.33.33,0,0,0,0-.14h0v-.06l0-.09h0a1.46,1.46,0,0,0,.4-.73h0a3,3,0,0,0,.09-.84V189a2.14,2.14,0,0,0-.76-1.54,5,5,0,0,1-.6-.54.46.46,0,0,1,.51-.35,1.79,1.79,0,0,0,1-.2h.06a2.16,2.16,0,0,0,1.27-.25l.1-.22h0v0a.87.87,0,0,0,.68-.24c.41-.06.58.13.54.62h0a5.79,5.79,0,0,1-.38,1.54,2.21,2.21,0,0,1-.18.34c-.07.12-.1.25-.16.37a8.51,8.51,0,0,1-4.49,4c-1.39.4-2.86.43-4.21.92Zm8.33.09H73a.81.81,0,0,1-.71-.43,4,4,0,0,1-.11-.58h0l.52-.54.06-.13h.06c0,.07-.07.13-.12.2h.78a.18.18,0,0,1,.07,0h0a.86.86,0,0,1,.24.54.83.83,0,0,1-.74.89Zm3.56-3.58a.84.84,0,0,1-.84-.46,1.21,1.21,0,0,1,.32-1,2.82,2.82,0,0,1,1.08.09.85.85,0,0,1,.17.49v.07a.78.78,0,0,1-.68.84h-.06Zm-6.73-1.54-.26.26h0a1.87,1.87,0,0,1-.29-.2l-.11-.13v-.06c0-.23.43-.38.43-.38Zm-1.75-7.4v.16h2.07l.74.21c.48.28.48.78,0,1.56a4.17,4.17,0,0,1-1.48,1.38c-.74.42-1.5.83-2.27,1.21a9.54,9.54,0,0,0-2.32,1.56,6,6,0,0,0-2.16,4.2,4.35,4.35,0,0,0,0,1.14c0,.28-.08.51-.47.51a.77.77,0,0,1-.27-.07c-.11-.24-.15-.48-.26-.71v-.73l.18-1.18h0a1.38,1.38,0,0,1,.08-.27A12.08,12.08,0,0,1,63.86,187h0l.07-.07,0,.06h0a.31.31,0,0,0,.22-.18l.08-.08v0A2.07,2.07,0,0,0,65,186h0v0a1.75,1.75,0,0,0,.84-.54h.05a11.74,11.74,0,0,0,1.9-1.05.71.71,0,0,0,.7-.29h0A3.52,3.52,0,0,0,70.21,183l-.15-.06a10,10,0,0,0-2.16-.84,11.86,11.86,0,0,1-2.16-.94,19.62,19.62,0,0,1,2.3,0Zm-8.55.17h0a1.12,1.12,0,0,1-.31-.1c-.4-.31-.34-.76-.28-1.22a1.14,1.14,0,0,0-.15.23v-.15h0a1.81,1.81,0,0,1,.91-.44.86.86,0,0,1,.76.92.84.84,0,0,1-.92.76Zm45.52,5.4a1.77,1.77,0,0,1-.46,0h-.1a1.42,1.42,0,0,1-1.16-1.62c.62-1.08,1-1.26,2.28-1.08a9.11,9.11,0,0,0,1.73.14h0a20.18,20.18,0,0,1,2.29.46,4.7,4.7,0,0,1,.63.13h-.11a5.37,5.37,0,0,0,1.34.43,5.7,5.7,0,0,1,.69.37,28.75,28.75,0,0,1-4.59.94c-.84.1-1.68.21-2.53.27Zm1.78-8.41h-.54c.92.46,2,.11,2.88.46l0-.07h0l0,.07,1.26.36h0a.53.53,0,0,0,.54.18l.1-.12h0l-.1.12h.24v-.09h0v.07l.54.14h0a2.36,2.36,0,0,1,.62.35,16.15,16.15,0,0,1-2.93.66h0a30.52,30.52,0,0,1-4.58.47,1.26,1.26,0,0,1-1.34-.84.44.44,0,0,0,0-.15V179h0l.74-.7v-.05l2-.05h.36ZM103,190.91h0a2.08,2.08,0,0,1,.31-1.08.2.2,0,0,1,0-.11h0l.74-.27,2,.54v-.05h0a4.81,4.81,0,0,0,1.17.42l.54.2.13.05h0c.11,0,.22.1.34.15a.4.4,0,0,0,.21.09l1,.44a9,9,0,0,0,1.84.84l.25.12a.53.53,0,0,0,.35.17h0a6.71,6.71,0,0,1,1.19.69v.07c-.07.24-.26.22-.43.25a15.23,15.23,0,0,1-8.6-1.27,2.44,2.44,0,0,1-.54-.33,1.65,1.65,0,0,1-.54-.89s0,0,0-.07ZM104.76,173l.38-.09.7,0v-.07h0v.08h5.4v0h.27c-1.87.92-3.5,2.28-5.58,2.74a9,9,0,0,1-1.26.22c-.69.06-1.08-.08-1.3-.48a2.3,2.3,0,0,1,.16-1.85h0a.84.84,0,0,0,.5-.28v-.08h0v.1A1,1,0,0,0,104.76,173Zm-1.85,25.46a2.24,2.24,0,0,1-.85-.57,2,2,0,0,1-.39-1.43,1.35,1.35,0,0,1,.24-.46l.06-.08h0a.17.17,0,0,0,0,.1l.25-.13a.35.35,0,0,1,.34-.16h.11l.08-.08a7.61,7.61,0,0,1,.93.39c.44.23.85.47,1.28.73l.08.06h0a23.37,23.37,0,0,1,2.7,1.9,12.71,12.71,0,0,1,2.27,2v.05a15.86,15.86,0,0,1-3.18-.84c-1.38-.4-2.66-1-4-1.47ZM71.16,175.75h.34c.67.27,1.47,0,2.16.32a.61.61,0,0,1,.31.67h0a.73.73,0,0,1-.82.6h0a9.84,9.84,0,0,1-1.85-.47,10.54,10.54,0,0,1-2.43-1,18.13,18.13,0,0,1,1.81-.11ZM53.1,197.59a2.17,2.17,0,0,0-2-.84,2.27,2.27,0,0,1,1.54-.12l.3.23a2.39,2.39,0,0,0,2,0c1.26-.54,2.39,0,3.51.5l.2.17a4.92,4.92,0,0,1,.47.54.49.49,0,0,1,0,.24c-.3.24-.47,0-.66-.18a3.27,3.27,0,0,0-3.94-.21c-.62.25-1,.31-1.37-.37ZM97,206c.29-.46.64-.84,1.26-.7l.07-.07h0l-.06.06a24.44,24.44,0,0,1,2.73,3.36c.13.21.27.41.39.62l.15.27a21.32,21.32,0,0,0,1.68,2.85h0l.18.29a33.32,33.32,0,0,1-4.32-3.05h0a17.21,17.21,0,0,1-1.84-2.16.41.41,0,0,1,0-.09A2.72,2.72,0,0,1,97,206Zm9.34,49a8,8,0,0,1-1.18,3,10.62,10.62,0,0,1-.06-1.38c0-.42.08-.85.11-1.23a.66.66,0,0,1,.06-.34l.26-.67v-.06a.83.83,0,0,1,.84.18A1.19,1.19,0,0,1,106.38,255Zm-2.94-1.14h0c.54-.09.79-.07.84.11a1,1,0,0,1,0,.42h0a1,1,0,0,1-.08.23,16.08,16.08,0,0,1-2.16,3.69,7.85,7.85,0,0,1,.13-1.37,17.18,17.18,0,0,1,1.26-3.08Zm3.92,3.58v-.26a6.82,6.82,0,0,1,.48-2.32,1.75,1.75,0,0,0,.23-.24h0c-.09.09-.16.19-.24.26h.71l.06.08v.54h0a9.88,9.88,0,0,1-1.22,3.27c-.1-.41.08-.89,0-1.33Zm-7.2-3.08h0v-.08h0Zm0,0h0a.56.56,0,0,0,.28-.54h0v-.07a.06.06,0,0,0,0-.06,1,1,0,0,1,0,.16l.54-1c.26-.2.57-.44.84-.18a.46.46,0,0,1,.15.26.9.9,0,0,1-.18.43h0A9.78,9.78,0,0,1,99.58,256c.06-.21.12-.43.19-.65a8.28,8.28,0,0,0,.43-1ZM111,240.89a.62.62,0,0,1,0,.33,9.24,9.24,0,0,1-1,3,3.1,3.1,0,0,1-.11-.51v-1.95h0c.3-1.08.4-1.2,1.12-.85Zm-8.9-72.21a1.73,1.73,0,0,1,1.24-1.78,25,25,0,0,0,2.48-1h.13l2.21-.54a.75.75,0,0,0,.77-.22,1,1,0,0,0,.72-.17l.54-.11a1.34,1.34,0,0,0,.4-.06l1.16-.18a1,1,0,0,1,.24,0,16.23,16.23,0,0,1-8.36,5,1.19,1.19,0,0,1-1.41-.6A1.09,1.09,0,0,1,102.06,168.68ZM86.13,185.76a8.73,8.73,0,0,0,2.24-.6h0a2.73,2.73,0,0,0,1.08-.43h0c.78,0,1.4-.54,2.24-.54h.06v.11a2.84,2.84,0,0,1,1.51.84,1.23,1.23,0,0,1,.08.38,1.18,1.18,0,0,1-.7,1.13v-.13a2.3,2.3,0,0,1-.57.27c-2.1.74-6.38,1-8.71-.26l.09-.07a3.79,3.79,0,0,0,1.59-.41v-.11h.06v.1l.2-.06h0a1.16,1.16,0,0,0,.84-.22l-.12-.09h0A.46.46,0,0,0,86.13,185.76Zm16.1,56.16a9.47,9.47,0,0,1,1-2.52h0c.3-.33.54-.65.84-1a.29.29,0,0,0,.22-.06l0-.06h0a1.51,1.51,0,0,1,.37.07h.1c.28.24.15.58,0,.85A18.73,18.73,0,0,1,102,242.7c0-.28.09-.54.15-.83Zm10.5-1,0-.07h0l0,.08c.49-.15.7,0,.84.19a1.71,1.71,0,0,1,0,.32,16.2,16.2,0,0,1-.65,4.32,7.23,7.23,0,0,1-.54-2.38,9.16,9.16,0,0,1,.35-2.44Zm-7.52,2.16v-1a4.43,4.43,0,0,0,.09-.72v-.19a.5.5,0,0,0,.17-.51.27.27,0,0,0-.08.07v0h0c.26-.54.22-1.32,1-1.51l.06-.08h0l0,.07a1.3,1.3,0,0,1,.32.54.25.25,0,0,1-.06.2c-.26.63-.54,1.26-.84,1.87a4.86,4.86,0,0,1-.62,1.3Zm-2.07-37.66a18.93,18.93,0,0,1-2.7-2.52,2,2,0,0,1-.54-1v-.09c0-1.19.22-1.41,1.42-1.37a2,2,0,0,1,.49.29l.39.35c.4.36.78.74,1.18,1.12a3.92,3.92,0,0,0,.71.7c.36.37.71.74,1.08,1.08a5.28,5.28,0,0,0,.84.93l.09.11h0a1.25,1.25,0,0,0,.48.54v0h0l1.22,1.45c.31.4.64.84,1,1.21A14.16,14.16,0,0,1,103.14,205.43ZM83,181.81l.15-.09a.61.61,0,0,0-.15.17ZM72.9,171.72a.4.4,0,0,1,.19.07.67.67,0,0,1,.29.64c0,.51-.51.74-1.08.59a20.66,20.66,0,0,1-4.12-1.48h3.89A3,3,0,0,1,72.9,171.72ZM44,194.5h0c.47-.23,1-.3,1.32.23l.09.18a1.13,1.13,0,0,1,0,.32.85.85,0,0,1-1,.64.83.83,0,0,1-.6-.52h0a.33.33,0,0,1,0-.14,1.22,1.22,0,0,1,0-.27A.87.87,0,0,1,44,194.5ZM48.19,201a2.48,2.48,0,0,1,.54-.32.86.86,0,0,1,.27-.05l.54-.25h0l.25,0h.78v0h0v.08a12.64,12.64,0,0,1,1.68.45,1.31,1.31,0,0,0,1.62-.24v-.06h0v.06a3.73,3.73,0,0,1,3.42-.21c.36.12.71.27,1.05.42a6.13,6.13,0,0,1,.95.57c.08.11.25.2.33.32a.49.49,0,0,1-.73.06c-.49-.25-1-.54-1.48-.75a2.74,2.74,0,0,0-2.91.27,1.91,1.91,0,0,1-2.66.11c-1.08-.84-2.4-.63-3.68-.4Zm61.94,57.78a8.34,8.34,0,0,1-.26-.85h0a7.37,7.37,0,0,1-.17-2.25v-.16a.76.76,0,0,1,1-.38,1.26,1.26,0,0,1,.08.47,10.38,10.38,0,0,1-.64,3.12Zm.54-3.7a3.77,3.77,0,0,1-.39-.26h.07a2.11,2.11,0,0,0,.31.21Zm6.48-58.32c0-.19.18-.28.42-.28a1,1,0,0,0,.84-.2h.08a1.49,1.49,0,0,0,.74-.2,2.53,2.53,0,0,0,1.23-2.7,3.25,3.25,0,0,0-.73-1.76c-.15-.19-.36-.35-.54-.54l-.35-.29a.25.25,0,0,1,.06-.27c.15-.15.3-.07.46,0l.27.09h0a3.65,3.65,0,0,1,1.45,3.61c-.19,1.38-1,2.12-2.77,2.7a4.2,4.2,0,0,1,1.26,2.52c-.71-1-1.29-2.16-2.44-2.7Zm2.45,2.73a1,1,0,0,1,.09.95c-.34-.35-.16-.67-.1-1ZM129.37,221a9.73,9.73,0,0,1,0-1.08c.12-.46.3-.85.79-.85a.91.91,0,0,0,.78-.51c1-1.38,1.51-1.43,2.85-.32h0a.6.6,0,0,0,.41.42h0a1.79,1.79,0,0,1,1.65,1.91,4.32,4.32,0,0,1-.14.8,6.43,6.43,0,0,1-1.68,2.52,1.63,1.63,0,0,1,0-.54h.07c0-.46.47-.89.08-1.47a1.11,1.11,0,0,0-.31.65,1.58,1.58,0,0,1-.73,1.08,1.38,1.38,0,0,1-.28-.92v-.4a2.28,2.28,0,0,0-.19-1.34,2.3,2.3,0,0,0-.36,1.55v.71a3.26,3.26,0,0,1-.07.7c-.9-.68-.46-1.69-.84-2.53v-.11h0v-.06a1.6,1.6,0,0,0-.13,1.35,4.26,4.26,0,0,1,.26.76.73.73,0,0,1-.08.38,4,4,0,0,1-2.08-2.77Zm6.71,23.34a.57.57,0,0,1,.32.73h0a14.63,14.63,0,0,1-1.21,4.21,9.81,9.81,0,0,1-.21-1.08,7.45,7.45,0,0,1,.64-3.78.49.49,0,0,1,.48-.09ZM86.81,179.6l.07.05a9.52,9.52,0,0,0,1.77-1.17,4.64,4.64,0,0,1,1.77-.93h0a3.74,3.74,0,0,1,1.55.24,1.21,1.21,0,0,1,.24.35,1.32,1.32,0,0,1-.45,1.47,1.42,1.42,0,0,1-.3.25,14,14,0,0,1-8.26,2.31A1,1,0,0,1,83,182l0-.13a.55.55,0,0,0,.5-.24.3.3,0,0,0-.23,0h.17v0a3.19,3.19,0,0,0,1.31-.75l-.06,0h0l.06,0a.54.54,0,0,0,.5-.28,4.78,4.78,0,0,0,1.59-1h-.06ZM68,171.5l-.1,0h0Zm-5.81,4.32a.82.82,0,0,1-.67-.46,1,1,0,0,0-.08-.24.67.67,0,0,1,0-.2h0a.81.81,0,0,0,.2-.45h0a.28.28,0,0,0,.21-.18h.05a1.16,1.16,0,0,1,.78,0,.88.88,0,0,1,.48.67.94.94,0,0,1-1,.84Zm27.27,23.07a9.91,9.91,0,0,1-6.41-3.47c0-.13.25-.12.39-.15h0a.57.57,0,0,0,.49.25h0a6,6,0,0,0,2.29.71.16.16,0,0,0,.06.12h.26l0-.07h.17v.07a2.84,2.84,0,0,0,1.84.17,6,6,0,0,1,1.74.07l.28.21.23.2h0l0,.06.27.46a1,1,0,0,1-.16.84,1,1,0,0,1-.49.34v0a1.92,1.92,0,0,1-1,.22Zm11,40.33.06-.09c.24-.31.59-.57.6-1h0a2.32,2.32,0,0,0,.78-1v-.05a.87.87,0,0,1,.84-.12.47.47,0,0,1,0,.66h0a17,17,0,0,1-1.23,1.32c-.46.42-1,.84-1.44,1.22a8.89,8.89,0,0,1,.36-.93Zm8.64,1.44h0a10.76,10.76,0,0,1-1.87,3.44,4.19,4.19,0,0,1,.1-.71.65.65,0,0,0,.06-.34,2.9,2.9,0,0,1,.09-.59.62.62,0,0,0,.11-.44h0l.06-.28.15-.57.38-.93h0c.5-.05.77,0,.89.15a.5.5,0,0,1,0,.27Zm21.69-86c.6.41,1.08.19,1.48-.35l.61-.84a.73.73,0,0,1,.26.34,2.9,2.9,0,0,1-.33.89c-.13.33-.44.5-.31.75v.1l.71.5a1.28,1.28,0,0,0,.4.29l.07,0h0c.66.24,1.08-.39,1.62-.49a.22.22,0,0,1,.1.09.37.37,0,0,1-.12.47l-.92.76a1.15,1.15,0,0,0,.54,1.16v.06h0c.17.37.48.19.75.19a3.77,3.77,0,0,1,1-.15.34.34,0,0,1-.21.32,4.37,4.37,0,0,0-.88.59c-.2.11-.39.24-.27.5a.24.24,0,0,1,0,.12,2.89,2.89,0,0,0,.08.58,1.35,1.35,0,0,0,.07.36.43.43,0,0,1,0,.16l.11.06.07.09h.24c.26.12.62-.12.89.06-1,.45-2.07.8-1.74,2.22H135v.22a8.68,8.68,0,0,1,1.24-.21h0c.22.59-.58.57-.9.84a6,6,0,0,1-.89.51l-1.08.54a4.14,4.14,0,0,1,.49.19l.1.2.84.36a1.66,1.66,0,0,0,.39.26,1,1,0,0,0,1.12.16,3.76,3.76,0,0,0,.54-.25,4.43,4.43,0,0,0,.54-.26l.54-.32a4.16,4.16,0,0,1,.48-.22c-.21,1.08-1.08,1.43-1.68,2v.09c-.13.21,0,.42.29.92v.07a.84.84,0,0,0,1.08.44h0a5.67,5.67,0,0,1,1-.18h.16l-.07.08V169c-.08.29-.38.39-.59.58s-.79.13-.79.54a4.82,4.82,0,0,0,.32,1.36.38.38,0,0,0,.17.22c.15.15.38.09.94.05h.63c.33-.29.79-.23,1.16-.42h.21a2.69,2.69,0,0,1-1.69,1.29c-.83.12-1,.17-1.05.58a.43.43,0,0,0,0,.16,5.06,5.06,0,0,1-.1.68c-.06.28,0,.54.28.6a.79.79,0,0,0,.26.08h0v0c.43.3,1,.09,1.5.25a1.5,1.5,0,0,1-1.28.36,1.41,1.41,0,0,0-1.57,1.08,4.47,4.47,0,0,1-.46.93l.2.13h0a3.85,3.85,0,0,0,1.81.48h.08a1.46,1.46,0,0,1,.22.33.89.89,0,0,1-.91.32,3.88,3.88,0,0,1-1-.17c-1.28-.54-2,.25-2.7,1.08-.42.52-.27,1,.38,1.14l.13.08h0c.84.41,1.73.1,2.62.19.13.13.1.33-.08.57s-.8.5-1.17.75c0,.09-.08.18,0,.24v.08a.85.85,0,0,0,.12.54v.1a4.14,4.14,0,0,0,.15.41,1.94,1.94,0,0,1,.07.33c.09.54.37.6.84.54s.75-.25,1.09-.09c0,.46-.41.54-.74.7-1.21.54-1.21.54-1.43,1.87h.1v.05c.17.58.62.32,1.08.39s.84-.07,1.23.13c-.39.47-.94.3-1.41.31-1.42,0-1.42,0-2.06,1.4l.18.13a.38.38,0,0,0,0,.15,4.65,4.65,0,0,0,2.45.45h0a.47.47,0,0,1,.1.1c0,.45-.45.5-.77.54a2.73,2.73,0,0,1-1.39,0c-1.24-.57-1.92.1-2.58,1l.15.15c0,.42.54.44.84.65s.63.35,1,.5a.36.36,0,0,1,0,.25.5.5,0,0,1-.54.23,5,5,0,0,1-1.62-.39,2.26,2.26,0,0,0-2.4,0,4.23,4.23,0,0,1-.58.25.32.32,0,0,0,.06.23.28.28,0,0,0,0,.25c.11.4.27.84.84.78a4.86,4.86,0,0,0,.84-.19.4.4,0,0,1,.42.14c.07.26-.1.43-.3.58a8.53,8.53,0,0,1-.74.51c-.38.23-.31.58-.21.9v0a.39.39,0,0,0,.42.35l.15,0,.15-.16h0c-.05.05-.1.11-.16.16.54.08,1-.37,1.58-.27h0a.3.3,0,0,1-.12.3,2.59,2.59,0,0,1-1.08.67,1.35,1.35,0,0,0-1.08,1.48,3.09,3.09,0,0,1-.12.74l.11,0c.09.27.45.33,1.31.42a.67.67,0,0,1,.46.08,1.24,1.24,0,0,1-1.22.54c-1-.13-1.38.42-1.75,1.13a4.93,4.93,0,0,1-.34.54s0,0,0,.06,0,.28.31.45h0a2.09,2.09,0,0,0,.78.41c.26.11.54.22.48.54a.43.43,0,0,1-.41.17,5.65,5.65,0,0,1-1.36-.34,1.09,1.09,0,0,0-1.47.19q-.54.45-1.11.84l.18.14-.11.11,1.3,1.08.42.12.15.12a2.53,2.53,0,0,1-2-.6,1.39,1.39,0,0,0-1.8-.08,1.47,1.47,0,0,0,.1.22h0a1,1,0,0,1,.08.11v.05a2.43,2.43,0,0,0,.73.8.67.67,0,0,1,.25.25.42.42,0,0,1-.06.21.32.32,0,0,1-.43.09h0a9.78,9.78,0,0,1-1.15-.79,3.74,3.74,0,0,0-1.81-1.15,1,1,0,0,1-.71-.68.71.71,0,0,1,0-.57l.09-.15h0l.09-.08c.49-.21,1,.07,1.52-.44s.06-1.12,0-1.68c-.11-.76.07-1,.84-1.08,1.4-.14,1.53-.35.92-1.62l-.08-.13a1.79,1.79,0,0,1-.13-.32,7.71,7.71,0,0,0,.07-.84h0l.37-.06c1.17-.14,1.3-.33.84-1.37a3.44,3.44,0,0,1-.24-.77c0-.21.14-.35.42-.43,1.08,0,1.32-.38.85-1.34a.17.17,0,0,1,0-.1,3.75,3.75,0,0,1-.17-.47,1.21,1.21,0,0,1,0-.38,2.65,2.65,0,0,1,.54-.25c.67-.15.84-.2.76-.54a1.13,1.13,0,0,0-.12-.51,1.48,1.48,0,0,0-.13-.21l-.05-.08c-.12-.3-.31-.6,0-.92h.23c.35.06.71.32,1,0l-.25-.06h.33c.45-.54.54-.71.25-1a1.6,1.6,0,0,0-.42-.51l-.27-.26c-.32-.5-.15-.91.54-1.21.35-.15.75-.18.92-.6h0a.76.76,0,0,0,0-1.08h0a1.73,1.73,0,0,0-.6-.54,1.41,1.41,0,0,1-.43-.34l0-.28h0c.21-.13.44-.25.65-.4.95-.67,1-1,.6-2.13a4.54,4.54,0,0,0-.21-.45.92.92,0,0,0-.08-.27v-.54l0-.07a.67.67,0,0,0,.62-.23h0a.49.49,0,0,0,0-.17c.15-.16-.1-.42-.23-.6-.31-.41-.47-.62-.45-.77l.27-.24h0l.61-.28c.24-.09.46-.19.44-.54a.29.29,0,0,0-.14-.25c-.08-.19-.31-.23-.5-.3a1.57,1.57,0,0,1-.44-.28v0a1.1,1.1,0,0,1,0-.67h0c.35,0,.71,0,.77-.46a.55.55,0,0,0-.4-.6l-.33-.2c-.12-.08-.22-.11-.27-.26a.84.84,0,0,1,.65-.35.09.09,0,0,0,0-.07h.08v.08c.4.06.84.13.93-.38a.7.7,0,0,0-.26-.63.62.62,0,0,0-.43-.25c-.22-.07-.54.06-.67-.23l.26-.29a.27.27,0,0,1,.08-.07c.54-.41.54-.58.07-1a.51.51,0,0,0-.23-.12l-.3-.25c-.15-.13-.19-.23-.18-.34h0c.34-.36.84-.16,1.25-.49h0c.41-.27.47-.52.14-.73a.6.6,0,0,0-.5-.32,3.1,3.1,0,0,1-.84-.15.27.27,0,0,1-.1-.17c0-.24.23-.3.4-.42h.09c.51-.42.6-.54.29-.83-.13-.57-.73-.59-1.08-.84.06-.46.65-.66.76-1.08a.87.87,0,0,0-.23-.2l-.07-.09c-.28-.2-.73-.16-.9-.46.08-.66,1-.3,1.16-.84a.47.47,0,0,0-.37-.38l-.06-.06c-.25-.15-.42-.09-.61-.17a1.11,1.11,0,0,1-.29-.14c-.08-.17,0-.36.22-.58H130a.41.41,0,0,0,.18,0h0a.46.46,0,0,0,.47-.44v0a.25.25,0,0,0-.18-.26,2.71,2.71,0,0,0-.6-.22c-.14,0-.32,0-.38-.17a.71.71,0,0,1,0-.29.47.47,0,0,1,0-.1v.1l.49-.3h0c.23,0,.4-.12.38-.43a.33.33,0,0,0-.06-.19c0-.15-.19-.28-.47-.36a1.74,1.74,0,0,1-.62-.24,1.06,1.06,0,0,1,.24-.54l-.13.05v-.05h.07l.06-.07c.49-.54.32-.84-.38-1.08s-.76-.28-.61-.51a.21.21,0,0,1,.06-.1,4.38,4.38,0,0,1,.28-.34.57.57,0,0,0,.08-.13l.07-.08a.16.16,0,0,1,0-.09h0c.06-.22-.07-.38-.4-.48s-.44-.12-.49-.25c.07-.36.47-.71.17-1.08-.1-.13-.36-.13-.85,0-.12,0-.23.08-.33-.06a.38.38,0,0,1,0-.21l.41-.28v0h1.32a3.35,3.35,0,0,0,.77-1.26.65.65,0,0,1,.3-.44c.26.54-.11,1,0,1.57H130a.54.54,0,0,0,.18.11h.26Zm-27.44,6.1,2.53-1.34v0h0v.08l2-.77v-.17l.14-.06h.11a.55.55,0,0,1,.22.06c-.26.62-.84.94-1.25,1.39a52.44,52.44,0,0,1-4.28,4,4,4,0,0,1-.93.66.93.93,0,0,1-1.29-.27h0a.87.87,0,0,1-.15-.54h0l.21-.89h0a.74.74,0,0,0,.25-.52c.59-.45,1.4-.59,1.87-1.23l-.07,0h0l.07,0a.25.25,0,0,0,.17-.08h0a.31.31,0,0,0,.31-.19h0ZM46.86,182l.3.06h.05a2.2,2.2,0,0,0,1.08.48h0a1.82,1.82,0,0,0,1,.28h0a1,1,0,0,0,.77.25h0l.47.15.28.09a12.54,12.54,0,0,1,1.24.54,9.94,9.94,0,0,1,1,.54l.27.18.36.28.2.16A7.75,7.75,0,0,1,55,186.2a14.41,14.41,0,0,1,1,1.89,5.46,5.46,0,0,1,.34,1.13,6.53,6.53,0,0,1,0,1.25.46.46,0,0,1-.31.2.59.59,0,0,1-.37-.06l-.18-.48c-.06-.15,0-.1,0-.15a.08.08,0,0,0,0-.07v-.28a3.09,3.09,0,0,0-.06-.34,1.42,1.42,0,0,0-.12-.54,6,6,0,0,0-1.95-2.95,9.56,9.56,0,0,0-3.59-1.9,13.38,13.38,0,0,1-2.73-1.08,2.56,2.56,0,0,1-1.36-1.62.16.16,0,0,1,.09-.07,8.47,8.47,0,0,0,.84.64A1.1,1.1,0,0,1,46.86,182ZM110,218.43l.18-.08h0a2.53,2.53,0,0,0,1.62-1h0l.18-.17a3.19,3.19,0,0,0,1-2.11V214a1.32,1.32,0,0,0-.13-.38,3.71,3.71,0,0,0-.84-1.68c-.12-.14-.25-.25-.35-.38a.65.65,0,0,1-.11-.29l.19-.32h0l.12,0a5.4,5.4,0,0,0,3-1.08h0a.73.73,0,0,0,.51-.47h-.07v.05c1-1.16,1.32-2,1-2.84a2.21,2.21,0,0,0-.84-1.27l-.17-.11c-.35-.28-1-.4-.92-.92a.34.34,0,0,1,.19-.26H115v-.06h0V204h.46a1.24,1.24,0,0,0,1.12-.19l-.07-.06h.11l1-.27c.32-.3.67-.57,1-.89.1-.09.21-.16.31-.26a4.72,4.72,0,0,1-3.13,2.22,2.39,2.39,0,0,0,.13.21h0a7.62,7.62,0,0,1,.66.84,6,6,0,0,1,.36.6,3.48,3.48,0,0,1-.84,3.17,6.68,6.68,0,0,1-3.36,2.2c.84,1.74,1.22,3.45.1,5.15a3.65,3.65,0,0,1-2.88,1.76Zm40.09,44.48a7.78,7.78,0,0,1-3-3.3h0a.38.38,0,0,1-.08-.17.86.86,0,0,1,0-.32.52.52,0,0,1,.1-.23.69.69,0,0,1,.88.06,15.45,15.45,0,0,1,1.68,2.89h0C149.81,262.2,150,262.55,150.07,262.91ZM282.79,199.8a.29.29,0,0,1-.27.31h-.06a.29.29,0,0,1-.26-.3h0v-.06a25,25,0,0,0,.27-3.24c.07-.07.18-.09.36,0a.36.36,0,0,1,.09.23h0A9.53,9.53,0,0,1,282.79,199.8ZM243,161.57h0v0a.09.09,0,0,1,0,.08Zm39.29,42a.14.14,0,0,1,0,.09,19.64,19.64,0,0,1-.68,3.48.31.31,0,0,1-.35.28h0a.27.27,0,0,1-.14-.07c0-.09,0-.2,0-.3a6,6,0,0,0,.37-2l.05-.22h0a.32.32,0,0,1,.05-.19v.19a1.84,1.84,0,0,0,.21-1.28v-.14l.09-.08a.51.51,0,0,1,.24.1.42.42,0,0,1,.15.11Zm-7.37,49.18a3.17,3.17,0,0,1-.5,1.79c-.24.6-.6.09-.89.21h-.19c0-.36,0-.73-.07-1.13a1.14,1.14,0,0,0-.19.19l-.09-.08c-.19.23-.1.5-.12.74,0,.08-.12.18-.23.25a2.82,2.82,0,0,0-.24-1c-.28.38,0,.83-.16,1.13a.41.41,0,0,1-.22,0l-.12-.12-.49-.75a3,3,0,0,1-.17-.58c0-.59.06-1.14.83-1.37h0a.69.69,0,0,0,.28-.48l.49-.31c.58,0,.84.54,1.28.73h.15a1,1,0,0,1,.69.78Zm-52.59-31.86.09.06a.38.38,0,0,0,.18.15,1.85,1.85,0,0,1,.54.83,1.07,1.07,0,0,1-.89,1.22v-.05h-.19l-.12,0c-.06-.08,0-.24-.11-.32a1.8,1.8,0,0,0-.06.32v.08c-.67,0-1-.18-1.17-.54a3.7,3.7,0,0,1-.07-.66,1.3,1.3,0,0,1,.2-.49,2.22,2.22,0,0,0,.76-.7h.45l.21.07Zm7,27.82a.14.14,0,0,1,0-.09h0c-.07-.26-.15-.54-.21-.84a.54.54,0,0,1,.35-.67h0a.53.53,0,0,1,.58.24,2,2,0,0,0,.06.23,16.94,16.94,0,0,1,.39,1.88,12.45,12.45,0,0,1,.08,1.5,9.21,9.21,0,0,1-1.16-2,.22.22,0,0,0-.09-.2Zm-1.08,3.09a17.44,17.44,0,0,1-1.44-3.36,1.79,1.79,0,0,1,.09-.73h0a.46.46,0,0,0,.19-.08v0h0a.69.69,0,0,1,.57.25.67.67,0,0,1,.1.23,13,13,0,0,1,.34,1.62v.47h0a9.5,9.5,0,0,1,.12,1.68Zm31.89-87.14v.05c.26,0,.17.23.14.34s-.08.5-.39.54a.66.66,0,0,1,0-.48.54.54,0,0,0,.17-.3c.06,0,.08-.08.11-.12Zm1.27,1.9.27-.54.15-.15a.94.94,0,0,0,.28-.21c.08,0,.15-.1.24-.15h0a1.62,1.62,0,0,1-.93,1.08h.06Zm21.77,16.09a.91.91,0,0,1,.15.23l.05.3a1.39,1.39,0,0,0,.08.54l.43,2.7v.47a.3.3,0,0,1-.28.2h-.18a.43.43,0,0,1,0-.16,1.45,1.45,0,0,0-.17-.84c-.05-.33-.08-.67-.11-1v-.37c-.06-.51-.12-1-.17-1.55a1.11,1.11,0,0,1,.22-.45Zm-27,83.79a2.07,2.07,0,0,1,.12-.49v-.08a1.05,1.05,0,0,1,0,1.3v-.05a1.29,1.29,0,0,1-.12-.64Zm-25.38-76.5a.48.48,0,0,1,0-.29,2.31,2.31,0,0,1,.36-.25l.15-.05h.08c0,.37-.37.41-.62.61Zm-56.7,10.67.22-.26c.3-.34.54-.93,1.08-.24h0a16.37,16.37,0,0,0,1.35,2l.22.4a.29.29,0,0,0,.07.12c.14.25.28.51.4.77a2.62,2.62,0,0,1,.15.39l.09.26a4.09,4.09,0,0,1,.11,1.67h0a2,2,0,0,1-2.09,1.82c-.42,0-.84.06-1.28.08a2.33,2.33,0,0,1-2.31-1.39,1.76,1.76,0,0,0-.1-.3c0-.11,0-.21-.07-.32a1.6,1.6,0,0,1,0-.31V205a11.09,11.09,0,0,1,1.23-3h0l.07-.11.39-.48.16-.25a1.28,1.28,0,0,0,.11-.2v0l.05-.08a.5.5,0,0,0,0,.13.32.32,0,0,0,.21-.29.1.1,0,0,0-.09.07v-.06Zm64.55-25.84h0l.25.31q.31.39.66.75c.15.15.29.3.45.44h0a1.62,1.62,0,0,0,.7.54h0a.3.3,0,0,0,.27.23h0a1,1,0,0,0,.79.48v-.06h0v.06h0a1.62,1.62,0,0,0,.92.46.68.68,0,0,1,.13.27c-2.39-.29-4.83-1.53-7,.42.14-.06.29-.09.43-.14a4.11,4.11,0,0,0-.45.38,7.85,7.85,0,0,1,3.91-.63h0c.61.33,1.4.25,2,.66-.17.28-.49.35-.77.48a27.42,27.42,0,0,0-5.57,3.86,5,5,0,0,1-4.52,1.15,4.6,4.6,0,0,1-3.19-2.66.57.57,0,0,0-.14-.39.84.84,0,0,0-.05-.17v-.1h0V179h0v0a.37.37,0,0,0,.05-.23h0a6.9,6.9,0,0,1,1.76-2.6s0,0-.06-.06h0l.06.06.49-.3,1.5-.51v-.16h.05v.19c.54.12.89-.07.78-.72h0a3.57,3.57,0,0,1,2.07-2.35v-.12h0v.15a3,3,0,0,1,2.29.13,8.24,8.24,0,0,1,1.19.84l.26.33Zm32.11,54.76c-.34-.11-.3-.4-.32-.63q-.3-2.81-.45-5.6h0v-.54a6,6,0,0,0-.07-2v-.64a.25.25,0,0,0,0-.36v-.36a.12.12,0,0,0,0-.19v-.54a1.39,1.39,0,0,0,0-.9V217a27.93,27.93,0,0,0,.14-4.57h0V212a13.57,13.57,0,0,0,.11-1.69c.15-1.08.25-2.19.3-3.29.07-.65.14-1.3.23-2a1.5,1.5,0,0,0,.13-1c.08-.58.16-1.16.25-1.74.05-.3.11-.6.15-.92.11-.69.23-1.4.37-2.1.08-.34.15-.68.2-1s.19-1,.29-1.46a.94.94,0,0,0,.08-.33c.06-.35.14-.7.23-1s.1-.47.16-.7c.12-.57.26-1.12.4-1.69.43-1.37.84-2.74,1.28-4.12a21.56,21.56,0,0,0,1-4.2c.35-.39.2-.84.21-1.3h0a8.42,8.42,0,0,1,.14-1h.08a9.19,9.19,0,0,1,.83,1.66h0c.11.27.19.54.28.84s.14.78.24,1.15a3.81,3.81,0,0,0,.07.47c.06,1.13.09,2.27.14,3.36a25.55,25.55,0,0,0,.1,2.77q.1,4.37,0,8.73a1.4,1.4,0,0,0-.11.7v3.45c-.06,1.43-.11,2.86-.19,4.28,0,1-.12,1.93-.23,2.9a4.42,4.42,0,0,0-.11,1,43.84,43.84,0,0,1-2.7,10.38,23,23,0,0,1-2.4,4.38,2.44,2.44,0,0,1-.85,1Zm-2.91,14.43h0a22,22,0,0,1-4.08,3.68h-.05a3.69,3.69,0,0,1,.63-.84,11.21,11.21,0,0,0,1.58-1.42c.51-.38,1-.79,1.51-1.16.13-.09.26-.18.4-.26Zm-9.12,13.54a25.58,25.58,0,0,0-1.68,3.78h-.27v-.05a8.43,8.43,0,0,1,.17-.9,4.81,4.81,0,0,0,.16-.54,2.86,2.86,0,0,1,.15-.41,1.9,1.9,0,0,0,.43-.89s0-.08.06-.11l.44-.51.24-.45.06-.06a.06.06,0,0,1,0,.06l.21-.12c0,.08,0,.14,0,.16Zm-29-70.63a.7.7,0,0,1,.94,0A.73.73,0,0,1,229.73,186.84Zm-7.67,37.35a.39.39,0,0,1,.33.15s0,.07,0,.11a.21.21,0,0,1,0,.11v-.05a.43.43,0,0,1-.37.47H222c-.23,0-.44,0-.48-.3h0a.55.55,0,0,1,.57-.47Zm.78,1.68.06.08a.66.66,0,0,0-.23-.17h0a.7.7,0,0,1,.16.13Zm-39.42-29.16h0v0h0a.18.18,0,0,0-.09.06c-.05.06,0-.11,0-.1Zm46.44-8.94.21-.1.06.06.54-.13a0,0,0,0,1,0,.05.49.49,0,0,1-.23.22.3.3,0,0,1-.39.18.34.34,0,0,1-.17-.28Zm-9.49,35.82a.76.76,0,0,1,.21.52.43.43,0,0,1,0,.16.67.67,0,0,0-.3.25.59.59,0,0,0-.46.16,1.61,1.61,0,0,0,.58.1l.18.12c.2.11,0,.38-.11.54a1.69,1.69,0,0,1-1.08.45v-.06a2.24,2.24,0,0,1-1.37-1.11,1.74,1.74,0,0,1,.11-.39c.57-1,.84-1.14,2.06-.72Zm-56.79-11.21a1.91,1.91,0,0,1,.67-.1.79.79,0,0,1,.45.35,1.74,1.74,0,0,1,.13.59.86.86,0,0,1-.84.71.91.91,0,0,1-.85-.85A.86.86,0,0,1,163.58,212.38Zm6.81-8.26.79-.86.18-.06.2-.36.33-.36.21.16c-.47.66-.93,1.32-1.41,2a.35.35,0,0,1-.34.08.28.28,0,0,1-.14-.29l.21-.31Zm8.1-1.54,1.62,1.34a.29.29,0,0,1,.15.39.36.36,0,0,1-.07.1h0a.38.38,0,0,1-.53,0h-.06q-.4-.41-.78-.84l-.18-.21c-.28-.3-.54-.64-.84-1l.18-.2Zm54.29-35.72.2.08.09.05a.84.84,0,0,1,.23.18l.08.08h0a.85.85,0,0,1,.09.22,1.16,1.16,0,0,1-1.08-.67,1,1,0,0,1,.34,0Zm-.84,1a.67.67,0,0,1,.34-.09c.22.23.67.1.91.34a1.2,1.2,0,0,1-1.24-.25Zm3.36-2.47a.6.6,0,0,1-.4-.73h0c.22-.16.28.06.36.16a.4.4,0,0,1,.09.54Zm.77-.29a1.14,1.14,0,0,1-.26-.32v-.12l-.09-.19a1.21,1.21,0,0,1,0-.38c.25,0,.28.25.37.39a.53.53,0,0,1,0,.6Zm-1.49,1a2.1,2.1,0,0,1-.93-1.29,1.68,1.68,0,0,1,1,1.26v0Zm-.54.49h0a1.08,1.08,0,0,1-.85-.68,1.45,1.45,0,0,1,.57.24.89.89,0,0,1,.32.44Zm-44.17,3.44a11.83,11.83,0,0,1,1.68-.09h.27a3,3,0,0,1-1.31.5v-.09a13.55,13.55,0,0,0-2.53.45.48.48,0,0,1-.6-.23h0a.38.38,0,0,1,0-.15h0a.54.54,0,0,1,0-.18C188.16,169.89,189.05,170.29,189.87,170.1Zm-4,38.88h0a1.77,1.77,0,0,1-1-.58l-.05-.08a3.63,3.63,0,0,1-.16-1c.33-.59.85-.54,1.4-.51l.38.14a1.06,1.06,0,0,0,.34.12l.28.1a2.36,2.36,0,0,0,1,.41l.31.14h.09l.12.09a.33.33,0,0,0,.21.07h0a19.75,19.75,0,0,1,3.16,2A27.73,27.73,0,0,1,185.83,209Zm-1.15-34h0l-.06-.09h0Zm16-4.57a6.86,6.86,0,0,1,2.8.48c-.84.06-1.68.09-2.53.17a6.85,6.85,0,0,0-2.16.26.47.47,0,0,1-.61-.22.74.74,0,0,1,0-.21h0a.38.38,0,0,1,0-.15.7.7,0,0,1,.58-.4H199a2.51,2.51,0,0,0,1.71,0Zm19.48,1v-.07h0v.14a1.21,1.21,0,0,1,.92-.24.58.58,0,0,1,.19.34h0a.54.54,0,0,1-.43.63h-.11a.59.59,0,0,1-.6-.38.94.94,0,0,1,.05-.44ZM201.3,190.23a1.7,1.7,0,0,1-.14-.58v-.12a1.45,1.45,0,0,1,.07-.35.66.66,0,0,1,.19-.18h.05v-.22h.25c.07-.26.32-.26.51-.32a.54.54,0,0,1,.15.15h0v.24c.1.24,0,.54.28.74v-.72l.13-.14a.67.67,0,0,1,.27-.23l.14.08a1.12,1.12,0,0,1,.42.25h0a3.49,3.49,0,0,1,.2.72,1.3,1.3,0,0,1-1.16,1.42,1.28,1.28,0,0,1-1.32-.77Zm1.26-2.57h0a.43.43,0,0,1-.48-.34v-.1a.58.58,0,0,1,.57-.36.47.47,0,0,1,.34.13.49.49,0,0,1,0,.17.45.45,0,0,1-.39.5Zm-3.83-.1a.67.67,0,0,1-.1-.32l.17-.43h-.08v-.06h.1a.48.48,0,0,1,.27-.54l.22-.23a2.28,2.28,0,0,1,1.69.29.92.92,0,0,1,.07.54c0,.32-.45.06-.63.27a1.13,1.13,0,0,1,.48.41c0,.71-.08.75-.49.85-.72.22-1.08,0-1.66-.79Zm4.08-1.85v-.05c-.59.08-.17-.66-.5-.58s0,.62-.35.72a.54.54,0,0,1-.54-.22,1.39,1.39,0,0,1-.27-.41l-.08-.94h0c.29-.27.73-.34.85-.76a2.11,2.11,0,0,1,1,0,.3.3,0,0,0,.28.25.28.28,0,0,0,0-.13.09.09,0,0,1,0,0h0a2,2,0,0,1,.48.63,1.83,1.83,0,0,1,0,.7,1.08,1.08,0,0,1-.84.72Zm1.62,2.7a.64.64,0,0,1-.41-.81.59.59,0,0,1,.25-.33c.29-.28,0-.17-.07-.24a1.48,1.48,0,0,1-.32-.34c.77-.91,1.35-.91,2.16,0a2.83,2.83,0,0,1,.25.24,1.09,1.09,0,0,0,.07.24,3.32,3.32,0,0,1-.84,1.27,1.09,1.09,0,0,1-1.09-.07Zm-17.91,2.52h0l.5-.46h0l.06.05a.36.36,0,0,0,.2-.06.08.08,0,0,1,.06-.1h0a.17.17,0,0,1-.06.11c1.21-.08,2.38.29,3.6.29,0,0,0,0-.06-.07h0s0,0,.05.06l2,.54.07,0h0l-.08,0c.28.23.72.18,1,.38-.62.49-1.28.35-1.87.52v-.08a24.63,24.63,0,0,1-4.2.54,1.21,1.21,0,0,1-1.22-.54,4.12,4.12,0,0,1-.09-1.21Zm-.09,5.15a2,2,0,0,1,.59-.8.14.14,0,0,1,0-.09h0v.09h2.23a5.16,5.16,0,0,0,1.83.25v-.06h0c.84.44,1.76.39,2.7.84v.09c-1.38.22-2.75.46-4.13.67a19.62,19.62,0,0,1-2,.18,1.17,1.17,0,0,1-1.22-1.11.33.33,0,0,1,0-.13Zm33.91-20.52a9.88,9.88,0,0,0,.46,1.52,1.85,1.85,0,0,0,.18.44c.08.18.16.36.26.54a4.09,4.09,0,0,1,.18.49.31.31,0,0,1-.06.13.38.38,0,0,1-.24.15v-.09a.44.44,0,0,1-.54-.25.08.08,0,0,1,0-.07c-.05-.13-.09-.25-.13-.38a.81.81,0,0,0-.11-.41,4.39,4.39,0,0,1,0-2.16Zm-31.78,10.09h1.8v-.14h0v.14a18.64,18.64,0,0,0,2.59.06c-1.69.94-3.28,2.1-5.28,2.37-.79.13-1.15,0-1.33-.46a6,6,0,0,1-.11-.84h0c.49-1,1.51-.85,2.33-1.08v-.16h0ZM186.25,201h1.31a8.51,8.51,0,0,0,2,.71l.44.18,4.32,2.1a.49.49,0,0,1,0,.24,12.81,12.81,0,0,1-4.78,0h0a13.41,13.41,0,0,1-2.66-.89,1.74,1.74,0,0,1-1-.84,1.08,1.08,0,0,1-.08-.19,2.53,2.53,0,0,1,.34-1.26h0Zm28.67-9a2.55,2.55,0,0,1-.25-1.08v-.18a1.34,1.34,0,0,1,.3.33c.05.18.05.37.2.47v-.06l.05.09a.27.27,0,0,0,.06.12h0a1.45,1.45,0,0,0,1.69.79c.34-.06.73-.12.57-.54a.52.52,0,0,0-.14-.43.61.61,0,0,1-.07-.14,1.52,1.52,0,0,1,.47-.89h.11l.71.4h0a1.35,1.35,0,0,1,.24.46c0,.21,0,.43,0,.64a1.41,1.41,0,0,1-.54.9l-.26.16A2.39,2.39,0,0,1,214.92,192Zm-25-12.42h0a22,22,0,0,0,3.24.5h0l.68.15a13.45,13.45,0,0,1-7.87,1.51,1,1,0,0,1-1-.84,1.11,1.11,0,0,1,.69-1,2.21,2.21,0,0,1,1.23-.25h2.95Zm20.07,1.08a.91.91,0,0,1-.85-.64,1,1,0,0,1,0-.24.92.92,0,0,0,.06-.33,1,1,0,0,1,.63-.44h.38a.91.91,0,0,1,.59.85h0a.84.84,0,0,1-.82.8Zm2.87,23.8a.91.91,0,0,1-.75-.92.94.94,0,0,1,.2-.54h0a.8.8,0,0,0,.51-.29h0l.7.19a.9.9,0,0,1,.33.64,1,1,0,0,1-.93.91h-.06ZM186.3,174.68l.48.06h0a1.43,1.43,0,0,0,1,.17v-.17h0a.49.49,0,0,0,0,.17L192.1,176l.09.14a.39.39,0,0,1-.4.22c-2,.11-4.09.29-6.14.28h-.26c-.45-.08-.92-.14-1.08-.61a1.27,1.27,0,0,1,.16-.76h0l.25-.25h0a.78.78,0,0,0,.54-.23l-.14-.14h0s.07.08.12.11a.46.46,0,0,0,.2-.05h.78a.18.18,0,0,0,0-.14h0l.06.14Zm13.39,28.58a2.19,2.19,0,0,1-.85-.72c-.08-.21-.21-.41-.28-.62h0a.69.69,0,0,1,.13-.68c.35.32.38.69.61.94a1.88,1.88,0,0,0,.32.31,1.37,1.37,0,0,0,1.54.27c.34-.17.47-.32.26-.77-.3-.72-.18-.85.77-1h.05l.36.35h0a1.41,1.41,0,0,1-.42,2h-.06a2.39,2.39,0,0,1-2.46-.08ZM223,233.76h0c.37-.32.73-.13,1.08.11h.08c.08.2.14.39.2.59a4.26,4.26,0,0,0,.15.47,4.72,4.72,0,0,1,.15.65v.06h0a9.63,9.63,0,0,1,.17,2,11.92,11.92,0,0,1-1.78-3.36.35.35,0,0,1-.06-.14v-.39Zm2.7-1a.78.78,0,0,1,.7,0h0a9,9,0,0,1,.59,1.57,13.09,13.09,0,0,1,.35,2.23v.49a14.16,14.16,0,0,1-1.68-3.17c-.07-.24-.15-.49-.21-.74a.54.54,0,0,1,.2-.46v.08Zm37.16-45.15a1,1,0,0,1,.63-.12,2,2,0,0,0,.36.17,1.16,1.16,0,0,1-1,0Zm17.38,12.47a1.88,1.88,0,0,1-.24-.44,4.21,4.21,0,0,0,0-.71,3.62,3.62,0,0,1,0-.93l.08-.23a.13.13,0,0,1,.18,0,6.9,6.9,0,0,1-.06,2.31ZM262.87,189.5h0a.82.82,0,0,1,.2.25H263a1.1,1.1,0,0,1-.94-.5h.51a1.21,1.21,0,0,1,.3.25Zm14.66-7.56h.09a3.49,3.49,0,0,1,.76,2.78h0a5.06,5.06,0,0,1-.84-2.82Zm2.52,4.21c0,.54.24,1.15-.18,1.68,0,0-.2,0-.21-.05a3,3,0,0,1,.11-1.91h.05l.12.06a.54.54,0,0,1,.11.18Zm-.9,19a3.44,3.44,0,0,1-.28,2.63h0a6.19,6.19,0,0,1,.28-2.7Zm-.14-4.35a2.79,2.79,0,0,1-.3,1.13,2.74,2.74,0,0,1-.11-1.81,3.33,3.33,0,0,1,.21-.48h0a3.19,3.19,0,0,1,.18,1.06.08.08,0,0,0,0,.05Zm.2-17.65a5.11,5.11,0,0,1-.45-1,1.35,1.35,0,0,0-.11-.34,4.45,4.45,0,0,1-.11-1.58h0a4.8,4.8,0,0,1,.67,2.87Zm-18,7.56a1,1,0,0,1,.6.69l-.06.06a.84.84,0,0,1-.66-.49.36.36,0,0,1,.16-.29Zm-1.89,42.52V233h0v-2.32a2.49,2.49,0,0,1,0-.77,9.1,9.1,0,0,1,1.38,4.51,1.94,1.94,0,0,1-.05.59h0a.48.48,0,0,1-.47.36.5.5,0,0,1-.54-.3,1.36,1.36,0,0,1-.15-.47,4.62,4.62,0,0,0-.16-1.33Zm1.2-27.95a4.21,4.21,0,0,1,.42-.78c1-1.29,2.3-1.38,3.24-.34a2,2,0,0,1,.17.23,4,4,0,0,1,.47,3.44c-.31,1.08-.67,2.12-1.08,3.15a105,105,0,0,0-3,10.56c-.15-.28-.29-.56-.41-.84a.91.91,0,0,0-.18-.47l-.16-.4-.61-2.74c0-.3-.09-.6-.12-.9a8.72,8.72,0,0,0-.16-2.6v-.08h0c.24-1.75.18-3.51.49-5.24,0-.25.08-.49.14-.73a19.94,19.94,0,0,1,.82-2.28Zm3,29.25c0,.31-.2.57-.58.54a.59.59,0,0,1-.54-.51h0v-.34a2.06,2.06,0,0,0,0-.7,4,4,0,0,1,.07-.92c.11-.64.24-1.28.36-1.91.06-.21.11-.41.17-.61a23.29,23.29,0,0,1,.54,3.91,1.1,1.1,0,0,1,0,.51ZM240,214.06a14.92,14.92,0,0,1-.6-2c-.08-.38-.17-.77-.25-1.14a4.09,4.09,0,0,0-.1-.61,4.07,4.07,0,0,1,.14-2l0-.13a2.87,2.87,0,0,1,1.69-1.48h0l.06,0h.46l.29.19a.23.23,0,0,0,.21.07h-.07a1.74,1.74,0,0,0,.72.54h0l.66.95a4,4,0,0,0,.29.75,3.51,3.51,0,0,1,0,1.37,13.67,13.67,0,0,0-.13,1.56,6.22,6.22,0,0,0,0,1.22,15,15,0,0,0,.47,3,7.64,7.64,0,0,0,.47,1.68c.18.59.38,1.17.61,1.75a.76.76,0,0,0,.11.32v.14c.06.15.13.3.2.45a1.06,1.06,0,0,1,0,.5,1.63,1.63,0,0,1-1.08-.64,17.52,17.52,0,0,1-4.08-5.88.83.83,0,0,0,0-.78Zm17.74,19.76.06.13c.16.32.31.64.46,1a2.81,2.81,0,0,1,.16.49.58.58,0,0,1-.32.64.53.53,0,0,1-.68-.18,3.12,3.12,0,0,1-.46-1.08h0a.9.9,0,0,0-.09-.32c-.06-.22-.13-.45-.19-.68a11.29,11.29,0,0,1-.37-2.23,14.62,14.62,0,0,1,1.44,2.23Zm1.14,10.09c.23-.22.54-.34.67-.62h0a.81.81,0,0,0,.22,0,1.58,1.58,0,0,1,.28-.3c.17-.09.37-.18.61-.28h0a10.93,10.93,0,0,1-2,1.74h0a2.69,2.69,0,0,1,.26-.54Zm4-53.06h-.07c-.57-.12-.65-.13-1.08-.72a.22.22,0,0,1,.12-.15,2.55,2.55,0,0,1,1,.87ZM260.82,192a1.06,1.06,0,0,1-.39-.47.17.17,0,0,0-.05-.13,1.29,1.29,0,0,1-.05-.21c.46,0,.54.32.69.67a.15.15,0,0,1-.14.15h-.06Zm-9,8.9h.48c.5-.35,1.21-.37,1.59-.94h0l.71-.3a1.07,1.07,0,0,1,.26.45c0,.18-.19.29-.35.38h0a4.63,4.63,0,0,1-2.86.65.32.32,0,0,0,.14-.24Zm7.67,43.89c.3-.41.84-.61,1.16-1l-.05,0h0a4.93,4.93,0,0,0,1.32-.84l.34-.17h.11a6.46,6.46,0,0,1-2.91,2Zm19.22-56.44a.32.32,0,0,1-.22.2h0a.38.38,0,0,1-.21-.14v-1.49a.28.28,0,0,1,.26-.29A3.47,3.47,0,0,1,278.7,188.37Zm1.56-8.16a3.32,3.32,0,0,1,.46,2.44,3,3,0,0,1-.47-1,2.36,2.36,0,0,0,0-1.12A1.35,1.35,0,0,1,280.26,180.21Zm-29.74,24.62A3.72,3.72,0,0,1,251.6,206l.09.27a3.56,3.56,0,0,1,.25,1.62c-.08,1.52-.13,3-.15,4.57V213c0,1.55,0,3.09,0,4.64V218a1.14,1.14,0,0,0,0,.45c0,.64,0,1.26.08,1.89a2.91,2.91,0,0,1-.1.59,10.74,10.74,0,0,1-2-2.52l-.28-.51c-.15-.27-.28-.55-.41-.84-.18-.44-.34-.84-.5-1.32v-.08c-.08-.21-.15-.42-.22-.64a.17.17,0,0,0,0-.1.74.74,0,0,0,0-.14h.12c-.5-1.13-.41-2.46-.84-3.65a.35.35,0,0,0-.05.08c0-.35-.1-.69-.12-1h.07a14.11,14.11,0,0,1,.25-3.61h-.14l.08-.22h.12a2.62,2.62,0,0,1,2.64-1.56ZM243,201.31c.32.15.66.29,1,.41a5.82,5.82,0,0,1-3.61-.91h0c-.27-.31-.13-.44.43-.73h0c.27.19.54.37.84.54l.41.27h0A2.7,2.7,0,0,0,243,201.31Zm12.65,33.95c.11.24.22.49.32.74a.6.6,0,0,1-.22.81l-.07,0a.62.62,0,0,1-.83-.3v-.14a12.48,12.48,0,0,1-.9-4.13h0l.35.51h0Zm5.47,10.53h0a3,3,0,0,1,.4-.47l1.47-1,.29-.13a3.62,3.62,0,0,1-2.18,1.65Zm1.47,1.16h0a2.55,2.55,0,0,1,.58-.94l1.24-.95a1,1,0,0,0,.49-.41c.34-.21.7-.43,1.13-.67h0a21.35,21.35,0,0,1-3.39,3Zm.6-58.62a1.06,1.06,0,0,0,.34.16c.18.11.35.25.54.35h0a1.86,1.86,0,0,1-1.35-.37.46.46,0,0,1,.09-.2,1.1,1.1,0,0,1,.44.07Zm-14.84,12.9a.59.59,0,0,1-.54.64h0a.55.55,0,0,1-.58-.43.56.56,0,0,1,.64-.6.73.73,0,0,1,.47.17.82.82,0,0,1,0,.22ZM280,207.52a14.54,14.54,0,0,1,0-1.48c.11-.66.21-1.32.32-2h0a4,4,0,0,1-.37,3.4Zm1.48-7.56a3,3,0,0,1,.06-1.84,3.1,3.1,0,0,1-.06,1.81ZM199,161.71c1.08,0,2.21,0,3.36,0a5.29,5.29,0,0,1,1,.28l-2.7.17a5.57,5.57,0,0,0-1.77.25.46.46,0,0,1-.61-.21.41.41,0,0,1,0-.19V162A1.21,1.21,0,0,1,199,161.71Zm-16.6,50.81a2.24,2.24,0,0,1,.43-.84h0a.81.81,0,0,1,.22,0l1,.23.13.06a6.86,6.86,0,0,0,1.72.84c.54.28,1.08.58,1.58.85h0l2.43,1.48,1.08.7a.52.52,0,0,0,.11.1.35.35,0,0,0,.06.19h0a1.41,1.41,0,0,1-.95,0h0a16.53,16.53,0,0,1-6.87-2.34A1.75,1.75,0,0,1,182.4,212.52Zm38.23,22.09a.34.34,0,0,1,.21-.42h.07c.45-.14.59.28.85.48h.06c0,.32.09.62.11.94.06,1.39.08,2.78,0,4.2a7.44,7.44,0,0,1-1.16-3.11A11.24,11.24,0,0,1,220.63,234.61Zm1.52-6.19v-.06a2.45,2.45,0,0,1-1.44-.84,2.84,2.84,0,0,1-.07-.66,1.57,1.57,0,0,1,.11-.35.58.58,0,0,0,.16-.31,1.63,1.63,0,0,1,.17-.2c.09.16.22.06.36,0,.09.13.26.18.39.3v.14h.11a.54.54,0,0,1,.05.21c0,.48.18.19.24,0l.12-.32c.47.84.33-.32.58-.22a.86.86,0,0,0,.1.16,1.27,1.27,0,0,1,.25.84A2,2,0,0,1,222.15,228.42Zm37,23.8.12-.09h.06a10.86,10.86,0,0,1-2.11,2.79,5.4,5.4,0,0,1,.36-.77A14.54,14.54,0,0,1,259.2,252.22Zm.15,2.7c0,.06-.15.07-.23.1a4,4,0,0,1,.26-1,1.74,1.74,0,0,0,.34-.68h0l.74-1a3,3,0,0,1,1.05-.75.2.2,0,0,1,0,.11,28.3,28.3,0,0,0-2.15,3.23ZM274,256.74v.06h0c0,.48-.3.68-.74.66a1,1,0,0,1-.44-.13,2.87,2.87,0,0,1-.14-.66h0l.72-.51h0a1,1,0,0,1,.45.17.64.64,0,0,1,.16.39Zm-6.25-20.52h0a.84.84,0,0,1-.77.64,1,1,0,0,1,.78-.66Zm14.14-52.83c.06,1.54.12,3.06.17,4.59,0,.25-.07.54-.41.5a.31.31,0,0,1-.13-.06,4.91,4.91,0,0,0-.08-1.08v-2a5.86,5.86,0,0,0,.06-2h0a.45.45,0,0,1,.17-.13c.16,0,.21,0,.22.1Zm-30.72-2.77h-.23a21.29,21.29,0,0,1,3.64,2.11v0h0a17.1,17.1,0,0,1,3,3.61l.1.18h0a.52.52,0,0,0,.2.42V187a3.13,3.13,0,0,0,.32,1,6.1,6.1,0,0,1,.17.95v.92a3.84,3.84,0,0,1-3.36,3.51,4.41,4.41,0,0,1-.89,0,1.32,1.32,0,0,0-.76.08h-.13a1.46,1.46,0,0,0-.73.72,6.31,6.31,0,0,1-4.58,3,6.11,6.11,0,0,1-6.12-2.63,2.07,2.07,0,0,0-.44-.58l-.17-.23c-.15-.2-.35-.34-.58-.19a1.72,1.72,0,0,0-.84-.09,3.77,3.77,0,0,1-3.72-2.52,4.65,4.65,0,0,1-.19-1.62,4.29,4.29,0,0,1,.08-.71,5.88,5.88,0,0,0,.45-1.3h0l1.08-2h0v0a1,1,0,0,0,.44-.59h0l.83-1h0a2,2,0,0,0,.78-.75h0a.47.47,0,0,0,.42-.29h0l0-.09h0a.09.09,0,0,0,0,.07l2.78-1.68h.08v-.07c.36-.21.84-.15,1.18-.43h.1v0h0c.39-.08.83.06,1.16-.26a1.92,1.92,0,0,1,.54.11,8.09,8.09,0,0,0-3.61,5.58,4.37,4.37,0,0,0-.13,1.08,3.24,3.24,0,0,0,.23,1.92h0c.06.09.09.13.14.12s0,0,0,.06v-.07l.07-.11h0a.8.8,0,0,0,.25-.77h0a25.61,25.61,0,0,1,1.08-3.2v-.07h0c.33-.32.49-.84,1-1.11-.13.77-.23,1.53-.28,2.26a6.7,6.7,0,0,0,.44,3.57,7.35,7.35,0,0,0,.54-2.7h0c.43-1,.41-2.24,1.19-3.24h0a14.56,14.56,0,0,1,.24,1.86,30.89,30.89,0,0,0,.34,4.9,4,4,0,0,0,.49-2c.08-1.23.17-2.45.25-3.68v-.35c0-.12.07-.46.11-.7h.05a7.86,7.86,0,0,1,.49,1.21,5.45,5.45,0,0,0,.18.8,2.56,2.56,0,0,1,.07.62c.05.39.1.79.14,1.19v.32h0c.06.5-.21,1.05.36,1.55a3.47,3.47,0,0,0,.37-1.55h0v-.23h0a1.23,1.23,0,0,0,0-.76h0v-1.08h0v-.26l.23-1h0a1.42,1.42,0,0,0-.05-.54v-.63l.1-.09.09.08a6,6,0,0,1,1.19,1.75h0a10.7,10.7,0,0,1,.44,1.43,6.32,6.32,0,0,0,.47,1.59.79.79,0,0,0,.08.26c0,.1,0-.05,0-.07l.07.13a5.18,5.18,0,0,0,.17-2.11,7.1,7.1,0,0,0-.92-3,5.17,5.17,0,0,0-.78-1.13,7.89,7.89,0,0,0-2.36-1.94,4.63,4.63,0,0,1,1.86.45h.75ZM242.77,188a.22.22,0,0,0-.09.1h0A.22.22,0,0,1,242.77,188Zm-46.51-23.62h.21l.47,0a2.52,2.52,0,0,0,1.15.16h.21l.17,0c.15,0,.34,0,.39.3a3.31,3.31,0,0,1-1.33,0,4.93,4.93,0,0,0-2.16.15h0a.53.53,0,0,1-.69-.16.52.52,0,0,1-.09-.38c.2-.42.51-.62,1.08-.32a2.12,2.12,0,0,0,.44.05h.11Zm-17.44,30c.13-.21.23-.42.37-.62a.51.51,0,0,1,.19-.22.59.59,0,0,1,.52,0,.33.33,0,0,1,0,.24l-.08.06a3,3,0,0,1-1.24.84v0Zm-2.33,4.39c.91-1.24,2.25-1.68,3.42-2.52h0a.36.36,0,0,0,.2-.06,1.85,1.85,0,0,0,1-.17V196a.25.25,0,0,0,.17,0,.25.25,0,0,0,.17,0h.08a.36.36,0,0,1-.25,0,1.31,1.31,0,0,0,.84.19v-.1h0v.06a1.29,1.29,0,0,0,.72.28v.09a.6.6,0,0,0,.49.25h0l.49.59h0a10.61,10.61,0,0,1,0,1.26.11.11,0,0,1,0,.08v1.08a2.11,2.11,0,0,1-1.9,2.31h-.08a1.63,1.63,0,0,1-.54,0,8,8,0,0,1-4.36-1.73c-.5-.4-.76-.76-.76-1.13a.58.58,0,0,1,.2-.41Zm-5-3.08-.17.19c-.54-.46-1.13-.93-1.68-1.4l-.06-.06a.82.82,0,0,1,0-.44.12.12,0,0,1,.07-.05H170l.06.06c.12.1.21.22.32.33l.8,1c.1.14.22.27.31.4ZM166.81,197a.27.27,0,0,0,.16-.11l.13-.09a.59.59,0,0,0,.41-.21l.22,0,.08-.1h.05l-.07.11a5.57,5.57,0,0,1,2.3,0l.11.06.84.42.11.07a.63.63,0,0,0,.33.22.91.91,0,0,1,.16.11,7.53,7.53,0,0,0,1,1,4.38,4.38,0,0,1,.29.34v.15h.12l.29.1.09.08a.93.93,0,0,1,.14.14.48.48,0,0,1,.07.26,1.1,1.1,0,0,1-.26.35l-2.25,2.12a1.49,1.49,0,0,1-.2.15,3.69,3.69,0,0,1-4.1.2,4.07,4.07,0,0,1-1.08-2.12c0-.19,0-.38,0-.59v-.44a2.24,2.24,0,0,1,.07-.51.33.33,0,0,0,.12-.29l-.11.24v-.13l0-.09v-.11a1.9,1.9,0,0,1,.13-.38h0a1.31,1.31,0,0,1,.17-.24,3.72,3.72,0,0,0,.41-.48l.24-.15ZM231.49,248a1.91,1.91,0,0,1-.16-.32c-.06-.1-.14-.25-.2-.38v-.06a1.44,1.44,0,0,1-.14-.54c.07-.13.3-.21.78-.39v-.05h0v.07a6.07,6.07,0,0,1,.59,1l0,.08v.08a6.24,6.24,0,0,1,.37,1.95,4.87,4.87,0,0,1-1.32-1.43Zm-3.91-15.32a1.27,1.27,0,0,1-.13-.47,2.5,2.5,0,0,0,.15-.38.54.54,0,0,1,.16-.1.83.83,0,0,1,.93.47,9.23,9.23,0,0,1,1.08,3.14A8.29,8.29,0,0,1,227.58,232.71Zm2-43.43a3.79,3.79,0,0,1,.54-.45h.05a1.78,1.78,0,0,0,.72-.28,1.31,1.31,0,0,1,.28,0c-.42.48-.92.51-1.58.76l0,0Zm23,48a11.83,11.83,0,0,1-1.25-3.19l.1.08v.06h.1l.31.25c.38.41.74.85,1.08,1.23a2.46,2.46,0,0,1,.38.41l.16.25a3.21,3.21,0,0,1,.19.31h0a3.11,3.11,0,0,1,.23.79.56.56,0,0,1-.29.38h0c-.54.27-.77-.21-1-.57ZM255,259.49l.11-.14h0a1.65,1.65,0,0,1-.91,1.68h0a3,3,0,0,1,.21-.6,3.37,3.37,0,0,0,.61-.94Zm1.86-.75h0a18.73,18.73,0,0,1-1.69,3.49,5.63,5.63,0,0,1,.22-1.28,6.51,6.51,0,0,1,1.48-2.21ZM275.23,260a1.09,1.09,0,0,1-.67,1.34h-.09v-.06c-.38.15-.54.89-1.08.7a3.56,3.56,0,0,1-1.75-1.08l-.1-.15v-1c.39-.59.49-.75.92-1,.1.19.19,0,.27-.13l.33-.17c.22.38,0,.78.21,1.08a1.43,1.43,0,0,0,.13.46c.4-.46.09-.95.4-1.46.05.21.09.43.12.65l.22-.23c0-.2,0-.41.24-.5a1.17,1.17,0,0,0-.16-.15h.1l.05.06h0a3.38,3.38,0,0,1,.8,1.27,1.61,1.61,0,0,1,.07.37Zm-3.76-4.41a1.61,1.61,0,0,1-.39.93c-.24.05-.54-.08-.75.15l.1.07h-.18c.35.22.77.1,1.12.14l.08.06c-.22.35-.76.09-1,.48l.12.05a1.58,1.58,0,0,0-.31.09c.5.09.84.17,1.2-.15l.09.07a2,2,0,0,1-2.27,1v-.06c-.65-.13-.9-.9-1.34-1.37V257c.08-.77.71-1.28,1-1.93v0c1-.5,1.68.12,2.47.51Zm0,1.84a1.85,1.85,0,0,0-.47,0,.5.5,0,0,1,.5,0Zm.4-5.5.13.06ZM264,168.36c-.33.26-.57.49-1.08.32a.82.82,0,0,1,.21-.25,3.09,3.09,0,0,0,.59-.18.6.6,0,0,1,.29.08Zm-11.43,8.83a11.93,11.93,0,0,0,3-2.52.24.24,0,0,1,0-.1h0a.41.41,0,0,0,0,.09l.13-.2h0l.23-.25h0a1.06,1.06,0,0,0,.46-.54v0a3.1,3.1,0,0,0,.78-.71h.08c.25-.16.57-.23.75-.5a1.24,1.24,0,0,0,.79-.25h-.1l.38,0a5.15,5.15,0,0,1,1.79.54,2.89,2.89,0,0,1,.75.73,2.76,2.76,0,0,1,.4.85,1.88,1.88,0,0,0,.29.54.64.64,0,0,0,.6.63,4.31,4.31,0,0,1,3,1.83,1,1,0,0,1,.12.17h0a4.81,4.81,0,0,1-1.65,6.59h0a4.34,4.34,0,0,1-3.74.5.71.71,0,0,1-.31-.13l-.12,0c-.15-.06-.28-.15-.44-.22a2.49,2.49,0,0,1-.43-.29,10.4,10.4,0,0,1-.9-.71.52.52,0,0,0-.11-.1,15.26,15.26,0,0,0-6-4h0l-.22-.08.47-.22a18.71,18.71,0,0,0,2.73-.84,2.25,2.25,0,0,1,.36-.06h.54l-.07-.08h.07c.4,0,.84.25,1.38,0l-.59-.18c-1.68-.73-3.36.09-5.1.31a.48.48,0,0,1,.08-.18l.11-.09h0l.46-.33-.05-.06h0Zm-30-12.83h0a.88.88,0,0,1,.54.16.36.36,0,0,1,0,.32.44.44,0,0,1-.08.11,14.12,14.12,0,0,0-2.07,2.85,6.29,6.29,0,0,1,.31-1.43A9.65,9.65,0,0,1,222.48,164.36Zm-53.69,53.46a2.43,2.43,0,0,1-.32-.78c0-.18-.08-.46.21-.46a.16.16,0,0,1,.12.09c.19.31.39.62.6.91a1.36,1.36,0,0,0,.38.3,1.2,1.2,0,0,0,1.26.18c.25-.1.39-.21.37-.44a.53.53,0,0,0-.11-.44c-.24-.84-.07-.84,1-.84a2,2,0,0,1,.25.32,1.47,1.47,0,0,1-.57,2l-.09,0h0a2.58,2.58,0,0,1-2.25-.07,3.53,3.53,0,0,1-.89-.79Zm63.46-27.74c-.18.54-.67.68-1,.94a1.4,1.4,0,0,1,.19-.41A1.29,1.29,0,0,1,232.25,190.08Zm.06,1.57v-.31l.14-.21a.81.81,0,0,0,.07-.22v0a2.85,2.85,0,0,0,.23-.26h-.06a.35.35,0,0,1,.14.06c0,.45-.31.66-.58,1Zm1.16,26.3a3.62,3.62,0,0,1-.25-.48,5.37,5.37,0,0,1-.49-2.16,5.53,5.53,0,0,1,.07-.7,2.72,2.72,0,0,1,1-1.46,1.87,1.87,0,0,1,1.34.34,2.73,2.73,0,0,1,.64,1.12,7.32,7.32,0,0,1,.12.94,16.21,16.21,0,0,0,.17,2.09,9.91,9.91,0,0,0,.42,2.48,26.82,26.82,0,0,0,.78,2.79,2.4,2.4,0,0,1-.05.46,2.34,2.34,0,0,1-1-1,48.2,48.2,0,0,1-2.78-4.42Zm33.1,20.64h0a6.7,6.7,0,0,1,.45-.6,6.79,6.79,0,0,0,1-.89c.12-.09.25-.17.38-.25h0a2.72,2.72,0,0,1-1.91,1.74Zm3.47-5.43a.57.57,0,0,1,.1-.19l.19-.19a3,3,0,0,1,.38-.24c.4-.26.83-.51,1.25-.77a2.66,2.66,0,0,1-1.95,1.41Zm4.92-7h0l-.19-.13c.11-.34.41-.61.48-1l.35-.6.12-.17h0a.24.24,0,0,0,.14-.1,3.38,3.38,0,0,1-.94,2Zm7.46-44.65h0a3.58,3.58,0,0,1-.59-1.19h0a3.62,3.62,0,0,1-.16-1.18.56.56,0,0,1,.05-.08,3.06,3.06,0,0,1,.67,2.45Zm-19.07-15.33h0a1.71,1.71,0,0,1-1.21.91h0c.24-.36.65-.51.92-.84v0l.09-.05Zm-72.62-4.45c-.84.22-1.79.16-2.65.46-.37.12-.71,0-.74-.42v-.15h0a32.38,32.38,0,0,1,4.06-.1h.12A1.06,1.06,0,0,1,190.73,161.71Zm-2.83-.48h-.2a.45.45,0,0,1,.2,0Zm-3.1,3.14-.07.06Zm-.31.24h0a9.61,9.61,0,0,0,2.88-.25,2.56,2.56,0,0,0-.54-.1h.11a2.83,2.83,0,0,1,.4.08h.4a1.76,1.76,0,0,0,1.08.19h0l.09.1a4.44,4.44,0,0,1-1.39.26,4.45,4.45,0,0,0-2.33.54.57.57,0,0,1-.79-.08l-.05-.07a.57.57,0,0,1,0-.14l.19-.54-.11-.07h0Zm-9,25.64v.09l1.26.22h0a.28.28,0,0,0,.18,0,.62.62,0,0,1,.33,0h0a.57.57,0,0,0-.29,0,.63.63,0,0,0,.48.27h.05a.34.34,0,0,0,.21.21v.06a2.61,2.61,0,0,1,.47,1.21v.12a2.08,2.08,0,0,1-.15.78v-.08a2.32,2.32,0,0,1-.27.72c-.73,1.25-1.45,2.52-2.24,3.74-.43.68-.84.72-1.27,0-.59-.94-1.36-1.75-2-2.63a4.15,4.15,0,0,1-.84-2.22,3.56,3.56,0,0,1,.2-1.25h0l.54-.68a6.24,6.24,0,0,1,2.25-.54v-.05a2.16,2.16,0,0,0,1,0v-.09Zm5.59,28.59a1.51,1.51,0,0,1-.63-.93h0a2.93,2.93,0,0,1,.37-.94.89.89,0,0,1,.75,0h0a.41.41,0,0,0,.28.13h.05l.4.17a2.33,2.33,0,0,0,.79.35h.08a2.5,2.5,0,0,0,.75.42l.54.31.54.38a3.57,3.57,0,0,0,.84.6l.19.13a.31.31,0,0,0,.24.19h0l.54.49a1.84,1.84,0,0,1,.83.37,13.55,13.55,0,0,1-6.55-1.73Zm44.21,4.86a7.94,7.94,0,0,0,.5.78,2.56,2.56,0,0,1-.84,1.36,1.32,1.32,0,0,1-1.41-.32c.31-.24-.74-.65.14-.84.4-.1-.05-.13-.1-.14s-.48-.14,0-.33c.07,0,.26.06.21-.1v-.06a1,1,0,0,1,0-.54,1.45,1.45,0,0,1,1.08-.12,2.43,2.43,0,0,1,.47.28Zm22.6,11.3c.26.14.51.31.76.47a20.29,20.29,0,0,1,2.12,1.92l.19.27.54.84.07.12a.9.9,0,0,1,.08.46c-.07.4-.3.6-.71.41a1.91,1.91,0,0,1-.58-.48,19.79,19.79,0,0,1-2.45-4Zm8.26,19.34a1.29,1.29,0,0,1,.17-.33,1,1,0,0,0,.32-.37l.13-.13a.52.52,0,0,1,.28-.06,1.42,1.42,0,0,1-.89.93.07.07,0,0,1,0-.09ZM257.69,269a6.13,6.13,0,0,0-.19-1.48v-1.14a1.59,1.59,0,0,0,.15-1l-.08-.05h0v-.45a4,4,0,0,1,.09-.48h0a1.11,1.11,0,0,0,.19-.83h0a.08.08,0,0,1,0-.07,4.44,4.44,0,0,0,.31-1.33v-.1h0l.51-1.62h.07a.56.56,0,0,0,.2-.5h0a1.82,1.82,0,0,0,.32-1v0h0a.24.24,0,0,0,.11.15,5.63,5.63,0,0,0,.76-2l-.08-.09h0l.08.08a3.08,3.08,0,0,0,.3-.41c.21-.45.48-.5.84-.11l.54.61.08.1c.23.27.45.55.66.85l.84,1.14a28,28,0,0,1,2,3.1,3.5,3.5,0,0,0,.29.54c.16.31.31.63.44,1v.08c.08.24.16.47.23.72a.83.83,0,0,0,.13.43,10.36,10.36,0,0,1-.48,6.57v0c-.46,1.15-.65,1.27-1.82,1a32.43,32.43,0,0,1-4.32-1.17,3.27,3.27,0,0,1-2.12-2.53Zm20.48-11.23a.42.42,0,0,0-.16.25,2.05,2.05,0,0,1-.34.38v-.06c-.63.54-1.37.39-2.7-.58l.06-.07c.39-.12.44-.16.19-.47.09-.29.8.23,1-.29a.25.25,0,0,0-.12-.11l.11-.07c-.38-.31-.84-.08-1.23-.19a2.48,2.48,0,0,1,0-.77,1.46,1.46,0,0,0,.32-.42v-.09h0v.1a3.81,3.81,0,0,1,1.36-.36.84.84,0,0,1,1.08.5,4.9,4.9,0,0,0,.74.84,2.48,2.48,0,0,1-.34,1.36Zm-2-32c.05-.16.12-.31.18-.47l.6-.94h0q.26-.44.54-.84a3.5,3.5,0,0,1-1.32,2.25ZM248.88,160a.34.34,0,0,0,.32.19h0a8.1,8.1,0,0,1,1.86,1.2,7,7,0,0,1,.48.6.8.8,0,0,0,.23.37c.07.13.15.26.21.39a.57.57,0,0,0,.11.16.93.93,0,0,0,1.14.64h.09a.85.85,0,0,0,.23,0h0a3.8,3.8,0,0,0,1,.47v0h0v0a3,3,0,0,1,1.38,2.7,10.69,10.69,0,0,1-5.88,9.63c-.19.08-.4.13-.84.31l.2-.26a3.63,3.63,0,0,0,1.27-1.55,1,1,0,0,1,0-.25h0v.23a1.76,1.76,0,0,0,.54-1,.73.73,0,0,0,.24-.54h0a9.35,9.35,0,0,0,.74-3.54,2.65,2.65,0,0,0-.11-.74.49.49,0,0,0-.18-.22.9.9,0,0,0-.09-.32,2.39,2.39,0,0,0-.21.34.3.3,0,0,0-.12.22l0,.21c-.23.65-.29,1.37-.54,2a7.13,7.13,0,0,1-1.69,2.7c0-.24.07-.47.11-.68h.06v-.41c0-.24.06-.48.08-.71v0h0v-.1a3.34,3.34,0,0,0,.06-2,5.1,5.1,0,0,0-.08-.67,3.12,3.12,0,0,0-.34-1.53,7.62,7.62,0,0,0-.44,2.16,11.27,11.27,0,0,1-1.26,3.84h0a8.76,8.76,0,0,1-.24-1.26,29.86,29.86,0,0,0-.24-3.78.61.61,0,0,1,0-.19v-.44c-.1-.2.18-.59-.14-.67v-.13a.3.3,0,0,1,0,.11h-.09v.24h0v-.24a.54.54,0,0,0-.24.42v.71a6.91,6.91,0,0,0-.16,1.51,10.48,10.48,0,0,0-.08,2c-.05.57-.11,1.15-.21,1.72a7.73,7.73,0,0,1-.61-1.75V172a7.19,7.19,0,0,1-.15-.91l-.05-.48v-.33c-.06-.61-.13-1.25-.2-1.88l-.09.1a.12.12,0,0,0-.14,0c-.09.05-.07.15-.07.23v0l0,.09a.61.61,0,0,0-.19.48,6,6,0,0,0-.09,1,3.87,3.87,0,0,0,0,2.47.15.15,0,0,1,0-.11v.1h0a1.51,1.51,0,0,0,0,.67,5.11,5.11,0,0,0,.05.78c-1.69-1.32-1.69-3.37-2.35-5.05a2.88,2.88,0,0,0-.13.31.5.5,0,0,0,0-.13,1.31,1.31,0,0,1-.05.39,4,4,0,0,0,0,1.62,7.24,7.24,0,0,0,.51,1.93h0l.25.77a1.21,1.21,0,0,0,.49.77h0a2.4,2.4,0,0,0,.74,1h0l.06.1c-.24.32-.46.05-.62-.06a10.67,10.67,0,0,1-4.92-7.49v-2.3h-.06v-.05h.08a.32.32,0,0,0,0-.27l.84-1.49h0a1.08,1.08,0,0,0,.54-.47h0a1,1,0,0,0,.74-.28h0c.84,0,1.62,0,1.78-1h0a.88.88,0,0,0,.27-.36h0a.35.35,0,0,0,.05-.08h0a1.23,1.23,0,0,0,.47-.54h0a.35.35,0,0,0,.25-.26h0a.32.32,0,0,0,.29-.24.61.61,0,0,0,.45-.31h0a.4.4,0,0,1,.18-.16.34.34,0,0,0-.14.15l.32-.2a.18.18,0,0,0,.14-.06.61.61,0,0,1,.12-.16h0c0,.06-.09.1-.12.17l2-.72H247l1.74.21Zm-30.95,1.81v1.34h0a2,2,0,0,1-.21.47l-.09.18a2.83,2.83,0,0,1-1.38,1.13,4.74,4.74,0,0,1-5.74-2.11,2.28,2.28,0,0,1-.36-1,3.11,3.11,0,0,1,.29-1.34,1.3,1.3,0,0,1,.28.34c.1.24.2.48.3.68a2,2,0,0,0,.59,1.12l.08.09a.22.22,0,0,0,.11.12,2,2,0,0,0,.51.42,2,2,0,0,0,2.39.38h.08l.1-.08a.23.23,0,0,0,.14-.13h0l.2-.14c.21-.15.32-.25.31-.37.18-.4-.26-.54-.42-.84a1.14,1.14,0,0,1-.2-.54,1.52,1.52,0,0,1,.85-1.28,2.21,2.21,0,0,1,1.76.8h0c.09.23.19.47.29.69h0Zm-18.62-4.16h-1.26v-.1h0v.1h1.08a.49.49,0,0,1,.16,0Zm-2.52,0a.91.91,0,0,0-.3.25,3.73,3.73,0,0,0,1.52-.2h0a5.75,5.75,0,0,0,2.06.26l-.11-.12h0l.1.12a2,2,0,0,0,.42.19v.13a16.08,16.08,0,0,0-1.84.07c-1,.06-2-.09-2.8.58a.68.68,0,0,1-.94-.21h0a.75.75,0,0,1-.1-.32A.79.79,0,0,0,195,158l.25-.24a.64.64,0,0,1,.13-.15h0a.64.64,0,0,0-.13.15h.73a.25.25,0,0,0,.28.2l-.28-.2h0l.29.2h.27a.74.74,0,0,1,.23-.2Zm7,54.09a4.52,4.52,0,0,0,.59-.72l.11-.12a1.23,1.23,0,0,1,1.15.26l.1-.08h0l-.06,0h0l.62.45a1.25,1.25,0,0,1-.16,1.18c-.2.36-.51.54-.76.36v0l-.21-.12v-.37a.16.16,0,0,0-.11-.05s-.11.07-.11.07v.27c-.14,0-.26.07-.38.3s-.38,0-.5-.21a1.22,1.22,0,0,1-.24-1.24Zm14.1,25.92a6,6,0,0,1-.08-.84v-1.57a1.27,1.27,0,0,1,0-.39c0-.36.22-.68.64-.65a.46.46,0,0,1,.37.21,1.1,1.1,0,0,1,.08.54v-.06c-.07.89-.18,1.78-.31,2.68a12,12,0,0,1-.36,1.43,7.86,7.86,0,0,1-.27-1Zm35.5,29.93a.83.83,0,0,0,.12-.49c.09-.32.21-.61.29-.91h0a6.85,6.85,0,0,1-.26,2.95v-.05a2.47,2.47,0,0,1-.13-1.47Zm18.75-34.18c.27-.35.74-.5.93-.93v0a1.07,1.07,0,0,0,.52-.57h0V232a1,1,0,0,0,.54-.48.65.65,0,0,1,.27.05v0a6.79,6.79,0,0,1-2.16,2Zm-11.41-67.83.57-.76v-.06l.18-.12v0a1.69,1.69,0,0,1-.84,1.3c0-.1,0-.25,0-.36h0v-.06s0,0,0,0ZM48.78,178H49l.46.1h0a.25.25,0,0,0,.27.14.12.12,0,0,0-.07-.07h0a.27.27,0,0,1,.08.07l.25.06h0l1.57.57c.3.13.6.25.89.4a16.34,16.34,0,0,1-3.28,0,2,2,0,0,1-.72-.23.54.54,0,0,1-.25-.37C48.5,178.23,48.6,178,48.78,178Zm-1.5,28.94a2.52,2.52,0,0,1-2.74-.84,1.09,1.09,0,0,1-.09-.23c.09-.77.32-1,1.15-1.08a7.82,7.82,0,0,1,3.3.14,5.83,5.83,0,0,0,3.78,0,14.77,14.77,0,0,1,1.49-.38h2.06l-.06-.1h0l.06.1,1.45.05h0a7.08,7.08,0,0,0,1.82.48h0c.38.2.77.36,1.13.59l.17.12a.63.63,0,0,1,.07.3c0,.67-.74.73-1.24.89a15.3,15.3,0,0,1-1.75.41A.84.84,0,0,1,57,207a1.47,1.47,0,0,0-2.06-.17h0a1.31,1.31,0,0,0-.22.25,2.09,2.09,0,0,1-1.92,1H51.35a2.21,2.21,0,0,1-1.67-.73C48.64,206.32,48.6,206.35,47.28,206.93Zm40.36-5.18v-.05c-.09.5-.78.84-1.62.71a1.83,1.83,0,0,1-.62-.16A13.08,13.08,0,0,1,82.12,200c.21-.06.39.1.58.08a4.1,4.1,0,0,0,2.06.49v-.13h0v.09l2.27.29c.43.23.67.54.61.9Zm28,39.22a11.39,11.39,0,0,1,.18,3.95,15.4,15.4,0,0,1-1.08-3.37V241c0-.18.07-.17.11-.25h.68a.21.21,0,0,1,.06.1.29.29,0,0,1,.1.12Zm117.61,5.12h0V246l-.06-.12a2.91,2.91,0,0,1,0-.59v-.11h0v.08a.92.92,0,0,1,.72-.12h0c.29.35.54.8.84,1.19h0a.26.26,0,0,0,.13.22,12.54,12.54,0,0,1,1.13,2.7,8,8,0,0,1-2.74-3.19Zm44.28-19.83c.09-.28.2-.54.31-.84a16.6,16.6,0,0,0,1.16-2.21.52.52,0,0,0,.19-.08,4.39,4.39,0,0,1-1.62,3.13Zm5.4-19.7h0a4.11,4.11,0,0,1,0-1.4,15,15,0,0,0,.4-1.46h0l.1-.34a6.52,6.52,0,0,1,.67-1.38,15.69,15.69,0,0,1-1.08,4.58Zm1.94-19.91h0a5.08,5.08,0,0,1-.1-3,4.51,4.51,0,0,1,.12,3Zm.05-6.53a2.54,2.54,0,0,1-.58-1.39v-.41a2.67,2.67,0,0,1,.28-1h.05c.09.89.17,1.77.28,2.8ZM156.16,160,152,159.3l.28.18a2.43,2.43,0,0,0-.6.1l1.36.49a.18.18,0,0,1,.05-.07h0v.05a16.68,16.68,0,0,0,3,1.47l.59.35-.1.13-2.93.54a.31.31,0,0,0-.19,0l-.24.05.12.06v.09c-.05.28.31.28.54.28l0-.09h0l-.05.11a.45.45,0,0,0,.23,0h.07l2.16.91h-.07l-3,.4a9.58,9.58,0,0,0,2.36,1.21,6.14,6.14,0,0,1,.84.52c-.34.48-1,.54-1.31,1l.07.1v0a12,12,0,0,0,1.26,1.41l.3.37.27.47-4.46.64.54.18-.42.14a25,25,0,0,0,3,.66l.31.09a4.71,4.71,0,0,0,.64.19,12.67,12.67,0,0,1,1.44.57l-5.22,1.26a2.59,2.59,0,0,0,.38.17l-.32.16c.84,0,1.68.4,2.52.3a.21.21,0,0,0-.06-.1h.12a.85.85,0,0,1,.22.09h0l-3.83,2.36a2.54,2.54,0,0,0,.37.1l-.49.34a4.71,4.71,0,0,1,1.4-.11c.38,0,.8-.17,1.17,0-.85.85-1.95,1.28-2.83,2.16h.14c-.06.11,0,.2.19.23a5.06,5.06,0,0,0,1,.06h0v0h.26l.05.06c-1.15,1.16-2.52,1.92-3.69,3.08h.2v.07c.54.28,1.18-.16,1.69.15a4,4,0,0,1-.84,1,6.54,6.54,0,0,0-1.83,5.62,5.11,5.11,0,0,1-.51,2.75,28.09,28.09,0,0,1-1.79,3.55,33.09,33.09,0,0,0-1.88,3.65,5.9,5.9,0,0,0-.28,4.37,9.56,9.56,0,0,1,.4,1.68h0a11,11,0,0,1,.09,2.57c0,.18-.05.36-.08.54-.26,0-.35,0-.43-.17a24.6,24.6,0,0,1-3.44-7.68,5,5,0,0,1-.15-.77h0a6.58,6.58,0,0,1,.3-3,2.48,2.48,0,0,0,.43-.84h0a.6.6,0,0,0,.27-.5h0a1.86,1.86,0,0,0,.73-.95.53.53,0,0,1,.12-.14.26.26,0,0,0,.11-.14l.11-.12a1,1,0,0,0,.41-.37.41.41,0,0,1,.08-.19.61.61,0,0,0-.05.12l.16-.19h.05v-.07h0v.1a1.45,1.45,0,0,0,.66-.8,2.68,2.68,0,0,0,.54-1l.1-.21h0a.76.76,0,0,0,.22-.57l.07-.28A2.5,2.5,0,0,0,145,190v-.14a6.37,6.37,0,0,0,.23-1.43,18.82,18.82,0,0,0-.35-4v-.21a1.37,1.37,0,0,0-.07-.45,19,19,0,0,1-.18-3.37v-.54a4.94,4.94,0,0,1,.1-1v-.29c.05-.32.11-.64.18-.95a1.57,1.57,0,0,0,.17-.73,1.48,1.48,0,0,1,.12-.41l1.08-2.83c.06-.13.11-.25.18-.38l.17-.37a17.51,17.51,0,0,0,1.23-2.35,4.62,4.62,0,0,0,.54-2.6v-.16a6.67,6.67,0,0,0-.21-1.41c-.16-.71-.35-1.41-.54-2.1h0q-.72-2.66-1.68-5.25a2.07,2.07,0,0,1-.21-.92c.2-.14.54-.14.66-.33h0c.45-.06.93,0,1.33-.27h0a12.14,12.14,0,0,0,2.16-.26h.42l3,.38v0a3,3,0,0,0,1,.39h0a1.06,1.06,0,0,0,.54.37h0l.23.18a6.51,6.51,0,0,0,.51.54c.13.16.25.32.37.5a1.07,1.07,0,0,1,.16.32Zm-35.94-6.19a7.91,7.91,0,0,1,1.78,1h0a1.05,1.05,0,0,0,.44.47,4,4,0,0,1,.68,3.29A3.31,3.31,0,0,1,121,161a4.23,4.23,0,0,1,.47.25c.06.15.29.24.47.34l.1.07a4,4,0,0,1,1.08,1.38,6.36,6.36,0,0,0-3.29-1.84v-.09a1.18,1.18,0,0,1,.11-.19,1.22,1.22,0,0,0,.63-.26v-.12h0v.08a2.37,2.37,0,0,0,1.33-1h0a2.57,2.57,0,0,0,.54-2.52,3.35,3.35,0,0,0-1.62-2.22c-.14-.1-.31-.15-.44-.25s-.84-.11-.75-.54c.11-.27.41-.17.64-.21ZM61,170.47a13.34,13.34,0,0,1-3.57-.1h-.1c-.61-.19-.6-.38-.27-1.12a.73.73,0,0,1,.21-.06.91.91,0,0,1-.22.11,7.7,7.7,0,0,1,2.32.45h0A12.42,12.42,0,0,1,61,170.47Zm90.42,52.62h0a4.57,4.57,0,0,1-.83-1.9,38.47,38.47,0,0,1-.85-5.76v-2a5.89,5.89,0,0,0-.15-2.13c0-.84-.07-1.68-.13-2.45s-.12-1.79-.23-2.7c-.08-.72-.13-1.45-.2-2.16a9.39,9.39,0,0,0-.1-1.19,8.34,8.34,0,0,1,0-1.73.27.27,0,0,1,.12.09c.44.37.57,1,1.08,1.51l.08.12a0,0,0,0,1,0,0l.05,0v-.54a18.33,18.33,0,0,1,.54-4.69l.27.65v.12l1.21,2.88c.1-.36.19-.7.27-1.05.25-1,.41-2,.58-2.93l.11-.54a10.77,10.77,0,0,1,1.4-3.88h0v5.24h0v.28l.26,0a21.11,21.11,0,0,0,1.32-3c.08-.2.16-.38.23-.57a5.25,5.25,0,0,0,.36-1.21,2,2,0,0,0,.12-.89c.06-.54.1-1.08.21-1.62.09.25.18.5.26.76a25.63,25.63,0,0,0,1,2.7c.11.29.21.59.32.9l0-.07.06.14v-.27a2,2,0,0,0,.11-1.29,49.77,49.77,0,0,1-.08-6.8V187a5,5,0,0,1,.19-.63,8.52,8.52,0,0,1,.41,1.3,10.84,10.84,0,0,0,.79,2.79h0v.06a.16.16,0,0,1,.06-.15,1.26,1.26,0,0,0,.39-.71,18.63,18.63,0,0,0,.77-4.91,3.45,3.45,0,0,0,0-1.2,14.07,14.07,0,0,0-.09-1.95,5.07,5.07,0,0,1,.84.83c.31.65.59,1.32.84,2l0,0a10.84,10.84,0,0,1-.09,2h0v.09l.06-.06.2.2.74-1.42a8.58,8.58,0,0,0,1-2,.94.94,0,0,0,.17-.54,2.18,2.18,0,0,1,.11-.44,3.85,3.85,0,0,0,.22-1.87v-.67a13.65,13.65,0,0,1-.14-1.42v-1.67a9.34,9.34,0,0,1,.18-1.48,3.35,3.35,0,0,1,.21-.36.66.66,0,0,1,.2.06,9.41,9.41,0,0,0,.6,1.52l.08.2v.14a.6.6,0,0,0,.17.54.15.15,0,0,0,0,.13.24.24,0,0,0,0,.12h0a0,0,0,0,1,0,.05l.54,2.08c.18.84.33,1.62.44,2.45v3a2.15,2.15,0,0,1-.12.5,1.16,1.16,0,0,0-.12.44,8,8,0,0,1-1.68,2.9l-.09.09a8.13,8.13,0,0,0-2.13,3.08,5.83,5.83,0,0,0-.54,1.62,15,15,0,0,0-.32,3.95h0a27.44,27.44,0,0,1-.24,5.13,18,18,0,0,1-2.58,7.07,11.27,11.27,0,0,0-1.57,3.52.58.58,0,0,0,0,.14,11,11,0,0,0-.12,4.64c.07.46.15.91.21,1.37v.11c.09.54.17,1.08.25,1.68v.11c.07.5.15,1,.23,1.5a1.19,1.19,0,0,0,.08.41,3.82,3.82,0,0,0,.12.66,2.8,2.8,0,0,1,0,.41h0c0,.32-.26.45-.69.5a11,11,0,0,1-4.32,0A4.58,4.58,0,0,1,151.37,223.09Zm50.37-8.86.34-.59a.65.65,0,0,1,.16-.13h.68a1.49,1.49,0,0,1,.62.27c.22.3.33.5.3.65s-.38.15-.47.35h0l-.21.08a.1.1,0,0,0-.06.09l.06.1a1.93,1.93,0,0,1,.48,0l-.09.11c-.28.28.23.07.28.25a.34.34,0,0,1-.17.37h0a1.79,1.79,0,0,1-1,.34,2.67,2.67,0,0,1-1.26-1,1.27,1.27,0,0,1,.33-1Zm22.93,36.53a4.93,4.93,0,0,0-.07-.66,7.31,7.31,0,0,1,.06-1.62c.54-.38.84-.41,1-.08a1.85,1.85,0,0,1,.08.48,15.59,15.59,0,0,1-.3,4.09,7.66,7.66,0,0,1-.74-2.24Zm30.84,2.5a2.5,2.5,0,0,1,.35-.21,2.7,2.7,0,0,1-1.51,1.42,3.19,3.19,0,0,1,.3-.42c.3-.27.59-.54.86-.81ZM252,270.75a4.74,4.74,0,0,1-.22-2.3,1.27,1.27,0,0,1,.13-.32h.2a4.2,4.2,0,0,1,.13,1.62,5.5,5.5,0,0,1-.24,1Zm20.58-36.64c.15-.17.32-.31.48-.46l.26-.19h0l1.29-1,.25-.21h0a3.47,3.47,0,0,1-2.32,1.95ZM188,157.79c-1.21.72-2.52.65-3.82,1-.24.05-.45-.19-.48-.49.17-.4.54-.37.93-.37h0a8.5,8.5,0,0,0,2.89-.19h-.12a1.92,1.92,0,0,1,.58.07Zm-127.86,64h0c-.22-.47-.27-.57-.15-1a1.39,1.39,0,0,1,.21-.27A1.69,1.69,0,0,1,60.16,221.78Zm20,58.48.18-.24a.39.39,0,0,0,.11-.22v-.08l.14-.22h.05l.3-.23a.3.3,0,0,1,.23-.28v-.25l.11-.11.19.06a8.32,8.32,0,0,0-.28,2.16v-.05a.59.59,0,0,1-.68.59.61.61,0,0,1-.37-.23,5.7,5.7,0,0,1-.06-.58h0l.08-.26h0Zm3.86,1h0c.28-.14.42-.45.74-.62a12.69,12.69,0,0,0,0,1.95v-.06c.09.43-.46.84-.85.74a.53.53,0,0,1-.39-.46,7,7,0,0,1,.45-1.54Zm4.21.21c.07.7.17,1.41.21,2.13a.53.53,0,0,1-.34.66H88v-.08a.55.55,0,0,1-.59-.48v-.06a2.16,2.16,0,0,1,.84-2.16Zm3.5,2.45a2.71,2.71,0,0,1-.29-1.08v-.71h0a2,2,0,0,1,.12-.34c.5.23.5.73.84,1l.05.09h0c.18.34.34.7.49,1.06a.6.6,0,0,1-.19.37.66.66,0,0,1-.17.12v-.07c-.47.26-.73-.07-.85-.44ZM269,240.76h0c.18-.25.37-.49.54-.73h0a8,8,0,0,0,1.22-1.31h0v.05a2.36,2.36,0,0,0,.76-.78,8.36,8.36,0,0,1,.84-.63.11.11,0,0,1,.08,0h.07a11.94,11.94,0,0,1-3.52,3.38Zm16.2-41.2h0a2.32,2.32,0,0,1-.22-1.16.17.17,0,0,1,0-.1,4.37,4.37,0,0,1,.47-2.27,6.59,6.59,0,0,1-.25,3.52Zm-213,12.85h0v.05h0Zm60.32,70.15a5,5,0,0,0-.14,1.89v-.13a.81.81,0,0,1,0,.38.67.67,0,0,1-.75.54.54.54,0,0,1-.49-.54.66.66,0,0,1,.06-.34,3.89,3.89,0,0,1,.12-.49,8.16,8.16,0,0,0,.9-1.22l.1-.07Zm-4.6-.32c.19-.3.37-.62.54-.94l.23-.19a.6.6,0,0,1,.33-.38c-.07.84-.13,1.36-.17,1.88v-.13a.7.7,0,0,1-.54.77.45.45,0,0,1-.46-.14,1,1,0,0,1-.14-.27,1.06,1.06,0,0,1,.21-.6Zm85.61,2.88a2.8,2.8,0,0,1,.2-.74,3.79,3.79,0,0,1,.67-1.17,1.68,1.68,0,0,1,.4-.3,8.35,8.35,0,0,0-.07,2.06h0c.1.43-.46.84-.85.73a.47.47,0,0,1-.26-.2A1.24,1.24,0,0,1,213.53,285.12Zm3.78.84a6.36,6.36,0,0,1,.31-1.62c.19-.14.24-.42.51-.54.1.76.18,1.42.24,2.08.09.39,0,.7-.47.73h0a.56.56,0,0,1-.54-.39.53.53,0,0,1,0-.25Zm36.52-.84h0V285h0Zm-42.61-4a.57.57,0,0,1,.08.13,11.42,11.42,0,0,0-.11,1.55,1.23,1.23,0,0,1,0,.47h0c-.16.3-.35.63-.77.48a.61.61,0,0,1-.38-.43,6.88,6.88,0,0,1,1.13-2.12ZM267,292.62a.24.24,0,0,1,0-.12h0a.17.17,0,0,0,0,.1Zm3.82-2.11a.14.14,0,0,0,0-.09h0a.17.17,0,0,1,0,.1Z"/>
              <path class="cls-10" d="M237.41,273.9a.82.82,0,0,0,.42-.54C237.49,273.39,237.41,273.59,237.41,273.9Z"/>
              <path class="cls-11" d="M102,282.33l-.24.19A.24.24,0,0,0,102,282.33Z"/>
              <path class="cls-12" d="M112.5,227.55l-.26-.2A.25.25,0,0,0,112.5,227.55Z"/>
              <path class="cls-13" d="M248.76,162.77a.22.22,0,0,0,.1-.18.11.11,0,0,0,0-.08.17.17,0,0,0-.22-.09h0a.22.22,0,0,0-.1.18v0A.2.2,0,0,0,248.76,162.77Z"/>
              <path class="cls-14" d="M250.86,164.54c.09,0,.09-.15.09-.22h0a.2.2,0,0,0-.27-.09h-.06a.15.15,0,0,0,0,.2A.24.24,0,0,0,250.86,164.54Z"/>
              <path class="cls-15" d="M246.92,168.55l.05-.05a.22.22,0,0,0-.05-.31h0Z"/>
              <path class="cls-16" d="M204.7,212.73c-.19.08-.15.27-.18.43C204.7,213.07,204.7,212.88,204.7,212.73Z"/>
              <path class="cls-17" d="M173.84,201.65a2.8,2.8,0,0,0-.22.57,1.4,1.4,0,0,0-.05,1.46c.47-.84.47-1.84,1.22-2.45l.1.08c-.12.52-.51,1-.19,1.62a1.64,1.64,0,0,0,.13.54,2.14,2.14,0,0,0,.13-1,4.27,4.27,0,0,0,0-1.13l.17.15c.48.5.45,1.21.84,1.73.05.17,0,.48.32.38s.07-.35.05-.43-.09-.16-.09-.24a2.58,2.58,0,0,0-.27-.84,2.06,2.06,0,0,0-.37-.74c-.2-.34-.39-.49-.63-.48s-.38-.14-.54,0a3.31,3.31,0,0,0-.35.41l-.17.12-.07-.29-.2.26h.23A.73.73,0,0,1,173.84,201.65Z"/>
              <path class="cls-18" d="M174.39,200.39l-.23.26A.28.28,0,0,0,174.39,200.39Z"/>
              <path class="cls-19" d="M234.31,179.71a.46.46,0,0,0-.51-.28h0a.45.45,0,0,0-.39.5h0a.06.06,0,0,0,0,.06h0a.46.46,0,0,0,.43.5c.35.06.54-.12.66-.54A1.55,1.55,0,0,0,234.31,179.71Z"/>
              <path class="cls-20" d="M121,214.55c-.11,0-.12.06,0,.11h.1v-.07S121.05,214.52,121,214.55Z"/>
              <path class="cls-21" d="M122.12,212.16c0,.11.08.14.08.11v-.21C122.12,212.09,122.13,212,122.12,212.16Z"/>
              <path class="cls-22" d="M123.54,215.8l-.28.25.21.11C123.5,216,123.52,215.92,123.54,215.8Z"/>
              <path class="cls-23" d="M175.46,196.56a2.85,2.85,0,0,0,.62-2.46c0,.09-.07.17-.09.26a.39.39,0,0,0-.05-.23,5,5,0,0,1-.44,1.35c-.12.26-.24.51-.38.77A.48.48,0,0,0,175.46,196.56Z"/>
              <path class="cls-24" d="M174.9,196.26v-.47l-.2-.07v-1l-.28-.25v.39a.5.5,0,0,0-.08-.2l0,.71v.13a.14.14,0,0,1,0,.09v.68c.07.29.05.61.11.89v.37h.11a.89.89,0,0,0,.29.29,4.18,4.18,0,0,0,0-1Z"/>
              <path class="cls-25" d="M203.2,188.84a.21.21,0,0,0-.15.25h0l.17-.05A.34.34,0,0,1,203.2,188.84Z"/>
              <path class="cls-26" d="M201.18,189.63a.78.78,0,0,0,.22-.58A.55.55,0,0,0,201.18,189.63Z"/>
              <polygon class="cls-27" points="91.39 191.65 91.4 191.63 91.39 191.65 91.39 191.65"/>
              <path class="cls-28" d="M250.14,194.5a.38.38,0,0,0-.73.18h0a.37.37,0,0,0,.11.19.53.53,0,0,0,.33.31.38.38,0,0,0,.38-.27v-.06A.45.45,0,0,0,250.14,194.5Z"/>
              <path class="cls-29" d="M243.45,193.22l-.09.05a.34.34,0,0,0,0,.2c.06.07.12,0,.16-.06a.12.12,0,0,0-.06-.18Z"/>
              <path class="cls-30" d="M244.85,194.71s.1.12.1.18l.13-.17-.11-.17S244.85,194.66,244.85,194.71Z"/>
              <path class="cls-31" d="M247.32,195.15a.82.82,0,0,0-.12.2.07.07,0,0,0,.08.07h0a.12.12,0,0,0,.13-.12s0,0,0-.06Z"/>
              <path class="cls-32" d="M198.84,186.76c.25-.1.26-.3.27-.54A.5.5,0,0,0,198.84,186.76Z"/>
              <path class="cls-33" d="M200.59,187.92h.08v-.13s0,0-.1,0S200.49,187.92,200.59,187.92Z"/>
            </g>
          </g>
        </g>
      </g>
    </g>
  </g>
</svg>
